ISO-10303-21;
HEADER;
FILE_DESCRIPTION(('Desk stand for the filter lens cap tab'),'2;1');
FILE_NAME('lens_cap_stand','2026-09-23T00:00:00',('AuV2-SLI'),('University of Kentucky'),'gen_lens_cap_stand.py','gen_lens_cap_stand.py','');
FILE_SCHEMA(('AUTOMOTIVE_DESIGN { 1 0 10303 214 1 1 1 1 }'));
ENDSEC;
DATA;
#1=CARTESIAN_POINT('',(36.,-90.,5.));
#2=VERTEX_POINT('',#1);
#3=CARTESIAN_POINT('',(37.0352762,-89.8637033,5.));
#4=VERTEX_POINT('',#3);
#5=CARTESIAN_POINT('',(38.,-89.4641016,5.));
#6=VERTEX_POINT('',#5);
#7=CARTESIAN_POINT('',(38.8284271,-88.8284271,5.));
#8=VERTEX_POINT('',#7);
#9=CARTESIAN_POINT('',(39.4641016,-88.,5.));
#10=VERTEX_POINT('',#9);
#11=CARTESIAN_POINT('',(39.8637033,-87.0352762,5.));
#12=VERTEX_POINT('',#11);
#13=CARTESIAN_POINT('',(40.,-86.,5.));
#14=VERTEX_POINT('',#13);
#15=CARTESIAN_POINT('',(40.,30.,5.));
#16=VERTEX_POINT('',#15);
#17=CARTESIAN_POINT('',(39.8637033,31.0352762,5.));
#18=VERTEX_POINT('',#17);
#19=CARTESIAN_POINT('',(39.4641016,32.,5.));
#20=VERTEX_POINT('',#19);
#21=CARTESIAN_POINT('',(38.8284271,32.8284271,5.));
#22=VERTEX_POINT('',#21);
#23=CARTESIAN_POINT('',(38.,33.4641016,5.));
#24=VERTEX_POINT('',#23);
#25=CARTESIAN_POINT('',(37.0352762,33.8637033,5.));
#26=VERTEX_POINT('',#25);
#27=CARTESIAN_POINT('',(36.,34.,5.));
#28=VERTEX_POINT('',#27);
#29=CARTESIAN_POINT('',(-36.,34.,5.));
#30=VERTEX_POINT('',#29);
#31=CARTESIAN_POINT('',(-37.0352762,33.8637033,5.));
#32=VERTEX_POINT('',#31);
#33=CARTESIAN_POINT('',(-38.,33.4641016,5.));
#34=VERTEX_POINT('',#33);
#35=CARTESIAN_POINT('',(-38.8284271,32.8284271,5.));
#36=VERTEX_POINT('',#35);
#37=CARTESIAN_POINT('',(-39.4641016,32.,5.));
#38=VERTEX_POINT('',#37);
#39=CARTESIAN_POINT('',(-39.8637033,31.0352762,5.));
#40=VERTEX_POINT('',#39);
#41=CARTESIAN_POINT('',(-40.,30.,5.));
#42=VERTEX_POINT('',#41);
#43=CARTESIAN_POINT('',(-40.,-86.,5.));
#44=VERTEX_POINT('',#43);
#45=CARTESIAN_POINT('',(-39.8637033,-87.0352762,5.));
#46=VERTEX_POINT('',#45);
#47=CARTESIAN_POINT('',(-39.4641016,-88.,5.));
#48=VERTEX_POINT('',#47);
#49=CARTESIAN_POINT('',(-38.8284271,-88.8284271,5.));
#50=VERTEX_POINT('',#49);
#51=CARTESIAN_POINT('',(-38.,-89.4641016,5.));
#52=VERTEX_POINT('',#51);
#53=CARTESIAN_POINT('',(-37.0352762,-89.8637033,5.));
#54=VERTEX_POINT('',#53);
#55=CARTESIAN_POINT('',(-36.,-90.,5.));
#56=VERTEX_POINT('',#55);
#57=DIRECTION('',(0.991444861,0.130526192,0.));
#58=VECTOR('',#57,1.);
#59=LINE('',#1,#58);
#60=EDGE_CURVE('',#2,#4,#59,.T.);
#61=ORIENTED_EDGE('',*,*,#60,.T.);
#62=DIRECTION('',(0.923879533,0.382683432,0.));
#63=VECTOR('',#62,1.);
#64=LINE('',#3,#63);
#65=EDGE_CURVE('',#4,#6,#64,.T.);
#66=ORIENTED_EDGE('',*,*,#65,.T.);
#67=DIRECTION('',(0.793353341,0.608761429,0.));
#68=VECTOR('',#67,1.);
#69=LINE('',#5,#68);
#70=EDGE_CURVE('',#6,#8,#69,.T.);
#71=ORIENTED_EDGE('',*,*,#70,.T.);
#72=DIRECTION('',(0.608761429,0.793353341,0.));
#73=VECTOR('',#72,1.);
#74=LINE('',#7,#73);
#75=EDGE_CURVE('',#8,#10,#74,.T.);
#76=ORIENTED_EDGE('',*,*,#75,.T.);
#77=DIRECTION('',(0.382683432,0.923879533,0.));
#78=VECTOR('',#77,1.);
#79=LINE('',#9,#78);
#80=EDGE_CURVE('',#10,#12,#79,.T.);
#81=ORIENTED_EDGE('',*,*,#80,.T.);
#82=DIRECTION('',(0.130526192,0.991444861,0.));
#83=VECTOR('',#82,1.);
#84=LINE('',#11,#83);
#85=EDGE_CURVE('',#12,#14,#84,.T.);
#86=ORIENTED_EDGE('',*,*,#85,.T.);
#87=DIRECTION('',(0.,1.,0.));
#88=VECTOR('',#87,1.);
#89=LINE('',#13,#88);
#90=EDGE_CURVE('',#14,#16,#89,.T.);
#91=ORIENTED_EDGE('',*,*,#90,.T.);
#92=DIRECTION('',(0.130526192,-0.991444861,0.));
#93=VECTOR('',#92,1.);
#94=LINE('',#17,#93);
#95=EDGE_CURVE('',#18,#16,#94,.T.);
#96=ORIENTED_EDGE('',*,*,#95,.F.);
#97=DIRECTION('',(0.382683432,-0.923879533,0.));
#98=VECTOR('',#97,1.);
#99=LINE('',#19,#98);
#100=EDGE_CURVE('',#20,#18,#99,.T.);
#101=ORIENTED_EDGE('',*,*,#100,.F.);
#102=DIRECTION('',(0.608761429,-0.793353341,0.));
#103=VECTOR('',#102,1.);
#104=LINE('',#21,#103);
#105=EDGE_CURVE('',#22,#20,#104,.T.);
#106=ORIENTED_EDGE('',*,*,#105,.F.);
#107=DIRECTION('',(0.793353341,-0.608761429,0.));
#108=VECTOR('',#107,1.);
#109=LINE('',#23,#108);
#110=EDGE_CURVE('',#24,#22,#109,.T.);
#111=ORIENTED_EDGE('',*,*,#110,.F.);
#112=DIRECTION('',(0.923879533,-0.382683432,0.));
#113=VECTOR('',#112,1.);
#114=LINE('',#25,#113);
#115=EDGE_CURVE('',#26,#24,#114,.T.);
#116=ORIENTED_EDGE('',*,*,#115,.F.);
#117=DIRECTION('',(0.991444861,-0.130526192,0.));
#118=VECTOR('',#117,1.);
#119=LINE('',#27,#118);
#120=EDGE_CURVE('',#28,#26,#119,.T.);
#121=ORIENTED_EDGE('',*,*,#120,.F.);
#122=DIRECTION('',(1.,0.,0.));
#123=VECTOR('',#122,1.);
#124=LINE('',#29,#123);
#125=EDGE_CURVE('',#30,#28,#124,.T.);
#126=ORIENTED_EDGE('',*,*,#125,.F.);
#127=VECTOR('',#57,1.);
#128=LINE('',#31,#127);
#129=EDGE_CURVE('',#32,#30,#128,.T.);
#130=ORIENTED_EDGE('',*,*,#129,.F.);
#131=VECTOR('',#62,1.);
#132=LINE('',#33,#131);
#133=EDGE_CURVE('',#34,#32,#132,.T.);
#134=ORIENTED_EDGE('',*,*,#133,.F.);
#135=VECTOR('',#67,1.);
#136=LINE('',#35,#135);
#137=EDGE_CURVE('',#36,#34,#136,.T.);
#138=ORIENTED_EDGE('',*,*,#137,.F.);
#139=VECTOR('',#72,1.);
#140=LINE('',#37,#139);
#141=EDGE_CURVE('',#38,#36,#140,.T.);
#142=ORIENTED_EDGE('',*,*,#141,.F.);
#143=VECTOR('',#77,1.);
#144=LINE('',#39,#143);
#145=EDGE_CURVE('',#40,#38,#144,.T.);
#146=ORIENTED_EDGE('',*,*,#145,.F.);
#147=VECTOR('',#82,1.);
#148=LINE('',#41,#147);
#149=EDGE_CURVE('',#42,#40,#148,.T.);
#150=ORIENTED_EDGE('',*,*,#149,.F.);
#151=VECTOR('',#87,1.);
#152=LINE('',#43,#151);
#153=EDGE_CURVE('',#44,#42,#152,.T.);
#154=ORIENTED_EDGE('',*,*,#153,.F.);
#155=VECTOR('',#92,1.);
#156=LINE('',#43,#155);
#157=EDGE_CURVE('',#44,#46,#156,.T.);
#158=ORIENTED_EDGE('',*,*,#157,.T.);
#159=VECTOR('',#97,1.);
#160=LINE('',#45,#159);
#161=EDGE_CURVE('',#46,#48,#160,.T.);
#162=ORIENTED_EDGE('',*,*,#161,.T.);
#163=VECTOR('',#102,1.);
#164=LINE('',#47,#163);
#165=EDGE_CURVE('',#48,#50,#164,.T.);
#166=ORIENTED_EDGE('',*,*,#165,.T.);
#167=VECTOR('',#107,1.);
#168=LINE('',#49,#167);
#169=EDGE_CURVE('',#50,#52,#168,.T.);
#170=ORIENTED_EDGE('',*,*,#169,.T.);
#171=VECTOR('',#112,1.);
#172=LINE('',#51,#171);
#173=EDGE_CURVE('',#52,#54,#172,.T.);
#174=ORIENTED_EDGE('',*,*,#173,.T.);
#175=VECTOR('',#117,1.);
#176=LINE('',#53,#175);
#177=EDGE_CURVE('',#54,#56,#176,.T.);
#178=ORIENTED_EDGE('',*,*,#177,.T.);
#179=VECTOR('',#122,1.);
#180=LINE('',#55,#179);
#181=EDGE_CURVE('',#56,#2,#180,.T.);
#182=ORIENTED_EDGE('',*,*,#181,.T.);
#183=EDGE_LOOP('',(#61,#66,#71,#76,#81,#86,#91,#96,#101,#106,#111,#116,#121,#126,#130,#134,#138,#142,#146,#150,#154,#158,#162,#166,#170,#174,#178,#182));
#184=FACE_OUTER_BOUND('',#183,.T.);
#185=DIRECTION('',(0.,0.,1.));
#186=AXIS2_PLACEMENT_3D('',#1,#185,#87);
#187=PLANE('',#186);
#188=ADVANCED_FACE('',(#184),#187,.T.);
#189=CARTESIAN_POINT('',(-36.,-90.,0.));
#190=VERTEX_POINT('',#189);
#191=CARTESIAN_POINT('',(-37.0352762,-89.8637033,0.));
#192=VERTEX_POINT('',#191);
#193=CARTESIAN_POINT('',(-38.,-89.4641016,0.));
#194=VERTEX_POINT('',#193);
#195=CARTESIAN_POINT('',(-38.8284271,-88.8284271,0.));
#196=VERTEX_POINT('',#195);
#197=CARTESIAN_POINT('',(-39.4641016,-88.,0.));
#198=VERTEX_POINT('',#197);
#199=CARTESIAN_POINT('',(-39.8637033,-87.0352762,0.));
#200=VERTEX_POINT('',#199);
#201=CARTESIAN_POINT('',(-40.,-86.,0.));
#202=VERTEX_POINT('',#201);
#203=CARTESIAN_POINT('',(-40.,30.,0.));
#204=VERTEX_POINT('',#203);
#205=CARTESIAN_POINT('',(-39.8637033,31.0352762,0.));
#206=VERTEX_POINT('',#205);
#207=CARTESIAN_POINT('',(-39.4641016,32.,0.));
#208=VERTEX_POINT('',#207);
#209=CARTESIAN_POINT('',(-38.8284271,32.8284271,0.));
#210=VERTEX_POINT('',#209);
#211=CARTESIAN_POINT('',(-38.,33.4641016,0.));
#212=VERTEX_POINT('',#211);
#213=CARTESIAN_POINT('',(-37.0352762,33.8637033,0.));
#214=VERTEX_POINT('',#213);
#215=CARTESIAN_POINT('',(-36.,34.,0.));
#216=VERTEX_POINT('',#215);
#217=CARTESIAN_POINT('',(36.,34.,0.));
#218=VERTEX_POINT('',#217);
#219=CARTESIAN_POINT('',(37.0352762,33.8637033,0.));
#220=VERTEX_POINT('',#219);
#221=CARTESIAN_POINT('',(38.,33.4641016,0.));
#222=VERTEX_POINT('',#221);
#223=CARTESIAN_POINT('',(38.8284271,32.8284271,0.));
#224=VERTEX_POINT('',#223);
#225=CARTESIAN_POINT('',(39.4641016,32.,0.));
#226=VERTEX_POINT('',#225);
#227=CARTESIAN_POINT('',(39.8637033,31.0352762,0.));
#228=VERTEX_POINT('',#227);
#229=CARTESIAN_POINT('',(40.,30.,0.));
#230=VERTEX_POINT('',#229);
#231=CARTESIAN_POINT('',(40.,-86.,0.));
#232=VERTEX_POINT('',#231);
#233=CARTESIAN_POINT('',(39.8637033,-87.0352762,0.));
#234=VERTEX_POINT('',#233);
#235=CARTESIAN_POINT('',(39.4641016,-88.,0.));
#236=VERTEX_POINT('',#235);
#237=CARTESIAN_POINT('',(38.8284271,-88.8284271,0.));
#238=VERTEX_POINT('',#237);
#239=CARTESIAN_POINT('',(38.,-89.4641016,0.));
#240=VERTEX_POINT('',#239);
#241=CARTESIAN_POINT('',(37.0352762,-89.8637033,0.));
#242=VERTEX_POINT('',#241);
#243=CARTESIAN_POINT('',(36.,-90.,0.));
#244=VERTEX_POINT('',#243);
#245=VECTOR('',#117,1.);
#246=LINE('',#191,#245);
#247=EDGE_CURVE('',#192,#190,#246,.T.);
#248=ORIENTED_EDGE('',*,*,#247,.F.);
#249=VECTOR('',#112,1.);
#250=LINE('',#193,#249);
#251=EDGE_CURVE('',#194,#192,#250,.T.);
#252=ORIENTED_EDGE('',*,*,#251,.F.);
#253=VECTOR('',#107,1.);
#254=LINE('',#195,#253);
#255=EDGE_CURVE('',#196,#194,#254,.T.);
#256=ORIENTED_EDGE('',*,*,#255,.F.);
#257=VECTOR('',#102,1.);
#258=LINE('',#197,#257);
#259=EDGE_CURVE('',#198,#196,#258,.T.);
#260=ORIENTED_EDGE('',*,*,#259,.F.);
#261=VECTOR('',#97,1.);
#262=LINE('',#199,#261);
#263=EDGE_CURVE('',#200,#198,#262,.T.);
#264=ORIENTED_EDGE('',*,*,#263,.F.);
#265=VECTOR('',#92,1.);
#266=LINE('',#201,#265);
#267=EDGE_CURVE('',#202,#200,#266,.T.);
#268=ORIENTED_EDGE('',*,*,#267,.F.);
#269=VECTOR('',#87,1.);
#270=LINE('',#201,#269);
#271=EDGE_CURVE('',#202,#204,#270,.T.);
#272=ORIENTED_EDGE('',*,*,#271,.T.);
#273=VECTOR('',#82,1.);
#274=LINE('',#203,#273);
#275=EDGE_CURVE('',#204,#206,#274,.T.);
#276=ORIENTED_EDGE('',*,*,#275,.T.);
#277=VECTOR('',#77,1.);
#278=LINE('',#205,#277);
#279=EDGE_CURVE('',#206,#208,#278,.T.);
#280=ORIENTED_EDGE('',*,*,#279,.T.);
#281=VECTOR('',#72,1.);
#282=LINE('',#207,#281);
#283=EDGE_CURVE('',#208,#210,#282,.T.);
#284=ORIENTED_EDGE('',*,*,#283,.T.);
#285=VECTOR('',#67,1.);
#286=LINE('',#209,#285);
#287=EDGE_CURVE('',#210,#212,#286,.T.);
#288=ORIENTED_EDGE('',*,*,#287,.T.);
#289=VECTOR('',#62,1.);
#290=LINE('',#211,#289);
#291=EDGE_CURVE('',#212,#214,#290,.T.);
#292=ORIENTED_EDGE('',*,*,#291,.T.);
#293=VECTOR('',#57,1.);
#294=LINE('',#213,#293);
#295=EDGE_CURVE('',#214,#216,#294,.T.);
#296=ORIENTED_EDGE('',*,*,#295,.T.);
#297=VECTOR('',#122,1.);
#298=LINE('',#215,#297);
#299=EDGE_CURVE('',#216,#218,#298,.T.);
#300=ORIENTED_EDGE('',*,*,#299,.T.);
#301=VECTOR('',#117,1.);
#302=LINE('',#217,#301);
#303=EDGE_CURVE('',#218,#220,#302,.T.);
#304=ORIENTED_EDGE('',*,*,#303,.T.);
#305=VECTOR('',#112,1.);
#306=LINE('',#219,#305);
#307=EDGE_CURVE('',#220,#222,#306,.T.);
#308=ORIENTED_EDGE('',*,*,#307,.T.);
#309=VECTOR('',#107,1.);
#310=LINE('',#221,#309);
#311=EDGE_CURVE('',#222,#224,#310,.T.);
#312=ORIENTED_EDGE('',*,*,#311,.T.);
#313=VECTOR('',#102,1.);
#314=LINE('',#223,#313);
#315=EDGE_CURVE('',#224,#226,#314,.T.);
#316=ORIENTED_EDGE('',*,*,#315,.T.);
#317=VECTOR('',#97,1.);
#318=LINE('',#225,#317);
#319=EDGE_CURVE('',#226,#228,#318,.T.);
#320=ORIENTED_EDGE('',*,*,#319,.T.);
#321=VECTOR('',#92,1.);
#322=LINE('',#227,#321);
#323=EDGE_CURVE('',#228,#230,#322,.T.);
#324=ORIENTED_EDGE('',*,*,#323,.T.);
#325=VECTOR('',#87,1.);
#326=LINE('',#231,#325);
#327=EDGE_CURVE('',#232,#230,#326,.T.);
#328=ORIENTED_EDGE('',*,*,#327,.F.);
#329=VECTOR('',#82,1.);
#330=LINE('',#233,#329);
#331=EDGE_CURVE('',#234,#232,#330,.T.);
#332=ORIENTED_EDGE('',*,*,#331,.F.);
#333=VECTOR('',#77,1.);
#334=LINE('',#235,#333);
#335=EDGE_CURVE('',#236,#234,#334,.T.);
#336=ORIENTED_EDGE('',*,*,#335,.F.);
#337=VECTOR('',#72,1.);
#338=LINE('',#237,#337);
#339=EDGE_CURVE('',#238,#236,#338,.T.);
#340=ORIENTED_EDGE('',*,*,#339,.F.);
#341=VECTOR('',#67,1.);
#342=LINE('',#239,#341);
#343=EDGE_CURVE('',#240,#238,#342,.T.);
#344=ORIENTED_EDGE('',*,*,#343,.F.);
#345=VECTOR('',#62,1.);
#346=LINE('',#241,#345);
#347=EDGE_CURVE('',#242,#240,#346,.T.);
#348=ORIENTED_EDGE('',*,*,#347,.F.);
#349=VECTOR('',#57,1.);
#350=LINE('',#243,#349);
#351=EDGE_CURVE('',#244,#242,#350,.T.);
#352=ORIENTED_EDGE('',*,*,#351,.F.);
#353=VECTOR('',#122,1.);
#354=LINE('',#189,#353);
#355=EDGE_CURVE('',#190,#244,#354,.T.);
#356=ORIENTED_EDGE('',*,*,#355,.F.);
#357=EDGE_LOOP('',(#248,#252,#256,#260,#264,#268,#272,#276,#280,#284,#288,#292,#296,#300,#304,#308,#312,#316,#320,#324,#328,#332,#336,#340,#344,#348,#352,#356));
#358=FACE_OUTER_BOUND('',#357,.T.);
#359=DIRECTION('',(0.,0.,-1.));
#360=DIRECTION('',(0.,-1.,0.));
#361=AXIS2_PLACEMENT_3D('',#189,#359,#360);
#362=PLANE('',#361);
#363=ADVANCED_FACE('',(#358),#362,.T.);
#364=ORIENTED_EDGE('',*,*,#351,.T.);
#365=VECTOR('',#185,1.);
#366=LINE('',#241,#365);
#367=EDGE_CURVE('',#242,#4,#366,.T.);
#368=ORIENTED_EDGE('',*,*,#367,.T.);
#369=ORIENTED_EDGE('',*,*,#60,.F.);
#370=VECTOR('',#185,1.);
#371=LINE('',#243,#370);
#372=EDGE_CURVE('',#244,#2,#371,.T.);
#373=ORIENTED_EDGE('',*,*,#372,.F.);
#374=EDGE_LOOP('',(#364,#368,#369,#373));
#375=FACE_OUTER_BOUND('',#374,.T.);
#376=DIRECTION('',(-0.991444861,-0.130526192,0.));
#377=AXIS2_PLACEMENT_3D('',#243,#92,#376);
#378=PLANE('',#377);
#379=ADVANCED_FACE('',(#375),#378,.T.);
#380=ORIENTED_EDGE('',*,*,#347,.T.);
#381=VECTOR('',#185,1.);
#382=LINE('',#239,#381);
#383=EDGE_CURVE('',#240,#6,#382,.T.);
#384=ORIENTED_EDGE('',*,*,#383,.T.);
#385=ORIENTED_EDGE('',*,*,#65,.F.);
#386=ORIENTED_EDGE('',*,*,#367,.F.);
#387=EDGE_LOOP('',(#380,#384,#385,#386));
#388=FACE_OUTER_BOUND('',#387,.T.);
#389=DIRECTION('',(-0.923879533,-0.382683432,0.));
#390=AXIS2_PLACEMENT_3D('',#241,#97,#389);
#391=PLANE('',#390);
#392=ADVANCED_FACE('',(#388),#391,.T.);
#393=ORIENTED_EDGE('',*,*,#343,.T.);
#394=VECTOR('',#185,1.);
#395=LINE('',#237,#394);
#396=EDGE_CURVE('',#238,#8,#395,.T.);
#397=ORIENTED_EDGE('',*,*,#396,.T.);
#398=ORIENTED_EDGE('',*,*,#70,.F.);
#399=ORIENTED_EDGE('',*,*,#383,.F.);
#400=EDGE_LOOP('',(#393,#397,#398,#399));
#401=FACE_OUTER_BOUND('',#400,.T.);
#402=DIRECTION('',(0.608761429,-0.79335334,0.));
#403=DIRECTION('',(-0.79335334,-0.608761429,0.));
#404=AXIS2_PLACEMENT_3D('',#239,#402,#403);
#405=PLANE('',#404);
#406=ADVANCED_FACE('',(#401),#405,.T.);
#407=ORIENTED_EDGE('',*,*,#339,.T.);
#408=VECTOR('',#185,1.);
#409=LINE('',#235,#408);
#410=EDGE_CURVE('',#236,#10,#409,.T.);
#411=ORIENTED_EDGE('',*,*,#410,.T.);
#412=ORIENTED_EDGE('',*,*,#75,.F.);
#413=ORIENTED_EDGE('',*,*,#396,.F.);
#414=EDGE_LOOP('',(#407,#411,#412,#413));
#415=FACE_OUTER_BOUND('',#414,.T.);
#416=DIRECTION('',(0.79335334,-0.608761429,0.));
#417=DIRECTION('',(-0.608761429,-0.79335334,0.));
#418=AXIS2_PLACEMENT_3D('',#237,#416,#417);
#419=PLANE('',#418);
#420=ADVANCED_FACE('',(#415),#419,.T.);
#421=ORIENTED_EDGE('',*,*,#335,.T.);
#422=VECTOR('',#185,1.);
#423=LINE('',#233,#422);
#424=EDGE_CURVE('',#234,#12,#423,.T.);
#425=ORIENTED_EDGE('',*,*,#424,.T.);
#426=ORIENTED_EDGE('',*,*,#80,.F.);
#427=ORIENTED_EDGE('',*,*,#410,.F.);
#428=EDGE_LOOP('',(#421,#425,#426,#427));
#429=FACE_OUTER_BOUND('',#428,.T.);
#430=DIRECTION('',(-0.382683432,-0.923879533,0.));
#431=AXIS2_PLACEMENT_3D('',#235,#112,#430);
#432=PLANE('',#431);
#433=ADVANCED_FACE('',(#429),#432,.T.);
#434=ORIENTED_EDGE('',*,*,#331,.T.);
#435=VECTOR('',#185,1.);
#436=LINE('',#231,#435);
#437=EDGE_CURVE('',#232,#14,#436,.T.);
#438=ORIENTED_EDGE('',*,*,#437,.T.);
#439=ORIENTED_EDGE('',*,*,#85,.F.);
#440=ORIENTED_EDGE('',*,*,#424,.F.);
#441=EDGE_LOOP('',(#434,#438,#439,#440));
#442=FACE_OUTER_BOUND('',#441,.T.);
#443=DIRECTION('',(-0.130526192,-0.991444861,0.));
#444=AXIS2_PLACEMENT_3D('',#233,#117,#443);
#445=PLANE('',#444);
#446=ADVANCED_FACE('',(#442),#445,.T.);
#447=ORIENTED_EDGE('',*,*,#327,.T.);
#448=VECTOR('',#185,1.);
#449=LINE('',#229,#448);
#450=EDGE_CURVE('',#230,#16,#449,.T.);
#451=ORIENTED_EDGE('',*,*,#450,.T.);
#452=ORIENTED_EDGE('',*,*,#90,.F.);
#453=ORIENTED_EDGE('',*,*,#437,.F.);
#454=EDGE_LOOP('',(#447,#451,#452,#453));
#455=FACE_OUTER_BOUND('',#454,.T.);
#456=AXIS2_PLACEMENT_3D('',#231,#122,#360);
#457=PLANE('',#456);
#458=ADVANCED_FACE('',(#455),#457,.T.);
#459=ORIENTED_EDGE('',*,*,#323,.F.);
#460=VECTOR('',#185,1.);
#461=LINE('',#227,#460);
#462=EDGE_CURVE('',#228,#18,#461,.T.);
#463=ORIENTED_EDGE('',*,*,#462,.T.);
#464=ORIENTED_EDGE('',*,*,#95,.T.);
#465=ORIENTED_EDGE('',*,*,#450,.F.);
#466=EDGE_LOOP('',(#459,#463,#464,#465));
#467=FACE_OUTER_BOUND('',#466,.T.);
#468=AXIS2_PLACEMENT_3D('',#229,#57,#92);
#469=PLANE('',#468);
#470=ADVANCED_FACE('',(#467),#469,.T.);
#471=ORIENTED_EDGE('',*,*,#319,.F.);
#472=VECTOR('',#185,1.);
#473=LINE('',#225,#472);
#474=EDGE_CURVE('',#226,#20,#473,.T.);
#475=ORIENTED_EDGE('',*,*,#474,.T.);
#476=ORIENTED_EDGE('',*,*,#100,.T.);
#477=ORIENTED_EDGE('',*,*,#462,.F.);
#478=EDGE_LOOP('',(#471,#475,#476,#477));
#479=FACE_OUTER_BOUND('',#478,.T.);
#480=AXIS2_PLACEMENT_3D('',#227,#62,#97);
#481=PLANE('',#480);
#482=ADVANCED_FACE('',(#479),#481,.T.);
#483=ORIENTED_EDGE('',*,*,#315,.F.);
#484=VECTOR('',#185,1.);
#485=LINE('',#223,#484);
#486=EDGE_CURVE('',#224,#22,#485,.T.);
#487=ORIENTED_EDGE('',*,*,#486,.T.);
#488=ORIENTED_EDGE('',*,*,#105,.T.);
#489=ORIENTED_EDGE('',*,*,#474,.F.);
#490=EDGE_LOOP('',(#483,#487,#488,#489));
#491=FACE_OUTER_BOUND('',#490,.T.);
#492=DIRECTION('',(0.79335334,0.608761429,0.));
#493=AXIS2_PLACEMENT_3D('',#225,#492,#402);
#494=PLANE('',#493);
#495=ADVANCED_FACE('',(#491),#494,.T.);
#496=ORIENTED_EDGE('',*,*,#311,.F.);
#497=VECTOR('',#185,1.);
#498=LINE('',#221,#497);
#499=EDGE_CURVE('',#222,#24,#498,.T.);
#500=ORIENTED_EDGE('',*,*,#499,.T.);
#501=ORIENTED_EDGE('',*,*,#110,.T.);
#502=ORIENTED_EDGE('',*,*,#486,.F.);
#503=EDGE_LOOP('',(#496,#500,#501,#502));
#504=FACE_OUTER_BOUND('',#503,.T.);
#505=DIRECTION('',(0.608761429,0.79335334,0.));
#506=AXIS2_PLACEMENT_3D('',#223,#505,#416);
#507=PLANE('',#506);
#508=ADVANCED_FACE('',(#504),#507,.T.);
#509=ORIENTED_EDGE('',*,*,#307,.F.);
#510=VECTOR('',#185,1.);
#511=LINE('',#219,#510);
#512=EDGE_CURVE('',#220,#26,#511,.T.);
#513=ORIENTED_EDGE('',*,*,#512,.T.);
#514=ORIENTED_EDGE('',*,*,#115,.T.);
#515=ORIENTED_EDGE('',*,*,#499,.F.);
#516=EDGE_LOOP('',(#509,#513,#514,#515));
#517=FACE_OUTER_BOUND('',#516,.T.);
#518=AXIS2_PLACEMENT_3D('',#221,#77,#112);
#519=PLANE('',#518);
#520=ADVANCED_FACE('',(#517),#519,.T.);
#521=ORIENTED_EDGE('',*,*,#303,.F.);
#522=VECTOR('',#185,1.);
#523=LINE('',#217,#522);
#524=EDGE_CURVE('',#218,#28,#523,.T.);
#525=ORIENTED_EDGE('',*,*,#524,.T.);
#526=ORIENTED_EDGE('',*,*,#120,.T.);
#527=ORIENTED_EDGE('',*,*,#512,.F.);
#528=EDGE_LOOP('',(#521,#525,#526,#527));
#529=FACE_OUTER_BOUND('',#528,.T.);
#530=AXIS2_PLACEMENT_3D('',#219,#82,#117);
#531=PLANE('',#530);
#532=ADVANCED_FACE('',(#529),#531,.T.);
#533=ORIENTED_EDGE('',*,*,#299,.F.);
#534=VECTOR('',#185,1.);
#535=LINE('',#215,#534);
#536=EDGE_CURVE('',#216,#30,#535,.T.);
#537=ORIENTED_EDGE('',*,*,#536,.T.);
#538=ORIENTED_EDGE('',*,*,#125,.T.);
#539=ORIENTED_EDGE('',*,*,#524,.F.);
#540=EDGE_LOOP('',(#533,#537,#538,#539));
#541=FACE_OUTER_BOUND('',#540,.T.);
#542=AXIS2_PLACEMENT_3D('',#217,#87,#122);
#543=PLANE('',#542);
#544=ADVANCED_FACE('',(#541),#543,.T.);
#545=ORIENTED_EDGE('',*,*,#295,.F.);
#546=VECTOR('',#185,1.);
#547=LINE('',#213,#546);
#548=EDGE_CURVE('',#214,#32,#547,.T.);
#549=ORIENTED_EDGE('',*,*,#548,.T.);
#550=ORIENTED_EDGE('',*,*,#129,.T.);
#551=ORIENTED_EDGE('',*,*,#536,.F.);
#552=EDGE_LOOP('',(#545,#549,#550,#551));
#553=FACE_OUTER_BOUND('',#552,.T.);
#554=DIRECTION('',(-0.130526192,0.991444861,0.));
#555=AXIS2_PLACEMENT_3D('',#215,#554,#57);
#556=PLANE('',#555);
#557=ADVANCED_FACE('',(#553),#556,.T.);
#558=ORIENTED_EDGE('',*,*,#291,.F.);
#559=VECTOR('',#185,1.);
#560=LINE('',#211,#559);
#561=EDGE_CURVE('',#212,#34,#560,.T.);
#562=ORIENTED_EDGE('',*,*,#561,.T.);
#563=ORIENTED_EDGE('',*,*,#133,.T.);
#564=ORIENTED_EDGE('',*,*,#548,.F.);
#565=EDGE_LOOP('',(#558,#562,#563,#564));
#566=FACE_OUTER_BOUND('',#565,.T.);
#567=DIRECTION('',(-0.382683432,0.923879533,0.));
#568=AXIS2_PLACEMENT_3D('',#213,#567,#62);
#569=PLANE('',#568);
#570=ADVANCED_FACE('',(#566),#569,.T.);
#571=ORIENTED_EDGE('',*,*,#287,.F.);
#572=VECTOR('',#185,1.);
#573=LINE('',#209,#572);
#574=EDGE_CURVE('',#210,#36,#573,.T.);
#575=ORIENTED_EDGE('',*,*,#574,.T.);
#576=ORIENTED_EDGE('',*,*,#137,.T.);
#577=ORIENTED_EDGE('',*,*,#561,.F.);
#578=EDGE_LOOP('',(#571,#575,#576,#577));
#579=FACE_OUTER_BOUND('',#578,.T.);
#580=DIRECTION('',(-0.608761429,0.79335334,0.));
#581=AXIS2_PLACEMENT_3D('',#211,#580,#492);
#582=PLANE('',#581);
#583=ADVANCED_FACE('',(#579),#582,.T.);
#584=ORIENTED_EDGE('',*,*,#283,.F.);
#585=VECTOR('',#185,1.);
#586=LINE('',#207,#585);
#587=EDGE_CURVE('',#208,#38,#586,.T.);
#588=ORIENTED_EDGE('',*,*,#587,.T.);
#589=ORIENTED_EDGE('',*,*,#141,.T.);
#590=ORIENTED_EDGE('',*,*,#574,.F.);
#591=EDGE_LOOP('',(#584,#588,#589,#590));
#592=FACE_OUTER_BOUND('',#591,.T.);
#593=DIRECTION('',(-0.79335334,0.608761429,0.));
#594=AXIS2_PLACEMENT_3D('',#209,#593,#505);
#595=PLANE('',#594);
#596=ADVANCED_FACE('',(#592),#595,.T.);
#597=ORIENTED_EDGE('',*,*,#279,.F.);
#598=VECTOR('',#185,1.);
#599=LINE('',#205,#598);
#600=EDGE_CURVE('',#206,#40,#599,.T.);
#601=ORIENTED_EDGE('',*,*,#600,.T.);
#602=ORIENTED_EDGE('',*,*,#145,.T.);
#603=ORIENTED_EDGE('',*,*,#587,.F.);
#604=EDGE_LOOP('',(#597,#601,#602,#603));
#605=FACE_OUTER_BOUND('',#604,.T.);
#606=DIRECTION('',(-0.923879533,0.382683432,0.));
#607=AXIS2_PLACEMENT_3D('',#207,#606,#77);
#608=PLANE('',#607);
#609=ADVANCED_FACE('',(#605),#608,.T.);
#610=ORIENTED_EDGE('',*,*,#275,.F.);
#611=VECTOR('',#185,1.);
#612=LINE('',#203,#611);
#613=EDGE_CURVE('',#204,#42,#612,.T.);
#614=ORIENTED_EDGE('',*,*,#613,.T.);
#615=ORIENTED_EDGE('',*,*,#149,.T.);
#616=ORIENTED_EDGE('',*,*,#600,.F.);
#617=EDGE_LOOP('',(#610,#614,#615,#616));
#618=FACE_OUTER_BOUND('',#617,.T.);
#619=DIRECTION('',(-0.991444861,0.130526192,0.));
#620=AXIS2_PLACEMENT_3D('',#205,#619,#82);
#621=PLANE('',#620);
#622=ADVANCED_FACE('',(#618),#621,.T.);
#623=ORIENTED_EDGE('',*,*,#271,.F.);
#624=VECTOR('',#185,1.);
#625=LINE('',#201,#624);
#626=EDGE_CURVE('',#202,#44,#625,.T.);
#627=ORIENTED_EDGE('',*,*,#626,.T.);
#628=ORIENTED_EDGE('',*,*,#153,.T.);
#629=ORIENTED_EDGE('',*,*,#613,.F.);
#630=EDGE_LOOP('',(#623,#627,#628,#629));
#631=FACE_OUTER_BOUND('',#630,.T.);
#632=DIRECTION('',(-1.,-0.,0.));
#633=AXIS2_PLACEMENT_3D('',#203,#632,#87);
#634=PLANE('',#633);
#635=ADVANCED_FACE('',(#631),#634,.T.);
#636=ORIENTED_EDGE('',*,*,#267,.T.);
#637=VECTOR('',#185,1.);
#638=LINE('',#199,#637);
#639=EDGE_CURVE('',#200,#46,#638,.T.);
#640=ORIENTED_EDGE('',*,*,#639,.T.);
#641=ORIENTED_EDGE('',*,*,#157,.F.);
#642=ORIENTED_EDGE('',*,*,#626,.F.);
#643=EDGE_LOOP('',(#636,#640,#641,#642));
#644=FACE_OUTER_BOUND('',#643,.T.);
#645=AXIS2_PLACEMENT_3D('',#201,#376,#554);
#646=PLANE('',#645);
#647=ADVANCED_FACE('',(#644),#646,.T.);
#648=ORIENTED_EDGE('',*,*,#263,.T.);
#649=VECTOR('',#185,1.);
#650=LINE('',#197,#649);
#651=EDGE_CURVE('',#198,#48,#650,.T.);
#652=ORIENTED_EDGE('',*,*,#651,.T.);
#653=ORIENTED_EDGE('',*,*,#161,.F.);
#654=ORIENTED_EDGE('',*,*,#639,.F.);
#655=EDGE_LOOP('',(#648,#652,#653,#654));
#656=FACE_OUTER_BOUND('',#655,.T.);
#657=AXIS2_PLACEMENT_3D('',#199,#389,#567);
#658=PLANE('',#657);
#659=ADVANCED_FACE('',(#656),#658,.T.);
#660=ORIENTED_EDGE('',*,*,#259,.T.);
#661=VECTOR('',#185,1.);
#662=LINE('',#195,#661);
#663=EDGE_CURVE('',#196,#50,#662,.T.);
#664=ORIENTED_EDGE('',*,*,#663,.T.);
#665=ORIENTED_EDGE('',*,*,#165,.F.);
#666=ORIENTED_EDGE('',*,*,#651,.F.);
#667=EDGE_LOOP('',(#660,#664,#665,#666));
#668=FACE_OUTER_BOUND('',#667,.T.);
#669=AXIS2_PLACEMENT_3D('',#197,#403,#580);
#670=PLANE('',#669);
#671=ADVANCED_FACE('',(#668),#670,.T.);
#672=ORIENTED_EDGE('',*,*,#255,.T.);
#673=VECTOR('',#185,1.);
#674=LINE('',#193,#673);
#675=EDGE_CURVE('',#194,#52,#674,.T.);
#676=ORIENTED_EDGE('',*,*,#675,.T.);
#677=ORIENTED_EDGE('',*,*,#169,.F.);
#678=ORIENTED_EDGE('',*,*,#663,.F.);
#679=EDGE_LOOP('',(#672,#676,#677,#678));
#680=FACE_OUTER_BOUND('',#679,.T.);
#681=AXIS2_PLACEMENT_3D('',#195,#417,#593);
#682=PLANE('',#681);
#683=ADVANCED_FACE('',(#680),#682,.T.);
#684=ORIENTED_EDGE('',*,*,#251,.T.);
#685=VECTOR('',#185,1.);
#686=LINE('',#191,#685);
#687=EDGE_CURVE('',#192,#54,#686,.T.);
#688=ORIENTED_EDGE('',*,*,#687,.T.);
#689=ORIENTED_EDGE('',*,*,#173,.F.);
#690=ORIENTED_EDGE('',*,*,#675,.F.);
#691=EDGE_LOOP('',(#684,#688,#689,#690));
#692=FACE_OUTER_BOUND('',#691,.T.);
#693=AXIS2_PLACEMENT_3D('',#193,#430,#606);
#694=PLANE('',#693);
#695=ADVANCED_FACE('',(#692),#694,.T.);
#696=ORIENTED_EDGE('',*,*,#247,.T.);
#697=VECTOR('',#185,1.);
#698=LINE('',#189,#697);
#699=EDGE_CURVE('',#190,#56,#698,.T.);
#700=ORIENTED_EDGE('',*,*,#699,.T.);
#701=ORIENTED_EDGE('',*,*,#177,.F.);
#702=ORIENTED_EDGE('',*,*,#687,.F.);
#703=EDGE_LOOP('',(#696,#700,#701,#702));
#704=FACE_OUTER_BOUND('',#703,.T.);
#705=AXIS2_PLACEMENT_3D('',#191,#443,#619);
#706=PLANE('',#705);
#707=ADVANCED_FACE('',(#704),#706,.T.);
#708=ORIENTED_EDGE('',*,*,#355,.T.);
#709=ORIENTED_EDGE('',*,*,#372,.T.);
#710=ORIENTED_EDGE('',*,*,#181,.F.);
#711=ORIENTED_EDGE('',*,*,#699,.F.);
#712=EDGE_LOOP('',(#708,#709,#710,#711));
#713=FACE_OUTER_BOUND('',#712,.T.);
#714=AXIS2_PLACEMENT_3D('',#189,#360,#632);
#715=PLANE('',#714);
#716=ADVANCED_FACE('',(#713),#715,.T.);
#717=CLOSED_SHELL('',(#188,#363,#379,#392,#406,#420,#433,#446,#458,#470,#482,#495,#508,#520,#532,#544,#557,#570,#583,#596,#609,#622,#635,#647,#659,#671,#683,#695,#707,#716));
#718=MANIFOLD_SOLID_BREP('base',#717);
#719=CARTESIAN_POINT('',(-24.3,-7.3,59.8));
#720=VERTEX_POINT('',#719);
#721=CARTESIAN_POINT('',(24.3,-7.3,59.8));
#722=VERTEX_POINT('',#721);
#723=CARTESIAN_POINT('',(24.3,7.3,59.8));
#724=VERTEX_POINT('',#723);
#725=CARTESIAN_POINT('',(-24.3,7.3,59.8));
#726=VERTEX_POINT('',#725);
#727=VECTOR('',#122,1.);
#728=LINE('',#719,#727);
#729=EDGE_CURVE('',#720,#722,#728,.T.);
#730=ORIENTED_EDGE('',*,*,#729,.T.);
#731=VECTOR('',#87,1.);
#732=LINE('',#721,#731);
#733=EDGE_CURVE('',#722,#724,#732,.T.);
#734=ORIENTED_EDGE('',*,*,#733,.T.);
#735=VECTOR('',#122,1.);
#736=LINE('',#725,#735);
#737=EDGE_CURVE('',#726,#724,#736,.T.);
#738=ORIENTED_EDGE('',*,*,#737,.F.);
#739=VECTOR('',#87,1.);
#740=LINE('',#719,#739);
#741=EDGE_CURVE('',#720,#726,#740,.T.);
#742=ORIENTED_EDGE('',*,*,#741,.F.);
#743=EDGE_LOOP('',(#730,#734,#738,#742));
#744=FACE_OUTER_BOUND('',#743,.T.);
#745=AXIS2_PLACEMENT_3D('',#719,#185,#87);
#746=PLANE('',#745);
#747=ADVANCED_FACE('',(#744),#746,.T.);
#748=CARTESIAN_POINT('',(-24.3,7.3,5.));
#749=VERTEX_POINT('',#748);
#750=CARTESIAN_POINT('',(24.3,7.3,5.));
#751=VERTEX_POINT('',#750);
#752=CARTESIAN_POINT('',(24.3,-7.3,5.));
#753=VERTEX_POINT('',#752);
#754=CARTESIAN_POINT('',(-24.3,-7.3,5.));
#755=VERTEX_POINT('',#754);
#756=VECTOR('',#122,1.);
#757=LINE('',#748,#756);
#758=EDGE_CURVE('',#749,#751,#757,.T.);
#759=ORIENTED_EDGE('',*,*,#758,.T.);
#760=VECTOR('',#87,1.);
#761=LINE('',#752,#760);
#762=EDGE_CURVE('',#753,#751,#761,.T.);
#763=ORIENTED_EDGE('',*,*,#762,.F.);
#764=VECTOR('',#122,1.);
#765=LINE('',#754,#764);
#766=EDGE_CURVE('',#755,#753,#765,.T.);
#767=ORIENTED_EDGE('',*,*,#766,.F.);
#768=VECTOR('',#87,1.);
#769=LINE('',#754,#768);
#770=EDGE_CURVE('',#755,#749,#769,.T.);
#771=ORIENTED_EDGE('',*,*,#770,.T.);
#772=EDGE_LOOP('',(#759,#763,#767,#771));
#773=FACE_OUTER_BOUND('',#772,.T.);
#774=AXIS2_PLACEMENT_3D('',#748,#359,#360);
#775=PLANE('',#774);
#776=ADVANCED_FACE('',(#773),#775,.T.);
#777=ORIENTED_EDGE('',*,*,#766,.T.);
#778=VECTOR('',#185,1.);
#779=LINE('',#752,#778);
#780=EDGE_CURVE('',#753,#722,#779,.T.);
#781=ORIENTED_EDGE('',*,*,#780,.T.);
#782=ORIENTED_EDGE('',*,*,#729,.F.);
#783=VECTOR('',#185,1.);
#784=LINE('',#754,#783);
#785=EDGE_CURVE('',#755,#720,#784,.T.);
#786=ORIENTED_EDGE('',*,*,#785,.F.);
#787=EDGE_LOOP('',(#777,#781,#782,#786));
#788=FACE_OUTER_BOUND('',#787,.T.);
#789=AXIS2_PLACEMENT_3D('',#754,#360,#632);
#790=PLANE('',#789);
#791=ADVANCED_FACE('',(#788),#790,.T.);
#792=ORIENTED_EDGE('',*,*,#762,.T.);
#793=VECTOR('',#185,1.);
#794=LINE('',#750,#793);
#795=EDGE_CURVE('',#751,#724,#794,.T.);
#796=ORIENTED_EDGE('',*,*,#795,.T.);
#797=ORIENTED_EDGE('',*,*,#733,.F.);
#798=ORIENTED_EDGE('',*,*,#780,.F.);
#799=EDGE_LOOP('',(#792,#796,#797,#798));
#800=FACE_OUTER_BOUND('',#799,.T.);
#801=AXIS2_PLACEMENT_3D('',#752,#122,#360);
#802=PLANE('',#801);
#803=ADVANCED_FACE('',(#800),#802,.T.);
#804=ORIENTED_EDGE('',*,*,#758,.F.);
#805=VECTOR('',#185,1.);
#806=LINE('',#748,#805);
#807=EDGE_CURVE('',#749,#726,#806,.T.);
#808=ORIENTED_EDGE('',*,*,#807,.T.);
#809=ORIENTED_EDGE('',*,*,#737,.T.);
#810=ORIENTED_EDGE('',*,*,#795,.F.);
#811=EDGE_LOOP('',(#804,#808,#809,#810));
#812=FACE_OUTER_BOUND('',#811,.T.);
#813=AXIS2_PLACEMENT_3D('',#750,#87,#122);
#814=PLANE('',#813);
#815=ADVANCED_FACE('',(#812),#814,.T.);
#816=ORIENTED_EDGE('',*,*,#770,.F.);
#817=ORIENTED_EDGE('',*,*,#785,.T.);
#818=ORIENTED_EDGE('',*,*,#741,.T.);
#819=ORIENTED_EDGE('',*,*,#807,.F.);
#820=EDGE_LOOP('',(#816,#817,#818,#819));
#821=FACE_OUTER_BOUND('',#820,.T.);
#822=AXIS2_PLACEMENT_3D('',#748,#632,#87);
#823=PLANE('',#822);
#824=ADVANCED_FACE('',(#821),#823,.T.);
#825=CLOSED_SHELL('',(#747,#776,#791,#803,#815,#824));
#826=MANIFOLD_SOLID_BREP('block_root',#825);
#827=CARTESIAN_POINT('',(-15.,7.3,40.));
#828=VERTEX_POINT('',#827);
#829=CARTESIAN_POINT('',(15.,7.3,40.));
#830=VERTEX_POINT('',#829);
#831=CARTESIAN_POINT('',(15.,29.3,40.));
#832=VERTEX_POINT('',#831);
#833=CARTESIAN_POINT('',(-15.,29.3,40.));
#834=VERTEX_POINT('',#833);
#835=VECTOR('',#122,1.);
#836=LINE('',#827,#835);
#837=EDGE_CURVE('',#828,#830,#836,.T.);
#838=ORIENTED_EDGE('',*,*,#837,.T.);
#839=VECTOR('',#87,1.);
#840=LINE('',#829,#839);
#841=EDGE_CURVE('',#830,#832,#840,.T.);
#842=ORIENTED_EDGE('',*,*,#841,.T.);
#843=VECTOR('',#122,1.);
#844=LINE('',#833,#843);
#845=EDGE_CURVE('',#834,#832,#844,.T.);
#846=ORIENTED_EDGE('',*,*,#845,.F.);
#847=VECTOR('',#87,1.);
#848=LINE('',#827,#847);
#849=EDGE_CURVE('',#828,#834,#848,.T.);
#850=ORIENTED_EDGE('',*,*,#849,.F.);
#851=EDGE_LOOP('',(#838,#842,#846,#850));
#852=FACE_OUTER_BOUND('',#851,.T.);
#853=AXIS2_PLACEMENT_3D('',#827,#185,#87);
#854=PLANE('',#853);
#855=ADVANCED_FACE('',(#852),#854,.T.);
#856=CARTESIAN_POINT('',(-15.,29.3,5.));
#857=VERTEX_POINT('',#856);
#858=CARTESIAN_POINT('',(15.,29.3,5.));
#859=VERTEX_POINT('',#858);
#860=CARTESIAN_POINT('',(15.,7.3,5.));
#861=VERTEX_POINT('',#860);
#862=CARTESIAN_POINT('',(-15.,7.3,5.));
#863=VERTEX_POINT('',#862);
#864=VECTOR('',#122,1.);
#865=LINE('',#856,#864);
#866=EDGE_CURVE('',#857,#859,#865,.T.);
#867=ORIENTED_EDGE('',*,*,#866,.T.);
#868=VECTOR('',#87,1.);
#869=LINE('',#860,#868);
#870=EDGE_CURVE('',#861,#859,#869,.T.);
#871=ORIENTED_EDGE('',*,*,#870,.F.);
#872=VECTOR('',#122,1.);
#873=LINE('',#862,#872);
#874=EDGE_CURVE('',#863,#861,#873,.T.);
#875=ORIENTED_EDGE('',*,*,#874,.F.);
#876=VECTOR('',#87,1.);
#877=LINE('',#862,#876);
#878=EDGE_CURVE('',#863,#857,#877,.T.);
#879=ORIENTED_EDGE('',*,*,#878,.T.);
#880=EDGE_LOOP('',(#867,#871,#875,#879));
#881=FACE_OUTER_BOUND('',#880,.T.);
#882=AXIS2_PLACEMENT_3D('',#856,#359,#360);
#883=PLANE('',#882);
#884=ADVANCED_FACE('',(#881),#883,.T.);
#885=ORIENTED_EDGE('',*,*,#874,.T.);
#886=VECTOR('',#185,1.);
#887=LINE('',#860,#886);
#888=EDGE_CURVE('',#861,#830,#887,.T.);
#889=ORIENTED_EDGE('',*,*,#888,.T.);
#890=ORIENTED_EDGE('',*,*,#837,.F.);
#891=VECTOR('',#185,1.);
#892=LINE('',#862,#891);
#893=EDGE_CURVE('',#863,#828,#892,.T.);
#894=ORIENTED_EDGE('',*,*,#893,.F.);
#895=EDGE_LOOP('',(#885,#889,#890,#894));
#896=FACE_OUTER_BOUND('',#895,.T.);
#897=AXIS2_PLACEMENT_3D('',#862,#360,#632);
#898=PLANE('',#897);
#899=ADVANCED_FACE('',(#896),#898,.T.);
#900=ORIENTED_EDGE('',*,*,#870,.T.);
#901=VECTOR('',#185,1.);
#902=LINE('',#858,#901);
#903=EDGE_CURVE('',#859,#832,#902,.T.);
#904=ORIENTED_EDGE('',*,*,#903,.T.);
#905=ORIENTED_EDGE('',*,*,#841,.F.);
#906=ORIENTED_EDGE('',*,*,#888,.F.);
#907=EDGE_LOOP('',(#900,#904,#905,#906));
#908=FACE_OUTER_BOUND('',#907,.T.);
#909=AXIS2_PLACEMENT_3D('',#860,#122,#360);
#910=PLANE('',#909);
#911=ADVANCED_FACE('',(#908),#910,.T.);
#912=ORIENTED_EDGE('',*,*,#866,.F.);
#913=VECTOR('',#185,1.);
#914=LINE('',#856,#913);
#915=EDGE_CURVE('',#857,#834,#914,.T.);
#916=ORIENTED_EDGE('',*,*,#915,.T.);
#917=ORIENTED_EDGE('',*,*,#845,.T.);
#918=ORIENTED_EDGE('',*,*,#903,.F.);
#919=EDGE_LOOP('',(#912,#916,#917,#918));
#920=FACE_OUTER_BOUND('',#919,.T.);
#921=AXIS2_PLACEMENT_3D('',#858,#87,#122);
#922=PLANE('',#921);
#923=ADVANCED_FACE('',(#920),#922,.T.);
#924=ORIENTED_EDGE('',*,*,#878,.F.);
#925=ORIENTED_EDGE('',*,*,#893,.T.);
#926=ORIENTED_EDGE('',*,*,#849,.T.);
#927=ORIENTED_EDGE('',*,*,#915,.F.);
#928=EDGE_LOOP('',(#924,#925,#926,#927));
#929=FACE_OUTER_BOUND('',#928,.T.);
#930=AXIS2_PLACEMENT_3D('',#856,#632,#87);
#931=PLANE('',#930);
#932=ADVANCED_FACE('',(#929),#931,.T.);
#933=CLOSED_SHELL('',(#855,#884,#899,#911,#923,#932));
#934=MANIFOLD_SOLID_BREP('rib',#933);
#935=CARTESIAN_POINT('',(-24.3,-7.3,71.4));
#936=VERTEX_POINT('',#935);
#937=CARTESIAN_POINT('',(24.3,-7.3,71.4));
#938=VERTEX_POINT('',#937);
#939=CARTESIAN_POINT('',(24.3,7.3,71.4));
#940=VERTEX_POINT('',#939);
#941=CARTESIAN_POINT('',(-24.3,7.3,71.4));
#942=VERTEX_POINT('',#941);
#943=VECTOR('',#122,1.);
#944=LINE('',#935,#943);
#945=EDGE_CURVE('',#936,#938,#944,.T.);
#946=ORIENTED_EDGE('',*,*,#945,.T.);
#947=VECTOR('',#87,1.);
#948=LINE('',#937,#947);
#949=EDGE_CURVE('',#938,#940,#948,.T.);
#950=ORIENTED_EDGE('',*,*,#949,.T.);
#951=VECTOR('',#122,1.);
#952=LINE('',#941,#951);
#953=EDGE_CURVE('',#942,#940,#952,.T.);
#954=ORIENTED_EDGE('',*,*,#953,.F.);
#955=VECTOR('',#87,1.);
#956=LINE('',#935,#955);
#957=EDGE_CURVE('',#936,#942,#956,.T.);
#958=ORIENTED_EDGE('',*,*,#957,.F.);
#959=EDGE_LOOP('',(#946,#950,#954,#958));
#960=FACE_OUTER_BOUND('',#959,.T.);
#961=CARTESIAN_POINT('',(-16.3,2.3,71.4));
#962=VERTEX_POINT('',#961);
#963=CARTESIAN_POINT('',(16.3,2.3,71.4));
#964=VERTEX_POINT('',#963);
#965=CARTESIAN_POINT('',(16.3,-2.3,71.4));
#966=VERTEX_POINT('',#965);
#967=CARTESIAN_POINT('',(-16.3,-2.3,71.4));
#968=VERTEX_POINT('',#967);
#969=VECTOR('',#122,1.);
#970=LINE('',#961,#969);
#971=EDGE_CURVE('',#962,#964,#970,.T.);
#972=ORIENTED_EDGE('',*,*,#971,.T.);
#973=VECTOR('',#87,1.);
#974=LINE('',#965,#973);
#975=EDGE_CURVE('',#966,#964,#974,.T.);
#976=ORIENTED_EDGE('',*,*,#975,.F.);
#977=VECTOR('',#122,1.);
#978=LINE('',#967,#977);
#979=EDGE_CURVE('',#968,#966,#978,.T.);
#980=ORIENTED_EDGE('',*,*,#979,.F.);
#981=VECTOR('',#87,1.);
#982=LINE('',#967,#981);
#983=EDGE_CURVE('',#968,#962,#982,.T.);
#984=ORIENTED_EDGE('',*,*,#983,.T.);
#985=EDGE_LOOP('',(#972,#976,#980,#984));
#986=FACE_BOUND('',#985,.T.);
#987=AXIS2_PLACEMENT_3D('',#935,#185,#87);
#988=PLANE('',#987);
#989=ADVANCED_FACE('',(#960,#986),#988,.T.);
#990=ORIENTED_EDGE('',*,*,#737,.T.);
#991=ORIENTED_EDGE('',*,*,#733,.F.);
#992=ORIENTED_EDGE('',*,*,#729,.F.);
#993=ORIENTED_EDGE('',*,*,#741,.T.);
#994=EDGE_LOOP('',(#990,#991,#992,#993));
#995=FACE_OUTER_BOUND('',#994,.T.);
#996=CARTESIAN_POINT('',(-16.3,-2.3,59.8));
#997=VERTEX_POINT('',#996);
#998=CARTESIAN_POINT('',(16.3,-2.3,59.8));
#999=VERTEX_POINT('',#998);
#1000=CARTESIAN_POINT('',(16.3,2.3,59.8));
#1001=VERTEX_POINT('',#1000);
#1002=CARTESIAN_POINT('',(-16.3,2.3,59.8));
#1003=VERTEX_POINT('',#1002);
#1004=VECTOR('',#122,1.);
#1005=LINE('',#996,#1004);
#1006=EDGE_CURVE('',#997,#999,#1005,.T.);
#1007=ORIENTED_EDGE('',*,*,#1006,.T.);
#1008=VECTOR('',#87,1.);
#1009=LINE('',#998,#1008);
#1010=EDGE_CURVE('',#999,#1001,#1009,.T.);
#1011=ORIENTED_EDGE('',*,*,#1010,.T.);
#1012=VECTOR('',#122,1.);
#1013=LINE('',#1002,#1012);
#1014=EDGE_CURVE('',#1003,#1001,#1013,.T.);
#1015=ORIENTED_EDGE('',*,*,#1014,.F.);
#1016=VECTOR('',#87,1.);
#1017=LINE('',#996,#1016);
#1018=EDGE_CURVE('',#997,#1003,#1017,.T.);
#1019=ORIENTED_EDGE('',*,*,#1018,.F.);
#1020=EDGE_LOOP('',(#1007,#1011,#1015,#1019));
#1021=FACE_BOUND('',#1020,.T.);
#1022=AXIS2_PLACEMENT_3D('',#725,#359,#360);
#1023=PLANE('',#1022);
#1024=ADVANCED_FACE('',(#995,#1021),#1023,.T.);
#1025=ORIENTED_EDGE('',*,*,#729,.T.);
#1026=VECTOR('',#185,1.);
#1027=LINE('',#721,#1026);
#1028=EDGE_CURVE('',#722,#938,#1027,.T.);
#1029=ORIENTED_EDGE('',*,*,#1028,.T.);
#1030=ORIENTED_EDGE('',*,*,#945,.F.);
#1031=VECTOR('',#185,1.);
#1032=LINE('',#719,#1031);
#1033=EDGE_CURVE('',#720,#936,#1032,.T.);
#1034=ORIENTED_EDGE('',*,*,#1033,.F.);
#1035=EDGE_LOOP('',(#1025,#1029,#1030,#1034));
#1036=FACE_OUTER_BOUND('',#1035,.T.);
#1037=AXIS2_PLACEMENT_3D('',#719,#360,#632);
#1038=PLANE('',#1037);
#1039=ADVANCED_FACE('',(#1036),#1038,.T.);
#1040=ORIENTED_EDGE('',*,*,#733,.T.);
#1041=VECTOR('',#185,1.);
#1042=LINE('',#723,#1041);
#1043=EDGE_CURVE('',#724,#940,#1042,.T.);
#1044=ORIENTED_EDGE('',*,*,#1043,.T.);
#1045=ORIENTED_EDGE('',*,*,#949,.F.);
#1046=ORIENTED_EDGE('',*,*,#1028,.F.);
#1047=EDGE_LOOP('',(#1040,#1044,#1045,#1046));
#1048=FACE_OUTER_BOUND('',#1047,.T.);
#1049=AXIS2_PLACEMENT_3D('',#721,#122,#360);
#1050=PLANE('',#1049);
#1051=ADVANCED_FACE('',(#1048),#1050,.T.);
#1052=ORIENTED_EDGE('',*,*,#737,.F.);
#1053=VECTOR('',#185,1.);
#1054=LINE('',#725,#1053);
#1055=EDGE_CURVE('',#726,#942,#1054,.T.);
#1056=ORIENTED_EDGE('',*,*,#1055,.T.);
#1057=ORIENTED_EDGE('',*,*,#953,.T.);
#1058=ORIENTED_EDGE('',*,*,#1043,.F.);
#1059=EDGE_LOOP('',(#1052,#1056,#1057,#1058));
#1060=FACE_OUTER_BOUND('',#1059,.T.);
#1061=AXIS2_PLACEMENT_3D('',#723,#87,#122);
#1062=PLANE('',#1061);
#1063=ADVANCED_FACE('',(#1060),#1062,.T.);
#1064=ORIENTED_EDGE('',*,*,#741,.F.);
#1065=ORIENTED_EDGE('',*,*,#1033,.T.);
#1066=ORIENTED_EDGE('',*,*,#957,.T.);
#1067=ORIENTED_EDGE('',*,*,#1055,.F.);
#1068=EDGE_LOOP('',(#1064,#1065,#1066,#1067));
#1069=FACE_OUTER_BOUND('',#1068,.T.);
#1070=AXIS2_PLACEMENT_3D('',#725,#632,#87);
#1071=PLANE('',#1070);
#1072=ADVANCED_FACE('',(#1069),#1071,.T.);
#1073=ORIENTED_EDGE('',*,*,#1014,.T.);
#1074=VECTOR('',#185,1.);
#1075=LINE('',#1000,#1074);
#1076=EDGE_CURVE('',#1001,#964,#1075,.T.);
#1077=ORIENTED_EDGE('',*,*,#1076,.T.);
#1078=ORIENTED_EDGE('',*,*,#971,.F.);
#1079=VECTOR('',#185,1.);
#1080=LINE('',#1002,#1079);
#1081=EDGE_CURVE('',#1003,#962,#1080,.T.);
#1082=ORIENTED_EDGE('',*,*,#1081,.F.);
#1083=EDGE_LOOP('',(#1073,#1077,#1078,#1082));
#1084=FACE_OUTER_BOUND('',#1083,.T.);
#1085=AXIS2_PLACEMENT_3D('',#1002,#360,#632);
#1086=PLANE('',#1085);
#1087=ADVANCED_FACE('',(#1084),#1086,.T.);
#1088=ORIENTED_EDGE('',*,*,#1010,.F.);
#1089=VECTOR('',#185,1.);
#1090=LINE('',#998,#1089);
#1091=EDGE_CURVE('',#999,#966,#1090,.T.);
#1092=ORIENTED_EDGE('',*,*,#1091,.T.);
#1093=ORIENTED_EDGE('',*,*,#975,.T.);
#1094=ORIENTED_EDGE('',*,*,#1076,.F.);
#1095=EDGE_LOOP('',(#1088,#1092,#1093,#1094));
#1096=FACE_OUTER_BOUND('',#1095,.T.);
#1097=AXIS2_PLACEMENT_3D('',#1000,#632,#87);
#1098=PLANE('',#1097);
#1099=ADVANCED_FACE('',(#1096),#1098,.T.);
#1100=ORIENTED_EDGE('',*,*,#1006,.F.);
#1101=VECTOR('',#185,1.);
#1102=LINE('',#996,#1101);
#1103=EDGE_CURVE('',#997,#968,#1102,.T.);
#1104=ORIENTED_EDGE('',*,*,#1103,.T.);
#1105=ORIENTED_EDGE('',*,*,#979,.T.);
#1106=ORIENTED_EDGE('',*,*,#1091,.F.);
#1107=EDGE_LOOP('',(#1100,#1104,#1105,#1106));
#1108=FACE_OUTER_BOUND('',#1107,.T.);
#1109=AXIS2_PLACEMENT_3D('',#998,#87,#122);
#1110=PLANE('',#1109);
#1111=ADVANCED_FACE('',(#1108),#1110,.T.);
#1112=ORIENTED_EDGE('',*,*,#1018,.T.);
#1113=ORIENTED_EDGE('',*,*,#1081,.T.);
#1114=ORIENTED_EDGE('',*,*,#983,.F.);
#1115=ORIENTED_EDGE('',*,*,#1103,.F.);
#1116=EDGE_LOOP('',(#1112,#1113,#1114,#1115));
#1117=FACE_OUTER_BOUND('',#1116,.T.);
#1118=AXIS2_PLACEMENT_3D('',#996,#122,#360);
#1119=PLANE('',#1118);
#1120=ADVANCED_FACE('',(#1117),#1119,.T.);
#1121=CLOSED_SHELL('',(#989,#1024,#1039,#1051,#1063,#1072,#1087,#1099,#1111,#1120));
#1122=MANIFOLD_SOLID_BREP('block',#1121);
#1123=APPLICATION_CONTEXT('automotive design');
#1124=APPLICATION_PROTOCOL_DEFINITION('international standard','automotive_design',2000,#1123);
#1125=PRODUCT_CONTEXT('',#1123,'mechanical');
#1126=PRODUCT('lens_cap_stand','lens_cap_stand','Desk stand for the filter lens cap tab',(#1125));
#1127=PRODUCT_DEFINITION_FORMATION('','',#1126);
#1128=PRODUCT_DEFINITION_CONTEXT('part definition',#1123,'design');
#1129=PRODUCT_DEFINITION('design','',#1127,#1128);
#1130=PRODUCT_DEFINITION_SHAPE('','',#1129);
#1131=PRODUCT_RELATED_PRODUCT_CATEGORY('part','',(#1126));
#1132=(LENGTH_UNIT()NAMED_UNIT(*)SI_UNIT(.MILLI.,.METRE.));
#1133=(NAMED_UNIT(*)PLANE_ANGLE_UNIT()SI_UNIT($,.RADIAN.));
#1134=(NAMED_UNIT(*)SI_UNIT($,.STERADIAN.)SOLID_ANGLE_UNIT());
#1135=UNCERTAINTY_MEASURE_WITH_UNIT(LENGTH_MEASURE(1.E-07),#1132,'distance_accuracy_value','confusion accuracy');
#1136=(GEOMETRIC_REPRESENTATION_CONTEXT(3)GLOBAL_UNCERTAINTY_ASSIGNED_CONTEXT((#1135))GLOBAL_UNIT_ASSIGNED_CONTEXT((#1132,#1133,#1134))REPRESENTATION_CONTEXT('',''));
#1137=CARTESIAN_POINT('',(0.,0.,0.));
#1138=AXIS2_PLACEMENT_3D('',#1137,#185,#122);
#1139=ADVANCED_BREP_SHAPE_REPRESENTATION('lens_cap_stand',(#1138,#718,#826,#934,#1122),#1136);
#1140=SHAPE_DEFINITION_REPRESENTATION(#1130,#1139);
#1141=COLOUR_RGB('base',0.3,0.32,0.36);
#1142=FILL_AREA_STYLE_COLOUR('',#1141);
#1143=FILL_AREA_STYLE('',(#1142));
#1144=SURFACE_STYLE_FILL_AREA(#1143);
#1145=SURFACE_SIDE_STYLE('',(#1144));
#1146=SURFACE_STYLE_USAGE(.BOTH.,#1145);
#1147=PRESENTATION_STYLE_ASSIGNMENT((#1146));
#1148=STYLED_ITEM('colour',(#1147),#718);
#1149=COLOUR_RGB('block_root',0.24,0.26,0.3);
#1150=FILL_AREA_STYLE_COLOUR('',#1149);
#1151=FILL_AREA_STYLE('',(#1150));
#1152=SURFACE_STYLE_FILL_AREA(#1151);
#1153=SURFACE_SIDE_STYLE('',(#1152));
#1154=SURFACE_STYLE_USAGE(.BOTH.,#1153);
#1155=PRESENTATION_STYLE_ASSIGNMENT((#1154));
#1156=STYLED_ITEM('colour',(#1155),#826);
#1157=COLOUR_RGB('rib',0.24,0.26,0.3);
#1158=FILL_AREA_STYLE_COLOUR('',#1157);
#1159=FILL_AREA_STYLE('',(#1158));
#1160=SURFACE_STYLE_FILL_AREA(#1159);
#1161=SURFACE_SIDE_STYLE('',(#1160));
#1162=SURFACE_STYLE_USAGE(.BOTH.,#1161);
#1163=PRESENTATION_STYLE_ASSIGNMENT((#1162));
#1164=STYLED_ITEM('colour',(#1163),#934);
#1165=COLOUR_RGB('block',0.24,0.26,0.3);
#1166=FILL_AREA_STYLE_COLOUR('',#1165);
#1167=FILL_AREA_STYLE('',(#1166));
#1168=SURFACE_STYLE_FILL_AREA(#1167);
#1169=SURFACE_SIDE_STYLE('',(#1168));
#1170=SURFACE_STYLE_USAGE(.BOTH.,#1169);
#1171=PRESENTATION_STYLE_ASSIGNMENT((#1170));
#1172=STYLED_ITEM('colour',(#1171),#1122);
#1173=MECHANICAL_DESIGN_GEOMETRIC_PRESENTATION_REPRESENTATION('',(#1148,#1156,#1164,#1172),#1136);
ENDSEC;
END-ISO-10303-21;
