%TF.GenerationSoftware,KiCad,Pcbnew,10.0.3*%
%TF.CreationDate,2026-06-29T13:10:06-04:00*%
%TF.ProjectId,LauCameraTrigger_Alchitry_Stack,4c617543-616d-4657-9261-547269676765,rev?*%
%TF.SameCoordinates,Original*%
%TF.FileFunction,Copper,L2,Bot*%
%TF.FilePolarity,Positive*%
%FSLAX46Y46*%
G04 Gerber Fmt 4.6, Leading zero omitted, Abs format (unit mm)*
G04 Created by KiCad (PCBNEW 10.0.3) date 2026-06-29 13:10:06*
%MOMM*%
%LPD*%
G01*
G04 APERTURE LIST*
G04 Aperture macros list*
%AMRoundRect*
0 Rectangle with rounded corners*
0 $1 Rounding radius*
0 $2 $3 $4 $5 $6 $7 $8 $9 X,Y pos of 4 corners*
0 Add a 4 corners polygon primitive as box body*
4,1,4,$2,$3,$4,$5,$6,$7,$8,$9,$2,$3,0*
0 Add four circle primitives for the rounded corners*
1,1,$1+$1,$2,$3*
1,1,$1+$1,$4,$5*
1,1,$1+$1,$6,$7*
1,1,$1+$1,$8,$9*
0 Add four rect primitives between the rounded corners*
20,1,$1+$1,$2,$3,$4,$5,0*
20,1,$1+$1,$4,$5,$6,$7,0*
20,1,$1+$1,$6,$7,$8,$9,0*
20,1,$1+$1,$8,$9,$2,$3,0*%
G04 Aperture macros list end*
%TA.AperFunction,SMDPad,CuDef*%
%ADD10RoundRect,0.057500X-0.057500X-0.272500X0.057500X-0.272500X0.057500X0.272500X-0.057500X0.272500X0*%
%TD*%
%TA.AperFunction,SMDPad,CuDef*%
%ADD11R,0.350000X0.660000*%
%TD*%
%TA.AperFunction,ViaPad*%
%ADD12C,0.600000*%
%TD*%
%TA.AperFunction,ViaPad*%
%ADD13C,0.400000*%
%TD*%
%TA.AperFunction,Conductor*%
%ADD14C,0.250000*%
%TD*%
%TA.AperFunction,Conductor*%
%ADD15C,0.200000*%
%TD*%
G04 APERTURE END LIST*
D10*
%TO.P,J2,1,Pin_1_1*%
%TO.N,GND*%
X149744900Y-65767500D03*
%TO.P,J2,2,Pin_2_2*%
%TO.N,unconnected-(J2-Pin_2-Pad2)*%
X149744900Y-63057500D03*
%TO.P,J2,3,Pin_3_3*%
%TO.N,unconnected-(J2-Pin_3-Pad3)*%
X150144900Y-65767500D03*
%TO.P,J2,4,Pin_4_4*%
%TO.N,unconnected-(J2-Pin_4-Pad4)*%
X150144900Y-63057500D03*
%TO.P,J2,5,Pin_5_5*%
%TO.N,unconnected-(J2-Pin_5-Pad5)*%
X150544900Y-65767500D03*
%TO.P,J2,6,Pin_6_6*%
%TO.N,unconnected-(J2-Pin_6-Pad6)*%
X150544900Y-63057500D03*
%TO.P,J2,7,Pin_7_7*%
%TO.N,unconnected-(J2-Pin_7-Pad7)*%
X150944900Y-65767500D03*
%TO.P,J2,8,Pin_8_8*%
%TO.N,unconnected-(J2-Pin_8-Pad8)*%
X150944900Y-63057500D03*
%TO.P,J2,9,Pin_9_9*%
%TO.N,unconnected-(J2-Pin_9-Pad9)*%
X151344900Y-65767500D03*
%TO.P,J2,10,Pin_10_10*%
%TO.N,unconnected-(J2-Pin_10-Pad10)*%
X151344900Y-63057500D03*
%TO.P,J2,11,Pin_11_11*%
%TO.N,unconnected-(J2-Pin_11-Pad11)*%
X151744900Y-65767500D03*
%TO.P,J2,12,Pin_12_12*%
%TO.N,unconnected-(J2-Pin_12-Pad12)*%
X151744900Y-63057500D03*
%TO.P,J2,13,Pin_13_13*%
%TO.N,unconnected-(J2-Pin_13-Pad13)*%
X152144900Y-65767500D03*
%TO.P,J2,14,Pin_14_14*%
%TO.N,unconnected-(J2-Pin_14-Pad14)*%
X152144900Y-63057500D03*
%TO.P,J2,15,Pin_15_15*%
%TO.N,unconnected-(J2-Pin_15-Pad15)*%
X152544900Y-65767500D03*
%TO.P,J2,16,Pin_16_16*%
%TO.N,unconnected-(J2-Pin_16-Pad16)*%
X152544900Y-63057500D03*
%TO.P,J2,17,Pin_17_17*%
%TO.N,unconnected-(J2-Pin_17-Pad17)*%
X152944900Y-65767500D03*
%TO.P,J2,18,Pin_18_18*%
%TO.N,unconnected-(J2-Pin_18-Pad18)*%
X152944900Y-63057500D03*
%TO.P,J2,19,Pin_19_19*%
%TO.N,unconnected-(J2-Pin_19-Pad19)*%
X153344900Y-65767500D03*
%TO.P,J2,20,Pin_20_20*%
%TO.N,unconnected-(J2-Pin_20-Pad20)*%
X153344900Y-63057500D03*
%TO.P,J2,21,Pin_21_21*%
%TO.N,unconnected-(J2-Pin_21-Pad21)*%
X153744900Y-65767500D03*
%TO.P,J2,22,Pin_22_22*%
%TO.N,unconnected-(J2-Pin_22-Pad22)*%
X153744900Y-63057500D03*
%TO.P,J2,23,Pin_23_23*%
%TO.N,unconnected-(J2-Pin_23-Pad23)*%
X154144900Y-65767500D03*
%TO.P,J2,24,Pin_24_24*%
%TO.N,unconnected-(J2-Pin_24-Pad24)*%
X154144900Y-63057500D03*
%TO.P,J2,25,Pin_25_25*%
%TO.N,unconnected-(J2-Pin_25-Pad25)*%
X154544900Y-65767500D03*
%TO.P,J2,26,Pin_26_26*%
%TO.N,unconnected-(J2-Pin_26-Pad26)*%
X154544900Y-63057500D03*
%TO.P,J2,27,Pin_27_27*%
%TO.N,unconnected-(J2-Pin_27-Pad27)*%
X154944900Y-65767500D03*
%TO.P,J2,28,Pin_28_28*%
%TO.N,unconnected-(J2-Pin_28-Pad28)*%
X154944900Y-63057500D03*
%TO.P,J2,29,Pin_29_29*%
%TO.N,unconnected-(J2-Pin_29-Pad29)*%
X155344900Y-65767500D03*
%TO.P,J2,30,Pin_30_30*%
%TO.N,unconnected-(J2-Pin_30-Pad30)*%
X155344900Y-63057500D03*
%TO.P,J2,31,Pin_31_31*%
%TO.N,unconnected-(J2-Pin_31-Pad31)*%
X155744900Y-65767500D03*
%TO.P,J2,32,Pin_32_32*%
%TO.N,unconnected-(J2-Pin_32-Pad32)*%
X155744900Y-63057500D03*
%TO.P,J2,33,Pin_33_33*%
%TO.N,unconnected-(J2-Pin_33-Pad33)*%
X156144900Y-65767500D03*
%TO.P,J2,34,Pin_34_34*%
%TO.N,unconnected-(J2-Pin_34-Pad34)*%
X156144900Y-63057500D03*
%TO.P,J2,35,Pin_35_35*%
%TO.N,unconnected-(J2-Pin_35-Pad35)*%
X156544900Y-65767500D03*
%TO.P,J2,36,Pin_36_36*%
%TO.N,unconnected-(J2-Pin_36-Pad36)*%
X156544900Y-63057500D03*
%TO.P,J2,37,Pin_37_37*%
%TO.N,unconnected-(J2-Pin_37-Pad37)*%
X156944900Y-65767500D03*
%TO.P,J2,38,Pin_38_38*%
%TO.N,unconnected-(J2-Pin_38-Pad38)*%
X156944900Y-63057500D03*
%TO.P,J2,39,Pin_39_39*%
%TO.N,unconnected-(J2-Pin_39-Pad39)*%
X157344900Y-65767500D03*
%TO.P,J2,40,Pin_40_40*%
%TO.N,unconnected-(J2-Pin_40-Pad40)*%
X157344900Y-63057500D03*
%TO.P,J2,41,Pin_41_41*%
%TO.N,unconnected-(J2-Pin_41-Pad41)*%
X157744900Y-65767500D03*
%TO.P,J2,42,Pin_42_42*%
%TO.N,unconnected-(J2-Pin_42-Pad42)*%
X157744900Y-63057500D03*
%TO.P,J2,43,Pin_43_43*%
%TO.N,unconnected-(J2-Pin_43-Pad43)*%
X158144900Y-65767500D03*
%TO.P,J2,44,Pin_44_44*%
%TO.N,unconnected-(J2-Pin_44-Pad44)*%
X158144900Y-63057500D03*
%TO.P,J2,45,Pin_45_45*%
%TO.N,unconnected-(J2-Pin_45-Pad45)*%
X158544900Y-65767500D03*
%TO.P,J2,46,Pin_46_46*%
%TO.N,unconnected-(J2-Pin_46-Pad46)*%
X158544900Y-63057500D03*
%TO.P,J2,47,Pin_47_47*%
%TO.N,unconnected-(J2-Pin_47-Pad47)*%
X158944900Y-65767500D03*
%TO.P,J2,48,Pin_48_48*%
%TO.N,unconnected-(J2-Pin_48-Pad48)*%
X158944900Y-63057500D03*
%TO.P,J2,49,Pin_49_49*%
%TO.N,unconnected-(J2-Pin_49-Pad49)*%
X159344900Y-65767500D03*
%TO.P,J2,50,Pin_50_50*%
%TO.N,unconnected-(J2-Pin_50-Pad50)*%
X159344900Y-63057500D03*
%TO.P,J2,51,Pin_51_51*%
%TO.N,unconnected-(J2-Pin_51-Pad51)*%
X159744900Y-65767500D03*
%TO.P,J2,52,Pin_52_52*%
%TO.N,unconnected-(J2-Pin_52-Pad52)*%
X159744900Y-63057500D03*
%TO.P,J2,53,Pin_53_53*%
%TO.N,unconnected-(J2-Pin_53-Pad53)*%
X160144900Y-65767500D03*
%TO.P,J2,54,Pin_54_54*%
%TO.N,unconnected-(J2-Pin_54-Pad54)*%
X160144900Y-63057500D03*
%TO.P,J2,55,Pin_55_55*%
%TO.N,unconnected-(J2-Pin_55-Pad55)*%
X160544900Y-65767500D03*
%TO.P,J2,56,Pin_56_56*%
%TO.N,unconnected-(J2-Pin_56-Pad56)*%
X160544900Y-63057500D03*
%TO.P,J2,57,Pin_57_57*%
%TO.N,unconnected-(J2-Pin_57-Pad57)*%
X160944900Y-65767500D03*
%TO.P,J2,58,Pin_58_58*%
%TO.N,unconnected-(J2-Pin_58-Pad58)*%
X160944900Y-63057500D03*
%TO.P,J2,59,Pin_59_59*%
%TO.N,unconnected-(J2-Pin_59-Pad59)*%
X161344900Y-65767500D03*
%TO.P,J2,60,Pin_60_60*%
%TO.N,unconnected-(J2-Pin_60-Pad60)*%
X161344900Y-63057500D03*
%TO.P,J2,61,Pin_61_61*%
%TO.N,unconnected-(J2-Pin_61-Pad61)*%
X161744900Y-65767500D03*
%TO.P,J2,62,Pin_62_62*%
%TO.N,unconnected-(J2-Pin_62-Pad62)*%
X161744900Y-63057500D03*
%TO.P,J2,63,Pin_63_63*%
%TO.N,unconnected-(J2-Pin_63-Pad63)*%
X162144900Y-65767500D03*
%TO.P,J2,64,Pin_64_64*%
%TO.N,unconnected-(J2-Pin_64-Pad64)*%
X162144900Y-63057500D03*
%TO.P,J2,65,Pin_65_65*%
%TO.N,unconnected-(J2-Pin_65-Pad65)*%
X162544900Y-65767500D03*
%TO.P,J2,66,Pin_66_66*%
%TO.N,unconnected-(J2-Pin_66-Pad66)*%
X162544900Y-63057500D03*
%TO.P,J2,67,Pin_67_67*%
%TO.N,unconnected-(J2-Pin_67-Pad67)*%
X162944900Y-65767500D03*
%TO.P,J2,68,Pin_68_68*%
%TO.N,unconnected-(J2-Pin_68-Pad68)*%
X162944900Y-63057500D03*
%TO.P,J2,69,Pin_69_69*%
%TO.N,unconnected-(J2-Pin_69-Pad69)*%
X163344900Y-65767500D03*
%TO.P,J2,70,Pin_70_70*%
%TO.N,unconnected-(J2-Pin_70-Pad70)*%
X163344900Y-63057500D03*
%TO.P,J2,71,Pin_71_71*%
%TO.N,unconnected-(J2-Pin_71-Pad71)*%
X163744900Y-65767500D03*
%TO.P,J2,72,Pin_72_72*%
%TO.N,unconnected-(J2-Pin_72-Pad72)*%
X163744900Y-63057500D03*
%TO.P,J2,73,Pin_73_73*%
%TO.N,unconnected-(J2-Pin_73-Pad73)*%
X164144900Y-65767500D03*
%TO.P,J2,74,Pin_74_74*%
%TO.N,unconnected-(J2-Pin_74-Pad74)*%
X164144900Y-63057500D03*
%TO.P,J2,75,Pin_75_75*%
%TO.N,unconnected-(J2-Pin_75-Pad75)*%
X164544900Y-65767500D03*
%TO.P,J2,76,Pin_76_76*%
%TO.N,unconnected-(J2-Pin_76-Pad76)*%
X164544900Y-63057500D03*
%TO.P,J2,77,Pin_77_77*%
%TO.N,unconnected-(J2-Pin_77-Pad77)*%
X164944900Y-65767500D03*
%TO.P,J2,78,Pin_78_78*%
%TO.N,unconnected-(J2-Pin_78-Pad78)*%
X164944900Y-63057500D03*
%TO.P,J2,79,Pin_79_79*%
%TO.N,unconnected-(J2-Pin_79-Pad79)*%
X165344900Y-65767500D03*
%TO.P,J2,80,Pin_80_80*%
%TO.N,unconnected-(J2-Pin_80-Pad80)*%
X165344900Y-63057500D03*
D11*
%TO.P,J2,MP*%
%TO.N,N/C*%
X149269900Y-63057500D03*
X149269900Y-65767500D03*
X165819900Y-63057500D03*
X165819900Y-65767500D03*
%TD*%
D10*
%TO.P,J3,1,Pin_1_1*%
%TO.N,GND*%
X149744900Y-102767500D03*
%TO.P,J3,2,Pin_2_2*%
X149744900Y-100057500D03*
%TO.P,J3,3,Pin_3_3*%
%TO.N,unconnected-(J3-Pin_3-Pad3)*%
X150144900Y-102767500D03*
%TO.P,J3,4,Pin_4_4*%
%TO.N,unconnected-(J3-Pin_4-Pad4)*%
X150144900Y-100057500D03*
%TO.P,J3,5,Pin_5_5*%
%TO.N,unconnected-(J3-Pin_5-Pad5)*%
X150544900Y-102767500D03*
%TO.P,J3,6,Pin_6_6*%
%TO.N,unconnected-(J3-Pin_6-Pad6)*%
X150544900Y-100057500D03*
%TO.P,J3,7,Pin_7_7*%
%TO.N,GND*%
X150944900Y-102767500D03*
%TO.P,J3,8,Pin_8_8*%
X150944900Y-100057500D03*
%TO.P,J3,9,Pin_9_9*%
%TO.N,unconnected-(J3-Pin_9-Pad9)*%
X151344900Y-102767500D03*
%TO.P,J3,10,Pin_10_10*%
%TO.N,unconnected-(J3-Pin_10-Pad10)*%
X151344900Y-100057500D03*
%TO.P,J3,11,Pin_11_11*%
%TO.N,unconnected-(J3-Pin_11-Pad11)*%
X151744900Y-102767500D03*
%TO.P,J3,12,Pin_12_12*%
%TO.N,unconnected-(J3-Pin_12-Pad12)*%
X151744900Y-100057500D03*
%TO.P,J3,13,Pin_13_13*%
%TO.N,GND*%
X152144900Y-102767500D03*
%TO.P,J3,14,Pin_14_14*%
X152144900Y-100057500D03*
%TO.P,J3,15,Pin_15_15*%
%TO.N,unconnected-(J3-Pin_15-Pad15)*%
X152544900Y-102767500D03*
%TO.P,J3,16,Pin_16_16*%
%TO.N,unconnected-(J3-Pin_16-Pad16)*%
X152544900Y-100057500D03*
%TO.P,J3,17,Pin_17_17*%
%TO.N,unconnected-(J3-Pin_17-Pad17)*%
X152944900Y-102767500D03*
%TO.P,J3,18,Pin_18_18*%
%TO.N,unconnected-(J3-Pin_18-Pad18)*%
X152944900Y-100057500D03*
%TO.P,J3,19,Pin_19_19*%
%TO.N,GND*%
X153344900Y-102767500D03*
%TO.P,J3,20,Pin_20_20*%
X153344900Y-100057500D03*
%TO.P,J3,21,Pin_21_21*%
%TO.N,unconnected-(J3-Pin_21-Pad21)*%
X153744900Y-102767500D03*
%TO.P,J3,22,Pin_22_22*%
%TO.N,unconnected-(J3-Pin_22-Pad22)*%
X153744900Y-100057500D03*
%TO.P,J3,23,Pin_23_23*%
%TO.N,unconnected-(J3-Pin_23-Pad23)*%
X154144900Y-102767500D03*
%TO.P,J3,24,Pin_24_24*%
%TO.N,unconnected-(J3-Pin_24-Pad24)*%
X154144900Y-100057500D03*
%TO.P,J3,25,Pin_25_25*%
%TO.N,GND*%
X154544900Y-102767500D03*
%TO.P,J3,26,Pin_26_26*%
X154544900Y-100057500D03*
%TO.P,J3,27,Pin_27_27*%
%TO.N,CAM_READY*%
X154944900Y-102767500D03*
%TO.P,J3,28,Pin_28_28*%
%TO.N,CAM_TRIG*%
X154944900Y-100057500D03*
%TO.P,J3,29,Pin_29_29*%
%TO.N,CAM_PATTERN*%
X155344900Y-102767500D03*
%TO.P,J3,30,Pin_30_30*%
%TO.N,CAM_MODE*%
X155344900Y-100057500D03*
%TO.P,J3,31,Pin_31_31*%
%TO.N,GND*%
X155744900Y-102767500D03*
%TO.P,J3,32,Pin_32_32*%
X155744900Y-100057500D03*
%TO.P,J3,33,Pin_33_33*%
%TO.N,SW_HVSV*%
X156144900Y-102767500D03*
%TO.P,J3,34,Pin_34_34*%
%TO.N,SW_BLUE*%
X156144900Y-100057500D03*
%TO.P,J3,35,Pin_35_35*%
%TO.N,SW_GREEN*%
X156544900Y-102767500D03*
%TO.P,J3,36,Pin_36_36*%
%TO.N,SW_RED*%
X156544900Y-100057500D03*
%TO.P,J3,37,Pin_37_37*%
%TO.N,unconnected-(J3-Pin_37-Pad37)*%
X156944900Y-102767500D03*
%TO.P,J3,38,Pin_38_38*%
%TO.N,unconnected-(J3-Pin_38-Pad38)*%
X156944900Y-100057500D03*
%TO.P,J3,39,Pin_39_39*%
%TO.N,unconnected-(J3-Pin_39-Pad39)*%
X157344900Y-102767500D03*
%TO.P,J3,40,Pin_40_40*%
%TO.N,unconnected-(J3-Pin_40-Pad40)*%
X157344900Y-100057500D03*
%TO.P,J3,41,Pin_41_41*%
%TO.N,unconnected-(J3-Pin_41-Pad41)*%
X157744900Y-102767500D03*
%TO.P,J3,42,Pin_42_42*%
%TO.N,unconnected-(J3-Pin_42-Pad42)*%
X157744900Y-100057500D03*
%TO.P,J3,43,Pin_43_43*%
%TO.N,unconnected-(J3-Pin_43-Pad43)*%
X158144900Y-102767500D03*
%TO.P,J3,44,Pin_44_44*%
%TO.N,unconnected-(J3-Pin_44-Pad44)*%
X158144900Y-100057500D03*
%TO.P,J3,45,Pin_45_45*%
%TO.N,unconnected-(J3-Pin_45-Pad45)*%
X158544900Y-102767500D03*
%TO.P,J3,46,Pin_46_46*%
%TO.N,unconnected-(J3-Pin_46-Pad46)*%
X158544900Y-100057500D03*
%TO.P,J3,47,Pin_47_47*%
%TO.N,unconnected-(J3-Pin_47-Pad47)*%
X158944900Y-102767500D03*
%TO.P,J3,48,Pin_48_48*%
%TO.N,unconnected-(J3-Pin_48-Pad48)*%
X158944900Y-100057500D03*
%TO.P,J3,49,Pin_49_49*%
%TO.N,unconnected-(J3-Pin_49-Pad49)*%
X159344900Y-102767500D03*
%TO.P,J3,50,Pin_50_50*%
%TO.N,unconnected-(J3-Pin_50-Pad50)*%
X159344900Y-100057500D03*
%TO.P,J3,51,Pin_51_51*%
%TO.N,unconnected-(J3-Pin_51-Pad51)*%
X159744900Y-102767500D03*
%TO.P,J3,52,Pin_52_52*%
%TO.N,unconnected-(J3-Pin_52-Pad52)*%
X159744900Y-100057500D03*
%TO.P,J3,53,Pin_53_53*%
%TO.N,unconnected-(J3-Pin_53-Pad53)*%
X160144900Y-102767500D03*
%TO.P,J3,54,Pin_54_54*%
%TO.N,unconnected-(J3-Pin_54-Pad54)*%
X160144900Y-100057500D03*
%TO.P,J3,55,Pin_55_55*%
%TO.N,unconnected-(J3-Pin_55-Pad55)*%
X160544900Y-102767500D03*
%TO.P,J3,56,Pin_56_56*%
%TO.N,unconnected-(J3-Pin_56-Pad56)*%
X160544900Y-100057500D03*
%TO.P,J3,57,Pin_57_57*%
%TO.N,unconnected-(J3-Pin_57-Pad57)*%
X160944900Y-102767500D03*
%TO.P,J3,58,Pin_58_58*%
%TO.N,unconnected-(J3-Pin_58-Pad58)*%
X160944900Y-100057500D03*
%TO.P,J3,59,Pin_59_59*%
%TO.N,unconnected-(J3-Pin_59-Pad59)*%
X161344900Y-102767500D03*
%TO.P,J3,60,Pin_60_60*%
%TO.N,unconnected-(J3-Pin_60-Pad60)*%
X161344900Y-100057500D03*
%TO.P,J3,61,Pin_61_61*%
%TO.N,unconnected-(J3-Pin_61-Pad61)*%
X161744900Y-102767500D03*
%TO.P,J3,62,Pin_62_62*%
%TO.N,unconnected-(J3-Pin_62-Pad62)*%
X161744900Y-100057500D03*
%TO.P,J3,63,Pin_63_63*%
%TO.N,unconnected-(J3-Pin_63-Pad63)*%
X162144900Y-102767500D03*
%TO.P,J3,64,Pin_64_64*%
%TO.N,unconnected-(J3-Pin_64-Pad64)*%
X162144900Y-100057500D03*
%TO.P,J3,65,Pin_65_65*%
%TO.N,unconnected-(J3-Pin_65-Pad65)*%
X162544900Y-102767500D03*
%TO.P,J3,66,Pin_66_66*%
%TO.N,unconnected-(J3-Pin_66-Pad66)*%
X162544900Y-100057500D03*
%TO.P,J3,67,Pin_67_67*%
%TO.N,unconnected-(J3-Pin_67-Pad67)*%
X162944900Y-102767500D03*
%TO.P,J3,68,Pin_68_68*%
%TO.N,unconnected-(J3-Pin_68-Pad68)*%
X162944900Y-100057500D03*
%TO.P,J3,69,Pin_69_69*%
%TO.N,unconnected-(J3-Pin_69-Pad69)*%
X163344900Y-102767500D03*
%TO.P,J3,70,Pin_70_70*%
%TO.N,unconnected-(J3-Pin_70-Pad70)*%
X163344900Y-100057500D03*
%TO.P,J3,71,Pin_71_71*%
%TO.N,unconnected-(J3-Pin_71-Pad71)*%
X163744900Y-102767500D03*
%TO.P,J3,72,Pin_72_72*%
%TO.N,unconnected-(J3-Pin_72-Pad72)*%
X163744900Y-100057500D03*
%TO.P,J3,73,Pin_73_73*%
%TO.N,unconnected-(J3-Pin_73-Pad73)*%
X164144900Y-102767500D03*
%TO.P,J3,74,Pin_74_74*%
%TO.N,unconnected-(J3-Pin_74-Pad74)*%
X164144900Y-100057500D03*
%TO.P,J3,75,Pin_75_75*%
%TO.N,unconnected-(J3-Pin_75-Pad75)*%
X164544900Y-102767500D03*
%TO.P,J3,76,Pin_76_76*%
%TO.N,unconnected-(J3-Pin_76-Pad76)*%
X164544900Y-100057500D03*
%TO.P,J3,77,Pin_77_77*%
%TO.N,unconnected-(J3-Pin_77-Pad77)*%
X164944900Y-102767500D03*
%TO.P,J3,78,Pin_78_78*%
%TO.N,unconnected-(J3-Pin_78-Pad78)*%
X164944900Y-100057500D03*
%TO.P,J3,79,Pin_79_79*%
%TO.N,unconnected-(J3-Pin_79-Pad79)*%
X165344900Y-102767500D03*
%TO.P,J3,80,Pin_80_80*%
%TO.N,unconnected-(J3-Pin_80-Pad80)*%
X165344900Y-100057500D03*
D11*
%TO.P,J3,MP*%
%TO.N,N/C*%
X149269900Y-100057500D03*
X149269900Y-102767500D03*
X165819900Y-100057500D03*
X165819900Y-102767500D03*
%TD*%
D10*
%TO.P,J1,1,Pin_1_1*%
%TO.N,+3V3*%
X131244900Y-65767500D03*
%TO.P,J1,2,Pin_2_2*%
%TO.N,unconnected-(J1-Pin_2-Pad2)*%
X131244900Y-63057500D03*
%TO.P,J1,3,Pin_3_3*%
%TO.N,unconnected-(J1-Pin_3-Pad3)*%
X131644900Y-65767500D03*
%TO.P,J1,4,Pin_4_4*%
%TO.N,unconnected-(J1-Pin_4-Pad4)*%
X131644900Y-63057500D03*
%TO.P,J1,5,Pin_5_5*%
%TO.N,unconnected-(J1-Pin_5-Pad5)*%
X132044900Y-65767500D03*
%TO.P,J1,6,Pin_6_6*%
%TO.N,unconnected-(J1-Pin_6-Pad6)*%
X132044900Y-63057500D03*
%TO.P,J1,7,Pin_7_7*%
%TO.N,unconnected-(J1-Pin_7-Pad7)*%
X132444900Y-65767500D03*
%TO.P,J1,8,Pin_8_8*%
%TO.N,unconnected-(J1-Pin_8-Pad8)*%
X132444900Y-63057500D03*
%TO.P,J1,9,Pin_9_9*%
%TO.N,unconnected-(J1-Pin_9-Pad9)*%
X132844900Y-65767500D03*
%TO.P,J1,10,Pin_10_10*%
%TO.N,unconnected-(J1-Pin_10-Pad10)*%
X132844900Y-63057500D03*
%TO.P,J1,11,Pin_11_11*%
%TO.N,unconnected-(J1-Pin_11-Pad11)*%
X133244900Y-65767500D03*
%TO.P,J1,12,Pin_12_12*%
%TO.N,unconnected-(J1-Pin_12-Pad12)*%
X133244900Y-63057500D03*
%TO.P,J1,13,Pin_13_13*%
%TO.N,unconnected-(J1-Pin_13-Pad13)*%
X133644900Y-65767500D03*
%TO.P,J1,14,Pin_14_14*%
%TO.N,unconnected-(J1-Pin_14-Pad14)*%
X133644900Y-63057500D03*
%TO.P,J1,15,Pin_15_15*%
%TO.N,unconnected-(J1-Pin_15-Pad15)*%
X134044900Y-65767500D03*
%TO.P,J1,16,Pin_16_16*%
%TO.N,unconnected-(J1-Pin_16-Pad16)*%
X134044900Y-63057500D03*
%TO.P,J1,17,Pin_17_17*%
%TO.N,unconnected-(J1-Pin_17-Pad17)*%
X134444900Y-65767500D03*
%TO.P,J1,18,Pin_18_18*%
%TO.N,unconnected-(J1-Pin_18-Pad18)*%
X134444900Y-63057500D03*
%TO.P,J1,19,Pin_19_19*%
%TO.N,unconnected-(J1-Pin_19-Pad19)*%
X134844900Y-65767500D03*
%TO.P,J1,20,Pin_20_20*%
%TO.N,unconnected-(J1-Pin_20-Pad20)*%
X134844900Y-63057500D03*
%TO.P,J1,21,Pin_21_21*%
%TO.N,unconnected-(J1-Pin_21-Pad21)*%
X135244900Y-65767500D03*
%TO.P,J1,22,Pin_22_22*%
%TO.N,unconnected-(J1-Pin_22-Pad22)*%
X135244900Y-63057500D03*
%TO.P,J1,23,Pin_23_23*%
%TO.N,unconnected-(J1-Pin_23-Pad23)*%
X135644900Y-65767500D03*
%TO.P,J1,24,Pin_24_24*%
%TO.N,unconnected-(J1-Pin_24-Pad24)*%
X135644900Y-63057500D03*
%TO.P,J1,25,Pin_25_25*%
%TO.N,unconnected-(J1-Pin_25-Pad25)*%
X136044900Y-65767500D03*
%TO.P,J1,26,Pin_26_26*%
%TO.N,unconnected-(J1-Pin_26-Pad26)*%
X136044900Y-63057500D03*
%TO.P,J1,27,Pin_27_27*%
%TO.N,unconnected-(J1-Pin_27-Pad27)*%
X136444900Y-65767500D03*
%TO.P,J1,28,Pin_28_28*%
%TO.N,unconnected-(J1-Pin_28-Pad28)*%
X136444900Y-63057500D03*
%TO.P,J1,29,Pin_29_29*%
%TO.N,unconnected-(J1-Pin_29-Pad29)*%
X136844900Y-65767500D03*
%TO.P,J1,30,Pin_30_30*%
%TO.N,unconnected-(J1-Pin_30-Pad30)*%
X136844900Y-63057500D03*
%TO.P,J1,31,Pin_31_31*%
%TO.N,unconnected-(J1-Pin_31-Pad31)*%
X137244900Y-65767500D03*
%TO.P,J1,32,Pin_32_32*%
%TO.N,unconnected-(J1-Pin_32-Pad32)*%
X137244900Y-63057500D03*
%TO.P,J1,33,Pin_33_33*%
%TO.N,unconnected-(J1-Pin_33-Pad33)*%
X137644900Y-65767500D03*
%TO.P,J1,34,Pin_34_34*%
%TO.N,unconnected-(J1-Pin_34-Pad34)*%
X137644900Y-63057500D03*
%TO.P,J1,35,Pin_35_35*%
%TO.N,unconnected-(J1-Pin_35-Pad35)*%
X138044900Y-65767500D03*
%TO.P,J1,36,Pin_36_36*%
%TO.N,unconnected-(J1-Pin_36-Pad36)*%
X138044900Y-63057500D03*
%TO.P,J1,37,Pin_37_37*%
%TO.N,unconnected-(J1-Pin_37-Pad37)*%
X138444900Y-65767500D03*
%TO.P,J1,38,Pin_38_38*%
%TO.N,unconnected-(J1-Pin_38-Pad38)*%
X138444900Y-63057500D03*
%TO.P,J1,39,Pin_39_39*%
%TO.N,unconnected-(J1-Pin_39-Pad39)*%
X138844900Y-65767500D03*
%TO.P,J1,40,Pin_40_40*%
%TO.N,unconnected-(J1-Pin_40-Pad40)*%
X138844900Y-63057500D03*
%TO.P,J1,41,Pin_41_41*%
%TO.N,unconnected-(J1-Pin_41-Pad41)*%
X139244900Y-65767500D03*
%TO.P,J1,42,Pin_42_42*%
%TO.N,unconnected-(J1-Pin_42-Pad42)*%
X139244900Y-63057500D03*
%TO.P,J1,43,Pin_43_43*%
%TO.N,unconnected-(J1-Pin_43-Pad43)*%
X139644900Y-65767500D03*
%TO.P,J1,44,Pin_44_44*%
%TO.N,unconnected-(J1-Pin_44-Pad44)*%
X139644900Y-63057500D03*
%TO.P,J1,45,Pin_45_45*%
%TO.N,unconnected-(J1-Pin_45-Pad45)*%
X140044900Y-65767500D03*
%TO.P,J1,46,Pin_46_46*%
%TO.N,unconnected-(J1-Pin_46-Pad46)*%
X140044900Y-63057500D03*
%TO.P,J1,47,Pin_47_47*%
%TO.N,unconnected-(J1-Pin_47-Pad47)*%
X140444900Y-65767500D03*
%TO.P,J1,48,Pin_48_48*%
%TO.N,unconnected-(J1-Pin_48-Pad48)*%
X140444900Y-63057500D03*
%TO.P,J1,49,Pin_49_49*%
%TO.N,unconnected-(J1-Pin_49-Pad49)*%
X140844900Y-65767500D03*
%TO.P,J1,50,Pin_50_50*%
%TO.N,unconnected-(J1-Pin_50-Pad50)*%
X140844900Y-63057500D03*
D11*
%TO.P,J1,MP*%
%TO.N,N/C*%
X130769900Y-63057500D03*
X130769900Y-65767500D03*
X141319900Y-63057500D03*
X141319900Y-65767500D03*
%TD*%
D12*
%TO.N,GND*%
X151000000Y-77000000D03*
X136000000Y-87000000D03*
X162000000Y-97500000D03*
X141000000Y-72000000D03*
X146000000Y-87000000D03*
X126000000Y-102000000D03*
X131000000Y-72000000D03*
X131000000Y-77000000D03*
X131000000Y-87000000D03*
X146000000Y-72000000D03*
X156000000Y-72000000D03*
X125500000Y-77500000D03*
X149000000Y-94500000D03*
X145500000Y-99500000D03*
X136000000Y-77000000D03*
X166000000Y-72000000D03*
X146000000Y-77000000D03*
X141000000Y-87000000D03*
X152500000Y-91000000D03*
X136000000Y-72000000D03*
D13*
%TO.N,CAM_TRIG*%
X126838500Y-91262800D03*
D12*
X157000000Y-96500000D03*
D13*
X154945000Y-98000000D03*
D12*
X162000000Y-85000000D03*
D13*
X126838500Y-81435800D03*
%TO.N,CAM_PATTERN*%
X155345000Y-104600000D03*
%TO.N,CAM_READY*%
X168500000Y-102009200D03*
%TO.N,+3V3*%
X149511900Y-88314700D03*
X154500000Y-81000000D03*
X131245000Y-69000000D03*
%TO.N,CAM_MODE*%
X159369900Y-77505000D03*
%TO.N,SW_HVSV*%
X156145000Y-104000000D03*
%TO.N,SW_BLUE*%
X156145000Y-98000000D03*
%TO.N,SW_GREEN*%
X157500000Y-104000000D03*
%TO.N,SW_RED*%
X148526100Y-103113700D03*
%TD*%
%TO.N,GND*%
D14*
X150944900Y-102767500D02*
X150944900Y-103555100D01*
X156043959Y-104500000D02*
X168000000Y-104500000D01*
X152000000Y-100989800D02*
X153000000Y-100989800D01*
X153344900Y-102767500D02*
X153344900Y-103098608D01*
X153000000Y-100989800D02*
X154500000Y-100989800D01*
X147489800Y-100989800D02*
X150010200Y-100989800D01*
X150944900Y-100934700D02*
X151000000Y-100989800D01*
X168000000Y-104500000D02*
X170000000Y-102500000D01*
X155744900Y-102767500D02*
X155720000Y-102792400D01*
X146000000Y-99500000D02*
X147489800Y-100989800D01*
X155133508Y-101000000D02*
X155744900Y-100388608D01*
X152144900Y-102767500D02*
X152144900Y-103098608D01*
X150010200Y-100989800D02*
X151000000Y-100989800D01*
X149744900Y-65767500D02*
X149744900Y-67244900D01*
X170000000Y-101000000D02*
X166500000Y-97500000D01*
X153344900Y-100644900D02*
X153000000Y-100989800D01*
X149744900Y-100057500D02*
X149744900Y-100744900D01*
X153344900Y-100057500D02*
X153344900Y-100644900D01*
X154500000Y-100989800D02*
X154989800Y-100989800D01*
X151500000Y-67500000D02*
X156000000Y-72000000D01*
X155000000Y-101000000D02*
X155133508Y-101000000D01*
X149744900Y-102767500D02*
X149744900Y-103744900D01*
X145500000Y-99500000D02*
X146000000Y-99500000D01*
X149744900Y-103744900D02*
X150000000Y-104000000D01*
X151243508Y-104000000D02*
X150500000Y-104000000D01*
X153344900Y-103098608D02*
X152443508Y-104000000D01*
X152144900Y-100844900D02*
X152000000Y-100989800D01*
X150000000Y-101000000D02*
X150010200Y-100989800D01*
X151000000Y-100989800D02*
X152000000Y-100989800D01*
X152144900Y-100057500D02*
X152144900Y-100844900D01*
X155744900Y-100388608D02*
X155744900Y-100057500D01*
X145500000Y-99500000D02*
X145500000Y-101000000D01*
X148500000Y-104000000D02*
X150000000Y-104000000D01*
X155720000Y-104176041D02*
X156043959Y-104500000D01*
X150944900Y-100057500D02*
X150944900Y-100934700D01*
X154544900Y-102767500D02*
X154544900Y-103455100D01*
X152144900Y-103098608D02*
X151243508Y-104000000D01*
X149744900Y-67244900D02*
X150000000Y-67500000D01*
X154544900Y-100944900D02*
X154500000Y-100989800D01*
X145500000Y-101000000D02*
X148500000Y-104000000D01*
X155720000Y-102792400D02*
X155720000Y-104176041D01*
X152443508Y-104000000D02*
X151243508Y-104000000D01*
X150500000Y-104000000D02*
X150000000Y-104000000D01*
X166500000Y-97500000D02*
X162000000Y-97500000D01*
X154989800Y-100989800D02*
X155000000Y-101000000D01*
X149744900Y-100744900D02*
X150000000Y-101000000D01*
X150944900Y-103555100D02*
X150500000Y-104000000D01*
X154544900Y-103455100D02*
X154000000Y-104000000D01*
X150000000Y-67500000D02*
X151500000Y-67500000D01*
X154544900Y-100057500D02*
X154544900Y-100944900D01*
X154000000Y-104000000D02*
X152443508Y-104000000D01*
X170000000Y-102500000D02*
X170000000Y-101000000D01*
%TO.N,CAM_TRIG*%
D15*
X162000000Y-91500000D02*
X157000000Y-96500000D01*
X126838500Y-81435800D02*
X126838500Y-91262800D01*
X154945000Y-100058000D02*
X154945000Y-98000000D01*
X162000000Y-85000000D02*
X162000000Y-91500000D01*
%TO.N,CAM_PATTERN*%
X155345000Y-102768000D02*
X155345000Y-104600000D01*
X155344900Y-102767500D02*
X155345000Y-102767600D01*
X155345000Y-102767600D02*
X155345000Y-102768000D01*
%TO.N,CAM_READY*%
X168500000Y-102009200D02*
X155331500Y-102009200D01*
X154944900Y-102395800D02*
X154944900Y-102767500D01*
X155331500Y-102009200D02*
X154944900Y-102395800D01*
X154945000Y-102767600D02*
X154945000Y-102768000D01*
X154944900Y-102767500D02*
X154945000Y-102767600D01*
%TO.N,+3V3*%
D14*
X151638200Y-83861800D02*
X151638200Y-83861900D01*
X149511900Y-85988200D02*
X149511900Y-88314700D01*
D15*
X131245000Y-65767500D02*
X131245000Y-69000000D01*
D14*
X151638200Y-83861900D02*
X149511900Y-85988200D01*
X154500000Y-81000000D02*
X151638200Y-83861800D01*
X131244900Y-65767500D02*
X131245000Y-65767500D01*
%TO.N,CAM_MODE*%
D15*
X159369900Y-91975100D02*
X159369900Y-77505000D01*
X155345000Y-96000000D02*
X159369900Y-91975100D01*
X155345000Y-100058000D02*
X155345000Y-96000000D01*
%TO.N,SW_HVSV*%
X156144900Y-102767500D02*
X156145000Y-102767600D01*
X156145000Y-102768000D02*
X156145000Y-104000000D01*
X156145000Y-102767600D02*
X156145000Y-102768000D01*
%TO.N,SW_BLUE*%
X156145000Y-100058000D02*
X156145000Y-98000000D01*
%TO.N,SW_GREEN*%
X156779146Y-103297500D02*
X156629900Y-103148254D01*
X156629900Y-103148254D02*
X156629900Y-103129900D01*
X156545000Y-102767600D02*
X156544900Y-102767500D01*
X156545000Y-103045000D02*
X156545000Y-102767600D01*
X157500000Y-104000000D02*
X156797500Y-103297500D01*
X156797500Y-103297500D02*
X156779146Y-103297500D01*
X156629900Y-103129900D02*
X156545000Y-103045000D01*
%TO.N,SW_RED*%
X156544900Y-100356100D02*
X156544900Y-100057500D01*
X148526100Y-103113700D02*
X148526100Y-102683100D01*
X148526100Y-102683100D02*
X149473000Y-101736200D01*
X149473000Y-101736200D02*
X155164800Y-101736200D01*
X155164800Y-101736200D02*
X156544900Y-100356100D01*
%TD*%
%TA.AperFunction,Conductor*%
%TO.N,GND*%
G36*
X172853363Y-60932185D02*
G01*
X172874005Y-60948819D01*
X174008181Y-62082995D01*
X174041666Y-62144318D01*
X174044500Y-62170676D01*
X174044500Y-66653324D01*
X174024815Y-66720363D01*
X174008181Y-66741005D01*
X172874005Y-67875181D01*
X172812682Y-67908666D01*
X172786324Y-67911500D01*
X170479107Y-67911500D01*
X170351812Y-67945608D01*
X170237686Y-68011500D01*
X170237683Y-68011502D01*
X168644502Y-69604683D01*
X168644500Y-69604686D01*
X168578608Y-69718812D01*
X168544500Y-69846108D01*
X168544500Y-95977891D01*
X168578608Y-96105187D01*
X168601256Y-96144413D01*
X168644500Y-96219314D01*
X170144500Y-97719314D01*
X170237686Y-97812500D01*
X170351814Y-97878392D01*
X170479107Y-97912500D01*
X170479108Y-97912500D01*
X172786324Y-97912500D01*
X172853363Y-97932185D01*
X172874005Y-97948819D01*
X174008181Y-99082995D01*
X174041666Y-99144318D01*
X174044500Y-99170676D01*
X174044500Y-103653324D01*
X174024815Y-103720363D01*
X174008181Y-103741005D01*
X172874005Y-104875181D01*
X172812682Y-104908666D01*
X172786324Y-104911500D01*
X157753328Y-104911500D01*
X157686289Y-104891815D01*
X157640534Y-104839011D01*
X157630590Y-104769853D01*
X157659615Y-104706297D01*
X157705876Y-104672939D01*
X157831804Y-104620778D01*
X157831804Y-104620777D01*
X157831811Y-104620775D01*
X157946542Y-104544114D01*
X158044114Y-104446542D01*
X158120775Y-104331811D01*
X158173580Y-104204328D01*
X158200500Y-104068993D01*
X158200500Y-103931007D01*
X158200500Y-103931004D01*
X158173581Y-103795677D01*
X158173580Y-103795676D01*
X158173580Y-103795672D01*
X158161591Y-103766730D01*
X158158846Y-103741192D01*
X158152187Y-103716389D01*
X158155173Y-103707030D01*
X158154123Y-103697262D01*
X158165620Y-103674292D01*
X158173428Y-103649827D01*
X158180999Y-103643568D01*
X158185398Y-103634782D01*
X158207486Y-103621676D01*
X158227283Y-103605314D01*
X158241495Y-103601497D01*
X158245487Y-103599130D01*
X158261351Y-103596165D01*
X158330127Y-103587907D01*
X158359680Y-103587907D01*
X158443717Y-103598000D01*
X158646082Y-103597999D01*
X158730127Y-103587907D01*
X158759680Y-103587907D01*
X158843717Y-103598000D01*
X159046082Y-103597999D01*
X159130127Y-103587907D01*
X159159680Y-103587907D01*
X159243717Y-103598000D01*
X159446082Y-103597999D01*
X159530127Y-103587907D01*
X159559680Y-103587907D01*
X159643717Y-103598000D01*
X159846082Y-103597999D01*
X159930127Y-103587907D01*
X159959680Y-103587907D01*
X160043717Y-103598000D01*
X160246082Y-103597999D01*
X160330127Y-103587907D01*
X160359680Y-103587907D01*
X160443717Y-103598000D01*
X160646082Y-103597999D01*
X160730127Y-103587907D01*
X160759680Y-103587907D01*
X160843717Y-103598000D01*
X161046082Y-103597999D01*
X161130127Y-103587907D01*
X161159680Y-103587907D01*
X161243717Y-103598000D01*
X161446082Y-103597999D01*
X161530127Y-103587907D01*
X161559680Y-103587907D01*
X161643717Y-103598000D01*
X161846082Y-103597999D01*
X161930127Y-103587907D01*
X161959680Y-103587907D01*
X162043717Y-103598000D01*
X162246082Y-103597999D01*
X162330127Y-103587907D01*
X162359680Y-103587907D01*
X162443717Y-103598000D01*
X162646082Y-103597999D01*
X162730127Y-103587907D01*
X162759680Y-103587907D01*
X162843717Y-103598000D01*
X163046082Y-103597999D01*
X163130127Y-103587907D01*
X163159680Y-103587907D01*
X163243717Y-103598000D01*
X163446082Y-103597999D01*
X163530127Y-103587907D01*
X163559680Y-103587907D01*
X163643717Y-103598000D01*
X163846082Y-103597999D01*
X163930127Y-103587907D01*
X163959680Y-103587907D01*
X164043717Y-103598000D01*
X164246082Y-103597999D01*
X164330127Y-103587907D01*
X164359680Y-103587907D01*
X164443717Y-103598000D01*
X164646082Y-103597999D01*
X164730127Y-103587907D01*
X164759680Y-103587907D01*
X164843717Y-103598000D01*
X165046082Y-103597999D01*
X165130127Y-103587907D01*
X165159680Y-103587907D01*
X165243717Y-103598000D01*
X165446082Y-103597999D01*
X165503386Y-103591117D01*
X165531417Y-103590945D01*
X165537413Y-103591589D01*
X165537417Y-103591591D01*
X165597027Y-103598000D01*
X166042772Y-103597999D01*
X166102383Y-103591591D01*
X166237231Y-103541296D01*
X166352446Y-103455046D01*
X166438696Y-103339831D01*
X166488991Y-103204983D01*
X166495400Y-103145373D01*
X166495399Y-102786038D01*
X170444500Y-102786038D01*
X170444500Y-103037961D01*
X170483910Y-103286785D01*
X170561760Y-103526383D01*
X170628727Y-103657811D01*
X170671116Y-103741005D01*
X170676132Y-103750848D01*
X170824201Y-103954649D01*
X170824205Y-103954654D01*
X171002345Y-104132794D01*
X171002350Y-104132798D01*
X171146936Y-104237845D01*
X171206155Y-104280870D01*
X171337330Y-104347707D01*
X171430616Y-104395239D01*
X171430618Y-104395239D01*
X171430621Y-104395241D01*
X171670215Y-104473090D01*
X171919038Y-104512500D01*
X171919039Y-104512500D01*
X172170961Y-104512500D01*
X172170962Y-104512500D01*
X172419785Y-104473090D01*
X172659379Y-104395241D01*
X172883845Y-104280870D01*
X173087656Y-104132793D01*
X173265793Y-103954656D01*
X173413870Y-103750845D01*
X173528241Y-103526379D01*
X173606090Y-103286785D01*
X173645500Y-103037962D01*
X173645500Y-102786038D01*
X173606090Y-102537215D01*
X173528241Y-102297621D01*
X173528239Y-102297618D01*
X173528239Y-102297616D01*
X173479814Y-102202578D01*
X173413870Y-102073155D01*
X173317276Y-101940204D01*
X173265798Y-101869350D01*
X173265794Y-101869345D01*
X173087654Y-101691205D01*
X173087649Y-101691201D01*
X172883848Y-101543132D01*
X172883847Y-101543131D01*
X172883845Y-101543130D01*
X172813747Y-101507413D01*
X172659383Y-101428760D01*
X172419785Y-101350910D01*
X172326980Y-101336211D01*
X172170962Y-101311500D01*
X171919038Y-101311500D01*
X171794626Y-101331205D01*
X171670214Y-101350910D01*
X171430616Y-101428760D01*
X171206151Y-101543132D01*
X171002350Y-101691201D01*
X171002345Y-101691205D01*
X170824205Y-101869345D01*
X170824201Y-101869350D01*
X170676132Y-102073151D01*
X170561760Y-102297616D01*
X170483910Y-102537214D01*
X170444500Y-102786038D01*
X166495399Y-102786038D01*
X166495399Y-102733699D01*
X166515083Y-102666661D01*
X166567887Y-102620906D01*
X166619399Y-102609700D01*
X168100230Y-102609700D01*
X168162369Y-102627946D01*
X168162819Y-102627105D01*
X168166859Y-102629264D01*
X168167269Y-102629385D01*
X168168087Y-102629921D01*
X168168190Y-102629976D01*
X168295667Y-102682778D01*
X168295672Y-102682780D01*
X168295676Y-102682780D01*
X168295677Y-102682781D01*
X168431004Y-102709700D01*
X168431007Y-102709700D01*
X168568995Y-102709700D01*
X168660041Y-102691589D01*
X168704328Y-102682780D01*
X168722450Y-102675273D01*
X168743379Y-102666605D01*
X168831804Y-102629978D01*
X168831804Y-102629977D01*
X168831811Y-102629975D01*
X168946542Y-102553314D01*
X169044114Y-102455742D01*
X169120775Y-102341011D01*
X169173580Y-102213528D01*
X169200500Y-102078193D01*
X169200500Y-101940207D01*
X169200500Y-101940204D01*
X169173581Y-101804877D01*
X169173580Y-101804876D01*
X169173580Y-101804872D01*
X169126498Y-101691205D01*
X169120778Y-101677395D01*
X169120771Y-101677382D01*
X169044114Y-101562658D01*
X169044111Y-101562654D01*
X168946545Y-101465088D01*
X168946541Y-101465085D01*
X168831817Y-101388428D01*
X168831804Y-101388421D01*
X168704332Y-101335621D01*
X168704322Y-101335618D01*
X168568995Y-101308700D01*
X168568993Y-101308700D01*
X168431007Y-101308700D01*
X168431005Y-101308700D01*
X168295677Y-101335618D01*
X168295667Y-101335621D01*
X168168190Y-101388423D01*
X168162819Y-101391295D01*
X168162123Y-101389994D01*
X168102438Y-101408680D01*
X168100230Y-101408700D01*
X156640897Y-101408700D01*
X156573858Y-101389015D01*
X156528103Y-101336211D01*
X156518159Y-101267053D01*
X156547184Y-101203497D01*
X156553216Y-101197019D01*
X156825916Y-100924318D01*
X156850360Y-100910970D01*
X156873062Y-100894811D01*
X156883017Y-100893137D01*
X156887239Y-100890833D01*
X156907720Y-100888138D01*
X156910649Y-100887999D01*
X157046082Y-100887999D01*
X157134571Y-100877373D01*
X157139025Y-100877162D01*
X157142095Y-100877907D01*
X157159680Y-100877907D01*
X157243717Y-100888000D01*
X157446082Y-100887999D01*
X157530127Y-100877907D01*
X157559680Y-100877907D01*
X157643717Y-100888000D01*
X157846082Y-100887999D01*
X157930127Y-100877907D01*
X157959680Y-100877907D01*
X158043717Y-100888000D01*
X158246082Y-100887999D01*
X158330127Y-100877907D01*
X158359680Y-100877907D01*
X158443717Y-100888000D01*
X158646082Y-100887999D01*
X158730127Y-100877907D01*
X158759680Y-100877907D01*
X158843717Y-100888000D01*
X159046082Y-100887999D01*
X159130127Y-100877907D01*
X159159680Y-100877907D01*
X159243717Y-100888000D01*
X159446082Y-100887999D01*
X159530127Y-100877907D01*
X159559680Y-100877907D01*
X159643717Y-100888000D01*
X159846082Y-100887999D01*
X159930127Y-100877907D01*
X159959680Y-100877907D01*
X160043717Y-100888000D01*
X160246082Y-100887999D01*
X160330127Y-100877907D01*
X160359680Y-100877907D01*
X160443717Y-100888000D01*
X160646082Y-100887999D01*
X160730127Y-100877907D01*
X160759680Y-100877907D01*
X160843717Y-100888000D01*
X161046082Y-100887999D01*
X161130127Y-100877907D01*
X161159680Y-100877907D01*
X161243717Y-100888000D01*
X161446082Y-100887999D01*
X161530127Y-100877907D01*
X161559680Y-100877907D01*
X161643717Y-100888000D01*
X161846082Y-100887999D01*
X161930127Y-100877907D01*
X161959680Y-100877907D01*
X162043717Y-100888000D01*
X162246082Y-100887999D01*
X162330127Y-100877907D01*
X162359680Y-100877907D01*
X162443717Y-100888000D01*
X162646082Y-100887999D01*
X162730127Y-100877907D01*
X162759680Y-100877907D01*
X162843717Y-100888000D01*
X163046082Y-100887999D01*
X163130127Y-100877907D01*
X163159680Y-100877907D01*
X163243717Y-100888000D01*
X163446082Y-100887999D01*
X163530127Y-100877907D01*
X163559680Y-100877907D01*
X163643717Y-100888000D01*
X163846082Y-100887999D01*
X163930127Y-100877907D01*
X163959680Y-100877907D01*
X164043717Y-100888000D01*
X164246082Y-100887999D01*
X164330127Y-100877907D01*
X164359680Y-100877907D01*
X164443717Y-100888000D01*
X164646082Y-100887999D01*
X164730127Y-100877907D01*
X164759680Y-100877907D01*
X164843717Y-100888000D01*
X165046082Y-100887999D01*
X165130127Y-100877907D01*
X165159680Y-100877907D01*
X165243717Y-100888000D01*
X165446082Y-100887999D01*
X165503386Y-100881117D01*
X165531417Y-100880945D01*
X165537413Y-100881589D01*
X165537417Y-100881591D01*
X165597027Y-100888000D01*
X166042772Y-100887999D01*
X166102383Y-100881591D01*
X166237231Y-100831296D01*
X166352446Y-100745046D01*
X166438696Y-100629831D01*
X166488991Y-100494983D01*
X166495400Y-100435373D01*
X166495399Y-99679628D01*
X166488991Y-99620017D01*
X166438696Y-99485169D01*
X166438695Y-99485168D01*
X166438693Y-99485164D01*
X166352447Y-99369955D01*
X166352444Y-99369952D01*
X166237235Y-99283706D01*
X166237228Y-99283702D01*
X166102386Y-99233410D01*
X166102385Y-99233409D01*
X166102383Y-99233409D01*
X166042773Y-99227000D01*
X166042763Y-99227000D01*
X165597029Y-99227000D01*
X165597023Y-99227001D01*
X165531415Y-99234054D01*
X165503380Y-99233880D01*
X165488069Y-99232041D01*
X165446083Y-99227000D01*
X165446078Y-99227000D01*
X165243723Y-99227000D01*
X165159683Y-99237091D01*
X165130118Y-99237091D01*
X165085657Y-99231752D01*
X165046083Y-99227000D01*
X165046077Y-99227000D01*
X164843723Y-99227000D01*
X164759683Y-99237091D01*
X164730118Y-99237091D01*
X164685657Y-99231752D01*
X164646083Y-99227000D01*
X164646077Y-99227000D01*
X164443723Y-99227000D01*
X164359683Y-99237091D01*
X164330118Y-99237091D01*
X164285657Y-99231752D01*
X164246083Y-99227000D01*
X164246077Y-99227000D01*
X164043723Y-99227000D01*
X163959683Y-99237091D01*
X163930118Y-99237091D01*
X163885657Y-99231752D01*
X163846083Y-99227000D01*
X163846077Y-99227000D01*
X163643723Y-99227000D01*
X163559683Y-99237091D01*
X163530118Y-99237091D01*
X163485657Y-99231752D01*
X163446083Y-99227000D01*
X163446077Y-99227000D01*
X163243723Y-99227000D01*
X163159683Y-99237091D01*
X163130118Y-99237091D01*
X163085657Y-99231752D01*
X163046083Y-99227000D01*
X163046077Y-99227000D01*
X162843723Y-99227000D01*
X162759683Y-99237091D01*
X162730118Y-99237091D01*
X162685657Y-99231752D01*
X162646083Y-99227000D01*
X162646077Y-99227000D01*
X162443723Y-99227000D01*
X162359683Y-99237091D01*
X162330118Y-99237091D01*
X162285657Y-99231752D01*
X162246083Y-99227000D01*
X162246077Y-99227000D01*
X162043723Y-99227000D01*
X161959683Y-99237091D01*
X161930118Y-99237091D01*
X161885657Y-99231752D01*
X161846083Y-99227000D01*
X161846077Y-99227000D01*
X161643723Y-99227000D01*
X161559683Y-99237091D01*
X161530118Y-99237091D01*
X161485657Y-99231752D01*
X161446083Y-99227000D01*
X161446077Y-99227000D01*
X161243723Y-99227000D01*
X161159683Y-99237091D01*
X161130118Y-99237091D01*
X161085657Y-99231752D01*
X161046083Y-99227000D01*
X161046077Y-99227000D01*
X160843723Y-99227000D01*
X160759683Y-99237091D01*
X160730118Y-99237091D01*
X160685657Y-99231752D01*
X160646083Y-99227000D01*
X160646077Y-99227000D01*
X160443723Y-99227000D01*
X160359683Y-99237091D01*
X160330118Y-99237091D01*
X160285657Y-99231752D01*
X160246083Y-99227000D01*
X160246077Y-99227000D01*
X160043723Y-99227000D01*
X159959683Y-99237091D01*
X159930118Y-99237091D01*
X159885657Y-99231752D01*
X159846083Y-99227000D01*
X159846077Y-99227000D01*
X159643723Y-99227000D01*
X159559683Y-99237091D01*
X159530118Y-99237091D01*
X159485657Y-99231752D01*
X159446083Y-99227000D01*
X159446077Y-99227000D01*
X159243723Y-99227000D01*
X159159683Y-99237091D01*
X159130118Y-99237091D01*
X159085657Y-99231752D01*
X159046083Y-99227000D01*
X159046077Y-99227000D01*
X158843723Y-99227000D01*
X158759683Y-99237091D01*
X158730118Y-99237091D01*
X158685657Y-99231752D01*
X158646083Y-99227000D01*
X158646077Y-99227000D01*
X158443723Y-99227000D01*
X158359683Y-99237091D01*
X158330118Y-99237091D01*
X158285657Y-99231752D01*
X158246083Y-99227000D01*
X158246077Y-99227000D01*
X158043723Y-99227000D01*
X157959683Y-99237091D01*
X157930118Y-99237091D01*
X157885657Y-99231752D01*
X157846083Y-99227000D01*
X157846077Y-99227000D01*
X157643723Y-99227000D01*
X157559683Y-99237091D01*
X157530118Y-99237091D01*
X157485657Y-99231752D01*
X157446083Y-99227000D01*
X157446077Y-99227000D01*
X157243723Y-99227000D01*
X157159683Y-99237091D01*
X157130118Y-99237091D01*
X157081870Y-99231297D01*
X157046083Y-99227000D01*
X157046078Y-99227000D01*
X156869500Y-99227000D01*
X156802461Y-99207315D01*
X156756706Y-99154511D01*
X156745500Y-99103000D01*
X156745500Y-98399769D01*
X156763746Y-98337627D01*
X156762906Y-98337178D01*
X156765064Y-98333140D01*
X156765185Y-98332730D01*
X156765721Y-98331910D01*
X156765771Y-98331816D01*
X156765775Y-98331811D01*
X156818580Y-98204328D01*
X156845500Y-98068993D01*
X156845500Y-97931007D01*
X156845500Y-97931004D01*
X156818581Y-97795677D01*
X156818580Y-97795676D01*
X156818580Y-97795672D01*
X156786952Y-97719314D01*
X156765778Y-97668195D01*
X156765771Y-97668182D01*
X156689114Y-97553458D01*
X156689111Y-97553454D01*
X156590854Y-97455197D01*
X156557369Y-97393874D01*
X156562353Y-97324182D01*
X156604225Y-97268249D01*
X156669689Y-97243832D01*
X156725986Y-97252954D01*
X156766503Y-97269737D01*
X156902381Y-97296765D01*
X156921153Y-97300499D01*
X156921156Y-97300500D01*
X156921158Y-97300500D01*
X157078844Y-97300500D01*
X157078845Y-97300499D01*
X157233497Y-97269737D01*
X157379179Y-97209394D01*
X157510289Y-97121789D01*
X157621789Y-97010289D01*
X157709394Y-96879179D01*
X157769737Y-96733497D01*
X157789113Y-96636085D01*
X157800638Y-96578150D01*
X157833023Y-96516239D01*
X157834519Y-96514715D01*
X162358506Y-91990727D01*
X162358511Y-91990724D01*
X162368714Y-91980520D01*
X162368716Y-91980520D01*
X162480520Y-91868716D01*
X162552920Y-91743315D01*
X162552921Y-91743312D01*
X162552923Y-91743311D01*
X162559575Y-91731788D01*
X162559574Y-91731788D01*
X162559577Y-91731785D01*
X162600501Y-91579057D01*
X162600501Y-91420943D01*
X162600501Y-91413348D01*
X162600500Y-91413330D01*
X162600500Y-85579765D01*
X162620185Y-85512726D01*
X162621398Y-85510874D01*
X162709390Y-85379185D01*
X162709390Y-85379184D01*
X162709394Y-85379179D01*
X162769737Y-85233497D01*
X162800500Y-85078842D01*
X162800500Y-84921158D01*
X162800500Y-84921155D01*
X162800499Y-84921153D01*
X162769738Y-84766510D01*
X162769737Y-84766503D01*
X162769735Y-84766498D01*
X162709397Y-84620827D01*
X162709390Y-84620814D01*
X162621789Y-84489711D01*
X162621786Y-84489707D01*
X162510292Y-84378213D01*
X162510288Y-84378210D01*
X162379185Y-84290609D01*
X162379172Y-84290602D01*
X162233501Y-84230264D01*
X162233489Y-84230261D01*
X162078845Y-84199500D01*
X162078842Y-84199500D01*
X161921158Y-84199500D01*
X161921155Y-84199500D01*
X161766510Y-84230261D01*
X161766498Y-84230264D01*
X161620827Y-84290602D01*
X161620814Y-84290609D01*
X161489711Y-84378210D01*
X161489707Y-84378213D01*
X161378213Y-84489707D01*
X161378210Y-84489711D01*
X161290609Y-84620814D01*
X161290602Y-84620827D01*
X161230264Y-84766498D01*
X161230261Y-84766510D01*
X161199500Y-84921153D01*
X161199500Y-85078846D01*
X161230261Y-85233489D01*
X161230264Y-85233501D01*
X161290602Y-85379172D01*
X161290609Y-85379185D01*
X161378602Y-85510874D01*
X161399480Y-85577551D01*
X161399500Y-85579765D01*
X161399500Y-91199903D01*
X161379815Y-91266942D01*
X161363181Y-91287584D01*
X156985339Y-95665425D01*
X156968743Y-95674487D01*
X156955134Y-95687619D01*
X156925636Y-95698025D01*
X156924016Y-95698910D01*
X156921850Y-95699361D01*
X156789771Y-95725634D01*
X156720179Y-95719407D01*
X156665002Y-95676544D01*
X156641757Y-95610655D01*
X156657824Y-95542658D01*
X156677895Y-95516339D01*
X159738613Y-92455621D01*
X159738616Y-92455620D01*
X159850420Y-92343816D01*
X159900539Y-92257004D01*
X159929477Y-92206885D01*
X159970400Y-92054157D01*
X159970400Y-91896043D01*
X159970400Y-77904769D01*
X159988646Y-77842627D01*
X159987806Y-77842178D01*
X159989964Y-77838140D01*
X159990085Y-77837730D01*
X159990621Y-77836910D01*
X159990671Y-77836816D01*
X159990675Y-77836811D01*
X160043480Y-77709328D01*
X160070400Y-77573993D01*
X160070400Y-77436007D01*
X160070400Y-77436004D01*
X160043481Y-77300677D01*
X160043480Y-77300676D01*
X160043480Y-77300672D01*
X160043478Y-77300667D01*
X159990678Y-77173195D01*
X159990671Y-77173182D01*
X159914014Y-77058458D01*
X159914011Y-77058454D01*
X159816445Y-76960888D01*
X159816441Y-76960885D01*
X159701717Y-76884228D01*
X159701704Y-76884221D01*
X159574232Y-76831421D01*
X159574222Y-76831418D01*
X159438895Y-76804500D01*
X159438893Y-76804500D01*
X159300907Y-76804500D01*
X159300905Y-76804500D01*
X159165577Y-76831418D01*
X159165567Y-76831421D01*
X159038095Y-76884221D01*
X159038082Y-76884228D01*
X158923358Y-76960885D01*
X158923354Y-76960888D01*
X158825788Y-77058454D01*
X158825785Y-77058458D01*
X158749128Y-77173182D01*
X158749121Y-77173195D01*
X158696321Y-77300667D01*
X158696318Y-77300677D01*
X158669400Y-77436004D01*
X158669400Y-77436007D01*
X158669400Y-77573993D01*
X158669400Y-77573995D01*
X158669399Y-77573995D01*
X158696318Y-77709322D01*
X158696321Y-77709332D01*
X158749122Y-77836806D01*
X158751994Y-77842178D01*
X158750692Y-77842874D01*
X158769380Y-77902554D01*
X158769400Y-77904769D01*
X158769400Y-91675002D01*
X158749715Y-91742041D01*
X158733081Y-91762683D01*
X154864481Y-95631282D01*
X154864479Y-95631284D01*
X154844769Y-95665425D01*
X154825096Y-95699500D01*
X154785423Y-95768215D01*
X154744499Y-95920943D01*
X154744499Y-95920945D01*
X154744499Y-96089046D01*
X154744500Y-96089059D01*
X154744500Y-97241979D01*
X154724815Y-97309018D01*
X154672011Y-97354773D01*
X154667954Y-97356540D01*
X154613189Y-97379225D01*
X154613182Y-97379228D01*
X154498458Y-97455885D01*
X154498454Y-97455888D01*
X154400888Y-97553454D01*
X154400885Y-97553458D01*
X154324228Y-97668182D01*
X154324221Y-97668195D01*
X154271421Y-97795667D01*
X154271418Y-97795677D01*
X154244500Y-97931004D01*
X154244500Y-97931007D01*
X154244500Y-98068993D01*
X154244500Y-98068995D01*
X154244499Y-98068995D01*
X154271418Y-98204322D01*
X154271421Y-98204332D01*
X154324222Y-98331806D01*
X154327094Y-98337178D01*
X154325792Y-98337874D01*
X154344480Y-98397554D01*
X154344500Y-98399769D01*
X154344500Y-99103000D01*
X154324815Y-99170039D01*
X154272011Y-99215794D01*
X154220501Y-99227000D01*
X154043723Y-99227000D01*
X153959683Y-99237091D01*
X153930118Y-99237091D01*
X153885657Y-99231752D01*
X153846083Y-99227000D01*
X153846077Y-99227000D01*
X153643724Y-99227000D01*
X153583449Y-99234238D01*
X153557582Y-99237344D01*
X153528016Y-99237344D01*
X153446036Y-99227500D01*
X153243763Y-99227500D01*
X153161784Y-99237344D01*
X153132218Y-99237344D01*
X153046083Y-99227000D01*
X153046076Y-99227000D01*
X152843723Y-99227000D01*
X152759683Y-99237091D01*
X152730118Y-99237091D01*
X152685657Y-99231752D01*
X152646083Y-99227000D01*
X152646077Y-99227000D01*
X152443724Y-99227000D01*
X152383449Y-99234238D01*
X152357582Y-99237344D01*
X152328016Y-99237344D01*
X152246036Y-99227500D01*
X152043763Y-99227500D01*
X151961784Y-99237344D01*
X151932218Y-99237344D01*
X151846083Y-99227000D01*
X151846076Y-99227000D01*
X151643723Y-99227000D01*
X151559683Y-99237091D01*
X151530118Y-99237091D01*
X151485657Y-99231752D01*
X151446083Y-99227000D01*
X151446077Y-99227000D01*
X151243724Y-99227000D01*
X151183449Y-99234238D01*
X151157582Y-99237344D01*
X151128016Y-99237344D01*
X151046036Y-99227500D01*
X150843763Y-99227500D01*
X150761784Y-99237344D01*
X150732218Y-99237344D01*
X150646083Y-99227000D01*
X150646076Y-99227000D01*
X150443723Y-99227000D01*
X150359683Y-99237091D01*
X150330118Y-99237091D01*
X150285657Y-99231752D01*
X150246083Y-99227000D01*
X150246077Y-99227000D01*
X150043724Y-99227000D01*
X149983449Y-99234238D01*
X149957582Y-99237344D01*
X149928016Y-99237344D01*
X149846036Y-99227500D01*
X149643761Y-99227500D01*
X149588452Y-99234141D01*
X149560275Y-99232557D01*
X149560095Y-99234238D01*
X149492782Y-99227001D01*
X149492773Y-99227000D01*
X149492763Y-99227000D01*
X149047029Y-99227000D01*
X149047023Y-99227001D01*
X148987416Y-99233408D01*
X148852571Y-99283702D01*
X148852564Y-99283706D01*
X148737355Y-99369952D01*
X148737352Y-99369955D01*
X148651106Y-99485164D01*
X148651102Y-99485171D01*
X148600810Y-99620013D01*
X148600809Y-99620017D01*
X148594400Y-99679627D01*
X148594400Y-99679634D01*
X148594400Y-99679635D01*
X148594400Y-100435370D01*
X148594401Y-100435376D01*
X148600808Y-100494983D01*
X148651102Y-100629828D01*
X148651106Y-100629835D01*
X148737352Y-100745044D01*
X148737355Y-100745047D01*
X148852564Y-100831293D01*
X148852571Y-100831297D01*
X148897518Y-100848061D01*
X148987417Y-100881591D01*
X149047027Y-100888000D01*
X149492772Y-100887999D01*
X149552383Y-100881591D01*
X149552386Y-100881589D01*
X149560096Y-100880761D01*
X149560279Y-100882464D01*
X149588461Y-100880859D01*
X149643757Y-100887499D01*
X149846034Y-100887499D01*
X149928014Y-100877655D01*
X149957581Y-100877655D01*
X150015380Y-100884597D01*
X150043708Y-100887999D01*
X150043717Y-100888000D01*
X150047397Y-100888442D01*
X150047250Y-100889662D01*
X150108155Y-100911578D01*
X150150672Y-100967023D01*
X150156464Y-101036652D01*
X150123691Y-101098359D01*
X150062760Y-101132553D01*
X150035000Y-101135700D01*
X149559669Y-101135700D01*
X149559653Y-101135699D01*
X149552057Y-101135699D01*
X149393943Y-101135699D01*
X149392912Y-101135974D01*
X149392911Y-101135975D01*
X149241210Y-101176624D01*
X149241209Y-101176625D01*
X149191096Y-101205559D01*
X149191095Y-101205560D01*
X149147689Y-101230620D01*
X149104285Y-101255679D01*
X149104282Y-101255681D01*
X148045581Y-102314382D01*
X148045579Y-102314385D01*
X148027240Y-102346150D01*
X148008900Y-102377916D01*
X147966523Y-102451315D01*
X147925599Y-102604043D01*
X147925599Y-102604045D01*
X147925599Y-102713931D01*
X147907354Y-102776064D01*
X147908198Y-102776515D01*
X147906032Y-102780566D01*
X147905914Y-102780970D01*
X147905385Y-102781777D01*
X147905323Y-102781892D01*
X147852520Y-102909371D01*
X147852518Y-102909377D01*
X147825600Y-103044704D01*
X147825600Y-103044707D01*
X147825600Y-103182693D01*
X147825600Y-103182695D01*
X147825599Y-103182695D01*
X147852518Y-103318022D01*
X147852521Y-103318032D01*
X147905321Y-103445504D01*
X147905328Y-103445517D01*
X147981985Y-103560241D01*
X147981988Y-103560245D01*
X148079554Y-103657811D01*
X148079558Y-103657814D01*
X148194282Y-103734471D01*
X148194295Y-103734478D01*
X148272162Y-103766731D01*
X148321772Y-103787280D01*
X148321776Y-103787280D01*
X148321777Y-103787281D01*
X148457104Y-103814200D01*
X148457107Y-103814200D01*
X148595095Y-103814200D01*
X148688244Y-103795671D01*
X148730428Y-103787280D01*
X148857911Y-103734475D01*
X148972642Y-103657814D01*
X148996138Y-103634317D01*
X149057458Y-103600833D01*
X149083809Y-103597999D01*
X149492772Y-103597999D01*
X149552383Y-103591591D01*
X149552386Y-103591589D01*
X149560096Y-103590761D01*
X149560279Y-103592464D01*
X149588461Y-103590859D01*
X149643757Y-103597499D01*
X149846034Y-103597499D01*
X149928014Y-103587655D01*
X149957581Y-103587655D01*
X150043717Y-103598000D01*
X150246082Y-103597999D01*
X150330127Y-103587907D01*
X150359680Y-103587907D01*
X150443717Y-103598000D01*
X150646082Y-103597999D01*
X150732225Y-103587655D01*
X150761784Y-103587656D01*
X150843756Y-103597499D01*
X151046034Y-103597499D01*
X151128014Y-103587655D01*
X151157581Y-103587655D01*
X151243717Y-103598000D01*
X151446082Y-103597999D01*
X151530127Y-103587907D01*
X151559680Y-103587907D01*
X151643717Y-103598000D01*
X151846082Y-103597999D01*
X151932225Y-103587655D01*
X151961784Y-103587656D01*
X152043756Y-103597499D01*
X152246034Y-103597499D01*
X152328014Y-103587655D01*
X152357581Y-103587655D01*
X152443717Y-103598000D01*
X152646082Y-103597999D01*
X152730127Y-103587907D01*
X152759680Y-103587907D01*
X152843717Y-103598000D01*
X153046082Y-103597999D01*
X153132225Y-103587655D01*
X153161784Y-103587656D01*
X153243756Y-103597499D01*
X153446034Y-103597499D01*
X153528014Y-103587655D01*
X153557581Y-103587655D01*
X153643717Y-103598000D01*
X153846082Y-103597999D01*
X153930127Y-103587907D01*
X153959680Y-103587907D01*
X154043717Y-103598000D01*
X154246082Y-103597999D01*
X154332225Y-103587655D01*
X154361784Y-103587656D01*
X154443756Y-103597499D01*
X154620499Y-103597499D01*
X154687539Y-103617183D01*
X154733294Y-103669987D01*
X154744500Y-103721499D01*
X154744500Y-104200230D01*
X154726253Y-104262369D01*
X154727095Y-104262819D01*
X154724935Y-104266859D01*
X154724815Y-104267269D01*
X154724278Y-104268087D01*
X154724223Y-104268190D01*
X154671421Y-104395667D01*
X154671418Y-104395677D01*
X154644500Y-104531004D01*
X154644500Y-104668997D01*
X154663260Y-104763309D01*
X154657033Y-104832900D01*
X154614170Y-104888078D01*
X154548280Y-104911322D01*
X154541643Y-104911500D01*
X121303676Y-104911500D01*
X121236637Y-104891815D01*
X121215995Y-104875181D01*
X120081819Y-103741005D01*
X120048334Y-103679682D01*
X120045500Y-103653324D01*
X120045500Y-102786038D01*
X120444500Y-102786038D01*
X120444500Y-103037961D01*
X120483910Y-103286785D01*
X120561760Y-103526383D01*
X120628727Y-103657811D01*
X120671116Y-103741005D01*
X120676132Y-103750848D01*
X120824201Y-103954649D01*
X120824205Y-103954654D01*
X121002345Y-104132794D01*
X121002350Y-104132798D01*
X121146936Y-104237845D01*
X121206155Y-104280870D01*
X121337330Y-104347707D01*
X121430616Y-104395239D01*
X121430618Y-104395239D01*
X121430621Y-104395241D01*
X121670215Y-104473090D01*
X121919038Y-104512500D01*
X121919039Y-104512500D01*
X122170961Y-104512500D01*
X122170962Y-104512500D01*
X122419785Y-104473090D01*
X122659379Y-104395241D01*
X122883845Y-104280870D01*
X123087656Y-104132793D01*
X123265793Y-103954656D01*
X123413870Y-103750845D01*
X123528241Y-103526379D01*
X123606090Y-103286785D01*
X123645500Y-103037962D01*
X123645500Y-102786038D01*
X123606090Y-102537215D01*
X123528241Y-102297621D01*
X123528239Y-102297618D01*
X123528239Y-102297616D01*
X123479814Y-102202578D01*
X123413870Y-102073155D01*
X123317276Y-101940204D01*
X123265798Y-101869350D01*
X123265794Y-101869345D01*
X123087654Y-101691205D01*
X123087649Y-101691201D01*
X122883848Y-101543132D01*
X122883847Y-101543131D01*
X122883845Y-101543130D01*
X122813747Y-101507413D01*
X122659383Y-101428760D01*
X122419785Y-101350910D01*
X122326980Y-101336211D01*
X122170962Y-101311500D01*
X121919038Y-101311500D01*
X121794626Y-101331205D01*
X121670214Y-101350910D01*
X121430616Y-101428760D01*
X121206151Y-101543132D01*
X121002350Y-101691201D01*
X121002345Y-101691205D01*
X120824205Y-101869345D01*
X120824201Y-101869350D01*
X120676132Y-102073151D01*
X120561760Y-102297616D01*
X120483910Y-102537214D01*
X120444500Y-102786038D01*
X120045500Y-102786038D01*
X120045500Y-81504795D01*
X126137999Y-81504795D01*
X126164918Y-81640122D01*
X126164921Y-81640132D01*
X126217722Y-81767606D01*
X126220594Y-81772978D01*
X126219292Y-81773674D01*
X126237980Y-81833354D01*
X126238000Y-81835569D01*
X126238000Y-90863030D01*
X126219753Y-90925169D01*
X126220595Y-90925619D01*
X126218435Y-90929659D01*
X126218315Y-90930069D01*
X126217778Y-90930887D01*
X126217723Y-90930990D01*
X126164921Y-91058467D01*
X126164918Y-91058477D01*
X126138000Y-91193804D01*
X126138000Y-91193807D01*
X126138000Y-91331793D01*
X126138000Y-91331795D01*
X126137999Y-91331795D01*
X126164918Y-91467122D01*
X126164921Y-91467132D01*
X126217721Y-91594604D01*
X126217728Y-91594617D01*
X126294385Y-91709341D01*
X126294388Y-91709345D01*
X126391954Y-91806911D01*
X126391958Y-91806914D01*
X126506682Y-91883571D01*
X126506695Y-91883578D01*
X126634167Y-91936378D01*
X126634172Y-91936380D01*
X126634176Y-91936380D01*
X126634177Y-91936381D01*
X126769504Y-91963300D01*
X126769507Y-91963300D01*
X126907495Y-91963300D01*
X126998541Y-91945189D01*
X127042828Y-91936380D01*
X127170311Y-91883575D01*
X127285042Y-91806914D01*
X127382614Y-91709342D01*
X127459275Y-91594611D01*
X127512080Y-91467128D01*
X127539000Y-91331793D01*
X127539000Y-91193807D01*
X127539000Y-91193804D01*
X127512081Y-91058477D01*
X127512080Y-91058476D01*
X127512080Y-91058472D01*
X127512078Y-91058467D01*
X127459276Y-90930990D01*
X127456405Y-90925619D01*
X127457705Y-90924923D01*
X127439020Y-90865238D01*
X127439000Y-90863030D01*
X127439000Y-88383695D01*
X148811399Y-88383695D01*
X148838318Y-88519022D01*
X148838321Y-88519032D01*
X148891121Y-88646504D01*
X148891128Y-88646517D01*
X148967785Y-88761241D01*
X148967788Y-88761245D01*
X149065354Y-88858811D01*
X149065358Y-88858814D01*
X149180082Y-88935471D01*
X149180095Y-88935478D01*
X149307567Y-88988278D01*
X149307572Y-88988280D01*
X149307576Y-88988280D01*
X149307577Y-88988281D01*
X149442904Y-89015200D01*
X149442907Y-89015200D01*
X149580895Y-89015200D01*
X149671941Y-88997089D01*
X149716228Y-88988280D01*
X149843711Y-88935475D01*
X149958442Y-88858814D01*
X150056014Y-88761242D01*
X150132675Y-88646511D01*
X150185480Y-88519028D01*
X150212400Y-88383693D01*
X150212400Y-88245707D01*
X150212400Y-88245704D01*
X150185481Y-88110377D01*
X150185480Y-88110376D01*
X150185480Y-88110372D01*
X150185478Y-88110367D01*
X150146839Y-88017082D01*
X150137400Y-87969630D01*
X150137400Y-86298651D01*
X150157085Y-86231612D01*
X150173714Y-86210975D01*
X152036929Y-84347760D01*
X152036933Y-84347758D01*
X152124058Y-84260633D01*
X152124253Y-84260338D01*
X152127831Y-84256757D01*
X152128825Y-84255763D01*
X152128831Y-84255760D01*
X152128854Y-84255734D01*
X154698296Y-81686292D01*
X154738519Y-81659416D01*
X154831811Y-81620775D01*
X154946542Y-81544114D01*
X155044114Y-81446542D01*
X155120775Y-81331811D01*
X155173580Y-81204328D01*
X155200500Y-81068993D01*
X155200500Y-80931007D01*
X155200500Y-80931004D01*
X155173581Y-80795677D01*
X155173580Y-80795676D01*
X155173580Y-80795672D01*
X155148573Y-80735300D01*
X155120778Y-80668195D01*
X155120771Y-80668182D01*
X155044114Y-80553458D01*
X155044111Y-80553454D01*
X154946545Y-80455888D01*
X154946541Y-80455885D01*
X154831817Y-80379228D01*
X154831804Y-80379221D01*
X154704332Y-80326421D01*
X154704322Y-80326418D01*
X154568995Y-80299500D01*
X154568993Y-80299500D01*
X154431007Y-80299500D01*
X154431005Y-80299500D01*
X154295677Y-80326418D01*
X154295667Y-80326421D01*
X154168195Y-80379221D01*
X154168182Y-80379228D01*
X154053458Y-80455885D01*
X154053454Y-80455888D01*
X153955888Y-80553454D01*
X153955882Y-80553462D01*
X153879226Y-80668186D01*
X153879225Y-80668187D01*
X153840583Y-80761477D01*
X153813703Y-80801704D01*
X151239515Y-83375892D01*
X151239469Y-83375940D01*
X151239467Y-83375942D01*
X151152342Y-83463067D01*
X151152149Y-83463353D01*
X151147662Y-83467846D01*
X151147653Y-83467850D01*
X151147615Y-83467893D01*
X150125802Y-84489707D01*
X149113170Y-85502339D01*
X149113167Y-85502342D01*
X149083931Y-85531578D01*
X149026042Y-85589466D01*
X149006079Y-85619343D01*
X149004445Y-85621789D01*
X148957588Y-85691914D01*
X148950348Y-85709394D01*
X148946818Y-85717914D01*
X148946816Y-85717919D01*
X148910438Y-85805744D01*
X148910435Y-85805756D01*
X148886400Y-85926589D01*
X148886400Y-87969630D01*
X148876961Y-88017082D01*
X148838321Y-88110367D01*
X148838318Y-88110377D01*
X148811400Y-88245704D01*
X148811400Y-88245707D01*
X148811400Y-88383693D01*
X148811400Y-88383695D01*
X148811399Y-88383695D01*
X127439000Y-88383695D01*
X127439000Y-81835569D01*
X127457246Y-81773427D01*
X127456406Y-81772978D01*
X127458564Y-81768940D01*
X127458685Y-81768530D01*
X127459221Y-81767710D01*
X127459271Y-81767616D01*
X127459275Y-81767611D01*
X127512080Y-81640128D01*
X127539000Y-81504793D01*
X127539000Y-81366807D01*
X127539000Y-81366804D01*
X127512081Y-81231477D01*
X127512080Y-81231476D01*
X127512080Y-81231472D01*
X127500834Y-81204322D01*
X127459278Y-81103995D01*
X127459271Y-81103982D01*
X127382614Y-80989258D01*
X127382611Y-80989254D01*
X127285045Y-80891688D01*
X127285041Y-80891685D01*
X127170317Y-80815028D01*
X127170304Y-80815021D01*
X127042832Y-80762221D01*
X127042822Y-80762218D01*
X126907495Y-80735300D01*
X126907493Y-80735300D01*
X126769507Y-80735300D01*
X126769505Y-80735300D01*
X126634177Y-80762218D01*
X126634167Y-80762221D01*
X126506695Y-80815021D01*
X126506682Y-80815028D01*
X126391958Y-80891685D01*
X126391954Y-80891688D01*
X126294388Y-80989254D01*
X126294385Y-80989258D01*
X126217728Y-81103982D01*
X126217721Y-81103995D01*
X126164921Y-81231467D01*
X126164918Y-81231477D01*
X126138000Y-81366804D01*
X126138000Y-81366807D01*
X126138000Y-81504793D01*
X126138000Y-81504795D01*
X126137999Y-81504795D01*
X120045500Y-81504795D01*
X120045500Y-65389627D01*
X130094400Y-65389627D01*
X130094400Y-65389634D01*
X130094400Y-65389635D01*
X130094400Y-66145370D01*
X130094401Y-66145376D01*
X130100808Y-66204983D01*
X130151102Y-66339828D01*
X130151106Y-66339835D01*
X130237352Y-66455044D01*
X130237355Y-66455047D01*
X130352564Y-66541293D01*
X130352571Y-66541297D01*
X130397518Y-66558061D01*
X130487417Y-66591591D01*
X130533758Y-66596573D01*
X130598306Y-66623310D01*
X130638154Y-66680703D01*
X130644500Y-66719862D01*
X130644500Y-68600230D01*
X130626253Y-68662369D01*
X130627095Y-68662819D01*
X130624935Y-68666859D01*
X130624815Y-68667269D01*
X130624278Y-68668087D01*
X130624223Y-68668190D01*
X130571421Y-68795667D01*
X130571418Y-68795677D01*
X130544500Y-68931004D01*
X130544500Y-68931007D01*
X130544500Y-69068993D01*
X130544500Y-69068995D01*
X130544499Y-69068995D01*
X130571418Y-69204322D01*
X130571421Y-69204332D01*
X130624221Y-69331804D01*
X130624228Y-69331817D01*
X130700885Y-69446541D01*
X130700888Y-69446545D01*
X130798454Y-69544111D01*
X130798458Y-69544114D01*
X130913182Y-69620771D01*
X130913195Y-69620778D01*
X131040667Y-69673578D01*
X131040672Y-69673580D01*
X131040676Y-69673580D01*
X131040677Y-69673581D01*
X131176004Y-69700500D01*
X131176007Y-69700500D01*
X131313995Y-69700500D01*
X131405041Y-69682389D01*
X131449328Y-69673580D01*
X131576811Y-69620775D01*
X131691542Y-69544114D01*
X131789114Y-69446542D01*
X131865775Y-69331811D01*
X131918580Y-69204328D01*
X131945500Y-69068993D01*
X131945500Y-68931007D01*
X131945500Y-68931004D01*
X131918581Y-68795677D01*
X131918580Y-68795676D01*
X131918580Y-68795672D01*
X131918578Y-68795667D01*
X131865776Y-68668190D01*
X131862905Y-68662819D01*
X131864205Y-68662123D01*
X131845520Y-68602438D01*
X131845500Y-68600230D01*
X131845500Y-66721999D01*
X131865185Y-66654960D01*
X131917989Y-66609205D01*
X131969495Y-66597999D01*
X132146082Y-66597999D01*
X132230127Y-66587907D01*
X132259680Y-66587907D01*
X132343717Y-66598000D01*
X132546082Y-66597999D01*
X132630127Y-66587907D01*
X132659680Y-66587907D01*
X132743717Y-66598000D01*
X132946082Y-66597999D01*
X133030127Y-66587907D01*
X133059680Y-66587907D01*
X133143717Y-66598000D01*
X133346082Y-66597999D01*
X133430127Y-66587907D01*
X133459680Y-66587907D01*
X133543717Y-66598000D01*
X133746082Y-66597999D01*
X133830127Y-66587907D01*
X133859680Y-66587907D01*
X133943717Y-66598000D01*
X134146082Y-66597999D01*
X134230127Y-66587907D01*
X134259680Y-66587907D01*
X134343717Y-66598000D01*
X134546082Y-66597999D01*
X134630127Y-66587907D01*
X134659680Y-66587907D01*
X134743717Y-66598000D01*
X134946082Y-66597999D01*
X135030127Y-66587907D01*
X135059680Y-66587907D01*
X135143717Y-66598000D01*
X135346082Y-66597999D01*
X135430127Y-66587907D01*
X135459680Y-66587907D01*
X135543717Y-66598000D01*
X135746082Y-66597999D01*
X135830127Y-66587907D01*
X135859680Y-66587907D01*
X135943717Y-66598000D01*
X136146082Y-66597999D01*
X136230127Y-66587907D01*
X136259680Y-66587907D01*
X136343717Y-66598000D01*
X136546082Y-66597999D01*
X136630127Y-66587907D01*
X136659680Y-66587907D01*
X136743717Y-66598000D01*
X136946082Y-66597999D01*
X137030127Y-66587907D01*
X137059680Y-66587907D01*
X137143717Y-66598000D01*
X137346082Y-66597999D01*
X137430127Y-66587907D01*
X137459680Y-66587907D01*
X137543717Y-66598000D01*
X137746082Y-66597999D01*
X137830127Y-66587907D01*
X137859680Y-66587907D01*
X137943717Y-66598000D01*
X138146082Y-66597999D01*
X138230127Y-66587907D01*
X138259680Y-66587907D01*
X138343717Y-66598000D01*
X138546082Y-66597999D01*
X138630127Y-66587907D01*
X138659680Y-66587907D01*
X138743717Y-66598000D01*
X138946082Y-66597999D01*
X139030127Y-66587907D01*
X139059680Y-66587907D01*
X139143717Y-66598000D01*
X139346082Y-66597999D01*
X139430127Y-66587907D01*
X139459680Y-66587907D01*
X139543717Y-66598000D01*
X139746082Y-66597999D01*
X139830127Y-66587907D01*
X139859680Y-66587907D01*
X139943717Y-66598000D01*
X140146082Y-66597999D01*
X140230127Y-66587907D01*
X140259680Y-66587907D01*
X140343717Y-66598000D01*
X140546082Y-66597999D01*
X140630127Y-66587907D01*
X140659680Y-66587907D01*
X140743717Y-66598000D01*
X140946082Y-66597999D01*
X141003386Y-66591117D01*
X141031417Y-66590945D01*
X141037413Y-66591589D01*
X141037417Y-66591591D01*
X141097027Y-66598000D01*
X141542772Y-66597999D01*
X141602383Y-66591591D01*
X141737231Y-66541296D01*
X141852446Y-66455046D01*
X141938696Y-66339831D01*
X141988991Y-66204983D01*
X141995400Y-66145373D01*
X141995399Y-65389628D01*
X141995399Y-65389627D01*
X148594400Y-65389627D01*
X148594400Y-65389634D01*
X148594400Y-65389635D01*
X148594400Y-66145370D01*
X148594401Y-66145376D01*
X148600808Y-66204983D01*
X148651102Y-66339828D01*
X148651106Y-66339835D01*
X148737352Y-66455044D01*
X148737355Y-66455047D01*
X148852564Y-66541293D01*
X148852571Y-66541297D01*
X148897518Y-66558061D01*
X148987417Y-66591591D01*
X149047027Y-66598000D01*
X149492772Y-66597999D01*
X149552383Y-66591591D01*
X149552386Y-66591589D01*
X149560096Y-66590761D01*
X149560279Y-66592464D01*
X149588461Y-66590859D01*
X149643757Y-66597499D01*
X149846034Y-66597499D01*
X149928014Y-66587655D01*
X149957581Y-66587655D01*
X150043717Y-66598000D01*
X150246082Y-66597999D01*
X150330127Y-66587907D01*
X150359680Y-66587907D01*
X150443717Y-66598000D01*
X150646082Y-66597999D01*
X150730127Y-66587907D01*
X150759680Y-66587907D01*
X150843717Y-66598000D01*
X151046082Y-66597999D01*
X151130127Y-66587907D01*
X151159680Y-66587907D01*
X151243717Y-66598000D01*
X151446082Y-66597999D01*
X151530127Y-66587907D01*
X151559680Y-66587907D01*
X151643717Y-66598000D01*
X151846082Y-66597999D01*
X151930127Y-66587907D01*
X151959680Y-66587907D01*
X152043717Y-66598000D01*
X152246082Y-66597999D01*
X152330127Y-66587907D01*
X152359680Y-66587907D01*
X152443717Y-66598000D01*
X152646082Y-66597999D01*
X152730127Y-66587907D01*
X152759680Y-66587907D01*
X152843717Y-66598000D01*
X153046082Y-66597999D01*
X153130127Y-66587907D01*
X153159680Y-66587907D01*
X153243717Y-66598000D01*
X153446082Y-66597999D01*
X153530127Y-66587907D01*
X153559680Y-66587907D01*
X153643717Y-66598000D01*
X153846082Y-66597999D01*
X153930127Y-66587907D01*
X153959680Y-66587907D01*
X154043717Y-66598000D01*
X154246082Y-66597999D01*
X154330127Y-66587907D01*
X154359680Y-66587907D01*
X154443717Y-66598000D01*
X154646082Y-66597999D01*
X154730127Y-66587907D01*
X154759680Y-66587907D01*
X154843717Y-66598000D01*
X155046082Y-66597999D01*
X155130127Y-66587907D01*
X155159680Y-66587907D01*
X155243717Y-66598000D01*
X155446082Y-66597999D01*
X155530127Y-66587907D01*
X155559680Y-66587907D01*
X155643717Y-66598000D01*
X155846082Y-66597999D01*
X155930127Y-66587907D01*
X155959680Y-66587907D01*
X156043717Y-66598000D01*
X156246082Y-66597999D01*
X156330127Y-66587907D01*
X156359680Y-66587907D01*
X156443717Y-66598000D01*
X156646082Y-66597999D01*
X156730127Y-66587907D01*
X156759680Y-66587907D01*
X156843717Y-66598000D01*
X157046082Y-66597999D01*
X157130127Y-66587907D01*
X157159680Y-66587907D01*
X157243717Y-66598000D01*
X157446082Y-66597999D01*
X157530127Y-66587907D01*
X157559680Y-66587907D01*
X157643717Y-66598000D01*
X157846082Y-66597999D01*
X157930127Y-66587907D01*
X157959680Y-66587907D01*
X158043717Y-66598000D01*
X158246082Y-66597999D01*
X158330127Y-66587907D01*
X158359680Y-66587907D01*
X158443717Y-66598000D01*
X158646082Y-66597999D01*
X158730127Y-66587907D01*
X158759680Y-66587907D01*
X158843717Y-66598000D01*
X159046082Y-66597999D01*
X159130127Y-66587907D01*
X159159680Y-66587907D01*
X159243717Y-66598000D01*
X159446082Y-66597999D01*
X159530127Y-66587907D01*
X159559680Y-66587907D01*
X159643717Y-66598000D01*
X159846082Y-66597999D01*
X159930127Y-66587907D01*
X159959680Y-66587907D01*
X160043717Y-66598000D01*
X160246082Y-66597999D01*
X160330127Y-66587907D01*
X160359680Y-66587907D01*
X160443717Y-66598000D01*
X160646082Y-66597999D01*
X160730127Y-66587907D01*
X160759680Y-66587907D01*
X160843717Y-66598000D01*
X161046082Y-66597999D01*
X161130127Y-66587907D01*
X161159680Y-66587907D01*
X161243717Y-66598000D01*
X161446082Y-66597999D01*
X161530127Y-66587907D01*
X161559680Y-66587907D01*
X161643717Y-66598000D01*
X161846082Y-66597999D01*
X161930127Y-66587907D01*
X161959680Y-66587907D01*
X162043717Y-66598000D01*
X162246082Y-66597999D01*
X162330127Y-66587907D01*
X162359680Y-66587907D01*
X162443717Y-66598000D01*
X162646082Y-66597999D01*
X162730127Y-66587907D01*
X162759680Y-66587907D01*
X162843717Y-66598000D01*
X163046082Y-66597999D01*
X163130127Y-66587907D01*
X163159680Y-66587907D01*
X163243717Y-66598000D01*
X163446082Y-66597999D01*
X163530127Y-66587907D01*
X163559680Y-66587907D01*
X163643717Y-66598000D01*
X163846082Y-66597999D01*
X163930127Y-66587907D01*
X163959680Y-66587907D01*
X164043717Y-66598000D01*
X164246082Y-66597999D01*
X164330127Y-66587907D01*
X164359680Y-66587907D01*
X164443717Y-66598000D01*
X164646082Y-66597999D01*
X164730127Y-66587907D01*
X164759680Y-66587907D01*
X164843717Y-66598000D01*
X165046082Y-66597999D01*
X165130127Y-66587907D01*
X165159680Y-66587907D01*
X165243717Y-66598000D01*
X165446082Y-66597999D01*
X165503386Y-66591117D01*
X165531417Y-66590945D01*
X165537413Y-66591589D01*
X165537417Y-66591591D01*
X165597027Y-66598000D01*
X166042772Y-66597999D01*
X166102383Y-66591591D01*
X166237231Y-66541296D01*
X166352446Y-66455046D01*
X166438696Y-66339831D01*
X166488991Y-66204983D01*
X166495400Y-66145373D01*
X166495399Y-65389628D01*
X166488991Y-65330017D01*
X166438696Y-65195169D01*
X166438695Y-65195168D01*
X166438693Y-65195164D01*
X166352447Y-65079955D01*
X166352444Y-65079952D01*
X166237235Y-64993706D01*
X166237228Y-64993702D01*
X166102386Y-64943410D01*
X166102385Y-64943409D01*
X166102383Y-64943409D01*
X166042773Y-64937000D01*
X166042763Y-64937000D01*
X165597029Y-64937000D01*
X165597023Y-64937001D01*
X165531415Y-64944054D01*
X165503380Y-64943880D01*
X165488069Y-64942041D01*
X165446083Y-64937000D01*
X165446078Y-64937000D01*
X165243723Y-64937000D01*
X165159683Y-64947091D01*
X165130118Y-64947091D01*
X165085657Y-64941752D01*
X165046083Y-64937000D01*
X165046077Y-64937000D01*
X164843723Y-64937000D01*
X164759683Y-64947091D01*
X164730118Y-64947091D01*
X164685657Y-64941752D01*
X164646083Y-64937000D01*
X164646077Y-64937000D01*
X164443723Y-64937000D01*
X164359683Y-64947091D01*
X164330118Y-64947091D01*
X164285657Y-64941752D01*
X164246083Y-64937000D01*
X164246077Y-64937000D01*
X164043723Y-64937000D01*
X163959683Y-64947091D01*
X163930118Y-64947091D01*
X163885657Y-64941752D01*
X163846083Y-64937000D01*
X163846077Y-64937000D01*
X163643723Y-64937000D01*
X163559683Y-64947091D01*
X163530118Y-64947091D01*
X163485657Y-64941752D01*
X163446083Y-64937000D01*
X163446077Y-64937000D01*
X163243723Y-64937000D01*
X163159683Y-64947091D01*
X163130118Y-64947091D01*
X163085657Y-64941752D01*
X163046083Y-64937000D01*
X163046077Y-64937000D01*
X162843723Y-64937000D01*
X162759683Y-64947091D01*
X162730118Y-64947091D01*
X162685657Y-64941752D01*
X162646083Y-64937000D01*
X162646077Y-64937000D01*
X162443723Y-64937000D01*
X162359683Y-64947091D01*
X162330118Y-64947091D01*
X162285657Y-64941752D01*
X162246083Y-64937000D01*
X162246077Y-64937000D01*
X162043723Y-64937000D01*
X161959683Y-64947091D01*
X161930118Y-64947091D01*
X161885657Y-64941752D01*
X161846083Y-64937000D01*
X161846077Y-64937000D01*
X161643723Y-64937000D01*
X161559683Y-64947091D01*
X161530118Y-64947091D01*
X161485657Y-64941752D01*
X161446083Y-64937000D01*
X161446077Y-64937000D01*
X161243723Y-64937000D01*
X161159683Y-64947091D01*
X161130118Y-64947091D01*
X161085657Y-64941752D01*
X161046083Y-64937000D01*
X161046077Y-64937000D01*
X160843723Y-64937000D01*
X160759683Y-64947091D01*
X160730118Y-64947091D01*
X160685657Y-64941752D01*
X160646083Y-64937000D01*
X160646077Y-64937000D01*
X160443723Y-64937000D01*
X160359683Y-64947091D01*
X160330118Y-64947091D01*
X160285657Y-64941752D01*
X160246083Y-64937000D01*
X160246077Y-64937000D01*
X160043723Y-64937000D01*
X159959683Y-64947091D01*
X159930118Y-64947091D01*
X159885657Y-64941752D01*
X159846083Y-64937000D01*
X159846077Y-64937000D01*
X159643723Y-64937000D01*
X159559683Y-64947091D01*
X159530118Y-64947091D01*
X159485657Y-64941752D01*
X159446083Y-64937000D01*
X159446077Y-64937000D01*
X159243723Y-64937000D01*
X159159683Y-64947091D01*
X159130118Y-64947091D01*
X159085657Y-64941752D01*
X159046083Y-64937000D01*
X159046077Y-64937000D01*
X158843723Y-64937000D01*
X158759683Y-64947091D01*
X158730118Y-64947091D01*
X158685657Y-64941752D01*
X158646083Y-64937000D01*
X158646077Y-64937000D01*
X158443723Y-64937000D01*
X158359683Y-64947091D01*
X158330118Y-64947091D01*
X158285657Y-64941752D01*
X158246083Y-64937000D01*
X158246077Y-64937000D01*
X158043723Y-64937000D01*
X157959683Y-64947091D01*
X157930118Y-64947091D01*
X157885657Y-64941752D01*
X157846083Y-64937000D01*
X157846077Y-64937000D01*
X157643723Y-64937000D01*
X157559683Y-64947091D01*
X157530118Y-64947091D01*
X157485657Y-64941752D01*
X157446083Y-64937000D01*
X157446077Y-64937000D01*
X157243723Y-64937000D01*
X157159683Y-64947091D01*
X157130118Y-64947091D01*
X157085657Y-64941752D01*
X157046083Y-64937000D01*
X157046077Y-64937000D01*
X156843723Y-64937000D01*
X156759683Y-64947091D01*
X156730118Y-64947091D01*
X156685657Y-64941752D01*
X156646083Y-64937000D01*
X156646077Y-64937000D01*
X156443723Y-64937000D01*
X156359683Y-64947091D01*
X156330118Y-64947091D01*
X156285657Y-64941752D01*
X156246083Y-64937000D01*
X156246077Y-64937000D01*
X156043723Y-64937000D01*
X155959683Y-64947091D01*
X155930118Y-64947091D01*
X155885657Y-64941752D01*
X155846083Y-64937000D01*
X155846077Y-64937000D01*
X155643723Y-64937000D01*
X155559683Y-64947091D01*
X155530118Y-64947091D01*
X155485657Y-64941752D01*
X155446083Y-64937000D01*
X155446077Y-64937000D01*
X155243723Y-64937000D01*
X155159683Y-64947091D01*
X155130118Y-64947091D01*
X155085657Y-64941752D01*
X155046083Y-64937000D01*
X155046077Y-64937000D01*
X154843723Y-64937000D01*
X154759683Y-64947091D01*
X154730118Y-64947091D01*
X154685657Y-64941752D01*
X154646083Y-64937000D01*
X154646077Y-64937000D01*
X154443723Y-64937000D01*
X154359683Y-64947091D01*
X154330118Y-64947091D01*
X154285657Y-64941752D01*
X154246083Y-64937000D01*
X154246077Y-64937000D01*
X154043723Y-64937000D01*
X153959683Y-64947091D01*
X153930118Y-64947091D01*
X153885657Y-64941752D01*
X153846083Y-64937000D01*
X153846077Y-64937000D01*
X153643723Y-64937000D01*
X153559683Y-64947091D01*
X153530118Y-64947091D01*
X153485657Y-64941752D01*
X153446083Y-64937000D01*
X153446077Y-64937000D01*
X153243723Y-64937000D01*
X153159683Y-64947091D01*
X153130118Y-64947091D01*
X153085657Y-64941752D01*
X153046083Y-64937000D01*
X153046077Y-64937000D01*
X152843723Y-64937000D01*
X152759683Y-64947091D01*
X152730118Y-64947091D01*
X152685657Y-64941752D01*
X152646083Y-64937000D01*
X152646077Y-64937000D01*
X152443723Y-64937000D01*
X152359683Y-64947091D01*
X152330118Y-64947091D01*
X152285657Y-64941752D01*
X152246083Y-64937000D01*
X152246077Y-64937000D01*
X152043723Y-64937000D01*
X151959683Y-64947091D01*
X151930118Y-64947091D01*
X151885657Y-64941752D01*
X151846083Y-64937000D01*
X151846077Y-64937000D01*
X151643723Y-64937000D01*
X151559683Y-64947091D01*
X151530118Y-64947091D01*
X151485657Y-64941752D01*
X151446083Y-64937000D01*
X151446077Y-64937000D01*
X151243723Y-64937000D01*
X151159683Y-64947091D01*
X151130118Y-64947091D01*
X151085657Y-64941752D01*
X151046083Y-64937000D01*
X151046077Y-64937000D01*
X150843723Y-64937000D01*
X150759683Y-64947091D01*
X150730118Y-64947091D01*
X150685657Y-64941752D01*
X150646083Y-64937000D01*
X150646077Y-64937000D01*
X150443723Y-64937000D01*
X150359683Y-64947091D01*
X150330118Y-64947091D01*
X150285657Y-64941752D01*
X150246083Y-64937000D01*
X150246077Y-64937000D01*
X150043724Y-64937000D01*
X149983449Y-64944238D01*
X149957582Y-64947344D01*
X149928016Y-64947344D01*
X149846036Y-64937500D01*
X149643761Y-64937500D01*
X149588452Y-64944141D01*
X149560275Y-64942557D01*
X149560095Y-64944238D01*
X149492782Y-64937001D01*
X149492773Y-64937000D01*
X149492763Y-64937000D01*
X149047029Y-64937000D01*
X149047023Y-64937001D01*
X148987416Y-64943408D01*
X148852571Y-64993702D01*
X148852564Y-64993706D01*
X148737355Y-65079952D01*
X148737352Y-65079955D01*
X148651106Y-65195164D01*
X148651102Y-65195171D01*
X148600810Y-65330013D01*
X148600809Y-65330017D01*
X148594400Y-65389627D01*
X141995399Y-65389627D01*
X141988991Y-65330017D01*
X141938696Y-65195169D01*
X141938695Y-65195168D01*
X141938693Y-65195164D01*
X141852447Y-65079955D01*
X141852444Y-65079952D01*
X141737235Y-64993706D01*
X141737228Y-64993702D01*
X141602386Y-64943410D01*
X141602385Y-64943409D01*
X141602383Y-64943409D01*
X141542773Y-64937000D01*
X141542763Y-64937000D01*
X141097029Y-64937000D01*
X141097023Y-64937001D01*
X141031415Y-64944054D01*
X141003380Y-64943880D01*
X140988069Y-64942041D01*
X140946083Y-64937000D01*
X140946078Y-64937000D01*
X140743723Y-64937000D01*
X140659683Y-64947091D01*
X140630118Y-64947091D01*
X140585657Y-64941752D01*
X140546083Y-64937000D01*
X140546077Y-64937000D01*
X140343723Y-64937000D01*
X140259683Y-64947091D01*
X140230118Y-64947091D01*
X140185657Y-64941752D01*
X140146083Y-64937000D01*
X140146077Y-64937000D01*
X139943723Y-64937000D01*
X139859683Y-64947091D01*
X139830118Y-64947091D01*
X139785657Y-64941752D01*
X139746083Y-64937000D01*
X139746077Y-64937000D01*
X139543723Y-64937000D01*
X139459683Y-64947091D01*
X139430118Y-64947091D01*
X139385657Y-64941752D01*
X139346083Y-64937000D01*
X139346077Y-64937000D01*
X139143723Y-64937000D01*
X139059683Y-64947091D01*
X139030118Y-64947091D01*
X138985657Y-64941752D01*
X138946083Y-64937000D01*
X138946077Y-64937000D01*
X138743723Y-64937000D01*
X138659683Y-64947091D01*
X138630118Y-64947091D01*
X138585657Y-64941752D01*
X138546083Y-64937000D01*
X138546077Y-64937000D01*
X138343723Y-64937000D01*
X138259683Y-64947091D01*
X138230118Y-64947091D01*
X138185657Y-64941752D01*
X138146083Y-64937000D01*
X138146077Y-64937000D01*
X137943723Y-64937000D01*
X137859683Y-64947091D01*
X137830118Y-64947091D01*
X137785657Y-64941752D01*
X137746083Y-64937000D01*
X137746077Y-64937000D01*
X137543723Y-64937000D01*
X137459683Y-64947091D01*
X137430118Y-64947091D01*
X137385657Y-64941752D01*
X137346083Y-64937000D01*
X137346077Y-64937000D01*
X137143723Y-64937000D01*
X137059683Y-64947091D01*
X137030118Y-64947091D01*
X136985657Y-64941752D01*
X136946083Y-64937000D01*
X136946077Y-64937000D01*
X136743723Y-64937000D01*
X136659683Y-64947091D01*
X136630118Y-64947091D01*
X136585657Y-64941752D01*
X136546083Y-64937000D01*
X136546077Y-64937000D01*
X136343723Y-64937000D01*
X136259683Y-64947091D01*
X136230118Y-64947091D01*
X136185657Y-64941752D01*
X136146083Y-64937000D01*
X136146077Y-64937000D01*
X135943723Y-64937000D01*
X135859683Y-64947091D01*
X135830118Y-64947091D01*
X135785657Y-64941752D01*
X135746083Y-64937000D01*
X135746077Y-64937000D01*
X135543723Y-64937000D01*
X135459683Y-64947091D01*
X135430118Y-64947091D01*
X135385657Y-64941752D01*
X135346083Y-64937000D01*
X135346077Y-64937000D01*
X135143723Y-64937000D01*
X135059683Y-64947091D01*
X135030118Y-64947091D01*
X134985657Y-64941752D01*
X134946083Y-64937000D01*
X134946077Y-64937000D01*
X134743723Y-64937000D01*
X134659683Y-64947091D01*
X134630118Y-64947091D01*
X134585657Y-64941752D01*
X134546083Y-64937000D01*
X134546077Y-64937000D01*
X134343723Y-64937000D01*
X134259683Y-64947091D01*
X134230118Y-64947091D01*
X134185657Y-64941752D01*
X134146083Y-64937000D01*
X134146077Y-64937000D01*
X133943723Y-64937000D01*
X133859683Y-64947091D01*
X133830118Y-64947091D01*
X133785657Y-64941752D01*
X133746083Y-64937000D01*
X133746077Y-64937000D01*
X133543723Y-64937000D01*
X133459683Y-64947091D01*
X133430118Y-64947091D01*
X133385657Y-64941752D01*
X133346083Y-64937000D01*
X133346077Y-64937000D01*
X133143723Y-64937000D01*
X133059683Y-64947091D01*
X133030118Y-64947091D01*
X132985657Y-64941752D01*
X132946083Y-64937000D01*
X132946077Y-64937000D01*
X132743723Y-64937000D01*
X132659683Y-64947091D01*
X132630118Y-64947091D01*
X132585657Y-64941752D01*
X132546083Y-64937000D01*
X132546077Y-64937000D01*
X132343723Y-64937000D01*
X132259683Y-64947091D01*
X132230118Y-64947091D01*
X132185657Y-64941752D01*
X132146083Y-64937000D01*
X132146077Y-64937000D01*
X131943723Y-64937000D01*
X131859683Y-64947091D01*
X131830118Y-64947091D01*
X131785657Y-64941752D01*
X131746083Y-64937000D01*
X131746077Y-64937000D01*
X131543723Y-64937000D01*
X131459683Y-64947091D01*
X131430118Y-64947091D01*
X131385657Y-64941752D01*
X131346083Y-64937000D01*
X131346077Y-64937000D01*
X131143721Y-64937000D01*
X131086420Y-64943880D01*
X131058387Y-64944054D01*
X131031477Y-64941161D01*
X130992773Y-64937000D01*
X130992766Y-64937000D01*
X130547029Y-64937000D01*
X130547023Y-64937001D01*
X130487416Y-64943408D01*
X130352571Y-64993702D01*
X130352564Y-64993706D01*
X130237355Y-65079952D01*
X130237352Y-65079955D01*
X130151106Y-65195164D01*
X130151102Y-65195171D01*
X130100810Y-65330013D01*
X130100809Y-65330017D01*
X130094400Y-65389627D01*
X120045500Y-65389627D01*
X120045500Y-62786038D01*
X120444500Y-62786038D01*
X120444500Y-63037961D01*
X120483910Y-63286785D01*
X120561760Y-63526383D01*
X120614470Y-63629831D01*
X120673175Y-63745046D01*
X120676132Y-63750848D01*
X120824201Y-63954649D01*
X120824205Y-63954654D01*
X121002345Y-64132794D01*
X121002350Y-64132798D01*
X121180117Y-64261952D01*
X121206155Y-64280870D01*
X121349184Y-64353747D01*
X121430616Y-64395239D01*
X121430618Y-64395239D01*
X121430621Y-64395241D01*
X121670215Y-64473090D01*
X121919038Y-64512500D01*
X121919039Y-64512500D01*
X122170961Y-64512500D01*
X122170962Y-64512500D01*
X122419785Y-64473090D01*
X122659379Y-64395241D01*
X122883845Y-64280870D01*
X123087656Y-64132793D01*
X123265793Y-63954656D01*
X123413870Y-63750845D01*
X123528241Y-63526379D01*
X123606090Y-63286785D01*
X123645500Y-63037962D01*
X123645500Y-62786038D01*
X123628646Y-62679627D01*
X130094400Y-62679627D01*
X130094400Y-62679634D01*
X130094400Y-62679635D01*
X130094400Y-63435370D01*
X130094401Y-63435376D01*
X130100808Y-63494983D01*
X130151102Y-63629828D01*
X130151106Y-63629835D01*
X130237352Y-63745044D01*
X130237355Y-63745047D01*
X130352564Y-63831293D01*
X130352571Y-63831297D01*
X130397518Y-63848061D01*
X130487417Y-63881591D01*
X130547027Y-63888000D01*
X130992772Y-63887999D01*
X130992774Y-63887998D01*
X130992787Y-63887998D01*
X131019160Y-63885162D01*
X131052383Y-63881591D01*
X131052385Y-63881589D01*
X131058384Y-63880945D01*
X131086418Y-63881118D01*
X131143717Y-63888000D01*
X131346082Y-63887999D01*
X131430127Y-63877907D01*
X131459680Y-63877907D01*
X131543717Y-63888000D01*
X131746082Y-63887999D01*
X131830127Y-63877907D01*
X131859680Y-63877907D01*
X131943717Y-63888000D01*
X132146082Y-63887999D01*
X132230127Y-63877907D01*
X132259680Y-63877907D01*
X132343717Y-63888000D01*
X132546082Y-63887999D01*
X132630127Y-63877907D01*
X132659680Y-63877907D01*
X132743717Y-63888000D01*
X132946082Y-63887999D01*
X133030127Y-63877907D01*
X133059680Y-63877907D01*
X133143717Y-63888000D01*
X133346082Y-63887999D01*
X133430127Y-63877907D01*
X133459680Y-63877907D01*
X133543717Y-63888000D01*
X133746082Y-63887999D01*
X133830127Y-63877907D01*
X133859680Y-63877907D01*
X133943717Y-63888000D01*
X134146082Y-63887999D01*
X134230127Y-63877907D01*
X134259680Y-63877907D01*
X134343717Y-63888000D01*
X134546082Y-63887999D01*
X134630127Y-63877907D01*
X134659680Y-63877907D01*
X134743717Y-63888000D01*
X134946082Y-63887999D01*
X135030127Y-63877907D01*
X135059680Y-63877907D01*
X135143717Y-63888000D01*
X135346082Y-63887999D01*
X135430127Y-63877907D01*
X135459680Y-63877907D01*
X135543717Y-63888000D01*
X135746082Y-63887999D01*
X135830127Y-63877907D01*
X135859680Y-63877907D01*
X135943717Y-63888000D01*
X136146082Y-63887999D01*
X136230127Y-63877907D01*
X136259680Y-63877907D01*
X136343717Y-63888000D01*
X136546082Y-63887999D01*
X136630127Y-63877907D01*
X136659680Y-63877907D01*
X136743717Y-63888000D01*
X136946082Y-63887999D01*
X137030127Y-63877907D01*
X137059680Y-63877907D01*
X137143717Y-63888000D01*
X137346082Y-63887999D01*
X137430127Y-63877907D01*
X137459680Y-63877907D01*
X137543717Y-63888000D01*
X137746082Y-63887999D01*
X137830127Y-63877907D01*
X137859680Y-63877907D01*
X137943717Y-63888000D01*
X138146082Y-63887999D01*
X138230127Y-63877907D01*
X138259680Y-63877907D01*
X138343717Y-63888000D01*
X138546082Y-63887999D01*
X138630127Y-63877907D01*
X138659680Y-63877907D01*
X138743717Y-63888000D01*
X138946082Y-63887999D01*
X139030127Y-63877907D01*
X139059680Y-63877907D01*
X139143717Y-63888000D01*
X139346082Y-63887999D01*
X139430127Y-63877907D01*
X139459680Y-63877907D01*
X139543717Y-63888000D01*
X139746082Y-63887999D01*
X139830127Y-63877907D01*
X139859680Y-63877907D01*
X139943717Y-63888000D01*
X140146082Y-63887999D01*
X140230127Y-63877907D01*
X140259680Y-63877907D01*
X140343717Y-63888000D01*
X140546082Y-63887999D01*
X140630127Y-63877907D01*
X140659680Y-63877907D01*
X140743717Y-63888000D01*
X140946082Y-63887999D01*
X141003386Y-63881117D01*
X141031417Y-63880945D01*
X141037413Y-63881589D01*
X141037417Y-63881591D01*
X141097027Y-63888000D01*
X141542772Y-63887999D01*
X141602383Y-63881591D01*
X141737231Y-63831296D01*
X141852446Y-63745046D01*
X141938696Y-63629831D01*
X141988991Y-63494983D01*
X141995400Y-63435373D01*
X141995399Y-62679628D01*
X141995399Y-62679627D01*
X148594400Y-62679627D01*
X148594400Y-62679634D01*
X148594400Y-62679635D01*
X148594400Y-63435370D01*
X148594401Y-63435376D01*
X148600808Y-63494983D01*
X148651102Y-63629828D01*
X148651106Y-63629835D01*
X148737352Y-63745044D01*
X148737355Y-63745047D01*
X148852564Y-63831293D01*
X148852571Y-63831297D01*
X148897518Y-63848061D01*
X148987417Y-63881591D01*
X149047027Y-63888000D01*
X149492772Y-63887999D01*
X149492774Y-63887998D01*
X149492787Y-63887998D01*
X149519160Y-63885162D01*
X149552383Y-63881591D01*
X149552385Y-63881589D01*
X149558384Y-63880945D01*
X149586418Y-63881118D01*
X149643717Y-63888000D01*
X149846082Y-63887999D01*
X149930127Y-63877907D01*
X149959680Y-63877907D01*
X150043717Y-63888000D01*
X150246082Y-63887999D01*
X150330127Y-63877907D01*
X150359680Y-63877907D01*
X150443717Y-63888000D01*
X150646082Y-63887999D01*
X150730127Y-63877907D01*
X150759680Y-63877907D01*
X150843717Y-63888000D01*
X151046082Y-63887999D01*
X151130127Y-63877907D01*
X151159680Y-63877907D01*
X151243717Y-63888000D01*
X151446082Y-63887999D01*
X151530127Y-63877907D01*
X151559680Y-63877907D01*
X151643717Y-63888000D01*
X151846082Y-63887999D01*
X151930127Y-63877907D01*
X151959680Y-63877907D01*
X152043717Y-63888000D01*
X152246082Y-63887999D01*
X152330127Y-63877907D01*
X152359680Y-63877907D01*
X152443717Y-63888000D01*
X152646082Y-63887999D01*
X152730127Y-63877907D01*
X152759680Y-63877907D01*
X152843717Y-63888000D01*
X153046082Y-63887999D01*
X153130127Y-63877907D01*
X153159680Y-63877907D01*
X153243717Y-63888000D01*
X153446082Y-63887999D01*
X153530127Y-63877907D01*
X153559680Y-63877907D01*
X153643717Y-63888000D01*
X153846082Y-63887999D01*
X153930127Y-63877907D01*
X153959680Y-63877907D01*
X154043717Y-63888000D01*
X154246082Y-63887999D01*
X154330127Y-63877907D01*
X154359680Y-63877907D01*
X154443717Y-63888000D01*
X154646082Y-63887999D01*
X154730127Y-63877907D01*
X154759680Y-63877907D01*
X154843717Y-63888000D01*
X155046082Y-63887999D01*
X155130127Y-63877907D01*
X155159680Y-63877907D01*
X155243717Y-63888000D01*
X155446082Y-63887999D01*
X155530127Y-63877907D01*
X155559680Y-63877907D01*
X155643717Y-63888000D01*
X155846082Y-63887999D01*
X155930127Y-63877907D01*
X155959680Y-63877907D01*
X156043717Y-63888000D01*
X156246082Y-63887999D01*
X156330127Y-63877907D01*
X156359680Y-63877907D01*
X156443717Y-63888000D01*
X156646082Y-63887999D01*
X156730127Y-63877907D01*
X156759680Y-63877907D01*
X156843717Y-63888000D01*
X157046082Y-63887999D01*
X157130127Y-63877907D01*
X157159680Y-63877907D01*
X157243717Y-63888000D01*
X157446082Y-63887999D01*
X157530127Y-63877907D01*
X157559680Y-63877907D01*
X157643717Y-63888000D01*
X157846082Y-63887999D01*
X157930127Y-63877907D01*
X157959680Y-63877907D01*
X158043717Y-63888000D01*
X158246082Y-63887999D01*
X158330127Y-63877907D01*
X158359680Y-63877907D01*
X158443717Y-63888000D01*
X158646082Y-63887999D01*
X158730127Y-63877907D01*
X158759680Y-63877907D01*
X158843717Y-63888000D01*
X159046082Y-63887999D01*
X159130127Y-63877907D01*
X159159680Y-63877907D01*
X159243717Y-63888000D01*
X159446082Y-63887999D01*
X159530127Y-63877907D01*
X159559680Y-63877907D01*
X159643717Y-63888000D01*
X159846082Y-63887999D01*
X159930127Y-63877907D01*
X159959680Y-63877907D01*
X160043717Y-63888000D01*
X160246082Y-63887999D01*
X160330127Y-63877907D01*
X160359680Y-63877907D01*
X160443717Y-63888000D01*
X160646082Y-63887999D01*
X160730127Y-63877907D01*
X160759680Y-63877907D01*
X160843717Y-63888000D01*
X161046082Y-63887999D01*
X161130127Y-63877907D01*
X161159680Y-63877907D01*
X161243717Y-63888000D01*
X161446082Y-63887999D01*
X161530127Y-63877907D01*
X161559680Y-63877907D01*
X161643717Y-63888000D01*
X161846082Y-63887999D01*
X161930127Y-63877907D01*
X161959680Y-63877907D01*
X162043717Y-63888000D01*
X162246082Y-63887999D01*
X162330127Y-63877907D01*
X162359680Y-63877907D01*
X162443717Y-63888000D01*
X162646082Y-63887999D01*
X162730127Y-63877907D01*
X162759680Y-63877907D01*
X162843717Y-63888000D01*
X163046082Y-63887999D01*
X163130127Y-63877907D01*
X163159680Y-63877907D01*
X163243717Y-63888000D01*
X163446082Y-63887999D01*
X163530127Y-63877907D01*
X163559680Y-63877907D01*
X163643717Y-63888000D01*
X163846082Y-63887999D01*
X163930127Y-63877907D01*
X163959680Y-63877907D01*
X164043717Y-63888000D01*
X164246082Y-63887999D01*
X164330127Y-63877907D01*
X164359680Y-63877907D01*
X164443717Y-63888000D01*
X164646082Y-63887999D01*
X164730127Y-63877907D01*
X164759680Y-63877907D01*
X164843717Y-63888000D01*
X165046082Y-63887999D01*
X165130127Y-63877907D01*
X165159680Y-63877907D01*
X165243717Y-63888000D01*
X165446082Y-63887999D01*
X165503386Y-63881117D01*
X165531417Y-63880945D01*
X165537413Y-63881589D01*
X165537417Y-63881591D01*
X165597027Y-63888000D01*
X166042772Y-63887999D01*
X166102383Y-63881591D01*
X166237231Y-63831296D01*
X166352446Y-63745046D01*
X166438696Y-63629831D01*
X166488991Y-63494983D01*
X166495400Y-63435373D01*
X166495399Y-62786038D01*
X170444500Y-62786038D01*
X170444500Y-63037961D01*
X170483910Y-63286785D01*
X170561760Y-63526383D01*
X170614470Y-63629831D01*
X170673175Y-63745046D01*
X170676132Y-63750848D01*
X170824201Y-63954649D01*
X170824205Y-63954654D01*
X171002345Y-64132794D01*
X171002350Y-64132798D01*
X171180117Y-64261952D01*
X171206155Y-64280870D01*
X171349184Y-64353747D01*
X171430616Y-64395239D01*
X171430618Y-64395239D01*
X171430621Y-64395241D01*
X171670215Y-64473090D01*
X171919038Y-64512500D01*
X171919039Y-64512500D01*
X172170961Y-64512500D01*
X172170962Y-64512500D01*
X172419785Y-64473090D01*
X172659379Y-64395241D01*
X172883845Y-64280870D01*
X173087656Y-64132793D01*
X173265793Y-63954656D01*
X173413870Y-63750845D01*
X173528241Y-63526379D01*
X173606090Y-63286785D01*
X173645500Y-63037962D01*
X173645500Y-62786038D01*
X173606090Y-62537215D01*
X173528241Y-62297621D01*
X173528239Y-62297618D01*
X173528239Y-62297616D01*
X173429401Y-62103637D01*
X173413870Y-62073155D01*
X173394952Y-62047117D01*
X173265798Y-61869350D01*
X173265794Y-61869345D01*
X173087654Y-61691205D01*
X173087649Y-61691201D01*
X172883848Y-61543132D01*
X172883847Y-61543131D01*
X172883845Y-61543130D01*
X172813747Y-61507413D01*
X172659383Y-61428760D01*
X172419785Y-61350910D01*
X172170962Y-61311500D01*
X171919038Y-61311500D01*
X171794626Y-61331205D01*
X171670214Y-61350910D01*
X171430616Y-61428760D01*
X171206151Y-61543132D01*
X171002350Y-61691201D01*
X171002345Y-61691205D01*
X170824205Y-61869345D01*
X170824201Y-61869350D01*
X170676132Y-62073151D01*
X170561760Y-62297616D01*
X170483910Y-62537214D01*
X170444500Y-62786038D01*
X166495399Y-62786038D01*
X166495399Y-62679628D01*
X166488991Y-62620017D01*
X166461775Y-62547048D01*
X166438697Y-62485171D01*
X166438693Y-62485164D01*
X166352447Y-62369955D01*
X166352444Y-62369952D01*
X166237235Y-62283706D01*
X166237228Y-62283702D01*
X166102386Y-62233410D01*
X166102385Y-62233409D01*
X166102383Y-62233409D01*
X166042773Y-62227000D01*
X166042763Y-62227000D01*
X165597029Y-62227000D01*
X165597023Y-62227001D01*
X165531415Y-62234054D01*
X165503380Y-62233880D01*
X165488069Y-62232041D01*
X165446083Y-62227000D01*
X165446078Y-62227000D01*
X165243723Y-62227000D01*
X165159683Y-62237091D01*
X165130118Y-62237091D01*
X165085657Y-62231752D01*
X165046083Y-62227000D01*
X165046077Y-62227000D01*
X164843723Y-62227000D01*
X164759683Y-62237091D01*
X164730118Y-62237091D01*
X164685657Y-62231752D01*
X164646083Y-62227000D01*
X164646077Y-62227000D01*
X164443723Y-62227000D01*
X164359683Y-62237091D01*
X164330118Y-62237091D01*
X164285657Y-62231752D01*
X164246083Y-62227000D01*
X164246077Y-62227000D01*
X164043723Y-62227000D01*
X163959683Y-62237091D01*
X163930118Y-62237091D01*
X163885657Y-62231752D01*
X163846083Y-62227000D01*
X163846077Y-62227000D01*
X163643723Y-62227000D01*
X163559683Y-62237091D01*
X163530118Y-62237091D01*
X163485657Y-62231752D01*
X163446083Y-62227000D01*
X163446077Y-62227000D01*
X163243723Y-62227000D01*
X163159683Y-62237091D01*
X163130118Y-62237091D01*
X163085657Y-62231752D01*
X163046083Y-62227000D01*
X163046077Y-62227000D01*
X162843723Y-62227000D01*
X162759683Y-62237091D01*
X162730118Y-62237091D01*
X162685657Y-62231752D01*
X162646083Y-62227000D01*
X162646077Y-62227000D01*
X162443723Y-62227000D01*
X162359683Y-62237091D01*
X162330118Y-62237091D01*
X162285657Y-62231752D01*
X162246083Y-62227000D01*
X162246077Y-62227000D01*
X162043723Y-62227000D01*
X161959683Y-62237091D01*
X161930118Y-62237091D01*
X161885657Y-62231752D01*
X161846083Y-62227000D01*
X161846077Y-62227000D01*
X161643723Y-62227000D01*
X161559683Y-62237091D01*
X161530118Y-62237091D01*
X161485657Y-62231752D01*
X161446083Y-62227000D01*
X161446077Y-62227000D01*
X161243723Y-62227000D01*
X161159683Y-62237091D01*
X161130118Y-62237091D01*
X161085657Y-62231752D01*
X161046083Y-62227000D01*
X161046077Y-62227000D01*
X160843723Y-62227000D01*
X160759683Y-62237091D01*
X160730118Y-62237091D01*
X160685657Y-62231752D01*
X160646083Y-62227000D01*
X160646077Y-62227000D01*
X160443723Y-62227000D01*
X160359683Y-62237091D01*
X160330118Y-62237091D01*
X160285657Y-62231752D01*
X160246083Y-62227000D01*
X160246077Y-62227000D01*
X160043723Y-62227000D01*
X159959683Y-62237091D01*
X159930118Y-62237091D01*
X159885657Y-62231752D01*
X159846083Y-62227000D01*
X159846077Y-62227000D01*
X159643723Y-62227000D01*
X159559683Y-62237091D01*
X159530118Y-62237091D01*
X159485657Y-62231752D01*
X159446083Y-62227000D01*
X159446077Y-62227000D01*
X159243723Y-62227000D01*
X159159683Y-62237091D01*
X159130118Y-62237091D01*
X159085657Y-62231752D01*
X159046083Y-62227000D01*
X159046077Y-62227000D01*
X158843723Y-62227000D01*
X158759683Y-62237091D01*
X158730118Y-62237091D01*
X158685657Y-62231752D01*
X158646083Y-62227000D01*
X158646077Y-62227000D01*
X158443723Y-62227000D01*
X158359683Y-62237091D01*
X158330118Y-62237091D01*
X158285657Y-62231752D01*
X158246083Y-62227000D01*
X158246077Y-62227000D01*
X158043723Y-62227000D01*
X157959683Y-62237091D01*
X157930118Y-62237091D01*
X157885657Y-62231752D01*
X157846083Y-62227000D01*
X157846077Y-62227000D01*
X157643723Y-62227000D01*
X157559683Y-62237091D01*
X157530118Y-62237091D01*
X157485657Y-62231752D01*
X157446083Y-62227000D01*
X157446077Y-62227000D01*
X157243723Y-62227000D01*
X157159683Y-62237091D01*
X157130118Y-62237091D01*
X157085657Y-62231752D01*
X157046083Y-62227000D01*
X157046077Y-62227000D01*
X156843723Y-62227000D01*
X156759683Y-62237091D01*
X156730118Y-62237091D01*
X156685657Y-62231752D01*
X156646083Y-62227000D01*
X156646077Y-62227000D01*
X156443723Y-62227000D01*
X156359683Y-62237091D01*
X156330118Y-62237091D01*
X156285657Y-62231752D01*
X156246083Y-62227000D01*
X156246077Y-62227000D01*
X156043723Y-62227000D01*
X155959683Y-62237091D01*
X155930118Y-62237091D01*
X155885657Y-62231752D01*
X155846083Y-62227000D01*
X155846077Y-62227000D01*
X155643723Y-62227000D01*
X155559683Y-62237091D01*
X155530118Y-62237091D01*
X155485657Y-62231752D01*
X155446083Y-62227000D01*
X155446077Y-62227000D01*
X155243723Y-62227000D01*
X155159683Y-62237091D01*
X155130118Y-62237091D01*
X155085657Y-62231752D01*
X155046083Y-62227000D01*
X155046077Y-62227000D01*
X154843723Y-62227000D01*
X154759683Y-62237091D01*
X154730118Y-62237091D01*
X154685657Y-62231752D01*
X154646083Y-62227000D01*
X154646077Y-62227000D01*
X154443723Y-62227000D01*
X154359683Y-62237091D01*
X154330118Y-62237091D01*
X154285657Y-62231752D01*
X154246083Y-62227000D01*
X154246077Y-62227000D01*
X154043723Y-62227000D01*
X153959683Y-62237091D01*
X153930118Y-62237091D01*
X153885657Y-62231752D01*
X153846083Y-62227000D01*
X153846077Y-62227000D01*
X153643723Y-62227000D01*
X153559683Y-62237091D01*
X153530118Y-62237091D01*
X153485657Y-62231752D01*
X153446083Y-62227000D01*
X153446077Y-62227000D01*
X153243723Y-62227000D01*
X153159683Y-62237091D01*
X153130118Y-62237091D01*
X153085657Y-62231752D01*
X153046083Y-62227000D01*
X153046077Y-62227000D01*
X152843723Y-62227000D01*
X152759683Y-62237091D01*
X152730118Y-62237091D01*
X152685657Y-62231752D01*
X152646083Y-62227000D01*
X152646077Y-62227000D01*
X152443723Y-62227000D01*
X152359683Y-62237091D01*
X152330118Y-62237091D01*
X152285657Y-62231752D01*
X152246083Y-62227000D01*
X152246077Y-62227000D01*
X152043723Y-62227000D01*
X151959683Y-62237091D01*
X151930118Y-62237091D01*
X151885657Y-62231752D01*
X151846083Y-62227000D01*
X151846077Y-62227000D01*
X151643723Y-62227000D01*
X151559683Y-62237091D01*
X151530118Y-62237091D01*
X151485657Y-62231752D01*
X151446083Y-62227000D01*
X151446077Y-62227000D01*
X151243723Y-62227000D01*
X151159683Y-62237091D01*
X151130118Y-62237091D01*
X151085657Y-62231752D01*
X151046083Y-62227000D01*
X151046077Y-62227000D01*
X150843723Y-62227000D01*
X150759683Y-62237091D01*
X150730118Y-62237091D01*
X150685657Y-62231752D01*
X150646083Y-62227000D01*
X150646077Y-62227000D01*
X150443723Y-62227000D01*
X150359683Y-62237091D01*
X150330118Y-62237091D01*
X150285657Y-62231752D01*
X150246083Y-62227000D01*
X150246077Y-62227000D01*
X150043723Y-62227000D01*
X149959683Y-62237091D01*
X149930118Y-62237091D01*
X149885657Y-62231752D01*
X149846083Y-62227000D01*
X149846077Y-62227000D01*
X149643721Y-62227000D01*
X149586420Y-62233880D01*
X149558387Y-62234054D01*
X149531477Y-62231161D01*
X149492773Y-62227000D01*
X149492766Y-62227000D01*
X149047029Y-62227000D01*
X149047023Y-62227001D01*
X148987416Y-62233408D01*
X148852571Y-62283702D01*
X148852564Y-62283706D01*
X148737355Y-62369952D01*
X148737352Y-62369955D01*
X148651106Y-62485164D01*
X148651102Y-62485171D01*
X148600810Y-62620013D01*
X148600809Y-62620017D01*
X148594400Y-62679627D01*
X141995399Y-62679627D01*
X141988991Y-62620017D01*
X141961775Y-62547048D01*
X141938697Y-62485171D01*
X141938693Y-62485164D01*
X141852447Y-62369955D01*
X141852444Y-62369952D01*
X141737235Y-62283706D01*
X141737228Y-62283702D01*
X141602386Y-62233410D01*
X141602385Y-62233409D01*
X141602383Y-62233409D01*
X141542773Y-62227000D01*
X141542763Y-62227000D01*
X141097029Y-62227000D01*
X141097023Y-62227001D01*
X141031415Y-62234054D01*
X141003380Y-62233880D01*
X140988069Y-62232041D01*
X140946083Y-62227000D01*
X140946078Y-62227000D01*
X140743723Y-62227000D01*
X140659683Y-62237091D01*
X140630118Y-62237091D01*
X140585657Y-62231752D01*
X140546083Y-62227000D01*
X140546077Y-62227000D01*
X140343723Y-62227000D01*
X140259683Y-62237091D01*
X140230118Y-62237091D01*
X140185657Y-62231752D01*
X140146083Y-62227000D01*
X140146077Y-62227000D01*
X139943723Y-62227000D01*
X139859683Y-62237091D01*
X139830118Y-62237091D01*
X139785657Y-62231752D01*
X139746083Y-62227000D01*
X139746077Y-62227000D01*
X139543723Y-62227000D01*
X139459683Y-62237091D01*
X139430118Y-62237091D01*
X139385657Y-62231752D01*
X139346083Y-62227000D01*
X139346077Y-62227000D01*
X139143723Y-62227000D01*
X139059683Y-62237091D01*
X139030118Y-62237091D01*
X138985657Y-62231752D01*
X138946083Y-62227000D01*
X138946077Y-62227000D01*
X138743723Y-62227000D01*
X138659683Y-62237091D01*
X138630118Y-62237091D01*
X138585657Y-62231752D01*
X138546083Y-62227000D01*
X138546077Y-62227000D01*
X138343723Y-62227000D01*
X138259683Y-62237091D01*
X138230118Y-62237091D01*
X138185657Y-62231752D01*
X138146083Y-62227000D01*
X138146077Y-62227000D01*
X137943723Y-62227000D01*
X137859683Y-62237091D01*
X137830118Y-62237091D01*
X137785657Y-62231752D01*
X137746083Y-62227000D01*
X137746077Y-62227000D01*
X137543723Y-62227000D01*
X137459683Y-62237091D01*
X137430118Y-62237091D01*
X137385657Y-62231752D01*
X137346083Y-62227000D01*
X137346077Y-62227000D01*
X137143723Y-62227000D01*
X137059683Y-62237091D01*
X137030118Y-62237091D01*
X136985657Y-62231752D01*
X136946083Y-62227000D01*
X136946077Y-62227000D01*
X136743723Y-62227000D01*
X136659683Y-62237091D01*
X136630118Y-62237091D01*
X136585657Y-62231752D01*
X136546083Y-62227000D01*
X136546077Y-62227000D01*
X136343723Y-62227000D01*
X136259683Y-62237091D01*
X136230118Y-62237091D01*
X136185657Y-62231752D01*
X136146083Y-62227000D01*
X136146077Y-62227000D01*
X135943723Y-62227000D01*
X135859683Y-62237091D01*
X135830118Y-62237091D01*
X135785657Y-62231752D01*
X135746083Y-62227000D01*
X135746077Y-62227000D01*
X135543723Y-62227000D01*
X135459683Y-62237091D01*
X135430118Y-62237091D01*
X135385657Y-62231752D01*
X135346083Y-62227000D01*
X135346077Y-62227000D01*
X135143723Y-62227000D01*
X135059683Y-62237091D01*
X135030118Y-62237091D01*
X134985657Y-62231752D01*
X134946083Y-62227000D01*
X134946077Y-62227000D01*
X134743723Y-62227000D01*
X134659683Y-62237091D01*
X134630118Y-62237091D01*
X134585657Y-62231752D01*
X134546083Y-62227000D01*
X134546077Y-62227000D01*
X134343723Y-62227000D01*
X134259683Y-62237091D01*
X134230118Y-62237091D01*
X134185657Y-62231752D01*
X134146083Y-62227000D01*
X134146077Y-62227000D01*
X133943723Y-62227000D01*
X133859683Y-62237091D01*
X133830118Y-62237091D01*
X133785657Y-62231752D01*
X133746083Y-62227000D01*
X133746077Y-62227000D01*
X133543723Y-62227000D01*
X133459683Y-62237091D01*
X133430118Y-62237091D01*
X133385657Y-62231752D01*
X133346083Y-62227000D01*
X133346077Y-62227000D01*
X133143723Y-62227000D01*
X133059683Y-62237091D01*
X133030118Y-62237091D01*
X132985657Y-62231752D01*
X132946083Y-62227000D01*
X132946077Y-62227000D01*
X132743723Y-62227000D01*
X132659683Y-62237091D01*
X132630118Y-62237091D01*
X132585657Y-62231752D01*
X132546083Y-62227000D01*
X132546077Y-62227000D01*
X132343723Y-62227000D01*
X132259683Y-62237091D01*
X132230118Y-62237091D01*
X132185657Y-62231752D01*
X132146083Y-62227000D01*
X132146077Y-62227000D01*
X131943723Y-62227000D01*
X131859683Y-62237091D01*
X131830118Y-62237091D01*
X131785657Y-62231752D01*
X131746083Y-62227000D01*
X131746077Y-62227000D01*
X131543723Y-62227000D01*
X131459683Y-62237091D01*
X131430118Y-62237091D01*
X131385657Y-62231752D01*
X131346083Y-62227000D01*
X131346077Y-62227000D01*
X131143721Y-62227000D01*
X131086420Y-62233880D01*
X131058387Y-62234054D01*
X131031477Y-62231161D01*
X130992773Y-62227000D01*
X130992766Y-62227000D01*
X130547029Y-62227000D01*
X130547023Y-62227001D01*
X130487416Y-62233408D01*
X130352571Y-62283702D01*
X130352564Y-62283706D01*
X130237355Y-62369952D01*
X130237352Y-62369955D01*
X130151106Y-62485164D01*
X130151102Y-62485171D01*
X130100810Y-62620013D01*
X130100809Y-62620017D01*
X130094400Y-62679627D01*
X123628646Y-62679627D01*
X123606090Y-62537215D01*
X123528241Y-62297621D01*
X123528239Y-62297618D01*
X123528239Y-62297616D01*
X123429401Y-62103637D01*
X123413870Y-62073155D01*
X123394952Y-62047117D01*
X123265798Y-61869350D01*
X123265794Y-61869345D01*
X123087654Y-61691205D01*
X123087649Y-61691201D01*
X122883848Y-61543132D01*
X122883847Y-61543131D01*
X122883845Y-61543130D01*
X122813747Y-61507413D01*
X122659383Y-61428760D01*
X122419785Y-61350910D01*
X122170962Y-61311500D01*
X121919038Y-61311500D01*
X121794626Y-61331205D01*
X121670214Y-61350910D01*
X121430616Y-61428760D01*
X121206151Y-61543132D01*
X121002350Y-61691201D01*
X121002345Y-61691205D01*
X120824205Y-61869345D01*
X120824201Y-61869350D01*
X120676132Y-62073151D01*
X120561760Y-62297616D01*
X120483910Y-62537214D01*
X120444500Y-62786038D01*
X120045500Y-62786038D01*
X120045500Y-62170676D01*
X120065185Y-62103637D01*
X120081819Y-62082995D01*
X121215995Y-60948819D01*
X121277318Y-60915334D01*
X121303676Y-60912500D01*
X172786324Y-60912500D01*
X172853363Y-60932185D01*
G37*
%TD.AperFunction*%
%TA.AperFunction,Conductor*%
G36*
X156905362Y-104377861D02*
G01*
X156925602Y-104401220D01*
X156955882Y-104446537D01*
X156955888Y-104446545D01*
X157053454Y-104544111D01*
X157053458Y-104544114D01*
X157168182Y-104620771D01*
X157168195Y-104620778D01*
X157294124Y-104672939D01*
X157348528Y-104716780D01*
X157370593Y-104783074D01*
X157353314Y-104850773D01*
X157302177Y-104898384D01*
X157246672Y-104911500D01*
X156398328Y-104911500D01*
X156331289Y-104891815D01*
X156285534Y-104839011D01*
X156275590Y-104769853D01*
X156304615Y-104706297D01*
X156350876Y-104672939D01*
X156476804Y-104620778D01*
X156476804Y-104620777D01*
X156476811Y-104620775D01*
X156591542Y-104544114D01*
X156689114Y-104446542D01*
X156698755Y-104432112D01*
X156719398Y-104401220D01*
X156773010Y-104356414D01*
X156842335Y-104347707D01*
X156905362Y-104377861D01*
G37*
%TD.AperFunction*%
%TA.AperFunction,Conductor*%
G36*
X151215380Y-100884597D02*
G01*
X151243708Y-100887999D01*
X151243717Y-100888000D01*
X151247397Y-100888442D01*
X151247250Y-100889662D01*
X151308155Y-100911578D01*
X151350672Y-100967023D01*
X151356464Y-101036652D01*
X151323691Y-101098359D01*
X151262760Y-101132553D01*
X151235000Y-101135700D01*
X150654781Y-101135700D01*
X150587742Y-101116015D01*
X150541987Y-101063211D01*
X150532043Y-100994053D01*
X150561068Y-100930497D01*
X150619846Y-100892723D01*
X150642442Y-100888781D01*
X150642402Y-100888440D01*
X150646074Y-100887999D01*
X150646082Y-100887999D01*
X150732225Y-100877655D01*
X150761784Y-100877656D01*
X150843756Y-100887499D01*
X151046034Y-100887499D01*
X151128014Y-100877655D01*
X151157581Y-100877655D01*
X151215380Y-100884597D01*
G37*
%TD.AperFunction*%
%TA.AperFunction,Conductor*%
G36*
X152415380Y-100884597D02*
G01*
X152443708Y-100887999D01*
X152443717Y-100888000D01*
X152447397Y-100888442D01*
X152447250Y-100889662D01*
X152508155Y-100911578D01*
X152550672Y-100967023D01*
X152556464Y-101036652D01*
X152523691Y-101098359D01*
X152462760Y-101132553D01*
X152435000Y-101135700D01*
X151854781Y-101135700D01*
X151787742Y-101116015D01*
X151741987Y-101063211D01*
X151732043Y-100994053D01*
X151761068Y-100930497D01*
X151819846Y-100892723D01*
X151842442Y-100888781D01*
X151842402Y-100888440D01*
X151846074Y-100887999D01*
X151846082Y-100887999D01*
X151932225Y-100877655D01*
X151961784Y-100877656D01*
X152043756Y-100887499D01*
X152246034Y-100887499D01*
X152328014Y-100877655D01*
X152357581Y-100877655D01*
X152415380Y-100884597D01*
G37*
%TD.AperFunction*%
%TA.AperFunction,Conductor*%
G36*
X153615380Y-100884597D02*
G01*
X153643708Y-100887999D01*
X153643717Y-100888000D01*
X153647397Y-100888442D01*
X153647250Y-100889662D01*
X153708155Y-100911578D01*
X153750672Y-100967023D01*
X153756464Y-101036652D01*
X153723691Y-101098359D01*
X153662760Y-101132553D01*
X153635000Y-101135700D01*
X153054781Y-101135700D01*
X152987742Y-101116015D01*
X152941987Y-101063211D01*
X152932043Y-100994053D01*
X152961068Y-100930497D01*
X153019846Y-100892723D01*
X153042442Y-100888781D01*
X153042402Y-100888440D01*
X153046074Y-100887999D01*
X153046082Y-100887999D01*
X153132225Y-100877655D01*
X153161784Y-100877656D01*
X153243756Y-100887499D01*
X153446034Y-100887499D01*
X153528014Y-100877655D01*
X153557581Y-100877655D01*
X153615380Y-100884597D01*
G37*
%TD.AperFunction*%
%TA.AperFunction,Conductor*%
G36*
X154815380Y-100884597D02*
G01*
X154843708Y-100887999D01*
X154843717Y-100888000D01*
X154847397Y-100888442D01*
X154847250Y-100889662D01*
X154908155Y-100911578D01*
X154950672Y-100967023D01*
X154956464Y-101036652D01*
X154923691Y-101098359D01*
X154862760Y-101132553D01*
X154835000Y-101135700D01*
X154254781Y-101135700D01*
X154187742Y-101116015D01*
X154141987Y-101063211D01*
X154132043Y-100994053D01*
X154161068Y-100930497D01*
X154219846Y-100892723D01*
X154242442Y-100888781D01*
X154242402Y-100888440D01*
X154246074Y-100887999D01*
X154246082Y-100887999D01*
X154332225Y-100877655D01*
X154361784Y-100877656D01*
X154443756Y-100887499D01*
X154646034Y-100887499D01*
X154728014Y-100877655D01*
X154757581Y-100877655D01*
X154815380Y-100884597D01*
G37*
%TD.AperFunction*%
%TD*%
M02*
