%TF.GenerationSoftware,KiCad,Pcbnew,10.0.3*%
%TF.CreationDate,2026-06-19T11:21:00-04:00*%
%TF.ProjectId,LauCameraTrigger_Alchitry_Stack,4c617543-616d-4657-9261-547269676765,rev?*%
%TF.SameCoordinates,Original*%
%TF.FileFunction,Paste,Top*%
%TF.FilePolarity,Positive*%
%FSLAX46Y46*%
G04 Gerber Fmt 4.6, Leading zero omitted, Abs format (unit mm)*
G04 Created by KiCad (PCBNEW 10.0.3) date 2026-06-19 11:21:00*
%MOMM*%
%LPD*%
G01*
G04 APERTURE LIST*
G04 Aperture macros list*
%AMRoundRect*
0 Rectangle with rounded corners*
0 $1 Rounding radius*
0 $2 $3 $4 $5 $6 $7 $8 $9 X,Y pos of 4 corners*
0 Add a 4 corners polygon primitive as box body*
4,1,4,$2,$3,$4,$5,$6,$7,$8,$9,$2,$3,0*
0 Add four circle primitives for the rounded corners*
1,1,$1+$1,$2,$3*
1,1,$1+$1,$4,$5*
1,1,$1+$1,$6,$7*
1,1,$1+$1,$8,$9*
0 Add four rect primitives between the rounded corners*
20,1,$1+$1,$2,$3,$4,$5,0*
20,1,$1+$1,$4,$5,$6,$7,0*
20,1,$1+$1,$6,$7,$8,$9,0*
20,1,$1+$1,$8,$9,$2,$3,0*%
G04 Aperture macros list end*
%ADD10RoundRect,0.150000X-0.625000X0.150000X-0.625000X-0.150000X0.625000X-0.150000X0.625000X0.150000X0*%
%ADD11RoundRect,0.250000X-0.650000X0.350000X-0.650000X-0.350000X0.650000X-0.350000X0.650000X0.350000X0*%
%ADD12RoundRect,0.250000X0.312500X0.625000X-0.312500X0.625000X-0.312500X-0.625000X0.312500X-0.625000X0*%
%ADD13RoundRect,0.250000X0.250000X0.475000X-0.250000X0.475000X-0.250000X-0.475000X0.250000X-0.475000X0*%
%ADD14RoundRect,0.250000X-0.970000X-0.310000X0.970000X-0.310000X0.970000X0.310000X-0.970000X0.310000X0*%
G04 APERTURE END LIST*
D10*
%TO.C,SLAVE*%
X125375000Y-91500000D03*
X125375000Y-92500000D03*
X125375000Y-93500000D03*
X125375000Y-94500000D03*
X125375000Y-95500000D03*
X125375000Y-96500000D03*
X125375000Y-97500000D03*
D11*
X121500000Y-90200000D03*
X121500000Y-98800000D03*
%TD*%
D12*
%TO.C,R2*%
X163537500Y-89000000D03*
X166462500Y-89000000D03*
%TD*%
%TO.C,R6*%
X163537500Y-81000000D03*
X166462500Y-81000000D03*
%TD*%
D13*
%TO.C,C1*%
X162950000Y-71500000D03*
X161050000Y-71500000D03*
%TD*%
D12*
%TO.C,R1*%
X160462500Y-89000000D03*
X157537500Y-89000000D03*
%TD*%
%TO.C,R3*%
X160462500Y-85000000D03*
X157537500Y-85000000D03*
%TD*%
%TO.C,R7*%
X160462500Y-77000000D03*
X157537500Y-77000000D03*
%TD*%
D10*
%TO.C,MASTER*%
X125375000Y-79912000D03*
X125375000Y-80912000D03*
X125375000Y-81912000D03*
X125375000Y-82912000D03*
X125375000Y-83912000D03*
X125375000Y-84912000D03*
X125375000Y-85912000D03*
D11*
X121500000Y-78612000D03*
X121500000Y-87212000D03*
%TD*%
D14*
%TO.C,SW1*%
X132195000Y-92190000D03*
X132195000Y-94730000D03*
X132195000Y-97270000D03*
X132195000Y-99810000D03*
X140805000Y-99810000D03*
X140805000Y-97270000D03*
X140805000Y-94730000D03*
X140805000Y-92190000D03*
%TD*%
D12*
%TO.C,R4*%
X163537500Y-85000000D03*
X166462500Y-85000000D03*
%TD*%
D10*
%TO.C,SLAVE*%
X125375000Y-68500000D03*
X125375000Y-69500000D03*
X125375000Y-70500000D03*
X125375000Y-71500000D03*
X125375000Y-72500000D03*
X125375000Y-73500000D03*
X125375000Y-74500000D03*
D11*
X121500000Y-67200000D03*
X121500000Y-75800000D03*
%TD*%
D13*
%TO.C,C2*%
X162950000Y-94500000D03*
X161050000Y-94500000D03*
%TD*%
D12*
%TO.C,R5*%
X160462500Y-81000000D03*
X157537500Y-81000000D03*
%TD*%
%TO.C,R8*%
X163537500Y-77000000D03*
X166462500Y-77000000D03*
%TD*%
M02*
