%TF.GenerationSoftware,KiCad,Pcbnew,10.0.3*%
%TF.CreationDate,2026-06-19T11:21:00-04:00*%
%TF.ProjectId,LauCameraTrigger_Alchitry_Stack,4c617543-616d-4657-9261-547269676765,rev?*%
%TF.SameCoordinates,Original*%
%TF.FileFunction,Legend,Bot*%
%TF.FilePolarity,Positive*%
%FSLAX46Y46*%
G04 Gerber Fmt 4.6, Leading zero omitted, Abs format (unit mm)*
G04 Created by KiCad (PCBNEW 10.0.3) date 2026-06-19 11:21:00*
%MOMM*%
%LPD*%
G01*
G04 APERTURE LIST*
%ADD10C,0.120000*%
G04 APERTURE END LIST*
%TO.C,J2*%
D10*
X148674900Y-63377500D02*
X148674900Y-65447500D01*
X148674900Y-65447500D02*
X148834900Y-65447500D01*
X148834900Y-63377500D02*
X148674900Y-63377500D01*
X149528394Y-66812500D02*
X149744900Y-66437500D01*
X149744900Y-66437500D02*
X149961406Y-66812500D01*
X149961406Y-66812500D02*
X149528394Y-66812500D01*
X166254900Y-65447500D02*
X166414900Y-65447500D01*
X166414900Y-63377500D02*
X166254900Y-63377500D01*
X166414900Y-65447500D02*
X166414900Y-63377500D01*
%TO.C,J3*%
X148674900Y-100377500D02*
X148674900Y-102447500D01*
X148674900Y-102447500D02*
X148834900Y-102447500D01*
X148834900Y-100377500D02*
X148674900Y-100377500D01*
X149528394Y-103812500D02*
X149744900Y-103437500D01*
X149744900Y-103437500D02*
X149961406Y-103812500D01*
X149961406Y-103812500D02*
X149528394Y-103812500D01*
X166254900Y-102447500D02*
X166414900Y-102447500D01*
X166414900Y-100377500D02*
X166254900Y-100377500D01*
X166414900Y-102447500D02*
X166414900Y-100377500D01*
%TO.C,J1*%
X130174900Y-63377500D02*
X130174900Y-65447500D01*
X130174900Y-65447500D02*
X130334900Y-65447500D01*
X130334900Y-63377500D02*
X130174900Y-63377500D01*
X131028394Y-66812500D02*
X131244900Y-66437500D01*
X131244900Y-66437500D02*
X131461406Y-66812500D01*
X131461406Y-66812500D02*
X131028394Y-66812500D01*
X141754900Y-65447500D02*
X141914900Y-65447500D01*
X141914900Y-63377500D02*
X141754900Y-63377500D01*
X141914900Y-65447500D02*
X141914900Y-63377500D01*
%TD*%
M02*
