%TF.GenerationSoftware,KiCad,Pcbnew,10.0.3*%
%TF.CreationDate,2026-06-29T13:10:06-04:00*%
%TF.ProjectId,LauCameraTrigger_Alchitry_Stack,4c617543-616d-4657-9261-547269676765,rev?*%
%TF.SameCoordinates,Original*%
%TF.FileFunction,Copper,L1,Top*%
%TF.FilePolarity,Positive*%
%FSLAX46Y46*%
G04 Gerber Fmt 4.6, Leading zero omitted, Abs format (unit mm)*
G04 Created by KiCad (PCBNEW 10.0.3) date 2026-06-29 13:10:06*
%MOMM*%
%LPD*%
G01*
G04 APERTURE LIST*
G04 Aperture macros list*
%AMRoundRect*
0 Rectangle with rounded corners*
0 $1 Rounding radius*
0 $2 $3 $4 $5 $6 $7 $8 $9 X,Y pos of 4 corners*
0 Add a 4 corners polygon primitive as box body*
4,1,4,$2,$3,$4,$5,$6,$7,$8,$9,$2,$3,0*
0 Add four circle primitives for the rounded corners*
1,1,$1+$1,$2,$3*
1,1,$1+$1,$4,$5*
1,1,$1+$1,$6,$7*
1,1,$1+$1,$8,$9*
0 Add four rect primitives between the rounded corners*
20,1,$1+$1,$2,$3,$4,$5,0*
20,1,$1+$1,$4,$5,$6,$7,0*
20,1,$1+$1,$6,$7,$8,$9,0*
20,1,$1+$1,$8,$9,$2,$3,0*%
G04 Aperture macros list end*
%TA.AperFunction,SMDPad,CuDef*%
%ADD10RoundRect,0.150000X-0.625000X0.150000X-0.625000X-0.150000X0.625000X-0.150000X0.625000X0.150000X0*%
%TD*%
%TA.AperFunction,SMDPad,CuDef*%
%ADD11RoundRect,0.250000X-0.650000X0.350000X-0.650000X-0.350000X0.650000X-0.350000X0.650000X0.350000X0*%
%TD*%
%TA.AperFunction,SMDPad,CuDef*%
%ADD12RoundRect,0.250000X0.312500X0.625000X-0.312500X0.625000X-0.312500X-0.625000X0.312500X-0.625000X0*%
%TD*%
%TA.AperFunction,SMDPad,CuDef*%
%ADD13RoundRect,0.250000X0.250000X0.475000X-0.250000X0.475000X-0.250000X-0.475000X0.250000X-0.475000X0*%
%TD*%
%TA.AperFunction,SMDPad,CuDef*%
%ADD14RoundRect,0.250000X-0.970000X-0.310000X0.970000X-0.310000X0.970000X0.310000X-0.970000X0.310000X0*%
%TD*%
%TA.AperFunction,ViaPad*%
%ADD15C,0.600000*%
%TD*%
%TA.AperFunction,ViaPad*%
%ADD16C,0.400000*%
%TD*%
%TA.AperFunction,Conductor*%
%ADD17C,0.250000*%
%TD*%
%TA.AperFunction,Conductor*%
%ADD18C,0.200000*%
%TD*%
G04 APERTURE END LIST*
D10*
%TO.P,SLAVE1,1,Pin_1_1*%
%TO.N,GND*%
X125375000Y-91500000D03*
%TO.P,SLAVE1,2,Pin_2_2*%
%TO.N,CAM_TRIG*%
X125375000Y-92500000D03*
%TO.P,SLAVE1,3,Pin_3_3*%
%TO.N,unconnected-(SLAVE1-Pin_3-Pad3)*%
X125375000Y-93500000D03*
%TO.P,SLAVE1,4,Pin_4_4*%
%TO.N,CAM_PATTERN*%
X125375000Y-94500000D03*
%TO.P,SLAVE1,5,Pin_5_5*%
%TO.N,unconnected-(SLAVE1-Pin_5-Pad5)*%
X125375000Y-95500000D03*
%TO.P,SLAVE1,6,Pin_6_6*%
%TO.N,unconnected-(SLAVE1-Pin_6-Pad6)*%
X125375000Y-96500000D03*
%TO.P,SLAVE1,7,Pin_7_7*%
%TO.N,unconnected-(SLAVE1-Pin_7-Pad7)*%
X125375000Y-97500000D03*
D11*
%TO.P,SLAVE1,MP*%
%TO.N,N/C*%
X121500000Y-90200000D03*
X121500000Y-98800000D03*
%TD*%
D12*
%TO.P,R2,1*%
%TO.N,CAM_READY*%
X163537500Y-89000000D03*
%TO.P,R2,2*%
%TO.N,GND*%
X166462500Y-89000000D03*
%TD*%
%TO.P,R6,1*%
%TO.N,CAM_PATTERN*%
X163537500Y-81000000D03*
%TO.P,R6,2*%
%TO.N,GND*%
X166462500Y-81000000D03*
%TD*%
D13*
%TO.P,C1,1*%
%TO.N,+3V3*%
X162950000Y-71500000D03*
%TO.P,C1,2*%
%TO.N,GND*%
X161050000Y-71500000D03*
%TD*%
D12*
%TO.P,R1,1*%
%TO.N,CAM_READY*%
X160462500Y-89000000D03*
%TO.P,R1,2*%
%TO.N,+3V3*%
X157537500Y-89000000D03*
%TD*%
%TO.P,R3,1*%
%TO.N,CAM_TRIG*%
X160462500Y-85000000D03*
%TO.P,R3,2*%
%TO.N,+3V3*%
X157537500Y-85000000D03*
%TD*%
%TO.P,R7,1*%
%TO.N,CAM_MODE*%
X160462500Y-77000000D03*
%TO.P,R7,2*%
%TO.N,+3V3*%
X157537500Y-77000000D03*
%TD*%
D10*
%TO.P,MASTER1,1,Pin_1_1*%
%TO.N,GND*%
X125375000Y-79912000D03*
%TO.P,MASTER1,2,Pin_2_2*%
%TO.N,CAM_TRIG*%
X125375000Y-80912000D03*
%TO.P,MASTER1,3,Pin_3_3*%
%TO.N,CAM_MODE*%
X125375000Y-81912000D03*
%TO.P,MASTER1,4,Pin_4_4*%
%TO.N,CAM_PATTERN*%
X125375000Y-82912000D03*
%TO.P,MASTER1,5,Pin_5_5*%
%TO.N,CAM_READY*%
X125375000Y-83912000D03*
%TO.P,MASTER1,6,Pin_6_6*%
%TO.N,unconnected-(MASTER1-Pin_6-Pad6)*%
X125375000Y-84912000D03*
%TO.P,MASTER1,7,Pin_7_7*%
%TO.N,unconnected-(MASTER1-Pin_7-Pad7)*%
X125375000Y-85912000D03*
D11*
%TO.P,MASTER1,MP*%
%TO.N,N/C*%
X121500000Y-78612000D03*
X121500000Y-87212000D03*
%TD*%
D14*
%TO.P,SW1,1*%
%TO.N,SW_HVSV*%
X132195000Y-92190000D03*
%TO.P,SW1,2*%
%TO.N,SW_BLUE*%
X132195000Y-94730000D03*
%TO.P,SW1,3*%
%TO.N,SW_GREEN*%
X132195000Y-97270000D03*
%TO.P,SW1,4*%
%TO.N,SW_RED*%
X132195000Y-99810000D03*
%TO.P,SW1,5*%
%TO.N,GND*%
X140805000Y-99810000D03*
%TO.P,SW1,6*%
X140805000Y-97270000D03*
%TO.P,SW1,7*%
X140805000Y-94730000D03*
%TO.P,SW1,8*%
%TO.N,+3V3*%
X140805000Y-92190000D03*
%TD*%
D12*
%TO.P,R4,1*%
%TO.N,CAM_TRIG*%
X163537500Y-85000000D03*
%TO.P,R4,2*%
%TO.N,GND*%
X166462500Y-85000000D03*
%TD*%
D10*
%TO.P,SLAVE2,1,Pin_1_1*%
%TO.N,GND*%
X125375000Y-68500000D03*
%TO.P,SLAVE2,2,Pin_2_2*%
%TO.N,CAM_TRIG*%
X125375000Y-69500000D03*
%TO.P,SLAVE2,3,Pin_3_3*%
%TO.N,unconnected-(SLAVE2-Pin_3-Pad3)*%
X125375000Y-70500000D03*
%TO.P,SLAVE2,4,Pin_4_4*%
%TO.N,CAM_PATTERN*%
X125375000Y-71500000D03*
%TO.P,SLAVE2,5,Pin_5_5*%
%TO.N,unconnected-(SLAVE2-Pin_5-Pad5)*%
X125375000Y-72500000D03*
%TO.P,SLAVE2,6,Pin_6_6*%
%TO.N,unconnected-(SLAVE2-Pin_6-Pad6)*%
X125375000Y-73500000D03*
%TO.P,SLAVE2,7,Pin_7_7*%
%TO.N,unconnected-(SLAVE2-Pin_7-Pad7)*%
X125375000Y-74500000D03*
D11*
%TO.P,SLAVE2,MP*%
%TO.N,N/C*%
X121500000Y-67200000D03*
X121500000Y-75800000D03*
%TD*%
D13*
%TO.P,C2,1*%
%TO.N,+3V3*%
X162950000Y-94500000D03*
%TO.P,C2,2*%
%TO.N,GND*%
X161050000Y-94500000D03*
%TD*%
D12*
%TO.P,R5,1*%
%TO.N,CAM_PATTERN*%
X160462500Y-81000000D03*
%TO.P,R5,2*%
%TO.N,+3V3*%
X157537500Y-81000000D03*
%TD*%
%TO.P,R8,1*%
%TO.N,CAM_MODE*%
X163537500Y-77000000D03*
%TO.P,R8,2*%
%TO.N,GND*%
X166462500Y-77000000D03*
%TD*%
D15*
%TO.N,GND*%
X151000000Y-77000000D03*
X136000000Y-87000000D03*
X162000000Y-97500000D03*
X141000000Y-72000000D03*
X146000000Y-87000000D03*
X126000000Y-102000000D03*
X131000000Y-72000000D03*
X131000000Y-77000000D03*
X131000000Y-87000000D03*
X146000000Y-72000000D03*
X156000000Y-72000000D03*
X125500000Y-77500000D03*
X149000000Y-94500000D03*
X145500000Y-99500000D03*
X136000000Y-77000000D03*
X166000000Y-72000000D03*
X146000000Y-77000000D03*
X141000000Y-87000000D03*
X152500000Y-91000000D03*
X136000000Y-72000000D03*
D16*
%TO.N,CAM_TRIG*%
X126838500Y-91262800D03*
D15*
X157000000Y-96500000D03*
D16*
X154945000Y-98000000D03*
D15*
X162000000Y-85000000D03*
D16*
X126838500Y-81435800D03*
%TO.N,CAM_PATTERN*%
X155345000Y-104600000D03*
%TO.N,CAM_READY*%
X168500000Y-102009200D03*
%TO.N,+3V3*%
X149511900Y-88314700D03*
X154500000Y-81000000D03*
X131245000Y-69000000D03*
%TO.N,CAM_MODE*%
X159369900Y-77505000D03*
%TO.N,SW_HVSV*%
X156145000Y-104000000D03*
%TO.N,SW_BLUE*%
X156145000Y-98000000D03*
%TO.N,SW_GREEN*%
X157500000Y-104000000D03*
%TO.N,SW_RED*%
X148526100Y-103113700D03*
%TD*%
%TO.N,GND*%
D17*
X160550000Y-72000000D02*
X156000000Y-72000000D01*
X145500000Y-99500000D02*
X145000000Y-99500000D01*
X145000000Y-99500000D02*
X144690000Y-99810000D01*
X161050000Y-71500000D02*
X160550000Y-72000000D01*
X144690000Y-99810000D02*
X140805000Y-99810000D01*
%TO.N,CAM_TRIG*%
D18*
X153345200Y-96400200D02*
X154945000Y-96400200D01*
X127500000Y-79127100D02*
X126014900Y-80612200D01*
X130461600Y-96400200D02*
X153345200Y-96400200D01*
X153345200Y-96400200D02*
X156900200Y-96400200D01*
X160462500Y-85000000D02*
X163537500Y-85000000D01*
X125715100Y-80912000D02*
X125375000Y-80912000D01*
X125649400Y-69500000D02*
X127500000Y-71350600D01*
X154945000Y-96400200D02*
X154945000Y-98000000D01*
X126838500Y-91324500D02*
X126838500Y-91262800D01*
X127500000Y-71350600D02*
X127500000Y-79127100D01*
X157000000Y-96500000D02*
X156900200Y-96400200D01*
X125375000Y-92500000D02*
X125646100Y-92500000D01*
X125646100Y-92500000D02*
X125663000Y-92500000D01*
X125646100Y-92500000D02*
X126561400Y-92500000D01*
X126014900Y-80612200D02*
X125715100Y-80912000D01*
X126014900Y-80612200D02*
X126838500Y-81435800D01*
X125375000Y-69500000D02*
X125649400Y-69500000D01*
X126561400Y-92500000D02*
X130461600Y-96400200D01*
X125663000Y-92500000D02*
X126838500Y-91324500D01*
%TO.N,CAM_PATTERN*%
X123500000Y-92982300D02*
X125017700Y-94500000D01*
X125082000Y-82912000D02*
X123500000Y-84494000D01*
X125082000Y-82912000D02*
X125375000Y-82912000D01*
X123500000Y-73100600D02*
X123500000Y-81330000D01*
X125679300Y-94500000D02*
X126457000Y-95277700D01*
X126457000Y-96044300D02*
X135012700Y-104600000D01*
X125375000Y-82912000D02*
X125463000Y-83000000D01*
X123500000Y-81330000D02*
X125082000Y-82912000D01*
X125375000Y-94500000D02*
X125679300Y-94500000D01*
X125375000Y-71500000D02*
X125100600Y-71500000D01*
X126457000Y-95277700D02*
X126457000Y-96044300D01*
X125100600Y-71500000D02*
X123500000Y-73100600D01*
X123500000Y-84494000D02*
X123500000Y-92982300D01*
X163537500Y-81000000D02*
X160462500Y-81000000D01*
X125017700Y-94500000D02*
X125375000Y-94500000D01*
X125463000Y-83000000D02*
X158462500Y-83000000D01*
X135012700Y-104600000D02*
X155345000Y-104600000D01*
X158462500Y-83000000D02*
X160462500Y-81000000D01*
%TO.N,CAM_READY*%
X125787000Y-83500000D02*
X157645400Y-83500000D01*
X168500000Y-102009200D02*
X168500000Y-100773700D01*
X157645400Y-83500000D02*
X159346600Y-85201200D01*
X159346600Y-87884100D02*
X160462500Y-89000000D01*
X163705900Y-95979600D02*
X163705900Y-89168400D01*
X168500000Y-100773700D02*
X163705900Y-95979600D01*
X159346600Y-85201200D02*
X159346600Y-87884100D01*
X160462500Y-89000000D02*
X163537500Y-89000000D01*
X163705900Y-89168400D02*
X163537500Y-89000000D01*
X125375000Y-83912000D02*
X125787000Y-83500000D01*
%TO.N,+3V3*%
D17*
X162950000Y-71587500D02*
X162950000Y-71500000D01*
X157537500Y-77000000D02*
X157537500Y-81000000D01*
X162950000Y-94412500D02*
X157537500Y-89000000D01*
X149511900Y-89000000D02*
X157537500Y-89000000D01*
X157537500Y-77000000D02*
X149537500Y-69000000D01*
X140805000Y-92190000D02*
X143995000Y-89000000D01*
X149537500Y-69000000D02*
X131245000Y-69000000D01*
X157537500Y-85000000D02*
X157537500Y-89000000D01*
X162950000Y-94500000D02*
X162950000Y-94412500D01*
X157537500Y-77000000D02*
X162950000Y-71587500D01*
X157537500Y-81000000D02*
X154500000Y-81000000D01*
X143995000Y-89000000D02*
X149511900Y-89000000D01*
X149511900Y-88314700D02*
X149511900Y-89000000D01*
%TO.N,CAM_MODE*%
D18*
X159874900Y-77000000D02*
X159369900Y-77505000D01*
X159369900Y-80760300D02*
X159369900Y-77505000D01*
X125375000Y-81912000D02*
X125762600Y-81912000D01*
X125762600Y-81912000D02*
X126350600Y-82500000D01*
X160462500Y-77000000D02*
X159874900Y-77000000D01*
X160462500Y-77000000D02*
X163537500Y-77000000D01*
X126350600Y-82500000D02*
X157630200Y-82500000D01*
X157630200Y-82500000D02*
X159369900Y-80760300D01*
%TO.N,SW_HVSV*%
X158670022Y-95122872D02*
X158670022Y-100447478D01*
X133465000Y-93460000D02*
X157007150Y-93460000D01*
X156145000Y-102972500D02*
X158670022Y-100447478D01*
X132195000Y-92190000D02*
X133465000Y-93460000D01*
X156145000Y-102972500D02*
X156145000Y-104000000D01*
X157007150Y-93460000D02*
X158670022Y-95122872D01*
%TO.N,SW_BLUE*%
X158000000Y-97000000D02*
X158000000Y-96000000D01*
X133036600Y-95571600D02*
X132195000Y-94730000D01*
X156145000Y-98000000D02*
X157000000Y-98000000D01*
X158000000Y-96000000D02*
X157571600Y-95571600D01*
X157571600Y-95571600D02*
X133036600Y-95571600D01*
X157000000Y-98000000D02*
X158000000Y-97000000D01*
%TO.N,SW_GREEN*%
X156177000Y-104600000D02*
X154157800Y-102580800D01*
X157500000Y-104000000D02*
X156900000Y-104600000D01*
X137505800Y-102580800D02*
X132195000Y-97270000D01*
X154157800Y-102580800D02*
X137505800Y-102580800D01*
X156900000Y-104600000D02*
X156177000Y-104600000D01*
%TO.N,SW_RED*%
X132195000Y-99810000D02*
X135498700Y-103113700D01*
X135498700Y-103113700D02*
X148526100Y-103113700D01*
%TD*%
%TA.AperFunction,Conductor*%
%TO.N,GND*%
G36*
X120250703Y-91012517D02*
G01*
X120257181Y-91018549D01*
X120257288Y-91018656D01*
X120381344Y-91142712D01*
X120530666Y-91234814D01*
X120697203Y-91289999D01*
X120799991Y-91300500D01*
X122200008Y-91300499D01*
X122302797Y-91289999D01*
X122469334Y-91234814D01*
X122618656Y-91142712D01*
X122687819Y-91073549D01*
X122749142Y-91040064D01*
X122818834Y-91045048D01*
X122874767Y-91086920D01*
X122899184Y-91152384D01*
X122899500Y-91161230D01*
X122899500Y-92895630D01*
X122899499Y-92895648D01*
X122899499Y-93061354D01*
X122899498Y-93061354D01*
X122923385Y-93150500D01*
X122940423Y-93214085D01*
X122962166Y-93251744D01*
X122982416Y-93286818D01*
X123019479Y-93351015D01*
X123138349Y-93469885D01*
X123138355Y-93469890D01*
X124063181Y-94394716D01*
X124096666Y-94456039D01*
X124099500Y-94482397D01*
X124099500Y-94715701D01*
X124102401Y-94752567D01*
X124102402Y-94752573D01*
X124148253Y-94910393D01*
X124163918Y-94936881D01*
X124181098Y-95004606D01*
X124163918Y-95063119D01*
X124148253Y-95089606D01*
X124102402Y-95247426D01*
X124102401Y-95247432D01*
X124099500Y-95284298D01*
X124099500Y-95715701D01*
X124102401Y-95752567D01*
X124102402Y-95752573D01*
X124148253Y-95910393D01*
X124163918Y-95936881D01*
X124181098Y-96004606D01*
X124163918Y-96063119D01*
X124148253Y-96089606D01*
X124102402Y-96247426D01*
X124102401Y-96247432D01*
X124099500Y-96284298D01*
X124099500Y-96715701D01*
X124102401Y-96752567D01*
X124102402Y-96752573D01*
X124148253Y-96910393D01*
X124163918Y-96936881D01*
X124181098Y-97004606D01*
X124163918Y-97063119D01*
X124148253Y-97089606D01*
X124102402Y-97247426D01*
X124102401Y-97247432D01*
X124099500Y-97284298D01*
X124099500Y-97715701D01*
X124102401Y-97752567D01*
X124102402Y-97752573D01*
X124148254Y-97910393D01*
X124148255Y-97910396D01*
X124231917Y-98051862D01*
X124231923Y-98051870D01*
X124348129Y-98168076D01*
X124348133Y-98168079D01*
X124348135Y-98168081D01*
X124489602Y-98251744D01*
X124531224Y-98263836D01*
X124647426Y-98297597D01*
X124647429Y-98297597D01*
X124647431Y-98297598D01*
X124684306Y-98300500D01*
X124684314Y-98300500D01*
X126065686Y-98300500D01*
X126065694Y-98300500D01*
X126102569Y-98297598D01*
X126102571Y-98297597D01*
X126102573Y-98297597D01*
X126144191Y-98285505D01*
X126260398Y-98251744D01*
X126401865Y-98168081D01*
X126518081Y-98051865D01*
X126601744Y-97910398D01*
X126643932Y-97765187D01*
X126647597Y-97752573D01*
X126647598Y-97752567D01*
X126650499Y-97715701D01*
X126650500Y-97715694D01*
X126650500Y-97386397D01*
X126670185Y-97319358D01*
X126722989Y-97273603D01*
X126792147Y-97263659D01*
X126855703Y-97292684D01*
X126862181Y-97298716D01*
X134263284Y-104699819D01*
X134296769Y-104761142D01*
X134291785Y-104830834D01*
X134249913Y-104886767D01*
X134184449Y-104911184D01*
X134175603Y-104911500D01*
X121303676Y-104911500D01*
X121236637Y-104891815D01*
X121215995Y-104875181D01*
X120081819Y-103741005D01*
X120048334Y-103679682D01*
X120045500Y-103653324D01*
X120045500Y-102786038D01*
X120444500Y-102786038D01*
X120444500Y-103037961D01*
X120483910Y-103286785D01*
X120561760Y-103526383D01*
X120628727Y-103657811D01*
X120671116Y-103741005D01*
X120676132Y-103750848D01*
X120824201Y-103954649D01*
X120824205Y-103954654D01*
X121002345Y-104132794D01*
X121002350Y-104132798D01*
X121180117Y-104261952D01*
X121206155Y-104280870D01*
X121349184Y-104353747D01*
X121430616Y-104395239D01*
X121430618Y-104395239D01*
X121430621Y-104395241D01*
X121670215Y-104473090D01*
X121919038Y-104512500D01*
X121919039Y-104512500D01*
X122170961Y-104512500D01*
X122170962Y-104512500D01*
X122419785Y-104473090D01*
X122659379Y-104395241D01*
X122883845Y-104280870D01*
X123087656Y-104132793D01*
X123265793Y-103954656D01*
X123413870Y-103750845D01*
X123528241Y-103526379D01*
X123606090Y-103286785D01*
X123645500Y-103037962D01*
X123645500Y-102786038D01*
X123606090Y-102537215D01*
X123528241Y-102297621D01*
X123528239Y-102297618D01*
X123528239Y-102297616D01*
X123427691Y-102100281D01*
X123413870Y-102073155D01*
X123346407Y-101980300D01*
X123265798Y-101869350D01*
X123265794Y-101869345D01*
X123087654Y-101691205D01*
X123087649Y-101691201D01*
X122883848Y-101543132D01*
X122883847Y-101543131D01*
X122883845Y-101543130D01*
X122813747Y-101507413D01*
X122659383Y-101428760D01*
X122419785Y-101350910D01*
X122170962Y-101311500D01*
X121919038Y-101311500D01*
X121794626Y-101331205D01*
X121670214Y-101350910D01*
X121430616Y-101428760D01*
X121206151Y-101543132D01*
X121002350Y-101691201D01*
X121002345Y-101691205D01*
X120824205Y-101869345D01*
X120824201Y-101869350D01*
X120676132Y-102073151D01*
X120561760Y-102297616D01*
X120483910Y-102537214D01*
X120444500Y-102786038D01*
X120045500Y-102786038D01*
X120045500Y-99706230D01*
X120065185Y-99639191D01*
X120117989Y-99593436D01*
X120187147Y-99583492D01*
X120250703Y-99612517D01*
X120257181Y-99618549D01*
X120257288Y-99618656D01*
X120381344Y-99742712D01*
X120530666Y-99834814D01*
X120697203Y-99889999D01*
X120799991Y-99900500D01*
X122200008Y-99900499D01*
X122302797Y-99889999D01*
X122469334Y-99834814D01*
X122618656Y-99742712D01*
X122742712Y-99618656D01*
X122834814Y-99469334D01*
X122889999Y-99302797D01*
X122900500Y-99200009D01*
X122900499Y-98399992D01*
X122889999Y-98297203D01*
X122834814Y-98130666D01*
X122742712Y-97981344D01*
X122618656Y-97857288D01*
X122469334Y-97765186D01*
X122302797Y-97710001D01*
X122302795Y-97710000D01*
X122200010Y-97699500D01*
X120799998Y-97699500D01*
X120799981Y-97699501D01*
X120697203Y-97710000D01*
X120697200Y-97710001D01*
X120530668Y-97765185D01*
X120530663Y-97765187D01*
X120381342Y-97857289D01*
X120257181Y-97981451D01*
X120195858Y-98014936D01*
X120126166Y-98009952D01*
X120070233Y-97968080D01*
X120045816Y-97902616D01*
X120045500Y-97893770D01*
X120045500Y-91106230D01*
X120065185Y-91039191D01*
X120117989Y-90993436D01*
X120187147Y-90983492D01*
X120250703Y-91012517D01*
G37*
%TD.AperFunction*%
%TA.AperFunction,Conductor*%
G36*
X172853363Y-60932185D02*
G01*
X172874005Y-60948819D01*
X174008181Y-62082995D01*
X174041666Y-62144318D01*
X174044500Y-62170676D01*
X174044500Y-66653324D01*
X174024815Y-66720363D01*
X174008181Y-66741005D01*
X172874005Y-67875181D01*
X172812682Y-67908666D01*
X172786324Y-67911500D01*
X170479107Y-67911500D01*
X170351812Y-67945608D01*
X170237686Y-68011500D01*
X170237683Y-68011502D01*
X168644502Y-69604683D01*
X168644500Y-69604686D01*
X168578608Y-69718812D01*
X168544500Y-69846108D01*
X168544500Y-95977891D01*
X168578608Y-96105187D01*
X168611554Y-96162250D01*
X168644500Y-96219314D01*
X170144500Y-97719314D01*
X170237686Y-97812500D01*
X170315261Y-97857288D01*
X170315262Y-97857289D01*
X170351808Y-97878389D01*
X170351809Y-97878389D01*
X170351814Y-97878392D01*
X170479107Y-97912500D01*
X170479108Y-97912500D01*
X172786324Y-97912500D01*
X172853363Y-97932185D01*
X172874005Y-97948819D01*
X174008181Y-99082995D01*
X174041666Y-99144318D01*
X174044500Y-99170676D01*
X174044500Y-103653324D01*
X174024815Y-103720363D01*
X174008181Y-103741005D01*
X172874005Y-104875181D01*
X172812682Y-104908666D01*
X172786324Y-104911500D01*
X157753329Y-104911500D01*
X157686290Y-104891815D01*
X157640535Y-104839011D01*
X157630591Y-104769853D01*
X157659616Y-104706297D01*
X157705876Y-104672939D01*
X157762826Y-104649349D01*
X157831811Y-104620775D01*
X157946542Y-104544114D01*
X158044114Y-104446542D01*
X158120775Y-104331811D01*
X158173580Y-104204328D01*
X158200500Y-104068993D01*
X158200500Y-103931007D01*
X158200500Y-103931004D01*
X158173581Y-103795677D01*
X158173580Y-103795676D01*
X158173580Y-103795672D01*
X158173578Y-103795667D01*
X158120778Y-103668195D01*
X158120771Y-103668182D01*
X158044114Y-103553458D01*
X158044111Y-103553454D01*
X157946545Y-103455888D01*
X157946541Y-103455885D01*
X157831817Y-103379228D01*
X157831804Y-103379221D01*
X157704332Y-103326421D01*
X157704322Y-103326418D01*
X157568995Y-103299500D01*
X157568993Y-103299500D01*
X157431007Y-103299500D01*
X157431005Y-103299500D01*
X157295677Y-103326418D01*
X157295667Y-103326421D01*
X157168195Y-103379221D01*
X157168182Y-103379228D01*
X157053458Y-103455885D01*
X157053454Y-103455888D01*
X156957181Y-103552162D01*
X156937744Y-103562774D01*
X156921011Y-103577275D01*
X156907679Y-103579191D01*
X156895858Y-103585647D01*
X156873771Y-103584067D01*
X156851853Y-103587219D01*
X156839601Y-103581623D01*
X156826166Y-103580663D01*
X156808439Y-103567392D01*
X156788297Y-103558194D01*
X156781014Y-103546862D01*
X156770233Y-103538791D01*
X156762495Y-103518045D01*
X156750523Y-103499416D01*
X156747371Y-103477497D01*
X156745816Y-103473327D01*
X156745500Y-103464481D01*
X156745500Y-103272596D01*
X156765185Y-103205557D01*
X156781814Y-103184920D01*
X157180696Y-102786038D01*
X170444500Y-102786038D01*
X170444500Y-103037961D01*
X170483910Y-103286785D01*
X170561760Y-103526383D01*
X170628727Y-103657811D01*
X170671116Y-103741005D01*
X170676132Y-103750848D01*
X170824201Y-103954649D01*
X170824205Y-103954654D01*
X171002345Y-104132794D01*
X171002350Y-104132798D01*
X171180117Y-104261952D01*
X171206155Y-104280870D01*
X171349184Y-104353747D01*
X171430616Y-104395239D01*
X171430618Y-104395239D01*
X171430621Y-104395241D01*
X171670215Y-104473090D01*
X171919038Y-104512500D01*
X171919039Y-104512500D01*
X172170961Y-104512500D01*
X172170962Y-104512500D01*
X172419785Y-104473090D01*
X172659379Y-104395241D01*
X172883845Y-104280870D01*
X173087656Y-104132793D01*
X173265793Y-103954656D01*
X173413870Y-103750845D01*
X173528241Y-103526379D01*
X173606090Y-103286785D01*
X173645500Y-103037962D01*
X173645500Y-102786038D01*
X173606090Y-102537215D01*
X173528241Y-102297621D01*
X173528239Y-102297618D01*
X173528239Y-102297616D01*
X173427691Y-102100281D01*
X173413870Y-102073155D01*
X173346407Y-101980300D01*
X173265798Y-101869350D01*
X173265794Y-101869345D01*
X173087654Y-101691205D01*
X173087649Y-101691201D01*
X172883848Y-101543132D01*
X172883847Y-101543131D01*
X172883845Y-101543130D01*
X172813747Y-101507413D01*
X172659383Y-101428760D01*
X172419785Y-101350910D01*
X172170962Y-101311500D01*
X171919038Y-101311500D01*
X171794626Y-101331205D01*
X171670214Y-101350910D01*
X171430616Y-101428760D01*
X171206151Y-101543132D01*
X171002350Y-101691201D01*
X171002345Y-101691205D01*
X170824205Y-101869345D01*
X170824201Y-101869350D01*
X170676132Y-102073151D01*
X170561760Y-102297616D01*
X170483910Y-102537214D01*
X170444500Y-102786038D01*
X157180696Y-102786038D01*
X159028528Y-100938205D01*
X159028533Y-100938202D01*
X159038736Y-100927998D01*
X159038738Y-100927998D01*
X159150542Y-100816194D01*
X159229599Y-100679262D01*
X159270522Y-100526535D01*
X159270522Y-95043815D01*
X159265477Y-95024986D01*
X160050001Y-95024986D01*
X160060494Y-95127697D01*
X160115641Y-95294119D01*
X160115643Y-95294124D01*
X160207684Y-95443345D01*
X160331654Y-95567315D01*
X160480875Y-95659356D01*
X160480880Y-95659358D01*
X160647302Y-95714505D01*
X160647309Y-95714506D01*
X160750019Y-95724999D01*
X160799999Y-95724998D01*
X160800000Y-95724998D01*
X160800000Y-94750000D01*
X160050001Y-94750000D01*
X160050001Y-95024986D01*
X159265477Y-95024986D01*
X159262003Y-95012023D01*
X159229599Y-94891087D01*
X159183495Y-94811233D01*
X159150542Y-94754156D01*
X159038738Y-94642352D01*
X159034407Y-94638021D01*
X159034396Y-94638011D01*
X157494740Y-93098355D01*
X157494738Y-93098352D01*
X157375867Y-92979481D01*
X157375866Y-92979480D01*
X157289054Y-92929360D01*
X157289054Y-92929359D01*
X157289050Y-92929358D01*
X157238935Y-92900423D01*
X157086207Y-92859499D01*
X156928093Y-92859499D01*
X156920497Y-92859499D01*
X156920481Y-92859500D01*
X142618224Y-92859500D01*
X142551185Y-92839815D01*
X142505430Y-92787011D01*
X142495486Y-92717853D01*
X142500516Y-92696501D01*
X142514999Y-92652797D01*
X142525500Y-92550009D01*
X142525499Y-91829992D01*
X142521315Y-91789037D01*
X142514999Y-91727203D01*
X142514998Y-91727200D01*
X142471062Y-91594611D01*
X142459814Y-91560666D01*
X142457537Y-91556974D01*
X142439095Y-91489586D01*
X142460014Y-91422922D01*
X142475388Y-91404200D01*
X144217771Y-89661819D01*
X144279094Y-89628334D01*
X144305452Y-89625500D01*
X149450294Y-89625500D01*
X149573506Y-89625500D01*
X156357465Y-89625500D01*
X156424504Y-89645185D01*
X156470259Y-89697989D01*
X156480823Y-89736898D01*
X156485001Y-89777797D01*
X156485001Y-89777799D01*
X156540115Y-89944119D01*
X156540186Y-89944334D01*
X156632288Y-90093656D01*
X156756344Y-90217712D01*
X156905666Y-90309814D01*
X157072203Y-90364999D01*
X157174991Y-90375500D01*
X157900008Y-90375499D01*
X157957891Y-90369586D01*
X158026583Y-90382356D01*
X158058173Y-90405263D01*
X160726903Y-93073993D01*
X160760388Y-93135316D01*
X160755404Y-93205008D01*
X160713532Y-93260941D01*
X160651826Y-93285032D01*
X160647302Y-93285494D01*
X160480880Y-93340641D01*
X160480875Y-93340643D01*
X160331654Y-93432684D01*
X160207684Y-93556654D01*
X160115643Y-93705875D01*
X160115641Y-93705880D01*
X160060494Y-93872302D01*
X160060493Y-93872309D01*
X160050000Y-93975013D01*
X160050000Y-94250000D01*
X160926000Y-94250000D01*
X160993039Y-94269685D01*
X161038794Y-94322489D01*
X161050000Y-94374000D01*
X161050000Y-94500000D01*
X161176000Y-94500000D01*
X161243039Y-94519685D01*
X161288794Y-94572489D01*
X161300000Y-94624000D01*
X161300000Y-95724999D01*
X161349972Y-95724999D01*
X161349986Y-95724998D01*
X161452697Y-95714505D01*
X161619119Y-95659358D01*
X161619124Y-95659356D01*
X161768345Y-95567315D01*
X161892318Y-95443342D01*
X161894165Y-95440348D01*
X161895969Y-95438724D01*
X161896798Y-95437677D01*
X161896976Y-95437818D01*
X161946110Y-95393621D01*
X162015073Y-95382396D01*
X162079156Y-95410236D01*
X162105243Y-95440341D01*
X162107288Y-95443656D01*
X162231344Y-95567712D01*
X162380666Y-95659814D01*
X162547203Y-95714999D01*
X162649991Y-95725500D01*
X162981400Y-95725499D01*
X162990086Y-95728049D01*
X162999047Y-95726761D01*
X163023083Y-95737738D01*
X163048439Y-95745183D01*
X163054367Y-95752025D01*
X163062603Y-95755786D01*
X163076889Y-95778017D01*
X163094194Y-95797987D01*
X163096481Y-95808502D01*
X163100377Y-95814564D01*
X163105400Y-95849499D01*
X163105400Y-95892930D01*
X163105399Y-95892948D01*
X163105399Y-96058654D01*
X163105398Y-96058654D01*
X163117867Y-96105187D01*
X163146323Y-96211385D01*
X163167135Y-96247432D01*
X163169623Y-96251740D01*
X163169624Y-96251744D01*
X163169625Y-96251744D01*
X163225379Y-96348314D01*
X163225381Y-96348317D01*
X163344249Y-96467185D01*
X163344255Y-96467190D01*
X167863181Y-100986116D01*
X167896666Y-101047439D01*
X167899500Y-101073797D01*
X167899500Y-101609430D01*
X167881253Y-101671569D01*
X167882095Y-101672019D01*
X167879935Y-101676059D01*
X167879815Y-101676469D01*
X167879278Y-101677287D01*
X167879223Y-101677390D01*
X167826421Y-101804867D01*
X167826418Y-101804877D01*
X167799500Y-101940204D01*
X167799500Y-101940207D01*
X167799500Y-102078193D01*
X167799500Y-102078195D01*
X167799499Y-102078195D01*
X167826418Y-102213522D01*
X167826421Y-102213532D01*
X167879221Y-102341004D01*
X167879228Y-102341017D01*
X167955885Y-102455741D01*
X167955888Y-102455745D01*
X168053454Y-102553311D01*
X168053458Y-102553314D01*
X168168182Y-102629971D01*
X168168195Y-102629978D01*
X168295667Y-102682778D01*
X168295672Y-102682780D01*
X168295676Y-102682780D01*
X168295677Y-102682781D01*
X168431004Y-102709700D01*
X168431007Y-102709700D01*
X168568995Y-102709700D01*
X168660041Y-102691589D01*
X168704328Y-102682780D01*
X168726319Y-102673671D01*
X168743379Y-102666605D01*
X168831804Y-102629978D01*
X168831804Y-102629977D01*
X168831811Y-102629975D01*
X168946542Y-102553314D01*
X169044114Y-102455742D01*
X169120775Y-102341011D01*
X169173580Y-102213528D01*
X169182389Y-102169241D01*
X169200500Y-102078195D01*
X169200500Y-101940204D01*
X169173581Y-101804877D01*
X169173580Y-101804876D01*
X169173580Y-101804872D01*
X169126498Y-101691205D01*
X169120776Y-101677390D01*
X169117905Y-101672019D01*
X169119205Y-101671323D01*
X169100520Y-101611638D01*
X169100500Y-101609430D01*
X169100500Y-100694645D01*
X169100500Y-100694643D01*
X169059577Y-100541916D01*
X169059577Y-100541915D01*
X169059577Y-100541914D01*
X169030639Y-100491795D01*
X169030637Y-100491792D01*
X169015107Y-100464892D01*
X168980520Y-100404984D01*
X168868716Y-100293180D01*
X168868715Y-100293179D01*
X168864385Y-100288849D01*
X168864374Y-100288839D01*
X164342719Y-95767184D01*
X164309234Y-95705861D01*
X164306400Y-95679503D01*
X164306400Y-90281330D01*
X164326085Y-90214291D01*
X164342719Y-90193649D01*
X164442712Y-90093656D01*
X164534814Y-89944334D01*
X164589999Y-89777797D01*
X164600500Y-89675009D01*
X164600500Y-89674986D01*
X165400001Y-89674986D01*
X165410494Y-89777697D01*
X165465641Y-89944119D01*
X165465643Y-89944124D01*
X165557684Y-90093345D01*
X165681654Y-90217315D01*
X165830875Y-90309356D01*
X165830880Y-90309358D01*
X165997302Y-90364505D01*
X165997309Y-90364506D01*
X166100019Y-90374999D01*
X166212499Y-90374999D01*
X166712500Y-90374999D01*
X166824972Y-90374999D01*
X166824986Y-90374998D01*
X166927697Y-90364505D01*
X167094119Y-90309358D01*
X167094124Y-90309356D01*
X167243345Y-90217315D01*
X167367315Y-90093345D01*
X167459356Y-89944124D01*
X167459358Y-89944119D01*
X167514505Y-89777697D01*
X167514506Y-89777690D01*
X167524999Y-89674986D01*
X167525000Y-89674973D01*
X167525000Y-89250000D01*
X166712500Y-89250000D01*
X166712500Y-90374999D01*
X166212499Y-90374999D01*
X166212500Y-90374998D01*
X166212500Y-89250000D01*
X165400001Y-89250000D01*
X165400001Y-89674986D01*
X164600500Y-89674986D01*
X164600499Y-88837597D01*
X164600499Y-88325013D01*
X165400000Y-88325013D01*
X165400000Y-88750000D01*
X166212500Y-88750000D01*
X166712500Y-88750000D01*
X167524999Y-88750000D01*
X167524999Y-88325028D01*
X167524998Y-88325013D01*
X167514505Y-88222302D01*
X167459358Y-88055880D01*
X167459356Y-88055875D01*
X167367315Y-87906654D01*
X167243345Y-87782684D01*
X167094124Y-87690643D01*
X167094119Y-87690641D01*
X166927697Y-87635494D01*
X166927690Y-87635493D01*
X166824986Y-87625000D01*
X166712500Y-87625000D01*
X166712500Y-88750000D01*
X166212500Y-88750000D01*
X166212500Y-87625000D01*
X166100027Y-87625000D01*
X166100012Y-87625001D01*
X165997302Y-87635494D01*
X165830880Y-87690641D01*
X165830875Y-87690643D01*
X165681654Y-87782684D01*
X165557684Y-87906654D01*
X165465643Y-88055875D01*
X165465641Y-88055880D01*
X165410494Y-88222302D01*
X165410493Y-88222309D01*
X165400000Y-88325013D01*
X164600499Y-88325013D01*
X164600499Y-88324998D01*
X164600498Y-88324981D01*
X164589999Y-88222203D01*
X164589998Y-88222200D01*
X164534814Y-88055666D01*
X164442712Y-87906344D01*
X164318656Y-87782288D01*
X164175396Y-87693925D01*
X164169336Y-87690187D01*
X164169331Y-87690185D01*
X164151001Y-87684111D01*
X164002797Y-87635001D01*
X164002795Y-87635000D01*
X163900010Y-87624500D01*
X163174998Y-87624500D01*
X163174980Y-87624501D01*
X163072203Y-87635000D01*
X163072200Y-87635001D01*
X162905668Y-87690185D01*
X162905663Y-87690187D01*
X162756342Y-87782289D01*
X162632289Y-87906342D01*
X162540187Y-88055663D01*
X162540185Y-88055668D01*
X162520231Y-88115885D01*
X162485002Y-88222202D01*
X162485001Y-88222204D01*
X162485000Y-88222205D01*
X162478268Y-88288103D01*
X162451871Y-88352795D01*
X162394690Y-88392946D01*
X162354910Y-88399500D01*
X161645089Y-88399500D01*
X161578050Y-88379815D01*
X161532295Y-88327011D01*
X161521731Y-88288102D01*
X161518125Y-88252809D01*
X161514999Y-88222203D01*
X161459814Y-88055666D01*
X161367712Y-87906344D01*
X161243656Y-87782288D01*
X161100396Y-87693925D01*
X161094336Y-87690187D01*
X161094331Y-87690185D01*
X161076001Y-87684111D01*
X160927797Y-87635001D01*
X160927795Y-87635000D01*
X160825010Y-87624500D01*
X160099998Y-87624500D01*
X160099987Y-87624501D01*
X160083696Y-87626165D01*
X160015003Y-87613392D01*
X159964121Y-87565508D01*
X159947100Y-87502806D01*
X159947100Y-86497194D01*
X159966785Y-86430155D01*
X160019589Y-86384400D01*
X160083703Y-86373836D01*
X160099991Y-86375500D01*
X160825008Y-86375499D01*
X160825016Y-86375498D01*
X160825019Y-86375498D01*
X160881302Y-86369748D01*
X160927797Y-86364999D01*
X161094334Y-86309814D01*
X161243656Y-86217712D01*
X161367712Y-86093656D01*
X161459814Y-85944334D01*
X161505753Y-85805697D01*
X161545524Y-85748254D01*
X161610040Y-85721431D01*
X161670910Y-85730142D01*
X161766498Y-85769735D01*
X161766503Y-85769737D01*
X161921153Y-85800499D01*
X161921156Y-85800500D01*
X161921158Y-85800500D01*
X162078844Y-85800500D01*
X162078845Y-85800499D01*
X162233497Y-85769737D01*
X162329089Y-85730141D01*
X162398556Y-85722673D01*
X162461036Y-85753948D01*
X162494246Y-85805698D01*
X162540186Y-85944334D01*
X162632288Y-86093656D01*
X162756344Y-86217712D01*
X162905666Y-86309814D01*
X163072203Y-86364999D01*
X163174991Y-86375500D01*
X163900008Y-86375499D01*
X163900016Y-86375498D01*
X163900019Y-86375498D01*
X163956302Y-86369748D01*
X164002797Y-86364999D01*
X164169334Y-86309814D01*
X164318656Y-86217712D01*
X164442712Y-86093656D01*
X164534814Y-85944334D01*
X164589999Y-85777797D01*
X164600500Y-85675009D01*
X164600500Y-85674986D01*
X165400001Y-85674986D01*
X165410494Y-85777697D01*
X165465641Y-85944119D01*
X165465643Y-85944124D01*
X165557684Y-86093345D01*
X165681654Y-86217315D01*
X165830875Y-86309356D01*
X165830880Y-86309358D01*
X165997302Y-86364505D01*
X165997309Y-86364506D01*
X166100019Y-86374999D01*
X166212499Y-86374999D01*
X166712500Y-86374999D01*
X166824972Y-86374999D01*
X166824986Y-86374998D01*
X166927697Y-86364505D01*
X167094119Y-86309358D01*
X167094124Y-86309356D01*
X167243345Y-86217315D01*
X167367315Y-86093345D01*
X167459356Y-85944124D01*
X167459358Y-85944119D01*
X167514505Y-85777697D01*
X167514506Y-85777690D01*
X167524999Y-85674986D01*
X167525000Y-85674973D01*
X167525000Y-85250000D01*
X166712500Y-85250000D01*
X166712500Y-86374999D01*
X166212499Y-86374999D01*
X166212500Y-86374998D01*
X166212500Y-85250000D01*
X165400001Y-85250000D01*
X165400001Y-85674986D01*
X164600500Y-85674986D01*
X164600499Y-84325013D01*
X165400000Y-84325013D01*
X165400000Y-84750000D01*
X166212500Y-84750000D01*
X166712500Y-84750000D01*
X167524999Y-84750000D01*
X167524999Y-84325028D01*
X167524998Y-84325013D01*
X167514505Y-84222302D01*
X167459358Y-84055880D01*
X167459356Y-84055875D01*
X167367315Y-83906654D01*
X167243345Y-83782684D01*
X167094124Y-83690643D01*
X167094119Y-83690641D01*
X166927697Y-83635494D01*
X166927690Y-83635493D01*
X166824986Y-83625000D01*
X166712500Y-83625000D01*
X166712500Y-84750000D01*
X166212500Y-84750000D01*
X166212500Y-83625000D01*
X166100027Y-83625000D01*
X166100012Y-83625001D01*
X165997302Y-83635494D01*
X165830880Y-83690641D01*
X165830875Y-83690643D01*
X165681654Y-83782684D01*
X165557684Y-83906654D01*
X165465643Y-84055875D01*
X165465641Y-84055880D01*
X165410494Y-84222302D01*
X165410493Y-84222309D01*
X165400000Y-84325013D01*
X164600499Y-84325013D01*
X164600499Y-84324992D01*
X164596986Y-84290606D01*
X164589999Y-84222203D01*
X164589998Y-84222200D01*
X164580753Y-84194300D01*
X164534814Y-84055666D01*
X164442712Y-83906344D01*
X164318656Y-83782288D01*
X164169334Y-83690186D01*
X164002797Y-83635001D01*
X164002795Y-83635000D01*
X163900010Y-83624500D01*
X163174998Y-83624500D01*
X163174980Y-83624501D01*
X163072203Y-83635000D01*
X163072200Y-83635001D01*
X162905668Y-83690185D01*
X162905663Y-83690187D01*
X162756342Y-83782289D01*
X162632289Y-83906342D01*
X162540187Y-84055663D01*
X162540185Y-84055668D01*
X162518806Y-84120185D01*
X162497975Y-84183052D01*
X162494247Y-84194301D01*
X162454474Y-84251746D01*
X162389958Y-84278569D01*
X162329089Y-84269858D01*
X162233501Y-84230264D01*
X162233489Y-84230261D01*
X162078845Y-84199500D01*
X162078842Y-84199500D01*
X161921158Y-84199500D01*
X161921155Y-84199500D01*
X161766510Y-84230261D01*
X161766507Y-84230262D01*
X161766506Y-84230262D01*
X161766503Y-84230263D01*
X161693300Y-84260584D01*
X161670911Y-84269858D01*
X161601441Y-84277326D01*
X161538962Y-84246050D01*
X161505753Y-84194300D01*
X161493573Y-84157545D01*
X161459814Y-84055666D01*
X161367712Y-83906344D01*
X161243656Y-83782288D01*
X161094334Y-83690186D01*
X160927797Y-83635001D01*
X160927795Y-83635000D01*
X160825010Y-83624500D01*
X160099998Y-83624500D01*
X160099980Y-83624501D01*
X159997203Y-83635000D01*
X159997200Y-83635001D01*
X159830668Y-83690185D01*
X159830663Y-83690187D01*
X159681342Y-83782289D01*
X159557289Y-83906342D01*
X159465187Y-84055663D01*
X159465185Y-84055668D01*
X159425159Y-84176460D01*
X159385386Y-84233905D01*
X159320870Y-84260728D01*
X159252095Y-84248413D01*
X159219772Y-84225137D01*
X158719749Y-83725114D01*
X158686264Y-83663791D01*
X158691248Y-83594099D01*
X158733120Y-83538166D01*
X158745425Y-83530049D01*
X158831216Y-83480520D01*
X158943020Y-83368716D01*
X158943020Y-83368714D01*
X158953228Y-83358507D01*
X158953230Y-83358504D01*
X159909749Y-82401984D01*
X159971070Y-82368501D01*
X160010027Y-82366309D01*
X160099991Y-82375500D01*
X160825008Y-82375499D01*
X160825016Y-82375498D01*
X160825019Y-82375498D01*
X160893514Y-82368501D01*
X160927797Y-82364999D01*
X161094334Y-82309814D01*
X161243656Y-82217712D01*
X161367712Y-82093656D01*
X161459814Y-81944334D01*
X161514999Y-81777797D01*
X161519234Y-81736341D01*
X161521732Y-81711897D01*
X161548129Y-81647205D01*
X161605310Y-81607054D01*
X161645090Y-81600500D01*
X162354911Y-81600500D01*
X162421950Y-81620185D01*
X162467705Y-81672989D01*
X162478269Y-81711898D01*
X162485001Y-81777797D01*
X162485001Y-81777799D01*
X162525329Y-81899500D01*
X162540186Y-81944334D01*
X162632288Y-82093656D01*
X162756344Y-82217712D01*
X162905666Y-82309814D01*
X163072203Y-82364999D01*
X163174991Y-82375500D01*
X163900008Y-82375499D01*
X163900016Y-82375498D01*
X163900019Y-82375498D01*
X163968514Y-82368501D01*
X164002797Y-82364999D01*
X164169334Y-82309814D01*
X164318656Y-82217712D01*
X164442712Y-82093656D01*
X164534814Y-81944334D01*
X164589999Y-81777797D01*
X164600500Y-81675009D01*
X164600500Y-81674986D01*
X165400001Y-81674986D01*
X165410494Y-81777697D01*
X165465641Y-81944119D01*
X165465643Y-81944124D01*
X165557684Y-82093345D01*
X165681654Y-82217315D01*
X165830875Y-82309356D01*
X165830880Y-82309358D01*
X165997302Y-82364505D01*
X165997309Y-82364506D01*
X166100019Y-82374999D01*
X166212499Y-82374999D01*
X166712500Y-82374999D01*
X166824972Y-82374999D01*
X166824986Y-82374998D01*
X166927697Y-82364505D01*
X167094119Y-82309358D01*
X167094124Y-82309356D01*
X167243345Y-82217315D01*
X167367315Y-82093345D01*
X167459356Y-81944124D01*
X167459358Y-81944119D01*
X167514505Y-81777697D01*
X167514506Y-81777690D01*
X167524999Y-81674986D01*
X167525000Y-81674973D01*
X167525000Y-81250000D01*
X166712500Y-81250000D01*
X166712500Y-82374999D01*
X166212499Y-82374999D01*
X166212500Y-82374998D01*
X166212500Y-81250000D01*
X165400001Y-81250000D01*
X165400001Y-81674986D01*
X164600500Y-81674986D01*
X164600499Y-80989258D01*
X164600499Y-80325013D01*
X165400000Y-80325013D01*
X165400000Y-80750000D01*
X166212500Y-80750000D01*
X166712500Y-80750000D01*
X167524999Y-80750000D01*
X167524999Y-80325028D01*
X167524998Y-80325013D01*
X167514505Y-80222302D01*
X167459358Y-80055880D01*
X167459356Y-80055875D01*
X167367315Y-79906654D01*
X167243345Y-79782684D01*
X167094124Y-79690643D01*
X167094119Y-79690641D01*
X166927697Y-79635494D01*
X166927690Y-79635493D01*
X166824986Y-79625000D01*
X166712500Y-79625000D01*
X166712500Y-80750000D01*
X166212500Y-80750000D01*
X166212500Y-79625000D01*
X166100027Y-79625000D01*
X166100012Y-79625001D01*
X165997302Y-79635494D01*
X165830880Y-79690641D01*
X165830875Y-79690643D01*
X165681654Y-79782684D01*
X165557684Y-79906654D01*
X165465643Y-80055875D01*
X165465641Y-80055880D01*
X165410494Y-80222302D01*
X165410493Y-80222309D01*
X165400000Y-80325013D01*
X164600499Y-80325013D01*
X164600499Y-80324998D01*
X164600498Y-80324981D01*
X164589999Y-80222203D01*
X164589998Y-80222200D01*
X164569471Y-80160254D01*
X164534814Y-80055666D01*
X164442712Y-79906344D01*
X164318656Y-79782288D01*
X164188486Y-79701999D01*
X164169336Y-79690187D01*
X164169331Y-79690185D01*
X164151001Y-79684111D01*
X164002797Y-79635001D01*
X164002795Y-79635000D01*
X163900010Y-79624500D01*
X163174998Y-79624500D01*
X163174980Y-79624501D01*
X163072203Y-79635000D01*
X163072200Y-79635001D01*
X162905668Y-79690185D01*
X162905663Y-79690187D01*
X162756342Y-79782289D01*
X162632289Y-79906342D01*
X162540187Y-80055663D01*
X162540185Y-80055668D01*
X162521684Y-80111500D01*
X162485002Y-80222202D01*
X162485001Y-80222204D01*
X162485000Y-80222205D01*
X162478268Y-80288103D01*
X162451871Y-80352795D01*
X162394690Y-80392946D01*
X162354910Y-80399500D01*
X161645089Y-80399500D01*
X161578050Y-80379815D01*
X161532295Y-80327011D01*
X161521731Y-80288102D01*
X161519177Y-80263102D01*
X161514999Y-80222203D01*
X161459814Y-80055666D01*
X161367712Y-79906344D01*
X161243656Y-79782288D01*
X161113486Y-79701999D01*
X161094336Y-79690187D01*
X161094331Y-79690185D01*
X161076001Y-79684111D01*
X160927797Y-79635001D01*
X160927795Y-79635000D01*
X160825010Y-79624500D01*
X160825009Y-79624500D01*
X160824779Y-79624500D01*
X160096835Y-79624501D01*
X160096835Y-79623550D01*
X160032709Y-79608189D01*
X159984348Y-79557760D01*
X159970400Y-79500624D01*
X159970400Y-78499376D01*
X159990085Y-78432337D01*
X160042889Y-78386582D01*
X160096834Y-78376277D01*
X160096834Y-78375500D01*
X160099990Y-78375499D01*
X160099991Y-78375500D01*
X160825008Y-78375499D01*
X160825016Y-78375498D01*
X160825019Y-78375498D01*
X160881302Y-78369748D01*
X160927797Y-78364999D01*
X161094334Y-78309814D01*
X161243656Y-78217712D01*
X161367712Y-78093656D01*
X161459814Y-77944334D01*
X161514999Y-77777797D01*
X161517431Y-77753989D01*
X161521732Y-77711897D01*
X161548129Y-77647205D01*
X161605310Y-77607054D01*
X161645090Y-77600500D01*
X162354911Y-77600500D01*
X162421950Y-77620185D01*
X162467705Y-77672989D01*
X162478269Y-77711898D01*
X162485001Y-77777797D01*
X162485001Y-77777799D01*
X162501284Y-77826936D01*
X162540186Y-77944334D01*
X162632288Y-78093656D01*
X162756344Y-78217712D01*
X162905666Y-78309814D01*
X163072203Y-78364999D01*
X163174991Y-78375500D01*
X163900008Y-78375499D01*
X163900016Y-78375498D01*
X163900019Y-78375498D01*
X163956302Y-78369748D01*
X164002797Y-78364999D01*
X164169334Y-78309814D01*
X164318656Y-78217712D01*
X164442712Y-78093656D01*
X164534814Y-77944334D01*
X164589999Y-77777797D01*
X164600500Y-77675009D01*
X164600500Y-77674986D01*
X165400001Y-77674986D01*
X165410494Y-77777697D01*
X165465641Y-77944119D01*
X165465643Y-77944124D01*
X165557684Y-78093345D01*
X165681654Y-78217315D01*
X165830875Y-78309356D01*
X165830880Y-78309358D01*
X165997302Y-78364505D01*
X165997309Y-78364506D01*
X166100019Y-78374999D01*
X166212499Y-78374999D01*
X166712500Y-78374999D01*
X166824972Y-78374999D01*
X166824986Y-78374998D01*
X166927697Y-78364505D01*
X167094119Y-78309358D01*
X167094124Y-78309356D01*
X167243345Y-78217315D01*
X167367315Y-78093345D01*
X167459356Y-77944124D01*
X167459358Y-77944119D01*
X167514505Y-77777697D01*
X167514506Y-77777690D01*
X167524999Y-77674986D01*
X167525000Y-77674973D01*
X167525000Y-77250000D01*
X166712500Y-77250000D01*
X166712500Y-78374999D01*
X166212499Y-78374999D01*
X166212500Y-78374998D01*
X166212500Y-77250000D01*
X165400001Y-77250000D01*
X165400001Y-77674986D01*
X164600500Y-77674986D01*
X164600499Y-76986849D01*
X164600499Y-76325013D01*
X165400000Y-76325013D01*
X165400000Y-76750000D01*
X166212500Y-76750000D01*
X166712500Y-76750000D01*
X167524999Y-76750000D01*
X167524999Y-76325028D01*
X167524998Y-76325013D01*
X167514505Y-76222302D01*
X167459358Y-76055880D01*
X167459356Y-76055875D01*
X167367315Y-75906654D01*
X167243345Y-75782684D01*
X167094124Y-75690643D01*
X167094119Y-75690641D01*
X166927697Y-75635494D01*
X166927690Y-75635493D01*
X166824986Y-75625000D01*
X166712500Y-75625000D01*
X166712500Y-76750000D01*
X166212500Y-76750000D01*
X166212500Y-75625000D01*
X166100027Y-75625000D01*
X166100012Y-75625001D01*
X165997302Y-75635494D01*
X165830880Y-75690641D01*
X165830875Y-75690643D01*
X165681654Y-75782684D01*
X165557684Y-75906654D01*
X165465643Y-76055875D01*
X165465641Y-76055880D01*
X165410494Y-76222302D01*
X165410493Y-76222309D01*
X165400000Y-76325013D01*
X164600499Y-76325013D01*
X164600499Y-76324998D01*
X164600498Y-76324981D01*
X164589999Y-76222203D01*
X164589998Y-76222200D01*
X164582644Y-76200008D01*
X164534814Y-76055666D01*
X164442712Y-75906344D01*
X164318656Y-75782288D01*
X164169334Y-75690186D01*
X164002797Y-75635001D01*
X164002795Y-75635000D01*
X163900010Y-75624500D01*
X163174998Y-75624500D01*
X163174980Y-75624501D01*
X163072203Y-75635000D01*
X163072200Y-75635001D01*
X162905668Y-75690185D01*
X162905663Y-75690187D01*
X162756342Y-75782289D01*
X162632289Y-75906342D01*
X162540187Y-76055663D01*
X162540185Y-76055668D01*
X162540115Y-76055880D01*
X162485002Y-76222202D01*
X162485001Y-76222204D01*
X162485000Y-76222205D01*
X162478268Y-76288103D01*
X162451871Y-76352795D01*
X162394690Y-76392946D01*
X162354910Y-76399500D01*
X161645089Y-76399500D01*
X161578050Y-76379815D01*
X161532295Y-76327011D01*
X161521731Y-76288102D01*
X161519839Y-76269591D01*
X161514999Y-76222203D01*
X161459814Y-76055666D01*
X161367712Y-75906344D01*
X161243656Y-75782288D01*
X161094334Y-75690186D01*
X160927797Y-75635001D01*
X160927795Y-75635000D01*
X160825016Y-75624500D01*
X160096950Y-75624500D01*
X160029911Y-75604815D01*
X159984156Y-75552011D01*
X159974212Y-75482853D01*
X160003237Y-75419297D01*
X160009255Y-75412833D01*
X162660271Y-72761818D01*
X162721594Y-72728333D01*
X162747952Y-72725499D01*
X163250002Y-72725499D01*
X163250008Y-72725499D01*
X163352797Y-72714999D01*
X163519334Y-72659814D01*
X163668656Y-72567712D01*
X163792712Y-72443656D01*
X163884814Y-72294334D01*
X163939999Y-72127797D01*
X163950500Y-72025009D01*
X163950499Y-70974992D01*
X163939999Y-70872203D01*
X163884814Y-70705666D01*
X163792712Y-70556344D01*
X163668656Y-70432288D01*
X163519334Y-70340186D01*
X163352797Y-70285001D01*
X163352795Y-70285000D01*
X163250010Y-70274500D01*
X162649998Y-70274500D01*
X162649980Y-70274501D01*
X162547203Y-70285000D01*
X162547200Y-70285001D01*
X162380668Y-70340185D01*
X162380663Y-70340187D01*
X162231342Y-70432289D01*
X162107288Y-70556343D01*
X162107283Y-70556349D01*
X162105241Y-70559661D01*
X162103247Y-70561453D01*
X162102807Y-70562011D01*
X162102711Y-70561935D01*
X162053291Y-70606383D01*
X161984328Y-70617602D01*
X161920247Y-70589755D01*
X161894168Y-70559656D01*
X161892319Y-70556659D01*
X161892316Y-70556655D01*
X161768345Y-70432684D01*
X161619124Y-70340643D01*
X161619119Y-70340641D01*
X161452697Y-70285494D01*
X161452690Y-70285493D01*
X161349986Y-70275000D01*
X161300000Y-70275000D01*
X161300000Y-71376000D01*
X161280315Y-71443039D01*
X161227511Y-71488794D01*
X161176000Y-71500000D01*
X161050000Y-71500000D01*
X161050000Y-71626000D01*
X161030315Y-71693039D01*
X160977511Y-71738794D01*
X160926000Y-71750000D01*
X160050001Y-71750000D01*
X160050001Y-72024986D01*
X160060494Y-72127697D01*
X160115641Y-72294119D01*
X160115643Y-72294124D01*
X160207684Y-72443345D01*
X160331654Y-72567315D01*
X160480875Y-72659356D01*
X160480880Y-72659358D01*
X160647303Y-72714505D01*
X160651815Y-72714966D01*
X160716508Y-72741358D01*
X160756663Y-72798536D01*
X160759531Y-72868347D01*
X160726901Y-72926006D01*
X158058172Y-75594736D01*
X157996849Y-75628221D01*
X157957888Y-75630413D01*
X157900010Y-75624500D01*
X157174998Y-75624500D01*
X157174977Y-75624502D01*
X157117107Y-75630413D01*
X157048414Y-75617642D01*
X157016826Y-75594736D01*
X152397103Y-70975013D01*
X160050000Y-70975013D01*
X160050000Y-71250000D01*
X160800000Y-71250000D01*
X160800000Y-70275000D01*
X160799999Y-70274999D01*
X160750029Y-70275000D01*
X160750011Y-70275001D01*
X160647302Y-70285494D01*
X160480880Y-70340641D01*
X160480875Y-70340643D01*
X160331654Y-70432684D01*
X160207684Y-70556654D01*
X160115643Y-70705875D01*
X160115641Y-70705880D01*
X160060494Y-70872302D01*
X160060493Y-70872309D01*
X160050000Y-70975013D01*
X152397103Y-70975013D01*
X150033416Y-68611326D01*
X150023359Y-68601269D01*
X150023358Y-68601267D01*
X149936233Y-68514142D01*
X149881981Y-68477892D01*
X149833786Y-68445688D01*
X149833787Y-68445688D01*
X149833785Y-68445687D01*
X149794322Y-68429342D01*
X149753292Y-68412347D01*
X149719952Y-68398537D01*
X149659529Y-68386518D01*
X149654806Y-68385578D01*
X149654804Y-68385578D01*
X149599110Y-68374500D01*
X149599107Y-68374500D01*
X149599106Y-68374500D01*
X131590069Y-68374500D01*
X131542617Y-68365061D01*
X131449332Y-68326421D01*
X131449322Y-68326418D01*
X131313995Y-68299500D01*
X131313993Y-68299500D01*
X131176007Y-68299500D01*
X131176005Y-68299500D01*
X131040677Y-68326418D01*
X131040667Y-68326421D01*
X130913195Y-68379221D01*
X130913182Y-68379228D01*
X130798458Y-68455885D01*
X130798454Y-68455888D01*
X130700888Y-68553454D01*
X130700885Y-68553458D01*
X130624228Y-68668182D01*
X130624221Y-68668195D01*
X130571421Y-68795667D01*
X130571418Y-68795677D01*
X130544500Y-68931004D01*
X130544500Y-68931007D01*
X130544500Y-69068993D01*
X130544500Y-69068995D01*
X130544499Y-69068995D01*
X130571418Y-69204322D01*
X130571421Y-69204332D01*
X130624221Y-69331804D01*
X130624228Y-69331817D01*
X130700885Y-69446541D01*
X130700888Y-69446545D01*
X130798454Y-69544111D01*
X130798458Y-69544114D01*
X130913182Y-69620771D01*
X130913195Y-69620778D01*
X131012278Y-69661819D01*
X131040672Y-69673580D01*
X131040676Y-69673580D01*
X131040677Y-69673581D01*
X131176004Y-69700500D01*
X131176007Y-69700500D01*
X131313995Y-69700500D01*
X131405041Y-69682389D01*
X131449328Y-69673580D01*
X131517880Y-69645185D01*
X131542617Y-69634939D01*
X131590069Y-69625500D01*
X149227048Y-69625500D01*
X149294087Y-69645185D01*
X149314729Y-69661819D01*
X156438181Y-76785272D01*
X156471666Y-76846595D01*
X156474500Y-76872953D01*
X156474500Y-77675001D01*
X156474501Y-77675019D01*
X156485000Y-77777796D01*
X156485001Y-77777799D01*
X156501284Y-77826936D01*
X156540186Y-77944334D01*
X156632288Y-78093656D01*
X156756344Y-78217712D01*
X156853097Y-78277389D01*
X156899821Y-78329335D01*
X156912000Y-78382927D01*
X156912000Y-79617072D01*
X156892315Y-79684111D01*
X156853098Y-79722609D01*
X156793555Y-79759336D01*
X156756342Y-79782289D01*
X156632289Y-79906342D01*
X156540187Y-80055663D01*
X156540185Y-80055668D01*
X156521684Y-80111500D01*
X156485002Y-80222202D01*
X156485001Y-80222204D01*
X156485000Y-80222205D01*
X156480823Y-80263102D01*
X156454427Y-80327793D01*
X156397247Y-80367945D01*
X156357465Y-80374500D01*
X154845069Y-80374500D01*
X154797617Y-80365061D01*
X154704332Y-80326421D01*
X154704322Y-80326418D01*
X154568995Y-80299500D01*
X154568993Y-80299500D01*
X154431007Y-80299500D01*
X154431005Y-80299500D01*
X154295677Y-80326418D01*
X154295667Y-80326421D01*
X154168195Y-80379221D01*
X154168182Y-80379228D01*
X154053458Y-80455885D01*
X154053454Y-80455888D01*
X153955888Y-80553454D01*
X153955885Y-80553458D01*
X153879228Y-80668182D01*
X153879221Y-80668195D01*
X153826421Y-80795667D01*
X153826418Y-80795677D01*
X153799500Y-80931004D01*
X153799500Y-80931007D01*
X153799500Y-81068993D01*
X153799500Y-81068995D01*
X153799499Y-81068995D01*
X153826418Y-81204322D01*
X153826421Y-81204332D01*
X153879221Y-81331804D01*
X153879228Y-81331817D01*
X153955885Y-81446541D01*
X153955888Y-81446545D01*
X154053454Y-81544111D01*
X154053458Y-81544114D01*
X154168182Y-81620771D01*
X154168195Y-81620778D01*
X154265153Y-81660939D01*
X154319557Y-81704780D01*
X154341622Y-81771074D01*
X154324343Y-81838773D01*
X154273206Y-81886384D01*
X154217701Y-81899500D01*
X127590224Y-81899500D01*
X127523185Y-81879815D01*
X127477430Y-81827011D01*
X127467486Y-81757853D01*
X127475663Y-81728048D01*
X127503460Y-81660939D01*
X127512080Y-81640128D01*
X127539000Y-81504793D01*
X127539000Y-81366807D01*
X127539000Y-81366804D01*
X127512081Y-81231477D01*
X127512080Y-81231476D01*
X127512080Y-81231472D01*
X127498480Y-81198638D01*
X127459278Y-81103995D01*
X127459271Y-81103982D01*
X127382614Y-80989258D01*
X127382611Y-80989254D01*
X127285045Y-80891688D01*
X127285041Y-80891685D01*
X127170317Y-80815028D01*
X127170304Y-80815021D01*
X127042830Y-80762220D01*
X127036994Y-80760450D01*
X127037421Y-80759039D01*
X127027160Y-80753670D01*
X127008690Y-80749652D01*
X126983629Y-80730891D01*
X126982002Y-80730040D01*
X126980436Y-80728501D01*
X126951816Y-80699881D01*
X126918331Y-80638558D01*
X126923315Y-80568866D01*
X126951816Y-80524519D01*
X127420672Y-80055663D01*
X127980520Y-79495816D01*
X128059577Y-79358884D01*
X128100501Y-79206157D01*
X128100501Y-79048042D01*
X128100501Y-79040447D01*
X128100500Y-79040429D01*
X128100500Y-71439660D01*
X128100501Y-71439647D01*
X128100501Y-71271544D01*
X128094040Y-71247431D01*
X128059577Y-71118816D01*
X128042713Y-71089606D01*
X127980524Y-70981890D01*
X127980518Y-70981882D01*
X126686819Y-69688183D01*
X126653334Y-69626860D01*
X126650500Y-69600502D01*
X126650500Y-69284313D01*
X126650499Y-69284298D01*
X126647598Y-69247432D01*
X126647597Y-69247426D01*
X126601745Y-69089606D01*
X126601744Y-69089603D01*
X126601744Y-69089602D01*
X126518081Y-68948135D01*
X126518079Y-68948133D01*
X126518076Y-68948129D01*
X126401870Y-68831923D01*
X126401862Y-68831917D01*
X126260396Y-68748255D01*
X126260393Y-68748254D01*
X126102573Y-68702402D01*
X126102567Y-68702401D01*
X126065701Y-68699500D01*
X126065694Y-68699500D01*
X124684306Y-68699500D01*
X124684298Y-68699500D01*
X124647432Y-68702401D01*
X124647426Y-68702402D01*
X124489606Y-68748254D01*
X124489603Y-68748255D01*
X124348137Y-68831917D01*
X124348129Y-68831923D01*
X124231923Y-68948129D01*
X124231917Y-68948137D01*
X124148255Y-69089603D01*
X124148254Y-69089606D01*
X124102402Y-69247426D01*
X124102401Y-69247432D01*
X124099500Y-69284298D01*
X124099500Y-69715701D01*
X124102401Y-69752567D01*
X124102402Y-69752573D01*
X124148253Y-69910393D01*
X124163918Y-69936881D01*
X124181098Y-70004606D01*
X124163918Y-70063119D01*
X124148253Y-70089606D01*
X124102402Y-70247426D01*
X124102401Y-70247432D01*
X124099500Y-70284298D01*
X124099500Y-70715701D01*
X124102401Y-70752567D01*
X124102402Y-70752573D01*
X124148253Y-70910393D01*
X124163918Y-70936881D01*
X124181098Y-71004606D01*
X124163918Y-71063119D01*
X124148253Y-71089606D01*
X124102402Y-71247426D01*
X124102401Y-71247432D01*
X124099500Y-71284298D01*
X124099500Y-71600502D01*
X124079815Y-71667541D01*
X124063181Y-71688183D01*
X123133425Y-72617938D01*
X123133415Y-72617948D01*
X123131286Y-72620078D01*
X123131284Y-72620080D01*
X123019480Y-72731884D01*
X123007538Y-72752569D01*
X123000910Y-72764048D01*
X123000909Y-72764050D01*
X122940693Y-72868347D01*
X122940423Y-72868815D01*
X122899499Y-73021543D01*
X122899499Y-73021545D01*
X122899499Y-73189646D01*
X122899500Y-73189659D01*
X122899500Y-74838770D01*
X122879815Y-74905809D01*
X122827011Y-74951564D01*
X122757853Y-74961508D01*
X122694297Y-74932483D01*
X122687819Y-74926451D01*
X122618657Y-74857289D01*
X122618656Y-74857288D01*
X122469334Y-74765186D01*
X122302797Y-74710001D01*
X122302795Y-74710000D01*
X122200010Y-74699500D01*
X120799998Y-74699500D01*
X120799981Y-74699501D01*
X120697203Y-74710000D01*
X120697200Y-74710001D01*
X120530668Y-74765185D01*
X120530663Y-74765187D01*
X120381342Y-74857289D01*
X120257181Y-74981451D01*
X120195858Y-75014936D01*
X120126166Y-75009952D01*
X120070233Y-74968080D01*
X120045816Y-74902616D01*
X120045500Y-74893770D01*
X120045500Y-68106230D01*
X120065185Y-68039191D01*
X120117989Y-67993436D01*
X120187147Y-67983492D01*
X120250703Y-68012517D01*
X120257181Y-68018549D01*
X120257288Y-68018656D01*
X120381344Y-68142712D01*
X120530666Y-68234814D01*
X120697203Y-68289999D01*
X120799991Y-68300500D01*
X122200008Y-68300499D01*
X122302797Y-68289999D01*
X122469334Y-68234814D01*
X122618656Y-68142712D01*
X122742712Y-68018656D01*
X122834814Y-67869334D01*
X122889999Y-67702797D01*
X122900500Y-67600009D01*
X122900499Y-66799992D01*
X122894473Y-66741005D01*
X122889999Y-66697203D01*
X122889998Y-66697200D01*
X122875459Y-66653324D01*
X122834814Y-66530666D01*
X122742712Y-66381344D01*
X122618656Y-66257288D01*
X122469334Y-66165186D01*
X122302797Y-66110001D01*
X122302795Y-66110000D01*
X122200010Y-66099500D01*
X120799998Y-66099500D01*
X120799981Y-66099501D01*
X120697203Y-66110000D01*
X120697200Y-66110001D01*
X120530668Y-66165185D01*
X120530663Y-66165187D01*
X120381342Y-66257289D01*
X120257181Y-66381451D01*
X120195858Y-66414936D01*
X120126166Y-66409952D01*
X120070233Y-66368080D01*
X120045816Y-66302616D01*
X120045500Y-66293770D01*
X120045500Y-62786038D01*
X120444500Y-62786038D01*
X120444500Y-63037961D01*
X120483910Y-63286785D01*
X120561760Y-63526383D01*
X120676132Y-63750848D01*
X120824201Y-63954649D01*
X120824205Y-63954654D01*
X121002345Y-64132794D01*
X121002350Y-64132798D01*
X121180117Y-64261952D01*
X121206155Y-64280870D01*
X121349184Y-64353747D01*
X121430616Y-64395239D01*
X121430618Y-64395239D01*
X121430621Y-64395241D01*
X121670215Y-64473090D01*
X121919038Y-64512500D01*
X121919039Y-64512500D01*
X122170961Y-64512500D01*
X122170962Y-64512500D01*
X122419785Y-64473090D01*
X122659379Y-64395241D01*
X122883845Y-64280870D01*
X123087656Y-64132793D01*
X123265793Y-63954656D01*
X123413870Y-63750845D01*
X123528241Y-63526379D01*
X123606090Y-63286785D01*
X123645500Y-63037962D01*
X123645500Y-62786038D01*
X170444500Y-62786038D01*
X170444500Y-63037961D01*
X170483910Y-63286785D01*
X170561760Y-63526383D01*
X170676132Y-63750848D01*
X170824201Y-63954649D01*
X170824205Y-63954654D01*
X171002345Y-64132794D01*
X171002350Y-64132798D01*
X171180117Y-64261952D01*
X171206155Y-64280870D01*
X171349184Y-64353747D01*
X171430616Y-64395239D01*
X171430618Y-64395239D01*
X171430621Y-64395241D01*
X171670215Y-64473090D01*
X171919038Y-64512500D01*
X171919039Y-64512500D01*
X172170961Y-64512500D01*
X172170962Y-64512500D01*
X172419785Y-64473090D01*
X172659379Y-64395241D01*
X172883845Y-64280870D01*
X173087656Y-64132793D01*
X173265793Y-63954656D01*
X173413870Y-63750845D01*
X173528241Y-63526379D01*
X173606090Y-63286785D01*
X173645500Y-63037962D01*
X173645500Y-62786038D01*
X173606090Y-62537215D01*
X173528241Y-62297621D01*
X173528239Y-62297618D01*
X173528239Y-62297616D01*
X173429401Y-62103637D01*
X173413870Y-62073155D01*
X173394952Y-62047117D01*
X173265798Y-61869350D01*
X173265794Y-61869345D01*
X173087654Y-61691205D01*
X173087649Y-61691201D01*
X172883848Y-61543132D01*
X172883847Y-61543131D01*
X172883845Y-61543130D01*
X172813747Y-61507413D01*
X172659383Y-61428760D01*
X172419785Y-61350910D01*
X172170962Y-61311500D01*
X171919038Y-61311500D01*
X171794626Y-61331205D01*
X171670214Y-61350910D01*
X171430616Y-61428760D01*
X171206151Y-61543132D01*
X171002350Y-61691201D01*
X171002345Y-61691205D01*
X170824205Y-61869345D01*
X170824201Y-61869350D01*
X170676132Y-62073151D01*
X170561760Y-62297616D01*
X170483910Y-62537214D01*
X170444500Y-62786038D01*
X123645500Y-62786038D01*
X123606090Y-62537215D01*
X123528241Y-62297621D01*
X123528239Y-62297618D01*
X123528239Y-62297616D01*
X123429401Y-62103637D01*
X123413870Y-62073155D01*
X123394952Y-62047117D01*
X123265798Y-61869350D01*
X123265794Y-61869345D01*
X123087654Y-61691205D01*
X123087649Y-61691201D01*
X122883848Y-61543132D01*
X122883847Y-61543131D01*
X122883845Y-61543130D01*
X122813747Y-61507413D01*
X122659383Y-61428760D01*
X122419785Y-61350910D01*
X122170962Y-61311500D01*
X121919038Y-61311500D01*
X121794626Y-61331205D01*
X121670214Y-61350910D01*
X121430616Y-61428760D01*
X121206151Y-61543132D01*
X121002350Y-61691201D01*
X121002345Y-61691205D01*
X120824205Y-61869345D01*
X120824201Y-61869350D01*
X120676132Y-62073151D01*
X120561760Y-62297616D01*
X120483910Y-62537214D01*
X120444500Y-62786038D01*
X120045500Y-62786038D01*
X120045500Y-62170676D01*
X120065185Y-62103637D01*
X120081819Y-62082995D01*
X121215995Y-60948819D01*
X121277318Y-60915334D01*
X121303676Y-60912500D01*
X172786324Y-60912500D01*
X172853363Y-60932185D01*
G37*
%TD.AperFunction*%
%TA.AperFunction,Conductor*%
G36*
X139080066Y-97020000D02*
G01*
X142539148Y-97020000D01*
X142569303Y-97003534D01*
X142595661Y-97000700D01*
X153266143Y-97000700D01*
X154220500Y-97000700D01*
X154287539Y-97020385D01*
X154333294Y-97073189D01*
X154344500Y-97124700D01*
X154344500Y-97600230D01*
X154326253Y-97662369D01*
X154327095Y-97662819D01*
X154324935Y-97666859D01*
X154324815Y-97667269D01*
X154324278Y-97668087D01*
X154324223Y-97668190D01*
X154271421Y-97795667D01*
X154271418Y-97795677D01*
X154244500Y-97931004D01*
X154244500Y-97931007D01*
X154244500Y-98068993D01*
X154244500Y-98068995D01*
X154244499Y-98068995D01*
X154271418Y-98204322D01*
X154271421Y-98204332D01*
X154324221Y-98331804D01*
X154324228Y-98331817D01*
X154400885Y-98446541D01*
X154400888Y-98446545D01*
X154498454Y-98544111D01*
X154498458Y-98544114D01*
X154613182Y-98620771D01*
X154613195Y-98620778D01*
X154729214Y-98668834D01*
X154740672Y-98673580D01*
X154740676Y-98673580D01*
X154740677Y-98673581D01*
X154876004Y-98700500D01*
X154876007Y-98700500D01*
X155013995Y-98700500D01*
X155105041Y-98682389D01*
X155149328Y-98673580D01*
X155276811Y-98620775D01*
X155391542Y-98544114D01*
X155405017Y-98530639D01*
X155457319Y-98478338D01*
X155518642Y-98444853D01*
X155588334Y-98449837D01*
X155632681Y-98478338D01*
X155698454Y-98544111D01*
X155698458Y-98544114D01*
X155813182Y-98620771D01*
X155813195Y-98620778D01*
X155929214Y-98668834D01*
X155940672Y-98673580D01*
X155940676Y-98673580D01*
X155940677Y-98673581D01*
X156076004Y-98700500D01*
X156076007Y-98700500D01*
X156213995Y-98700500D01*
X156305041Y-98682389D01*
X156349328Y-98673580D01*
X156476811Y-98620775D01*
X156476811Y-98620774D01*
X156482181Y-98617905D01*
X156482876Y-98619205D01*
X156542562Y-98600520D01*
X156544770Y-98600500D01*
X156913331Y-98600500D01*
X156913347Y-98600501D01*
X156920943Y-98600501D01*
X157079054Y-98600501D01*
X157079057Y-98600501D01*
X157231785Y-98559577D01*
X157281904Y-98530639D01*
X157368716Y-98480520D01*
X157480520Y-98368716D01*
X157480520Y-98368714D01*
X157490728Y-98358507D01*
X157490729Y-98358504D01*
X157857842Y-97991392D01*
X157919164Y-97957908D01*
X157988856Y-97962892D01*
X158044789Y-98004764D01*
X158069206Y-98070228D01*
X158069522Y-98079074D01*
X158069522Y-100147380D01*
X158049837Y-100214419D01*
X158033203Y-100235061D01*
X155664481Y-102603782D01*
X155664479Y-102603785D01*
X155624131Y-102673671D01*
X155618987Y-102682581D01*
X155585423Y-102740715D01*
X155551034Y-102869053D01*
X155548939Y-102874654D01*
X155531411Y-102898019D01*
X155516210Y-102922959D01*
X155510693Y-102925638D01*
X155507012Y-102930546D01*
X155479632Y-102940726D01*
X155453363Y-102953487D01*
X155447273Y-102952758D01*
X155441523Y-102954897D01*
X155412985Y-102948659D01*
X155383987Y-102945192D01*
X155377721Y-102940951D01*
X155373265Y-102939977D01*
X155366984Y-102933683D01*
X155345120Y-102918885D01*
X154645390Y-102219155D01*
X154645388Y-102219152D01*
X154526517Y-102100281D01*
X154526516Y-102100280D01*
X154439704Y-102050160D01*
X154439704Y-102050159D01*
X154439700Y-102050158D01*
X154389585Y-102021223D01*
X154236857Y-101980299D01*
X154078743Y-101980299D01*
X154071147Y-101980299D01*
X154071131Y-101980300D01*
X137805897Y-101980300D01*
X137738858Y-101960615D01*
X137718216Y-101943981D01*
X135944221Y-100169986D01*
X139085001Y-100169986D01*
X139095494Y-100272697D01*
X139150641Y-100439119D01*
X139150643Y-100439124D01*
X139242684Y-100588345D01*
X139366654Y-100712315D01*
X139515875Y-100804356D01*
X139515880Y-100804358D01*
X139682302Y-100859505D01*
X139682309Y-100859506D01*
X139785019Y-100869999D01*
X140554999Y-100869999D01*
X141055000Y-100869999D01*
X141824972Y-100869999D01*
X141824986Y-100869998D01*
X141927697Y-100859505D01*
X142094119Y-100804358D01*
X142094124Y-100804356D01*
X142243345Y-100712315D01*
X142367315Y-100588345D01*
X142459356Y-100439124D01*
X142459358Y-100439119D01*
X142514505Y-100272697D01*
X142514506Y-100272690D01*
X142524999Y-100169986D01*
X142525000Y-100169973D01*
X142525000Y-100060000D01*
X141055000Y-100060000D01*
X141055000Y-100869999D01*
X140554999Y-100869999D01*
X140555000Y-100869998D01*
X140555000Y-100060000D01*
X139085001Y-100060000D01*
X139085001Y-100169986D01*
X135944221Y-100169986D01*
X135224248Y-99450013D01*
X139085000Y-99450013D01*
X139085000Y-99560000D01*
X140555000Y-99560000D01*
X141055000Y-99560000D01*
X142524999Y-99560000D01*
X142524999Y-99450028D01*
X142524998Y-99450013D01*
X142514505Y-99347302D01*
X142459358Y-99180880D01*
X142459356Y-99180875D01*
X142367315Y-99031654D01*
X142243345Y-98907684D01*
X142094124Y-98815643D01*
X142094119Y-98815641D01*
X141927697Y-98760494D01*
X141927690Y-98760493D01*
X141824986Y-98750000D01*
X141055000Y-98750000D01*
X141055000Y-99560000D01*
X140555000Y-99560000D01*
X140555000Y-98750000D01*
X139785028Y-98750000D01*
X139785012Y-98750001D01*
X139682302Y-98760494D01*
X139515880Y-98815641D01*
X139515875Y-98815643D01*
X139366654Y-98907684D01*
X139242684Y-99031654D01*
X139150643Y-99180875D01*
X139150641Y-99180880D01*
X139095494Y-99347302D01*
X139095493Y-99347309D01*
X139085000Y-99450013D01*
X135224248Y-99450013D01*
X133851906Y-98077671D01*
X133818421Y-98016348D01*
X133823405Y-97946656D01*
X133834046Y-97924896D01*
X133849814Y-97899334D01*
X133904999Y-97732797D01*
X133915500Y-97630009D01*
X133915500Y-97629986D01*
X139085001Y-97629986D01*
X139095494Y-97732697D01*
X139150641Y-97899119D01*
X139150643Y-97899124D01*
X139242684Y-98048345D01*
X139366654Y-98172315D01*
X139515875Y-98264356D01*
X139515880Y-98264358D01*
X139682302Y-98319505D01*
X139682309Y-98319506D01*
X139785019Y-98329999D01*
X140554999Y-98329999D01*
X141055000Y-98329999D01*
X141824972Y-98329999D01*
X141824986Y-98329998D01*
X141927697Y-98319505D01*
X142094119Y-98264358D01*
X142094124Y-98264356D01*
X142243345Y-98172315D01*
X142367315Y-98048345D01*
X142459356Y-97899124D01*
X142459358Y-97899119D01*
X142514505Y-97732697D01*
X142514506Y-97732690D01*
X142524999Y-97629986D01*
X142525000Y-97629973D01*
X142525000Y-97520000D01*
X141055000Y-97520000D01*
X141055000Y-98329999D01*
X140554999Y-98329999D01*
X140555000Y-98329998D01*
X140555000Y-97520000D01*
X139085001Y-97520000D01*
X139085001Y-97629986D01*
X133915500Y-97629986D01*
X133915499Y-97309397D01*
X133915499Y-97124700D01*
X133935183Y-97057661D01*
X133987987Y-97011906D01*
X134039499Y-97000700D01*
X139014338Y-97000700D01*
X139080066Y-97020000D01*
G37*
%TD.AperFunction*%
%TA.AperFunction,Conductor*%
G36*
X156427160Y-84120185D02*
G01*
X156472915Y-84172989D01*
X156483479Y-84237103D01*
X156474500Y-84324983D01*
X156474500Y-85675001D01*
X156474501Y-85675018D01*
X156485000Y-85777796D01*
X156485001Y-85777799D01*
X156494246Y-85805698D01*
X156540186Y-85944334D01*
X156632288Y-86093656D01*
X156756344Y-86217712D01*
X156853097Y-86277389D01*
X156899821Y-86329335D01*
X156912000Y-86382927D01*
X156912000Y-87617072D01*
X156892315Y-87684111D01*
X156853098Y-87722609D01*
X156793555Y-87759336D01*
X156756342Y-87782289D01*
X156632289Y-87906342D01*
X156540187Y-88055663D01*
X156540185Y-88055668D01*
X156520231Y-88115885D01*
X156485002Y-88222202D01*
X156485001Y-88222204D01*
X156485000Y-88222205D01*
X156480823Y-88263102D01*
X156454427Y-88327793D01*
X156397247Y-88367945D01*
X156357465Y-88374500D01*
X150336400Y-88374500D01*
X150269361Y-88354815D01*
X150223606Y-88302011D01*
X150212400Y-88250500D01*
X150212400Y-88245704D01*
X150185481Y-88110377D01*
X150185480Y-88110376D01*
X150185480Y-88110372D01*
X150185478Y-88110367D01*
X150132678Y-87982895D01*
X150132671Y-87982882D01*
X150056014Y-87868158D01*
X150056011Y-87868154D01*
X149958445Y-87770588D01*
X149958441Y-87770585D01*
X149843717Y-87693928D01*
X149843704Y-87693921D01*
X149716232Y-87641121D01*
X149716222Y-87641118D01*
X149580895Y-87614200D01*
X149580893Y-87614200D01*
X149442907Y-87614200D01*
X149442905Y-87614200D01*
X149307577Y-87641118D01*
X149307567Y-87641121D01*
X149180095Y-87693921D01*
X149180082Y-87693928D01*
X149065358Y-87770585D01*
X149065354Y-87770588D01*
X148967788Y-87868154D01*
X148967785Y-87868158D01*
X148891128Y-87982882D01*
X148891121Y-87982895D01*
X148838321Y-88110367D01*
X148838318Y-88110377D01*
X148811400Y-88245704D01*
X148811400Y-88250500D01*
X148791715Y-88317539D01*
X148738911Y-88363294D01*
X148687400Y-88374500D01*
X144056606Y-88374500D01*
X143933393Y-88374500D01*
X143910284Y-88379096D01*
X143887175Y-88383693D01*
X143887174Y-88383692D01*
X143812553Y-88398535D01*
X143812545Y-88398538D01*
X143698716Y-88445687D01*
X143698707Y-88445692D01*
X143596268Y-88514140D01*
X143552705Y-88557703D01*
X143509142Y-88601267D01*
X143509139Y-88601270D01*
X141017227Y-91093181D01*
X140955904Y-91126666D01*
X140929546Y-91129500D01*
X139784998Y-91129500D01*
X139784981Y-91129501D01*
X139682203Y-91140000D01*
X139682200Y-91140001D01*
X139515668Y-91195185D01*
X139515663Y-91195187D01*
X139366342Y-91287289D01*
X139242289Y-91411342D01*
X139150187Y-91560663D01*
X139150186Y-91560666D01*
X139095001Y-91727203D01*
X139095001Y-91727204D01*
X139095000Y-91727204D01*
X139084500Y-91829983D01*
X139084500Y-92550001D01*
X139084501Y-92550019D01*
X139095000Y-92652796D01*
X139095001Y-92652800D01*
X139109481Y-92696496D01*
X139111883Y-92766325D01*
X139076151Y-92826366D01*
X139013630Y-92857559D01*
X138991775Y-92859500D01*
X134008224Y-92859500D01*
X133941185Y-92839815D01*
X133895430Y-92787011D01*
X133885486Y-92717853D01*
X133890516Y-92696501D01*
X133904999Y-92652797D01*
X133915500Y-92550009D01*
X133915499Y-91829992D01*
X133911315Y-91789037D01*
X133904999Y-91727203D01*
X133904998Y-91727200D01*
X133861062Y-91594611D01*
X133849814Y-91560666D01*
X133757712Y-91411344D01*
X133633656Y-91287288D01*
X133484334Y-91195186D01*
X133317797Y-91140001D01*
X133317795Y-91140000D01*
X133215010Y-91129500D01*
X131174998Y-91129500D01*
X131174981Y-91129501D01*
X131072203Y-91140000D01*
X131072200Y-91140001D01*
X130905668Y-91195185D01*
X130905663Y-91195187D01*
X130756342Y-91287289D01*
X130632289Y-91411342D01*
X130540187Y-91560663D01*
X130540186Y-91560666D01*
X130485001Y-91727203D01*
X130485001Y-91727204D01*
X130485000Y-91727204D01*
X130474500Y-91829983D01*
X130474500Y-92550001D01*
X130474501Y-92550019D01*
X130485000Y-92652796D01*
X130485001Y-92652799D01*
X130529475Y-92787011D01*
X130540186Y-92819334D01*
X130632288Y-92968656D01*
X130756344Y-93092712D01*
X130905666Y-93184814D01*
X131072203Y-93239999D01*
X131174991Y-93250500D01*
X132354902Y-93250499D01*
X132384342Y-93259143D01*
X132414329Y-93265667D01*
X132419344Y-93269421D01*
X132421941Y-93270184D01*
X132442583Y-93286818D01*
X132613584Y-93457819D01*
X132647069Y-93519142D01*
X132642085Y-93588834D01*
X132600213Y-93644767D01*
X132534749Y-93669184D01*
X132525903Y-93669500D01*
X131174998Y-93669500D01*
X131174981Y-93669501D01*
X131072203Y-93680000D01*
X131072200Y-93680001D01*
X130905668Y-93735185D01*
X130905663Y-93735187D01*
X130756342Y-93827289D01*
X130632289Y-93951342D01*
X130540187Y-94100663D01*
X130540185Y-94100668D01*
X130522620Y-94153676D01*
X130485001Y-94267203D01*
X130485001Y-94267204D01*
X130485000Y-94267204D01*
X130474500Y-94369983D01*
X130474500Y-95090001D01*
X130474501Y-95090019D01*
X130485000Y-95192796D01*
X130485001Y-95192800D01*
X130509530Y-95266822D01*
X130511932Y-95336651D01*
X130476200Y-95396692D01*
X130413679Y-95427885D01*
X130344220Y-95420324D01*
X130304143Y-95393507D01*
X127049115Y-92138480D01*
X127044776Y-92130534D01*
X127037529Y-92125109D01*
X127028294Y-92100349D01*
X127015630Y-92077157D01*
X127016275Y-92068127D01*
X127013112Y-92059645D01*
X127018728Y-92033824D01*
X127020614Y-92007465D01*
X127026432Y-91998411D01*
X127027964Y-91991372D01*
X127049112Y-91963121D01*
X127081768Y-91930465D01*
X127121992Y-91903588D01*
X127170311Y-91883575D01*
X127285042Y-91806914D01*
X127382614Y-91709342D01*
X127459275Y-91594611D01*
X127512080Y-91467128D01*
X127539000Y-91331793D01*
X127539000Y-91193807D01*
X127539000Y-91193804D01*
X127512081Y-91058477D01*
X127512080Y-91058476D01*
X127512080Y-91058472D01*
X127495588Y-91018656D01*
X127459278Y-90930995D01*
X127459271Y-90930982D01*
X127382614Y-90816258D01*
X127382611Y-90816254D01*
X127285045Y-90718688D01*
X127285041Y-90718685D01*
X127170317Y-90642028D01*
X127170304Y-90642021D01*
X127042832Y-90589221D01*
X127042822Y-90589218D01*
X126907495Y-90562300D01*
X126907493Y-90562300D01*
X126769507Y-90562300D01*
X126769505Y-90562300D01*
X126634177Y-90589218D01*
X126634167Y-90589221D01*
X126506695Y-90642021D01*
X126506682Y-90642028D01*
X126391958Y-90718685D01*
X126391954Y-90718688D01*
X126294388Y-90816254D01*
X126294385Y-90816258D01*
X126217728Y-90930982D01*
X126217721Y-90930995D01*
X126164920Y-91058469D01*
X126164918Y-91058477D01*
X126149817Y-91134393D01*
X126117431Y-91196304D01*
X126115881Y-91197882D01*
X125650584Y-91663181D01*
X125589261Y-91696666D01*
X125562903Y-91699500D01*
X124684298Y-91699500D01*
X124647432Y-91702401D01*
X124647426Y-91702402D01*
X124489606Y-91748254D01*
X124489603Y-91748255D01*
X124348137Y-91831917D01*
X124348129Y-91831923D01*
X124312181Y-91867872D01*
X124250858Y-91901357D01*
X124181166Y-91896373D01*
X124125233Y-91854501D01*
X124100816Y-91789037D01*
X124100500Y-91780191D01*
X124100500Y-86631809D01*
X124120185Y-86564770D01*
X124172989Y-86519015D01*
X124242147Y-86509071D01*
X124305703Y-86538096D01*
X124312181Y-86544128D01*
X124348129Y-86580076D01*
X124348133Y-86580079D01*
X124348135Y-86580081D01*
X124489602Y-86663744D01*
X124531224Y-86675836D01*
X124647426Y-86709597D01*
X124647429Y-86709597D01*
X124647431Y-86709598D01*
X124684306Y-86712500D01*
X124684314Y-86712500D01*
X126065686Y-86712500D01*
X126065694Y-86712500D01*
X126102569Y-86709598D01*
X126102571Y-86709597D01*
X126102573Y-86709597D01*
X126144191Y-86697505D01*
X126260398Y-86663744D01*
X126401865Y-86580081D01*
X126518081Y-86463865D01*
X126601744Y-86322398D01*
X126643932Y-86177187D01*
X126647597Y-86164573D01*
X126647598Y-86164567D01*
X126650499Y-86127701D01*
X126650500Y-86127694D01*
X126650500Y-85696306D01*
X126647598Y-85659431D01*
X126643609Y-85645702D01*
X126601745Y-85501606D01*
X126601744Y-85501602D01*
X126586084Y-85475122D01*
X126568900Y-85407399D01*
X126586084Y-85348878D01*
X126601742Y-85322401D01*
X126601744Y-85322398D01*
X126647598Y-85164569D01*
X126650500Y-85127694D01*
X126650500Y-84696306D01*
X126647598Y-84659431D01*
X126601744Y-84501602D01*
X126586084Y-84475122D01*
X126568900Y-84407399D01*
X126575947Y-84370552D01*
X126579964Y-84359225D01*
X126601744Y-84322398D01*
X126641241Y-84186449D01*
X126642446Y-84183052D01*
X126660903Y-84157545D01*
X126677844Y-84131019D01*
X126681225Y-84129463D01*
X126683407Y-84126448D01*
X126712722Y-84114970D01*
X126741317Y-84101813D01*
X126747475Y-84101363D01*
X126748468Y-84100975D01*
X126749623Y-84101206D01*
X126759314Y-84100500D01*
X156360121Y-84100500D01*
X156427160Y-84120185D01*
G37*
%TD.AperFunction*%
%TA.AperFunction,Conductor*%
G36*
X139059341Y-94080185D02*
G01*
X139105096Y-94132989D01*
X139115040Y-94202147D01*
X139110008Y-94223503D01*
X139095495Y-94267299D01*
X139095493Y-94267309D01*
X139085000Y-94370013D01*
X139085000Y-94480000D01*
X142524999Y-94480000D01*
X142524999Y-94370028D01*
X142524998Y-94370013D01*
X142514506Y-94267304D01*
X142499992Y-94223505D01*
X142497590Y-94153676D01*
X142533321Y-94093634D01*
X142595841Y-94062441D01*
X142617698Y-94060500D01*
X156707053Y-94060500D01*
X156774092Y-94080185D01*
X156794734Y-94096819D01*
X157457334Y-94759419D01*
X157490819Y-94820742D01*
X157485835Y-94890434D01*
X157443963Y-94946367D01*
X157378499Y-94970784D01*
X157369653Y-94971100D01*
X134039500Y-94971100D01*
X133972461Y-94951415D01*
X133926706Y-94898611D01*
X133915500Y-94847100D01*
X133915499Y-94369998D01*
X133915498Y-94369980D01*
X133904999Y-94267203D01*
X133904998Y-94267199D01*
X133890519Y-94223504D01*
X133888117Y-94153675D01*
X133923849Y-94093634D01*
X133986370Y-94062441D01*
X134008225Y-94060500D01*
X138992302Y-94060500D01*
X139059341Y-94080185D01*
G37*
%TD.AperFunction*%
%TA.AperFunction,Conductor*%
G36*
X126855703Y-71555984D02*
G01*
X126862181Y-71562016D01*
X126863181Y-71563016D01*
X126896666Y-71624339D01*
X126899500Y-71650697D01*
X126899500Y-78827002D01*
X126879815Y-78894041D01*
X126863181Y-78914683D01*
X125702684Y-80075181D01*
X125641361Y-80108666D01*
X125615003Y-80111500D01*
X124684298Y-80111500D01*
X124647432Y-80114401D01*
X124647426Y-80114402D01*
X124489606Y-80160254D01*
X124489603Y-80160255D01*
X124348137Y-80243917D01*
X124348129Y-80243923D01*
X124312181Y-80279872D01*
X124250858Y-80313357D01*
X124181166Y-80308373D01*
X124125233Y-80266501D01*
X124100816Y-80201037D01*
X124100500Y-80192191D01*
X124100500Y-75219809D01*
X124120185Y-75152770D01*
X124172989Y-75107015D01*
X124242147Y-75097071D01*
X124305703Y-75126096D01*
X124312181Y-75132128D01*
X124348129Y-75168076D01*
X124348133Y-75168079D01*
X124348135Y-75168081D01*
X124489602Y-75251744D01*
X124531224Y-75263836D01*
X124647426Y-75297597D01*
X124647429Y-75297597D01*
X124647431Y-75297598D01*
X124684306Y-75300500D01*
X124684314Y-75300500D01*
X126065686Y-75300500D01*
X126065694Y-75300500D01*
X126102569Y-75297598D01*
X126102571Y-75297597D01*
X126102573Y-75297597D01*
X126144191Y-75285505D01*
X126260398Y-75251744D01*
X126401865Y-75168081D01*
X126518081Y-75051865D01*
X126601744Y-74910398D01*
X126643932Y-74765187D01*
X126647597Y-74752573D01*
X126647598Y-74752567D01*
X126650499Y-74715701D01*
X126650500Y-74715694D01*
X126650500Y-74284306D01*
X126647598Y-74247431D01*
X126601744Y-74089602D01*
X126586084Y-74063122D01*
X126568900Y-73995399D01*
X126586084Y-73936878D01*
X126601742Y-73910401D01*
X126601744Y-73910398D01*
X126647598Y-73752569D01*
X126650500Y-73715694D01*
X126650500Y-73284306D01*
X126647598Y-73247431D01*
X126601744Y-73089602D01*
X126586084Y-73063122D01*
X126568900Y-72995399D01*
X126586084Y-72936878D01*
X126601742Y-72910401D01*
X126601744Y-72910398D01*
X126634243Y-72798536D01*
X126647598Y-72752570D01*
X126647598Y-72752567D01*
X126650499Y-72715701D01*
X126650500Y-72715694D01*
X126650500Y-72284306D01*
X126647598Y-72247431D01*
X126601744Y-72089602D01*
X126586084Y-72063122D01*
X126568900Y-71995399D01*
X126586084Y-71936878D01*
X126601742Y-71910401D01*
X126601744Y-71910398D01*
X126647598Y-71752569D01*
X126650500Y-71715694D01*
X126650500Y-71649697D01*
X126670185Y-71582658D01*
X126722989Y-71536903D01*
X126792147Y-71526959D01*
X126855703Y-71555984D01*
G37*
%TD.AperFunction*%
%TD*%
M02*
