%TF.GenerationSoftware,KiCad,Pcbnew,10.0.3*%
%TF.CreationDate,2026-06-19T11:21:00-04:00*%
%TF.ProjectId,LauCameraTrigger_Alchitry_Stack,4c617543-616d-4657-9261-547269676765,rev?*%
%TF.SameCoordinates,Original*%
%TF.FileFunction,Profile,NP*%
%FSLAX46Y46*%
G04 Gerber Fmt 4.6, Leading zero omitted, Abs format (unit mm)*
G04 Created by KiCad (PCBNEW 10.0.3) date 2026-06-19 11:21:00*
%MOMM*%
%LPD*%
G01*
G04 APERTURE LIST*
%TA.AperFunction,Profile*%
%ADD10C,0.100000*%
%TD*%
G04 APERTURE END LIST*
D10*
X119545000Y-61912000D02*
X119545000Y-103912000D01*
X119545000Y-103912000D02*
X121045000Y-105412000D01*
X121045000Y-60412000D02*
X119545000Y-61912000D01*
X121045000Y-105412000D02*
X173045000Y-105412000D01*
X123145000Y-62912000D02*
G75*
G02*
X120945000Y-62912000I-1100000J0D01*
G01*
X120945000Y-62912000D02*
G75*
G02*
X123145000Y-62912000I1100000J0D01*
G01*
X123145000Y-102912000D02*
G75*
G02*
X120945000Y-102912000I-1100000J0D01*
G01*
X120945000Y-102912000D02*
G75*
G02*
X123145000Y-102912000I1100000J0D01*
G01*
X169045000Y-69912000D02*
X170545000Y-68412000D01*
X169045000Y-95912000D02*
X169045000Y-69912000D01*
X170545000Y-68412000D02*
X173045000Y-68412000D01*
X170545000Y-97412000D02*
X169045000Y-95912000D01*
X173145000Y-62912000D02*
G75*
G02*
X170945000Y-62912000I-1100000J0D01*
G01*
X170945000Y-62912000D02*
G75*
G02*
X173145000Y-62912000I1100000J0D01*
G01*
X173145000Y-102912000D02*
G75*
G02*
X170945000Y-102912000I-1100000J0D01*
G01*
X170945000Y-102912000D02*
G75*
G02*
X173145000Y-102912000I1100000J0D01*
G01*
X173045000Y-60412000D02*
X121045000Y-60412000D01*
X173045000Y-68412000D02*
X174545000Y-66912000D01*
X173045000Y-97412000D02*
X170545000Y-97412000D01*
X173045000Y-105412000D02*
X174545000Y-103912000D01*
X174545000Y-61912000D02*
X173045000Y-60412000D01*
X174545000Y-66912000D02*
X174545000Y-61912000D01*
X174545000Y-98912000D02*
X173045000Y-97412000D01*
X174545000Y-103912000D02*
X174545000Y-98912000D01*
M02*
