M48
; DRILL file KiCad 10.0.3 date 2026-06-19T11:21:59
; FORMAT={-:-/ absolute / metric / decimal}
; #@! TF.CreationDate,2026-06-19T11:21:59-04:00
; #@! TF.GenerationSoftware,Kicad,Pcbnew,10.0.3
; #@! TF.FileFunction,MixedPlating,1,2
FMAT,2
METRIC
; #@! TA.AperFunction,Plated,PTH,ViaDrill
T1C0.200
; #@! TA.AperFunction,Plated,PTH,ViaDrill
T2C0.300
%
G90
G05
T1
X126.838Y-81.436
X126.838Y-91.263
X131.245Y-69.0
X148.526Y-103.114
X149.512Y-88.315
X154.5Y-81.0
X154.945Y-98.0
X155.345Y-104.6
X156.145Y-98.0
X156.145Y-104.0
X156.545Y-104.6
X159.37Y-77.505
X168.5Y-102.009
T2
X125.5Y-77.5
X126.0Y-102.0
X131.0Y-72.0
X131.0Y-77.0
X131.0Y-82.0
X131.0Y-87.0
X136.0Y-72.0
X136.0Y-77.0
X136.0Y-82.0
X136.0Y-87.0
X141.0Y-72.0
X141.0Y-77.0
X141.0Y-82.0
X141.0Y-87.0
X146.0Y-72.0
X146.0Y-77.0
X146.0Y-82.0
X146.0Y-87.0
X146.0Y-92.0
X149.0Y-94.5
X151.0Y-72.0
X151.0Y-77.0
X151.0Y-82.0
X151.0Y-87.0
X151.0Y-92.0
X156.0Y-72.0
X157.0Y-96.5
X162.0Y-85.0
X166.0Y-72.0
M30
