%TF.GenerationSoftware,KiCad,Pcbnew,10.0.3*%
%TF.CreationDate,2026-06-19T11:21:00-04:00*%
%TF.ProjectId,LauCameraTrigger_Alchitry_Stack,4c617543-616d-4657-9261-547269676765,rev?*%
%TF.SameCoordinates,Original*%
%TF.FileFunction,Legend,Top*%
%TF.FilePolarity,Positive*%
%FSLAX46Y46*%
G04 Gerber Fmt 4.6, Leading zero omitted, Abs format (unit mm)*
G04 Created by KiCad (PCBNEW 10.0.3) date 2026-06-19 11:21:00*
%MOMM*%
%LPD*%
G01*
G04 APERTURE LIST*
%ADD10C,0.150000*%
%ADD11C,0.120000*%
G04 APERTURE END LIST*
D10*
X127762200Y-96499999D02*
X127809819Y-96357142D01*
X127809819Y-96357142D02*
X127809819Y-96119047D01*
X127809819Y-96119047D02*
X127762200Y-96023809D01*
X127762200Y-96023809D02*
X127714580Y-95976190D01*
X127714580Y-95976190D02*
X127619342Y-95928571D01*
X127619342Y-95928571D02*
X127524104Y-95928571D01*
X127524104Y-95928571D02*
X127428866Y-95976190D01*
X127428866Y-95976190D02*
X127381247Y-96023809D01*
X127381247Y-96023809D02*
X127333628Y-96119047D01*
X127333628Y-96119047D02*
X127286009Y-96309523D01*
X127286009Y-96309523D02*
X127238390Y-96404761D01*
X127238390Y-96404761D02*
X127190771Y-96452380D01*
X127190771Y-96452380D02*
X127095533Y-96499999D01*
X127095533Y-96499999D02*
X127000295Y-96499999D01*
X127000295Y-96499999D02*
X126905057Y-96452380D01*
X126905057Y-96452380D02*
X126857438Y-96404761D01*
X126857438Y-96404761D02*
X126809819Y-96309523D01*
X126809819Y-96309523D02*
X126809819Y-96071428D01*
X126809819Y-96071428D02*
X126857438Y-95928571D01*
X127809819Y-95023809D02*
X127809819Y-95499999D01*
X127809819Y-95499999D02*
X126809819Y-95499999D01*
X127524104Y-94738094D02*
X127524104Y-94261904D01*
X127809819Y-94833332D02*
X126809819Y-94499999D01*
X126809819Y-94499999D02*
X127809819Y-94166666D01*
X126809819Y-93976189D02*
X127809819Y-93642856D01*
X127809819Y-93642856D02*
X126809819Y-93309523D01*
X127286009Y-92976189D02*
X127286009Y-92642856D01*
X127809819Y-92499999D02*
X127809819Y-92976189D01*
X127809819Y-92976189D02*
X126809819Y-92976189D01*
X126809819Y-92976189D02*
X126809819Y-92499999D01*
X127809819Y-85483428D02*
X126809819Y-85483428D01*
X126809819Y-85483428D02*
X127524104Y-85150095D01*
X127524104Y-85150095D02*
X126809819Y-84816762D01*
X126809819Y-84816762D02*
X127809819Y-84816762D01*
X127524104Y-84388190D02*
X127524104Y-83912000D01*
X127809819Y-84483428D02*
X126809819Y-84150095D01*
X126809819Y-84150095D02*
X127809819Y-83816762D01*
X127762200Y-83531047D02*
X127809819Y-83388190D01*
X127809819Y-83388190D02*
X127809819Y-83150095D01*
X127809819Y-83150095D02*
X127762200Y-83054857D01*
X127762200Y-83054857D02*
X127714580Y-83007238D01*
X127714580Y-83007238D02*
X127619342Y-82959619D01*
X127619342Y-82959619D02*
X127524104Y-82959619D01*
X127524104Y-82959619D02*
X127428866Y-83007238D01*
X127428866Y-83007238D02*
X127381247Y-83054857D01*
X127381247Y-83054857D02*
X127333628Y-83150095D01*
X127333628Y-83150095D02*
X127286009Y-83340571D01*
X127286009Y-83340571D02*
X127238390Y-83435809D01*
X127238390Y-83435809D02*
X127190771Y-83483428D01*
X127190771Y-83483428D02*
X127095533Y-83531047D01*
X127095533Y-83531047D02*
X127000295Y-83531047D01*
X127000295Y-83531047D02*
X126905057Y-83483428D01*
X126905057Y-83483428D02*
X126857438Y-83435809D01*
X126857438Y-83435809D02*
X126809819Y-83340571D01*
X126809819Y-83340571D02*
X126809819Y-83102476D01*
X126809819Y-83102476D02*
X126857438Y-82959619D01*
X126809819Y-82673904D02*
X126809819Y-82102476D01*
X127809819Y-82388190D02*
X126809819Y-82388190D01*
X127286009Y-81769142D02*
X127286009Y-81435809D01*
X127809819Y-81292952D02*
X127809819Y-81769142D01*
X127809819Y-81769142D02*
X126809819Y-81769142D01*
X126809819Y-81769142D02*
X126809819Y-81292952D01*
X127809819Y-80292952D02*
X127333628Y-80626285D01*
X127809819Y-80864380D02*
X126809819Y-80864380D01*
X126809819Y-80864380D02*
X126809819Y-80483428D01*
X126809819Y-80483428D02*
X126857438Y-80388190D01*
X126857438Y-80388190D02*
X126905057Y-80340571D01*
X126905057Y-80340571D02*
X127000295Y-80292952D01*
X127000295Y-80292952D02*
X127143152Y-80292952D01*
X127143152Y-80292952D02*
X127238390Y-80340571D01*
X127238390Y-80340571D02*
X127286009Y-80388190D01*
X127286009Y-80388190D02*
X127333628Y-80483428D01*
X127333628Y-80483428D02*
X127333628Y-80864380D01*
X127762200Y-73499999D02*
X127809819Y-73357142D01*
X127809819Y-73357142D02*
X127809819Y-73119047D01*
X127809819Y-73119047D02*
X127762200Y-73023809D01*
X127762200Y-73023809D02*
X127714580Y-72976190D01*
X127714580Y-72976190D02*
X127619342Y-72928571D01*
X127619342Y-72928571D02*
X127524104Y-72928571D01*
X127524104Y-72928571D02*
X127428866Y-72976190D01*
X127428866Y-72976190D02*
X127381247Y-73023809D01*
X127381247Y-73023809D02*
X127333628Y-73119047D01*
X127333628Y-73119047D02*
X127286009Y-73309523D01*
X127286009Y-73309523D02*
X127238390Y-73404761D01*
X127238390Y-73404761D02*
X127190771Y-73452380D01*
X127190771Y-73452380D02*
X127095533Y-73499999D01*
X127095533Y-73499999D02*
X127000295Y-73499999D01*
X127000295Y-73499999D02*
X126905057Y-73452380D01*
X126905057Y-73452380D02*
X126857438Y-73404761D01*
X126857438Y-73404761D02*
X126809819Y-73309523D01*
X126809819Y-73309523D02*
X126809819Y-73071428D01*
X126809819Y-73071428D02*
X126857438Y-72928571D01*
X127809819Y-72023809D02*
X127809819Y-72499999D01*
X127809819Y-72499999D02*
X126809819Y-72499999D01*
X127524104Y-71738094D02*
X127524104Y-71261904D01*
X127809819Y-71833332D02*
X126809819Y-71499999D01*
X126809819Y-71499999D02*
X127809819Y-71166666D01*
X126809819Y-70976189D02*
X127809819Y-70642856D01*
X127809819Y-70642856D02*
X126809819Y-70309523D01*
X127286009Y-69976189D02*
X127286009Y-69642856D01*
X127809819Y-69499999D02*
X127809819Y-69976189D01*
X127809819Y-69976189D02*
X126809819Y-69976189D01*
X126809819Y-69976189D02*
X126809819Y-69499999D01*
%TO.C,SLAVE*%
D11*
X120690000Y-91060000D02*
X120690000Y-97940000D01*
X122660000Y-89890000D02*
X125160000Y-89890000D01*
X122660000Y-99110000D02*
X125160000Y-99110000D01*
X125160000Y-89890000D02*
X125160000Y-90940000D01*
X125160000Y-90940000D02*
X126150000Y-90940000D01*
X125160000Y-99110000D02*
X125160000Y-98060000D01*
%TO.C,R2*%
X164272936Y-88090000D02*
X165727064Y-88090000D01*
X164272936Y-89910000D02*
X165727064Y-89910000D01*
%TO.C,R6*%
X164272936Y-80090000D02*
X165727064Y-80090000D01*
X164272936Y-81910000D02*
X165727064Y-81910000D01*
%TO.C,C1*%
X162261252Y-70765000D02*
X161738748Y-70765000D01*
X162261252Y-72235000D02*
X161738748Y-72235000D01*
%TO.C,R1*%
X159727064Y-88090000D02*
X158272936Y-88090000D01*
X159727064Y-89910000D02*
X158272936Y-89910000D01*
%TO.C,R3*%
X159727064Y-84090000D02*
X158272936Y-84090000D01*
X159727064Y-85910000D02*
X158272936Y-85910000D01*
%TO.C,R7*%
X159727064Y-76090000D02*
X158272936Y-76090000D01*
X159727064Y-77910000D02*
X158272936Y-77910000D01*
%TO.C,MASTER*%
X120690000Y-79472000D02*
X120690000Y-86352000D01*
X122660000Y-78302000D02*
X125160000Y-78302000D01*
X122660000Y-87522000D02*
X125160000Y-87522000D01*
X125160000Y-78302000D02*
X125160000Y-79352000D01*
X125160000Y-79352000D02*
X126150000Y-79352000D01*
X125160000Y-87522000D02*
X125160000Y-86472000D01*
%TO.C,SW1*%
X132850000Y-89840000D02*
X132850000Y-91223000D01*
X132850000Y-89840000D02*
X134233000Y-89840000D01*
X133090000Y-90080000D02*
X133090000Y-91390000D01*
X133090000Y-90080000D02*
X139910000Y-90080000D01*
X133090000Y-92990000D02*
X133090000Y-93930000D01*
X133090000Y-95530000D02*
X133090000Y-96470000D01*
X133090000Y-98070000D02*
X133090000Y-99010000D01*
X133090000Y-100610000D02*
X133090000Y-101920000D01*
X133090000Y-101920000D02*
X139910000Y-101920000D01*
X135896667Y-91555000D02*
X135896667Y-92825000D01*
X135896667Y-94095000D02*
X135896667Y-95365000D01*
X135896667Y-96635000D02*
X135896667Y-97905000D01*
X135896667Y-99175000D02*
X135896667Y-100445000D01*
X139910000Y-90080000D02*
X139910000Y-91390000D01*
X139910000Y-92990000D02*
X139910000Y-93930000D01*
X139910000Y-95530000D02*
X139910000Y-96470000D01*
X139910000Y-98070000D02*
X139910000Y-99010000D01*
X139910000Y-100610000D02*
X139910000Y-101920000D01*
X134690000Y-91555000D02*
X135896667Y-91555000D01*
X135896667Y-92825000D01*
X134690000Y-92825000D01*
X134690000Y-91555000D01*
G36*
X134690000Y-91555000D02*
G01*
X135896667Y-91555000D01*
X135896667Y-92825000D01*
X134690000Y-92825000D01*
X134690000Y-91555000D01*
G37*
X134690000Y-91555000D02*
X138310000Y-91555000D01*
X138310000Y-92825000D01*
X134690000Y-92825000D01*
X134690000Y-91555000D01*
X134690000Y-94095000D02*
X135896667Y-94095000D01*
X135896667Y-95365000D01*
X134690000Y-95365000D01*
X134690000Y-94095000D01*
G36*
X134690000Y-94095000D02*
G01*
X135896667Y-94095000D01*
X135896667Y-95365000D01*
X134690000Y-95365000D01*
X134690000Y-94095000D01*
G37*
X134690000Y-94095000D02*
X138310000Y-94095000D01*
X138310000Y-95365000D01*
X134690000Y-95365000D01*
X134690000Y-94095000D01*
X134690000Y-96635000D02*
X135896667Y-96635000D01*
X135896667Y-97905000D01*
X134690000Y-97905000D01*
X134690000Y-96635000D01*
G36*
X134690000Y-96635000D02*
G01*
X135896667Y-96635000D01*
X135896667Y-97905000D01*
X134690000Y-97905000D01*
X134690000Y-96635000D01*
G37*
X134690000Y-96635000D02*
X138310000Y-96635000D01*
X138310000Y-97905000D01*
X134690000Y-97905000D01*
X134690000Y-96635000D01*
X134690000Y-99175000D02*
X135896667Y-99175000D01*
X135896667Y-100445000D01*
X134690000Y-100445000D01*
X134690000Y-99175000D01*
G36*
X134690000Y-99175000D02*
G01*
X135896667Y-99175000D01*
X135896667Y-100445000D01*
X134690000Y-100445000D01*
X134690000Y-99175000D01*
G37*
X134690000Y-99175000D02*
X138310000Y-99175000D01*
X138310000Y-100445000D01*
X134690000Y-100445000D01*
X134690000Y-99175000D01*
%TO.C,R4*%
X164272936Y-84090000D02*
X165727064Y-84090000D01*
X164272936Y-85910000D02*
X165727064Y-85910000D01*
%TO.C,SLAVE*%
X120690000Y-68060000D02*
X120690000Y-74940000D01*
X122660000Y-66890000D02*
X125160000Y-66890000D01*
X122660000Y-76110000D02*
X125160000Y-76110000D01*
X125160000Y-66890000D02*
X125160000Y-67940000D01*
X125160000Y-67940000D02*
X126150000Y-67940000D01*
X125160000Y-76110000D02*
X125160000Y-75060000D01*
%TO.C,C2*%
X162261252Y-93765000D02*
X161738748Y-93765000D01*
X162261252Y-95235000D02*
X161738748Y-95235000D01*
%TO.C,R5*%
X159727064Y-80090000D02*
X158272936Y-80090000D01*
X159727064Y-81910000D02*
X158272936Y-81910000D01*
%TO.C,R8*%
X164272936Y-76090000D02*
X165727064Y-76090000D01*
X164272936Y-77910000D02*
X165727064Y-77910000D01*
%TD*%
M02*
