%TF.GenerationSoftware,KiCad,Pcbnew,10.0.3*%
%TF.CreationDate,2026-07-28T18:07:57-04:00*%
%TF.ProjectId,LauPythonCamera_Pt_Stack,4c617550-7974-4686-9f6e-43616d657261,rev?*%
%TF.SameCoordinates,Original*%
%TF.FileFunction,Legend,Bot*%
%TF.FilePolarity,Positive*%
%FSLAX46Y46*%
G04 Gerber Fmt 4.6, Leading zero omitted, Abs format (unit mm)*
G04 Created by KiCad (PCBNEW 10.0.3) date 2026-07-28 18:07:57*
%MOMM*%
%LPD*%
G01*
G04 APERTURE LIST*
%ADD10C,0.150000*%
%ADD11C,0.120000*%
G04 APERTURE END LIST*
D10*
X146544580Y-86457142D02*
X146592200Y-86409523D01*
X146592200Y-86409523D02*
X146639819Y-86266666D01*
X146639819Y-86266666D02*
X146639819Y-86171428D01*
X146639819Y-86171428D02*
X146592200Y-86028571D01*
X146592200Y-86028571D02*
X146496961Y-85933333D01*
X146496961Y-85933333D02*
X146401723Y-85885714D01*
X146401723Y-85885714D02*
X146211247Y-85838095D01*
X146211247Y-85838095D02*
X146068390Y-85838095D01*
X146068390Y-85838095D02*
X145877914Y-85885714D01*
X145877914Y-85885714D02*
X145782676Y-85933333D01*
X145782676Y-85933333D02*
X145687438Y-86028571D01*
X145687438Y-86028571D02*
X145639819Y-86171428D01*
X145639819Y-86171428D02*
X145639819Y-86266666D01*
X145639819Y-86266666D02*
X145687438Y-86409523D01*
X145687438Y-86409523D02*
X145735057Y-86457142D01*
X146639819Y-87409523D02*
X146639819Y-86838095D01*
X146639819Y-87123809D02*
X145639819Y-87123809D01*
X145639819Y-87123809D02*
X145782676Y-87028571D01*
X145782676Y-87028571D02*
X145877914Y-86933333D01*
X145877914Y-86933333D02*
X145925533Y-86838095D01*
X145639819Y-88314285D02*
X145639819Y-87838095D01*
X145639819Y-87838095D02*
X146116009Y-87790476D01*
X146116009Y-87790476D02*
X146068390Y-87838095D01*
X146068390Y-87838095D02*
X146020771Y-87933333D01*
X146020771Y-87933333D02*
X146020771Y-88171428D01*
X146020771Y-88171428D02*
X146068390Y-88266666D01*
X146068390Y-88266666D02*
X146116009Y-88314285D01*
X146116009Y-88314285D02*
X146211247Y-88361904D01*
X146211247Y-88361904D02*
X146449342Y-88361904D01*
X146449342Y-88361904D02*
X146544580Y-88314285D01*
X146544580Y-88314285D02*
X146592200Y-88266666D01*
X146592200Y-88266666D02*
X146639819Y-88171428D01*
X146639819Y-88171428D02*
X146639819Y-87933333D01*
X146639819Y-87933333D02*
X146592200Y-87838095D01*
X146592200Y-87838095D02*
X146544580Y-87790476D01*
X144249580Y-84858333D02*
X144297200Y-84810714D01*
X144297200Y-84810714D02*
X144344819Y-84667857D01*
X144344819Y-84667857D02*
X144344819Y-84572619D01*
X144344819Y-84572619D02*
X144297200Y-84429762D01*
X144297200Y-84429762D02*
X144201961Y-84334524D01*
X144201961Y-84334524D02*
X144106723Y-84286905D01*
X144106723Y-84286905D02*
X143916247Y-84239286D01*
X143916247Y-84239286D02*
X143773390Y-84239286D01*
X143773390Y-84239286D02*
X143582914Y-84286905D01*
X143582914Y-84286905D02*
X143487676Y-84334524D01*
X143487676Y-84334524D02*
X143392438Y-84429762D01*
X143392438Y-84429762D02*
X143344819Y-84572619D01*
X143344819Y-84572619D02*
X143344819Y-84667857D01*
X143344819Y-84667857D02*
X143392438Y-84810714D01*
X143392438Y-84810714D02*
X143440057Y-84858333D01*
X143344819Y-85715476D02*
X143344819Y-85525000D01*
X143344819Y-85525000D02*
X143392438Y-85429762D01*
X143392438Y-85429762D02*
X143440057Y-85382143D01*
X143440057Y-85382143D02*
X143582914Y-85286905D01*
X143582914Y-85286905D02*
X143773390Y-85239286D01*
X143773390Y-85239286D02*
X144154342Y-85239286D01*
X144154342Y-85239286D02*
X144249580Y-85286905D01*
X144249580Y-85286905D02*
X144297200Y-85334524D01*
X144297200Y-85334524D02*
X144344819Y-85429762D01*
X144344819Y-85429762D02*
X144344819Y-85620238D01*
X144344819Y-85620238D02*
X144297200Y-85715476D01*
X144297200Y-85715476D02*
X144249580Y-85763095D01*
X144249580Y-85763095D02*
X144154342Y-85810714D01*
X144154342Y-85810714D02*
X143916247Y-85810714D01*
X143916247Y-85810714D02*
X143821009Y-85763095D01*
X143821009Y-85763095D02*
X143773390Y-85715476D01*
X143773390Y-85715476D02*
X143725771Y-85620238D01*
X143725771Y-85620238D02*
X143725771Y-85429762D01*
X143725771Y-85429762D02*
X143773390Y-85334524D01*
X143773390Y-85334524D02*
X143821009Y-85286905D01*
X143821009Y-85286905D02*
X143916247Y-85239286D01*
X148266666Y-82284819D02*
X148599999Y-81808628D01*
X148838094Y-82284819D02*
X148838094Y-81284819D01*
X148838094Y-81284819D02*
X148457142Y-81284819D01*
X148457142Y-81284819D02*
X148361904Y-81332438D01*
X148361904Y-81332438D02*
X148314285Y-81380057D01*
X148314285Y-81380057D02*
X148266666Y-81475295D01*
X148266666Y-81475295D02*
X148266666Y-81618152D01*
X148266666Y-81618152D02*
X148314285Y-81713390D01*
X148314285Y-81713390D02*
X148361904Y-81761009D01*
X148361904Y-81761009D02*
X148457142Y-81808628D01*
X148457142Y-81808628D02*
X148838094Y-81808628D01*
X147885713Y-81380057D02*
X147838094Y-81332438D01*
X147838094Y-81332438D02*
X147742856Y-81284819D01*
X147742856Y-81284819D02*
X147504761Y-81284819D01*
X147504761Y-81284819D02*
X147409523Y-81332438D01*
X147409523Y-81332438D02*
X147361904Y-81380057D01*
X147361904Y-81380057D02*
X147314285Y-81475295D01*
X147314285Y-81475295D02*
X147314285Y-81570533D01*
X147314285Y-81570533D02*
X147361904Y-81713390D01*
X147361904Y-81713390D02*
X147933332Y-82284819D01*
X147933332Y-82284819D02*
X147314285Y-82284819D01*
X136191666Y-72274580D02*
X136239285Y-72322200D01*
X136239285Y-72322200D02*
X136382142Y-72369819D01*
X136382142Y-72369819D02*
X136477380Y-72369819D01*
X136477380Y-72369819D02*
X136620237Y-72322200D01*
X136620237Y-72322200D02*
X136715475Y-72226961D01*
X136715475Y-72226961D02*
X136763094Y-72131723D01*
X136763094Y-72131723D02*
X136810713Y-71941247D01*
X136810713Y-71941247D02*
X136810713Y-71798390D01*
X136810713Y-71798390D02*
X136763094Y-71607914D01*
X136763094Y-71607914D02*
X136715475Y-71512676D01*
X136715475Y-71512676D02*
X136620237Y-71417438D01*
X136620237Y-71417438D02*
X136477380Y-71369819D01*
X136477380Y-71369819D02*
X136382142Y-71369819D01*
X136382142Y-71369819D02*
X136239285Y-71417438D01*
X136239285Y-71417438D02*
X136191666Y-71465057D01*
X135858332Y-71369819D02*
X135239285Y-71369819D01*
X135239285Y-71369819D02*
X135572618Y-71750771D01*
X135572618Y-71750771D02*
X135429761Y-71750771D01*
X135429761Y-71750771D02*
X135334523Y-71798390D01*
X135334523Y-71798390D02*
X135286904Y-71846009D01*
X135286904Y-71846009D02*
X135239285Y-71941247D01*
X135239285Y-71941247D02*
X135239285Y-72179342D01*
X135239285Y-72179342D02*
X135286904Y-72274580D01*
X135286904Y-72274580D02*
X135334523Y-72322200D01*
X135334523Y-72322200D02*
X135429761Y-72369819D01*
X135429761Y-72369819D02*
X135715475Y-72369819D01*
X135715475Y-72369819D02*
X135810713Y-72322200D01*
X135810713Y-72322200D02*
X135858332Y-72274580D01*
X146344580Y-79833333D02*
X146392200Y-79785714D01*
X146392200Y-79785714D02*
X146439819Y-79642857D01*
X146439819Y-79642857D02*
X146439819Y-79547619D01*
X146439819Y-79547619D02*
X146392200Y-79404762D01*
X146392200Y-79404762D02*
X146296961Y-79309524D01*
X146296961Y-79309524D02*
X146201723Y-79261905D01*
X146201723Y-79261905D02*
X146011247Y-79214286D01*
X146011247Y-79214286D02*
X145868390Y-79214286D01*
X145868390Y-79214286D02*
X145677914Y-79261905D01*
X145677914Y-79261905D02*
X145582676Y-79309524D01*
X145582676Y-79309524D02*
X145487438Y-79404762D01*
X145487438Y-79404762D02*
X145439819Y-79547619D01*
X145439819Y-79547619D02*
X145439819Y-79642857D01*
X145439819Y-79642857D02*
X145487438Y-79785714D01*
X145487438Y-79785714D02*
X145535057Y-79833333D01*
X145439819Y-80738095D02*
X145439819Y-80261905D01*
X145439819Y-80261905D02*
X145916009Y-80214286D01*
X145916009Y-80214286D02*
X145868390Y-80261905D01*
X145868390Y-80261905D02*
X145820771Y-80357143D01*
X145820771Y-80357143D02*
X145820771Y-80595238D01*
X145820771Y-80595238D02*
X145868390Y-80690476D01*
X145868390Y-80690476D02*
X145916009Y-80738095D01*
X145916009Y-80738095D02*
X146011247Y-80785714D01*
X146011247Y-80785714D02*
X146249342Y-80785714D01*
X146249342Y-80785714D02*
X146344580Y-80738095D01*
X146344580Y-80738095D02*
X146392200Y-80690476D01*
X146392200Y-80690476D02*
X146439819Y-80595238D01*
X146439819Y-80595238D02*
X146439819Y-80357143D01*
X146439819Y-80357143D02*
X146392200Y-80261905D01*
X146392200Y-80261905D02*
X146344580Y-80214286D01*
X144024580Y-77733333D02*
X144072200Y-77685714D01*
X144072200Y-77685714D02*
X144119819Y-77542857D01*
X144119819Y-77542857D02*
X144119819Y-77447619D01*
X144119819Y-77447619D02*
X144072200Y-77304762D01*
X144072200Y-77304762D02*
X143976961Y-77209524D01*
X143976961Y-77209524D02*
X143881723Y-77161905D01*
X143881723Y-77161905D02*
X143691247Y-77114286D01*
X143691247Y-77114286D02*
X143548390Y-77114286D01*
X143548390Y-77114286D02*
X143357914Y-77161905D01*
X143357914Y-77161905D02*
X143262676Y-77209524D01*
X143262676Y-77209524D02*
X143167438Y-77304762D01*
X143167438Y-77304762D02*
X143119819Y-77447619D01*
X143119819Y-77447619D02*
X143119819Y-77542857D01*
X143119819Y-77542857D02*
X143167438Y-77685714D01*
X143167438Y-77685714D02*
X143215057Y-77733333D01*
X144119819Y-78685714D02*
X144119819Y-78114286D01*
X144119819Y-78400000D02*
X143119819Y-78400000D01*
X143119819Y-78400000D02*
X143262676Y-78304762D01*
X143262676Y-78304762D02*
X143357914Y-78209524D01*
X143357914Y-78209524D02*
X143405533Y-78114286D01*
X144219580Y-86933333D02*
X144267200Y-86885714D01*
X144267200Y-86885714D02*
X144314819Y-86742857D01*
X144314819Y-86742857D02*
X144314819Y-86647619D01*
X144314819Y-86647619D02*
X144267200Y-86504762D01*
X144267200Y-86504762D02*
X144171961Y-86409524D01*
X144171961Y-86409524D02*
X144076723Y-86361905D01*
X144076723Y-86361905D02*
X143886247Y-86314286D01*
X143886247Y-86314286D02*
X143743390Y-86314286D01*
X143743390Y-86314286D02*
X143552914Y-86361905D01*
X143552914Y-86361905D02*
X143457676Y-86409524D01*
X143457676Y-86409524D02*
X143362438Y-86504762D01*
X143362438Y-86504762D02*
X143314819Y-86647619D01*
X143314819Y-86647619D02*
X143314819Y-86742857D01*
X143314819Y-86742857D02*
X143362438Y-86885714D01*
X143362438Y-86885714D02*
X143410057Y-86933333D01*
X143410057Y-87314286D02*
X143362438Y-87361905D01*
X143362438Y-87361905D02*
X143314819Y-87457143D01*
X143314819Y-87457143D02*
X143314819Y-87695238D01*
X143314819Y-87695238D02*
X143362438Y-87790476D01*
X143362438Y-87790476D02*
X143410057Y-87838095D01*
X143410057Y-87838095D02*
X143505295Y-87885714D01*
X143505295Y-87885714D02*
X143600533Y-87885714D01*
X143600533Y-87885714D02*
X143743390Y-87838095D01*
X143743390Y-87838095D02*
X144314819Y-87266667D01*
X144314819Y-87266667D02*
X144314819Y-87885714D01*
X142099580Y-77262142D02*
X142147200Y-77214523D01*
X142147200Y-77214523D02*
X142194819Y-77071666D01*
X142194819Y-77071666D02*
X142194819Y-76976428D01*
X142194819Y-76976428D02*
X142147200Y-76833571D01*
X142147200Y-76833571D02*
X142051961Y-76738333D01*
X142051961Y-76738333D02*
X141956723Y-76690714D01*
X141956723Y-76690714D02*
X141766247Y-76643095D01*
X141766247Y-76643095D02*
X141623390Y-76643095D01*
X141623390Y-76643095D02*
X141432914Y-76690714D01*
X141432914Y-76690714D02*
X141337676Y-76738333D01*
X141337676Y-76738333D02*
X141242438Y-76833571D01*
X141242438Y-76833571D02*
X141194819Y-76976428D01*
X141194819Y-76976428D02*
X141194819Y-77071666D01*
X141194819Y-77071666D02*
X141242438Y-77214523D01*
X141242438Y-77214523D02*
X141290057Y-77262142D01*
X142194819Y-78214523D02*
X142194819Y-77643095D01*
X142194819Y-77928809D02*
X141194819Y-77928809D01*
X141194819Y-77928809D02*
X141337676Y-77833571D01*
X141337676Y-77833571D02*
X141432914Y-77738333D01*
X141432914Y-77738333D02*
X141480533Y-77643095D01*
X141290057Y-78595476D02*
X141242438Y-78643095D01*
X141242438Y-78643095D02*
X141194819Y-78738333D01*
X141194819Y-78738333D02*
X141194819Y-78976428D01*
X141194819Y-78976428D02*
X141242438Y-79071666D01*
X141242438Y-79071666D02*
X141290057Y-79119285D01*
X141290057Y-79119285D02*
X141385295Y-79166904D01*
X141385295Y-79166904D02*
X141480533Y-79166904D01*
X141480533Y-79166904D02*
X141623390Y-79119285D01*
X141623390Y-79119285D02*
X142194819Y-78547857D01*
X142194819Y-78547857D02*
X142194819Y-79166904D01*
X136667857Y-74324580D02*
X136715476Y-74372200D01*
X136715476Y-74372200D02*
X136858333Y-74419819D01*
X136858333Y-74419819D02*
X136953571Y-74419819D01*
X136953571Y-74419819D02*
X137096428Y-74372200D01*
X137096428Y-74372200D02*
X137191666Y-74276961D01*
X137191666Y-74276961D02*
X137239285Y-74181723D01*
X137239285Y-74181723D02*
X137286904Y-73991247D01*
X137286904Y-73991247D02*
X137286904Y-73848390D01*
X137286904Y-73848390D02*
X137239285Y-73657914D01*
X137239285Y-73657914D02*
X137191666Y-73562676D01*
X137191666Y-73562676D02*
X137096428Y-73467438D01*
X137096428Y-73467438D02*
X136953571Y-73419819D01*
X136953571Y-73419819D02*
X136858333Y-73419819D01*
X136858333Y-73419819D02*
X136715476Y-73467438D01*
X136715476Y-73467438D02*
X136667857Y-73515057D01*
X135715476Y-74419819D02*
X136286904Y-74419819D01*
X136001190Y-74419819D02*
X136001190Y-73419819D01*
X136001190Y-73419819D02*
X136096428Y-73562676D01*
X136096428Y-73562676D02*
X136191666Y-73657914D01*
X136191666Y-73657914D02*
X136286904Y-73705533D01*
X135382142Y-73419819D02*
X134763095Y-73419819D01*
X134763095Y-73419819D02*
X135096428Y-73800771D01*
X135096428Y-73800771D02*
X134953571Y-73800771D01*
X134953571Y-73800771D02*
X134858333Y-73848390D01*
X134858333Y-73848390D02*
X134810714Y-73896009D01*
X134810714Y-73896009D02*
X134763095Y-73991247D01*
X134763095Y-73991247D02*
X134763095Y-74229342D01*
X134763095Y-74229342D02*
X134810714Y-74324580D01*
X134810714Y-74324580D02*
X134858333Y-74372200D01*
X134858333Y-74372200D02*
X134953571Y-74419819D01*
X134953571Y-74419819D02*
X135239285Y-74419819D01*
X135239285Y-74419819D02*
X135334523Y-74372200D01*
X135334523Y-74372200D02*
X135382142Y-74324580D01*
X141899580Y-84382142D02*
X141947200Y-84334523D01*
X141947200Y-84334523D02*
X141994819Y-84191666D01*
X141994819Y-84191666D02*
X141994819Y-84096428D01*
X141994819Y-84096428D02*
X141947200Y-83953571D01*
X141947200Y-83953571D02*
X141851961Y-83858333D01*
X141851961Y-83858333D02*
X141756723Y-83810714D01*
X141756723Y-83810714D02*
X141566247Y-83763095D01*
X141566247Y-83763095D02*
X141423390Y-83763095D01*
X141423390Y-83763095D02*
X141232914Y-83810714D01*
X141232914Y-83810714D02*
X141137676Y-83858333D01*
X141137676Y-83858333D02*
X141042438Y-83953571D01*
X141042438Y-83953571D02*
X140994819Y-84096428D01*
X140994819Y-84096428D02*
X140994819Y-84191666D01*
X140994819Y-84191666D02*
X141042438Y-84334523D01*
X141042438Y-84334523D02*
X141090057Y-84382142D01*
X141994819Y-85334523D02*
X141994819Y-84763095D01*
X141994819Y-85048809D02*
X140994819Y-85048809D01*
X140994819Y-85048809D02*
X141137676Y-84953571D01*
X141137676Y-84953571D02*
X141232914Y-84858333D01*
X141232914Y-84858333D02*
X141280533Y-84763095D01*
X140994819Y-85667857D02*
X140994819Y-86334523D01*
X140994819Y-86334523D02*
X141994819Y-85905952D01*
X144419580Y-79357142D02*
X144467200Y-79309523D01*
X144467200Y-79309523D02*
X144514819Y-79166666D01*
X144514819Y-79166666D02*
X144514819Y-79071428D01*
X144514819Y-79071428D02*
X144467200Y-78928571D01*
X144467200Y-78928571D02*
X144371961Y-78833333D01*
X144371961Y-78833333D02*
X144276723Y-78785714D01*
X144276723Y-78785714D02*
X144086247Y-78738095D01*
X144086247Y-78738095D02*
X143943390Y-78738095D01*
X143943390Y-78738095D02*
X143752914Y-78785714D01*
X143752914Y-78785714D02*
X143657676Y-78833333D01*
X143657676Y-78833333D02*
X143562438Y-78928571D01*
X143562438Y-78928571D02*
X143514819Y-79071428D01*
X143514819Y-79071428D02*
X143514819Y-79166666D01*
X143514819Y-79166666D02*
X143562438Y-79309523D01*
X143562438Y-79309523D02*
X143610057Y-79357142D01*
X144514819Y-80309523D02*
X144514819Y-79738095D01*
X144514819Y-80023809D02*
X143514819Y-80023809D01*
X143514819Y-80023809D02*
X143657676Y-79928571D01*
X143657676Y-79928571D02*
X143752914Y-79833333D01*
X143752914Y-79833333D02*
X143800533Y-79738095D01*
X143514819Y-81166666D02*
X143514819Y-80976190D01*
X143514819Y-80976190D02*
X143562438Y-80880952D01*
X143562438Y-80880952D02*
X143610057Y-80833333D01*
X143610057Y-80833333D02*
X143752914Y-80738095D01*
X143752914Y-80738095D02*
X143943390Y-80690476D01*
X143943390Y-80690476D02*
X144324342Y-80690476D01*
X144324342Y-80690476D02*
X144419580Y-80738095D01*
X144419580Y-80738095D02*
X144467200Y-80785714D01*
X144467200Y-80785714D02*
X144514819Y-80880952D01*
X144514819Y-80880952D02*
X144514819Y-81071428D01*
X144514819Y-81071428D02*
X144467200Y-81166666D01*
X144467200Y-81166666D02*
X144419580Y-81214285D01*
X144419580Y-81214285D02*
X144324342Y-81261904D01*
X144324342Y-81261904D02*
X144086247Y-81261904D01*
X144086247Y-81261904D02*
X143991009Y-81214285D01*
X143991009Y-81214285D02*
X143943390Y-81166666D01*
X143943390Y-81166666D02*
X143895771Y-81071428D01*
X143895771Y-81071428D02*
X143895771Y-80880952D01*
X143895771Y-80880952D02*
X143943390Y-80785714D01*
X143943390Y-80785714D02*
X143991009Y-80738095D01*
X143991009Y-80738095D02*
X144086247Y-80690476D01*
%TO.C,C15*%
D11*
X144665000Y-87207836D02*
X144665000Y-86992164D01*
X145385000Y-87207836D02*
X145385000Y-86992164D01*
%TO.C,C6*%
X144690000Y-84917164D02*
X144690000Y-85132836D01*
X145410000Y-84917164D02*
X145410000Y-85132836D01*
%TO.C,R2*%
X148253641Y-82620000D02*
X147946359Y-82620000D01*
X148253641Y-83380000D02*
X147946359Y-83380000D01*
%TO.C,C3*%
X136132836Y-72715000D02*
X135917164Y-72715000D01*
X136132836Y-73435000D02*
X135917164Y-73435000D01*
%TO.C,J3*%
X110630000Y-62965000D02*
X110630000Y-65035000D01*
X110630000Y-65035000D02*
X110790000Y-65035000D01*
X110790000Y-62965000D02*
X110630000Y-62965000D01*
X111483494Y-66400000D02*
X111700000Y-66025000D01*
X111700000Y-66025000D02*
X111916506Y-66400000D01*
X111916506Y-66400000D02*
X111483494Y-66400000D01*
X122210000Y-65035000D02*
X122370000Y-65035000D01*
X122370000Y-62965000D02*
X122210000Y-62965000D01*
X122370000Y-65035000D02*
X122370000Y-62965000D01*
%TO.C,C5*%
X144465000Y-80107836D02*
X144465000Y-79892164D01*
X145185000Y-80107836D02*
X145185000Y-79892164D01*
%TO.C,C1*%
X144465000Y-77792164D02*
X144465000Y-78007836D01*
X145185000Y-77792164D02*
X145185000Y-78007836D01*
%TO.C,C2*%
X142340000Y-87207836D02*
X142340000Y-86992164D01*
X143060000Y-87207836D02*
X143060000Y-86992164D01*
%TO.C,J2*%
X129130000Y-99965000D02*
X129130000Y-102035000D01*
X129130000Y-102035000D02*
X129290000Y-102035000D01*
X129290000Y-99965000D02*
X129130000Y-99965000D01*
X129983494Y-103400000D02*
X130200000Y-103025000D01*
X130200000Y-103025000D02*
X130416506Y-103400000D01*
X130416506Y-103400000D02*
X129983494Y-103400000D01*
X146710000Y-102035000D02*
X146870000Y-102035000D01*
X146870000Y-99965000D02*
X146710000Y-99965000D01*
X146870000Y-102035000D02*
X146870000Y-99965000D01*
%TO.C,C12*%
X142540000Y-77797164D02*
X142540000Y-78012836D01*
X143260000Y-77797164D02*
X143260000Y-78012836D01*
%TO.C,J1*%
X129130000Y-62965000D02*
X129130000Y-65035000D01*
X129130000Y-65035000D02*
X129290000Y-65035000D01*
X129290000Y-62965000D02*
X129130000Y-62965000D01*
X129983494Y-66400000D02*
X130200000Y-66025000D01*
X130200000Y-66025000D02*
X130416506Y-66400000D01*
X130416506Y-66400000D02*
X129983494Y-66400000D01*
X146710000Y-65035000D02*
X146870000Y-65035000D01*
X146870000Y-62965000D02*
X146710000Y-62965000D01*
X146870000Y-65035000D02*
X146870000Y-62965000D01*
%TO.C,C13*%
X136132836Y-74765000D02*
X135917164Y-74765000D01*
X136132836Y-75485000D02*
X135917164Y-75485000D01*
%TO.C,C17*%
X142340000Y-84917164D02*
X142340000Y-85132836D01*
X143060000Y-84917164D02*
X143060000Y-85132836D01*
%TO.C,C16*%
X142540000Y-80107836D02*
X142540000Y-79892164D01*
X143260000Y-80107836D02*
X143260000Y-79892164D01*
%TD*%
M02*
