%TF.GenerationSoftware,KiCad,Pcbnew,10.0.3*%
%TF.CreationDate,2026-07-16T16:52:14-04:00*%
%TF.ProjectId,LauPythonCamera_Pt_Stack,4c617550-7974-4686-9f6e-43616d657261,rev?*%
%TF.SameCoordinates,Original*%
%TF.FileFunction,Soldermask,Bot*%
%TF.FilePolarity,Negative*%
%FSLAX46Y46*%
G04 Gerber Fmt 4.6, Leading zero omitted, Abs format (unit mm)*
G04 Created by KiCad (PCBNEW 10.0.3) date 2026-07-16 16:52:14*
%MOMM*%
%LPD*%
G01*
G04 APERTURE LIST*
G04 Aperture macros list*
%AMRoundRect*
0 Rectangle with rounded corners*
0 $1 Rounding radius*
0 $2 $3 $4 $5 $6 $7 $8 $9 X,Y pos of 4 corners*
0 Add a 4 corners polygon primitive as box body*
4,1,4,$2,$3,$4,$5,$6,$7,$8,$9,$2,$3,0*
0 Add four circle primitives for the rounded corners*
1,1,$1+$1,$2,$3*
1,1,$1+$1,$4,$5*
1,1,$1+$1,$6,$7*
1,1,$1+$1,$8,$9*
0 Add four rect primitives between the rounded corners*
20,1,$1+$1,$2,$3,$4,$5,0*
20,1,$1+$1,$4,$5,$6,$7,0*
20,1,$1+$1,$6,$7,$8,$9,0*
20,1,$1+$1,$8,$9,$2,$3,0*%
G04 Aperture macros list end*
%ADD10C,1.600000*%
%ADD11RoundRect,0.135000X0.135000X0.185000X-0.135000X0.185000X-0.135000X-0.185000X0.135000X-0.185000X0*%
%ADD12RoundRect,0.057500X-0.057500X-0.272500X0.057500X-0.272500X0.057500X0.272500X-0.057500X0.272500X0*%
%ADD13R,0.350000X0.660000*%
G04 APERTURE END LIST*
D10*
%TO.C,U1*%
X127618000Y-90128000D03*
X144128000Y-73618000D03*
%TD*%
D11*
%TO.C,R2*%
X148610000Y-83000000D03*
X147590000Y-83000000D03*
%TD*%
D12*
%TO.C,J3*%
X111700000Y-65355000D03*
X111700000Y-62645000D03*
X112100000Y-65355000D03*
X112100000Y-62645000D03*
X112500000Y-65355000D03*
X112500000Y-62645000D03*
X112900000Y-65355000D03*
X112900000Y-62645000D03*
X113300000Y-65355000D03*
X113300000Y-62645000D03*
X113700000Y-65355000D03*
X113700000Y-62645000D03*
X114100000Y-65355000D03*
X114100000Y-62645000D03*
X114500000Y-65355000D03*
X114500000Y-62645000D03*
X114900000Y-65355000D03*
X114900000Y-62645000D03*
X115300000Y-65355000D03*
X115300000Y-62645000D03*
X115700000Y-65355000D03*
X115700000Y-62645000D03*
X116100000Y-65355000D03*
X116100000Y-62645000D03*
X116500000Y-65355000D03*
X116500000Y-62645000D03*
X116900000Y-65355000D03*
X116900000Y-62645000D03*
X117300000Y-65355000D03*
X117300000Y-62645000D03*
X117700000Y-65355000D03*
X117700000Y-62645000D03*
X118100000Y-65355000D03*
X118100000Y-62645000D03*
X118500000Y-65355000D03*
X118500000Y-62645000D03*
X118900000Y-65355000D03*
X118900000Y-62645000D03*
X119300000Y-65355000D03*
X119300000Y-62645000D03*
X119700000Y-65355000D03*
X119700000Y-62645000D03*
X120100000Y-65355000D03*
X120100000Y-62645000D03*
X120500000Y-65355000D03*
X120500000Y-62645000D03*
X120900000Y-65355000D03*
X120900000Y-62645000D03*
X121300000Y-65355000D03*
X121300000Y-62645000D03*
D13*
X111225000Y-62645000D03*
X111225000Y-65355000D03*
X121775000Y-62645000D03*
X121775000Y-65355000D03*
%TD*%
D12*
%TO.C,J2*%
X130200000Y-102355000D03*
X130200000Y-99645000D03*
X130600000Y-102355000D03*
X130600000Y-99645000D03*
X131000000Y-102355000D03*
X131000000Y-99645000D03*
X131400000Y-102355000D03*
X131400000Y-99645000D03*
X131800000Y-102355000D03*
X131800000Y-99645000D03*
X132200000Y-102355000D03*
X132200000Y-99645000D03*
X132600000Y-102355000D03*
X132600000Y-99645000D03*
X133000000Y-102355000D03*
X133000000Y-99645000D03*
X133400000Y-102355000D03*
X133400000Y-99645000D03*
X133800000Y-102355000D03*
X133800000Y-99645000D03*
X134200000Y-102355000D03*
X134200000Y-99645000D03*
X134600000Y-102355000D03*
X134600000Y-99645000D03*
X135000000Y-102355000D03*
X135000000Y-99645000D03*
X135400000Y-102355000D03*
X135400000Y-99645000D03*
X135800000Y-102355000D03*
X135800000Y-99645000D03*
X136200000Y-102355000D03*
X136200000Y-99645000D03*
X136600000Y-102355000D03*
X136600000Y-99645000D03*
X137000000Y-102355000D03*
X137000000Y-99645000D03*
X137400000Y-102355000D03*
X137400000Y-99645000D03*
X137800000Y-102355000D03*
X137800000Y-99645000D03*
X138200000Y-102355000D03*
X138200000Y-99645000D03*
X138600000Y-102355000D03*
X138600000Y-99645000D03*
X139000000Y-102355000D03*
X139000000Y-99645000D03*
X139400000Y-102355000D03*
X139400000Y-99645000D03*
X139800000Y-102355000D03*
X139800000Y-99645000D03*
X140200000Y-102355000D03*
X140200000Y-99645000D03*
X140600000Y-102355000D03*
X140600000Y-99645000D03*
X141000000Y-102355000D03*
X141000000Y-99645000D03*
X141400000Y-102355000D03*
X141400000Y-99645000D03*
X141800000Y-102355000D03*
X141800000Y-99645000D03*
X142200000Y-102355000D03*
X142200000Y-99645000D03*
X142600000Y-102355000D03*
X142600000Y-99645000D03*
X143000000Y-102355000D03*
X143000000Y-99645000D03*
X143400000Y-102355000D03*
X143400000Y-99645000D03*
X143800000Y-102355000D03*
X143800000Y-99645000D03*
X144200000Y-102355000D03*
X144200000Y-99645000D03*
X144600000Y-102355000D03*
X144600000Y-99645000D03*
X145000000Y-102355000D03*
X145000000Y-99645000D03*
X145400000Y-102355000D03*
X145400000Y-99645000D03*
X145800000Y-102355000D03*
X145800000Y-99645000D03*
D13*
X129725000Y-99645000D03*
X129725000Y-102355000D03*
X146275000Y-99645000D03*
X146275000Y-102355000D03*
%TD*%
D12*
%TO.C,J1*%
X130200000Y-65355000D03*
X130200000Y-62645000D03*
X130600000Y-65355000D03*
X130600000Y-62645000D03*
X131000000Y-65355000D03*
X131000000Y-62645000D03*
X131400000Y-65355000D03*
X131400000Y-62645000D03*
X131800000Y-65355000D03*
X131800000Y-62645000D03*
X132200000Y-65355000D03*
X132200000Y-62645000D03*
X132600000Y-65355000D03*
X132600000Y-62645000D03*
X133000000Y-65355000D03*
X133000000Y-62645000D03*
X133400000Y-65355000D03*
X133400000Y-62645000D03*
X133800000Y-65355000D03*
X133800000Y-62645000D03*
X134200000Y-65355000D03*
X134200000Y-62645000D03*
X134600000Y-65355000D03*
X134600000Y-62645000D03*
X135000000Y-65355000D03*
X135000000Y-62645000D03*
X135400000Y-65355000D03*
X135400000Y-62645000D03*
X135800000Y-65355000D03*
X135800000Y-62645000D03*
X136200000Y-65355000D03*
X136200000Y-62645000D03*
X136600000Y-65355000D03*
X136600000Y-62645000D03*
X137000000Y-65355000D03*
X137000000Y-62645000D03*
X137400000Y-65355000D03*
X137400000Y-62645000D03*
X137800000Y-65355000D03*
X137800000Y-62645000D03*
X138200000Y-65355000D03*
X138200000Y-62645000D03*
X138600000Y-65355000D03*
X138600000Y-62645000D03*
X139000000Y-65355000D03*
X139000000Y-62645000D03*
X139400000Y-65355000D03*
X139400000Y-62645000D03*
X139800000Y-65355000D03*
X139800000Y-62645000D03*
X140200000Y-65355000D03*
X140200000Y-62645000D03*
X140600000Y-65355000D03*
X140600000Y-62645000D03*
X141000000Y-65355000D03*
X141000000Y-62645000D03*
X141400000Y-65355000D03*
X141400000Y-62645000D03*
X141800000Y-65355000D03*
X141800000Y-62645000D03*
X142200000Y-65355000D03*
X142200000Y-62645000D03*
X142600000Y-65355000D03*
X142600000Y-62645000D03*
X143000000Y-65355000D03*
X143000000Y-62645000D03*
X143400000Y-65355000D03*
X143400000Y-62645000D03*
X143800000Y-65355000D03*
X143800000Y-62645000D03*
X144200000Y-65355000D03*
X144200000Y-62645000D03*
X144600000Y-65355000D03*
X144600000Y-62645000D03*
X145000000Y-65355000D03*
X145000000Y-62645000D03*
X145400000Y-65355000D03*
X145400000Y-62645000D03*
X145800000Y-65355000D03*
X145800000Y-62645000D03*
D13*
X129725000Y-62645000D03*
X129725000Y-65355000D03*
X146275000Y-62645000D03*
X146275000Y-65355000D03*
%TD*%
M02*
