%TF.GenerationSoftware,KiCad,Pcbnew,10.0.3*%
%TF.CreationDate,2026-07-15T18:53:49-04:00*%
%TF.ProjectId,LauPythonCamera_Pt_Stack,4c617550-7974-4686-9f6e-43616d657261,rev?*%
%TF.SameCoordinates,Original*%
%TF.FileFunction,Paste,Top*%
%TF.FilePolarity,Positive*%
%FSLAX46Y46*%
G04 Gerber Fmt 4.6, Leading zero omitted, Abs format (unit mm)*
G04 Created by KiCad (PCBNEW 10.0.3) date 2026-07-15 18:53:49*
%MOMM*%
%LPD*%
G01*
G04 APERTURE LIST*
G04 Aperture macros list*
%AMRoundRect*
0 Rectangle with rounded corners*
0 $1 Rounding radius*
0 $2 $3 $4 $5 $6 $7 $8 $9 X,Y pos of 4 corners*
0 Add a 4 corners polygon primitive as box body*
4,1,4,$2,$3,$4,$5,$6,$7,$8,$9,$2,$3,0*
0 Add four circle primitives for the rounded corners*
1,1,$1+$1,$2,$3*
1,1,$1+$1,$4,$5*
1,1,$1+$1,$6,$7*
1,1,$1+$1,$8,$9*
0 Add four rect primitives between the rounded corners*
20,1,$1+$1,$2,$3,$4,$5,0*
20,1,$1+$1,$4,$5,$6,$7,0*
20,1,$1+$1,$6,$7,$8,$9,0*
20,1,$1+$1,$8,$9,$2,$3,0*%
G04 Aperture macros list end*
%ADD10RoundRect,0.250000X0.475000X-0.250000X0.475000X0.250000X-0.475000X0.250000X-0.475000X-0.250000X0*%
%ADD11RoundRect,0.140000X0.170000X-0.140000X0.170000X0.140000X-0.170000X0.140000X-0.170000X-0.140000X0*%
%ADD12RoundRect,0.135000X-0.135000X-0.185000X0.135000X-0.185000X0.135000X0.185000X-0.135000X0.185000X0*%
%ADD13RoundRect,0.135000X0.185000X-0.135000X0.185000X0.135000X-0.185000X0.135000X-0.185000X-0.135000X0*%
%ADD14RoundRect,0.140000X-0.140000X-0.170000X0.140000X-0.170000X0.140000X0.170000X-0.140000X0.170000X0*%
%ADD15RoundRect,0.225000X0.250000X-0.225000X0.250000X0.225000X-0.250000X0.225000X-0.250000X-0.225000X0*%
%ADD16RoundRect,0.225000X-0.225000X-0.250000X0.225000X-0.250000X0.225000X0.250000X-0.225000X0.250000X0*%
%ADD17RoundRect,0.150000X-0.512500X-0.150000X0.512500X-0.150000X0.512500X0.150000X-0.512500X0.150000X0*%
%ADD18RoundRect,0.063500X-1.206500X-0.254000X1.206500X-0.254000X1.206500X0.254000X-1.206500X0.254000X0*%
%ADD19RoundRect,0.063500X-0.254000X-1.206500X0.254000X-1.206500X0.254000X1.206500X-0.254000X1.206500X0*%
%ADD20RoundRect,0.150000X-0.587500X-0.150000X0.587500X-0.150000X0.587500X0.150000X-0.587500X0.150000X0*%
%ADD21RoundRect,0.087500X-0.250000X-0.087500X0.250000X-0.087500X0.250000X0.087500X-0.250000X0.087500X0*%
%ADD22R,0.950000X2.100000*%
G04 APERTURE END LIST*
D10*
%TO.C,C24*%
X114500000Y-82950000D03*
X114500000Y-81050000D03*
%TD*%
D11*
%TO.C,C27*%
X120500000Y-88480000D03*
X120500000Y-87520000D03*
%TD*%
D12*
%TO.C,R10*%
X118490000Y-101000000D03*
X119510000Y-101000000D03*
%TD*%
D13*
%TO.C,R4*%
X123750000Y-79210000D03*
X123750000Y-78190000D03*
%TD*%
%TO.C,R12*%
X123750000Y-83810000D03*
X123750000Y-82790000D03*
%TD*%
D11*
%TO.C,C15*%
X120500000Y-78980000D03*
X120500000Y-78020000D03*
%TD*%
D14*
%TO.C,C28*%
X143520000Y-67500000D03*
X144480000Y-67500000D03*
%TD*%
D10*
%TO.C,C23*%
X114500000Y-87950000D03*
X114500000Y-86050000D03*
%TD*%
D15*
%TO.C,C29*%
X103500000Y-82775000D03*
X103500000Y-81225000D03*
%TD*%
D14*
%TO.C,C21*%
X138020000Y-69400000D03*
X138980000Y-69400000D03*
%TD*%
D11*
%TO.C,C6*%
X122500000Y-83980000D03*
X122500000Y-83020000D03*
%TD*%
D13*
%TO.C,R7*%
X123750000Y-76910000D03*
X123750000Y-75890000D03*
%TD*%
%TO.C,R14*%
X148100000Y-81210000D03*
X148100000Y-80190000D03*
%TD*%
D15*
%TO.C,C35*%
X111000000Y-87775000D03*
X111000000Y-86225000D03*
%TD*%
D13*
%TO.C,R8*%
X105000000Y-78010000D03*
X105000000Y-76990000D03*
%TD*%
D10*
%TO.C,C33*%
X117500000Y-77350000D03*
X117500000Y-75450000D03*
%TD*%
D13*
%TO.C,R17*%
X113500000Y-97010000D03*
X113500000Y-95990000D03*
%TD*%
D14*
%TO.C,C22*%
X140520000Y-69400000D03*
X141480000Y-69400000D03*
%TD*%
D11*
%TO.C,C14*%
X120500000Y-76980000D03*
X120500000Y-76020000D03*
%TD*%
D13*
%TO.C,R16*%
X111000000Y-97010000D03*
X111000000Y-95990000D03*
%TD*%
D11*
%TO.C,C18*%
X120500000Y-85980000D03*
X120500000Y-85020000D03*
%TD*%
D12*
%TO.C,R5*%
X130890000Y-69700000D03*
X131910000Y-69700000D03*
%TD*%
D13*
%TO.C,R13*%
X123750000Y-86110000D03*
X123750000Y-85090000D03*
%TD*%
D14*
%TO.C,C10*%
X138020000Y-67500000D03*
X138980000Y-67500000D03*
%TD*%
D12*
%TO.C,R11*%
X121490000Y-101000000D03*
X122510000Y-101000000D03*
%TD*%
D11*
%TO.C,C3*%
X122500000Y-76980000D03*
X122500000Y-76020000D03*
%TD*%
%TO.C,C40*%
X108500000Y-96980000D03*
X108500000Y-96020000D03*
%TD*%
D16*
%TO.C,C36*%
X122225000Y-67500000D03*
X123775000Y-67500000D03*
%TD*%
D15*
%TO.C,C34*%
X103500000Y-87775000D03*
X103500000Y-86225000D03*
%TD*%
D17*
%TO.C,U2*%
X105862500Y-81050000D03*
X105862500Y-82000000D03*
X105862500Y-82950000D03*
X108137500Y-82950000D03*
X108137500Y-81050000D03*
%TD*%
D11*
%TO.C,C7*%
X122500000Y-85980000D03*
X122500000Y-85020000D03*
%TD*%
D18*
%TO.C,U1*%
X126094000Y-82508000D03*
X126094000Y-83524000D03*
X126094000Y-84540000D03*
X126094000Y-85556000D03*
X126094000Y-86572000D03*
X126094000Y-87588000D03*
D19*
X130412000Y-91906000D03*
X131428000Y-91906000D03*
X132444000Y-91906000D03*
X133460000Y-91906000D03*
X134476000Y-91906000D03*
X135492000Y-91906000D03*
X136508000Y-91906000D03*
X137524000Y-91906000D03*
X138540000Y-91906000D03*
X139556000Y-91906000D03*
X140572000Y-91906000D03*
X141588000Y-91906000D03*
D18*
X145906000Y-87588000D03*
X145906000Y-86572000D03*
X145906000Y-85556000D03*
X145906000Y-84540000D03*
X145906000Y-83524000D03*
X145906000Y-82508000D03*
X145906000Y-81492000D03*
X145906000Y-80476000D03*
X145906000Y-79460000D03*
X145906000Y-78444000D03*
X145906000Y-77428000D03*
X145906000Y-76412000D03*
D19*
X141588000Y-72094000D03*
X140572000Y-72094000D03*
X139556000Y-72094000D03*
X138540000Y-72094000D03*
X137524000Y-72094000D03*
X136508000Y-72094000D03*
X135492000Y-72094000D03*
X134476000Y-72094000D03*
X133460000Y-72094000D03*
X132444000Y-72094000D03*
X131428000Y-72094000D03*
X130412000Y-72094000D03*
D18*
X126094000Y-76412000D03*
X126094000Y-77428000D03*
X126094000Y-78444000D03*
X126094000Y-79460000D03*
X126094000Y-80476000D03*
X126094000Y-81492000D03*
%TD*%
D11*
%TO.C,C26*%
X122500000Y-88480000D03*
X122500000Y-87520000D03*
%TD*%
D15*
%TO.C,C30*%
X111000000Y-82775000D03*
X111000000Y-81225000D03*
%TD*%
D12*
%TO.C,R6*%
X128390000Y-69700000D03*
X129410000Y-69700000D03*
%TD*%
D11*
%TO.C,C5*%
X121500000Y-81980000D03*
X121500000Y-81020000D03*
%TD*%
D17*
%TO.C,U5*%
X125862500Y-66550000D03*
X125862500Y-67500000D03*
X125862500Y-68450000D03*
X128137500Y-68450000D03*
X128137500Y-66550000D03*
%TD*%
D14*
%TO.C,C19*%
X133020000Y-69400000D03*
X133980000Y-69400000D03*
%TD*%
D11*
%TO.C,C39*%
X113500000Y-92480000D03*
X113500000Y-91520000D03*
%TD*%
%TO.C,C1*%
X122500000Y-72980000D03*
X122500000Y-72020000D03*
%TD*%
%TO.C,C2*%
X122500000Y-74980000D03*
X122500000Y-74020000D03*
%TD*%
D13*
%TO.C,R1*%
X148200000Y-79010000D03*
X148200000Y-77990000D03*
%TD*%
D11*
%TO.C,C12*%
X120500000Y-72980000D03*
X120500000Y-72020000D03*
%TD*%
D13*
%TO.C,R9*%
X107500000Y-78010000D03*
X107500000Y-76990000D03*
%TD*%
D14*
%TO.C,C20*%
X135520000Y-69400000D03*
X136480000Y-69400000D03*
%TD*%
D13*
%TO.C,R15*%
X111000000Y-92510000D03*
X111000000Y-91490000D03*
%TD*%
D14*
%TO.C,C9*%
X135520000Y-67500000D03*
X136480000Y-67500000D03*
%TD*%
D11*
%TO.C,C13*%
X120500000Y-74980000D03*
X120500000Y-74020000D03*
%TD*%
D16*
%TO.C,C37*%
X130225000Y-67500000D03*
X131775000Y-67500000D03*
%TD*%
D11*
%TO.C,C17*%
X120500000Y-83980000D03*
X120500000Y-83020000D03*
%TD*%
%TO.C,C4*%
X122500000Y-78980000D03*
X122500000Y-78020000D03*
%TD*%
D14*
%TO.C,C11*%
X140520000Y-67500000D03*
X141480000Y-67500000D03*
%TD*%
D11*
%TO.C,C41*%
X116000000Y-96980000D03*
X116000000Y-96020000D03*
%TD*%
D10*
%TO.C,C32*%
X117500000Y-73150000D03*
X117500000Y-71250000D03*
%TD*%
D20*
%TO.C,U6*%
X104062500Y-91050000D03*
X104062500Y-92950000D03*
X105937500Y-92000000D03*
%TD*%
D17*
%TO.C,U4*%
X105862500Y-86050000D03*
X105862500Y-87000000D03*
X105862500Y-87950000D03*
X108137500Y-87950000D03*
X108137500Y-86050000D03*
%TD*%
D20*
%TO.C,U7*%
X104062500Y-95550000D03*
X104062500Y-97450000D03*
X105937500Y-96500000D03*
%TD*%
D11*
%TO.C,C16*%
X119550000Y-82005000D03*
X119550000Y-81045000D03*
%TD*%
D14*
%TO.C,C8*%
X133020000Y-67500000D03*
X133980000Y-67500000D03*
%TD*%
D11*
%TO.C,C38*%
X108500000Y-92480000D03*
X108500000Y-91520000D03*
%TD*%
D21*
%TO.C,U3*%
X106287500Y-72500000D03*
X106287500Y-73000000D03*
X106287500Y-73500000D03*
X107712500Y-73500000D03*
X107712500Y-73000000D03*
X107712500Y-72500000D03*
%TD*%
D22*
%TO.C,L1*%
X111325000Y-73500000D03*
X113675000Y-73500000D03*
%TD*%
D13*
%TO.C,R3*%
X123750000Y-81510000D03*
X123750000Y-80490000D03*
%TD*%
D10*
%TO.C,C31*%
X103500000Y-73950000D03*
X103500000Y-72050000D03*
%TD*%
M02*
