%TF.GenerationSoftware,KiCad,Pcbnew,10.0.3*%
%TF.CreationDate,2026-07-16T16:52:14-04:00*%
%TF.ProjectId,LauPythonCamera_Pt_Stack,4c617550-7974-4686-9f6e-43616d657261,rev?*%
%TF.SameCoordinates,Original*%
%TF.FileFunction,Copper,L1,Top*%
%TF.FilePolarity,Positive*%
%FSLAX46Y46*%
G04 Gerber Fmt 4.6, Leading zero omitted, Abs format (unit mm)*
G04 Created by KiCad (PCBNEW 10.0.3) date 2026-07-16 16:52:14*
%MOMM*%
%LPD*%
G01*
G04 APERTURE LIST*
G04 Aperture macros list*
%AMRoundRect*
0 Rectangle with rounded corners*
0 $1 Rounding radius*
0 $2 $3 $4 $5 $6 $7 $8 $9 X,Y pos of 4 corners*
0 Add a 4 corners polygon primitive as box body*
4,1,4,$2,$3,$4,$5,$6,$7,$8,$9,$2,$3,0*
0 Add four circle primitives for the rounded corners*
1,1,$1+$1,$2,$3*
1,1,$1+$1,$4,$5*
1,1,$1+$1,$6,$7*
1,1,$1+$1,$8,$9*
0 Add four rect primitives between the rounded corners*
20,1,$1+$1,$2,$3,$4,$5,0*
20,1,$1+$1,$4,$5,$6,$7,0*
20,1,$1+$1,$6,$7,$8,$9,0*
20,1,$1+$1,$8,$9,$2,$3,0*%
G04 Aperture macros list end*
%TA.AperFunction,SMDPad,CuDef*%
%ADD10RoundRect,0.250000X0.475000X-0.250000X0.475000X0.250000X-0.475000X0.250000X-0.475000X-0.250000X0*%
%TD*%
%TA.AperFunction,SMDPad,CuDef*%
%ADD11RoundRect,0.140000X0.170000X-0.140000X0.170000X0.140000X-0.170000X0.140000X-0.170000X-0.140000X0*%
%TD*%
%TA.AperFunction,SMDPad,CuDef*%
%ADD12RoundRect,0.135000X-0.135000X-0.185000X0.135000X-0.185000X0.135000X0.185000X-0.135000X0.185000X0*%
%TD*%
%TA.AperFunction,SMDPad,CuDef*%
%ADD13RoundRect,0.135000X0.185000X-0.135000X0.185000X0.135000X-0.185000X0.135000X-0.185000X-0.135000X0*%
%TD*%
%TA.AperFunction,SMDPad,CuDef*%
%ADD14RoundRect,0.140000X-0.140000X-0.170000X0.140000X-0.170000X0.140000X0.170000X-0.140000X0.170000X0*%
%TD*%
%TA.AperFunction,SMDPad,CuDef*%
%ADD15RoundRect,0.225000X0.250000X-0.225000X0.250000X0.225000X-0.250000X0.225000X-0.250000X-0.225000X0*%
%TD*%
%TA.AperFunction,SMDPad,CuDef*%
%ADD16RoundRect,0.225000X-0.225000X-0.250000X0.225000X-0.250000X0.225000X0.250000X-0.225000X0.250000X0*%
%TD*%
%TA.AperFunction,SMDPad,CuDef*%
%ADD17RoundRect,0.150000X-0.512500X-0.150000X0.512500X-0.150000X0.512500X0.150000X-0.512500X0.150000X0*%
%TD*%
%TA.AperFunction,SMDPad,CuDef*%
%ADD18RoundRect,0.063500X-1.206500X-0.254000X1.206500X-0.254000X1.206500X0.254000X-1.206500X0.254000X0*%
%TD*%
%TA.AperFunction,SMDPad,CuDef*%
%ADD19RoundRect,0.063500X-0.254000X-1.206500X0.254000X-1.206500X0.254000X1.206500X-0.254000X1.206500X0*%
%TD*%
%TA.AperFunction,SMDPad,CuDef*%
%ADD20RoundRect,0.150000X-0.587500X-0.150000X0.587500X-0.150000X0.587500X0.150000X-0.587500X0.150000X0*%
%TD*%
%TA.AperFunction,SMDPad,CuDef*%
%ADD21RoundRect,0.087500X-0.250000X-0.087500X0.250000X-0.087500X0.250000X0.087500X-0.250000X0.087500X0*%
%TD*%
%TA.AperFunction,SMDPad,CuDef*%
%ADD22R,0.950000X3.300000*%
%TD*%
%TA.AperFunction,ViaPad*%
%ADD23C,0.500000*%
%TD*%
%TA.AperFunction,ViaPad*%
%ADD24C,0.800000*%
%TD*%
%TA.AperFunction,ViaPad*%
%ADD25C,0.600000*%
%TD*%
%TA.AperFunction,Conductor*%
%ADD26C,0.500000*%
%TD*%
%TA.AperFunction,Conductor*%
%ADD27C,0.200000*%
%TD*%
%TA.AperFunction,Conductor*%
%ADD28C,0.250000*%
%TD*%
%TA.AperFunction,Conductor*%
%ADD29C,0.240000*%
%TD*%
%TA.AperFunction,Conductor*%
%ADD30C,0.150000*%
%TD*%
G04 APERTURE END LIST*
D10*
%TO.P,C24,1*%
%TO.N,+1V8_CAM*%
X114500000Y-82950000D03*
%TO.P,C24,2*%
%TO.N,GND*%
X114500000Y-81050000D03*
%TD*%
D11*
%TO.P,C27,1*%
%TO.N,+1V8_CAM*%
X120500000Y-88480000D03*
%TO.P,C27,2*%
%TO.N,GND*%
X120500000Y-87520000D03*
%TD*%
D12*
%TO.P,R10,1*%
%TO.N,+3V3_SYS*%
X118490000Y-101000000D03*
%TO.P,R10,2*%
%TO.N,VBSEL_A*%
X119510000Y-101000000D03*
%TD*%
D13*
%TO.P,R4,1*%
%TO.N,CAM_RESET_N*%
X123750000Y-79210000D03*
%TO.P,R4,2*%
%TO.N,GND*%
X123750000Y-78190000D03*
%TD*%
%TO.P,R12,1*%
%TO.N,CAM_MOSI*%
X123750000Y-83810000D03*
%TO.P,R12,2*%
%TO.N,GND*%
X123750000Y-82790000D03*
%TD*%
D11*
%TO.P,C15,1*%
%TO.N,+3V3_CAM*%
X120500000Y-78980000D03*
%TO.P,C15,2*%
%TO.N,GND*%
X120500000Y-78020000D03*
%TD*%
D14*
%TO.P,C28,1*%
%TO.N,+3V3_PIX*%
X143520000Y-67500000D03*
%TO.P,C28,2*%
%TO.N,GND*%
X144480000Y-67500000D03*
%TD*%
D10*
%TO.P,C23,1*%
%TO.N,+3V3_CAM*%
X114500000Y-87950000D03*
%TO.P,C23,2*%
%TO.N,GND*%
X114500000Y-86050000D03*
%TD*%
D15*
%TO.P,C29,1*%
%TO.N,+3V3_SYS*%
X103500000Y-82775000D03*
%TO.P,C29,2*%
%TO.N,GND*%
X103500000Y-81225000D03*
%TD*%
D14*
%TO.P,C21,1*%
%TO.N,+3V3_PIX*%
X138020000Y-69400000D03*
%TO.P,C21,2*%
%TO.N,GND*%
X138980000Y-69400000D03*
%TD*%
D11*
%TO.P,C6,1*%
%TO.N,+1V8_CAM*%
X122500000Y-83980000D03*
%TO.P,C6,2*%
%TO.N,GND*%
X122500000Y-83020000D03*
%TD*%
D13*
%TO.P,R7,1*%
%TO.N,CAM_TRIG2*%
X123750000Y-76910000D03*
%TO.P,R7,2*%
%TO.N,GND*%
X123750000Y-75890000D03*
%TD*%
%TO.P,R14,1*%
%TO.N,CAM_CLK_PLL*%
X148100000Y-81210000D03*
%TO.P,R14,2*%
%TO.N,GND*%
X148100000Y-80190000D03*
%TD*%
D15*
%TO.P,C35,1*%
%TO.N,+3V3_CAM*%
X111000000Y-87775000D03*
%TO.P,C35,2*%
%TO.N,GND*%
X111000000Y-86225000D03*
%TD*%
D13*
%TO.P,R8,1*%
%TO.N,+4V5*%
X105000000Y-78010000D03*
%TO.P,R8,2*%
%TO.N,FB_BOOST*%
X105000000Y-76990000D03*
%TD*%
D10*
%TO.P,C33,1*%
%TO.N,+4V5*%
X117500000Y-77350000D03*
%TO.P,C33,2*%
%TO.N,GND*%
X117500000Y-75450000D03*
%TD*%
D13*
%TO.P,R17,1*%
%TO.N,RST_BOOST*%
X113500000Y-97010000D03*
%TO.P,R17,2*%
%TO.N,EN_BOOST*%
X113500000Y-95990000D03*
%TD*%
D14*
%TO.P,C22,1*%
%TO.N,+3V3_PIX*%
X140520000Y-69400000D03*
%TO.P,C22,2*%
%TO.N,GND*%
X141480000Y-69400000D03*
%TD*%
D11*
%TO.P,C14,1*%
%TO.N,+3V3_CAM*%
X120500000Y-76980000D03*
%TO.P,C14,2*%
%TO.N,GND*%
X120500000Y-76020000D03*
%TD*%
D13*
%TO.P,R16,1*%
%TO.N,+3V3_SYS*%
X111000000Y-97010000D03*
%TO.P,R16,2*%
%TO.N,RST_BOOST*%
X111000000Y-95990000D03*
%TD*%
D11*
%TO.P,C18,1*%
%TO.N,+1V8_CAM*%
X120500000Y-85980000D03*
%TO.P,C18,2*%
%TO.N,GND*%
X120500000Y-85020000D03*
%TD*%
D12*
%TO.P,R5,1*%
%TO.N,CAM_TRIG0*%
X130890000Y-69700000D03*
%TO.P,R5,2*%
%TO.N,GND*%
X131910000Y-69700000D03*
%TD*%
D13*
%TO.P,R13,1*%
%TO.N,CAM_SCK*%
X123750000Y-86110000D03*
%TO.P,R13,2*%
%TO.N,GND*%
X123750000Y-85090000D03*
%TD*%
D14*
%TO.P,C10,1*%
%TO.N,+3V3_PIX*%
X138020000Y-67500000D03*
%TO.P,C10,2*%
%TO.N,GND*%
X138980000Y-67500000D03*
%TD*%
D12*
%TO.P,R11,1*%
%TO.N,+3V3_SYS*%
X121490000Y-101000000D03*
%TO.P,R11,2*%
%TO.N,VBSEL_B*%
X122510000Y-101000000D03*
%TD*%
D11*
%TO.P,C3,1*%
%TO.N,+3V3_CAM*%
X122500000Y-76980000D03*
%TO.P,C3,2*%
%TO.N,GND*%
X122500000Y-76020000D03*
%TD*%
%TO.P,C40,1*%
%TO.N,+3V3_SYS*%
X108500000Y-96980000D03*
%TO.P,C40,2*%
%TO.N,GND*%
X108500000Y-96020000D03*
%TD*%
D16*
%TO.P,C36,1*%
%TO.N,+4V5*%
X122225000Y-67500000D03*
%TO.P,C36,2*%
%TO.N,GND*%
X123775000Y-67500000D03*
%TD*%
D15*
%TO.P,C34,1*%
%TO.N,+4V5*%
X103500000Y-87775000D03*
%TO.P,C34,2*%
%TO.N,GND*%
X103500000Y-86225000D03*
%TD*%
D17*
%TO.P,U2,1,VIN_1*%
%TO.N,+3V3_SYS*%
X105862500Y-81050000D03*
%TO.P,U2,2,GND_2*%
%TO.N,GND*%
X105862500Y-82000000D03*
%TO.P,U2,3,EN_3*%
%TO.N,+3V3_SYS*%
X105862500Y-82950000D03*
%TO.P,U2,4,NC_4*%
%TO.N,unconnected-(U2-NC-Pad4)*%
X108137500Y-82950000D03*
%TO.P,U2,5,VOUT_5*%
%TO.N,+1V8_CAM*%
X108137500Y-81050000D03*
%TD*%
D11*
%TO.P,C7,1*%
%TO.N,+1V8_CAM*%
X122500000Y-85980000D03*
%TO.P,C7,2*%
%TO.N,GND*%
X122500000Y-85020000D03*
%TD*%
D18*
%TO.P,U1,1,vdd_33_1*%
%TO.N,+3V3_CAM*%
X126094000Y-82508000D03*
%TO.P,U1,2,mosi_2*%
%TO.N,CAM_MOSI*%
X126094000Y-83524000D03*
%TO.P,U1,3,miso_3*%
%TO.N,CAM_MISO*%
X126094000Y-84540000D03*
%TO.P,U1,4,sck_4*%
%TO.N,CAM_SCK*%
X126094000Y-85556000D03*
%TO.P,U1,5,gnd_18_5*%
%TO.N,GND*%
X126094000Y-86572000D03*
%TO.P,U1,6,vdd_18_6*%
%TO.N,+1V8_CAM*%
X126094000Y-87588000D03*
D19*
%TO.P,U1,7,clock_outn_7*%
%TO.N,CAM_CLKOUT_N*%
X130412000Y-91906000D03*
%TO.P,U1,8,clock_outp_8*%
%TO.N,CAM_CLKOUT_P*%
X131428000Y-91906000D03*
%TO.P,U1,9,doutn0_9*%
%TO.N,CAM_D0_N*%
X132444000Y-91906000D03*
%TO.P,U1,10,doutp0_10*%
%TO.N,CAM_D0_P*%
X133460000Y-91906000D03*
%TO.P,U1,11,doutn1_11*%
%TO.N,CAM_D1_N*%
X134476000Y-91906000D03*
%TO.P,U1,12,doutp1_12*%
%TO.N,CAM_D1_P*%
X135492000Y-91906000D03*
%TO.P,U1,13,doutn2_13*%
%TO.N,CAM_D2_N*%
X136508000Y-91906000D03*
%TO.P,U1,14,doutp2_14*%
%TO.N,CAM_D2_P*%
X137524000Y-91906000D03*
%TO.P,U1,15,doutn3_15*%
%TO.N,CAM_D3_N*%
X138540000Y-91906000D03*
%TO.P,U1,16,doutp3_16*%
%TO.N,CAM_D3_P*%
X139556000Y-91906000D03*
%TO.P,U1,17,syncn_17*%
%TO.N,CAM_SYNC_N*%
X140572000Y-91906000D03*
%TO.P,U1,18,syncp_18*%
%TO.N,CAM_SYNC_P*%
X141588000Y-91906000D03*
D18*
%TO.P,U1,19,vdd_33_19*%
%TO.N,+3V3_CAM*%
X145906000Y-87588000D03*
%TO.P,U1,20,gnd_33_20*%
%TO.N,GND*%
X145906000Y-86572000D03*
%TO.P,U1,21,gnd_18_21*%
X145906000Y-85556000D03*
%TO.P,U1,22,vdd_18_22*%
%TO.N,+1V8_CAM*%
X145906000Y-84540000D03*
%TO.P,U1,23,lvds_clock_inn_23*%
%TO.N,CAM_LVDSCLK_N*%
X145906000Y-83524000D03*
%TO.P,U1,24,lvds_clock_inp_24*%
%TO.N,CAM_LVDSCLK_P*%
X145906000Y-82508000D03*
%TO.P,U1,25,clk_pll_25*%
%TO.N,CAM_CLK_PLL*%
X145906000Y-81492000D03*
%TO.P,U1,26,vdd_18_26*%
%TO.N,+1V8_CAM*%
X145906000Y-80476000D03*
%TO.P,U1,27,gnd_18_27*%
%TO.N,GND*%
X145906000Y-79460000D03*
%TO.P,U1,28,ibias_master_28*%
%TO.N,IBIAS_MASTER*%
X145906000Y-78444000D03*
%TO.P,U1,29,vdd_33_29*%
%TO.N,+3V3_CAM*%
X145906000Y-77428000D03*
%TO.P,U1,30,gnd_33_30*%
%TO.N,GND*%
X145906000Y-76412000D03*
D19*
%TO.P,U1,31,vdd_pix_31*%
%TO.N,+3V3_PIX*%
X141588000Y-72094000D03*
%TO.P,U1,32,gnd_colpc_32*%
%TO.N,GND*%
X140572000Y-72094000D03*
%TO.P,U1,33,vdd_pix_33*%
%TO.N,+3V3_PIX*%
X139556000Y-72094000D03*
%TO.P,U1,34,gnd_colpc_34*%
%TO.N,GND*%
X138540000Y-72094000D03*
%TO.P,U1,35,gnd_33_35*%
X137524000Y-72094000D03*
%TO.P,U1,36,vdd_33_36*%
%TO.N,+3V3_CAM*%
X136508000Y-72094000D03*
%TO.P,U1,37,gnd_colpc_37*%
%TO.N,GND*%
X135492000Y-72094000D03*
%TO.P,U1,38,vdd_pix_38*%
%TO.N,+3V3_PIX*%
X134476000Y-72094000D03*
%TO.P,U1,39,gnd_colpc_39*%
%TO.N,GND*%
X133460000Y-72094000D03*
%TO.P,U1,40,vdd_pix_40*%
%TO.N,+3V3_PIX*%
X132444000Y-72094000D03*
%TO.P,U1,41,trigger0_41*%
%TO.N,CAM_TRIG0*%
X131428000Y-72094000D03*
%TO.P,U1,42,trigger1_42*%
%TO.N,CAM_TRIG1*%
X130412000Y-72094000D03*
D18*
%TO.P,U1,43,trigger2_43*%
%TO.N,CAM_TRIG2*%
X126094000Y-76412000D03*
%TO.P,U1,44,monitor0_44*%
%TO.N,CAM_MON0*%
X126094000Y-77428000D03*
%TO.P,U1,45,monitor1_45*%
%TO.N,CAM_MON1*%
X126094000Y-78444000D03*
%TO.P,U1,46,reset_n_46*%
%TO.N,CAM_RESET_N*%
X126094000Y-79460000D03*
%TO.P,U1,47,ss_n_47*%
%TO.N,CAM_SS_N*%
X126094000Y-80476000D03*
%TO.P,U1,48,gnd_33_48*%
%TO.N,GND*%
X126094000Y-81492000D03*
%TD*%
D11*
%TO.P,C26,1*%
%TO.N,+3V3_CAM*%
X122500000Y-88480000D03*
%TO.P,C26,2*%
%TO.N,GND*%
X122500000Y-87520000D03*
%TD*%
D15*
%TO.P,C30,1*%
%TO.N,+1V8_CAM*%
X111000000Y-82775000D03*
%TO.P,C30,2*%
%TO.N,GND*%
X111000000Y-81225000D03*
%TD*%
D12*
%TO.P,R6,1*%
%TO.N,CAM_TRIG1*%
X128390000Y-69700000D03*
%TO.P,R6,2*%
%TO.N,GND*%
X129410000Y-69700000D03*
%TD*%
D11*
%TO.P,C5,1*%
%TO.N,+1V8_CAM*%
X121500000Y-81980000D03*
%TO.P,C5,2*%
%TO.N,GND*%
X121500000Y-81020000D03*
%TD*%
D17*
%TO.P,U5,1,VIN_1*%
%TO.N,+4V5*%
X125862500Y-66550000D03*
%TO.P,U5,2,GND_2*%
%TO.N,GND*%
X125862500Y-67500000D03*
%TO.P,U5,3,EN_3*%
%TO.N,EN_PIX*%
X125862500Y-68450000D03*
%TO.P,U5,4,NC_4*%
%TO.N,unconnected-(U5-NC-Pad4)*%
X128137500Y-68450000D03*
%TO.P,U5,5,VOUT_5*%
%TO.N,+3V3_PIX*%
X128137500Y-66550000D03*
%TD*%
D14*
%TO.P,C19,1*%
%TO.N,+3V3_PIX*%
X133020000Y-69400000D03*
%TO.P,C19,2*%
%TO.N,GND*%
X133980000Y-69400000D03*
%TD*%
D11*
%TO.P,C39,1*%
%TO.N,EN_PIX*%
X113500000Y-92480000D03*
%TO.P,C39,2*%
%TO.N,GND*%
X113500000Y-91520000D03*
%TD*%
%TO.P,C1,1*%
%TO.N,+3V3_CAM*%
X122500000Y-72980000D03*
%TO.P,C1,2*%
%TO.N,GND*%
X122500000Y-72020000D03*
%TD*%
%TO.P,C2,1*%
%TO.N,+3V3_CAM*%
X122500000Y-74980000D03*
%TO.P,C2,2*%
%TO.N,GND*%
X122500000Y-74020000D03*
%TD*%
D13*
%TO.P,R1,1*%
%TO.N,IBIAS_MASTER*%
X148075000Y-78010000D03*
%TO.P,R1,2*%
%TO.N,GND*%
X148075000Y-76990000D03*
%TD*%
D11*
%TO.P,C12,1*%
%TO.N,+3V3_CAM*%
X120500000Y-72980000D03*
%TO.P,C12,2*%
%TO.N,GND*%
X120500000Y-72020000D03*
%TD*%
D13*
%TO.P,R9,1*%
%TO.N,FB_BOOST*%
X107500000Y-78010000D03*
%TO.P,R9,2*%
%TO.N,GND*%
X107500000Y-76990000D03*
%TD*%
D14*
%TO.P,C20,1*%
%TO.N,+3V3_PIX*%
X135520000Y-69400000D03*
%TO.P,C20,2*%
%TO.N,GND*%
X136480000Y-69400000D03*
%TD*%
D13*
%TO.P,R15,1*%
%TO.N,+3V3_CAM*%
X111000000Y-92510000D03*
%TO.P,R15,2*%
%TO.N,EN_PIX*%
X111000000Y-91490000D03*
%TD*%
D14*
%TO.P,C9,1*%
%TO.N,+3V3_PIX*%
X135520000Y-67500000D03*
%TO.P,C9,2*%
%TO.N,GND*%
X136480000Y-67500000D03*
%TD*%
D11*
%TO.P,C13,1*%
%TO.N,+3V3_CAM*%
X120500000Y-74980000D03*
%TO.P,C13,2*%
%TO.N,GND*%
X120500000Y-74020000D03*
%TD*%
D16*
%TO.P,C37,1*%
%TO.N,+3V3_PIX*%
X130225000Y-67500000D03*
%TO.P,C37,2*%
%TO.N,GND*%
X131775000Y-67500000D03*
%TD*%
D11*
%TO.P,C17,1*%
%TO.N,+1V8_CAM*%
X120500000Y-83980000D03*
%TO.P,C17,2*%
%TO.N,GND*%
X120500000Y-83020000D03*
%TD*%
%TO.P,C4,1*%
%TO.N,+3V3_CAM*%
X122500000Y-78980000D03*
%TO.P,C4,2*%
%TO.N,GND*%
X122500000Y-78020000D03*
%TD*%
D14*
%TO.P,C11,1*%
%TO.N,+3V3_PIX*%
X140520000Y-67500000D03*
%TO.P,C11,2*%
%TO.N,GND*%
X141480000Y-67500000D03*
%TD*%
D11*
%TO.P,C41,1*%
%TO.N,EN_BOOST*%
X116000000Y-96980000D03*
%TO.P,C41,2*%
%TO.N,GND*%
X116000000Y-96020000D03*
%TD*%
D10*
%TO.P,C32,1*%
%TO.N,+4V5*%
X117500000Y-73150000D03*
%TO.P,C32,2*%
%TO.N,GND*%
X117500000Y-71250000D03*
%TD*%
D20*
%TO.P,U6,1,GND_1*%
%TO.N,GND*%
X104062500Y-91050000D03*
%TO.P,U6,2,RESET_2*%
%TO.N,EN_PIX*%
X104062500Y-92950000D03*
%TO.P,U6,3,VDD_3*%
%TO.N,+3V3_SYS*%
X105937500Y-92000000D03*
%TD*%
D17*
%TO.P,U4,1,VIN_1*%
%TO.N,+4V5*%
X105862500Y-86050000D03*
%TO.P,U4,2,GND_2*%
%TO.N,GND*%
X105862500Y-87000000D03*
%TO.P,U4,3,EN_3*%
%TO.N,+1V8_CAM*%
X105862500Y-87950000D03*
%TO.P,U4,4,NC_4*%
%TO.N,unconnected-(U4-NC-Pad4)*%
X108137500Y-87950000D03*
%TO.P,U4,5,VOUT_5*%
%TO.N,+3V3_CAM*%
X108137500Y-86050000D03*
%TD*%
D20*
%TO.P,U7,1,GND_1*%
%TO.N,GND*%
X104062500Y-95550000D03*
%TO.P,U7,2,RESET_2*%
%TO.N,RST_BOOST*%
X104062500Y-97450000D03*
%TO.P,U7,3,VDD_3*%
%TO.N,+3V3_SYS*%
X105937500Y-96500000D03*
%TD*%
D11*
%TO.P,C16,1*%
%TO.N,+1V8_CAM*%
X119550000Y-82005000D03*
%TO.P,C16,2*%
%TO.N,GND*%
X119550000Y-81045000D03*
%TD*%
D14*
%TO.P,C8,1*%
%TO.N,+3V3_PIX*%
X133020000Y-67500000D03*
%TO.P,C8,2*%
%TO.N,GND*%
X133980000Y-67500000D03*
%TD*%
D11*
%TO.P,C38,1*%
%TO.N,+3V3_SYS*%
X108500000Y-92480000D03*
%TO.P,C38,2*%
%TO.N,GND*%
X108500000Y-91520000D03*
%TD*%
D21*
%TO.P,U3,1,FB_1*%
%TO.N,FB_BOOST*%
X106287500Y-72500000D03*
%TO.P,U3,2,EN_2*%
%TO.N,EN_BOOST*%
X106287500Y-73000000D03*
%TO.P,U3,3,VIN_3*%
%TO.N,+3V3_SYS*%
X106287500Y-73500000D03*
%TO.P,U3,4,GND_4*%
%TO.N,GND*%
X107712500Y-73500000D03*
%TO.P,U3,5,SW_5*%
%TO.N,SW*%
X107712500Y-73000000D03*
%TO.P,U3,6,VOUT_6*%
%TO.N,+4V5*%
X107712500Y-72500000D03*
%TD*%
D22*
%TO.P,L1,1*%
%TO.N,+3V3_SYS*%
X113800000Y-76150000D03*
%TO.P,L1,2*%
%TO.N,SW*%
X110750000Y-76150000D03*
%TD*%
D13*
%TO.P,R3,1*%
%TO.N,+3V3_CAM*%
X123750000Y-81510000D03*
%TO.P,R3,2*%
%TO.N,CAM_SS_N*%
X123750000Y-80490000D03*
%TD*%
D10*
%TO.P,C31,1*%
%TO.N,+3V3_SYS*%
X103500000Y-73950000D03*
%TO.P,C31,2*%
%TO.N,GND*%
X103500000Y-72050000D03*
%TD*%
D23*
%TO.N,GND*%
X135400000Y-98500000D03*
X131900000Y-96000000D03*
D24*
X118925000Y-68550000D03*
D23*
X146900000Y-95000000D03*
X128000000Y-93600000D03*
X137000000Y-98500000D03*
D24*
X119325000Y-87000000D03*
D23*
X146100000Y-96400000D03*
D24*
X142129000Y-74921000D03*
X139350000Y-86050000D03*
D23*
X133900000Y-96000000D03*
D24*
X139300000Y-79475000D03*
D23*
X128800000Y-95000000D03*
X143900000Y-93600000D03*
D24*
X116525000Y-79750000D03*
X148725000Y-63200000D03*
D23*
X136100000Y-94300000D03*
D24*
X119400153Y-83025153D03*
X133498959Y-75073959D03*
D23*
X129199999Y-97500000D03*
D24*
X128725000Y-81475000D03*
X135500000Y-79800000D03*
D23*
X146900000Y-97800000D03*
X131900000Y-94400000D03*
D24*
X118050000Y-84575000D03*
D25*
X127775000Y-73425000D03*
D24*
X116550000Y-83075000D03*
D23*
X128000000Y-98600000D03*
D24*
X110825000Y-94625000D03*
D23*
X142300000Y-93600000D03*
X130500000Y-98500000D03*
X129600000Y-93600000D03*
X138000000Y-94400000D03*
X133699999Y-98500000D03*
X133900000Y-94400000D03*
X146100000Y-93600000D03*
X130000000Y-96100000D03*
D24*
X118925000Y-73950000D03*
X116000000Y-93710001D03*
D23*
X132100000Y-98500000D03*
D24*
%TO.N,+3V3_SYS*%
X103400000Y-78625000D03*
X111600000Y-101000000D03*
X104500000Y-84200000D03*
X106350000Y-75450000D03*
X111700000Y-69900000D03*
X109700000Y-94250000D03*
X105950000Y-90400000D03*
D25*
%TO.N,VBSEL_A*%
X123125000Y-98175000D03*
%TO.N,CAM_RESET_N*%
X130439929Y-75395855D03*
%TO.N,CAM_MOSI*%
X130884044Y-73882439D03*
D24*
%TO.N,+3V3_CAM*%
X119200000Y-76975000D03*
X119550000Y-79000000D03*
X138150000Y-87550000D03*
X119525000Y-75050000D03*
X136508000Y-77417000D03*
X129850000Y-82508000D03*
X124425000Y-89200000D03*
%TO.N,+3V3_PIX*%
X138975000Y-74525000D03*
X139725000Y-68500000D03*
X142625000Y-73825000D03*
D23*
%TO.N,CAM_TRIG2*%
X128900000Y-76375000D03*
D25*
%TO.N,CAM_CLK_PLL*%
X131050000Y-61225000D03*
%TO.N,+4V5*%
X106175000Y-78050000D03*
X116150000Y-71800000D03*
X109675000Y-73200000D03*
X105850000Y-84450000D03*
%TO.N,EN_BOOST*%
X104950000Y-74100000D03*
X109450000Y-89175000D03*
%TO.N,CAM_TRIG0*%
X132400000Y-66500000D03*
%TO.N,CAM_SCK*%
X132325000Y-78350000D03*
X133600000Y-64050000D03*
X134750000Y-66525000D03*
%TO.N,VBSEL_B*%
X122500000Y-99375000D03*
%TO.N,CAM_MISO*%
X127175000Y-61275000D03*
X129975000Y-61275000D03*
X128875000Y-84450000D03*
D23*
%TO.N,CAM_CLKOUT_N*%
X130412000Y-93750000D03*
%TO.N,CAM_CLKOUT_P*%
X131428000Y-93750000D03*
%TO.N,CAM_D0_N*%
X138860000Y-98800000D03*
%TO.N,CAM_D0_P*%
X139540000Y-98800000D03*
%TO.N,CAM_D1_N*%
X134476000Y-93750000D03*
%TO.N,CAM_D1_P*%
X135492000Y-93750000D03*
%TO.N,CAM_D2_N*%
X141260000Y-98800000D03*
%TO.N,CAM_D2_P*%
X141940000Y-98800000D03*
%TO.N,CAM_D3_N*%
X138540000Y-93750000D03*
%TO.N,CAM_D3_P*%
X139556000Y-93750000D03*
%TO.N,CAM_SYNC_N*%
X143660000Y-98800000D03*
%TO.N,CAM_SYNC_P*%
X144340000Y-98800000D03*
%TO.N,CAM_LVDSCLK_N*%
X147700000Y-85000000D03*
%TO.N,CAM_LVDSCLK_P*%
X148320084Y-84675194D03*
D25*
%TO.N,CAM_TRIG1*%
X129625000Y-63775000D03*
D23*
%TO.N,CAM_MON0*%
X128350000Y-77428000D03*
%TO.N,CAM_MON1*%
X128875000Y-78375000D03*
D25*
%TO.N,CAM_SS_N*%
X130217603Y-74325000D03*
%TO.N,EN_PIX*%
X105300000Y-94075000D03*
X121775000Y-70175000D03*
X111025000Y-90375000D03*
%TD*%
%TO.N,+1V8_CAM*%
D26*
X108137500Y-81050000D02*
X109275000Y-81050000D01*
X107025000Y-82462499D02*
X108137500Y-81349999D01*
X106524999Y-87950000D02*
X107025000Y-87449999D01*
X144733542Y-80476000D02*
X145906000Y-80476000D01*
X115925000Y-84375000D02*
X114500000Y-82950000D01*
X114325000Y-82775000D02*
X114500000Y-82950000D01*
X145906000Y-84540000D02*
X144125000Y-84540000D01*
X115470000Y-81980000D02*
X118300000Y-81980000D01*
X118300000Y-83622918D02*
X118300000Y-81980000D01*
X122500000Y-86371734D02*
X122500000Y-85980000D01*
X120500000Y-83980000D02*
X118657082Y-83980000D01*
X126094000Y-87588000D02*
X123716266Y-87588000D01*
X144125000Y-84540000D02*
X144136000Y-84529000D01*
X105862500Y-87950000D02*
X106524999Y-87950000D01*
X115925000Y-85100000D02*
X115925000Y-84375000D01*
X118657082Y-83980000D02*
X118300000Y-83622918D01*
X144732542Y-80475000D02*
X144733542Y-80476000D01*
X120500000Y-85980000D02*
X122500000Y-85980000D01*
X116805000Y-85980000D02*
X115925000Y-85100000D01*
X120500000Y-83980000D02*
X122500000Y-83980000D01*
X144136000Y-80475000D02*
X144732542Y-80475000D01*
X132762000Y-87588000D02*
X135810000Y-84540000D01*
X144136000Y-84529000D02*
X144136000Y-80475000D01*
X126094000Y-87588000D02*
X132762000Y-87588000D01*
X120500000Y-88480000D02*
X119305000Y-88480000D01*
X119305000Y-88480000D02*
X116805000Y-85980000D01*
X114500000Y-82950000D02*
X115470000Y-81980000D01*
X108137500Y-81349999D02*
X108137500Y-81050000D01*
X123716266Y-87588000D02*
X122500000Y-86371734D01*
X107025000Y-87449999D02*
X107025000Y-82462499D01*
X118300000Y-81980000D02*
X121500000Y-81980000D01*
X109275000Y-81050000D02*
X111000000Y-82775000D01*
X120500000Y-85980000D02*
X116805000Y-85980000D01*
X135810000Y-84540000D02*
X145906000Y-84540000D01*
X111000000Y-82775000D02*
X114325000Y-82775000D01*
%TO.N,GND*%
X120500000Y-83020000D02*
X122500000Y-83020000D01*
X118050000Y-84575000D02*
X116550000Y-83075000D01*
X121450000Y-87520000D02*
X122500000Y-87520000D01*
X107500000Y-76990000D02*
X107631056Y-76990000D01*
X108500000Y-96020000D02*
X109430000Y-96020000D01*
X105088172Y-87000000D02*
X105862500Y-87000000D01*
X103041728Y-72050000D02*
X101875000Y-73216728D01*
X141480000Y-69603800D02*
X140572000Y-70511800D01*
X123750000Y-75890000D02*
X124275000Y-75365000D01*
X126975000Y-67950001D02*
X126524999Y-67500000D01*
X120470000Y-81050000D02*
X120500000Y-81020000D01*
X103500000Y-86225000D02*
X101875000Y-84600000D01*
X144480000Y-67307100D02*
X143901800Y-66728900D01*
X135500000Y-76516000D02*
X135492000Y-76508000D01*
X115803267Y-98324999D02*
X116760000Y-97368266D01*
X137252900Y-66727100D02*
X139752900Y-66727100D01*
X118995000Y-74020000D02*
X118925000Y-73950000D01*
X133358350Y-70361650D02*
X133460000Y-70463300D01*
X104750000Y-87338172D02*
X105088172Y-87000000D01*
X145906000Y-86572000D02*
X145906000Y-86050000D01*
X133310050Y-63350000D02*
X133889950Y-63350000D01*
X124275000Y-72487316D02*
X123807684Y-72020000D01*
X139895000Y-70315000D02*
X140375200Y-70315000D01*
X120500000Y-74020000D02*
X122500000Y-74020000D01*
X131775000Y-67500000D02*
X131775000Y-69565000D01*
X120500000Y-81020000D02*
X121500000Y-81020000D01*
X114500000Y-81050000D02*
X120470000Y-81050000D01*
X106427684Y-82000000D02*
X105862500Y-82000000D01*
X113500000Y-91520000D02*
X113809999Y-91520000D01*
X143901800Y-66728900D02*
X142251100Y-66728900D01*
X142251100Y-66728900D02*
X141588000Y-67392000D01*
X138980000Y-69400000D02*
X139094400Y-69514300D01*
X132525000Y-64135050D02*
X133310050Y-63350000D01*
X128708000Y-81492000D02*
X128725000Y-81475000D01*
X106975000Y-80697316D02*
X106975000Y-81452684D01*
X126094000Y-86572000D02*
X129934854Y-86572000D01*
X131910000Y-69700000D02*
X132571650Y-70361650D01*
X106975000Y-81452684D02*
X106427684Y-82000000D01*
X109430000Y-96020000D02*
X110825000Y-94625000D01*
X119845000Y-87520000D02*
X119325000Y-87000000D01*
X120500000Y-74020000D02*
X118995000Y-74020000D01*
X116525000Y-79750000D02*
X115800000Y-79750000D01*
X136480000Y-69400000D02*
X136480000Y-70354000D01*
X114325000Y-81225000D02*
X114500000Y-81050000D01*
X133460000Y-72094000D02*
X133460000Y-75035000D01*
X104750000Y-88352684D02*
X104750000Y-90362500D01*
X125152684Y-70675000D02*
X126975000Y-68852684D01*
X120500000Y-85020000D02*
X122500000Y-85020000D01*
X140923100Y-66727100D02*
X139752900Y-66727100D01*
X147370000Y-79460000D02*
X148100000Y-80190000D01*
X140375200Y-70315000D02*
X140572000Y-70511800D01*
X133980000Y-65730000D02*
X132525000Y-64275000D01*
X111000000Y-81225000D02*
X114325000Y-81225000D01*
X141480000Y-69400000D02*
X141480000Y-69603800D01*
X117500000Y-71250000D02*
X119730000Y-71250000D01*
X122500000Y-83020000D02*
X123520000Y-83020000D01*
X108270000Y-79402316D02*
X106975000Y-80697316D01*
X144480000Y-67688266D02*
X144480000Y-67500000D01*
X147497000Y-76412000D02*
X145906000Y-76412000D01*
X120500000Y-87520000D02*
X119845000Y-87520000D01*
X133980000Y-69400000D02*
X133980000Y-69943300D01*
X140572000Y-70511800D02*
X140572000Y-72094000D01*
X104062500Y-95550000D02*
X102875000Y-96737500D01*
X114325000Y-86225000D02*
X114500000Y-86050000D01*
X132571650Y-70361650D02*
X133358350Y-70361650D01*
X129934854Y-86572000D02*
X135500000Y-81006854D01*
X129410000Y-69700000D02*
X129410000Y-70340000D01*
X111175000Y-86050000D02*
X111000000Y-86225000D01*
X139752900Y-66727100D02*
X138980000Y-67500000D01*
X102875000Y-92237500D02*
X104062500Y-91050000D01*
X117500000Y-69975000D02*
X118925000Y-68550000D01*
X139094400Y-69514300D02*
X139895000Y-70315000D01*
X135500000Y-79800000D02*
X135500000Y-76516000D01*
X136480000Y-67500000D02*
X137252900Y-66727100D01*
X107500000Y-73837500D02*
X107712500Y-73625000D01*
X108500000Y-91520000D02*
X108500000Y-88700000D01*
X104275000Y-82000000D02*
X105862500Y-82000000D01*
X123520000Y-83020000D02*
X123750000Y-82790000D01*
X116000000Y-93710001D02*
X116000000Y-96020000D01*
X107631056Y-76990000D02*
X108270000Y-77628944D01*
X145906000Y-79460000D02*
X139315000Y-79460000D01*
X140572000Y-72094000D02*
X140572000Y-73364000D01*
X103347315Y-98324999D02*
X115803267Y-98324999D01*
X136480000Y-70354000D02*
X136038000Y-70354000D01*
X111000000Y-86225000D02*
X114325000Y-86225000D01*
X101875000Y-84600000D02*
X101875000Y-79600000D01*
X113809999Y-91520000D02*
X116000000Y-93710001D01*
X126094000Y-81492000D02*
X128708000Y-81492000D01*
X139350000Y-86050000D02*
X145906000Y-86050000D01*
X104750000Y-90362500D02*
X104750000Y-87338172D01*
X141588000Y-67392000D02*
X141480000Y-67500000D01*
X136480000Y-70354000D02*
X137524000Y-70354000D01*
X102875000Y-94362500D02*
X102875000Y-92237500D01*
X133889950Y-63350000D02*
X137252900Y-66712950D01*
X133980000Y-69943300D02*
X133460000Y-70463300D01*
X114500000Y-86050000D02*
X117660000Y-89210000D01*
X116760000Y-97368266D02*
X116760000Y-96591734D01*
X126524999Y-67500000D02*
X125862500Y-67500000D01*
X144480000Y-67500000D02*
X144480000Y-67307100D01*
X120918266Y-89210000D02*
X121450000Y-88678266D01*
X133460000Y-75035000D02*
X133498959Y-75073959D01*
X119405306Y-83020000D02*
X119400153Y-83025153D01*
X108270000Y-77628944D02*
X108270000Y-79402316D01*
X120500000Y-72020000D02*
X122500000Y-72020000D01*
X143620000Y-76412000D02*
X145906000Y-76412000D01*
X131775000Y-69565000D02*
X131910000Y-69700000D01*
X136038000Y-70354000D02*
X135492000Y-70900000D01*
X126975000Y-68852684D02*
X126975000Y-67950001D01*
X102575000Y-89562500D02*
X104062500Y-91050000D01*
X118925000Y-73950000D02*
X118925000Y-74025000D01*
X133980000Y-67500000D02*
X133980000Y-65730000D01*
X111000000Y-81225000D02*
X109177316Y-79402316D01*
X137252900Y-66712950D02*
X137252900Y-66727100D01*
X119730000Y-71250000D02*
X120500000Y-72020000D01*
X137524000Y-70354000D02*
X138254700Y-70354000D01*
X120500000Y-85020000D02*
X118495000Y-85020000D01*
X139315000Y-79460000D02*
X139300000Y-79475000D01*
X129410000Y-70340000D02*
X129075000Y-70675000D01*
X120500000Y-87520000D02*
X121450000Y-87520000D01*
X123680000Y-85020000D02*
X123750000Y-85090000D01*
X104062500Y-91050000D02*
X104750000Y-90362500D01*
X135500000Y-81006854D02*
X135500000Y-79800000D01*
X135492000Y-70900000D02*
X135492000Y-72094000D01*
X133460000Y-70463300D02*
X133460000Y-72094000D01*
X123775000Y-67500000D02*
X125862500Y-67500000D01*
X118925000Y-74025000D02*
X117500000Y-75450000D01*
X102875000Y-97852684D02*
X103347315Y-98324999D01*
X123620000Y-76020000D02*
X123750000Y-75890000D01*
X118495000Y-85020000D02*
X118050000Y-84575000D01*
X137524000Y-70354000D02*
X137524000Y-72094000D01*
X117500000Y-71250000D02*
X117500000Y-69975000D01*
X101875000Y-73216728D02*
X101875000Y-79600000D01*
X142768266Y-69400000D02*
X144480000Y-67688266D01*
X122500000Y-72020000D02*
X123807684Y-72020000D01*
X120500000Y-76020000D02*
X122500000Y-76020000D01*
X105097316Y-88700000D02*
X104750000Y-88352684D01*
X102875000Y-96737500D02*
X102875000Y-97852684D01*
X124275000Y-75365000D02*
X124275000Y-72487316D01*
X120500000Y-78020000D02*
X118551878Y-78020000D01*
X129075000Y-70675000D02*
X125152684Y-70675000D01*
X102575000Y-87150000D02*
X102575000Y-89562500D01*
X138540000Y-72094000D02*
X137524000Y-72094000D01*
X103500000Y-86225000D02*
X102575000Y-87150000D01*
X116821878Y-79750000D02*
X116525000Y-79750000D01*
X123580000Y-78020000D02*
X123750000Y-78190000D01*
X107500000Y-76990000D02*
X107500000Y-73837500D01*
X116188266Y-96020000D02*
X116000000Y-96020000D01*
X141588000Y-67392000D02*
X140923100Y-66727100D01*
X122500000Y-78020000D02*
X123580000Y-78020000D01*
X121450000Y-88678266D02*
X121450000Y-87520000D01*
X103500000Y-72050000D02*
X103041728Y-72050000D01*
X117660000Y-89210000D02*
X120918266Y-89210000D01*
X122500000Y-76020000D02*
X123620000Y-76020000D01*
X109177316Y-79402316D02*
X108270000Y-79402316D01*
X141480000Y-69400000D02*
X142768266Y-69400000D01*
X120500000Y-78020000D02*
X122500000Y-78020000D01*
X148075000Y-76990000D02*
X147497000Y-76412000D01*
X145906000Y-79460000D02*
X147370000Y-79460000D01*
X122500000Y-85020000D02*
X123680000Y-85020000D01*
X104062500Y-95550000D02*
X102875000Y-94362500D01*
X116760000Y-96591734D02*
X116188266Y-96020000D01*
X118551878Y-78020000D02*
X116821878Y-79750000D01*
X132525000Y-64275000D02*
X132525000Y-64135050D01*
X101875000Y-79600000D02*
X103500000Y-81225000D01*
X123807684Y-72020000D02*
X125152684Y-70675000D01*
X103500000Y-81225000D02*
X104275000Y-82000000D01*
X138254700Y-70354000D02*
X139094400Y-69514300D01*
X145906000Y-86050000D02*
X145906000Y-85556000D01*
X142129000Y-74921000D02*
X143620000Y-76412000D01*
X135492000Y-76508000D02*
X135492000Y-72094000D01*
X140572000Y-73364000D02*
X142129000Y-74921000D01*
X115800000Y-79750000D02*
X114500000Y-81050000D01*
X108500000Y-88700000D02*
X105097316Y-88700000D01*
X120500000Y-83020000D02*
X119405306Y-83020000D01*
%TO.N,+3V3_SYS*%
X105937500Y-90412500D02*
X105950000Y-90400000D01*
X106417500Y-96020000D02*
X106417500Y-92480000D01*
X111600000Y-101000000D02*
X118490000Y-101000000D01*
D27*
X106675432Y-73500000D02*
X106287500Y-73500000D01*
D26*
X118490000Y-101131056D02*
X119128944Y-101770000D01*
X118490000Y-101000000D02*
X118490000Y-101131056D01*
X105937500Y-92000000D02*
X105937500Y-90412500D01*
X105948529Y-75450000D02*
X105304595Y-74806066D01*
X108500000Y-96980000D02*
X110970000Y-96980000D01*
X104575000Y-82775000D02*
X105687500Y-82775000D01*
X104575000Y-82775000D02*
X104575000Y-84125000D01*
X104575000Y-84125000D02*
X104500000Y-84200000D01*
D27*
X105198529Y-74700000D02*
X104250000Y-74700000D01*
D26*
X105687500Y-82775000D02*
X105862500Y-82950000D01*
D27*
X107000000Y-73175432D02*
X106675432Y-73500000D01*
D26*
X103500000Y-82775000D02*
X104575000Y-82775000D01*
D27*
X104250000Y-74700000D02*
X103500000Y-73950000D01*
D26*
X106417500Y-92480000D02*
X108500000Y-92480000D01*
X110970000Y-96980000D02*
X111000000Y-97010000D01*
X119128944Y-101770000D02*
X120720000Y-101770000D01*
X109700000Y-93680000D02*
X108500000Y-92480000D01*
D27*
X106287500Y-73500000D02*
X106287500Y-73611029D01*
X107000000Y-70600000D02*
X107000000Y-73175432D01*
D26*
X108500000Y-96980000D02*
X106417500Y-96980000D01*
X106417500Y-96980000D02*
X105937500Y-96500000D01*
D27*
X111700000Y-69900000D02*
X107700000Y-69900000D01*
D26*
X106350000Y-75450000D02*
X105948529Y-75450000D01*
X105825000Y-81050000D02*
X103400000Y-78625000D01*
X105937500Y-96500000D02*
X106417500Y-96020000D01*
X113800000Y-76150000D02*
X113800000Y-72000000D01*
D27*
X107700000Y-69900000D02*
X107000000Y-70600000D01*
D26*
X105862500Y-81050000D02*
X105825000Y-81050000D01*
X120720000Y-101770000D02*
X121490000Y-101000000D01*
X105937500Y-92000000D02*
X106417500Y-92480000D01*
X113800000Y-72000000D02*
X111700000Y-69900000D01*
D27*
X106287500Y-73611029D02*
X105198529Y-74700000D01*
D26*
X109700000Y-94250000D02*
X109700000Y-93680000D01*
%TO.N,VBSEL_A*%
D27*
X122335000Y-98175000D02*
X119510000Y-101000000D01*
X123125000Y-98175000D02*
X122335000Y-98175000D01*
%TO.N,CAM_RESET_N*%
X130439929Y-75395855D02*
X130465010Y-75420936D01*
D28*
X128915000Y-79460000D02*
X130465010Y-77909990D01*
X124000000Y-79460000D02*
X123750000Y-79210000D01*
D27*
X130465010Y-75420936D02*
X130465010Y-77909990D01*
D28*
X126094000Y-79460000D02*
X124000000Y-79460000D01*
X126094000Y-79460000D02*
X128915000Y-79460000D01*
%TO.N,CAM_MOSI*%
D27*
X125765000Y-83810000D02*
X123750000Y-83810000D01*
X130884044Y-73882439D02*
X131439929Y-74438324D01*
X126094000Y-83524000D02*
X126051000Y-83524000D01*
X130976000Y-83524000D02*
X126094000Y-83524000D01*
X126051000Y-83524000D02*
X125765000Y-83810000D01*
X131439929Y-74438324D02*
X131439929Y-83060071D01*
X131439929Y-83060071D02*
X130976000Y-83524000D01*
%TO.N,+3V3_CAM*%
D26*
X136508000Y-77417000D02*
X136497000Y-77428000D01*
X114325000Y-87775000D02*
X114500000Y-87950000D01*
X120500000Y-72980000D02*
X122500000Y-72980000D01*
X111000000Y-92510000D02*
X110868944Y-92510000D01*
X138188000Y-87588000D02*
X138150000Y-87550000D01*
X120500000Y-78980000D02*
X119570000Y-78980000D01*
X123705000Y-88480000D02*
X124425000Y-89200000D01*
X120850000Y-91400000D02*
X122500000Y-89750000D01*
X120500000Y-78980000D02*
X122500000Y-78980000D01*
X110868944Y-92510000D02*
X110230000Y-91871056D01*
X110230000Y-91871056D02*
X110230000Y-88545000D01*
X120500000Y-76980000D02*
X119205000Y-76980000D01*
X122809999Y-72980000D02*
X122500000Y-72980000D01*
X114500000Y-87950000D02*
X117950000Y-91400000D01*
X110230000Y-88545000D02*
X111000000Y-87775000D01*
X123430001Y-81510000D02*
X123750000Y-81510000D01*
X119570000Y-78980000D02*
X119550000Y-79000000D01*
X122500000Y-80579999D02*
X123430001Y-81510000D01*
X145906000Y-87588000D02*
X138188000Y-87588000D01*
X111000000Y-87775000D02*
X114325000Y-87775000D01*
X109275000Y-86050000D02*
X111000000Y-87775000D01*
X119525000Y-75050000D02*
X120430000Y-75050000D01*
X122688266Y-74980000D02*
X123260000Y-74408266D01*
X122500000Y-89750000D02*
X122500000Y-88480000D01*
X124748000Y-82508000D02*
X126094000Y-82508000D01*
X136508000Y-72094000D02*
X136508000Y-77417000D01*
X120500000Y-76980000D02*
X122500000Y-76980000D01*
X129850000Y-82508000D02*
X126094000Y-82508000D01*
X108137500Y-86050000D02*
X109275000Y-86050000D01*
X120500000Y-74980000D02*
X122500000Y-74980000D01*
X122500000Y-88480000D02*
X123705000Y-88480000D01*
X123260000Y-74408266D02*
X123260000Y-73430001D01*
X117950000Y-91400000D02*
X120850000Y-91400000D01*
X123750000Y-81510000D02*
X124748000Y-82508000D01*
X119205000Y-76980000D02*
X119200000Y-76975000D01*
X122500000Y-78980000D02*
X122500000Y-80579999D01*
X123260000Y-73430001D02*
X122809999Y-72980000D01*
X122500000Y-74980000D02*
X122688266Y-74980000D01*
X120430000Y-75050000D02*
X120500000Y-74980000D01*
X136497000Y-77428000D02*
X145906000Y-77428000D01*
%TO.N,+3V3_PIX*%
X130225000Y-67500000D02*
X130225000Y-66100000D01*
X134476000Y-70444000D02*
X135520000Y-69400000D01*
X129025000Y-62850000D02*
X128137500Y-63737500D01*
X138610001Y-68500000D02*
X139725000Y-68500000D01*
X131025000Y-65300000D02*
X132260661Y-65300000D01*
X131875000Y-62850000D02*
X131875000Y-64914339D01*
X138020000Y-67909999D02*
X138610001Y-68500000D01*
X139556000Y-73944000D02*
X138975000Y-74525000D01*
X133125000Y-76075000D02*
X133700000Y-76075000D01*
X143520000Y-67500000D02*
X142520000Y-68500000D01*
X138020000Y-69400000D02*
X138020000Y-69090001D01*
X133831734Y-68500000D02*
X136150000Y-68500000D01*
X139556000Y-72094000D02*
X139556000Y-73944000D01*
X133020000Y-67688266D02*
X133831734Y-68500000D01*
X133020000Y-69400000D02*
X133020000Y-69090001D01*
X134476000Y-72094000D02*
X134476000Y-70444000D01*
X142356000Y-72094000D02*
X141588000Y-72094000D01*
X140520000Y-69400000D02*
X140520000Y-69295000D01*
X135520000Y-67870000D02*
X136150000Y-68500000D01*
X138020000Y-69090001D02*
X138610001Y-68500000D01*
X132444000Y-72094000D02*
X132444000Y-75394000D01*
X131875000Y-62850000D02*
X129025000Y-62850000D01*
X135520000Y-69400000D02*
X135520000Y-69130000D01*
X128137500Y-66550000D02*
X128137500Y-63737500D01*
X142625000Y-72363000D02*
X142356000Y-72094000D01*
X132444000Y-75394000D02*
X133125000Y-76075000D01*
X140520000Y-67705000D02*
X139725000Y-68500000D01*
X131875000Y-64914339D02*
X132260661Y-65300000D01*
X142625000Y-73825000D02*
X142625000Y-72363000D01*
X133020000Y-67500000D02*
X133020000Y-67688266D01*
X135520000Y-69130000D02*
X136150000Y-68500000D01*
X132260661Y-65300000D02*
X133150000Y-66189339D01*
X133610001Y-68500000D02*
X133831734Y-68500000D01*
X133020000Y-69090001D02*
X133610001Y-68500000D01*
X136150000Y-68500000D02*
X138610001Y-68500000D01*
X138020000Y-67500000D02*
X138020000Y-67909999D01*
X130225000Y-66100000D02*
X131025000Y-65300000D01*
X135520000Y-67500000D02*
X135520000Y-67870000D01*
X133150000Y-66189339D02*
X133150000Y-67370000D01*
X133700000Y-76075000D02*
X134476000Y-75299000D01*
X142520000Y-68500000D02*
X139725000Y-68500000D01*
X140520000Y-67500000D02*
X140520000Y-67705000D01*
X134476000Y-75299000D02*
X134476000Y-72094000D01*
X140520000Y-69295000D02*
X139725000Y-68500000D01*
X133150000Y-67370000D02*
X133020000Y-67500000D01*
%TO.N,CAM_TRIG2*%
D28*
X128863000Y-76412000D02*
X128900000Y-76375000D01*
X126094000Y-76412000D02*
X128863000Y-76412000D01*
D27*
X123750000Y-76910000D02*
X126094000Y-76412000D01*
%TO.N,CAM_CLK_PLL*%
X131050000Y-61225000D02*
X131421480Y-61225000D01*
X148820000Y-70120000D02*
X148820000Y-80490000D01*
X148090000Y-81210000D02*
X147808000Y-81492000D01*
X131746480Y-61550000D02*
X140250000Y-61550000D01*
X131421480Y-61225000D02*
X131746480Y-61550000D01*
X148820000Y-80490000D02*
X148100000Y-81210000D01*
X147808000Y-81492000D02*
X145906000Y-81492000D01*
X148100000Y-81210000D02*
X148090000Y-81210000D01*
X140250000Y-61550000D02*
X148820000Y-70120000D01*
%TO.N,+4V5*%
D28*
X118125000Y-67500000D02*
X116150000Y-69475000D01*
X117500000Y-73150000D02*
X116450000Y-74200000D01*
X106135000Y-78010000D02*
X106175000Y-78050000D01*
X105862500Y-86050000D02*
X105225000Y-86050000D01*
X116450000Y-74200000D02*
X116450000Y-76300000D01*
X116150000Y-69475000D02*
X116150000Y-71800000D01*
X105862500Y-86050000D02*
X105862500Y-84462500D01*
X122225000Y-67500000D02*
X123175000Y-66550000D01*
X105862500Y-84462500D02*
X105850000Y-84450000D01*
X123175000Y-66550000D02*
X125862500Y-66550000D01*
X122225000Y-67500000D02*
X118125000Y-67500000D01*
X105000000Y-78010000D02*
X106135000Y-78010000D01*
X116450000Y-76300000D02*
X117500000Y-77350000D01*
X116150000Y-71800000D02*
X117500000Y-73150000D01*
X108975000Y-72500000D02*
X109675000Y-73200000D01*
X105225000Y-86050000D02*
X103500000Y-87775000D01*
X107712500Y-72500000D02*
X108975000Y-72500000D01*
%TO.N,FB_BOOST*%
X102450000Y-74445100D02*
X104994900Y-76990000D01*
X104994900Y-76990000D02*
X105000000Y-76990000D01*
X104595100Y-72500000D02*
X104020100Y-73075000D01*
X107500000Y-78010000D02*
X106480000Y-76990000D01*
X106480000Y-76990000D02*
X105000000Y-76990000D01*
X106287500Y-72500000D02*
X104595100Y-72500000D01*
X102829900Y-73075000D02*
X102450000Y-73454900D01*
X104020100Y-73075000D02*
X102829900Y-73075000D01*
X102450000Y-73454900D02*
X102450000Y-74445100D01*
%TO.N,RST_BOOST*%
X113500000Y-97010000D02*
X112020000Y-97010000D01*
X104362499Y-97749999D02*
X112760001Y-97749999D01*
X104062500Y-97450000D02*
X104362499Y-97749999D01*
X112760001Y-97749999D02*
X113500000Y-97010000D01*
X112020000Y-97010000D02*
X111000000Y-95990000D01*
%TO.N,EN_BOOST*%
X113500000Y-95990000D02*
X114490000Y-96980000D01*
X104950000Y-73914212D02*
X104950000Y-74100000D01*
X114490000Y-96980000D02*
X116000000Y-96980000D01*
X105864212Y-73000000D02*
X104950000Y-73914212D01*
X106287500Y-73000000D02*
X105864212Y-73000000D01*
X109450000Y-91940000D02*
X109450000Y-89175000D01*
X113500000Y-95990000D02*
X109450000Y-91940000D01*
%TO.N,CAM_TRIG0*%
D27*
X131551304Y-66500000D02*
X131025000Y-67026304D01*
X131428000Y-72094000D02*
X130889999Y-69700000D01*
X131025000Y-67026304D02*
X131025000Y-69565000D01*
X132400000Y-66500000D02*
X131551304Y-66500000D01*
X131025000Y-69565000D02*
X130890000Y-69700000D01*
%TO.N,CAM_SCK*%
D28*
X134750000Y-66525000D02*
X134750000Y-65200000D01*
X132325000Y-83368682D02*
X130137682Y-85556000D01*
X134750000Y-65200000D02*
X133600000Y-64050000D01*
X123750000Y-86110000D02*
X124304000Y-85556000D01*
X132325000Y-78350000D02*
X132325000Y-83368682D01*
X124304000Y-85556000D02*
X126094000Y-85556000D01*
X130137682Y-85556000D02*
X126094000Y-85556000D01*
%TO.N,VBSEL_B*%
D27*
X122500000Y-100990000D02*
X122510000Y-101000000D01*
X122500000Y-99375000D02*
X122500000Y-100990000D01*
%TO.N,CAM_MISO*%
X128785000Y-84540000D02*
X128875000Y-84450000D01*
X129975000Y-61275000D02*
X127175000Y-61275000D01*
X127374000Y-84550000D02*
X127364000Y-84540000D01*
X126094000Y-84540000D02*
X128785000Y-84540000D01*
X127364000Y-84540000D02*
X126094000Y-84540000D01*
%TO.N,CAM_CLKOUT_N*%
D29*
X130412000Y-91906000D02*
X130412000Y-93750000D01*
%TO.N,CAM_CLKOUT_P*%
X131428000Y-91906000D02*
X131428000Y-93750000D01*
%TO.N,CAM_D0_N*%
D30*
X138980000Y-98200000D02*
X138860000Y-98800000D01*
D29*
X132443999Y-91906000D02*
X132732000Y-93200000D01*
X132732000Y-93200000D02*
X132732000Y-97420000D01*
X138980000Y-97420000D02*
X138980000Y-98200000D01*
X132732000Y-97420000D02*
X138980000Y-97420000D01*
%TO.N,CAM_D0_P*%
X133460000Y-91906000D02*
X133172000Y-93200000D01*
X133172000Y-96980000D02*
X139420000Y-96980000D01*
X133172000Y-93200000D02*
X133172000Y-96980000D01*
D30*
X139420000Y-98200000D02*
X139540000Y-98800000D01*
D29*
X139420000Y-96980000D02*
X139420000Y-98200000D01*
%TO.N,CAM_D1_N*%
X134476000Y-91906000D02*
X134476000Y-93750000D01*
%TO.N,CAM_D1_P*%
X135492000Y-91906000D02*
X135492000Y-93750000D01*
%TO.N,CAM_D2_N*%
X141380000Y-96220000D02*
X141380000Y-98200000D01*
X136508000Y-91906000D02*
X136796000Y-93200000D01*
D30*
X141380000Y-98200000D02*
X141260000Y-98800000D01*
D29*
X136796000Y-96220000D02*
X141380000Y-96220000D01*
X136796000Y-93200000D02*
X136796000Y-96220000D01*
%TO.N,CAM_D2_P*%
X137236000Y-95780000D02*
X141820000Y-95780000D01*
D30*
X141820000Y-98200000D02*
X141940000Y-98800000D01*
D29*
X137524000Y-91906000D02*
X137236000Y-93200000D01*
X137236000Y-93200000D02*
X137236000Y-95780000D01*
X141820000Y-95780000D02*
X141820000Y-98200000D01*
%TO.N,CAM_D3_N*%
X138540000Y-91906000D02*
X138540000Y-93750000D01*
%TO.N,CAM_D3_P*%
X139556000Y-91906000D02*
X139556000Y-93750000D01*
%TO.N,CAM_SYNC_N*%
X140860000Y-93200000D02*
X140860000Y-95020000D01*
X143780000Y-95020000D02*
X143780000Y-98200000D01*
X140860000Y-95020000D02*
X143780000Y-95020000D01*
X140572000Y-91906000D02*
X140860000Y-93200000D01*
D30*
X143780000Y-98200000D02*
X143660000Y-98800000D01*
%TO.N,CAM_SYNC_P*%
X144220000Y-98200000D02*
X144340000Y-98800000D01*
D29*
X141300000Y-93200000D02*
X141300000Y-94580000D01*
X141588000Y-91906000D02*
X141300000Y-93200000D01*
X144220000Y-94580000D02*
X144220000Y-98200000D01*
X141300000Y-94580000D02*
X144220000Y-94580000D01*
%TO.N,CAM_LVDSCLK_N*%
X147700000Y-85000000D02*
X147700000Y-83524000D01*
X147700000Y-83524000D02*
X146500000Y-83524000D01*
%TO.N,CAM_LVDSCLK_P*%
X148320084Y-84675194D02*
X148225000Y-84580110D01*
X148225000Y-82508000D02*
X145906000Y-82508000D01*
X148225000Y-84580110D02*
X148225000Y-82508000D01*
%TO.N,IBIAS_MASTER*%
D28*
X147641000Y-78444000D02*
X145906000Y-78444000D01*
X148075000Y-78010000D02*
X147641000Y-78444000D01*
%TO.N,CAM_TRIG1*%
D27*
X129625000Y-63775000D02*
X129250000Y-64150000D01*
X129250000Y-64150000D02*
X129250000Y-68325000D01*
X129250000Y-68325000D02*
X129250000Y-68840000D01*
D28*
X130005000Y-71687000D02*
X130005000Y-69080000D01*
X130005000Y-69080000D02*
X129250000Y-68325000D01*
D27*
X129250000Y-68840000D02*
X128390000Y-69700000D01*
D28*
X130412000Y-72094000D02*
X130005000Y-71687000D01*
%TO.N,CAM_MON0*%
X128350000Y-77428000D02*
X126094000Y-77428000D01*
%TO.N,CAM_MON1*%
X128875000Y-78375000D02*
X128806000Y-78444000D01*
X128806000Y-78444000D02*
X126094000Y-78444000D01*
%TO.N,CAM_SS_N*%
X128875000Y-80400000D02*
X128799000Y-80476000D01*
D27*
X131039929Y-78235071D02*
X128875000Y-80400000D01*
X131039929Y-75147326D02*
X131039929Y-78235071D01*
D28*
X123750000Y-80490000D02*
X126080000Y-80490000D01*
D27*
X130217603Y-74325000D02*
X131039929Y-75147326D01*
D28*
X126080000Y-80490000D02*
X126094000Y-80476000D01*
X128799000Y-80476000D02*
X126094000Y-80476000D01*
%TO.N,EN_PIX*%
X111990000Y-92480000D02*
X111000000Y-91490000D01*
X125862500Y-68450000D02*
X123500000Y-68450000D01*
X123500000Y-68450000D02*
X121775000Y-70175000D01*
X104175000Y-92950000D02*
X105300000Y-94075000D01*
X111025000Y-90375000D02*
X111025000Y-91465000D01*
X104062500Y-92950000D02*
X104175000Y-92950000D01*
X113500000Y-92480000D02*
X111990000Y-92480000D01*
X111025000Y-91465000D02*
X111000000Y-91490000D01*
%TO.N,SW*%
X110750000Y-76150000D02*
X110750000Y-75614212D01*
X108135788Y-73000000D02*
X107712500Y-73000000D01*
X110750000Y-75614212D02*
X108135788Y-73000000D01*
%TD*%
%TA.AperFunction,Conductor*%
%TO.N,GND*%
G36*
X134014143Y-93375076D02*
G01*
X134049240Y-93425194D01*
X134048176Y-93486370D01*
X134040305Y-93503645D01*
X134009608Y-93556812D01*
X133994256Y-93614108D01*
X133975500Y-93684108D01*
X133975500Y-93815892D01*
X133988291Y-93863629D01*
X134009609Y-93943190D01*
X134075496Y-94057309D01*
X134075498Y-94057311D01*
X134075500Y-94057314D01*
X134168686Y-94150500D01*
X134168688Y-94150501D01*
X134168690Y-94150503D01*
X134282810Y-94216390D01*
X134282808Y-94216390D01*
X134282812Y-94216391D01*
X134282814Y-94216392D01*
X134410108Y-94250500D01*
X134410110Y-94250500D01*
X134541890Y-94250500D01*
X134541892Y-94250500D01*
X134669186Y-94216392D01*
X134669188Y-94216390D01*
X134669190Y-94216390D01*
X134783309Y-94150503D01*
X134783309Y-94150502D01*
X134783314Y-94150500D01*
X134876500Y-94057314D01*
X134894267Y-94026541D01*
X134898264Y-94019619D01*
X134943733Y-93978678D01*
X135004583Y-93972282D01*
X135057571Y-94002875D01*
X135069736Y-94019619D01*
X135091496Y-94057309D01*
X135091498Y-94057311D01*
X135091500Y-94057314D01*
X135184686Y-94150500D01*
X135184688Y-94150501D01*
X135184690Y-94150503D01*
X135298810Y-94216390D01*
X135298808Y-94216390D01*
X135298812Y-94216391D01*
X135298814Y-94216392D01*
X135426108Y-94250500D01*
X135426110Y-94250500D01*
X135557890Y-94250500D01*
X135557892Y-94250500D01*
X135685186Y-94216392D01*
X135685188Y-94216390D01*
X135685190Y-94216390D01*
X135799309Y-94150503D01*
X135799309Y-94150502D01*
X135799314Y-94150500D01*
X135892500Y-94057314D01*
X135914263Y-94019619D01*
X135958390Y-93943190D01*
X135958390Y-93943188D01*
X135958392Y-93943186D01*
X135992500Y-93815892D01*
X135992500Y-93684108D01*
X135958392Y-93556814D01*
X135927694Y-93503645D01*
X135914973Y-93443798D01*
X135939859Y-93387902D01*
X135992847Y-93357309D01*
X136053697Y-93363704D01*
X136070215Y-93373049D01*
X136071117Y-93373680D01*
X136071119Y-93373682D01*
X136071120Y-93373682D01*
X136071121Y-93373683D01*
X136171474Y-93420479D01*
X136171475Y-93420479D01*
X136171477Y-93420480D01*
X136217205Y-93426500D01*
X136326500Y-93426499D01*
X136384690Y-93445406D01*
X136420654Y-93494905D01*
X136425500Y-93525499D01*
X136425500Y-96268777D01*
X136443786Y-96337020D01*
X136450750Y-96363012D01*
X136499525Y-96447492D01*
X136501627Y-96450231D01*
X136502452Y-96452562D01*
X136502770Y-96453112D01*
X136502668Y-96453170D01*
X136522053Y-96507906D01*
X136504677Y-96566572D01*
X136456136Y-96603821D01*
X136423087Y-96609500D01*
X133641500Y-96609500D01*
X133583309Y-96590593D01*
X133547345Y-96541093D01*
X133542500Y-96510500D01*
X133542500Y-93525499D01*
X133561407Y-93467308D01*
X133610907Y-93431344D01*
X133641500Y-93426499D01*
X133750791Y-93426499D01*
X133750794Y-93426499D01*
X133796523Y-93420480D01*
X133896881Y-93373682D01*
X133896888Y-93373674D01*
X133897779Y-93373052D01*
X133899095Y-93372649D01*
X133904730Y-93370022D01*
X133905099Y-93370813D01*
X133956290Y-93355160D01*
X134014143Y-93375076D01*
G37*
%TD.AperFunction*%
%TA.AperFunction,Conductor*%
G36*
X138078143Y-93375076D02*
G01*
X138113240Y-93425194D01*
X138112176Y-93486370D01*
X138104305Y-93503645D01*
X138073608Y-93556812D01*
X138058256Y-93614108D01*
X138039500Y-93684108D01*
X138039500Y-93815892D01*
X138052291Y-93863629D01*
X138073609Y-93943190D01*
X138139496Y-94057309D01*
X138139498Y-94057311D01*
X138139500Y-94057314D01*
X138232686Y-94150500D01*
X138232688Y-94150501D01*
X138232690Y-94150503D01*
X138346810Y-94216390D01*
X138346808Y-94216390D01*
X138346812Y-94216391D01*
X138346814Y-94216392D01*
X138474108Y-94250500D01*
X138474110Y-94250500D01*
X138605890Y-94250500D01*
X138605892Y-94250500D01*
X138733186Y-94216392D01*
X138733188Y-94216390D01*
X138733190Y-94216390D01*
X138847309Y-94150503D01*
X138847309Y-94150502D01*
X138847314Y-94150500D01*
X138940500Y-94057314D01*
X138958267Y-94026541D01*
X138962264Y-94019619D01*
X139007733Y-93978678D01*
X139068583Y-93972282D01*
X139121571Y-94002875D01*
X139133736Y-94019619D01*
X139155496Y-94057309D01*
X139155498Y-94057311D01*
X139155500Y-94057314D01*
X139248686Y-94150500D01*
X139248688Y-94150501D01*
X139248690Y-94150503D01*
X139362810Y-94216390D01*
X139362808Y-94216390D01*
X139362812Y-94216391D01*
X139362814Y-94216392D01*
X139490108Y-94250500D01*
X139490110Y-94250500D01*
X139621890Y-94250500D01*
X139621892Y-94250500D01*
X139749186Y-94216392D01*
X139749188Y-94216390D01*
X139749190Y-94216390D01*
X139863309Y-94150503D01*
X139863309Y-94150502D01*
X139863314Y-94150500D01*
X139956500Y-94057314D01*
X139978263Y-94019619D01*
X140022390Y-93943190D01*
X140022390Y-93943188D01*
X140022392Y-93943186D01*
X140056500Y-93815892D01*
X140056500Y-93684108D01*
X140022392Y-93556814D01*
X139991694Y-93503645D01*
X139978973Y-93443798D01*
X140003859Y-93387902D01*
X140056847Y-93357309D01*
X140117697Y-93363704D01*
X140134215Y-93373049D01*
X140135117Y-93373680D01*
X140135119Y-93373682D01*
X140135120Y-93373682D01*
X140135121Y-93373683D01*
X140235474Y-93420479D01*
X140235475Y-93420479D01*
X140235477Y-93420480D01*
X140281205Y-93426500D01*
X140390500Y-93426499D01*
X140448690Y-93445406D01*
X140484654Y-93494905D01*
X140489500Y-93525499D01*
X140489500Y-94971223D01*
X140489500Y-95068777D01*
X140511766Y-95151878D01*
X140514750Y-95163012D01*
X140563525Y-95247492D01*
X140565627Y-95250231D01*
X140566452Y-95252562D01*
X140566770Y-95253112D01*
X140566668Y-95253170D01*
X140586053Y-95307906D01*
X140568677Y-95366572D01*
X140520136Y-95403821D01*
X140487087Y-95409500D01*
X137705500Y-95409500D01*
X137647309Y-95390593D01*
X137611345Y-95341093D01*
X137606500Y-95310500D01*
X137606500Y-93525499D01*
X137625407Y-93467308D01*
X137674907Y-93431344D01*
X137705500Y-93426499D01*
X137814791Y-93426499D01*
X137814794Y-93426499D01*
X137860523Y-93420480D01*
X137960881Y-93373682D01*
X137960888Y-93373674D01*
X137961779Y-93373052D01*
X137963095Y-93372649D01*
X137968730Y-93370022D01*
X137969099Y-93370813D01*
X138020290Y-93355160D01*
X138078143Y-93375076D01*
G37*
%TD.AperFunction*%
%TA.AperFunction,Conductor*%
G36*
X130933114Y-60519407D02*
G01*
X130969078Y-60568907D01*
X130969078Y-60630093D01*
X130933114Y-60679593D01*
X130900549Y-60695125D01*
X130837515Y-60712016D01*
X130837513Y-60712016D01*
X130837509Y-60712018D01*
X130711989Y-60784487D01*
X130609489Y-60886987D01*
X130583802Y-60931478D01*
X130538332Y-60972418D01*
X130477482Y-60978813D01*
X130424494Y-60948220D01*
X130419845Y-60941837D01*
X130419460Y-60942134D01*
X130415511Y-60936988D01*
X130415510Y-60936987D01*
X130415509Y-60936985D01*
X130313015Y-60834491D01*
X130313012Y-60834489D01*
X130313010Y-60834487D01*
X130187488Y-60762017D01*
X130187489Y-60762017D01*
X130157896Y-60754087D01*
X130047475Y-60724500D01*
X129902525Y-60724500D01*
X129840790Y-60741041D01*
X129762510Y-60762017D01*
X129636989Y-60834487D01*
X129636984Y-60834491D01*
X129575971Y-60895504D01*
X129521454Y-60923281D01*
X129505968Y-60924500D01*
X127644032Y-60924500D01*
X127585841Y-60905593D01*
X127574029Y-60895504D01*
X127513015Y-60834491D01*
X127513010Y-60834487D01*
X127387488Y-60762017D01*
X127387489Y-60762017D01*
X127357896Y-60754087D01*
X127247475Y-60724500D01*
X127102525Y-60724500D01*
X127040790Y-60741041D01*
X126962510Y-60762017D01*
X126836989Y-60834487D01*
X126734487Y-60936989D01*
X126662017Y-61062510D01*
X126624500Y-61202525D01*
X126624500Y-61347474D01*
X126662017Y-61487489D01*
X126734487Y-61613010D01*
X126734489Y-61613012D01*
X126734491Y-61613015D01*
X126836985Y-61715509D01*
X126836987Y-61715510D01*
X126836989Y-61715512D01*
X126962511Y-61787982D01*
X126962512Y-61787982D01*
X126962515Y-61787984D01*
X127102525Y-61825500D01*
X127102526Y-61825500D01*
X127247474Y-61825500D01*
X127247475Y-61825500D01*
X127387485Y-61787984D01*
X127387487Y-61787982D01*
X127387489Y-61787982D01*
X127513010Y-61715512D01*
X127513010Y-61715511D01*
X127513015Y-61715509D01*
X127555070Y-61673454D01*
X127574029Y-61654496D01*
X127628546Y-61626719D01*
X127644032Y-61625500D01*
X129505968Y-61625500D01*
X129564159Y-61644407D01*
X129575971Y-61654496D01*
X129636984Y-61715508D01*
X129636989Y-61715512D01*
X129762511Y-61787982D01*
X129762512Y-61787982D01*
X129762515Y-61787984D01*
X129902525Y-61825500D01*
X129902526Y-61825500D01*
X130047474Y-61825500D01*
X130047475Y-61825500D01*
X130187485Y-61787984D01*
X130187487Y-61787982D01*
X130187489Y-61787982D01*
X130313010Y-61715512D01*
X130313010Y-61715511D01*
X130313015Y-61715509D01*
X130415509Y-61613015D01*
X130441197Y-61568521D01*
X130486665Y-61527581D01*
X130547515Y-61521185D01*
X130600504Y-61551777D01*
X130605162Y-61558155D01*
X130605540Y-61557866D01*
X130609488Y-61563011D01*
X130609489Y-61563012D01*
X130609491Y-61563015D01*
X130711985Y-61665509D01*
X130711987Y-61665510D01*
X130711989Y-61665512D01*
X130837511Y-61737982D01*
X130837512Y-61737982D01*
X130837515Y-61737984D01*
X130977525Y-61775500D01*
X130977526Y-61775500D01*
X131122474Y-61775500D01*
X131122475Y-61775500D01*
X131262485Y-61737984D01*
X131308464Y-61711437D01*
X131368310Y-61698715D01*
X131424206Y-61723600D01*
X131427968Y-61727169D01*
X131466011Y-61765212D01*
X131466010Y-61765212D01*
X131531267Y-61830468D01*
X131531269Y-61830470D01*
X131580182Y-61858710D01*
X131611192Y-61876614D01*
X131700336Y-61900500D01*
X140205231Y-61900500D01*
X140263422Y-61919407D01*
X140275235Y-61929496D01*
X148440504Y-70094765D01*
X148468281Y-70149282D01*
X148469500Y-70164769D01*
X148469500Y-77400224D01*
X148450593Y-77458415D01*
X148401093Y-77494379D01*
X148356228Y-77498190D01*
X148326713Y-77493890D01*
X148296582Y-77489500D01*
X147853418Y-77489500D01*
X147789114Y-77498869D01*
X147778482Y-77500418D01*
X147662899Y-77556923D01*
X147662896Y-77556925D01*
X147595502Y-77624319D01*
X147540985Y-77652096D01*
X147480553Y-77642524D01*
X147437289Y-77599259D01*
X147426499Y-77554317D01*
X147426499Y-77137206D01*
X147420480Y-77091477D01*
X147390646Y-77027499D01*
X147373683Y-76991121D01*
X147373682Y-76991120D01*
X147373682Y-76991119D01*
X147295381Y-76912818D01*
X147295379Y-76912817D01*
X147295378Y-76912816D01*
X147195024Y-76866020D01*
X147172159Y-76863010D01*
X147149295Y-76860000D01*
X147149294Y-76860000D01*
X144662709Y-76860000D01*
X144662698Y-76860001D01*
X144616980Y-76866019D01*
X144616974Y-76866020D01*
X144508770Y-76916478D01*
X144507568Y-76913902D01*
X144464436Y-76927500D01*
X137107500Y-76927500D01*
X137049309Y-76908593D01*
X137013345Y-76859093D01*
X137008500Y-76828500D01*
X137008500Y-74460931D01*
X138324500Y-74460931D01*
X138324500Y-74589069D01*
X138349498Y-74714741D01*
X138349499Y-74714742D01*
X138349500Y-74714747D01*
X138398534Y-74833125D01*
X138398538Y-74833133D01*
X138431773Y-74882871D01*
X138469724Y-74939669D01*
X138560331Y-75030276D01*
X138618895Y-75069407D01*
X138666866Y-75101461D01*
X138666870Y-75101463D01*
X138666873Y-75101465D01*
X138785256Y-75150501D01*
X138910931Y-75175500D01*
X138910932Y-75175500D01*
X139039068Y-75175500D01*
X139039069Y-75175500D01*
X139164744Y-75150501D01*
X139283127Y-75101465D01*
X139389669Y-75030276D01*
X139480276Y-74939669D01*
X139551465Y-74833127D01*
X139600501Y-74714744D01*
X139621318Y-74610089D01*
X139648410Y-74559403D01*
X139956500Y-74251314D01*
X139963224Y-74239668D01*
X140022390Y-74137190D01*
X140022390Y-74137188D01*
X140022392Y-74137186D01*
X140056500Y-74009893D01*
X140056500Y-73878108D01*
X140056500Y-73535563D01*
X140070101Y-73492433D01*
X140067522Y-73491231D01*
X140117979Y-73383025D01*
X140117980Y-73383023D01*
X140124000Y-73337295D01*
X140123999Y-70850706D01*
X140123999Y-70850704D01*
X141020000Y-70850704D01*
X141020000Y-73337290D01*
X141020001Y-73337301D01*
X141026019Y-73383019D01*
X141026020Y-73383025D01*
X141072816Y-73483378D01*
X141072817Y-73483379D01*
X141072818Y-73483381D01*
X141151119Y-73561682D01*
X141151120Y-73561682D01*
X141151121Y-73561683D01*
X141163984Y-73567681D01*
X141251477Y-73608480D01*
X141297205Y-73614500D01*
X141878794Y-73614499D01*
X141882034Y-73614499D01*
X141882034Y-73616049D01*
X141935815Y-73629696D01*
X141974951Y-73676729D01*
X141980105Y-73732747D01*
X141974500Y-73760923D01*
X141974500Y-73760931D01*
X141974500Y-73889069D01*
X141995274Y-73993505D01*
X141999499Y-74014742D01*
X141999500Y-74014747D01*
X142048533Y-74133123D01*
X142048538Y-74133133D01*
X142072115Y-74168417D01*
X142119724Y-74239669D01*
X142210331Y-74330276D01*
X142249282Y-74356302D01*
X142316866Y-74401461D01*
X142316870Y-74401463D01*
X142316873Y-74401465D01*
X142435256Y-74450501D01*
X142560931Y-74475500D01*
X142560932Y-74475500D01*
X142689068Y-74475500D01*
X142689069Y-74475500D01*
X142814744Y-74450501D01*
X142933127Y-74401465D01*
X143039669Y-74330276D01*
X143130276Y-74239669D01*
X143182938Y-74160854D01*
X143230986Y-74122976D01*
X143292124Y-74120574D01*
X143342998Y-74154567D01*
X143347567Y-74160855D01*
X143389165Y-74223111D01*
X143389698Y-74223908D01*
X143522092Y-74356302D01*
X143582317Y-74396543D01*
X143677761Y-74460318D01*
X143677767Y-74460320D01*
X143677769Y-74460322D01*
X143850749Y-74531973D01*
X144034384Y-74568500D01*
X144034385Y-74568500D01*
X144221615Y-74568500D01*
X144221616Y-74568500D01*
X144405251Y-74531973D01*
X144578231Y-74460322D01*
X144578234Y-74460319D01*
X144578238Y-74460318D01*
X144665122Y-74402263D01*
X144733908Y-74356302D01*
X144866302Y-74223908D01*
X144942194Y-74110327D01*
X144970318Y-74068238D01*
X144970319Y-74068234D01*
X144970322Y-74068231D01*
X145041973Y-73895251D01*
X145078500Y-73711616D01*
X145078500Y-73524384D01*
X145041973Y-73340749D01*
X144970322Y-73167769D01*
X144970320Y-73167767D01*
X144970318Y-73167761D01*
X144910649Y-73078463D01*
X144866302Y-73012092D01*
X144733908Y-72879698D01*
X144689559Y-72850065D01*
X144578238Y-72775681D01*
X144578229Y-72775677D01*
X144405249Y-72704026D01*
X144221618Y-72667500D01*
X144221616Y-72667500D01*
X144034384Y-72667500D01*
X144034381Y-72667500D01*
X143850750Y-72704026D01*
X143677770Y-72775677D01*
X143677761Y-72775681D01*
X143522092Y-72879698D01*
X143522088Y-72879701D01*
X143389701Y-73012088D01*
X143389698Y-73012092D01*
X143306815Y-73136134D01*
X143258765Y-73174013D01*
X143197627Y-73176415D01*
X143146753Y-73142422D01*
X143125576Y-73085018D01*
X143125500Y-73081132D01*
X143125500Y-72297108D01*
X143122841Y-72287186D01*
X143122840Y-72287182D01*
X143120032Y-72276702D01*
X143091392Y-72169814D01*
X143025500Y-72055686D01*
X142982299Y-72012485D01*
X142932315Y-71962500D01*
X142663314Y-71693500D01*
X142663309Y-71693496D01*
X142549189Y-71627609D01*
X142549191Y-71627609D01*
X142499799Y-71614375D01*
X142421892Y-71593500D01*
X142421890Y-71593500D01*
X142254999Y-71593500D01*
X142196808Y-71574593D01*
X142160844Y-71525093D01*
X142155999Y-71494500D01*
X142155999Y-70850709D01*
X142155998Y-70850698D01*
X142149980Y-70804980D01*
X142149979Y-70804974D01*
X142103183Y-70704621D01*
X142103182Y-70704620D01*
X142103182Y-70704619D01*
X142024881Y-70626318D01*
X142024879Y-70626317D01*
X142024878Y-70626316D01*
X141924524Y-70579520D01*
X141901659Y-70576510D01*
X141878795Y-70573500D01*
X141878794Y-70573500D01*
X141297209Y-70573500D01*
X141297198Y-70573501D01*
X141251480Y-70579519D01*
X141251474Y-70579520D01*
X141151121Y-70626316D01*
X141072816Y-70704621D01*
X141026020Y-70804974D01*
X141026020Y-70804975D01*
X141020000Y-70850704D01*
X140123999Y-70850704D01*
X140117980Y-70804977D01*
X140109219Y-70786190D01*
X140071183Y-70704621D01*
X140071182Y-70704620D01*
X140071182Y-70704619D01*
X139992881Y-70626318D01*
X139992879Y-70626317D01*
X139992878Y-70626316D01*
X139892524Y-70579520D01*
X139869659Y-70576510D01*
X139846795Y-70573500D01*
X139846794Y-70573500D01*
X139265209Y-70573500D01*
X139265198Y-70573501D01*
X139219480Y-70579519D01*
X139219474Y-70579520D01*
X139119121Y-70626316D01*
X139040816Y-70704621D01*
X138994020Y-70804974D01*
X138994020Y-70804975D01*
X138988000Y-70850704D01*
X138988000Y-73337290D01*
X138988001Y-73337301D01*
X138994019Y-73383019D01*
X138994020Y-73383025D01*
X139044478Y-73491230D01*
X139041898Y-73492432D01*
X139055500Y-73535563D01*
X139055500Y-73695678D01*
X139036593Y-73753869D01*
X139026503Y-73765682D01*
X138940597Y-73851587D01*
X138889909Y-73878680D01*
X138785266Y-73899496D01*
X138785252Y-73899500D01*
X138666874Y-73948534D01*
X138666866Y-73948538D01*
X138560331Y-74019724D01*
X138560327Y-74019727D01*
X138469727Y-74110327D01*
X138469724Y-74110331D01*
X138398538Y-74216866D01*
X138398534Y-74216874D01*
X138349500Y-74335252D01*
X138349499Y-74335255D01*
X138349499Y-74335256D01*
X138345313Y-74356301D01*
X138326774Y-74449501D01*
X138324500Y-74460931D01*
X137008500Y-74460931D01*
X137008500Y-73535563D01*
X137022101Y-73492433D01*
X137019522Y-73491231D01*
X137069979Y-73383025D01*
X137069980Y-73383023D01*
X137076000Y-73337295D01*
X137075999Y-70850706D01*
X137069980Y-70804977D01*
X137061219Y-70786190D01*
X137023183Y-70704621D01*
X137023182Y-70704620D01*
X137023182Y-70704619D01*
X136944881Y-70626318D01*
X136944879Y-70626317D01*
X136944878Y-70626316D01*
X136844524Y-70579520D01*
X136821659Y-70576510D01*
X136798795Y-70573500D01*
X136798794Y-70573500D01*
X136217209Y-70573500D01*
X136217198Y-70573501D01*
X136171480Y-70579519D01*
X136171474Y-70579520D01*
X136071121Y-70626316D01*
X135992816Y-70704621D01*
X135946020Y-70804974D01*
X135946020Y-70804975D01*
X135940000Y-70850704D01*
X135940000Y-73337290D01*
X135940001Y-73337301D01*
X135946019Y-73383019D01*
X135946020Y-73383025D01*
X135996478Y-73491230D01*
X135993898Y-73492432D01*
X136007500Y-73535563D01*
X136007500Y-76965152D01*
X135990815Y-77020154D01*
X135931538Y-77108865D01*
X135931534Y-77108874D01*
X135882500Y-77227252D01*
X135882499Y-77227255D01*
X135882499Y-77227256D01*
X135857500Y-77352931D01*
X135857500Y-77481069D01*
X135881257Y-77600501D01*
X135882499Y-77606742D01*
X135882500Y-77606747D01*
X135931534Y-77725125D01*
X135931538Y-77725133D01*
X135974365Y-77789226D01*
X136002724Y-77831669D01*
X136093331Y-77922276D01*
X136150687Y-77960600D01*
X136199866Y-77993461D01*
X136199870Y-77993463D01*
X136199873Y-77993465D01*
X136318256Y-78042501D01*
X136443931Y-78067500D01*
X136443932Y-78067500D01*
X136572068Y-78067500D01*
X136572069Y-78067500D01*
X136697744Y-78042501D01*
X136816127Y-77993465D01*
X136888383Y-77945184D01*
X136943385Y-77928500D01*
X144319580Y-77928500D01*
X144377771Y-77947407D01*
X144413735Y-77996907D01*
X144413735Y-78058093D01*
X144409304Y-78069340D01*
X144391520Y-78107476D01*
X144385500Y-78153204D01*
X144385500Y-78734790D01*
X144385501Y-78734801D01*
X144391519Y-78780519D01*
X144391520Y-78780525D01*
X144438316Y-78880878D01*
X144438317Y-78880879D01*
X144438318Y-78880881D01*
X144516619Y-78959182D01*
X144616977Y-79005980D01*
X144662705Y-79012000D01*
X147149294Y-79011999D01*
X147195023Y-79005980D01*
X147295381Y-78959182D01*
X147373682Y-78880881D01*
X147373684Y-78880877D01*
X147375651Y-78876660D01*
X147417380Y-78831912D01*
X147465375Y-78819500D01*
X147690435Y-78819500D01*
X147690436Y-78819500D01*
X147767367Y-78798886D01*
X147785938Y-78793910D01*
X147871562Y-78744475D01*
X147941475Y-78674562D01*
X147941474Y-78674562D01*
X148056542Y-78559494D01*
X148111058Y-78531719D01*
X148126544Y-78530500D01*
X148296577Y-78530500D01*
X148296582Y-78530500D01*
X148356229Y-78521809D01*
X148416535Y-78532129D01*
X148459260Y-78575927D01*
X148469500Y-78619775D01*
X148469500Y-80303810D01*
X148450593Y-80362001D01*
X148440504Y-80373814D01*
X148153814Y-80660504D01*
X148099297Y-80688281D01*
X148083810Y-80689500D01*
X147878418Y-80689500D01*
X147803482Y-80700418D01*
X147687899Y-80756923D01*
X147687896Y-80756925D01*
X147594588Y-80850233D01*
X147540072Y-80878010D01*
X147479639Y-80868438D01*
X147436375Y-80825174D01*
X147426910Y-80770068D01*
X147426288Y-80770028D01*
X147426458Y-80767432D01*
X147426434Y-80767293D01*
X147426500Y-80766795D01*
X147426499Y-80185206D01*
X147420480Y-80139477D01*
X147401850Y-80099526D01*
X147373683Y-80039121D01*
X147373682Y-80039120D01*
X147373682Y-80039119D01*
X147295381Y-79960818D01*
X147295379Y-79960817D01*
X147295378Y-79960816D01*
X147195024Y-79914020D01*
X147172159Y-79911010D01*
X147149295Y-79908000D01*
X147149294Y-79908000D01*
X144662709Y-79908000D01*
X144662698Y-79908001D01*
X144616980Y-79914019D01*
X144616974Y-79914020D01*
X144508770Y-79964478D01*
X144507343Y-79961417D01*
X144465865Y-79974500D01*
X144201892Y-79974500D01*
X144070108Y-79974500D01*
X143992200Y-79995375D01*
X143942809Y-80008609D01*
X143828690Y-80074496D01*
X143735496Y-80167690D01*
X143669609Y-80281809D01*
X143669608Y-80281814D01*
X143645260Y-80372685D01*
X143635500Y-80409109D01*
X143635500Y-83940500D01*
X143616593Y-83998691D01*
X143567093Y-84034655D01*
X143536500Y-84039500D01*
X135875892Y-84039500D01*
X135744108Y-84039500D01*
X135666200Y-84060375D01*
X135616809Y-84073609D01*
X135502690Y-84139496D01*
X132583682Y-87058504D01*
X132529165Y-87086281D01*
X132513678Y-87087500D01*
X127535564Y-87087500D01*
X127492431Y-87073902D01*
X127491231Y-87076478D01*
X127383024Y-87026020D01*
X127360159Y-87023010D01*
X127337295Y-87020000D01*
X127337294Y-87020000D01*
X124850709Y-87020000D01*
X124850698Y-87020001D01*
X124804980Y-87026019D01*
X124804974Y-87026020D01*
X124696770Y-87076478D01*
X124695568Y-87073902D01*
X124652436Y-87087500D01*
X123964588Y-87087500D01*
X123906397Y-87068593D01*
X123894584Y-87058504D01*
X123635584Y-86799504D01*
X123607807Y-86744987D01*
X123617378Y-86684555D01*
X123660643Y-86641290D01*
X123705588Y-86630500D01*
X123971578Y-86630500D01*
X123971582Y-86630500D01*
X124046518Y-86619582D01*
X124162102Y-86563076D01*
X124253076Y-86472102D01*
X124309582Y-86356518D01*
X124320500Y-86281582D01*
X124320500Y-86111545D01*
X124322968Y-86103947D01*
X124321719Y-86096058D01*
X124332243Y-86075402D01*
X124339407Y-86053354D01*
X124349496Y-86041541D01*
X124430541Y-85960496D01*
X124485058Y-85932719D01*
X124500545Y-85931500D01*
X124534625Y-85931500D01*
X124592816Y-85950407D01*
X124624349Y-85988660D01*
X124626315Y-85992877D01*
X124626317Y-85992879D01*
X124626318Y-85992881D01*
X124704619Y-86071182D01*
X124804977Y-86117980D01*
X124850705Y-86124000D01*
X127337294Y-86123999D01*
X127383023Y-86117980D01*
X127483381Y-86071182D01*
X127561682Y-85992881D01*
X127561684Y-85992877D01*
X127563651Y-85988660D01*
X127605380Y-85943912D01*
X127653375Y-85931500D01*
X130187118Y-85931500D01*
X130234868Y-85918705D01*
X130234869Y-85918705D01*
X130282616Y-85905911D01*
X130282615Y-85905911D01*
X130282620Y-85905910D01*
X130368244Y-85856475D01*
X130438157Y-85786562D01*
X130438156Y-85786562D01*
X132625475Y-83599245D01*
X132674911Y-83513619D01*
X132700500Y-83418118D01*
X132700500Y-83319246D01*
X132700500Y-78794031D01*
X132719407Y-78735840D01*
X132729490Y-78724033D01*
X132765509Y-78688015D01*
X132824796Y-78585327D01*
X132837982Y-78562489D01*
X132837982Y-78562487D01*
X132837984Y-78562485D01*
X132875500Y-78422475D01*
X132875500Y-78277525D01*
X132837984Y-78137515D01*
X132837982Y-78137512D01*
X132837982Y-78137510D01*
X132765512Y-78011989D01*
X132765510Y-78011987D01*
X132765509Y-78011985D01*
X132663015Y-77909491D01*
X132663012Y-77909489D01*
X132663010Y-77909487D01*
X132537488Y-77837017D01*
X132537489Y-77837017D01*
X132491462Y-77824684D01*
X132397475Y-77799500D01*
X132252525Y-77799500D01*
X132227920Y-77806093D01*
X132112510Y-77837017D01*
X131986989Y-77909487D01*
X131986988Y-77909488D01*
X131986985Y-77909490D01*
X131986985Y-77909491D01*
X131959430Y-77937045D01*
X131904916Y-77964821D01*
X131844484Y-77955250D01*
X131801219Y-77911985D01*
X131790429Y-77867040D01*
X131790429Y-75632456D01*
X131809336Y-75574265D01*
X131858836Y-75538301D01*
X131920022Y-75538301D01*
X131969522Y-75574265D01*
X131975165Y-75582956D01*
X132043496Y-75701309D01*
X132043497Y-75701310D01*
X132043498Y-75701311D01*
X132043500Y-75701314D01*
X132724500Y-76382314D01*
X132724499Y-76382314D01*
X132817685Y-76475499D01*
X132817690Y-76475503D01*
X132902554Y-76524500D01*
X132929195Y-76539880D01*
X132931814Y-76541392D01*
X133059107Y-76575500D01*
X133059108Y-76575500D01*
X133059109Y-76575500D01*
X133765890Y-76575500D01*
X133765892Y-76575500D01*
X133893186Y-76541392D01*
X133893188Y-76541390D01*
X133893190Y-76541390D01*
X134007309Y-76475503D01*
X134007309Y-76475502D01*
X134007314Y-76475500D01*
X134876500Y-75606314D01*
X134905967Y-75555276D01*
X134942390Y-75492190D01*
X134942390Y-75492188D01*
X134942392Y-75492186D01*
X134976500Y-75364892D01*
X134976500Y-75233107D01*
X134976500Y-73535563D01*
X134990101Y-73492433D01*
X134987522Y-73491231D01*
X135037979Y-73383025D01*
X135037980Y-73383023D01*
X135044000Y-73337295D01*
X135043999Y-70850706D01*
X135037980Y-70804977D01*
X135037978Y-70804972D01*
X134998858Y-70721078D01*
X134991401Y-70660349D01*
X135018576Y-70609237D01*
X135640163Y-69987649D01*
X135694676Y-69959874D01*
X135782175Y-69946017D01*
X135892391Y-69889859D01*
X135979859Y-69802391D01*
X136036017Y-69692175D01*
X136050500Y-69600735D01*
X136050499Y-69348319D01*
X136069406Y-69290130D01*
X136079489Y-69278323D01*
X136328318Y-69029496D01*
X136382834Y-69001719D01*
X136398321Y-69000500D01*
X137405068Y-69000500D01*
X137463259Y-69019407D01*
X137499223Y-69068907D01*
X137502848Y-69114985D01*
X137495918Y-69158744D01*
X137489500Y-69199263D01*
X137489500Y-69600737D01*
X137503983Y-69692174D01*
X137503984Y-69692178D01*
X137542749Y-69768258D01*
X137560141Y-69802391D01*
X137647609Y-69889859D01*
X137757825Y-69946017D01*
X137849265Y-69960500D01*
X138190734Y-69960499D01*
X138190737Y-69960499D01*
X138217332Y-69956286D01*
X138282175Y-69946017D01*
X138392391Y-69889859D01*
X138479859Y-69802391D01*
X138536017Y-69692175D01*
X138550500Y-69600735D01*
X138550499Y-69308320D01*
X138569406Y-69250131D01*
X138579489Y-69238324D01*
X138788319Y-69029496D01*
X138842835Y-69001719D01*
X138858322Y-69000500D01*
X139273153Y-69000500D01*
X139328153Y-69017184D01*
X139369873Y-69045061D01*
X139416866Y-69076461D01*
X139416870Y-69076463D01*
X139416873Y-69076465D01*
X139535256Y-69125501D01*
X139639908Y-69146318D01*
X139690598Y-69173412D01*
X139960504Y-69443318D01*
X139988281Y-69497835D01*
X139989500Y-69513321D01*
X139989500Y-69600736D01*
X140003983Y-69692174D01*
X140003984Y-69692178D01*
X140042749Y-69768258D01*
X140060141Y-69802391D01*
X140147609Y-69889859D01*
X140257825Y-69946017D01*
X140349265Y-69960500D01*
X140690734Y-69960499D01*
X140690737Y-69960499D01*
X140717332Y-69956286D01*
X140782175Y-69946017D01*
X140892391Y-69889859D01*
X140979859Y-69802391D01*
X141036017Y-69692175D01*
X141050500Y-69600735D01*
X141050499Y-69199266D01*
X141050499Y-69199263D01*
X141050499Y-69199262D01*
X141038206Y-69121646D01*
X141037151Y-69114986D01*
X141046722Y-69054555D01*
X141089987Y-69011290D01*
X141134932Y-69000500D01*
X142585890Y-69000500D01*
X142585892Y-69000500D01*
X142713186Y-68966392D01*
X142713188Y-68966390D01*
X142713189Y-68966390D01*
X142827309Y-68900503D01*
X142827309Y-68900502D01*
X142827314Y-68900500D01*
X143640163Y-68087649D01*
X143694676Y-68059874D01*
X143782175Y-68046017D01*
X143892391Y-67989859D01*
X143979859Y-67902391D01*
X144036017Y-67792175D01*
X144050500Y-67700735D01*
X144050499Y-67299266D01*
X144050499Y-67299263D01*
X144050499Y-67299262D01*
X144044882Y-67263801D01*
X144036017Y-67207825D01*
X143979859Y-67097609D01*
X143892391Y-67010141D01*
X143782175Y-66953983D01*
X143782176Y-66953983D01*
X143690736Y-66939500D01*
X143349262Y-66939500D01*
X143257825Y-66953983D01*
X143257821Y-66953984D01*
X143147610Y-67010140D01*
X143060140Y-67097610D01*
X143003983Y-67207823D01*
X142990124Y-67295321D01*
X142962347Y-67349836D01*
X142341682Y-67970503D01*
X142287165Y-67998281D01*
X142271678Y-67999500D01*
X141091932Y-67999500D01*
X141033741Y-67980593D01*
X140997777Y-67931093D01*
X140997777Y-67869907D01*
X141003723Y-67855554D01*
X141036017Y-67792175D01*
X141050500Y-67700735D01*
X141050499Y-67299266D01*
X141050499Y-67299263D01*
X141050499Y-67299262D01*
X141044882Y-67263801D01*
X141036017Y-67207825D01*
X140979859Y-67097609D01*
X140892391Y-67010141D01*
X140782175Y-66953983D01*
X140782176Y-66953983D01*
X140690736Y-66939500D01*
X140349262Y-66939500D01*
X140257825Y-66953983D01*
X140257821Y-66953984D01*
X140147610Y-67010140D01*
X140060140Y-67097610D01*
X140003983Y-67207823D01*
X139989500Y-67299263D01*
X139989500Y-67486678D01*
X139970593Y-67544869D01*
X139960509Y-67556675D01*
X139825510Y-67691676D01*
X139690599Y-67826587D01*
X139639910Y-67853681D01*
X139572784Y-67867034D01*
X139535256Y-67874499D01*
X139535255Y-67874499D01*
X139535252Y-67874500D01*
X139416874Y-67923534D01*
X139416866Y-67923538D01*
X139351563Y-67967173D01*
X139328153Y-67982815D01*
X139273153Y-67999500D01*
X138858323Y-67999500D01*
X138800132Y-67980593D01*
X138788319Y-67970504D01*
X138579495Y-67761680D01*
X138551718Y-67707163D01*
X138550499Y-67691688D01*
X138550499Y-67299266D01*
X138550499Y-67299263D01*
X138550499Y-67299262D01*
X138544882Y-67263801D01*
X138536017Y-67207825D01*
X138479859Y-67097609D01*
X138392391Y-67010141D01*
X138282175Y-66953983D01*
X138282176Y-66953983D01*
X138190736Y-66939500D01*
X137849262Y-66939500D01*
X137757825Y-66953983D01*
X137757821Y-66953984D01*
X137647610Y-67010140D01*
X137560140Y-67097610D01*
X137503983Y-67207823D01*
X137489500Y-67299263D01*
X137489500Y-67700737D01*
X137499153Y-67761680D01*
X137503983Y-67792175D01*
X137508709Y-67801450D01*
X137519500Y-67846396D01*
X137519500Y-67900500D01*
X137500593Y-67958691D01*
X137451093Y-67994655D01*
X137420500Y-67999500D01*
X136398322Y-67999500D01*
X136340131Y-67980593D01*
X136328318Y-67970504D01*
X136079495Y-67721681D01*
X136051718Y-67667164D01*
X136050499Y-67651677D01*
X136050499Y-67299262D01*
X136044882Y-67263801D01*
X136036017Y-67207825D01*
X135979859Y-67097609D01*
X135892391Y-67010141D01*
X135782175Y-66953983D01*
X135782176Y-66953983D01*
X135690736Y-66939500D01*
X135349265Y-66939500D01*
X135330927Y-66942405D01*
X135270495Y-66932831D01*
X135227232Y-66889566D01*
X135217662Y-66829133D01*
X135229707Y-66795122D01*
X135238099Y-66780587D01*
X135262984Y-66737485D01*
X135300500Y-66597475D01*
X135300500Y-66452525D01*
X135262984Y-66312515D01*
X135262982Y-66312512D01*
X135262982Y-66312510D01*
X135190512Y-66186989D01*
X135190510Y-66186987D01*
X135190509Y-66186985D01*
X135088015Y-66084491D01*
X135088012Y-66084489D01*
X135088010Y-66084487D01*
X135074996Y-66076973D01*
X135034057Y-66031502D01*
X135025500Y-65991239D01*
X135025500Y-65145198D01*
X134983559Y-65043944D01*
X134983558Y-65043943D01*
X134983558Y-65043942D01*
X134079496Y-64139880D01*
X134051719Y-64085363D01*
X134050500Y-64069876D01*
X134050500Y-63990692D01*
X134050500Y-63990691D01*
X134019799Y-63876114D01*
X134019797Y-63876111D01*
X134019797Y-63876109D01*
X133960492Y-63773391D01*
X133960490Y-63773389D01*
X133960489Y-63773387D01*
X133876613Y-63689511D01*
X133876610Y-63689509D01*
X133876608Y-63689507D01*
X133773889Y-63630202D01*
X133773890Y-63630202D01*
X133760351Y-63626574D01*
X133659309Y-63599500D01*
X133540691Y-63599500D01*
X133470567Y-63618289D01*
X133426109Y-63630202D01*
X133323391Y-63689507D01*
X133239507Y-63773391D01*
X133180202Y-63876109D01*
X133180201Y-63876114D01*
X133149500Y-63990691D01*
X133149500Y-64109309D01*
X133149833Y-64110551D01*
X133180202Y-64223890D01*
X133239507Y-64326608D01*
X133239509Y-64326610D01*
X133239511Y-64326613D01*
X133323387Y-64410489D01*
X133323389Y-64410490D01*
X133323391Y-64410492D01*
X133426110Y-64469797D01*
X133426111Y-64469797D01*
X133426114Y-64469799D01*
X133540691Y-64500500D01*
X133540693Y-64500500D01*
X133619876Y-64500500D01*
X133678067Y-64519407D01*
X133689880Y-64529496D01*
X134445504Y-65285119D01*
X134473281Y-65339636D01*
X134474500Y-65355123D01*
X134474500Y-65991239D01*
X134455593Y-66049430D01*
X134425004Y-66076973D01*
X134411989Y-66084487D01*
X134309487Y-66186989D01*
X134237017Y-66312510D01*
X134204435Y-66434108D01*
X134199500Y-66452525D01*
X134199500Y-66597475D01*
X134224591Y-66691114D01*
X134237017Y-66737489D01*
X134309487Y-66863010D01*
X134309489Y-66863012D01*
X134309491Y-66863015D01*
X134411985Y-66965509D01*
X134411987Y-66965510D01*
X134411989Y-66965512D01*
X134537511Y-67037982D01*
X134537512Y-67037982D01*
X134537515Y-67037984D01*
X134677525Y-67075500D01*
X134677526Y-67075500D01*
X134822476Y-67075500D01*
X134822476Y-67075499D01*
X134895984Y-67055803D01*
X134957084Y-67059004D01*
X135004635Y-67097509D01*
X135020471Y-67156609D01*
X135009818Y-67196371D01*
X135003983Y-67207822D01*
X135003983Y-67207823D01*
X134989500Y-67299263D01*
X134989500Y-67700737D01*
X134999153Y-67761680D01*
X135003983Y-67792175D01*
X135008709Y-67801450D01*
X135019500Y-67846396D01*
X135019500Y-67900500D01*
X135000593Y-67958691D01*
X134951093Y-67994655D01*
X134920500Y-67999500D01*
X134080055Y-67999500D01*
X134021864Y-67980593D01*
X134010051Y-67970504D01*
X133653921Y-67614374D01*
X133626144Y-67559857D01*
X133628297Y-67518753D01*
X133650500Y-67435892D01*
X133650500Y-67304107D01*
X133616392Y-67176814D01*
X133616390Y-67176811D01*
X133616390Y-67176809D01*
X133563764Y-67085659D01*
X133550500Y-67036159D01*
X133550500Y-66136613D01*
X133550500Y-66136612D01*
X133540556Y-66099500D01*
X133523207Y-66034751D01*
X133523204Y-66034745D01*
X133470483Y-65943430D01*
X133470482Y-65943429D01*
X133470481Y-65943428D01*
X133470480Y-65943426D01*
X132506574Y-64979520D01*
X132304496Y-64777442D01*
X132276719Y-64722925D01*
X132275500Y-64707438D01*
X132275500Y-62797274D01*
X132275500Y-62797273D01*
X132248207Y-62695413D01*
X132195480Y-62604087D01*
X132120913Y-62529520D01*
X132029587Y-62476793D01*
X131927727Y-62449500D01*
X131927725Y-62449500D01*
X129083806Y-62449500D01*
X129083790Y-62449499D01*
X129077727Y-62449499D01*
X128972273Y-62449499D01*
X128972270Y-62449499D01*
X128870413Y-62476792D01*
X128870409Y-62476794D01*
X128779087Y-62529519D01*
X128704519Y-62604086D01*
X128704520Y-62604087D01*
X128704518Y-62604089D01*
X128704517Y-62604089D01*
X128090361Y-63218243D01*
X128045982Y-63243865D01*
X127944314Y-63271107D01*
X127944310Y-63271109D01*
X127830190Y-63336996D01*
X127736996Y-63430190D01*
X127671109Y-63544309D01*
X127637000Y-63671609D01*
X127637000Y-65908053D01*
X127618093Y-65966244D01*
X127568593Y-66002208D01*
X127553486Y-66005834D01*
X127499700Y-66014352D01*
X127499695Y-66014354D01*
X127386659Y-66071949D01*
X127296949Y-66161659D01*
X127239354Y-66274695D01*
X127224500Y-66368477D01*
X127224500Y-66731520D01*
X127224501Y-66731523D01*
X127239352Y-66825299D01*
X127239354Y-66825304D01*
X127296950Y-66938342D01*
X127386658Y-67028050D01*
X127499696Y-67085646D01*
X127593481Y-67100500D01*
X128681518Y-67100499D01*
X128681521Y-67100499D01*
X128681522Y-67100498D01*
X128728411Y-67093072D01*
X128775299Y-67085647D01*
X128775304Y-67085646D01*
X128775306Y-67085645D01*
X128855555Y-67044755D01*
X128915986Y-67035184D01*
X128970503Y-67062961D01*
X128998281Y-67117477D01*
X128999500Y-67132965D01*
X128999500Y-67867034D01*
X128980593Y-67925225D01*
X128931093Y-67961189D01*
X128869907Y-67961189D01*
X128855555Y-67955244D01*
X128840985Y-67947820D01*
X128775304Y-67914354D01*
X128744042Y-67909402D01*
X128681521Y-67899500D01*
X127593478Y-67899500D01*
X127593476Y-67899501D01*
X127499700Y-67914352D01*
X127499695Y-67914354D01*
X127386659Y-67971949D01*
X127296949Y-68061659D01*
X127239354Y-68174695D01*
X127224500Y-68268477D01*
X127224500Y-68631520D01*
X127224501Y-68631523D01*
X127239352Y-68725299D01*
X127239354Y-68725304D01*
X127296950Y-68838342D01*
X127386658Y-68928050D01*
X127499696Y-68985646D01*
X127593481Y-69000500D01*
X128001772Y-69000499D01*
X128059962Y-69019406D01*
X128095926Y-69068906D01*
X128095926Y-69130091D01*
X128059962Y-69179592D01*
X128045253Y-69188439D01*
X128027900Y-69196922D01*
X127936923Y-69287899D01*
X127904500Y-69354221D01*
X127880418Y-69403482D01*
X127869500Y-69478418D01*
X127869500Y-69921582D01*
X127880418Y-69996518D01*
X127936924Y-70112102D01*
X128027898Y-70203076D01*
X128143482Y-70259582D01*
X128218418Y-70270500D01*
X128218421Y-70270500D01*
X128561578Y-70270500D01*
X128561582Y-70270500D01*
X128636518Y-70259582D01*
X128752102Y-70203076D01*
X128843076Y-70112102D01*
X128899582Y-69996518D01*
X128910500Y-69921582D01*
X128910500Y-69716189D01*
X128929407Y-69657998D01*
X128939490Y-69646191D01*
X129419818Y-69165862D01*
X129433789Y-69158744D01*
X129444877Y-69147657D01*
X129460364Y-69145204D01*
X129474335Y-69138086D01*
X129489822Y-69140538D01*
X129505309Y-69138086D01*
X129519279Y-69145204D01*
X129534767Y-69147657D01*
X129559826Y-69165863D01*
X129600504Y-69206541D01*
X129628281Y-69261058D01*
X129629500Y-69276545D01*
X129629500Y-71736435D01*
X129655090Y-71831938D01*
X129655091Y-71831940D01*
X129694855Y-71900812D01*
X129694855Y-71900815D01*
X129704524Y-71917560D01*
X129704526Y-71917563D01*
X129815005Y-72028042D01*
X129842781Y-72082557D01*
X129844000Y-72098044D01*
X129844000Y-73337290D01*
X129844001Y-73337301D01*
X129850019Y-73383019D01*
X129850020Y-73383025D01*
X129896816Y-73483378D01*
X129896817Y-73483379D01*
X129896818Y-73483381D01*
X129975119Y-73561682D01*
X130075477Y-73608480D01*
X130075480Y-73608480D01*
X130080485Y-73610814D01*
X130125233Y-73652543D01*
X130136908Y-73712604D01*
X130111050Y-73768057D01*
X130064270Y-73796165D01*
X130005118Y-73812015D01*
X130005114Y-73812017D01*
X129879592Y-73884487D01*
X129777090Y-73986989D01*
X129704620Y-74112510D01*
X129670547Y-74239672D01*
X129667103Y-74252525D01*
X129667103Y-74397475D01*
X129687484Y-74473538D01*
X129704620Y-74537489D01*
X129777090Y-74663010D01*
X129777092Y-74663012D01*
X129777094Y-74663015D01*
X129879588Y-74765509D01*
X129879590Y-74765510D01*
X129879592Y-74765512D01*
X130005114Y-74837982D01*
X130005115Y-74837983D01*
X130005117Y-74837983D01*
X130005118Y-74837984D01*
X130008391Y-74838861D01*
X130010426Y-74840182D01*
X130011110Y-74840466D01*
X130011057Y-74840592D01*
X130059704Y-74872187D01*
X130081629Y-74929309D01*
X130065792Y-74988409D01*
X130052769Y-75004490D01*
X129999420Y-75057839D01*
X129999416Y-75057844D01*
X129926946Y-75183365D01*
X129906344Y-75260252D01*
X129889429Y-75323380D01*
X129889429Y-75468330D01*
X129919016Y-75578751D01*
X129926946Y-75608344D01*
X129999416Y-75733865D01*
X129999418Y-75733867D01*
X129999420Y-75733870D01*
X130085515Y-75819965D01*
X130113291Y-75874480D01*
X130114510Y-75889967D01*
X130114510Y-77688444D01*
X130095603Y-77746635D01*
X130085514Y-77758448D01*
X129530425Y-78313536D01*
X129475908Y-78341313D01*
X129415476Y-78331742D01*
X129372211Y-78288477D01*
X129364796Y-78269161D01*
X129341392Y-78181814D01*
X129341390Y-78181811D01*
X129341390Y-78181809D01*
X129275503Y-78067690D01*
X129275501Y-78067688D01*
X129275500Y-78067686D01*
X129182314Y-77974500D01*
X129182311Y-77974498D01*
X129182309Y-77974496D01*
X129068189Y-77908609D01*
X129068191Y-77908609D01*
X129015131Y-77894392D01*
X128940892Y-77874500D01*
X128841614Y-77874500D01*
X128783423Y-77855593D01*
X128747459Y-77806093D01*
X128747459Y-77744907D01*
X128755878Y-77726000D01*
X128816390Y-77621190D01*
X128816390Y-77621188D01*
X128816392Y-77621186D01*
X128850500Y-77493892D01*
X128850500Y-77362108D01*
X128816392Y-77234814D01*
X128816390Y-77234811D01*
X128816390Y-77234809D01*
X128750503Y-77120690D01*
X128750501Y-77120688D01*
X128750500Y-77120686D01*
X128657314Y-77027500D01*
X128657311Y-77027498D01*
X128652927Y-77024134D01*
X128618274Y-76973708D01*
X128619878Y-76912543D01*
X128657127Y-76864003D01*
X128715793Y-76846628D01*
X128738811Y-76849965D01*
X128834108Y-76875500D01*
X128834110Y-76875500D01*
X128965890Y-76875500D01*
X128965892Y-76875500D01*
X129093186Y-76841392D01*
X129093188Y-76841390D01*
X129093190Y-76841390D01*
X129207309Y-76775503D01*
X129207309Y-76775502D01*
X129207314Y-76775500D01*
X129300500Y-76682314D01*
X129337267Y-76618632D01*
X129366390Y-76568190D01*
X129366390Y-76568188D01*
X129366392Y-76568186D01*
X129400500Y-76440892D01*
X129400500Y-76309108D01*
X129366392Y-76181814D01*
X129366390Y-76181811D01*
X129366390Y-76181809D01*
X129300503Y-76067690D01*
X129300501Y-76067688D01*
X129300500Y-76067686D01*
X129207314Y-75974500D01*
X129207311Y-75974498D01*
X129207309Y-75974496D01*
X129093190Y-75908609D01*
X129078151Y-75904579D01*
X128965892Y-75874500D01*
X128834108Y-75874500D01*
X128776384Y-75889967D01*
X128706809Y-75908609D01*
X128592690Y-75974496D01*
X128559681Y-76007505D01*
X128505164Y-76035281D01*
X128489678Y-76036500D01*
X127653375Y-76036500D01*
X127595184Y-76017593D01*
X127563651Y-75979340D01*
X127561684Y-75975122D01*
X127561682Y-75975120D01*
X127561682Y-75975119D01*
X127483381Y-75896818D01*
X127483379Y-75896817D01*
X127483378Y-75896816D01*
X127383024Y-75850020D01*
X127360159Y-75847010D01*
X127337295Y-75844000D01*
X127337294Y-75844000D01*
X124850709Y-75844000D01*
X124850698Y-75844001D01*
X124804980Y-75850019D01*
X124804974Y-75850020D01*
X124704621Y-75896816D01*
X124626316Y-75975121D01*
X124579520Y-76075474D01*
X124579520Y-76075475D01*
X124573500Y-76121204D01*
X124573500Y-76296541D01*
X124554593Y-76354732D01*
X124505093Y-76390696D01*
X124495074Y-76393380D01*
X124205754Y-76454848D01*
X124144904Y-76448446D01*
X124141700Y-76446950D01*
X124129304Y-76440890D01*
X124046518Y-76400418D01*
X123971582Y-76389500D01*
X123528418Y-76389500D01*
X123453482Y-76400418D01*
X123337899Y-76456923D01*
X123246921Y-76547901D01*
X123193260Y-76657667D01*
X123150717Y-76701641D01*
X123090451Y-76712210D01*
X123035483Y-76685337D01*
X123016112Y-76659134D01*
X122989859Y-76607609D01*
X122902391Y-76520141D01*
X122792175Y-76463983D01*
X122792176Y-76463983D01*
X122700736Y-76449500D01*
X122299262Y-76449500D01*
X122207825Y-76463983D01*
X122198546Y-76468711D01*
X122153603Y-76479500D01*
X120846397Y-76479500D01*
X120801452Y-76468710D01*
X120792175Y-76463983D01*
X120700736Y-76449500D01*
X120299262Y-76449500D01*
X120207825Y-76463983D01*
X120198546Y-76468711D01*
X120153603Y-76479500D01*
X119659330Y-76479500D01*
X119604329Y-76462815D01*
X119567473Y-76438188D01*
X119508133Y-76398538D01*
X119508125Y-76398534D01*
X119389747Y-76349500D01*
X119389745Y-76349499D01*
X119389744Y-76349499D01*
X119264069Y-76324500D01*
X119135931Y-76324500D01*
X119135930Y-76324500D01*
X119073093Y-76336999D01*
X119010256Y-76349499D01*
X119010255Y-76349499D01*
X119010252Y-76349500D01*
X118891874Y-76398534D01*
X118891866Y-76398538D01*
X118785331Y-76469724D01*
X118785327Y-76469727D01*
X118694727Y-76560327D01*
X118694724Y-76560331D01*
X118623538Y-76666866D01*
X118623534Y-76666874D01*
X118574500Y-76785252D01*
X118574498Y-76785259D01*
X118573741Y-76789066D01*
X118543841Y-76842448D01*
X118488274Y-76868060D01*
X118428265Y-76856120D01*
X118397391Y-76829075D01*
X118332549Y-76742458D01*
X118332548Y-76742457D01*
X118332546Y-76742454D01*
X118299646Y-76717825D01*
X118217329Y-76656202D01*
X118082488Y-76605910D01*
X118082483Y-76605909D01*
X118082481Y-76605908D01*
X118082477Y-76605908D01*
X118051249Y-76602550D01*
X118022873Y-76599500D01*
X118022870Y-76599500D01*
X117321545Y-76599500D01*
X117263354Y-76580593D01*
X117251541Y-76570504D01*
X116854496Y-76173459D01*
X116826719Y-76118942D01*
X116825500Y-76103455D01*
X116825500Y-74985930D01*
X118874500Y-74985930D01*
X118874500Y-75114069D01*
X118899499Y-75239742D01*
X118899500Y-75239747D01*
X118948534Y-75358125D01*
X118948538Y-75358133D01*
X118989709Y-75419749D01*
X119019724Y-75464669D01*
X119110331Y-75555276D01*
X119158088Y-75587186D01*
X119216866Y-75626461D01*
X119216870Y-75626463D01*
X119216873Y-75626465D01*
X119335256Y-75675501D01*
X119460931Y-75700500D01*
X119460932Y-75700500D01*
X119589068Y-75700500D01*
X119589069Y-75700500D01*
X119714744Y-75675501D01*
X119833127Y-75626465D01*
X119921846Y-75567184D01*
X119976847Y-75550500D01*
X120495890Y-75550500D01*
X120495892Y-75550500D01*
X120623186Y-75516392D01*
X120623186Y-75516391D01*
X120629455Y-75514712D01*
X120629563Y-75515117D01*
X120641610Y-75511719D01*
X120649308Y-75510499D01*
X120700734Y-75510499D01*
X120792175Y-75496017D01*
X120815419Y-75484173D01*
X120830901Y-75481720D01*
X120837176Y-75482713D01*
X120846397Y-75480500D01*
X122153603Y-75480500D01*
X122198547Y-75491289D01*
X122207825Y-75496017D01*
X122299265Y-75510500D01*
X122700734Y-75510499D01*
X122700737Y-75510499D01*
X122727332Y-75506286D01*
X122792175Y-75496017D01*
X122902391Y-75439859D01*
X122906321Y-75435928D01*
X122926823Y-75420195D01*
X122995580Y-75380500D01*
X123660500Y-74715580D01*
X123660984Y-74714742D01*
X123726390Y-74601456D01*
X123726390Y-74601454D01*
X123726392Y-74601452D01*
X123760500Y-74474158D01*
X123760500Y-74342374D01*
X123760500Y-73364109D01*
X123726392Y-73236815D01*
X123726390Y-73236812D01*
X123726390Y-73236810D01*
X123660503Y-73122691D01*
X123660499Y-73122686D01*
X123567315Y-73029501D01*
X123117313Y-72579500D01*
X123117308Y-72579496D01*
X123003188Y-72513609D01*
X123003190Y-72513609D01*
X122953798Y-72500375D01*
X122875891Y-72479500D01*
X122875889Y-72479500D01*
X122846397Y-72479500D01*
X122801452Y-72468710D01*
X122792175Y-72463983D01*
X122700736Y-72449500D01*
X122299262Y-72449500D01*
X122207825Y-72463983D01*
X122198546Y-72468711D01*
X122153603Y-72479500D01*
X120846397Y-72479500D01*
X120801452Y-72468710D01*
X120792175Y-72463983D01*
X120700736Y-72449500D01*
X120299262Y-72449500D01*
X120207825Y-72463983D01*
X120207821Y-72463984D01*
X120097610Y-72520140D01*
X120010140Y-72607610D01*
X119953983Y-72717823D01*
X119939500Y-72809263D01*
X119939500Y-73150737D01*
X119953983Y-73242174D01*
X119953984Y-73242178D01*
X119986280Y-73305562D01*
X120010141Y-73352391D01*
X120097609Y-73439859D01*
X120207825Y-73496017D01*
X120299265Y-73510500D01*
X120700734Y-73510499D01*
X120700737Y-73510499D01*
X120727332Y-73506286D01*
X120792175Y-73496017D01*
X120801454Y-73491288D01*
X120846397Y-73480500D01*
X122153603Y-73480500D01*
X122198547Y-73491289D01*
X122207825Y-73496017D01*
X122299265Y-73510500D01*
X122591676Y-73510499D01*
X122599273Y-73512967D01*
X122607163Y-73511718D01*
X122627819Y-73522242D01*
X122649866Y-73529406D01*
X122661680Y-73539495D01*
X122730504Y-73608319D01*
X122758281Y-73662836D01*
X122759500Y-73678323D01*
X122759500Y-74159944D01*
X122740593Y-74218135D01*
X122730503Y-74229948D01*
X122539946Y-74420504D01*
X122485430Y-74448281D01*
X122469944Y-74449500D01*
X122299263Y-74449500D01*
X122207825Y-74463983D01*
X122198546Y-74468711D01*
X122153603Y-74479500D01*
X120846397Y-74479500D01*
X120801452Y-74468710D01*
X120792175Y-74463983D01*
X120700736Y-74449500D01*
X120299262Y-74449500D01*
X120207825Y-74463983D01*
X120207821Y-74463984D01*
X120097610Y-74520140D01*
X120097609Y-74520140D01*
X120097609Y-74520141D01*
X120097244Y-74520505D01*
X120096788Y-74520737D01*
X120091304Y-74524722D01*
X120090673Y-74523853D01*
X120090129Y-74524130D01*
X120085434Y-74530593D01*
X120063385Y-74537756D01*
X120042730Y-74548281D01*
X120027243Y-74549500D01*
X119976847Y-74549500D01*
X119921846Y-74532815D01*
X119888722Y-74510682D01*
X119833133Y-74473538D01*
X119833125Y-74473534D01*
X119714747Y-74424500D01*
X119714745Y-74424499D01*
X119714744Y-74424499D01*
X119589069Y-74399500D01*
X119460931Y-74399500D01*
X119460930Y-74399500D01*
X119398093Y-74411999D01*
X119335256Y-74424499D01*
X119335255Y-74424499D01*
X119335252Y-74424500D01*
X119216874Y-74473534D01*
X119216866Y-74473538D01*
X119110331Y-74544724D01*
X119110327Y-74544727D01*
X119019727Y-74635327D01*
X119019724Y-74635331D01*
X118948538Y-74741866D01*
X118948534Y-74741874D01*
X118899500Y-74860252D01*
X118899499Y-74860255D01*
X118899499Y-74860256D01*
X118886999Y-74923093D01*
X118874500Y-74985930D01*
X116825500Y-74985930D01*
X116825500Y-74396543D01*
X116844407Y-74338352D01*
X116854484Y-74326552D01*
X117251542Y-73929493D01*
X117306057Y-73901718D01*
X117321544Y-73900499D01*
X118022867Y-73900499D01*
X118022872Y-73900499D01*
X118082483Y-73894091D01*
X118160515Y-73864987D01*
X118217329Y-73843797D01*
X118217329Y-73843796D01*
X118217331Y-73843796D01*
X118332546Y-73757546D01*
X118418796Y-73642331D01*
X118419475Y-73640512D01*
X118466842Y-73513512D01*
X118469091Y-73507483D01*
X118475500Y-73447873D01*
X118475499Y-72852128D01*
X118469091Y-72792517D01*
X118462812Y-72775681D01*
X118418797Y-72657670D01*
X118332549Y-72542458D01*
X118332548Y-72542457D01*
X118332546Y-72542454D01*
X118302740Y-72520141D01*
X118217329Y-72456202D01*
X118082488Y-72405910D01*
X118082483Y-72405909D01*
X118082481Y-72405908D01*
X118082477Y-72405908D01*
X118051249Y-72402550D01*
X118022873Y-72399500D01*
X118022870Y-72399500D01*
X117321545Y-72399500D01*
X117263354Y-72380593D01*
X117251541Y-72370504D01*
X116729496Y-71848459D01*
X116701719Y-71793942D01*
X116700500Y-71778455D01*
X116700500Y-71727525D01*
X116691165Y-71692686D01*
X116662984Y-71587515D01*
X116662982Y-71587512D01*
X116662982Y-71587510D01*
X116590512Y-71461989D01*
X116590507Y-71461983D01*
X116554496Y-71425971D01*
X116526719Y-71371454D01*
X116525500Y-71355968D01*
X116525500Y-70102525D01*
X121224500Y-70102525D01*
X121224500Y-70247475D01*
X121225395Y-70250814D01*
X121262017Y-70387489D01*
X121334487Y-70513010D01*
X121334489Y-70513012D01*
X121334491Y-70513015D01*
X121436985Y-70615509D01*
X121436987Y-70615510D01*
X121436989Y-70615512D01*
X121562511Y-70687982D01*
X121562512Y-70687982D01*
X121562515Y-70687984D01*
X121702525Y-70725500D01*
X121702526Y-70725500D01*
X121847474Y-70725500D01*
X121847475Y-70725500D01*
X121987485Y-70687984D01*
X121987487Y-70687982D01*
X121987489Y-70687982D01*
X122113010Y-70615512D01*
X122113010Y-70615511D01*
X122113015Y-70615509D01*
X122215509Y-70513015D01*
X122243397Y-70464712D01*
X122287982Y-70387489D01*
X122287982Y-70387487D01*
X122287984Y-70387485D01*
X122325500Y-70247475D01*
X122325500Y-70196545D01*
X122344407Y-70138354D01*
X122354496Y-70126541D01*
X123626541Y-68854496D01*
X123681058Y-68826719D01*
X123696545Y-68825500D01*
X124968101Y-68825500D01*
X125026292Y-68844407D01*
X125038098Y-68854490D01*
X125111658Y-68928050D01*
X125224696Y-68985646D01*
X125318481Y-69000500D01*
X126406518Y-69000499D01*
X126406521Y-69000499D01*
X126406522Y-69000498D01*
X126453411Y-68993072D01*
X126500299Y-68985647D01*
X126500299Y-68985646D01*
X126500304Y-68985646D01*
X126613342Y-68928050D01*
X126703050Y-68838342D01*
X126760646Y-68725304D01*
X126775500Y-68631519D01*
X126775499Y-68268482D01*
X126760646Y-68174696D01*
X126703050Y-68061658D01*
X126613342Y-67971950D01*
X126500304Y-67914354D01*
X126500305Y-67914354D01*
X126406521Y-67899500D01*
X125318478Y-67899500D01*
X125318476Y-67899501D01*
X125224700Y-67914352D01*
X125224695Y-67914354D01*
X125111659Y-67971949D01*
X125111658Y-67971949D01*
X125111658Y-67971950D01*
X125038102Y-68045505D01*
X124983588Y-68073281D01*
X124968101Y-68074500D01*
X123549436Y-68074500D01*
X123450564Y-68074500D01*
X123430353Y-68079915D01*
X123410142Y-68085331D01*
X123410141Y-68085330D01*
X123355062Y-68100089D01*
X123355058Y-68100091D01*
X123269436Y-68149525D01*
X123269437Y-68149526D01*
X121823459Y-69595504D01*
X121768942Y-69623281D01*
X121753455Y-69624500D01*
X121702525Y-69624500D01*
X121640790Y-69641041D01*
X121562510Y-69662017D01*
X121436989Y-69734487D01*
X121334487Y-69836989D01*
X121262017Y-69962510D01*
X121252905Y-69996517D01*
X121224500Y-70102525D01*
X116525500Y-70102525D01*
X116525500Y-69671545D01*
X116544407Y-69613354D01*
X116554496Y-69601541D01*
X118251542Y-67904496D01*
X118306059Y-67876719D01*
X118321546Y-67875500D01*
X121470574Y-67875500D01*
X121528765Y-67894407D01*
X121563332Y-67939903D01*
X121578371Y-67980225D01*
X121580310Y-67982815D01*
X121660313Y-68089687D01*
X121769774Y-68171628D01*
X121897886Y-68219412D01*
X121954515Y-68225500D01*
X122495484Y-68225499D01*
X122552114Y-68219412D01*
X122680226Y-68171628D01*
X122789687Y-68089687D01*
X122871628Y-67980226D01*
X122919412Y-67852114D01*
X122925500Y-67795485D01*
X122925499Y-67371543D01*
X122944406Y-67313353D01*
X122954489Y-67301547D01*
X123301542Y-66954496D01*
X123356058Y-66926719D01*
X123371545Y-66925500D01*
X124968101Y-66925500D01*
X125026292Y-66944407D01*
X125038098Y-66954490D01*
X125111658Y-67028050D01*
X125224696Y-67085646D01*
X125318481Y-67100500D01*
X126406518Y-67100499D01*
X126406521Y-67100499D01*
X126406522Y-67100498D01*
X126453411Y-67093072D01*
X126500299Y-67085647D01*
X126500299Y-67085646D01*
X126500304Y-67085646D01*
X126613342Y-67028050D01*
X126703050Y-66938342D01*
X126760646Y-66825304D01*
X126775500Y-66731519D01*
X126775499Y-66368482D01*
X126768087Y-66321682D01*
X126760647Y-66274700D01*
X126760646Y-66274698D01*
X126760646Y-66274696D01*
X126703050Y-66161658D01*
X126613342Y-66071950D01*
X126500304Y-66014354D01*
X126500305Y-66014354D01*
X126406521Y-65999500D01*
X125318478Y-65999500D01*
X125318476Y-65999501D01*
X125224700Y-66014352D01*
X125224695Y-66014354D01*
X125111659Y-66071949D01*
X125111658Y-66071949D01*
X125111658Y-66071950D01*
X125038102Y-66145505D01*
X124983588Y-66173281D01*
X124968101Y-66174500D01*
X123224436Y-66174500D01*
X123125564Y-66174500D01*
X123106830Y-66179520D01*
X123106829Y-66179519D01*
X123030065Y-66200088D01*
X123030060Y-66200090D01*
X122996388Y-66219531D01*
X122996387Y-66219530D01*
X122944437Y-66249524D01*
X122448456Y-66745504D01*
X122393940Y-66773281D01*
X122378453Y-66774500D01*
X121954521Y-66774500D01*
X121954515Y-66774501D01*
X121897888Y-66780587D01*
X121897886Y-66780588D01*
X121769774Y-66828372D01*
X121769773Y-66828372D01*
X121769772Y-66828373D01*
X121660315Y-66910311D01*
X121660311Y-66910315D01*
X121578371Y-67019774D01*
X121563332Y-67060097D01*
X121525281Y-67108011D01*
X121470574Y-67124500D01*
X118174436Y-67124500D01*
X118075564Y-67124500D01*
X118011896Y-67141559D01*
X117980062Y-67150089D01*
X117894437Y-67199525D01*
X115919438Y-69174525D01*
X115919437Y-69174524D01*
X115849524Y-69244438D01*
X115800091Y-69330058D01*
X115800090Y-69330061D01*
X115795198Y-69348320D01*
X115794300Y-69351670D01*
X115782070Y-69397315D01*
X115778285Y-69411440D01*
X115774500Y-69425564D01*
X115774500Y-71355968D01*
X115755593Y-71414159D01*
X115745504Y-71425971D01*
X115709492Y-71461983D01*
X115709487Y-71461989D01*
X115637017Y-71587510D01*
X115608835Y-71692685D01*
X115599500Y-71727525D01*
X115599500Y-71872475D01*
X115616015Y-71934108D01*
X115637017Y-72012489D01*
X115709487Y-72138010D01*
X115709489Y-72138012D01*
X115709491Y-72138015D01*
X115811985Y-72240509D01*
X115811987Y-72240510D01*
X115811989Y-72240512D01*
X115937511Y-72312982D01*
X115937512Y-72312982D01*
X115937515Y-72312984D01*
X116077525Y-72350500D01*
X116128455Y-72350500D01*
X116186646Y-72369407D01*
X116198459Y-72379496D01*
X116507808Y-72688845D01*
X116535585Y-72743362D01*
X116531285Y-72786242D01*
X116532333Y-72786490D01*
X116530909Y-72792516D01*
X116524500Y-72852129D01*
X116524500Y-73447866D01*
X116524501Y-73447870D01*
X116530909Y-73507487D01*
X116532333Y-73513512D01*
X116530874Y-73513856D01*
X116533183Y-73567681D01*
X116507808Y-73611153D01*
X116219438Y-73899524D01*
X116149524Y-73969438D01*
X116100091Y-74055058D01*
X116100089Y-74055062D01*
X116089408Y-74094922D01*
X116089409Y-74094923D01*
X116089409Y-74094924D01*
X116079173Y-74133127D01*
X116074500Y-74150565D01*
X116074500Y-76349435D01*
X116087657Y-76398538D01*
X116100091Y-76444942D01*
X116149525Y-76530563D01*
X116149526Y-76530563D01*
X116507808Y-76888845D01*
X116535585Y-76943362D01*
X116531285Y-76986242D01*
X116532333Y-76986490D01*
X116530909Y-76992516D01*
X116524500Y-77052129D01*
X116524500Y-77647866D01*
X116524501Y-77647870D01*
X116530908Y-77707480D01*
X116530909Y-77707485D01*
X116581202Y-77842329D01*
X116659824Y-77947354D01*
X116667454Y-77957546D01*
X116667457Y-77957548D01*
X116667458Y-77957549D01*
X116782670Y-78043797D01*
X116917511Y-78094089D01*
X116917512Y-78094089D01*
X116917517Y-78094091D01*
X116977127Y-78100500D01*
X118022872Y-78100499D01*
X118082483Y-78094091D01*
X118199362Y-78050498D01*
X118217329Y-78043797D01*
X118217329Y-78043796D01*
X118217331Y-78043796D01*
X118332546Y-77957546D01*
X118418796Y-77842331D01*
X118420255Y-77838421D01*
X118469089Y-77707488D01*
X118469090Y-77707485D01*
X118469091Y-77707483D01*
X118475500Y-77647873D01*
X118475499Y-77387933D01*
X118494406Y-77329745D01*
X118543906Y-77293781D01*
X118605091Y-77293780D01*
X118654591Y-77329744D01*
X118656814Y-77332933D01*
X118694724Y-77389669D01*
X118785331Y-77480276D01*
X118838030Y-77515488D01*
X118891866Y-77551461D01*
X118891870Y-77551463D01*
X118891873Y-77551465D01*
X119010256Y-77600501D01*
X119135931Y-77625500D01*
X119135932Y-77625500D01*
X119264068Y-77625500D01*
X119264069Y-77625500D01*
X119389744Y-77600501D01*
X119508127Y-77551465D01*
X119569437Y-77510499D01*
X119589365Y-77497184D01*
X119644366Y-77480500D01*
X120153603Y-77480500D01*
X120198547Y-77491289D01*
X120207825Y-77496017D01*
X120299265Y-77510500D01*
X120700734Y-77510499D01*
X120700737Y-77510499D01*
X120727332Y-77506286D01*
X120792175Y-77496017D01*
X120801454Y-77491288D01*
X120846397Y-77480500D01*
X122153603Y-77480500D01*
X122198547Y-77491289D01*
X122207825Y-77496017D01*
X122299265Y-77510500D01*
X122700734Y-77510499D01*
X122700737Y-77510499D01*
X122727332Y-77506286D01*
X122792175Y-77496017D01*
X122902391Y-77439859D01*
X122989859Y-77352391D01*
X123046017Y-77242175D01*
X123046016Y-77242175D01*
X123049555Y-77235232D01*
X123051779Y-77236365D01*
X123080724Y-77196516D01*
X123138912Y-77177600D01*
X123197105Y-77196499D01*
X123227866Y-77233119D01*
X123246924Y-77272102D01*
X123337898Y-77363076D01*
X123453482Y-77419582D01*
X123528418Y-77430500D01*
X123528421Y-77430500D01*
X123971578Y-77430500D01*
X123971582Y-77430500D01*
X124046518Y-77419582D01*
X124162102Y-77363076D01*
X124253076Y-77272102D01*
X124292262Y-77191945D01*
X124301961Y-77181920D01*
X124307637Y-77169177D01*
X124322705Y-77160478D01*
X124334805Y-77147973D01*
X124360622Y-77138591D01*
X124453928Y-77118767D01*
X124514775Y-77125169D01*
X124560241Y-77166114D01*
X124573500Y-77215606D01*
X124573500Y-77718790D01*
X124573501Y-77718801D01*
X124579519Y-77764519D01*
X124579520Y-77764525D01*
X124626317Y-77864880D01*
X124626319Y-77864883D01*
X124627437Y-77866001D01*
X124628330Y-77867755D01*
X124631286Y-77871976D01*
X124630692Y-77872391D01*
X124655211Y-77920520D01*
X124645636Y-77980951D01*
X124627437Y-78005999D01*
X124626319Y-78007116D01*
X124626316Y-78007121D01*
X124579520Y-78107474D01*
X124579520Y-78107475D01*
X124573500Y-78153204D01*
X124573500Y-78734790D01*
X124573501Y-78734801D01*
X124579519Y-78780519D01*
X124579520Y-78780525D01*
X124626317Y-78880880D01*
X124626319Y-78880883D01*
X124627437Y-78882001D01*
X124628330Y-78883755D01*
X124631286Y-78887976D01*
X124630692Y-78888391D01*
X124655211Y-78936520D01*
X124645636Y-78996951D01*
X124639267Y-79007709D01*
X124634020Y-79015416D01*
X124626318Y-79023119D01*
X124620969Y-79034588D01*
X124616463Y-79041209D01*
X124598293Y-79055280D01*
X124582620Y-79072088D01*
X124573569Y-79074428D01*
X124568089Y-79078673D01*
X124555686Y-79079053D01*
X124534625Y-79084500D01*
X124412835Y-79084500D01*
X124354644Y-79065593D01*
X124318680Y-79016093D01*
X124314870Y-78999778D01*
X124309582Y-78963482D01*
X124253076Y-78847898D01*
X124162102Y-78756924D01*
X124046518Y-78700418D01*
X123971582Y-78689500D01*
X123528418Y-78689500D01*
X123453482Y-78700418D01*
X123337899Y-78756923D01*
X123246922Y-78847900D01*
X123242157Y-78854575D01*
X123240439Y-78853348D01*
X123205602Y-78889343D01*
X123145334Y-78899900D01*
X123090371Y-78873016D01*
X123061708Y-78818960D01*
X123060526Y-78809621D01*
X123060499Y-78809286D01*
X123060499Y-78809266D01*
X123046017Y-78717825D01*
X122989859Y-78607609D01*
X122902391Y-78520141D01*
X122792175Y-78463983D01*
X122792176Y-78463983D01*
X122700736Y-78449500D01*
X122299262Y-78449500D01*
X122207825Y-78463983D01*
X122198546Y-78468711D01*
X122153603Y-78479500D01*
X120846397Y-78479500D01*
X120801452Y-78468710D01*
X120792175Y-78463983D01*
X120700736Y-78449500D01*
X120299262Y-78449500D01*
X120207825Y-78463983D01*
X120198546Y-78468711D01*
X120153603Y-78479500D01*
X119971916Y-78479500D01*
X119916915Y-78462815D01*
X119858129Y-78423536D01*
X119858130Y-78423536D01*
X119739747Y-78374500D01*
X119739745Y-78374499D01*
X119739744Y-78374499D01*
X119614069Y-78349500D01*
X119485931Y-78349500D01*
X119485930Y-78349500D01*
X119423093Y-78361999D01*
X119360256Y-78374499D01*
X119360255Y-78374499D01*
X119360252Y-78374500D01*
X119241874Y-78423534D01*
X119241866Y-78423538D01*
X119135331Y-78494724D01*
X119135327Y-78494727D01*
X119044727Y-78585327D01*
X119044724Y-78585331D01*
X118973538Y-78691866D01*
X118973534Y-78691874D01*
X118929209Y-78798885D01*
X118924499Y-78810256D01*
X118917011Y-78847898D01*
X118900057Y-78933133D01*
X118899500Y-78935931D01*
X118899500Y-79064069D01*
X118916739Y-79150735D01*
X118924499Y-79189742D01*
X118924500Y-79189747D01*
X118973534Y-79308125D01*
X118973538Y-79308133D01*
X118989156Y-79331506D01*
X119044724Y-79414669D01*
X119135331Y-79505276D01*
X119198848Y-79547717D01*
X119241866Y-79576461D01*
X119241870Y-79576463D01*
X119241873Y-79576465D01*
X119360256Y-79625501D01*
X119485931Y-79650500D01*
X119485932Y-79650500D01*
X119614068Y-79650500D01*
X119614069Y-79650500D01*
X119739744Y-79625501D01*
X119858127Y-79576465D01*
X119964669Y-79505276D01*
X119964674Y-79505271D01*
X119967486Y-79502965D01*
X119970308Y-79501860D01*
X119972091Y-79499407D01*
X119998558Y-79490807D01*
X120024465Y-79480671D01*
X120030282Y-79480500D01*
X120153603Y-79480500D01*
X120198547Y-79491289D01*
X120207825Y-79496017D01*
X120299265Y-79510500D01*
X120700734Y-79510499D01*
X120700737Y-79510499D01*
X120727332Y-79506286D01*
X120792175Y-79496017D01*
X120801454Y-79491288D01*
X120846397Y-79480500D01*
X121900500Y-79480500D01*
X121958691Y-79499407D01*
X121994655Y-79548907D01*
X121999500Y-79579500D01*
X121999500Y-80514107D01*
X121999500Y-80645891D01*
X122015757Y-80706562D01*
X122033609Y-80773189D01*
X122099496Y-80887308D01*
X122099498Y-80887310D01*
X122099500Y-80887313D01*
X123122687Y-81910500D01*
X123122689Y-81910501D01*
X123122691Y-81910503D01*
X123236811Y-81976390D01*
X123236809Y-81976390D01*
X123236813Y-81976391D01*
X123236815Y-81976392D01*
X123364109Y-82010500D01*
X123412001Y-82010500D01*
X123429587Y-82012074D01*
X123443122Y-82014517D01*
X123453482Y-82019582D01*
X123528418Y-82030500D01*
X123531666Y-82030500D01*
X123539017Y-82031827D01*
X123561562Y-82043932D01*
X123585256Y-82053574D01*
X123591435Y-82059249D01*
X124440686Y-82908500D01*
X124440688Y-82908501D01*
X124440689Y-82908502D01*
X124440690Y-82908503D01*
X124554810Y-82974390D01*
X124554811Y-82974390D01*
X124554814Y-82974392D01*
X124554816Y-82974392D01*
X124560806Y-82976874D01*
X124559889Y-82979087D01*
X124602458Y-83006737D01*
X124624381Y-83063860D01*
X124615241Y-83110873D01*
X124579520Y-83187477D01*
X124573500Y-83233204D01*
X124573500Y-83360500D01*
X124568655Y-83375411D01*
X124568655Y-83391093D01*
X124559438Y-83403778D01*
X124554593Y-83418691D01*
X124541907Y-83427907D01*
X124532691Y-83440593D01*
X124517778Y-83445438D01*
X124505093Y-83454655D01*
X124474500Y-83459500D01*
X124305685Y-83459500D01*
X124247494Y-83440593D01*
X124235687Y-83430509D01*
X124162102Y-83356924D01*
X124046518Y-83300418D01*
X123971582Y-83289500D01*
X123528418Y-83289500D01*
X123453482Y-83300418D01*
X123337899Y-83356923D01*
X123246923Y-83447899D01*
X123190418Y-83563482D01*
X123185695Y-83595899D01*
X123158594Y-83650756D01*
X123104426Y-83679207D01*
X123043880Y-83670385D01*
X123000083Y-83627659D01*
X122999560Y-83626648D01*
X122989859Y-83607609D01*
X122902391Y-83520141D01*
X122792175Y-83463983D01*
X122792176Y-83463983D01*
X122700736Y-83449500D01*
X122299262Y-83449500D01*
X122207825Y-83463983D01*
X122198546Y-83468711D01*
X122153603Y-83479500D01*
X120846397Y-83479500D01*
X120801452Y-83468710D01*
X120792175Y-83463983D01*
X120700736Y-83449500D01*
X120299262Y-83449500D01*
X120207825Y-83463983D01*
X120198546Y-83468711D01*
X120153603Y-83479500D01*
X118905402Y-83479500D01*
X118897800Y-83477030D01*
X118889907Y-83478280D01*
X118869255Y-83467755D01*
X118847211Y-83460593D01*
X118835401Y-83450506D01*
X118829489Y-83444593D01*
X118801718Y-83390076D01*
X118800500Y-83374597D01*
X118800500Y-82579500D01*
X118819407Y-82521309D01*
X118868907Y-82485345D01*
X118899500Y-82480500D01*
X119154538Y-82480500D01*
X119199482Y-82491289D01*
X119257825Y-82521017D01*
X119349265Y-82535500D01*
X119750734Y-82535499D01*
X119750737Y-82535499D01*
X119777332Y-82531286D01*
X119842175Y-82521017D01*
X119900517Y-82491289D01*
X119945462Y-82480500D01*
X121153603Y-82480500D01*
X121198547Y-82491289D01*
X121207825Y-82496017D01*
X121299265Y-82510500D01*
X121700734Y-82510499D01*
X121700737Y-82510499D01*
X121727332Y-82506286D01*
X121792175Y-82496017D01*
X121902391Y-82439859D01*
X121989859Y-82352391D01*
X122046017Y-82242175D01*
X122060500Y-82150735D01*
X122060499Y-81809266D01*
X122060499Y-81809264D01*
X122060499Y-81809262D01*
X122054671Y-81772470D01*
X122046017Y-81717825D01*
X121989859Y-81607609D01*
X121902391Y-81520141D01*
X121792175Y-81463983D01*
X121792176Y-81463983D01*
X121700736Y-81449500D01*
X121299262Y-81449500D01*
X121207825Y-81463983D01*
X121198546Y-81468711D01*
X121153603Y-81479500D01*
X119790094Y-81479500D01*
X119774608Y-81478281D01*
X119750735Y-81474500D01*
X119349264Y-81474500D01*
X119328316Y-81477818D01*
X119325397Y-81478281D01*
X119309912Y-81479500D01*
X118365892Y-81479500D01*
X115535892Y-81479500D01*
X115404107Y-81479500D01*
X115326200Y-81500374D01*
X115276809Y-81513609D01*
X115162690Y-81579496D01*
X115162685Y-81579500D01*
X114571680Y-82170504D01*
X114517164Y-82198281D01*
X114501677Y-82199500D01*
X113977133Y-82199500D01*
X113977129Y-82199500D01*
X113977128Y-82199501D01*
X113969949Y-82200272D01*
X113917519Y-82205908D01*
X113917514Y-82205909D01*
X113782670Y-82256202D01*
X113776457Y-82259596D01*
X113775506Y-82257855D01*
X113726688Y-82274490D01*
X113725278Y-82274500D01*
X111687293Y-82274500D01*
X111629102Y-82255593D01*
X111608040Y-82234829D01*
X111589690Y-82210317D01*
X111589688Y-82210315D01*
X111589687Y-82210313D01*
X111516050Y-82155189D01*
X111480228Y-82128373D01*
X111480226Y-82128372D01*
X111352114Y-82080588D01*
X111352113Y-82080587D01*
X111313895Y-82076479D01*
X111295485Y-82074500D01*
X111295481Y-82074500D01*
X111048322Y-82074500D01*
X110990131Y-82055593D01*
X110978318Y-82045504D01*
X110305500Y-81372686D01*
X109582314Y-80649500D01*
X109582311Y-80649498D01*
X109582310Y-80649497D01*
X109582309Y-80649496D01*
X109468189Y-80583609D01*
X109468191Y-80583609D01*
X109418799Y-80570375D01*
X109340892Y-80549500D01*
X109340890Y-80549500D01*
X108868050Y-80549500D01*
X108823105Y-80538710D01*
X108775304Y-80514354D01*
X108681520Y-80499500D01*
X107593478Y-80499500D01*
X107593476Y-80499501D01*
X107499700Y-80514352D01*
X107499695Y-80514354D01*
X107386659Y-80571949D01*
X107296949Y-80661659D01*
X107239354Y-80774695D01*
X107224500Y-80868477D01*
X107224500Y-81231520D01*
X107224501Y-81231523D01*
X107239352Y-81325299D01*
X107239353Y-81325302D01*
X107279279Y-81403661D01*
X107288850Y-81464093D01*
X107261073Y-81518609D01*
X106717686Y-82061998D01*
X106624500Y-82155184D01*
X106624496Y-82155189D01*
X106558609Y-82269309D01*
X106558607Y-82269313D01*
X106542023Y-82331205D01*
X106508699Y-82382519D01*
X106451577Y-82404445D01*
X106430912Y-82403363D01*
X106412872Y-82400506D01*
X106406519Y-82399500D01*
X106406518Y-82399500D01*
X106060821Y-82399500D01*
X106002630Y-82380593D01*
X106000023Y-82378366D01*
X105999960Y-82378449D01*
X105994809Y-82374496D01*
X105880689Y-82308609D01*
X105880691Y-82308609D01*
X105831299Y-82295375D01*
X105753392Y-82274500D01*
X105753390Y-82274500D01*
X104187293Y-82274500D01*
X104129102Y-82255593D01*
X104108040Y-82234829D01*
X104089690Y-82210317D01*
X104089688Y-82210315D01*
X104089687Y-82210313D01*
X104016050Y-82155189D01*
X103980228Y-82128373D01*
X103980226Y-82128372D01*
X103852114Y-82080588D01*
X103852113Y-82080587D01*
X103813895Y-82076479D01*
X103795485Y-82074500D01*
X103795481Y-82074500D01*
X103204521Y-82074500D01*
X103204515Y-82074501D01*
X103147888Y-82080587D01*
X103147886Y-82080588D01*
X103019774Y-82128372D01*
X103019773Y-82128372D01*
X103019772Y-82128373D01*
X102910315Y-82210311D01*
X102910311Y-82210315D01*
X102828373Y-82319771D01*
X102780587Y-82447887D01*
X102774500Y-82504518D01*
X102774500Y-83045478D01*
X102774501Y-83045484D01*
X102780587Y-83102111D01*
X102780587Y-83102112D01*
X102780588Y-83102114D01*
X102828372Y-83230226D01*
X102910313Y-83339687D01*
X102938116Y-83360500D01*
X103015850Y-83418691D01*
X103019774Y-83421628D01*
X103147886Y-83469412D01*
X103204515Y-83475500D01*
X103795484Y-83475499D01*
X103852114Y-83469412D01*
X103940905Y-83436293D01*
X103943114Y-83436199D01*
X103944907Y-83434897D01*
X103973484Y-83434897D01*
X104002031Y-83433673D01*
X104003877Y-83434897D01*
X104006093Y-83434897D01*
X104029223Y-83451702D01*
X104053026Y-83467484D01*
X104053799Y-83469558D01*
X104055593Y-83470861D01*
X104064426Y-83498048D01*
X104074409Y-83524811D01*
X104074500Y-83529052D01*
X104074500Y-83664547D01*
X104055593Y-83722738D01*
X104045504Y-83734551D01*
X103994727Y-83785327D01*
X103994724Y-83785331D01*
X103923538Y-83891866D01*
X103923534Y-83891874D01*
X103874500Y-84010252D01*
X103874499Y-84010255D01*
X103874499Y-84010256D01*
X103863075Y-84067686D01*
X103850215Y-84132339D01*
X103849500Y-84135931D01*
X103849500Y-84264069D01*
X103873151Y-84382968D01*
X103874499Y-84389742D01*
X103874500Y-84389747D01*
X103923534Y-84508125D01*
X103923538Y-84508133D01*
X103953730Y-84553317D01*
X103994724Y-84614669D01*
X104085331Y-84705276D01*
X104148848Y-84747717D01*
X104191866Y-84776461D01*
X104191870Y-84776463D01*
X104191873Y-84776465D01*
X104310256Y-84825501D01*
X104435931Y-84850500D01*
X104435932Y-84850500D01*
X104564068Y-84850500D01*
X104564069Y-84850500D01*
X104689744Y-84825501D01*
X104808127Y-84776465D01*
X104914669Y-84705276D01*
X105005276Y-84614669D01*
X105076465Y-84508127D01*
X105109036Y-84429494D01*
X105148772Y-84382968D01*
X105208267Y-84368684D01*
X105264795Y-84392099D01*
X105296765Y-84444268D01*
X105299500Y-84467379D01*
X105299500Y-84522475D01*
X105324203Y-84614668D01*
X105337017Y-84662489D01*
X105409487Y-84788010D01*
X105409489Y-84788012D01*
X105409491Y-84788015D01*
X105458005Y-84836529D01*
X105485781Y-84891044D01*
X105487000Y-84906531D01*
X105487000Y-85400500D01*
X105468093Y-85458691D01*
X105418593Y-85494655D01*
X105388001Y-85499500D01*
X105318479Y-85499500D01*
X105318476Y-85499501D01*
X105224700Y-85514352D01*
X105224695Y-85514354D01*
X105111659Y-85571949D01*
X105021949Y-85661659D01*
X104966369Y-85770739D01*
X104948164Y-85795797D01*
X103698457Y-87045504D01*
X103643940Y-87073281D01*
X103628453Y-87074500D01*
X103204521Y-87074500D01*
X103204515Y-87074501D01*
X103147888Y-87080587D01*
X103147886Y-87080588D01*
X103019774Y-87128372D01*
X103019773Y-87128372D01*
X103019772Y-87128373D01*
X102910315Y-87210311D01*
X102910311Y-87210315D01*
X102828373Y-87319771D01*
X102780587Y-87447887D01*
X102774500Y-87504518D01*
X102774500Y-88045478D01*
X102774501Y-88045484D01*
X102780587Y-88102111D01*
X102780587Y-88102112D01*
X102780588Y-88102114D01*
X102828372Y-88230226D01*
X102910313Y-88339687D01*
X103019774Y-88421628D01*
X103147886Y-88469412D01*
X103204515Y-88475500D01*
X103795484Y-88475499D01*
X103852114Y-88469412D01*
X103980226Y-88421628D01*
X104089687Y-88339687D01*
X104171628Y-88230226D01*
X104219412Y-88102114D01*
X104225500Y-88045485D01*
X104225499Y-87621543D01*
X104244406Y-87563353D01*
X104254489Y-87551546D01*
X105185312Y-86620723D01*
X105239827Y-86592948D01*
X105270799Y-86592948D01*
X105318481Y-86600500D01*
X106406518Y-86600499D01*
X106410006Y-86599946D01*
X106470436Y-86609512D01*
X106513705Y-86652772D01*
X106524500Y-86697726D01*
X106524500Y-87201677D01*
X106522031Y-87209274D01*
X106523281Y-87217165D01*
X106512757Y-87237818D01*
X106505593Y-87259868D01*
X106495503Y-87271681D01*
X106396679Y-87370504D01*
X106342163Y-87398281D01*
X106326676Y-87399500D01*
X105318478Y-87399500D01*
X105318476Y-87399501D01*
X105224700Y-87414352D01*
X105224695Y-87414354D01*
X105111659Y-87471949D01*
X105021949Y-87561659D01*
X104964354Y-87674695D01*
X104949500Y-87768477D01*
X104949500Y-88131520D01*
X104949501Y-88131523D01*
X104964352Y-88225299D01*
X104964354Y-88225304D01*
X105021950Y-88338342D01*
X105111658Y-88428050D01*
X105224696Y-88485646D01*
X105318481Y-88500500D01*
X106406518Y-88500499D01*
X106406521Y-88500499D01*
X106406522Y-88500498D01*
X106440489Y-88495118D01*
X106500300Y-88485647D01*
X106500301Y-88485647D01*
X106500302Y-88485646D01*
X106500304Y-88485646D01*
X106532167Y-88469411D01*
X106548106Y-88461290D01*
X106584612Y-88452525D01*
X106584457Y-88451347D01*
X106590888Y-88450500D01*
X106590891Y-88450500D01*
X106718185Y-88416392D01*
X106718187Y-88416390D01*
X106718189Y-88416390D01*
X106832308Y-88350503D01*
X106832308Y-88350502D01*
X106832313Y-88350500D01*
X107063428Y-88119383D01*
X107117944Y-88091606D01*
X107178376Y-88101177D01*
X107221640Y-88144442D01*
X107231212Y-88173901D01*
X107239352Y-88225299D01*
X107239354Y-88225304D01*
X107296950Y-88338342D01*
X107386658Y-88428050D01*
X107499696Y-88485646D01*
X107593481Y-88500500D01*
X108681518Y-88500499D01*
X108681521Y-88500499D01*
X108681522Y-88500498D01*
X108728411Y-88493072D01*
X108775299Y-88485647D01*
X108775299Y-88485646D01*
X108775304Y-88485646D01*
X108888342Y-88428050D01*
X108978050Y-88338342D01*
X109035646Y-88225304D01*
X109050500Y-88131519D01*
X109050499Y-87768482D01*
X109035646Y-87674696D01*
X108978050Y-87561658D01*
X108888342Y-87471950D01*
X108775304Y-87414354D01*
X108775305Y-87414354D01*
X108681522Y-87399500D01*
X107624500Y-87399500D01*
X107566309Y-87380593D01*
X107530345Y-87331093D01*
X107525500Y-87300500D01*
X107525500Y-86699499D01*
X107544407Y-86641308D01*
X107593907Y-86605344D01*
X107624493Y-86600499D01*
X108681518Y-86600499D01*
X108681521Y-86600499D01*
X108681522Y-86600498D01*
X108716322Y-86594987D01*
X108775300Y-86585647D01*
X108775301Y-86585647D01*
X108775302Y-86585646D01*
X108775304Y-86585646D01*
X108807175Y-86569407D01*
X108823106Y-86561290D01*
X108868050Y-86550500D01*
X109026678Y-86550500D01*
X109084869Y-86569407D01*
X109096682Y-86579496D01*
X110222182Y-87704996D01*
X110249959Y-87759513D01*
X110240388Y-87819945D01*
X110222184Y-87845000D01*
X109922686Y-88144500D01*
X109922685Y-88144499D01*
X109829500Y-88237685D01*
X109829496Y-88237690D01*
X109763609Y-88351809D01*
X109763608Y-88351814D01*
X109730141Y-88476718D01*
X109729500Y-88479109D01*
X109729500Y-88550953D01*
X109710593Y-88609144D01*
X109661093Y-88645108D01*
X109604877Y-88646579D01*
X109522475Y-88624500D01*
X109377525Y-88624500D01*
X109315790Y-88641041D01*
X109237510Y-88662017D01*
X109111989Y-88734487D01*
X109009487Y-88836989D01*
X108937017Y-88962510D01*
X108924158Y-89010500D01*
X108899500Y-89102525D01*
X108899500Y-89247475D01*
X108929087Y-89357896D01*
X108937017Y-89387489D01*
X109009487Y-89513010D01*
X109009489Y-89513012D01*
X109009491Y-89513015D01*
X109045505Y-89549029D01*
X109073281Y-89603544D01*
X109074500Y-89619031D01*
X109074500Y-91953243D01*
X109055593Y-92011434D01*
X109006093Y-92047398D01*
X108944907Y-92047398D01*
X108905498Y-92023248D01*
X108902391Y-92020141D01*
X108792175Y-91963983D01*
X108792176Y-91963983D01*
X108700736Y-91949500D01*
X108299262Y-91949500D01*
X108207825Y-91963983D01*
X108198546Y-91968711D01*
X108153603Y-91979500D01*
X107024499Y-91979500D01*
X106966308Y-91960593D01*
X106930344Y-91911093D01*
X106925499Y-91880500D01*
X106925499Y-91818478D01*
X106925498Y-91818476D01*
X106910647Y-91724700D01*
X106910646Y-91724698D01*
X106910646Y-91724696D01*
X106853050Y-91611658D01*
X106763342Y-91521950D01*
X106650304Y-91464354D01*
X106650305Y-91464354D01*
X106556522Y-91449500D01*
X106556519Y-91449500D01*
X106537000Y-91449500D01*
X106478809Y-91430593D01*
X106442845Y-91381093D01*
X106438000Y-91350500D01*
X106438000Y-90870554D01*
X106454685Y-90815552D01*
X106455273Y-90814671D01*
X106455276Y-90814669D01*
X106526465Y-90708127D01*
X106575501Y-90589744D01*
X106600500Y-90464069D01*
X106600500Y-90335931D01*
X106575501Y-90210256D01*
X106526465Y-90091873D01*
X106526463Y-90091870D01*
X106526461Y-90091866D01*
X106488050Y-90034381D01*
X106455276Y-89985331D01*
X106364669Y-89894724D01*
X106322226Y-89866365D01*
X106258133Y-89823538D01*
X106258125Y-89823534D01*
X106139747Y-89774500D01*
X106139745Y-89774499D01*
X106139744Y-89774499D01*
X106014069Y-89749500D01*
X105885931Y-89749500D01*
X105885930Y-89749500D01*
X105858422Y-89754972D01*
X105760256Y-89774499D01*
X105760255Y-89774499D01*
X105760252Y-89774500D01*
X105641874Y-89823534D01*
X105641866Y-89823538D01*
X105535331Y-89894724D01*
X105535327Y-89894727D01*
X105444727Y-89985327D01*
X105444724Y-89985331D01*
X105373538Y-90091866D01*
X105373534Y-90091874D01*
X105324500Y-90210252D01*
X105324499Y-90210255D01*
X105324499Y-90210256D01*
X105299500Y-90335931D01*
X105299500Y-90464069D01*
X105324050Y-90587489D01*
X105324499Y-90589742D01*
X105324500Y-90589747D01*
X105373534Y-90708125D01*
X105373535Y-90708128D01*
X105376798Y-90713011D01*
X105420316Y-90778139D01*
X105437000Y-90833139D01*
X105437000Y-91350500D01*
X105418093Y-91408691D01*
X105368593Y-91444655D01*
X105338004Y-91449500D01*
X105318481Y-91449500D01*
X105318476Y-91449501D01*
X105224700Y-91464352D01*
X105224695Y-91464354D01*
X105111659Y-91521949D01*
X105021949Y-91611659D01*
X104964354Y-91724695D01*
X104949500Y-91818477D01*
X104949500Y-92181520D01*
X104949501Y-92181523D01*
X104964352Y-92275299D01*
X104964353Y-92275302D01*
X104988011Y-92321733D01*
X104997582Y-92382165D01*
X104969805Y-92436681D01*
X104915288Y-92464459D01*
X104854856Y-92454888D01*
X104775303Y-92414353D01*
X104681521Y-92399500D01*
X103443478Y-92399500D01*
X103443476Y-92399501D01*
X103349700Y-92414352D01*
X103349695Y-92414354D01*
X103236659Y-92471949D01*
X103146949Y-92561659D01*
X103089354Y-92674695D01*
X103074500Y-92768477D01*
X103074500Y-93131520D01*
X103074501Y-93131523D01*
X103089352Y-93225299D01*
X103089354Y-93225304D01*
X103146950Y-93338342D01*
X103236658Y-93428050D01*
X103349696Y-93485646D01*
X103443481Y-93500500D01*
X104153454Y-93500499D01*
X104211645Y-93519406D01*
X104223458Y-93529495D01*
X104720504Y-94026541D01*
X104748281Y-94081058D01*
X104749500Y-94096545D01*
X104749500Y-94147475D01*
X104772885Y-94234749D01*
X104787017Y-94287489D01*
X104859487Y-94413010D01*
X104859489Y-94413012D01*
X104859491Y-94413015D01*
X104961985Y-94515509D01*
X104961987Y-94515510D01*
X104961989Y-94515512D01*
X105087511Y-94587982D01*
X105087512Y-94587982D01*
X105087515Y-94587984D01*
X105227525Y-94625500D01*
X105227526Y-94625500D01*
X105372474Y-94625500D01*
X105372475Y-94625500D01*
X105512485Y-94587984D01*
X105512487Y-94587982D01*
X105512489Y-94587982D01*
X105638010Y-94515512D01*
X105638010Y-94515511D01*
X105638015Y-94515509D01*
X105740509Y-94413015D01*
X105740510Y-94413012D01*
X105745097Y-94408426D01*
X105746331Y-94409660D01*
X105789883Y-94379729D01*
X105851047Y-94381331D01*
X105899589Y-94418578D01*
X105917000Y-94474652D01*
X105917000Y-95771678D01*
X105914531Y-95779275D01*
X105915781Y-95787165D01*
X105905256Y-95807820D01*
X105898093Y-95829869D01*
X105888005Y-95841680D01*
X105809180Y-95920504D01*
X105754665Y-95948281D01*
X105739178Y-95949500D01*
X105318479Y-95949500D01*
X105318476Y-95949501D01*
X105224700Y-95964352D01*
X105224695Y-95964354D01*
X105111659Y-96021949D01*
X105021949Y-96111659D01*
X104964354Y-96224695D01*
X104949500Y-96318477D01*
X104949500Y-96681520D01*
X104949501Y-96681523D01*
X104964352Y-96775299D01*
X104964353Y-96775302D01*
X104988011Y-96821733D01*
X104997582Y-96882165D01*
X104969805Y-96936681D01*
X104915288Y-96964459D01*
X104854856Y-96954888D01*
X104775303Y-96914353D01*
X104681521Y-96899500D01*
X103443478Y-96899500D01*
X103443476Y-96899501D01*
X103349700Y-96914352D01*
X103349695Y-96914354D01*
X103236659Y-96971949D01*
X103146949Y-97061659D01*
X103089354Y-97174695D01*
X103074500Y-97268477D01*
X103074500Y-97631520D01*
X103074501Y-97631523D01*
X103089352Y-97725299D01*
X103089354Y-97725304D01*
X103146950Y-97838342D01*
X103236658Y-97928050D01*
X103349696Y-97985646D01*
X103443481Y-98000500D01*
X104040953Y-98000499D01*
X104099144Y-98019406D01*
X104110955Y-98029494D01*
X104131933Y-98050471D01*
X104131936Y-98050474D01*
X104217562Y-98099910D01*
X104313063Y-98125499D01*
X104313064Y-98125499D01*
X104313065Y-98125499D01*
X112809436Y-98125499D01*
X112809437Y-98125499D01*
X112860591Y-98111792D01*
X112904939Y-98099909D01*
X112990563Y-98050474D01*
X113060476Y-97980561D01*
X113060475Y-97980561D01*
X113481542Y-97559496D01*
X113536058Y-97531719D01*
X113551545Y-97530500D01*
X113721578Y-97530500D01*
X113721582Y-97530500D01*
X113796518Y-97519582D01*
X113912102Y-97463076D01*
X114003076Y-97372102D01*
X114056441Y-97262942D01*
X114098982Y-97218971D01*
X114159248Y-97208401D01*
X114214216Y-97235273D01*
X114215383Y-97236421D01*
X114259438Y-97280475D01*
X114345058Y-97329908D01*
X114345062Y-97329910D01*
X114392812Y-97342705D01*
X114392813Y-97342705D01*
X114440564Y-97355500D01*
X114440565Y-97355500D01*
X115472242Y-97355500D01*
X115530433Y-97374407D01*
X115542245Y-97384496D01*
X115597607Y-97439857D01*
X115597609Y-97439859D01*
X115707825Y-97496017D01*
X115799265Y-97510500D01*
X116200734Y-97510499D01*
X116200737Y-97510499D01*
X116227332Y-97506286D01*
X116292175Y-97496017D01*
X116402391Y-97439859D01*
X116489859Y-97352391D01*
X116546017Y-97242175D01*
X116560500Y-97150735D01*
X116560499Y-96809266D01*
X116560499Y-96809262D01*
X116551510Y-96752508D01*
X116546017Y-96717825D01*
X116489859Y-96607609D01*
X116402391Y-96520141D01*
X116292175Y-96463983D01*
X116292176Y-96463983D01*
X116200736Y-96449500D01*
X115799262Y-96449500D01*
X115707825Y-96463983D01*
X115707821Y-96463984D01*
X115597609Y-96520141D01*
X115597607Y-96520142D01*
X115542245Y-96575504D01*
X115487728Y-96603281D01*
X115472242Y-96604500D01*
X114686545Y-96604500D01*
X114628354Y-96585593D01*
X114616541Y-96575504D01*
X114099496Y-96058459D01*
X114071719Y-96003942D01*
X114070500Y-95988455D01*
X114070500Y-95818421D01*
X114070500Y-95818418D01*
X114059582Y-95743482D01*
X114003076Y-95627898D01*
X113912102Y-95536924D01*
X113796518Y-95480418D01*
X113721582Y-95469500D01*
X113721579Y-95469500D01*
X113551545Y-95469500D01*
X113493354Y-95450593D01*
X113481541Y-95440504D01*
X111230139Y-93189102D01*
X111202362Y-93134585D01*
X111211933Y-93074153D01*
X111255198Y-93030888D01*
X111285871Y-93021133D01*
X111296518Y-93019582D01*
X111412102Y-92963076D01*
X111503076Y-92872102D01*
X111556441Y-92762942D01*
X111598982Y-92718971D01*
X111659248Y-92708401D01*
X111714216Y-92735273D01*
X111715383Y-92736421D01*
X111759438Y-92780475D01*
X111845058Y-92829908D01*
X111845062Y-92829910D01*
X111892812Y-92842705D01*
X111892813Y-92842705D01*
X111940564Y-92855500D01*
X111940565Y-92855500D01*
X112972242Y-92855500D01*
X113030433Y-92874407D01*
X113042245Y-92884496D01*
X113097607Y-92939857D01*
X113097609Y-92939859D01*
X113207825Y-92996017D01*
X113299265Y-93010500D01*
X113700734Y-93010499D01*
X113700737Y-93010499D01*
X113727332Y-93006286D01*
X113792175Y-92996017D01*
X113902391Y-92939859D01*
X113989859Y-92852391D01*
X114046017Y-92742175D01*
X114060500Y-92650735D01*
X114060499Y-92309266D01*
X114060499Y-92309262D01*
X114054882Y-92273801D01*
X114046017Y-92217825D01*
X113989859Y-92107609D01*
X113902391Y-92020141D01*
X113792175Y-91963983D01*
X113792176Y-91963983D01*
X113700736Y-91949500D01*
X113299262Y-91949500D01*
X113207825Y-91963983D01*
X113207821Y-91963984D01*
X113097609Y-92020141D01*
X113097607Y-92020142D01*
X113042245Y-92075504D01*
X112987728Y-92103281D01*
X112972242Y-92104500D01*
X112186545Y-92104500D01*
X112128354Y-92085593D01*
X112116541Y-92075504D01*
X111599496Y-91558459D01*
X111571719Y-91503942D01*
X111570500Y-91488455D01*
X111570500Y-91318421D01*
X111570500Y-91318418D01*
X111559582Y-91243482D01*
X111503076Y-91127898D01*
X111429494Y-91054316D01*
X111425869Y-91047201D01*
X111419407Y-91042506D01*
X111412243Y-91020457D01*
X111401719Y-90999802D01*
X111400500Y-90984315D01*
X111400500Y-90819031D01*
X111419407Y-90760840D01*
X111429490Y-90749033D01*
X111465509Y-90713015D01*
X111520958Y-90616975D01*
X111537982Y-90587489D01*
X111537982Y-90587487D01*
X111537984Y-90587485D01*
X111575500Y-90447475D01*
X111575500Y-90302525D01*
X111537984Y-90162515D01*
X111537982Y-90162512D01*
X111537982Y-90162510D01*
X111465512Y-90036989D01*
X111465510Y-90036987D01*
X111465509Y-90036985D01*
X111363015Y-89934491D01*
X111363012Y-89934489D01*
X111363010Y-89934487D01*
X111237488Y-89862017D01*
X111237489Y-89862017D01*
X111182923Y-89847396D01*
X111097475Y-89824500D01*
X110952525Y-89824500D01*
X110879381Y-89844099D01*
X110855493Y-89850500D01*
X110855123Y-89850599D01*
X110794022Y-89847396D01*
X110746472Y-89808891D01*
X110730500Y-89754972D01*
X110730500Y-88793320D01*
X110749407Y-88735129D01*
X110759484Y-88723328D01*
X110978319Y-88504493D01*
X111032834Y-88476718D01*
X111048321Y-88475499D01*
X111295479Y-88475499D01*
X111295484Y-88475499D01*
X111352114Y-88469412D01*
X111480226Y-88421628D01*
X111589687Y-88339687D01*
X111608040Y-88315171D01*
X111658049Y-88279918D01*
X111687293Y-88275500D01*
X113450242Y-88275500D01*
X113508433Y-88294407D01*
X113543000Y-88339903D01*
X113581203Y-88442330D01*
X113664560Y-88553681D01*
X113667454Y-88557546D01*
X113667457Y-88557548D01*
X113667458Y-88557549D01*
X113782670Y-88643797D01*
X113917511Y-88694089D01*
X113917512Y-88694089D01*
X113917517Y-88694091D01*
X113977127Y-88700500D01*
X114501677Y-88700499D01*
X114559868Y-88719406D01*
X114571681Y-88729495D01*
X117549500Y-91707314D01*
X117549499Y-91707314D01*
X117642685Y-91800499D01*
X117642690Y-91800503D01*
X117756810Y-91866390D01*
X117756808Y-91866390D01*
X117756812Y-91866391D01*
X117756814Y-91866392D01*
X117884108Y-91900500D01*
X117884110Y-91900500D01*
X120915890Y-91900500D01*
X120915892Y-91900500D01*
X121043186Y-91866392D01*
X121043188Y-91866390D01*
X121043190Y-91866390D01*
X121157309Y-91800503D01*
X121157309Y-91800502D01*
X121157314Y-91800500D01*
X122900499Y-90057315D01*
X122910779Y-90039511D01*
X122913741Y-90034381D01*
X126667500Y-90034381D01*
X126667500Y-90221618D01*
X126704026Y-90405249D01*
X126775677Y-90578229D01*
X126775681Y-90578238D01*
X126832122Y-90662706D01*
X126879698Y-90733908D01*
X127012092Y-90866302D01*
X127078463Y-90910649D01*
X127167761Y-90970318D01*
X127167767Y-90970320D01*
X127167769Y-90970322D01*
X127340749Y-91041973D01*
X127524384Y-91078500D01*
X127524385Y-91078500D01*
X127711615Y-91078500D01*
X127711616Y-91078500D01*
X127895251Y-91041973D01*
X128068231Y-90970322D01*
X128068234Y-90970319D01*
X128068238Y-90970318D01*
X128113187Y-90940282D01*
X128223908Y-90866302D01*
X128356302Y-90733908D01*
X128403879Y-90662704D01*
X129844000Y-90662704D01*
X129844000Y-93149290D01*
X129844001Y-93149301D01*
X129850019Y-93195019D01*
X129850020Y-93195025D01*
X129896816Y-93295378D01*
X129896817Y-93295379D01*
X129896818Y-93295381D01*
X129969726Y-93368289D01*
X129997502Y-93422804D01*
X129987931Y-93483236D01*
X129985458Y-93487791D01*
X129945608Y-93556812D01*
X129930256Y-93614108D01*
X129911500Y-93684108D01*
X129911500Y-93815892D01*
X129924291Y-93863629D01*
X129945609Y-93943190D01*
X130011496Y-94057309D01*
X130011498Y-94057311D01*
X130011500Y-94057314D01*
X130104686Y-94150500D01*
X130104688Y-94150501D01*
X130104690Y-94150503D01*
X130218810Y-94216390D01*
X130218808Y-94216390D01*
X130218812Y-94216391D01*
X130218814Y-94216392D01*
X130346108Y-94250500D01*
X130346110Y-94250500D01*
X130477890Y-94250500D01*
X130477892Y-94250500D01*
X130605186Y-94216392D01*
X130605188Y-94216390D01*
X130605190Y-94216390D01*
X130719309Y-94150503D01*
X130719309Y-94150502D01*
X130719314Y-94150500D01*
X130812500Y-94057314D01*
X130830267Y-94026541D01*
X130834264Y-94019619D01*
X130879733Y-93978678D01*
X130940583Y-93972282D01*
X130993571Y-94002875D01*
X131005736Y-94019619D01*
X131027496Y-94057309D01*
X131027498Y-94057311D01*
X131027500Y-94057314D01*
X131120686Y-94150500D01*
X131120688Y-94150501D01*
X131120690Y-94150503D01*
X131234810Y-94216390D01*
X131234808Y-94216390D01*
X131234812Y-94216391D01*
X131234814Y-94216392D01*
X131362108Y-94250500D01*
X131362110Y-94250500D01*
X131493890Y-94250500D01*
X131493892Y-94250500D01*
X131621186Y-94216392D01*
X131621188Y-94216390D01*
X131621190Y-94216390D01*
X131735309Y-94150503D01*
X131735309Y-94150502D01*
X131735314Y-94150500D01*
X131828500Y-94057314D01*
X131850263Y-94019619D01*
X131894390Y-93943190D01*
X131894390Y-93943188D01*
X131894392Y-93943186D01*
X131928500Y-93815892D01*
X131928500Y-93684108D01*
X131894392Y-93556814D01*
X131863694Y-93503645D01*
X131850973Y-93443798D01*
X131875859Y-93387902D01*
X131928847Y-93357309D01*
X131989697Y-93363704D01*
X132006215Y-93373049D01*
X132007117Y-93373680D01*
X132007119Y-93373682D01*
X132007120Y-93373682D01*
X132007121Y-93373683D01*
X132107474Y-93420479D01*
X132107475Y-93420479D01*
X132107477Y-93420480D01*
X132153205Y-93426500D01*
X132262500Y-93426499D01*
X132320690Y-93445406D01*
X132356654Y-93494905D01*
X132361500Y-93525499D01*
X132361500Y-97371223D01*
X132361500Y-97468777D01*
X132372680Y-97510500D01*
X132386750Y-97563012D01*
X132435522Y-97647487D01*
X132435524Y-97647489D01*
X132435526Y-97647492D01*
X132504508Y-97716474D01*
X132504510Y-97716475D01*
X132504512Y-97716477D01*
X132588988Y-97765249D01*
X132588986Y-97765249D01*
X132588990Y-97765250D01*
X132588992Y-97765251D01*
X132683223Y-97790500D01*
X138510500Y-97790500D01*
X138568691Y-97809407D01*
X138604655Y-97858907D01*
X138609500Y-97889500D01*
X138609500Y-98248777D01*
X138625051Y-98306814D01*
X138634750Y-98343010D01*
X138639613Y-98351433D01*
X138652335Y-98411282D01*
X138627449Y-98467177D01*
X138614145Y-98479476D01*
X138614089Y-98479518D01*
X138539518Y-98554089D01*
X138486794Y-98645409D01*
X138486794Y-98645410D01*
X138486793Y-98645412D01*
X138486793Y-98645413D01*
X138459500Y-98747273D01*
X138459500Y-98852727D01*
X138486793Y-98954587D01*
X138486794Y-98954589D01*
X138486794Y-98954590D01*
X138539518Y-99045910D01*
X138539520Y-99045913D01*
X138614087Y-99120480D01*
X138705413Y-99173207D01*
X138807273Y-99200500D01*
X138807275Y-99200500D01*
X138912725Y-99200500D01*
X138912727Y-99200500D01*
X139014587Y-99173207D01*
X139105913Y-99120480D01*
X139129998Y-99096394D01*
X139184513Y-99068619D01*
X139244945Y-99078190D01*
X139270000Y-99096393D01*
X139294087Y-99120480D01*
X139385413Y-99173207D01*
X139487273Y-99200500D01*
X139487275Y-99200500D01*
X139592725Y-99200500D01*
X139592727Y-99200500D01*
X139694587Y-99173207D01*
X139785913Y-99120480D01*
X139860480Y-99045913D01*
X139913207Y-98954587D01*
X139940500Y-98852727D01*
X139940500Y-98747273D01*
X139913207Y-98645413D01*
X139895941Y-98615508D01*
X139860481Y-98554089D01*
X139860480Y-98554087D01*
X139785913Y-98479520D01*
X139785908Y-98479517D01*
X139785861Y-98479481D01*
X139785834Y-98479442D01*
X139781324Y-98474932D01*
X139782159Y-98474096D01*
X139751201Y-98429060D01*
X139752798Y-98367895D01*
X139760383Y-98351438D01*
X139765251Y-98343008D01*
X139790500Y-98248777D01*
X139790500Y-96931223D01*
X139765251Y-96836992D01*
X139765249Y-96836989D01*
X139765249Y-96836987D01*
X139716474Y-96752507D01*
X139714373Y-96749769D01*
X139713547Y-96747437D01*
X139713230Y-96746888D01*
X139713331Y-96746829D01*
X139693947Y-96692094D01*
X139711323Y-96633428D01*
X139759864Y-96596179D01*
X139792913Y-96590500D01*
X140910500Y-96590500D01*
X140968691Y-96609407D01*
X141004655Y-96658907D01*
X141009500Y-96689500D01*
X141009500Y-98248777D01*
X141025051Y-98306814D01*
X141034750Y-98343010D01*
X141039613Y-98351433D01*
X141052335Y-98411282D01*
X141027449Y-98467177D01*
X141014145Y-98479476D01*
X141014089Y-98479518D01*
X140939518Y-98554089D01*
X140886794Y-98645409D01*
X140886794Y-98645410D01*
X140886793Y-98645412D01*
X140886793Y-98645413D01*
X140859500Y-98747273D01*
X140859500Y-98852727D01*
X140886793Y-98954587D01*
X140886794Y-98954589D01*
X140886794Y-98954590D01*
X140939518Y-99045910D01*
X140939520Y-99045913D01*
X141014087Y-99120480D01*
X141105413Y-99173207D01*
X141207273Y-99200500D01*
X141207275Y-99200500D01*
X141312725Y-99200500D01*
X141312727Y-99200500D01*
X141414587Y-99173207D01*
X141505913Y-99120480D01*
X141529998Y-99096394D01*
X141584513Y-99068619D01*
X141644945Y-99078190D01*
X141670000Y-99096393D01*
X141694087Y-99120480D01*
X141785413Y-99173207D01*
X141887273Y-99200500D01*
X141887275Y-99200500D01*
X141992725Y-99200500D01*
X141992727Y-99200500D01*
X142094587Y-99173207D01*
X142185913Y-99120480D01*
X142260480Y-99045913D01*
X142313207Y-98954587D01*
X142340500Y-98852727D01*
X142340500Y-98747273D01*
X142313207Y-98645413D01*
X142295941Y-98615508D01*
X142260481Y-98554089D01*
X142260480Y-98554087D01*
X142185913Y-98479520D01*
X142185908Y-98479517D01*
X142185861Y-98479481D01*
X142185834Y-98479442D01*
X142181324Y-98474932D01*
X142182159Y-98474096D01*
X142151201Y-98429060D01*
X142152798Y-98367895D01*
X142160383Y-98351438D01*
X142165251Y-98343008D01*
X142190500Y-98248777D01*
X142190500Y-95731223D01*
X142165251Y-95636992D01*
X142165249Y-95636989D01*
X142165249Y-95636987D01*
X142116474Y-95552507D01*
X142114373Y-95549769D01*
X142113547Y-95547437D01*
X142113230Y-95546888D01*
X142113331Y-95546829D01*
X142093947Y-95492094D01*
X142111323Y-95433428D01*
X142159864Y-95396179D01*
X142192913Y-95390500D01*
X143310500Y-95390500D01*
X143368691Y-95409407D01*
X143404655Y-95458907D01*
X143409500Y-95489500D01*
X143409500Y-98248777D01*
X143425051Y-98306814D01*
X143434750Y-98343010D01*
X143439613Y-98351433D01*
X143452335Y-98411282D01*
X143427449Y-98467177D01*
X143414145Y-98479476D01*
X143414089Y-98479518D01*
X143339518Y-98554089D01*
X143286794Y-98645409D01*
X143286794Y-98645410D01*
X143286793Y-98645412D01*
X143286793Y-98645413D01*
X143259500Y-98747273D01*
X143259500Y-98852727D01*
X143286793Y-98954587D01*
X143286794Y-98954589D01*
X143286794Y-98954590D01*
X143339518Y-99045910D01*
X143339520Y-99045913D01*
X143414087Y-99120480D01*
X143505413Y-99173207D01*
X143607273Y-99200500D01*
X143607275Y-99200500D01*
X143712725Y-99200500D01*
X143712727Y-99200500D01*
X143814587Y-99173207D01*
X143905913Y-99120480D01*
X143929998Y-99096394D01*
X143984513Y-99068619D01*
X144044945Y-99078190D01*
X144070000Y-99096393D01*
X144094087Y-99120480D01*
X144185413Y-99173207D01*
X144287273Y-99200500D01*
X144287275Y-99200500D01*
X144392725Y-99200500D01*
X144392727Y-99200500D01*
X144494587Y-99173207D01*
X144585913Y-99120480D01*
X144660480Y-99045913D01*
X144713207Y-98954587D01*
X144740500Y-98852727D01*
X144740500Y-98747273D01*
X144713207Y-98645413D01*
X144695941Y-98615508D01*
X144660481Y-98554089D01*
X144660480Y-98554087D01*
X144585913Y-98479520D01*
X144585908Y-98479517D01*
X144585861Y-98479481D01*
X144585834Y-98479442D01*
X144581324Y-98474932D01*
X144582159Y-98474096D01*
X144551201Y-98429060D01*
X144552798Y-98367895D01*
X144560383Y-98351438D01*
X144565251Y-98343008D01*
X144590500Y-98248777D01*
X144590500Y-94531223D01*
X144565251Y-94436992D01*
X144565249Y-94436989D01*
X144565249Y-94436987D01*
X144516477Y-94352512D01*
X144516475Y-94352510D01*
X144516474Y-94352508D01*
X144447492Y-94283526D01*
X144447489Y-94283524D01*
X144447487Y-94283522D01*
X144363011Y-94234750D01*
X144363013Y-94234750D01*
X144326449Y-94224953D01*
X144268777Y-94209500D01*
X144268775Y-94209500D01*
X141769500Y-94209500D01*
X141711309Y-94190593D01*
X141675345Y-94141093D01*
X141670500Y-94110500D01*
X141670500Y-93525499D01*
X141689407Y-93467308D01*
X141738907Y-93431344D01*
X141769500Y-93426499D01*
X141878791Y-93426499D01*
X141878794Y-93426499D01*
X141924523Y-93420480D01*
X142024881Y-93373682D01*
X142103182Y-93295381D01*
X142149980Y-93195023D01*
X142156000Y-93149295D01*
X142155999Y-90662706D01*
X142149980Y-90616977D01*
X142137282Y-90589747D01*
X142103183Y-90516621D01*
X142103182Y-90516620D01*
X142103182Y-90516619D01*
X142024881Y-90438318D01*
X142024879Y-90438317D01*
X142024878Y-90438316D01*
X141924524Y-90391520D01*
X141901659Y-90388510D01*
X141878795Y-90385500D01*
X141878794Y-90385500D01*
X141297209Y-90385500D01*
X141297198Y-90385501D01*
X141251480Y-90391519D01*
X141251474Y-90391520D01*
X141151119Y-90438317D01*
X141151116Y-90438319D01*
X141149999Y-90439437D01*
X141148244Y-90440330D01*
X141144024Y-90443286D01*
X141143608Y-90442692D01*
X141095480Y-90467211D01*
X141035049Y-90457636D01*
X141010001Y-90439437D01*
X141008883Y-90438319D01*
X141008878Y-90438316D01*
X140908524Y-90391520D01*
X140885659Y-90388510D01*
X140862795Y-90385500D01*
X140862794Y-90385500D01*
X140281209Y-90385500D01*
X140281198Y-90385501D01*
X140235480Y-90391519D01*
X140235474Y-90391520D01*
X140135119Y-90438317D01*
X140135116Y-90438319D01*
X140133999Y-90439437D01*
X140132244Y-90440330D01*
X140128024Y-90443286D01*
X140127608Y-90442692D01*
X140079480Y-90467211D01*
X140019049Y-90457636D01*
X139994001Y-90439437D01*
X139992883Y-90438319D01*
X139992878Y-90438316D01*
X139892524Y-90391520D01*
X139869659Y-90388510D01*
X139846795Y-90385500D01*
X139846794Y-90385500D01*
X139265209Y-90385500D01*
X139265198Y-90385501D01*
X139219480Y-90391519D01*
X139219474Y-90391520D01*
X139119119Y-90438317D01*
X139119116Y-90438319D01*
X139117999Y-90439437D01*
X139116244Y-90440330D01*
X139112024Y-90443286D01*
X139111608Y-90442692D01*
X139063480Y-90467211D01*
X139003049Y-90457636D01*
X138978001Y-90439437D01*
X138976883Y-90438319D01*
X138976878Y-90438316D01*
X138876524Y-90391520D01*
X138853659Y-90388510D01*
X138830795Y-90385500D01*
X138830794Y-90385500D01*
X138249209Y-90385500D01*
X138249198Y-90385501D01*
X138203480Y-90391519D01*
X138203474Y-90391520D01*
X138103119Y-90438317D01*
X138103116Y-90438319D01*
X138101999Y-90439437D01*
X138100244Y-90440330D01*
X138096024Y-90443286D01*
X138095608Y-90442692D01*
X138047480Y-90467211D01*
X137987049Y-90457636D01*
X137962001Y-90439437D01*
X137960883Y-90438319D01*
X137960878Y-90438316D01*
X137860524Y-90391520D01*
X137837659Y-90388510D01*
X137814795Y-90385500D01*
X137814794Y-90385500D01*
X137233209Y-90385500D01*
X137233198Y-90385501D01*
X137187480Y-90391519D01*
X137187474Y-90391520D01*
X137087119Y-90438317D01*
X137087116Y-90438319D01*
X137085999Y-90439437D01*
X137084244Y-90440330D01*
X137080024Y-90443286D01*
X137079608Y-90442692D01*
X137031480Y-90467211D01*
X136971049Y-90457636D01*
X136946001Y-90439437D01*
X136944883Y-90438319D01*
X136944878Y-90438316D01*
X136844524Y-90391520D01*
X136821659Y-90388510D01*
X136798795Y-90385500D01*
X136798794Y-90385500D01*
X136217209Y-90385500D01*
X136217198Y-90385501D01*
X136171480Y-90391519D01*
X136171474Y-90391520D01*
X136071119Y-90438317D01*
X136071116Y-90438319D01*
X136069999Y-90439437D01*
X136068244Y-90440330D01*
X136064024Y-90443286D01*
X136063608Y-90442692D01*
X136015480Y-90467211D01*
X135955049Y-90457636D01*
X135930001Y-90439437D01*
X135928883Y-90438319D01*
X135928878Y-90438316D01*
X135828524Y-90391520D01*
X135805659Y-90388510D01*
X135782795Y-90385500D01*
X135782794Y-90385500D01*
X135201209Y-90385500D01*
X135201198Y-90385501D01*
X135155480Y-90391519D01*
X135155474Y-90391520D01*
X135055119Y-90438317D01*
X135055116Y-90438319D01*
X135053999Y-90439437D01*
X135052244Y-90440330D01*
X135048024Y-90443286D01*
X135047608Y-90442692D01*
X134999480Y-90467211D01*
X134939049Y-90457636D01*
X134914001Y-90439437D01*
X134912883Y-90438319D01*
X134912878Y-90438316D01*
X134812524Y-90391520D01*
X134789659Y-90388510D01*
X134766795Y-90385500D01*
X134766794Y-90385500D01*
X134185209Y-90385500D01*
X134185198Y-90385501D01*
X134139480Y-90391519D01*
X134139474Y-90391520D01*
X134039119Y-90438317D01*
X134039116Y-90438319D01*
X134037999Y-90439437D01*
X134036244Y-90440330D01*
X134032024Y-90443286D01*
X134031608Y-90442692D01*
X133983480Y-90467211D01*
X133923049Y-90457636D01*
X133898001Y-90439437D01*
X133896883Y-90438319D01*
X133896878Y-90438316D01*
X133796524Y-90391520D01*
X133773659Y-90388510D01*
X133750795Y-90385500D01*
X133750794Y-90385500D01*
X133169209Y-90385500D01*
X133169198Y-90385501D01*
X133123480Y-90391519D01*
X133123474Y-90391520D01*
X133023119Y-90438317D01*
X133023116Y-90438319D01*
X133021999Y-90439437D01*
X133020244Y-90440330D01*
X133016024Y-90443286D01*
X133015608Y-90442692D01*
X132967480Y-90467211D01*
X132907049Y-90457636D01*
X132882001Y-90439437D01*
X132880883Y-90438319D01*
X132880878Y-90438316D01*
X132780524Y-90391520D01*
X132757659Y-90388510D01*
X132734795Y-90385500D01*
X132734794Y-90385500D01*
X132153209Y-90385500D01*
X132153198Y-90385501D01*
X132107480Y-90391519D01*
X132107474Y-90391520D01*
X132007119Y-90438317D01*
X132007116Y-90438319D01*
X132005999Y-90439437D01*
X132004244Y-90440330D01*
X132000024Y-90443286D01*
X131999608Y-90442692D01*
X131951480Y-90467211D01*
X131891049Y-90457636D01*
X131866001Y-90439437D01*
X131864883Y-90438319D01*
X131864878Y-90438316D01*
X131764524Y-90391520D01*
X131741659Y-90388510D01*
X131718795Y-90385500D01*
X131718794Y-90385500D01*
X131137209Y-90385500D01*
X131137198Y-90385501D01*
X131091480Y-90391519D01*
X131091474Y-90391520D01*
X130991119Y-90438317D01*
X130991116Y-90438319D01*
X130989999Y-90439437D01*
X130988244Y-90440330D01*
X130984024Y-90443286D01*
X130983608Y-90442692D01*
X130935480Y-90467211D01*
X130875049Y-90457636D01*
X130850001Y-90439437D01*
X130848883Y-90438319D01*
X130848878Y-90438316D01*
X130748524Y-90391520D01*
X130725659Y-90388510D01*
X130702795Y-90385500D01*
X130702794Y-90385500D01*
X130121209Y-90385500D01*
X130121198Y-90385501D01*
X130075480Y-90391519D01*
X130075474Y-90391520D01*
X129975121Y-90438316D01*
X129896816Y-90516621D01*
X129850020Y-90616974D01*
X129850020Y-90616975D01*
X129844000Y-90662704D01*
X128403879Y-90662704D01*
X128434433Y-90616977D01*
X128442796Y-90604462D01*
X128460319Y-90578235D01*
X128460322Y-90578231D01*
X128531973Y-90405251D01*
X128568500Y-90221616D01*
X128568500Y-90034384D01*
X128531973Y-89850749D01*
X128460322Y-89677769D01*
X128460320Y-89677767D01*
X128460318Y-89677761D01*
X128400649Y-89588463D01*
X128356302Y-89522092D01*
X128223908Y-89389698D01*
X128179559Y-89360065D01*
X128068238Y-89285681D01*
X128068229Y-89285677D01*
X127895249Y-89214026D01*
X127711618Y-89177500D01*
X127711616Y-89177500D01*
X127524384Y-89177500D01*
X127524381Y-89177500D01*
X127340750Y-89214026D01*
X127167770Y-89285677D01*
X127167761Y-89285681D01*
X127012092Y-89389698D01*
X127012088Y-89389701D01*
X126879701Y-89522088D01*
X126879698Y-89522092D01*
X126775681Y-89677761D01*
X126775677Y-89677770D01*
X126704026Y-89850750D01*
X126667500Y-90034381D01*
X122913741Y-90034381D01*
X122966392Y-89943186D01*
X122991227Y-89850500D01*
X123000500Y-89815893D01*
X123000500Y-89684108D01*
X123000500Y-89079500D01*
X123019407Y-89021309D01*
X123068907Y-88985345D01*
X123099500Y-88980500D01*
X123456678Y-88980500D01*
X123514869Y-88999407D01*
X123526682Y-89009496D01*
X123751587Y-89234401D01*
X123778681Y-89285090D01*
X123799490Y-89389701D01*
X123799499Y-89389742D01*
X123799500Y-89389747D01*
X123848534Y-89508125D01*
X123848538Y-89508133D01*
X123875863Y-89549027D01*
X123919724Y-89614669D01*
X124010331Y-89705276D01*
X124073848Y-89747717D01*
X124116866Y-89776461D01*
X124116870Y-89776463D01*
X124116873Y-89776465D01*
X124235256Y-89825501D01*
X124360931Y-89850500D01*
X124360932Y-89850500D01*
X124489068Y-89850500D01*
X124489069Y-89850500D01*
X124614744Y-89825501D01*
X124733127Y-89776465D01*
X124839669Y-89705276D01*
X124930276Y-89614669D01*
X125001465Y-89508127D01*
X125050501Y-89389744D01*
X125075500Y-89264069D01*
X125075500Y-89135931D01*
X125050501Y-89010256D01*
X125001465Y-88891873D01*
X125001463Y-88891870D01*
X125001461Y-88891866D01*
X124961129Y-88831506D01*
X124930276Y-88785331D01*
X124839669Y-88694724D01*
X124797226Y-88666365D01*
X124733133Y-88623538D01*
X124733125Y-88623534D01*
X124614747Y-88574500D01*
X124614745Y-88574499D01*
X124614744Y-88574499D01*
X124565750Y-88564753D01*
X124510090Y-88553681D01*
X124459401Y-88526587D01*
X124190318Y-88257504D01*
X124162541Y-88202987D01*
X124172112Y-88142555D01*
X124215377Y-88099290D01*
X124260322Y-88088500D01*
X124652436Y-88088500D01*
X124695568Y-88102097D01*
X124696769Y-88099522D01*
X124765394Y-88131522D01*
X124804977Y-88149980D01*
X124850705Y-88156000D01*
X127337294Y-88155999D01*
X127383023Y-88149980D01*
X127483381Y-88103182D01*
X127483380Y-88103182D01*
X127491230Y-88099522D01*
X127492431Y-88102097D01*
X127535564Y-88088500D01*
X132827890Y-88088500D01*
X132827892Y-88088500D01*
X132955186Y-88054392D01*
X132955188Y-88054390D01*
X132955190Y-88054390D01*
X133069309Y-87988503D01*
X133069309Y-87988502D01*
X133069314Y-87988500D01*
X133571884Y-87485930D01*
X137499500Y-87485930D01*
X137499500Y-87614069D01*
X137524499Y-87739742D01*
X137524500Y-87739747D01*
X137573534Y-87858125D01*
X137573538Y-87858133D01*
X137616365Y-87922226D01*
X137644724Y-87964669D01*
X137735331Y-88055276D01*
X137789703Y-88091606D01*
X137841866Y-88126461D01*
X137841870Y-88126463D01*
X137841873Y-88126465D01*
X137960256Y-88175501D01*
X138085931Y-88200500D01*
X138085932Y-88200500D01*
X138214068Y-88200500D01*
X138214069Y-88200500D01*
X138339744Y-88175501D01*
X138458127Y-88126465D01*
X138489975Y-88105185D01*
X138544977Y-88088500D01*
X144464436Y-88088500D01*
X144507568Y-88102097D01*
X144508769Y-88099522D01*
X144577394Y-88131522D01*
X144616977Y-88149980D01*
X144662705Y-88156000D01*
X147149294Y-88155999D01*
X147195023Y-88149980D01*
X147295381Y-88103182D01*
X147373682Y-88024881D01*
X147420480Y-87924523D01*
X147426500Y-87878795D01*
X147426499Y-87297206D01*
X147420480Y-87251477D01*
X147416380Y-87242685D01*
X147373683Y-87151121D01*
X147373682Y-87151120D01*
X147373682Y-87151119D01*
X147295381Y-87072818D01*
X147295379Y-87072817D01*
X147295378Y-87072816D01*
X147195024Y-87026020D01*
X147172159Y-87023010D01*
X147149295Y-87020000D01*
X147149294Y-87020000D01*
X144662709Y-87020000D01*
X144662698Y-87020001D01*
X144616980Y-87026019D01*
X144616974Y-87026020D01*
X144508770Y-87076478D01*
X144507568Y-87073902D01*
X144464436Y-87087500D01*
X138648453Y-87087500D01*
X138590262Y-87068593D01*
X138578449Y-87058504D01*
X138564672Y-87044727D01*
X138564669Y-87044724D01*
X138522226Y-87016365D01*
X138458133Y-86973538D01*
X138458125Y-86973534D01*
X138339747Y-86924500D01*
X138339745Y-86924499D01*
X138339744Y-86924499D01*
X138214069Y-86899500D01*
X138085931Y-86899500D01*
X138085930Y-86899500D01*
X138023093Y-86911999D01*
X137960256Y-86924499D01*
X137960255Y-86924499D01*
X137960252Y-86924500D01*
X137841874Y-86973534D01*
X137841866Y-86973538D01*
X137735331Y-87044724D01*
X137735327Y-87044727D01*
X137644727Y-87135327D01*
X137644724Y-87135331D01*
X137573538Y-87241866D01*
X137573534Y-87241874D01*
X137524500Y-87360252D01*
X137524499Y-87360255D01*
X137524499Y-87360256D01*
X137514551Y-87410267D01*
X137499500Y-87485930D01*
X133571884Y-87485930D01*
X135988318Y-85069496D01*
X136042835Y-85041719D01*
X136058322Y-85040500D01*
X144059108Y-85040500D01*
X144190892Y-85040500D01*
X144464436Y-85040500D01*
X144507568Y-85054097D01*
X144508769Y-85051522D01*
X144597614Y-85092951D01*
X144616977Y-85101980D01*
X144662705Y-85108000D01*
X147134816Y-85107999D01*
X147193007Y-85126906D01*
X147228971Y-85176406D01*
X147230441Y-85181371D01*
X147233606Y-85193184D01*
X147233609Y-85193189D01*
X147299496Y-85307309D01*
X147299498Y-85307311D01*
X147299500Y-85307314D01*
X147392686Y-85400500D01*
X147392688Y-85400501D01*
X147392690Y-85400503D01*
X147506810Y-85466390D01*
X147506808Y-85466390D01*
X147506812Y-85466391D01*
X147506814Y-85466392D01*
X147634108Y-85500500D01*
X147634110Y-85500500D01*
X147765890Y-85500500D01*
X147765892Y-85500500D01*
X147893186Y-85466392D01*
X147893188Y-85466390D01*
X147893190Y-85466390D01*
X148007309Y-85400503D01*
X148007309Y-85400502D01*
X148007314Y-85400500D01*
X148100500Y-85307314D01*
X148148918Y-85223450D01*
X148194386Y-85182510D01*
X148247483Y-85176928D01*
X148247758Y-85174847D01*
X148254191Y-85175694D01*
X148254192Y-85175694D01*
X148385974Y-85175694D01*
X148385976Y-85175694D01*
X148513270Y-85141586D01*
X148513272Y-85141584D01*
X148513274Y-85141584D01*
X148627393Y-85075697D01*
X148627393Y-85075696D01*
X148627398Y-85075694D01*
X148720584Y-84982508D01*
X148720587Y-84982503D01*
X148786474Y-84868384D01*
X148786474Y-84868382D01*
X148786476Y-84868380D01*
X148804874Y-84799716D01*
X148838197Y-84748404D01*
X148895318Y-84726477D01*
X148954419Y-84742312D01*
X148992924Y-84789862D01*
X148999500Y-84825341D01*
X148999500Y-95434108D01*
X148999500Y-95565892D01*
X149016115Y-95627899D01*
X149033609Y-95693190D01*
X149099496Y-95807309D01*
X149099497Y-95807310D01*
X149099498Y-95807311D01*
X149099500Y-95807314D01*
X150599500Y-97307314D01*
X150599499Y-97307314D01*
X150692686Y-97400500D01*
X150709995Y-97410494D01*
X150710001Y-97410496D01*
X150710005Y-97410499D01*
X150806814Y-97466392D01*
X150934107Y-97500500D01*
X150934108Y-97500500D01*
X153251678Y-97500500D01*
X153309869Y-97519407D01*
X153321682Y-97529496D01*
X154470504Y-98678318D01*
X154498281Y-98732835D01*
X154499500Y-98748322D01*
X154499500Y-103251678D01*
X154480593Y-103309869D01*
X154470504Y-103321682D01*
X153321682Y-104470504D01*
X153267165Y-104498281D01*
X153251678Y-104499500D01*
X101748322Y-104499500D01*
X101690131Y-104480593D01*
X101678318Y-104470504D01*
X100529496Y-103321682D01*
X100501719Y-103267165D01*
X100500500Y-103251678D01*
X100500500Y-102374034D01*
X100899500Y-102374034D01*
X100899500Y-102625965D01*
X100938908Y-102874780D01*
X101016759Y-103114379D01*
X101107610Y-103292686D01*
X101131130Y-103338845D01*
X101279207Y-103542656D01*
X101457344Y-103720793D01*
X101661155Y-103868870D01*
X101885621Y-103983241D01*
X102125215Y-104061090D01*
X102125216Y-104061090D01*
X102125219Y-104061091D01*
X102374035Y-104100500D01*
X102374038Y-104100500D01*
X102625965Y-104100500D01*
X102874780Y-104061091D01*
X102874781Y-104061090D01*
X102874785Y-104061090D01*
X103114379Y-103983241D01*
X103338845Y-103868870D01*
X103542656Y-103720793D01*
X103720793Y-103542656D01*
X103868870Y-103338845D01*
X103983241Y-103114379D01*
X104061090Y-102874785D01*
X104061091Y-102874780D01*
X104100500Y-102625965D01*
X104100500Y-102374034D01*
X150899500Y-102374034D01*
X150899500Y-102625965D01*
X150938908Y-102874780D01*
X151016759Y-103114379D01*
X151107610Y-103292686D01*
X151131130Y-103338845D01*
X151279207Y-103542656D01*
X151457344Y-103720793D01*
X151661155Y-103868870D01*
X151885621Y-103983241D01*
X152125215Y-104061090D01*
X152125216Y-104061090D01*
X152125219Y-104061091D01*
X152374035Y-104100500D01*
X152374038Y-104100500D01*
X152625965Y-104100500D01*
X152874780Y-104061091D01*
X152874781Y-104061090D01*
X152874785Y-104061090D01*
X153114379Y-103983241D01*
X153338845Y-103868870D01*
X153542656Y-103720793D01*
X153720793Y-103542656D01*
X153868870Y-103338845D01*
X153983241Y-103114379D01*
X154061090Y-102874785D01*
X154061091Y-102874780D01*
X154100500Y-102625965D01*
X154100500Y-102374034D01*
X154061091Y-102125219D01*
X154028328Y-102024385D01*
X153983241Y-101885621D01*
X153868870Y-101661155D01*
X153720793Y-101457344D01*
X153542656Y-101279207D01*
X153338845Y-101131130D01*
X153338844Y-101131129D01*
X153338842Y-101131128D01*
X153114379Y-101016759D01*
X152874780Y-100938908D01*
X152625965Y-100899500D01*
X152625962Y-100899500D01*
X152374038Y-100899500D01*
X152374035Y-100899500D01*
X152125219Y-100938908D01*
X151885620Y-101016759D01*
X151661157Y-101131128D01*
X151457345Y-101279206D01*
X151279206Y-101457345D01*
X151131128Y-101661157D01*
X151016759Y-101885620D01*
X150938908Y-102125219D01*
X150899500Y-102374034D01*
X104100500Y-102374034D01*
X104061091Y-102125219D01*
X104028328Y-102024385D01*
X103983241Y-101885621D01*
X103868870Y-101661155D01*
X103720793Y-101457344D01*
X103542656Y-101279207D01*
X103338845Y-101131130D01*
X103338844Y-101131129D01*
X103338842Y-101131128D01*
X103119321Y-101019277D01*
X103119319Y-101019275D01*
X103114382Y-101016760D01*
X102874780Y-100938908D01*
X102855977Y-100935930D01*
X110949500Y-100935930D01*
X110949500Y-101064069D01*
X110974499Y-101189742D01*
X110974500Y-101189747D01*
X111023534Y-101308125D01*
X111023538Y-101308133D01*
X111066365Y-101372226D01*
X111094724Y-101414669D01*
X111185331Y-101505276D01*
X111248848Y-101547717D01*
X111291866Y-101576461D01*
X111291870Y-101576463D01*
X111291873Y-101576465D01*
X111410256Y-101625501D01*
X111535931Y-101650500D01*
X111535932Y-101650500D01*
X111664068Y-101650500D01*
X111664069Y-101650500D01*
X111789744Y-101625501D01*
X111908127Y-101576465D01*
X111996846Y-101517184D01*
X112051847Y-101500500D01*
X118099725Y-101500500D01*
X118143204Y-101510558D01*
X118164525Y-101520981D01*
X118191048Y-101539918D01*
X118728442Y-102077311D01*
X118728444Y-102077314D01*
X118821630Y-102170500D01*
X118821632Y-102170501D01*
X118821634Y-102170503D01*
X118935754Y-102236390D01*
X118935752Y-102236390D01*
X118935756Y-102236391D01*
X118935758Y-102236392D01*
X119063051Y-102270500D01*
X119063052Y-102270500D01*
X119063053Y-102270500D01*
X120785890Y-102270500D01*
X120785892Y-102270500D01*
X120913186Y-102236392D01*
X120913188Y-102236390D01*
X120913190Y-102236390D01*
X121027309Y-102170503D01*
X121027309Y-102170502D01*
X121027314Y-102170500D01*
X121598566Y-101599247D01*
X121653081Y-101571472D01*
X121661417Y-101570512D01*
X121661574Y-101570500D01*
X121661582Y-101570500D01*
X121736518Y-101559582D01*
X121852102Y-101503076D01*
X121929998Y-101425179D01*
X121984513Y-101397404D01*
X122044945Y-101406975D01*
X122070000Y-101425178D01*
X122147898Y-101503076D01*
X122263482Y-101559582D01*
X122338418Y-101570500D01*
X122338421Y-101570500D01*
X122681578Y-101570500D01*
X122681582Y-101570500D01*
X122756518Y-101559582D01*
X122872102Y-101503076D01*
X122963076Y-101412102D01*
X123019582Y-101296518D01*
X123030500Y-101221582D01*
X123030500Y-100778418D01*
X123019582Y-100703482D01*
X122963076Y-100587898D01*
X122879494Y-100504316D01*
X122851719Y-100449802D01*
X122850500Y-100434315D01*
X122850500Y-99844031D01*
X122869407Y-99785840D01*
X122879490Y-99774033D01*
X122940509Y-99713015D01*
X123012984Y-99587485D01*
X123050500Y-99447475D01*
X123050500Y-99302525D01*
X123012984Y-99162515D01*
X123012982Y-99162512D01*
X123012982Y-99162510D01*
X122940512Y-99036989D01*
X122940510Y-99036987D01*
X122940509Y-99036985D01*
X122838015Y-98934491D01*
X122838012Y-98934489D01*
X122838010Y-98934487D01*
X122712488Y-98862017D01*
X122712489Y-98862017D01*
X122677811Y-98852725D01*
X122572475Y-98824500D01*
X122427525Y-98824500D01*
X122421036Y-98824500D01*
X122421036Y-98821575D01*
X122404089Y-98818426D01*
X122375115Y-98813837D01*
X122374137Y-98812859D01*
X122372778Y-98812607D01*
X122352597Y-98791319D01*
X122331850Y-98770573D01*
X122331633Y-98769206D01*
X122330683Y-98768204D01*
X122326869Y-98739127D01*
X122322279Y-98710141D01*
X122322906Y-98708908D01*
X122322727Y-98707538D01*
X122350057Y-98655624D01*
X122451186Y-98554496D01*
X122505702Y-98526719D01*
X122521189Y-98525500D01*
X122655968Y-98525500D01*
X122714159Y-98544407D01*
X122725971Y-98554496D01*
X122786984Y-98615508D01*
X122786989Y-98615512D01*
X122912511Y-98687982D01*
X122912512Y-98687982D01*
X122912515Y-98687984D01*
X123052525Y-98725500D01*
X123052526Y-98725500D01*
X123197474Y-98725500D01*
X123197475Y-98725500D01*
X123337485Y-98687984D01*
X123337487Y-98687982D01*
X123337489Y-98687982D01*
X123463010Y-98615512D01*
X123463010Y-98615511D01*
X123463015Y-98615509D01*
X123565509Y-98513015D01*
X123572562Y-98500799D01*
X123637982Y-98387489D01*
X123637982Y-98387487D01*
X123637984Y-98387485D01*
X123675500Y-98247475D01*
X123675500Y-98102525D01*
X123637984Y-97962515D01*
X123637982Y-97962512D01*
X123637982Y-97962510D01*
X123565512Y-97836989D01*
X123565510Y-97836987D01*
X123565509Y-97836985D01*
X123463015Y-97734491D01*
X123463012Y-97734489D01*
X123463010Y-97734487D01*
X123337488Y-97662017D01*
X123337489Y-97662017D01*
X123283281Y-97647492D01*
X123197475Y-97624500D01*
X123052525Y-97624500D01*
X122990790Y-97641041D01*
X122912510Y-97662017D01*
X122786989Y-97734487D01*
X122786984Y-97734491D01*
X122725971Y-97795504D01*
X122671454Y-97823281D01*
X122655968Y-97824500D01*
X122288856Y-97824500D01*
X122199712Y-97848386D01*
X122199711Y-97848386D01*
X122199709Y-97848387D01*
X122119790Y-97894529D01*
X119613814Y-100400504D01*
X119559297Y-100428281D01*
X119543810Y-100429500D01*
X119338418Y-100429500D01*
X119263482Y-100440418D01*
X119147899Y-100496923D01*
X119147898Y-100496923D01*
X119147898Y-100496924D01*
X119070001Y-100574820D01*
X119015487Y-100602596D01*
X118955055Y-100593025D01*
X118929999Y-100574821D01*
X118852102Y-100496924D01*
X118736518Y-100440418D01*
X118661582Y-100429500D01*
X118318418Y-100429500D01*
X118243482Y-100440418D01*
X118156759Y-100482815D01*
X118143205Y-100489441D01*
X118099725Y-100499500D01*
X112051847Y-100499500D01*
X111996846Y-100482815D01*
X111954193Y-100454315D01*
X111908133Y-100423538D01*
X111908125Y-100423534D01*
X111789747Y-100374500D01*
X111789745Y-100374499D01*
X111789744Y-100374499D01*
X111664069Y-100349500D01*
X111535931Y-100349500D01*
X111535930Y-100349500D01*
X111473093Y-100361999D01*
X111410256Y-100374499D01*
X111410255Y-100374499D01*
X111410252Y-100374500D01*
X111291874Y-100423534D01*
X111291866Y-100423538D01*
X111185331Y-100494724D01*
X111185327Y-100494727D01*
X111094727Y-100585327D01*
X111094724Y-100585331D01*
X111023538Y-100691866D01*
X111023534Y-100691874D01*
X110974500Y-100810252D01*
X110974499Y-100810257D01*
X110949500Y-100935930D01*
X102855977Y-100935930D01*
X102625965Y-100899500D01*
X102625962Y-100899500D01*
X102374038Y-100899500D01*
X102374035Y-100899500D01*
X102125219Y-100938908D01*
X101885620Y-101016759D01*
X101661157Y-101131128D01*
X101457345Y-101279206D01*
X101279206Y-101457345D01*
X101131128Y-101661157D01*
X101016759Y-101885620D01*
X100938908Y-102125219D01*
X100899500Y-102374034D01*
X100500500Y-102374034D01*
X100500500Y-78560931D01*
X102749500Y-78560931D01*
X102749500Y-78689069D01*
X102773606Y-78810257D01*
X102774499Y-78814742D01*
X102774500Y-78814747D01*
X102823534Y-78933125D01*
X102823538Y-78933133D01*
X102859431Y-78986849D01*
X102894724Y-79039669D01*
X102985331Y-79130276D01*
X103048848Y-79172717D01*
X103091866Y-79201461D01*
X103091870Y-79201463D01*
X103091873Y-79201465D01*
X103210256Y-79250501D01*
X103314908Y-79271318D01*
X103365598Y-79298412D01*
X104920504Y-80853318D01*
X104948281Y-80907835D01*
X104949500Y-80923322D01*
X104949500Y-81231520D01*
X104949501Y-81231523D01*
X104964352Y-81325299D01*
X104964354Y-81325304D01*
X105021950Y-81438342D01*
X105111658Y-81528050D01*
X105224696Y-81585646D01*
X105318481Y-81600500D01*
X106406518Y-81600499D01*
X106406521Y-81600499D01*
X106406522Y-81600498D01*
X106453411Y-81593072D01*
X106500299Y-81585647D01*
X106500299Y-81585646D01*
X106500304Y-81585646D01*
X106613342Y-81528050D01*
X106703050Y-81438342D01*
X106760646Y-81325304D01*
X106775500Y-81231519D01*
X106775499Y-80868482D01*
X106766637Y-80812523D01*
X106760647Y-80774700D01*
X106760646Y-80774698D01*
X106760646Y-80774696D01*
X106703050Y-80661658D01*
X106613342Y-80571950D01*
X106500304Y-80514354D01*
X106500305Y-80514354D01*
X106406522Y-80499500D01*
X106406519Y-80499500D01*
X106023322Y-80499500D01*
X105965131Y-80480593D01*
X105953318Y-80470504D01*
X104073412Y-78590598D01*
X104046318Y-78539908D01*
X104036492Y-78490509D01*
X104025501Y-78435256D01*
X103976465Y-78316873D01*
X103976463Y-78316870D01*
X103976461Y-78316866D01*
X103936136Y-78256517D01*
X103905276Y-78210331D01*
X103814669Y-78119724D01*
X103772226Y-78091365D01*
X103708133Y-78048538D01*
X103708125Y-78048534D01*
X103589747Y-77999500D01*
X103589745Y-77999499D01*
X103589744Y-77999499D01*
X103464069Y-77974500D01*
X103335931Y-77974500D01*
X103335930Y-77974500D01*
X103290701Y-77983497D01*
X103210256Y-77999499D01*
X103210255Y-77999499D01*
X103210252Y-77999500D01*
X103091874Y-78048534D01*
X103091866Y-78048538D01*
X102985331Y-78119724D01*
X102985327Y-78119727D01*
X102894727Y-78210327D01*
X102894724Y-78210331D01*
X102823538Y-78316866D01*
X102823534Y-78316874D01*
X102774500Y-78435252D01*
X102774499Y-78435255D01*
X102774499Y-78435256D01*
X102765886Y-78478554D01*
X102749786Y-78559495D01*
X102749500Y-78560931D01*
X100500500Y-78560931D01*
X100500500Y-73405465D01*
X102074500Y-73405465D01*
X102074500Y-73407705D01*
X102074500Y-74494535D01*
X102086007Y-74537483D01*
X102100090Y-74590039D01*
X102100091Y-74590041D01*
X102147806Y-74672685D01*
X102149522Y-74675658D01*
X102149524Y-74675660D01*
X102149526Y-74675663D01*
X104400505Y-76926642D01*
X104428281Y-76981157D01*
X104429500Y-76996644D01*
X104429500Y-77161582D01*
X104440418Y-77236518D01*
X104496924Y-77352102D01*
X104574820Y-77429998D01*
X104602596Y-77484513D01*
X104593025Y-77544945D01*
X104574821Y-77570000D01*
X104535331Y-77609491D01*
X104496923Y-77647899D01*
X104449499Y-77744907D01*
X104440418Y-77763482D01*
X104429500Y-77838418D01*
X104429500Y-78181582D01*
X104440418Y-78256518D01*
X104496924Y-78372102D01*
X104587898Y-78463076D01*
X104703482Y-78519582D01*
X104778418Y-78530500D01*
X104778421Y-78530500D01*
X105221578Y-78530500D01*
X105221582Y-78530500D01*
X105296518Y-78519582D01*
X105412102Y-78463076D01*
X105439926Y-78435252D01*
X105460683Y-78414496D01*
X105467799Y-78410870D01*
X105472495Y-78404407D01*
X105494546Y-78397242D01*
X105515200Y-78386719D01*
X105530686Y-78385500D01*
X105690969Y-78385500D01*
X105749160Y-78404407D01*
X105760966Y-78414490D01*
X105836985Y-78490509D01*
X105836987Y-78490510D01*
X105836989Y-78490512D01*
X105962511Y-78562982D01*
X105962512Y-78562982D01*
X105962515Y-78562984D01*
X106102525Y-78600500D01*
X106102526Y-78600500D01*
X106247474Y-78600500D01*
X106247475Y-78600500D01*
X106387485Y-78562984D01*
X106387487Y-78562982D01*
X106387489Y-78562982D01*
X106513010Y-78490512D01*
X106513010Y-78490511D01*
X106513015Y-78490509D01*
X106615509Y-78388015D01*
X106623312Y-78374500D01*
X106687982Y-78262489D01*
X106687982Y-78262487D01*
X106687984Y-78262485D01*
X106725500Y-78122475D01*
X106725500Y-78005545D01*
X106732663Y-77983497D01*
X106736290Y-77960600D01*
X106741938Y-77954951D01*
X106744407Y-77947354D01*
X106763163Y-77933726D01*
X106779555Y-77917335D01*
X106787444Y-77916085D01*
X106793907Y-77911390D01*
X106817092Y-77911390D01*
X106839987Y-77907764D01*
X106847104Y-77911390D01*
X106855093Y-77911390D01*
X106894504Y-77935541D01*
X106900504Y-77941541D01*
X106928281Y-77996058D01*
X106929500Y-78011545D01*
X106929500Y-78181582D01*
X106940418Y-78256518D01*
X106996924Y-78372102D01*
X107087898Y-78463076D01*
X107203482Y-78519582D01*
X107278418Y-78530500D01*
X107278421Y-78530500D01*
X107721578Y-78530500D01*
X107721582Y-78530500D01*
X107796518Y-78519582D01*
X107912102Y-78463076D01*
X108003076Y-78372102D01*
X108059582Y-78256518D01*
X108070500Y-78181582D01*
X108070500Y-77838418D01*
X108059582Y-77763482D01*
X108003076Y-77647898D01*
X107912102Y-77556924D01*
X107796518Y-77500418D01*
X107721582Y-77489500D01*
X107721579Y-77489500D01*
X107551546Y-77489500D01*
X107493355Y-77470593D01*
X107481542Y-77460504D01*
X106710563Y-76689526D01*
X106710563Y-76689525D01*
X106624941Y-76640091D01*
X106624937Y-76640089D01*
X106544855Y-76618631D01*
X106544854Y-76618631D01*
X106529438Y-76614500D01*
X106529436Y-76614500D01*
X106529435Y-76614500D01*
X105530686Y-76614500D01*
X105472495Y-76595593D01*
X105460683Y-76585504D01*
X105412103Y-76536925D01*
X105412102Y-76536924D01*
X105296518Y-76480418D01*
X105221582Y-76469500D01*
X105221579Y-76469500D01*
X105046445Y-76469500D01*
X104988254Y-76450593D01*
X104976441Y-76440504D01*
X103405440Y-74869503D01*
X103377663Y-74814986D01*
X103387234Y-74754554D01*
X103430499Y-74711289D01*
X103475444Y-74700499D01*
X103713809Y-74700499D01*
X103772000Y-74719406D01*
X103783812Y-74729495D01*
X103914570Y-74860252D01*
X104034788Y-74980470D01*
X104114712Y-75026614D01*
X104203856Y-75050500D01*
X104810633Y-75050500D01*
X104868824Y-75069407D01*
X104896369Y-75099999D01*
X104904093Y-75113377D01*
X104904095Y-75113380D01*
X105548027Y-75757311D01*
X105548029Y-75757314D01*
X105641215Y-75850500D01*
X105665762Y-75864672D01*
X105741855Y-75908605D01*
X105741858Y-75908606D01*
X105741861Y-75908608D01*
X105755343Y-75916392D01*
X105882636Y-75950500D01*
X105882637Y-75950500D01*
X105898153Y-75950500D01*
X105953153Y-75967184D01*
X105994873Y-75995061D01*
X106041866Y-76026461D01*
X106041870Y-76026463D01*
X106041873Y-76026465D01*
X106160256Y-76075501D01*
X106285931Y-76100500D01*
X106285932Y-76100500D01*
X106414068Y-76100500D01*
X106414069Y-76100500D01*
X106539744Y-76075501D01*
X106658127Y-76026465D01*
X106764669Y-75955276D01*
X106855276Y-75864669D01*
X106926465Y-75758127D01*
X106975501Y-75639744D01*
X107000500Y-75514069D01*
X107000500Y-75385931D01*
X106975501Y-75260256D01*
X106926465Y-75141873D01*
X106926463Y-75141870D01*
X106926461Y-75141866D01*
X106892931Y-75091686D01*
X106855276Y-75035331D01*
X106764669Y-74944724D01*
X106722226Y-74916365D01*
X106658133Y-74873538D01*
X106658125Y-74873534D01*
X106539747Y-74824500D01*
X106539745Y-74824499D01*
X106539744Y-74824499D01*
X106414069Y-74799500D01*
X106285931Y-74799500D01*
X106285930Y-74799500D01*
X106160259Y-74824498D01*
X106160257Y-74824498D01*
X106160256Y-74824499D01*
X106129857Y-74837090D01*
X106068863Y-74841889D01*
X106021972Y-74815629D01*
X105948209Y-74741866D01*
X105870279Y-74663937D01*
X105842502Y-74609421D01*
X105852073Y-74548989D01*
X105870276Y-74523933D01*
X106439715Y-73954495D01*
X106494232Y-73926718D01*
X106509719Y-73925499D01*
X106577099Y-73925499D01*
X106577102Y-73925499D01*
X106626330Y-73919019D01*
X106626331Y-73919019D01*
X106734355Y-73868646D01*
X106734355Y-73868645D01*
X106734359Y-73868644D01*
X106745064Y-73857938D01*
X106782486Y-73834455D01*
X106785913Y-73833260D01*
X106810720Y-73826614D01*
X106811366Y-73826241D01*
X106890644Y-73780470D01*
X107241742Y-73429371D01*
X107296257Y-73401595D01*
X107353581Y-73409651D01*
X107373670Y-73419019D01*
X107422897Y-73425500D01*
X107989242Y-73425499D01*
X108047433Y-73444406D01*
X108059246Y-73454495D01*
X109995504Y-75390753D01*
X110023281Y-75445270D01*
X110024500Y-75460757D01*
X110024500Y-77824672D01*
X110024501Y-77824684D01*
X110039033Y-77897736D01*
X110039035Y-77897742D01*
X110094397Y-77980599D01*
X110094400Y-77980602D01*
X110134091Y-78007122D01*
X110177260Y-78035966D01*
X110232808Y-78047015D01*
X110250315Y-78050498D01*
X110250320Y-78050498D01*
X110250326Y-78050500D01*
X110250327Y-78050500D01*
X111249673Y-78050500D01*
X111249674Y-78050500D01*
X111322740Y-78035966D01*
X111405601Y-77980601D01*
X111460966Y-77897740D01*
X111475500Y-77824674D01*
X111475500Y-74475326D01*
X111475144Y-74473538D01*
X111470562Y-74450500D01*
X111460966Y-74402260D01*
X111448929Y-74384245D01*
X111405602Y-74319400D01*
X111405599Y-74319397D01*
X111322742Y-74264035D01*
X111322740Y-74264034D01*
X111322737Y-74264033D01*
X111322736Y-74264033D01*
X111249684Y-74249501D01*
X111249674Y-74249500D01*
X110250326Y-74249500D01*
X110250325Y-74249500D01*
X110250315Y-74249501D01*
X110177263Y-74264033D01*
X110177257Y-74264035D01*
X110097107Y-74317589D01*
X110038218Y-74334197D01*
X109980815Y-74313019D01*
X109972102Y-74305277D01*
X109586329Y-73919504D01*
X109558552Y-73864987D01*
X109568123Y-73804555D01*
X109611388Y-73761290D01*
X109656333Y-73750500D01*
X109747474Y-73750500D01*
X109747475Y-73750500D01*
X109887485Y-73712984D01*
X109887487Y-73712982D01*
X109887489Y-73712982D01*
X110013010Y-73640512D01*
X110013010Y-73640511D01*
X110013015Y-73640509D01*
X110115509Y-73538015D01*
X110116925Y-73535563D01*
X110187982Y-73412489D01*
X110187982Y-73412487D01*
X110187984Y-73412485D01*
X110225500Y-73272475D01*
X110225500Y-73127525D01*
X110187984Y-72987515D01*
X110187982Y-72987512D01*
X110187982Y-72987510D01*
X110115512Y-72861989D01*
X110115510Y-72861987D01*
X110115509Y-72861985D01*
X110013015Y-72759491D01*
X110013012Y-72759489D01*
X110013010Y-72759487D01*
X109887488Y-72687017D01*
X109887489Y-72687017D01*
X109814651Y-72667500D01*
X109747475Y-72649500D01*
X109747474Y-72649500D01*
X109696545Y-72649500D01*
X109638354Y-72630593D01*
X109626541Y-72620504D01*
X109205563Y-72199526D01*
X109205563Y-72199525D01*
X109119941Y-72150091D01*
X109119937Y-72150089D01*
X109050021Y-72131355D01*
X109050020Y-72131355D01*
X109024438Y-72124500D01*
X109024436Y-72124500D01*
X109024435Y-72124500D01*
X108166604Y-72124500D01*
X108124765Y-72115224D01*
X108051335Y-72080983D01*
X108051333Y-72080982D01*
X108051330Y-72080981D01*
X108002103Y-72074500D01*
X108002102Y-72074500D01*
X107449500Y-72074500D01*
X107391309Y-72055593D01*
X107355345Y-72006093D01*
X107350500Y-71975500D01*
X107350500Y-70786190D01*
X107369407Y-70727999D01*
X107379496Y-70716186D01*
X107816186Y-70279496D01*
X107870703Y-70251719D01*
X107886190Y-70250500D01*
X111098931Y-70250500D01*
X111157122Y-70269407D01*
X111181247Y-70294499D01*
X111194723Y-70314668D01*
X111285322Y-70405268D01*
X111285326Y-70405271D01*
X111285331Y-70405276D01*
X111348848Y-70447717D01*
X111391866Y-70476461D01*
X111391870Y-70476463D01*
X111391873Y-70476465D01*
X111510256Y-70525501D01*
X111614908Y-70546318D01*
X111665598Y-70573412D01*
X113270504Y-72178318D01*
X113298281Y-72232835D01*
X113299500Y-72248322D01*
X113299500Y-74168417D01*
X113280593Y-74226608D01*
X113235791Y-74259158D01*
X113236266Y-74260304D01*
X113231494Y-74262280D01*
X113231093Y-74262572D01*
X113230273Y-74262785D01*
X113227258Y-74264034D01*
X113144400Y-74319397D01*
X113144397Y-74319400D01*
X113089035Y-74402257D01*
X113089033Y-74402263D01*
X113074501Y-74475315D01*
X113074500Y-74475327D01*
X113074500Y-77824672D01*
X113074501Y-77824684D01*
X113089033Y-77897736D01*
X113089035Y-77897742D01*
X113144397Y-77980599D01*
X113144400Y-77980602D01*
X113184091Y-78007122D01*
X113227260Y-78035966D01*
X113282808Y-78047015D01*
X113300315Y-78050498D01*
X113300320Y-78050498D01*
X113300326Y-78050500D01*
X113300327Y-78050500D01*
X114299673Y-78050500D01*
X114299674Y-78050500D01*
X114372740Y-78035966D01*
X114455601Y-77980601D01*
X114510966Y-77897740D01*
X114525500Y-77824674D01*
X114525500Y-74475326D01*
X114525144Y-74473538D01*
X114520562Y-74450500D01*
X114510966Y-74402260D01*
X114498929Y-74384245D01*
X114455602Y-74319400D01*
X114455599Y-74319397D01*
X114372741Y-74264034D01*
X114363734Y-74260304D01*
X114365078Y-74257058D01*
X114326781Y-74235595D01*
X114301183Y-74180022D01*
X114300500Y-74168417D01*
X114300500Y-71934108D01*
X114283985Y-71872474D01*
X114277812Y-71849436D01*
X114266392Y-71806814D01*
X114225759Y-71736436D01*
X114200500Y-71692686D01*
X114200499Y-71692685D01*
X114107314Y-71599499D01*
X114107314Y-71599500D01*
X112373412Y-69865598D01*
X112346318Y-69814908D01*
X112337458Y-69770368D01*
X112325501Y-69710256D01*
X112276465Y-69591873D01*
X112276463Y-69591870D01*
X112276461Y-69591866D01*
X112223978Y-69513321D01*
X112205276Y-69485331D01*
X112114669Y-69394724D01*
X112054052Y-69354221D01*
X112008133Y-69323538D01*
X112008125Y-69323534D01*
X111889747Y-69274500D01*
X111889745Y-69274499D01*
X111889744Y-69274499D01*
X111764069Y-69249500D01*
X111635931Y-69249500D01*
X111635930Y-69249500D01*
X111577827Y-69261058D01*
X111510256Y-69274499D01*
X111510255Y-69274499D01*
X111510252Y-69274500D01*
X111391874Y-69323534D01*
X111391866Y-69323538D01*
X111285331Y-69394724D01*
X111285322Y-69394731D01*
X111194723Y-69485331D01*
X111181247Y-69505501D01*
X111133197Y-69543381D01*
X111098931Y-69549500D01*
X107653856Y-69549500D01*
X107599297Y-69564118D01*
X107564707Y-69573387D01*
X107484791Y-69619527D01*
X106719530Y-70384788D01*
X106673386Y-70464712D01*
X106649500Y-70553857D01*
X106649500Y-71975500D01*
X106630593Y-72033691D01*
X106581093Y-72069655D01*
X106550500Y-72074500D01*
X105997902Y-72074500D01*
X105997890Y-72074501D01*
X105948671Y-72080980D01*
X105875236Y-72115224D01*
X105833396Y-72124500D01*
X104644536Y-72124500D01*
X104545664Y-72124500D01*
X104495225Y-72138015D01*
X104450162Y-72150089D01*
X104364537Y-72199525D01*
X104114562Y-72449501D01*
X103893559Y-72670504D01*
X103839042Y-72698281D01*
X103823555Y-72699500D01*
X102879336Y-72699500D01*
X102780464Y-72699500D01*
X102716796Y-72716559D01*
X102684962Y-72725089D01*
X102599337Y-72774525D01*
X102219438Y-73154425D01*
X102219437Y-73154424D01*
X102149524Y-73224338D01*
X102100091Y-73309958D01*
X102100088Y-73309965D01*
X102089385Y-73349908D01*
X102089386Y-73349909D01*
X102075690Y-73401022D01*
X102075688Y-73401030D01*
X102074571Y-73405201D01*
X102074500Y-73405465D01*
X100500500Y-73405465D01*
X100500500Y-62374034D01*
X100899500Y-62374034D01*
X100899500Y-62625965D01*
X100938908Y-62874780D01*
X101016759Y-63114379D01*
X101130189Y-63337000D01*
X101131130Y-63338845D01*
X101279207Y-63542656D01*
X101457344Y-63720793D01*
X101661155Y-63868870D01*
X101885621Y-63983241D01*
X102125215Y-64061090D01*
X102125216Y-64061090D01*
X102125219Y-64061091D01*
X102374035Y-64100500D01*
X102374038Y-64100500D01*
X102625965Y-64100500D01*
X102874780Y-64061091D01*
X102874781Y-64061090D01*
X102874785Y-64061090D01*
X103114379Y-63983241D01*
X103338845Y-63868870D01*
X103542656Y-63720793D01*
X103720793Y-63542656D01*
X103868870Y-63338845D01*
X103983241Y-63114379D01*
X104061090Y-62874785D01*
X104061091Y-62874780D01*
X104100500Y-62625965D01*
X104100500Y-62374034D01*
X104061091Y-62125219D01*
X104028328Y-62024385D01*
X103983241Y-61885621D01*
X103868870Y-61661155D01*
X103720793Y-61457344D01*
X103542656Y-61279207D01*
X103338845Y-61131130D01*
X103338844Y-61131129D01*
X103338842Y-61131128D01*
X103114379Y-61016759D01*
X102874780Y-60938908D01*
X102625965Y-60899500D01*
X102625962Y-60899500D01*
X102374038Y-60899500D01*
X102374035Y-60899500D01*
X102125219Y-60938908D01*
X101885620Y-61016759D01*
X101661157Y-61131128D01*
X101457345Y-61279206D01*
X101279206Y-61457345D01*
X101131128Y-61661157D01*
X101016759Y-61885620D01*
X100938908Y-62125219D01*
X100899500Y-62374034D01*
X100500500Y-62374034D01*
X100500500Y-61748322D01*
X100519407Y-61690131D01*
X100529496Y-61678318D01*
X101678318Y-60529496D01*
X101732835Y-60501719D01*
X101748322Y-60500500D01*
X130874923Y-60500500D01*
X130933114Y-60519407D01*
G37*
%TD.AperFunction*%
%TA.AperFunction,Conductor*%
G36*
X108198547Y-92991289D02*
G01*
X108207825Y-92996017D01*
X108295323Y-93009875D01*
X108349839Y-93037652D01*
X109118365Y-93806179D01*
X109146142Y-93860696D01*
X109136571Y-93921128D01*
X109130677Y-93931183D01*
X109123535Y-93941870D01*
X109074500Y-94060252D01*
X109074499Y-94060255D01*
X109074499Y-94060256D01*
X109049500Y-94185931D01*
X109049500Y-94314069D01*
X109068269Y-94408426D01*
X109074499Y-94439742D01*
X109074500Y-94439747D01*
X109123534Y-94558125D01*
X109123538Y-94558133D01*
X109166365Y-94622226D01*
X109194724Y-94664669D01*
X109285331Y-94755276D01*
X109348848Y-94797717D01*
X109391866Y-94826461D01*
X109391870Y-94826463D01*
X109391873Y-94826465D01*
X109510256Y-94875501D01*
X109635931Y-94900500D01*
X109635932Y-94900500D01*
X109764068Y-94900500D01*
X109764069Y-94900500D01*
X109889744Y-94875501D01*
X110008127Y-94826465D01*
X110114669Y-94755276D01*
X110205276Y-94664669D01*
X110276465Y-94558127D01*
X110325501Y-94439744D01*
X110350500Y-94314069D01*
X110350500Y-94185931D01*
X110325501Y-94060256D01*
X110276465Y-93941873D01*
X110276463Y-93941870D01*
X110276461Y-93941865D01*
X110217185Y-93853154D01*
X110200500Y-93798152D01*
X110200500Y-93614107D01*
X110190752Y-93577730D01*
X110189283Y-93572247D01*
X110166392Y-93486814D01*
X110165718Y-93485646D01*
X110129761Y-93423368D01*
X110127078Y-93416576D01*
X110125610Y-93392977D01*
X110120694Y-93369850D01*
X110123745Y-93362995D01*
X110123280Y-93355509D01*
X110135962Y-93335555D01*
X110145580Y-93313954D01*
X110152077Y-93310202D01*
X110156101Y-93303872D01*
X110178092Y-93295182D01*
X110198568Y-93283361D01*
X110206027Y-93284144D01*
X110213005Y-93281388D01*
X110235905Y-93287284D01*
X110259418Y-93289756D01*
X110267757Y-93295487D01*
X110272258Y-93296646D01*
X110275953Y-93301120D01*
X110289156Y-93310193D01*
X112900504Y-95921541D01*
X112928281Y-95976058D01*
X112929500Y-95991545D01*
X112929500Y-96161582D01*
X112940418Y-96236518D01*
X112996924Y-96352102D01*
X113074819Y-96429997D01*
X113081937Y-96443967D01*
X113093023Y-96455053D01*
X113095475Y-96470539D01*
X113102595Y-96484512D01*
X113100142Y-96499999D01*
X113102595Y-96515485D01*
X113095476Y-96529455D01*
X113093024Y-96544944D01*
X113074819Y-96570002D01*
X113039319Y-96605503D01*
X112984802Y-96633281D01*
X112969314Y-96634500D01*
X112216546Y-96634500D01*
X112158355Y-96615593D01*
X112146542Y-96605504D01*
X111599496Y-96058458D01*
X111571719Y-96003941D01*
X111570500Y-95988454D01*
X111570500Y-95818421D01*
X111570500Y-95818418D01*
X111559582Y-95743482D01*
X111503076Y-95627898D01*
X111412102Y-95536924D01*
X111296518Y-95480418D01*
X111221582Y-95469500D01*
X110778418Y-95469500D01*
X110703482Y-95480418D01*
X110587899Y-95536923D01*
X110496923Y-95627899D01*
X110492478Y-95636992D01*
X110440418Y-95743482D01*
X110429500Y-95818418D01*
X110429500Y-96161582D01*
X110440418Y-96236517D01*
X110489551Y-96337020D01*
X110498122Y-96397602D01*
X110469447Y-96451651D01*
X110414478Y-96478524D01*
X110400610Y-96479500D01*
X108846397Y-96479500D01*
X108801452Y-96468710D01*
X108792175Y-96463983D01*
X108700736Y-96449500D01*
X108299262Y-96449500D01*
X108207825Y-96463983D01*
X108198546Y-96468711D01*
X108153603Y-96479500D01*
X107024499Y-96479500D01*
X106966308Y-96460593D01*
X106930344Y-96411093D01*
X106925499Y-96380500D01*
X106925499Y-96318478D01*
X106925498Y-96318476D01*
X106910647Y-96224701D01*
X106910646Y-96224700D01*
X106910646Y-96224696D01*
X106908343Y-96220177D01*
X106898772Y-96159748D01*
X106900927Y-96149609D01*
X106902499Y-96143740D01*
X106918000Y-96085892D01*
X106918000Y-93079500D01*
X106936907Y-93021309D01*
X106986407Y-92985345D01*
X107017000Y-92980500D01*
X108153603Y-92980500D01*
X108198547Y-92991289D01*
G37*
%TD.AperFunction*%
%TA.AperFunction,Conductor*%
G36*
X109084869Y-81569407D02*
G01*
X109096682Y-81579496D01*
X110245504Y-82728318D01*
X110273281Y-82782835D01*
X110274500Y-82798322D01*
X110274500Y-83045478D01*
X110274501Y-83045484D01*
X110280587Y-83102111D01*
X110280587Y-83102112D01*
X110280588Y-83102114D01*
X110328372Y-83230226D01*
X110410313Y-83339687D01*
X110438116Y-83360500D01*
X110515850Y-83418691D01*
X110519774Y-83421628D01*
X110647886Y-83469412D01*
X110704515Y-83475500D01*
X111295484Y-83475499D01*
X111352114Y-83469412D01*
X111480226Y-83421628D01*
X111589687Y-83339687D01*
X111608040Y-83315171D01*
X111658049Y-83279918D01*
X111687293Y-83275500D01*
X113450242Y-83275500D01*
X113508433Y-83294407D01*
X113543000Y-83339903D01*
X113581203Y-83442330D01*
X113667064Y-83557026D01*
X113667454Y-83557546D01*
X113667457Y-83557548D01*
X113667458Y-83557549D01*
X113782670Y-83643797D01*
X113917511Y-83694089D01*
X113917512Y-83694089D01*
X113917517Y-83694091D01*
X113977127Y-83700500D01*
X114501677Y-83700499D01*
X114559868Y-83719406D01*
X114571681Y-83729495D01*
X115395504Y-84553317D01*
X115423281Y-84607834D01*
X115424500Y-84623321D01*
X115424500Y-85034108D01*
X115424500Y-85165892D01*
X115439923Y-85223452D01*
X115458609Y-85293190D01*
X115524496Y-85407309D01*
X115524497Y-85407310D01*
X115524498Y-85407311D01*
X115524500Y-85407314D01*
X116404500Y-86287314D01*
X118997686Y-88880500D01*
X118997688Y-88880501D01*
X118997689Y-88880502D01*
X118997690Y-88880503D01*
X119111810Y-88946390D01*
X119111808Y-88946390D01*
X119111812Y-88946391D01*
X119111814Y-88946392D01*
X119239108Y-88980500D01*
X119370893Y-88980500D01*
X120153603Y-88980500D01*
X120198547Y-88991289D01*
X120207825Y-88996017D01*
X120299265Y-89010500D01*
X120700734Y-89010499D01*
X120700737Y-89010499D01*
X120727332Y-89006286D01*
X120792175Y-88996017D01*
X120902391Y-88939859D01*
X120989859Y-88852391D01*
X121046017Y-88742175D01*
X121060500Y-88650735D01*
X121060499Y-88309266D01*
X121060499Y-88309263D01*
X121060499Y-88309262D01*
X121050587Y-88246681D01*
X121046017Y-88217825D01*
X120989859Y-88107609D01*
X120902391Y-88020141D01*
X120792175Y-87963983D01*
X120792176Y-87963983D01*
X120700736Y-87949500D01*
X120299262Y-87949500D01*
X120207825Y-87963983D01*
X120198546Y-87968711D01*
X120153603Y-87979500D01*
X119553322Y-87979500D01*
X119495131Y-87960593D01*
X119483318Y-87950504D01*
X118182318Y-86649504D01*
X118154541Y-86594987D01*
X118164112Y-86534555D01*
X118207377Y-86491290D01*
X118252322Y-86480500D01*
X120153603Y-86480500D01*
X120198547Y-86491289D01*
X120207825Y-86496017D01*
X120299265Y-86510500D01*
X120700734Y-86510499D01*
X120700737Y-86510499D01*
X120727332Y-86506286D01*
X120792175Y-86496017D01*
X120801454Y-86491288D01*
X120846397Y-86480500D01*
X121935022Y-86480500D01*
X121993213Y-86499407D01*
X122029177Y-86548907D01*
X122030648Y-86553874D01*
X122033608Y-86564922D01*
X122033609Y-86564923D01*
X122099496Y-86679043D01*
X122099497Y-86679044D01*
X122099498Y-86679045D01*
X122099500Y-86679048D01*
X122671926Y-87251474D01*
X123230948Y-87810496D01*
X123258725Y-87865013D01*
X123249154Y-87925445D01*
X123205889Y-87968710D01*
X123160944Y-87979500D01*
X122846397Y-87979500D01*
X122801452Y-87968710D01*
X122792175Y-87963983D01*
X122700736Y-87949500D01*
X122299262Y-87949500D01*
X122207825Y-87963983D01*
X122207821Y-87963984D01*
X122097610Y-88020140D01*
X122010140Y-88107610D01*
X121953983Y-88217823D01*
X121939500Y-88309263D01*
X121939500Y-88650737D01*
X121953983Y-88742174D01*
X121953984Y-88742178D01*
X121988709Y-88810327D01*
X121999500Y-88855273D01*
X121999500Y-89501678D01*
X121980593Y-89559869D01*
X121970504Y-89571682D01*
X120671682Y-90870504D01*
X120617165Y-90898281D01*
X120601678Y-90899500D01*
X118198322Y-90899500D01*
X118140131Y-90880593D01*
X118128318Y-90870504D01*
X115504495Y-88246681D01*
X115476718Y-88192164D01*
X115475499Y-88176677D01*
X115475499Y-87652133D01*
X115475499Y-87652128D01*
X115469091Y-87592517D01*
X115457582Y-87561659D01*
X115418797Y-87457670D01*
X115332549Y-87342458D01*
X115332548Y-87342457D01*
X115332546Y-87342454D01*
X115317370Y-87331093D01*
X115217329Y-87256202D01*
X115082488Y-87205910D01*
X115082483Y-87205909D01*
X115082481Y-87205908D01*
X115082477Y-87205908D01*
X115051249Y-87202550D01*
X115022873Y-87199500D01*
X115022870Y-87199500D01*
X113977133Y-87199500D01*
X113977129Y-87199500D01*
X113977128Y-87199501D01*
X113969949Y-87200272D01*
X113917519Y-87205908D01*
X113917514Y-87205909D01*
X113782670Y-87256202D01*
X113776457Y-87259596D01*
X113775506Y-87257855D01*
X113726688Y-87274490D01*
X113725278Y-87274500D01*
X111687293Y-87274500D01*
X111629102Y-87255593D01*
X111608040Y-87234829D01*
X111589690Y-87210317D01*
X111589688Y-87210315D01*
X111589687Y-87210313D01*
X111553476Y-87183206D01*
X111480228Y-87128373D01*
X111480226Y-87128372D01*
X111352114Y-87080588D01*
X111352113Y-87080587D01*
X111313884Y-87076478D01*
X111295485Y-87074500D01*
X111295481Y-87074500D01*
X111048322Y-87074500D01*
X110990131Y-87055593D01*
X110978318Y-87045504D01*
X110286780Y-86353966D01*
X109582314Y-85649500D01*
X109582311Y-85649498D01*
X109582310Y-85649497D01*
X109582309Y-85649496D01*
X109468189Y-85583609D01*
X109468191Y-85583609D01*
X109418799Y-85570375D01*
X109340892Y-85549500D01*
X109340890Y-85549500D01*
X108868050Y-85549500D01*
X108823105Y-85538710D01*
X108775304Y-85514354D01*
X108681521Y-85499500D01*
X107624500Y-85499500D01*
X107566309Y-85480593D01*
X107530345Y-85431093D01*
X107525500Y-85400500D01*
X107525500Y-83599499D01*
X107544407Y-83541308D01*
X107593907Y-83505344D01*
X107624493Y-83500499D01*
X108681518Y-83500499D01*
X108681521Y-83500499D01*
X108681522Y-83500498D01*
X108749504Y-83489732D01*
X108775299Y-83485647D01*
X108775299Y-83485646D01*
X108775304Y-83485646D01*
X108888342Y-83428050D01*
X108978050Y-83338342D01*
X109035646Y-83225304D01*
X109050500Y-83131519D01*
X109050499Y-82768482D01*
X109039296Y-82697742D01*
X109035647Y-82674700D01*
X109035646Y-82674698D01*
X109035646Y-82674696D01*
X108978050Y-82561658D01*
X108888342Y-82471950D01*
X108775304Y-82414354D01*
X108775305Y-82414354D01*
X108681522Y-82399500D01*
X108681519Y-82399500D01*
X108034820Y-82399500D01*
X107976629Y-82380593D01*
X107940665Y-82331093D01*
X107940665Y-82269907D01*
X107964816Y-82230496D01*
X108164812Y-82030500D01*
X108538000Y-81657313D01*
X108542223Y-81649997D01*
X108587693Y-81609058D01*
X108627959Y-81600499D01*
X108681521Y-81600499D01*
X108681522Y-81600498D01*
X108715489Y-81595118D01*
X108775300Y-81585647D01*
X108775301Y-81585647D01*
X108775302Y-81585646D01*
X108775304Y-81585646D01*
X108807175Y-81569407D01*
X108823106Y-81561290D01*
X108868050Y-81550500D01*
X109026678Y-81550500D01*
X109084869Y-81569407D01*
G37*
%TD.AperFunction*%
%TA.AperFunction,Conductor*%
G36*
X117758691Y-82499407D02*
G01*
X117794655Y-82548907D01*
X117799500Y-82579500D01*
X117799500Y-83557026D01*
X117799500Y-83688810D01*
X117829579Y-83801069D01*
X117833609Y-83816108D01*
X117899496Y-83930227D01*
X117899500Y-83930232D01*
X118256579Y-84287312D01*
X118256580Y-84287312D01*
X118256582Y-84287314D01*
X118256581Y-84287314D01*
X118321657Y-84352389D01*
X118349768Y-84380500D01*
X118447807Y-84437103D01*
X118463896Y-84446392D01*
X118591189Y-84480500D01*
X118591190Y-84480500D01*
X120153603Y-84480500D01*
X120198547Y-84491289D01*
X120207825Y-84496017D01*
X120299265Y-84510500D01*
X120700734Y-84510499D01*
X120700737Y-84510499D01*
X120727332Y-84506286D01*
X120792175Y-84496017D01*
X120801454Y-84491288D01*
X120846397Y-84480500D01*
X122153603Y-84480500D01*
X122198547Y-84491289D01*
X122207825Y-84496017D01*
X122299265Y-84510500D01*
X122700734Y-84510499D01*
X122700737Y-84510499D01*
X122727332Y-84506286D01*
X122792175Y-84496017D01*
X122902391Y-84439859D01*
X122989859Y-84352391D01*
X123046017Y-84242175D01*
X123054522Y-84188476D01*
X123082300Y-84133960D01*
X123136816Y-84106183D01*
X123197248Y-84115754D01*
X123240513Y-84159019D01*
X123241243Y-84160482D01*
X123246922Y-84172099D01*
X123246923Y-84172100D01*
X123246924Y-84172102D01*
X123337898Y-84263076D01*
X123453482Y-84319582D01*
X123528418Y-84330500D01*
X123528421Y-84330500D01*
X123971578Y-84330500D01*
X123971582Y-84330500D01*
X124046518Y-84319582D01*
X124162102Y-84263076D01*
X124235683Y-84189494D01*
X124242798Y-84185869D01*
X124247494Y-84179407D01*
X124269542Y-84172243D01*
X124290198Y-84161719D01*
X124305685Y-84160500D01*
X124474500Y-84160500D01*
X124532691Y-84179407D01*
X124568655Y-84228907D01*
X124573500Y-84259500D01*
X124573500Y-84830790D01*
X124573501Y-84830801D01*
X124579519Y-84876519D01*
X124579520Y-84876525D01*
X124626317Y-84976880D01*
X124626319Y-84976883D01*
X124627437Y-84978001D01*
X124628330Y-84979755D01*
X124631286Y-84983976D01*
X124630692Y-84984391D01*
X124655211Y-85032520D01*
X124645636Y-85092951D01*
X124639267Y-85103709D01*
X124634020Y-85111416D01*
X124626318Y-85119119D01*
X124620969Y-85130588D01*
X124616463Y-85137209D01*
X124598293Y-85151280D01*
X124582620Y-85168088D01*
X124573569Y-85170428D01*
X124568089Y-85174673D01*
X124555686Y-85175053D01*
X124534625Y-85180500D01*
X124353436Y-85180500D01*
X124254564Y-85180500D01*
X124207220Y-85193186D01*
X124207219Y-85193185D01*
X124159062Y-85206089D01*
X124159058Y-85206091D01*
X124073436Y-85255525D01*
X124073437Y-85255526D01*
X123768459Y-85560504D01*
X123713942Y-85588281D01*
X123698455Y-85589500D01*
X123528418Y-85589500D01*
X123453482Y-85600418D01*
X123337899Y-85656923D01*
X123246922Y-85747900D01*
X123236457Y-85769307D01*
X123193912Y-85813280D01*
X123133647Y-85823849D01*
X123078679Y-85796975D01*
X123050005Y-85742924D01*
X123049762Y-85741472D01*
X123046017Y-85717825D01*
X123046015Y-85717821D01*
X123046015Y-85717820D01*
X123014986Y-85656923D01*
X122989859Y-85607609D01*
X122902391Y-85520141D01*
X122792175Y-85463983D01*
X122792176Y-85463983D01*
X122700736Y-85449500D01*
X122299262Y-85449500D01*
X122207825Y-85463983D01*
X122198546Y-85468711D01*
X122153603Y-85479500D01*
X120846397Y-85479500D01*
X120801452Y-85468710D01*
X120792175Y-85463983D01*
X120700736Y-85449500D01*
X120299262Y-85449500D01*
X120207825Y-85463983D01*
X120198546Y-85468711D01*
X120153603Y-85479500D01*
X117053322Y-85479500D01*
X116995131Y-85460593D01*
X116983318Y-85450504D01*
X116454496Y-84921682D01*
X116426719Y-84867165D01*
X116425500Y-84851678D01*
X116425500Y-84309108D01*
X116421830Y-84295413D01*
X116391392Y-84181814D01*
X116372750Y-84149526D01*
X116325500Y-84067686D01*
X116232314Y-83974500D01*
X116232311Y-83974498D01*
X115504495Y-83246682D01*
X115476718Y-83192165D01*
X115475499Y-83176678D01*
X115475499Y-82723321D01*
X115494406Y-82665130D01*
X115504496Y-82653317D01*
X115648318Y-82509496D01*
X115702834Y-82481719D01*
X115718321Y-82480500D01*
X117700500Y-82480500D01*
X117758691Y-82499407D01*
G37*
%TD.AperFunction*%
%TA.AperFunction,Conductor*%
G36*
X131035374Y-78832050D02*
G01*
X131078639Y-78875315D01*
X131089429Y-78920260D01*
X131089429Y-82873881D01*
X131070522Y-82932072D01*
X131060433Y-82943885D01*
X130859814Y-83144504D01*
X130805297Y-83172281D01*
X130789810Y-83173500D01*
X130343453Y-83173500D01*
X130285262Y-83154593D01*
X130249298Y-83105093D01*
X130249298Y-83043907D01*
X130273449Y-83004496D01*
X130306890Y-82971055D01*
X130355276Y-82922669D01*
X130426465Y-82816127D01*
X130475501Y-82697744D01*
X130500500Y-82572069D01*
X130500500Y-82443931D01*
X130475501Y-82318256D01*
X130426465Y-82199873D01*
X130426463Y-82199870D01*
X130426461Y-82199866D01*
X130393632Y-82150735D01*
X130355276Y-82093331D01*
X130264669Y-82002724D01*
X130222226Y-81974365D01*
X130158133Y-81931538D01*
X130158125Y-81931534D01*
X130039747Y-81882500D01*
X130039745Y-81882499D01*
X130039744Y-81882499D01*
X129914069Y-81857500D01*
X129785931Y-81857500D01*
X129785930Y-81857500D01*
X129723093Y-81869999D01*
X129660256Y-81882499D01*
X129660255Y-81882499D01*
X129660252Y-81882500D01*
X129541874Y-81931534D01*
X129541866Y-81931538D01*
X129476563Y-81975173D01*
X129453153Y-81990815D01*
X129398153Y-82007500D01*
X127535564Y-82007500D01*
X127492431Y-81993902D01*
X127491231Y-81996478D01*
X127383024Y-81946020D01*
X127337295Y-81940000D01*
X124928822Y-81940000D01*
X124870631Y-81921093D01*
X124858818Y-81911004D01*
X124349249Y-81401435D01*
X124321472Y-81346918D01*
X124320512Y-81338584D01*
X124320500Y-81338424D01*
X124320500Y-81338418D01*
X124309582Y-81263482D01*
X124253076Y-81147898D01*
X124175179Y-81070001D01*
X124168061Y-81056030D01*
X124156975Y-81044944D01*
X124154522Y-81029458D01*
X124147404Y-81015487D01*
X124149856Y-80999999D01*
X124147404Y-80984512D01*
X124154522Y-80970541D01*
X124156975Y-80955055D01*
X124175179Y-80929998D01*
X124210683Y-80894495D01*
X124265200Y-80866719D01*
X124280686Y-80865500D01*
X124541605Y-80865500D01*
X124599796Y-80884407D01*
X124622700Y-80907714D01*
X124626316Y-80912878D01*
X124626317Y-80912879D01*
X124626318Y-80912881D01*
X124704619Y-80991182D01*
X124704620Y-80991182D01*
X124704621Y-80991183D01*
X124754798Y-81014581D01*
X124804977Y-81037980D01*
X124850705Y-81044000D01*
X127337294Y-81043999D01*
X127383023Y-81037980D01*
X127483381Y-80991182D01*
X127561682Y-80912881D01*
X127561684Y-80912877D01*
X127563651Y-80908660D01*
X127605380Y-80863912D01*
X127653375Y-80851500D01*
X128848436Y-80851500D01*
X128896186Y-80838705D01*
X128896187Y-80838705D01*
X128943934Y-80825911D01*
X128943933Y-80825911D01*
X128943938Y-80825910D01*
X129029562Y-80776475D01*
X129064518Y-80741518D01*
X129099476Y-80706562D01*
X129175473Y-80630564D01*
X129202582Y-80583609D01*
X129217253Y-80558197D01*
X129232979Y-80537701D01*
X130920426Y-78850255D01*
X130974942Y-78822479D01*
X131035374Y-78832050D01*
G37*
%TD.AperFunction*%
%TA.AperFunction,Conductor*%
G36*
X131989159Y-66869407D02*
G01*
X132000971Y-66879496D01*
X132061984Y-66940508D01*
X132061989Y-66940512D01*
X132187511Y-67012982D01*
X132187512Y-67012982D01*
X132187515Y-67012984D01*
X132327525Y-67050500D01*
X132327526Y-67050500D01*
X132422591Y-67050500D01*
X132480782Y-67069407D01*
X132516746Y-67118907D01*
X132516746Y-67180093D01*
X132510802Y-67194441D01*
X132508212Y-67199525D01*
X132503983Y-67207825D01*
X132489500Y-67299263D01*
X132489500Y-67700737D01*
X132503983Y-67792174D01*
X132503984Y-67792178D01*
X132521517Y-67826587D01*
X132560141Y-67902391D01*
X132560144Y-67902394D01*
X132564075Y-67906326D01*
X132579804Y-67926826D01*
X132619496Y-67995575D01*
X132619500Y-67995580D01*
X132943049Y-68319130D01*
X132970826Y-68373646D01*
X132961255Y-68434078D01*
X132943049Y-68459136D01*
X132712686Y-68689500D01*
X132619500Y-68782686D01*
X132619496Y-68782691D01*
X132553609Y-68896810D01*
X132543361Y-68935058D01*
X132521422Y-69016938D01*
X132519500Y-69024110D01*
X132519500Y-69053602D01*
X132508711Y-69098545D01*
X132503983Y-69107824D01*
X132489500Y-69199263D01*
X132489500Y-69600737D01*
X132503983Y-69692174D01*
X132503984Y-69692178D01*
X132542749Y-69768258D01*
X132560141Y-69802391D01*
X132647609Y-69889859D01*
X132757825Y-69946017D01*
X132849265Y-69960500D01*
X133190734Y-69960499D01*
X133190737Y-69960499D01*
X133217332Y-69956286D01*
X133282175Y-69946017D01*
X133392391Y-69889859D01*
X133479859Y-69802391D01*
X133536017Y-69692175D01*
X133550500Y-69600735D01*
X133550499Y-69308320D01*
X133569406Y-69250131D01*
X133579489Y-69238324D01*
X133788319Y-69029496D01*
X133842835Y-69001719D01*
X133858322Y-69000500D01*
X134905068Y-69000500D01*
X134927117Y-69007664D01*
X134950015Y-69011291D01*
X134955662Y-69016938D01*
X134963259Y-69019407D01*
X134976888Y-69038166D01*
X134993278Y-69054557D01*
X134994527Y-69062443D01*
X134999223Y-69068907D01*
X135002848Y-69114985D01*
X134995918Y-69158744D01*
X134990124Y-69195322D01*
X134962347Y-69249836D01*
X134168686Y-70043499D01*
X134075500Y-70136685D01*
X134075496Y-70136690D01*
X134009609Y-70250809D01*
X133975500Y-70378109D01*
X133975500Y-70652436D01*
X133961902Y-70695568D01*
X133964478Y-70696769D01*
X133914020Y-70804974D01*
X133914020Y-70804975D01*
X133908000Y-70850704D01*
X133908000Y-73337290D01*
X133908001Y-73337301D01*
X133914019Y-73383019D01*
X133914020Y-73383025D01*
X133964478Y-73491230D01*
X133961898Y-73492432D01*
X133975500Y-73535563D01*
X133975500Y-75050678D01*
X133956593Y-75108869D01*
X133946504Y-75120682D01*
X133521682Y-75545504D01*
X133514564Y-75549130D01*
X133509869Y-75555593D01*
X133487820Y-75562756D01*
X133467165Y-75573281D01*
X133451678Y-75574500D01*
X133373322Y-75574500D01*
X133315131Y-75555593D01*
X133303318Y-75545504D01*
X132973496Y-75215682D01*
X132945719Y-75161165D01*
X132944500Y-75145678D01*
X132944500Y-73535563D01*
X132958101Y-73492433D01*
X132955522Y-73491231D01*
X133005979Y-73383025D01*
X133005980Y-73383023D01*
X133012000Y-73337295D01*
X133011999Y-70850706D01*
X133005980Y-70804977D01*
X132997219Y-70786190D01*
X132959183Y-70704621D01*
X132959182Y-70704620D01*
X132959182Y-70704619D01*
X132880881Y-70626318D01*
X132880879Y-70626317D01*
X132880878Y-70626316D01*
X132780524Y-70579520D01*
X132757659Y-70576510D01*
X132734795Y-70573500D01*
X132734794Y-70573500D01*
X132153209Y-70573500D01*
X132153198Y-70573501D01*
X132107480Y-70579519D01*
X132107474Y-70579520D01*
X132007119Y-70626317D01*
X132007116Y-70626319D01*
X132005999Y-70627437D01*
X132004244Y-70628330D01*
X132000024Y-70631286D01*
X131999608Y-70630692D01*
X131951480Y-70655211D01*
X131891049Y-70645636D01*
X131866001Y-70627437D01*
X131864883Y-70626319D01*
X131864878Y-70626316D01*
X131764524Y-70579520D01*
X131718795Y-70573500D01*
X131524762Y-70573500D01*
X131466571Y-70554593D01*
X131430607Y-70505093D01*
X131428171Y-70496207D01*
X131423734Y-70476465D01*
X131349863Y-70147752D01*
X131355551Y-70086835D01*
X131357499Y-70082597D01*
X131399582Y-69996518D01*
X131410500Y-69921582D01*
X131410500Y-69478418D01*
X131399582Y-69403482D01*
X131395301Y-69394724D01*
X131385559Y-69374796D01*
X131375500Y-69331316D01*
X131375500Y-67212493D01*
X131394407Y-67154302D01*
X131404496Y-67142489D01*
X131667489Y-66879496D01*
X131674606Y-66875869D01*
X131679302Y-66869407D01*
X131701350Y-66862243D01*
X131722006Y-66851719D01*
X131737493Y-66850500D01*
X131930968Y-66850500D01*
X131989159Y-66869407D01*
G37*
%TD.AperFunction*%
%TA.AperFunction,Conductor*%
G36*
X153309869Y-60519407D02*
G01*
X153321682Y-60529496D01*
X154470504Y-61678318D01*
X154498281Y-61732835D01*
X154499500Y-61748322D01*
X154499500Y-66251678D01*
X154480593Y-66309869D01*
X154470504Y-66321682D01*
X153321682Y-67470504D01*
X153267165Y-67498281D01*
X153251678Y-67499500D01*
X151065892Y-67499500D01*
X150934107Y-67499500D01*
X150840481Y-67524587D01*
X150840480Y-67524586D01*
X150806814Y-67533607D01*
X150806810Y-67533609D01*
X150692690Y-67599496D01*
X150692684Y-67599500D01*
X150692685Y-67599501D01*
X149192686Y-69099500D01*
X149192685Y-69099499D01*
X149099500Y-69192685D01*
X149099496Y-69192690D01*
X149033609Y-69306809D01*
X149021589Y-69351670D01*
X149001790Y-69425564D01*
X148999500Y-69434109D01*
X148999500Y-69676213D01*
X148992315Y-69698325D01*
X148988644Y-69721287D01*
X148983039Y-69726875D01*
X148980593Y-69734404D01*
X148961781Y-69748071D01*
X148945316Y-69764489D01*
X148938156Y-69765236D01*
X148931093Y-69770368D01*
X148884870Y-69773971D01*
X148879811Y-69773162D01*
X148866144Y-69769500D01*
X148856907Y-69769500D01*
X148849139Y-69768258D01*
X148828563Y-69757736D01*
X148806578Y-69750593D01*
X148794765Y-69740504D01*
X141428295Y-62374034D01*
X150899500Y-62374034D01*
X150899500Y-62625965D01*
X150938908Y-62874780D01*
X151016759Y-63114379D01*
X151130189Y-63337000D01*
X151131130Y-63338845D01*
X151279207Y-63542656D01*
X151457344Y-63720793D01*
X151661155Y-63868870D01*
X151885621Y-63983241D01*
X152125215Y-64061090D01*
X152125216Y-64061090D01*
X152125219Y-64061091D01*
X152374035Y-64100500D01*
X152374038Y-64100500D01*
X152625965Y-64100500D01*
X152874780Y-64061091D01*
X152874781Y-64061090D01*
X152874785Y-64061090D01*
X153114379Y-63983241D01*
X153338845Y-63868870D01*
X153542656Y-63720793D01*
X153720793Y-63542656D01*
X153868870Y-63338845D01*
X153983241Y-63114379D01*
X154061090Y-62874785D01*
X154061091Y-62874780D01*
X154100500Y-62625965D01*
X154100500Y-62374034D01*
X154061091Y-62125219D01*
X154028328Y-62024385D01*
X153983241Y-61885621D01*
X153868870Y-61661155D01*
X153720793Y-61457344D01*
X153542656Y-61279207D01*
X153338845Y-61131130D01*
X153338844Y-61131129D01*
X153338842Y-61131128D01*
X153114379Y-61016759D01*
X152874780Y-60938908D01*
X152625965Y-60899500D01*
X152625962Y-60899500D01*
X152374038Y-60899500D01*
X152374035Y-60899500D01*
X152125219Y-60938908D01*
X151885620Y-61016759D01*
X151661157Y-61131128D01*
X151457345Y-61279206D01*
X151279206Y-61457345D01*
X151131128Y-61661157D01*
X151016759Y-61885620D01*
X150938908Y-62125219D01*
X150899500Y-62374034D01*
X141428295Y-62374034D01*
X140629496Y-61575235D01*
X140601719Y-61520718D01*
X140600500Y-61505231D01*
X140600500Y-61503857D01*
X140588037Y-61457345D01*
X140576614Y-61414712D01*
X140530469Y-61334788D01*
X140465212Y-61269531D01*
X140385288Y-61223386D01*
X140296144Y-61199500D01*
X140296142Y-61199500D01*
X131932668Y-61199500D01*
X131874477Y-61180593D01*
X131862664Y-61170503D01*
X131754676Y-61062515D01*
X131636692Y-60944530D01*
X131636691Y-60944529D01*
X131556771Y-60898387D01*
X131556770Y-60898386D01*
X131507450Y-60885170D01*
X131463073Y-60859548D01*
X131388015Y-60784491D01*
X131388010Y-60784487D01*
X131262490Y-60712018D01*
X131262487Y-60712017D01*
X131262485Y-60712016D01*
X131199451Y-60695126D01*
X131148139Y-60661802D01*
X131126213Y-60604681D01*
X131142049Y-60545580D01*
X131189599Y-60507075D01*
X131225077Y-60500500D01*
X153251678Y-60500500D01*
X153309869Y-60519407D01*
G37*
%TD.AperFunction*%
%TD*%
M02*
