%TF.GenerationSoftware,KiCad,Pcbnew,10.0.3*%
%TF.CreationDate,2026-07-15T18:53:50-04:00*%
%TF.ProjectId,LauPythonCamera_Pt_Stack,4c617550-7974-4686-9f6e-43616d657261,rev?*%
%TF.SameCoordinates,Original*%
%TF.FileFunction,Drillmap*%
%TF.FilePolarity,Positive*%
%FSLAX45Y45*%
G04 Gerber Fmt 4.5, Leading zero omitted, Abs format (unit mm)*
G04 Created by KiCad (PCBNEW 10.0.3) date 2026-07-15 18:53:50*
%MOMM*%
%LPD*%
G01*
G04 APERTURE LIST*
%ADD10C,0.100000*%
%ADD11C,0.200000*%
G04 APERTURE END LIST*
D10*
X10000000Y-6150000D02*
X10000000Y-10350000D01*
X10000000Y-10350000D02*
X10150000Y-10500000D01*
X10150000Y-6000000D02*
X10000000Y-6150000D01*
X10150000Y-10500000D02*
X15350000Y-10500000D01*
X10360000Y-6250000D02*
G75*
G02*
X10140000Y-6250000I-110000J0D01*
G01*
X10140000Y-6250000D02*
G75*
G02*
X10360000Y-6250000I110000J0D01*
G01*
X10360000Y-10250000D02*
G75*
G02*
X10140000Y-10250000I-110000J0D01*
G01*
X10140000Y-10250000D02*
G75*
G02*
X10360000Y-10250000I110000J0D01*
G01*
X14950000Y-6950000D02*
X15100000Y-6800000D01*
X14950000Y-9550000D02*
X14950000Y-6950000D01*
X15100000Y-6800000D02*
X15350000Y-6800000D01*
X15100000Y-9700000D02*
X14950000Y-9550000D01*
X15360000Y-6250000D02*
G75*
G02*
X15140000Y-6250000I-110000J0D01*
G01*
X15140000Y-6250000D02*
G75*
G02*
X15360000Y-6250000I110000J0D01*
G01*
X15360000Y-10250000D02*
G75*
G02*
X15140000Y-10250000I-110000J0D01*
G01*
X15140000Y-10250000D02*
G75*
G02*
X15360000Y-10250000I110000J0D01*
G01*
X15350000Y-6000000D02*
X10150000Y-6000000D01*
X15350000Y-6800000D02*
X15500000Y-6650000D01*
X15350000Y-9700000D02*
X15100000Y-9700000D01*
X15350000Y-10500000D02*
X15500000Y-10350000D01*
X15500000Y-6150000D02*
X15350000Y-6000000D01*
X15500000Y-6650000D02*
X15500000Y-6150000D01*
X15500000Y-9850000D02*
X15350000Y-9700000D01*
X15500000Y-10350000D02*
X15500000Y-9850000D01*
D11*
D10*
X10480000Y-7395000D02*
X10510000Y-7425000D01*
X10510000Y-7395000D02*
X10480000Y-7425000D01*
X10515000Y-9392500D02*
X10545000Y-9422500D01*
X10545000Y-9392500D02*
X10515000Y-9422500D01*
X10570000Y-8430000D02*
X10600000Y-8460000D01*
X10600000Y-8430000D02*
X10570000Y-8460000D01*
X10602500Y-7790000D02*
X10632500Y-7820000D01*
X10632500Y-7790000D02*
X10602500Y-7820000D01*
X10930000Y-8902500D02*
X10960000Y-8932500D01*
X10960000Y-8902500D02*
X10930000Y-8932500D01*
X10952500Y-7305000D02*
X10982500Y-7335000D01*
X10982500Y-7305000D02*
X10952500Y-7335000D01*
X11087500Y-9022500D02*
X11117500Y-9052500D01*
X11117500Y-9022500D02*
X11087500Y-9052500D01*
X11600000Y-7165000D02*
X11630000Y-7195000D01*
X11630000Y-7165000D02*
X11600000Y-7195000D01*
X12162500Y-7002500D02*
X12192500Y-7032500D01*
X12192500Y-7002500D02*
X12162500Y-7032500D01*
X12235000Y-9922500D02*
X12265000Y-9952500D01*
X12265000Y-9922500D02*
X12235000Y-9952500D01*
X12297500Y-9802500D02*
X12327500Y-9832500D01*
X12327500Y-9802500D02*
X12297500Y-9832500D01*
X12702500Y-6112500D02*
X12732500Y-6142500D01*
X12732500Y-6112500D02*
X12702500Y-6142500D01*
X12785000Y-9345000D02*
X12815000Y-9375000D01*
X12815000Y-9345000D02*
X12785000Y-9375000D01*
X12785000Y-9845000D02*
X12815000Y-9875000D01*
X12815000Y-9845000D02*
X12785000Y-9875000D01*
X12820000Y-7727800D02*
X12850000Y-7757800D01*
X12850000Y-7727800D02*
X12820000Y-7757800D01*
X12865000Y-9485000D02*
X12895000Y-9515000D01*
X12895000Y-9485000D02*
X12865000Y-9515000D01*
X12872500Y-7822500D02*
X12902500Y-7852500D01*
X12902500Y-7822500D02*
X12872500Y-7852500D01*
X12872500Y-7935000D02*
X12902500Y-7965000D01*
X12902500Y-7935000D02*
X12872500Y-7965000D01*
X12872500Y-8025000D02*
X12902500Y-8055000D01*
X12902500Y-8025000D02*
X12872500Y-8055000D01*
X12872500Y-8430000D02*
X12902500Y-8460000D01*
X12902500Y-8430000D02*
X12872500Y-8460000D01*
X12875000Y-7622500D02*
X12905000Y-7652500D01*
X12905000Y-7622500D02*
X12875000Y-7652500D01*
X12905000Y-9735000D02*
X12935000Y-9765000D01*
X12935000Y-9735000D02*
X12905000Y-9765000D01*
X12945000Y-9345000D02*
X12975000Y-9375000D01*
X12975000Y-9345000D02*
X12945000Y-9375000D01*
X12947500Y-6362500D02*
X12977500Y-6392500D01*
X12977500Y-6362500D02*
X12947500Y-6392500D01*
X12982500Y-6112500D02*
X13012500Y-6142500D01*
X13012500Y-6112500D02*
X12982500Y-6142500D01*
X12985000Y-9595000D02*
X13015000Y-9625000D01*
X13015000Y-9595000D02*
X12985000Y-9625000D01*
X13006760Y-7417500D02*
X13036760Y-7447500D01*
X13036760Y-7417500D02*
X13006760Y-7447500D01*
X13026200Y-9360000D02*
X13056200Y-9390000D01*
X13056200Y-9360000D02*
X13026200Y-9390000D01*
X13028993Y-7524585D02*
X13058993Y-7554585D01*
X13058993Y-7524585D02*
X13028993Y-7554585D01*
X13035000Y-9835000D02*
X13065000Y-9865000D01*
X13065000Y-9835000D02*
X13035000Y-9865000D01*
X13073404Y-7373244D02*
X13103404Y-7403244D01*
X13103404Y-7373244D02*
X13073404Y-7403244D01*
X13090000Y-6107500D02*
X13120000Y-6137500D01*
X13120000Y-6107500D02*
X13090000Y-6137500D01*
X13127800Y-9360000D02*
X13157800Y-9390000D01*
X13157800Y-9360000D02*
X13127800Y-9390000D01*
X13175000Y-9425000D02*
X13205000Y-9455000D01*
X13205000Y-9425000D02*
X13175000Y-9455000D01*
X13175000Y-9585000D02*
X13205000Y-9615000D01*
X13205000Y-9585000D02*
X13175000Y-9615000D01*
X13195000Y-9835000D02*
X13225000Y-9865000D01*
X13225000Y-9835000D02*
X13195000Y-9865000D01*
X13217500Y-7820000D02*
X13247500Y-7850000D01*
X13247500Y-7820000D02*
X13217500Y-7850000D01*
X13225000Y-6635000D02*
X13255000Y-6665000D01*
X13255000Y-6635000D02*
X13225000Y-6665000D01*
X13345000Y-6390000D02*
X13375000Y-6420000D01*
X13375000Y-6390000D02*
X13345000Y-6420000D01*
X13355000Y-9835000D02*
X13385000Y-9865000D01*
X13385000Y-9835000D02*
X13355000Y-9865000D01*
X13375000Y-9425000D02*
X13405000Y-9455000D01*
X13405000Y-9425000D02*
X13375000Y-9455000D01*
X13375000Y-9585000D02*
X13405000Y-9615000D01*
X13405000Y-9585000D02*
X13375000Y-9615000D01*
X13432600Y-9360000D02*
X13462600Y-9390000D01*
X13462600Y-9360000D02*
X13432600Y-9390000D01*
X13460000Y-6637500D02*
X13490000Y-6667500D01*
X13490000Y-6637500D02*
X13460000Y-6667500D01*
X13525000Y-9835000D02*
X13555000Y-9865000D01*
X13555000Y-9835000D02*
X13525000Y-9865000D01*
X13534200Y-9360000D02*
X13564200Y-9390000D01*
X13564200Y-9360000D02*
X13534200Y-9390000D01*
X13595000Y-9415000D02*
X13625000Y-9445000D01*
X13625000Y-9415000D02*
X13595000Y-9445000D01*
X13685000Y-9835000D02*
X13715000Y-9865000D01*
X13715000Y-9835000D02*
X13685000Y-9865000D01*
X13785000Y-9425000D02*
X13815000Y-9455000D01*
X13815000Y-9425000D02*
X13785000Y-9455000D01*
X13839000Y-9360000D02*
X13869000Y-9390000D01*
X13869000Y-9360000D02*
X13839000Y-9390000D01*
X13871000Y-9865000D02*
X13901000Y-9895000D01*
X13901000Y-9865000D02*
X13871000Y-9895000D01*
X13939000Y-9865000D02*
X13969000Y-9895000D01*
X13969000Y-9865000D02*
X13939000Y-9895000D01*
X13940600Y-9360000D02*
X13970600Y-9390000D01*
X13970600Y-9360000D02*
X13940600Y-9390000D01*
X14111000Y-9865000D02*
X14141000Y-9895000D01*
X14141000Y-9865000D02*
X14111000Y-9895000D01*
X14179000Y-9865000D02*
X14209000Y-9895000D01*
X14209000Y-9865000D02*
X14179000Y-9895000D01*
X14215000Y-9345000D02*
X14245000Y-9375000D01*
X14245000Y-9345000D02*
X14215000Y-9375000D01*
X14351000Y-9865000D02*
X14381000Y-9895000D01*
X14381000Y-9865000D02*
X14351000Y-9895000D01*
X14375000Y-9345000D02*
X14405000Y-9375000D01*
X14405000Y-9345000D02*
X14375000Y-9375000D01*
X14419000Y-9865000D02*
X14449000Y-9895000D01*
X14449000Y-9865000D02*
X14419000Y-9895000D01*
X14595000Y-9345000D02*
X14625000Y-9375000D01*
X14625000Y-9345000D02*
X14595000Y-9375000D01*
X14595000Y-9625000D02*
X14625000Y-9655000D01*
X14625000Y-9625000D02*
X14595000Y-9655000D01*
X14675000Y-9485000D02*
X14705000Y-9515000D01*
X14705000Y-9485000D02*
X14675000Y-9515000D01*
X14675000Y-9765000D02*
X14705000Y-9795000D01*
X14705000Y-9765000D02*
X14675000Y-9795000D01*
X14755000Y-8485000D02*
X14785000Y-8515000D01*
X14785000Y-8485000D02*
X14755000Y-8515000D01*
X14835000Y-8485000D02*
X14865000Y-8515000D01*
X14865000Y-8485000D02*
X14835000Y-8515000D01*
X10360000Y-7862500D02*
G75*
G02*
X10320000Y-7862500I-20000J0D01*
G01*
X10320000Y-7862500D02*
G75*
G02*
X10360000Y-7862500I20000J0D01*
G01*
X10470000Y-8420000D02*
G75*
G02*
X10430000Y-8420000I-20000J0D01*
G01*
X10430000Y-8420000D02*
G75*
G02*
X10470000Y-8420000I20000J0D01*
G01*
X10615000Y-9040000D02*
G75*
G02*
X10575000Y-9040000I-20000J0D01*
G01*
X10575000Y-9040000D02*
G75*
G02*
X10615000Y-9040000I20000J0D01*
G01*
X10655000Y-7545000D02*
G75*
G02*
X10615000Y-7545000I-20000J0D01*
G01*
X10615000Y-7545000D02*
G75*
G02*
X10655000Y-7545000I20000J0D01*
G01*
X10990000Y-9425000D02*
G75*
G02*
X10950000Y-9425000I-20000J0D01*
G01*
X10950000Y-9425000D02*
G75*
G02*
X10990000Y-9425000I20000J0D01*
G01*
X11102500Y-9462500D02*
G75*
G02*
X11062500Y-9462500I-20000J0D01*
G01*
X11062500Y-9462500D02*
G75*
G02*
X11102500Y-9462500I20000J0D01*
G01*
X11180000Y-10100000D02*
G75*
G02*
X11140000Y-10100000I-20000J0D01*
G01*
X11140000Y-10100000D02*
G75*
G02*
X11180000Y-10100000I20000J0D01*
G01*
X11190000Y-6990000D02*
G75*
G02*
X11150000Y-6990000I-20000J0D01*
G01*
X11150000Y-6990000D02*
G75*
G02*
X11190000Y-6990000I20000J0D01*
G01*
X11620000Y-9371000D02*
G75*
G02*
X11580000Y-9371000I-20000J0D01*
G01*
X11580000Y-9371000D02*
G75*
G02*
X11620000Y-9371000I20000J0D01*
G01*
X11672500Y-7975000D02*
G75*
G02*
X11632500Y-7975000I-20000J0D01*
G01*
X11632500Y-7975000D02*
G75*
G02*
X11672500Y-7975000I20000J0D01*
G01*
X11675000Y-8307500D02*
G75*
G02*
X11635000Y-8307500I-20000J0D01*
G01*
X11635000Y-8307500D02*
G75*
G02*
X11675000Y-8307500I20000J0D01*
G01*
X11825000Y-8457500D02*
G75*
G02*
X11785000Y-8457500I-20000J0D01*
G01*
X11785000Y-8457500D02*
G75*
G02*
X11825000Y-8457500I20000J0D01*
G01*
X11912500Y-6855000D02*
G75*
G02*
X11872500Y-6855000I-20000J0D01*
G01*
X11872500Y-6855000D02*
G75*
G02*
X11912500Y-6855000I20000J0D01*
G01*
X11912500Y-7395000D02*
G75*
G02*
X11872500Y-7395000I-20000J0D01*
G01*
X11872500Y-7395000D02*
G75*
G02*
X11912500Y-7395000I20000J0D01*
G01*
X11940000Y-7697500D02*
G75*
G02*
X11900000Y-7697500I-20000J0D01*
G01*
X11900000Y-7697500D02*
G75*
G02*
X11940000Y-7697500I20000J0D01*
G01*
X11952500Y-8700000D02*
G75*
G02*
X11912500Y-8700000I-20000J0D01*
G01*
X11912500Y-8700000D02*
G75*
G02*
X11952500Y-8700000I20000J0D01*
G01*
X11960015Y-8302515D02*
G75*
G02*
X11920015Y-8302515I-20000J0D01*
G01*
X11920015Y-8302515D02*
G75*
G02*
X11960015Y-8302515I20000J0D01*
G01*
X11972500Y-7505000D02*
G75*
G02*
X11932500Y-7505000I-20000J0D01*
G01*
X11932500Y-7505000D02*
G75*
G02*
X11972500Y-7505000I20000J0D01*
G01*
X11975000Y-7900000D02*
G75*
G02*
X11935000Y-7900000I-20000J0D01*
G01*
X11935000Y-7900000D02*
G75*
G02*
X11975000Y-7900000I20000J0D01*
G01*
X12462500Y-8920000D02*
G75*
G02*
X12422500Y-8920000I-20000J0D01*
G01*
X12422500Y-8920000D02*
G75*
G02*
X12462500Y-8920000I20000J0D01*
G01*
X12892500Y-8147500D02*
G75*
G02*
X12852500Y-8147500I-20000J0D01*
G01*
X12852500Y-8147500D02*
G75*
G02*
X12892500Y-8147500I20000J0D01*
G01*
X13005000Y-8250800D02*
G75*
G02*
X12965000Y-8250800I-20000J0D01*
G01*
X12965000Y-8250800D02*
G75*
G02*
X13005000Y-8250800I20000J0D01*
G01*
X13369896Y-7507396D02*
G75*
G02*
X13329896Y-7507396I-20000J0D01*
G01*
X13329896Y-7507396D02*
G75*
G02*
X13369896Y-7507396I20000J0D01*
G01*
X13570000Y-7980000D02*
G75*
G02*
X13530000Y-7980000I-20000J0D01*
G01*
X13530000Y-7980000D02*
G75*
G02*
X13570000Y-7980000I20000J0D01*
G01*
X13670800Y-7741700D02*
G75*
G02*
X13630800Y-7741700I-20000J0D01*
G01*
X13630800Y-7741700D02*
G75*
G02*
X13670800Y-7741700I20000J0D01*
G01*
X13835000Y-8755000D02*
G75*
G02*
X13795000Y-8755000I-20000J0D01*
G01*
X13795000Y-8755000D02*
G75*
G02*
X13835000Y-8755000I20000J0D01*
G01*
X13917500Y-7452500D02*
G75*
G02*
X13877500Y-7452500I-20000J0D01*
G01*
X13877500Y-7452500D02*
G75*
G02*
X13917500Y-7452500I20000J0D01*
G01*
X13950000Y-7947500D02*
G75*
G02*
X13910000Y-7947500I-20000J0D01*
G01*
X13910000Y-7947500D02*
G75*
G02*
X13950000Y-7947500I20000J0D01*
G01*
X13955000Y-8605000D02*
G75*
G02*
X13915000Y-8605000I-20000J0D01*
G01*
X13915000Y-8605000D02*
G75*
G02*
X13955000Y-8605000I20000J0D01*
G01*
X13992500Y-6850000D02*
G75*
G02*
X13952500Y-6850000I-20000J0D01*
G01*
X13952500Y-6850000D02*
G75*
G02*
X13992500Y-6850000I20000J0D01*
G01*
X14232900Y-7492100D02*
G75*
G02*
X14192900Y-7492100I-20000J0D01*
G01*
X14192900Y-7492100D02*
G75*
G02*
X14232900Y-7492100I20000J0D01*
G01*
X14282500Y-7382500D02*
G75*
G02*
X14242500Y-7382500I-20000J0D01*
G01*
X14242500Y-7382500D02*
G75*
G02*
X14282500Y-7382500I20000J0D01*
G01*
D11*
X10255777Y-10816484D02*
X10255777Y-10616484D01*
X10255777Y-10616484D02*
X10303396Y-10616484D01*
X10303396Y-10616484D02*
X10331967Y-10626008D01*
X10331967Y-10626008D02*
X10351015Y-10645055D01*
X10351015Y-10645055D02*
X10360539Y-10664103D01*
X10360539Y-10664103D02*
X10370063Y-10702198D01*
X10370063Y-10702198D02*
X10370063Y-10730770D01*
X10370063Y-10730770D02*
X10360539Y-10768865D01*
X10360539Y-10768865D02*
X10351015Y-10787912D01*
X10351015Y-10787912D02*
X10331967Y-10806960D01*
X10331967Y-10806960D02*
X10303396Y-10816484D01*
X10303396Y-10816484D02*
X10255777Y-10816484D01*
X10455777Y-10816484D02*
X10455777Y-10683150D01*
X10455777Y-10721246D02*
X10465301Y-10702198D01*
X10465301Y-10702198D02*
X10474824Y-10692674D01*
X10474824Y-10692674D02*
X10493872Y-10683150D01*
X10493872Y-10683150D02*
X10512920Y-10683150D01*
X10579586Y-10816484D02*
X10579586Y-10683150D01*
X10579586Y-10616484D02*
X10570063Y-10626008D01*
X10570063Y-10626008D02*
X10579586Y-10635531D01*
X10579586Y-10635531D02*
X10589110Y-10626008D01*
X10589110Y-10626008D02*
X10579586Y-10616484D01*
X10579586Y-10616484D02*
X10579586Y-10635531D01*
X10703396Y-10816484D02*
X10684348Y-10806960D01*
X10684348Y-10806960D02*
X10674824Y-10787912D01*
X10674824Y-10787912D02*
X10674824Y-10616484D01*
X10808158Y-10816484D02*
X10789110Y-10806960D01*
X10789110Y-10806960D02*
X10779586Y-10787912D01*
X10779586Y-10787912D02*
X10779586Y-10616484D01*
X11036729Y-10816484D02*
X11036729Y-10616484D01*
X11036729Y-10616484D02*
X11103396Y-10759341D01*
X11103396Y-10759341D02*
X11170063Y-10616484D01*
X11170063Y-10616484D02*
X11170063Y-10816484D01*
X11351015Y-10816484D02*
X11351015Y-10711722D01*
X11351015Y-10711722D02*
X11341491Y-10692674D01*
X11341491Y-10692674D02*
X11322443Y-10683150D01*
X11322443Y-10683150D02*
X11284348Y-10683150D01*
X11284348Y-10683150D02*
X11265301Y-10692674D01*
X11351015Y-10806960D02*
X11331967Y-10816484D01*
X11331967Y-10816484D02*
X11284348Y-10816484D01*
X11284348Y-10816484D02*
X11265301Y-10806960D01*
X11265301Y-10806960D02*
X11255777Y-10787912D01*
X11255777Y-10787912D02*
X11255777Y-10768865D01*
X11255777Y-10768865D02*
X11265301Y-10749817D01*
X11265301Y-10749817D02*
X11284348Y-10740293D01*
X11284348Y-10740293D02*
X11331967Y-10740293D01*
X11331967Y-10740293D02*
X11351015Y-10730770D01*
X11446253Y-10683150D02*
X11446253Y-10883150D01*
X11446253Y-10692674D02*
X11465301Y-10683150D01*
X11465301Y-10683150D02*
X11503396Y-10683150D01*
X11503396Y-10683150D02*
X11522443Y-10692674D01*
X11522443Y-10692674D02*
X11531967Y-10702198D01*
X11531967Y-10702198D02*
X11541491Y-10721246D01*
X11541491Y-10721246D02*
X11541491Y-10778389D01*
X11541491Y-10778389D02*
X11531967Y-10797436D01*
X11531967Y-10797436D02*
X11522443Y-10806960D01*
X11522443Y-10806960D02*
X11503396Y-10816484D01*
X11503396Y-10816484D02*
X11465301Y-10816484D01*
X11465301Y-10816484D02*
X11446253Y-10806960D01*
X11627205Y-10797436D02*
X11636729Y-10806960D01*
X11636729Y-10806960D02*
X11627205Y-10816484D01*
X11627205Y-10816484D02*
X11617682Y-10806960D01*
X11617682Y-10806960D02*
X11627205Y-10797436D01*
X11627205Y-10797436D02*
X11627205Y-10816484D01*
X11627205Y-10692674D02*
X11636729Y-10702198D01*
X11636729Y-10702198D02*
X11627205Y-10711722D01*
X11627205Y-10711722D02*
X11617682Y-10702198D01*
X11617682Y-10702198D02*
X11627205Y-10692674D01*
X11627205Y-10692674D02*
X11627205Y-10711722D01*
D10*
X9965000Y-11130000D02*
X9995000Y-11160000D01*
X9995000Y-11130000D02*
X9965000Y-11160000D01*
D11*
X10293872Y-11036484D02*
X10312920Y-11036484D01*
X10312920Y-11036484D02*
X10331967Y-11046008D01*
X10331967Y-11046008D02*
X10341491Y-11055531D01*
X10341491Y-11055531D02*
X10351015Y-11074579D01*
X10351015Y-11074579D02*
X10360539Y-11112674D01*
X10360539Y-11112674D02*
X10360539Y-11160293D01*
X10360539Y-11160293D02*
X10351015Y-11198388D01*
X10351015Y-11198388D02*
X10341491Y-11217436D01*
X10341491Y-11217436D02*
X10331967Y-11226960D01*
X10331967Y-11226960D02*
X10312920Y-11236484D01*
X10312920Y-11236484D02*
X10293872Y-11236484D01*
X10293872Y-11236484D02*
X10274824Y-11226960D01*
X10274824Y-11226960D02*
X10265301Y-11217436D01*
X10265301Y-11217436D02*
X10255777Y-11198388D01*
X10255777Y-11198388D02*
X10246253Y-11160293D01*
X10246253Y-11160293D02*
X10246253Y-11112674D01*
X10246253Y-11112674D02*
X10255777Y-11074579D01*
X10255777Y-11074579D02*
X10265301Y-11055531D01*
X10265301Y-11055531D02*
X10274824Y-11046008D01*
X10274824Y-11046008D02*
X10293872Y-11036484D01*
X10446253Y-11217436D02*
X10455777Y-11226960D01*
X10455777Y-11226960D02*
X10446253Y-11236484D01*
X10446253Y-11236484D02*
X10436729Y-11226960D01*
X10436729Y-11226960D02*
X10446253Y-11217436D01*
X10446253Y-11217436D02*
X10446253Y-11236484D01*
X10522444Y-11036484D02*
X10646253Y-11036484D01*
X10646253Y-11036484D02*
X10579586Y-11112674D01*
X10579586Y-11112674D02*
X10608158Y-11112674D01*
X10608158Y-11112674D02*
X10627205Y-11122198D01*
X10627205Y-11122198D02*
X10636729Y-11131722D01*
X10636729Y-11131722D02*
X10646253Y-11150770D01*
X10646253Y-11150770D02*
X10646253Y-11198388D01*
X10646253Y-11198388D02*
X10636729Y-11217436D01*
X10636729Y-11217436D02*
X10627205Y-11226960D01*
X10627205Y-11226960D02*
X10608158Y-11236484D01*
X10608158Y-11236484D02*
X10551015Y-11236484D01*
X10551015Y-11236484D02*
X10531967Y-11226960D01*
X10531967Y-11226960D02*
X10522444Y-11217436D01*
X10770063Y-11036484D02*
X10789110Y-11036484D01*
X10789110Y-11036484D02*
X10808158Y-11046008D01*
X10808158Y-11046008D02*
X10817682Y-11055531D01*
X10817682Y-11055531D02*
X10827205Y-11074579D01*
X10827205Y-11074579D02*
X10836729Y-11112674D01*
X10836729Y-11112674D02*
X10836729Y-11160293D01*
X10836729Y-11160293D02*
X10827205Y-11198388D01*
X10827205Y-11198388D02*
X10817682Y-11217436D01*
X10817682Y-11217436D02*
X10808158Y-11226960D01*
X10808158Y-11226960D02*
X10789110Y-11236484D01*
X10789110Y-11236484D02*
X10770063Y-11236484D01*
X10770063Y-11236484D02*
X10751015Y-11226960D01*
X10751015Y-11226960D02*
X10741491Y-11217436D01*
X10741491Y-11217436D02*
X10731967Y-11198388D01*
X10731967Y-11198388D02*
X10722444Y-11160293D01*
X10722444Y-11160293D02*
X10722444Y-11112674D01*
X10722444Y-11112674D02*
X10731967Y-11074579D01*
X10731967Y-11074579D02*
X10741491Y-11055531D01*
X10741491Y-11055531D02*
X10751015Y-11046008D01*
X10751015Y-11046008D02*
X10770063Y-11036484D01*
X10960539Y-11036484D02*
X10979586Y-11036484D01*
X10979586Y-11036484D02*
X10998634Y-11046008D01*
X10998634Y-11046008D02*
X11008158Y-11055531D01*
X11008158Y-11055531D02*
X11017682Y-11074579D01*
X11017682Y-11074579D02*
X11027205Y-11112674D01*
X11027205Y-11112674D02*
X11027205Y-11160293D01*
X11027205Y-11160293D02*
X11017682Y-11198388D01*
X11017682Y-11198388D02*
X11008158Y-11217436D01*
X11008158Y-11217436D02*
X10998634Y-11226960D01*
X10998634Y-11226960D02*
X10979586Y-11236484D01*
X10979586Y-11236484D02*
X10960539Y-11236484D01*
X10960539Y-11236484D02*
X10941491Y-11226960D01*
X10941491Y-11226960D02*
X10931967Y-11217436D01*
X10931967Y-11217436D02*
X10922444Y-11198388D01*
X10922444Y-11198388D02*
X10912920Y-11160293D01*
X10912920Y-11160293D02*
X10912920Y-11112674D01*
X10912920Y-11112674D02*
X10922444Y-11074579D01*
X10922444Y-11074579D02*
X10931967Y-11055531D01*
X10931967Y-11055531D02*
X10941491Y-11046008D01*
X10941491Y-11046008D02*
X10960539Y-11036484D01*
X11112920Y-11236484D02*
X11112920Y-11103150D01*
X11112920Y-11122198D02*
X11122444Y-11112674D01*
X11122444Y-11112674D02*
X11141491Y-11103150D01*
X11141491Y-11103150D02*
X11170063Y-11103150D01*
X11170063Y-11103150D02*
X11189110Y-11112674D01*
X11189110Y-11112674D02*
X11198634Y-11131722D01*
X11198634Y-11131722D02*
X11198634Y-11236484D01*
X11198634Y-11131722D02*
X11208158Y-11112674D01*
X11208158Y-11112674D02*
X11227205Y-11103150D01*
X11227205Y-11103150D02*
X11255777Y-11103150D01*
X11255777Y-11103150D02*
X11274824Y-11112674D01*
X11274824Y-11112674D02*
X11284348Y-11131722D01*
X11284348Y-11131722D02*
X11284348Y-11236484D01*
X11379586Y-11236484D02*
X11379586Y-11103150D01*
X11379586Y-11122198D02*
X11389110Y-11112674D01*
X11389110Y-11112674D02*
X11408158Y-11103150D01*
X11408158Y-11103150D02*
X11436729Y-11103150D01*
X11436729Y-11103150D02*
X11455777Y-11112674D01*
X11455777Y-11112674D02*
X11465301Y-11131722D01*
X11465301Y-11131722D02*
X11465301Y-11236484D01*
X11465301Y-11131722D02*
X11474824Y-11112674D01*
X11474824Y-11112674D02*
X11493872Y-11103150D01*
X11493872Y-11103150D02*
X11522443Y-11103150D01*
X11522443Y-11103150D02*
X11541491Y-11112674D01*
X11541491Y-11112674D02*
X11551015Y-11131722D01*
X11551015Y-11131722D02*
X11551015Y-11236484D01*
X11941491Y-11026960D02*
X11770063Y-11284103D01*
X12198634Y-11036484D02*
X12217682Y-11036484D01*
X12217682Y-11036484D02*
X12236729Y-11046008D01*
X12236729Y-11046008D02*
X12246253Y-11055531D01*
X12246253Y-11055531D02*
X12255777Y-11074579D01*
X12255777Y-11074579D02*
X12265301Y-11112674D01*
X12265301Y-11112674D02*
X12265301Y-11160293D01*
X12265301Y-11160293D02*
X12255777Y-11198388D01*
X12255777Y-11198388D02*
X12246253Y-11217436D01*
X12246253Y-11217436D02*
X12236729Y-11226960D01*
X12236729Y-11226960D02*
X12217682Y-11236484D01*
X12217682Y-11236484D02*
X12198634Y-11236484D01*
X12198634Y-11236484D02*
X12179586Y-11226960D01*
X12179586Y-11226960D02*
X12170063Y-11217436D01*
X12170063Y-11217436D02*
X12160539Y-11198388D01*
X12160539Y-11198388D02*
X12151015Y-11160293D01*
X12151015Y-11160293D02*
X12151015Y-11112674D01*
X12151015Y-11112674D02*
X12160539Y-11074579D01*
X12160539Y-11074579D02*
X12170063Y-11055531D01*
X12170063Y-11055531D02*
X12179586Y-11046008D01*
X12179586Y-11046008D02*
X12198634Y-11036484D01*
X12351015Y-11217436D02*
X12360539Y-11226960D01*
X12360539Y-11226960D02*
X12351015Y-11236484D01*
X12351015Y-11236484D02*
X12341491Y-11226960D01*
X12341491Y-11226960D02*
X12351015Y-11217436D01*
X12351015Y-11217436D02*
X12351015Y-11236484D01*
X12484348Y-11036484D02*
X12503396Y-11036484D01*
X12503396Y-11036484D02*
X12522444Y-11046008D01*
X12522444Y-11046008D02*
X12531967Y-11055531D01*
X12531967Y-11055531D02*
X12541491Y-11074579D01*
X12541491Y-11074579D02*
X12551015Y-11112674D01*
X12551015Y-11112674D02*
X12551015Y-11160293D01*
X12551015Y-11160293D02*
X12541491Y-11198388D01*
X12541491Y-11198388D02*
X12531967Y-11217436D01*
X12531967Y-11217436D02*
X12522444Y-11226960D01*
X12522444Y-11226960D02*
X12503396Y-11236484D01*
X12503396Y-11236484D02*
X12484348Y-11236484D01*
X12484348Y-11236484D02*
X12465301Y-11226960D01*
X12465301Y-11226960D02*
X12455777Y-11217436D01*
X12455777Y-11217436D02*
X12446253Y-11198388D01*
X12446253Y-11198388D02*
X12436729Y-11160293D01*
X12436729Y-11160293D02*
X12436729Y-11112674D01*
X12436729Y-11112674D02*
X12446253Y-11074579D01*
X12446253Y-11074579D02*
X12455777Y-11055531D01*
X12455777Y-11055531D02*
X12465301Y-11046008D01*
X12465301Y-11046008D02*
X12484348Y-11036484D01*
X12741491Y-11236484D02*
X12627206Y-11236484D01*
X12684348Y-11236484D02*
X12684348Y-11036484D01*
X12684348Y-11036484D02*
X12665301Y-11065055D01*
X12665301Y-11065055D02*
X12646253Y-11084103D01*
X12646253Y-11084103D02*
X12627206Y-11093627D01*
X12931967Y-11236484D02*
X12817682Y-11236484D01*
X12874825Y-11236484D02*
X12874825Y-11036484D01*
X12874825Y-11036484D02*
X12855777Y-11065055D01*
X12855777Y-11065055D02*
X12836729Y-11084103D01*
X12836729Y-11084103D02*
X12817682Y-11093627D01*
X13046253Y-11122198D02*
X13027206Y-11112674D01*
X13027206Y-11112674D02*
X13017682Y-11103150D01*
X13017682Y-11103150D02*
X13008158Y-11084103D01*
X13008158Y-11084103D02*
X13008158Y-11074579D01*
X13008158Y-11074579D02*
X13017682Y-11055531D01*
X13017682Y-11055531D02*
X13027206Y-11046008D01*
X13027206Y-11046008D02*
X13046253Y-11036484D01*
X13046253Y-11036484D02*
X13084348Y-11036484D01*
X13084348Y-11036484D02*
X13103396Y-11046008D01*
X13103396Y-11046008D02*
X13112920Y-11055531D01*
X13112920Y-11055531D02*
X13122444Y-11074579D01*
X13122444Y-11074579D02*
X13122444Y-11084103D01*
X13122444Y-11084103D02*
X13112920Y-11103150D01*
X13112920Y-11103150D02*
X13103396Y-11112674D01*
X13103396Y-11112674D02*
X13084348Y-11122198D01*
X13084348Y-11122198D02*
X13046253Y-11122198D01*
X13046253Y-11122198D02*
X13027206Y-11131722D01*
X13027206Y-11131722D02*
X13017682Y-11141246D01*
X13017682Y-11141246D02*
X13008158Y-11160293D01*
X13008158Y-11160293D02*
X13008158Y-11198388D01*
X13008158Y-11198388D02*
X13017682Y-11217436D01*
X13017682Y-11217436D02*
X13027206Y-11226960D01*
X13027206Y-11226960D02*
X13046253Y-11236484D01*
X13046253Y-11236484D02*
X13084348Y-11236484D01*
X13084348Y-11236484D02*
X13103396Y-11226960D01*
X13103396Y-11226960D02*
X13112920Y-11217436D01*
X13112920Y-11217436D02*
X13122444Y-11198388D01*
X13122444Y-11198388D02*
X13122444Y-11160293D01*
X13122444Y-11160293D02*
X13112920Y-11141246D01*
X13112920Y-11141246D02*
X13103396Y-11131722D01*
X13103396Y-11131722D02*
X13084348Y-11122198D01*
X13198634Y-11036484D02*
X13198634Y-11074579D01*
X13274825Y-11036484D02*
X13274825Y-11074579D01*
X13570063Y-11312674D02*
X13560539Y-11303150D01*
X13560539Y-11303150D02*
X13541491Y-11274579D01*
X13541491Y-11274579D02*
X13531968Y-11255531D01*
X13531968Y-11255531D02*
X13522444Y-11226960D01*
X13522444Y-11226960D02*
X13512920Y-11179341D01*
X13512920Y-11179341D02*
X13512920Y-11141246D01*
X13512920Y-11141246D02*
X13522444Y-11093627D01*
X13522444Y-11093627D02*
X13531968Y-11065055D01*
X13531968Y-11065055D02*
X13541491Y-11046008D01*
X13541491Y-11046008D02*
X13560539Y-11017436D01*
X13560539Y-11017436D02*
X13570063Y-11007912D01*
X13731968Y-11036484D02*
X13693872Y-11036484D01*
X13693872Y-11036484D02*
X13674825Y-11046008D01*
X13674825Y-11046008D02*
X13665301Y-11055531D01*
X13665301Y-11055531D02*
X13646253Y-11084103D01*
X13646253Y-11084103D02*
X13636729Y-11122198D01*
X13636729Y-11122198D02*
X13636729Y-11198388D01*
X13636729Y-11198388D02*
X13646253Y-11217436D01*
X13646253Y-11217436D02*
X13655777Y-11226960D01*
X13655777Y-11226960D02*
X13674825Y-11236484D01*
X13674825Y-11236484D02*
X13712920Y-11236484D01*
X13712920Y-11236484D02*
X13731968Y-11226960D01*
X13731968Y-11226960D02*
X13741491Y-11217436D01*
X13741491Y-11217436D02*
X13751015Y-11198388D01*
X13751015Y-11198388D02*
X13751015Y-11150770D01*
X13751015Y-11150770D02*
X13741491Y-11131722D01*
X13741491Y-11131722D02*
X13731968Y-11122198D01*
X13731968Y-11122198D02*
X13712920Y-11112674D01*
X13712920Y-11112674D02*
X13674825Y-11112674D01*
X13674825Y-11112674D02*
X13655777Y-11122198D01*
X13655777Y-11122198D02*
X13646253Y-11131722D01*
X13646253Y-11131722D02*
X13636729Y-11150770D01*
X13931968Y-11036484D02*
X13836729Y-11036484D01*
X13836729Y-11036484D02*
X13827206Y-11131722D01*
X13827206Y-11131722D02*
X13836729Y-11122198D01*
X13836729Y-11122198D02*
X13855777Y-11112674D01*
X13855777Y-11112674D02*
X13903396Y-11112674D01*
X13903396Y-11112674D02*
X13922444Y-11122198D01*
X13922444Y-11122198D02*
X13931968Y-11131722D01*
X13931968Y-11131722D02*
X13941491Y-11150770D01*
X13941491Y-11150770D02*
X13941491Y-11198388D01*
X13941491Y-11198388D02*
X13931968Y-11217436D01*
X13931968Y-11217436D02*
X13922444Y-11226960D01*
X13922444Y-11226960D02*
X13903396Y-11236484D01*
X13903396Y-11236484D02*
X13855777Y-11236484D01*
X13855777Y-11236484D02*
X13836729Y-11226960D01*
X13836729Y-11226960D02*
X13827206Y-11217436D01*
X14179587Y-11236484D02*
X14179587Y-11036484D01*
X14265301Y-11236484D02*
X14265301Y-11131722D01*
X14265301Y-11131722D02*
X14255777Y-11112674D01*
X14255777Y-11112674D02*
X14236730Y-11103150D01*
X14236730Y-11103150D02*
X14208158Y-11103150D01*
X14208158Y-11103150D02*
X14189110Y-11112674D01*
X14189110Y-11112674D02*
X14179587Y-11122198D01*
X14389110Y-11236484D02*
X14370063Y-11226960D01*
X14370063Y-11226960D02*
X14360539Y-11217436D01*
X14360539Y-11217436D02*
X14351015Y-11198388D01*
X14351015Y-11198388D02*
X14351015Y-11141246D01*
X14351015Y-11141246D02*
X14360539Y-11122198D01*
X14360539Y-11122198D02*
X14370063Y-11112674D01*
X14370063Y-11112674D02*
X14389110Y-11103150D01*
X14389110Y-11103150D02*
X14417682Y-11103150D01*
X14417682Y-11103150D02*
X14436730Y-11112674D01*
X14436730Y-11112674D02*
X14446253Y-11122198D01*
X14446253Y-11122198D02*
X14455777Y-11141246D01*
X14455777Y-11141246D02*
X14455777Y-11198388D01*
X14455777Y-11198388D02*
X14446253Y-11217436D01*
X14446253Y-11217436D02*
X14436730Y-11226960D01*
X14436730Y-11226960D02*
X14417682Y-11236484D01*
X14417682Y-11236484D02*
X14389110Y-11236484D01*
X14570063Y-11236484D02*
X14551015Y-11226960D01*
X14551015Y-11226960D02*
X14541491Y-11207912D01*
X14541491Y-11207912D02*
X14541491Y-11036484D01*
X14722444Y-11226960D02*
X14703396Y-11236484D01*
X14703396Y-11236484D02*
X14665301Y-11236484D01*
X14665301Y-11236484D02*
X14646253Y-11226960D01*
X14646253Y-11226960D02*
X14636730Y-11207912D01*
X14636730Y-11207912D02*
X14636730Y-11131722D01*
X14636730Y-11131722D02*
X14646253Y-11112674D01*
X14646253Y-11112674D02*
X14665301Y-11103150D01*
X14665301Y-11103150D02*
X14703396Y-11103150D01*
X14703396Y-11103150D02*
X14722444Y-11112674D01*
X14722444Y-11112674D02*
X14731968Y-11131722D01*
X14731968Y-11131722D02*
X14731968Y-11150770D01*
X14731968Y-11150770D02*
X14636730Y-11169817D01*
X14808158Y-11226960D02*
X14827206Y-11236484D01*
X14827206Y-11236484D02*
X14865301Y-11236484D01*
X14865301Y-11236484D02*
X14884349Y-11226960D01*
X14884349Y-11226960D02*
X14893872Y-11207912D01*
X14893872Y-11207912D02*
X14893872Y-11198388D01*
X14893872Y-11198388D02*
X14884349Y-11179341D01*
X14884349Y-11179341D02*
X14865301Y-11169817D01*
X14865301Y-11169817D02*
X14836730Y-11169817D01*
X14836730Y-11169817D02*
X14817682Y-11160293D01*
X14817682Y-11160293D02*
X14808158Y-11141246D01*
X14808158Y-11141246D02*
X14808158Y-11131722D01*
X14808158Y-11131722D02*
X14817682Y-11112674D01*
X14817682Y-11112674D02*
X14836730Y-11103150D01*
X14836730Y-11103150D02*
X14865301Y-11103150D01*
X14865301Y-11103150D02*
X14884349Y-11112674D01*
X14960539Y-11312674D02*
X14970063Y-11303150D01*
X14970063Y-11303150D02*
X14989111Y-11274579D01*
X14989111Y-11274579D02*
X14998634Y-11255531D01*
X14998634Y-11255531D02*
X15008158Y-11226960D01*
X15008158Y-11226960D02*
X15017682Y-11179341D01*
X15017682Y-11179341D02*
X15017682Y-11141246D01*
X15017682Y-11141246D02*
X15008158Y-11093627D01*
X15008158Y-11093627D02*
X14998634Y-11065055D01*
X14998634Y-11065055D02*
X14989111Y-11046008D01*
X14989111Y-11046008D02*
X14970063Y-11017436D01*
X14970063Y-11017436D02*
X14960539Y-11007912D01*
D10*
X9995000Y-11409000D02*
G75*
G02*
X9955000Y-11409000I-20000J0D01*
G01*
X9955000Y-11409000D02*
G75*
G02*
X9995000Y-11409000I20000J0D01*
G01*
D11*
X10293872Y-11300484D02*
X10312920Y-11300484D01*
X10312920Y-11300484D02*
X10331967Y-11310008D01*
X10331967Y-11310008D02*
X10341491Y-11319531D01*
X10341491Y-11319531D02*
X10351015Y-11338579D01*
X10351015Y-11338579D02*
X10360539Y-11376674D01*
X10360539Y-11376674D02*
X10360539Y-11424293D01*
X10360539Y-11424293D02*
X10351015Y-11462388D01*
X10351015Y-11462388D02*
X10341491Y-11481436D01*
X10341491Y-11481436D02*
X10331967Y-11490960D01*
X10331967Y-11490960D02*
X10312920Y-11500484D01*
X10312920Y-11500484D02*
X10293872Y-11500484D01*
X10293872Y-11500484D02*
X10274824Y-11490960D01*
X10274824Y-11490960D02*
X10265301Y-11481436D01*
X10265301Y-11481436D02*
X10255777Y-11462388D01*
X10255777Y-11462388D02*
X10246253Y-11424293D01*
X10246253Y-11424293D02*
X10246253Y-11376674D01*
X10246253Y-11376674D02*
X10255777Y-11338579D01*
X10255777Y-11338579D02*
X10265301Y-11319531D01*
X10265301Y-11319531D02*
X10274824Y-11310008D01*
X10274824Y-11310008D02*
X10293872Y-11300484D01*
X10446253Y-11481436D02*
X10455777Y-11490960D01*
X10455777Y-11490960D02*
X10446253Y-11500484D01*
X10446253Y-11500484D02*
X10436729Y-11490960D01*
X10436729Y-11490960D02*
X10446253Y-11481436D01*
X10446253Y-11481436D02*
X10446253Y-11500484D01*
X10627205Y-11367150D02*
X10627205Y-11500484D01*
X10579586Y-11290960D02*
X10531967Y-11433817D01*
X10531967Y-11433817D02*
X10655777Y-11433817D01*
X10770063Y-11300484D02*
X10789110Y-11300484D01*
X10789110Y-11300484D02*
X10808158Y-11310008D01*
X10808158Y-11310008D02*
X10817682Y-11319531D01*
X10817682Y-11319531D02*
X10827205Y-11338579D01*
X10827205Y-11338579D02*
X10836729Y-11376674D01*
X10836729Y-11376674D02*
X10836729Y-11424293D01*
X10836729Y-11424293D02*
X10827205Y-11462388D01*
X10827205Y-11462388D02*
X10817682Y-11481436D01*
X10817682Y-11481436D02*
X10808158Y-11490960D01*
X10808158Y-11490960D02*
X10789110Y-11500484D01*
X10789110Y-11500484D02*
X10770063Y-11500484D01*
X10770063Y-11500484D02*
X10751015Y-11490960D01*
X10751015Y-11490960D02*
X10741491Y-11481436D01*
X10741491Y-11481436D02*
X10731967Y-11462388D01*
X10731967Y-11462388D02*
X10722444Y-11424293D01*
X10722444Y-11424293D02*
X10722444Y-11376674D01*
X10722444Y-11376674D02*
X10731967Y-11338579D01*
X10731967Y-11338579D02*
X10741491Y-11319531D01*
X10741491Y-11319531D02*
X10751015Y-11310008D01*
X10751015Y-11310008D02*
X10770063Y-11300484D01*
X10960539Y-11300484D02*
X10979586Y-11300484D01*
X10979586Y-11300484D02*
X10998634Y-11310008D01*
X10998634Y-11310008D02*
X11008158Y-11319531D01*
X11008158Y-11319531D02*
X11017682Y-11338579D01*
X11017682Y-11338579D02*
X11027205Y-11376674D01*
X11027205Y-11376674D02*
X11027205Y-11424293D01*
X11027205Y-11424293D02*
X11017682Y-11462388D01*
X11017682Y-11462388D02*
X11008158Y-11481436D01*
X11008158Y-11481436D02*
X10998634Y-11490960D01*
X10998634Y-11490960D02*
X10979586Y-11500484D01*
X10979586Y-11500484D02*
X10960539Y-11500484D01*
X10960539Y-11500484D02*
X10941491Y-11490960D01*
X10941491Y-11490960D02*
X10931967Y-11481436D01*
X10931967Y-11481436D02*
X10922444Y-11462388D01*
X10922444Y-11462388D02*
X10912920Y-11424293D01*
X10912920Y-11424293D02*
X10912920Y-11376674D01*
X10912920Y-11376674D02*
X10922444Y-11338579D01*
X10922444Y-11338579D02*
X10931967Y-11319531D01*
X10931967Y-11319531D02*
X10941491Y-11310008D01*
X10941491Y-11310008D02*
X10960539Y-11300484D01*
X11112920Y-11500484D02*
X11112920Y-11367150D01*
X11112920Y-11386198D02*
X11122444Y-11376674D01*
X11122444Y-11376674D02*
X11141491Y-11367150D01*
X11141491Y-11367150D02*
X11170063Y-11367150D01*
X11170063Y-11367150D02*
X11189110Y-11376674D01*
X11189110Y-11376674D02*
X11198634Y-11395722D01*
X11198634Y-11395722D02*
X11198634Y-11500484D01*
X11198634Y-11395722D02*
X11208158Y-11376674D01*
X11208158Y-11376674D02*
X11227205Y-11367150D01*
X11227205Y-11367150D02*
X11255777Y-11367150D01*
X11255777Y-11367150D02*
X11274824Y-11376674D01*
X11274824Y-11376674D02*
X11284348Y-11395722D01*
X11284348Y-11395722D02*
X11284348Y-11500484D01*
X11379586Y-11500484D02*
X11379586Y-11367150D01*
X11379586Y-11386198D02*
X11389110Y-11376674D01*
X11389110Y-11376674D02*
X11408158Y-11367150D01*
X11408158Y-11367150D02*
X11436729Y-11367150D01*
X11436729Y-11367150D02*
X11455777Y-11376674D01*
X11455777Y-11376674D02*
X11465301Y-11395722D01*
X11465301Y-11395722D02*
X11465301Y-11500484D01*
X11465301Y-11395722D02*
X11474824Y-11376674D01*
X11474824Y-11376674D02*
X11493872Y-11367150D01*
X11493872Y-11367150D02*
X11522443Y-11367150D01*
X11522443Y-11367150D02*
X11541491Y-11376674D01*
X11541491Y-11376674D02*
X11551015Y-11395722D01*
X11551015Y-11395722D02*
X11551015Y-11500484D01*
X11941491Y-11290960D02*
X11770063Y-11548103D01*
X12198634Y-11300484D02*
X12217682Y-11300484D01*
X12217682Y-11300484D02*
X12236729Y-11310008D01*
X12236729Y-11310008D02*
X12246253Y-11319531D01*
X12246253Y-11319531D02*
X12255777Y-11338579D01*
X12255777Y-11338579D02*
X12265301Y-11376674D01*
X12265301Y-11376674D02*
X12265301Y-11424293D01*
X12265301Y-11424293D02*
X12255777Y-11462388D01*
X12255777Y-11462388D02*
X12246253Y-11481436D01*
X12246253Y-11481436D02*
X12236729Y-11490960D01*
X12236729Y-11490960D02*
X12217682Y-11500484D01*
X12217682Y-11500484D02*
X12198634Y-11500484D01*
X12198634Y-11500484D02*
X12179586Y-11490960D01*
X12179586Y-11490960D02*
X12170063Y-11481436D01*
X12170063Y-11481436D02*
X12160539Y-11462388D01*
X12160539Y-11462388D02*
X12151015Y-11424293D01*
X12151015Y-11424293D02*
X12151015Y-11376674D01*
X12151015Y-11376674D02*
X12160539Y-11338579D01*
X12160539Y-11338579D02*
X12170063Y-11319531D01*
X12170063Y-11319531D02*
X12179586Y-11310008D01*
X12179586Y-11310008D02*
X12198634Y-11300484D01*
X12351015Y-11481436D02*
X12360539Y-11490960D01*
X12360539Y-11490960D02*
X12351015Y-11500484D01*
X12351015Y-11500484D02*
X12341491Y-11490960D01*
X12341491Y-11490960D02*
X12351015Y-11481436D01*
X12351015Y-11481436D02*
X12351015Y-11500484D01*
X12484348Y-11300484D02*
X12503396Y-11300484D01*
X12503396Y-11300484D02*
X12522444Y-11310008D01*
X12522444Y-11310008D02*
X12531967Y-11319531D01*
X12531967Y-11319531D02*
X12541491Y-11338579D01*
X12541491Y-11338579D02*
X12551015Y-11376674D01*
X12551015Y-11376674D02*
X12551015Y-11424293D01*
X12551015Y-11424293D02*
X12541491Y-11462388D01*
X12541491Y-11462388D02*
X12531967Y-11481436D01*
X12531967Y-11481436D02*
X12522444Y-11490960D01*
X12522444Y-11490960D02*
X12503396Y-11500484D01*
X12503396Y-11500484D02*
X12484348Y-11500484D01*
X12484348Y-11500484D02*
X12465301Y-11490960D01*
X12465301Y-11490960D02*
X12455777Y-11481436D01*
X12455777Y-11481436D02*
X12446253Y-11462388D01*
X12446253Y-11462388D02*
X12436729Y-11424293D01*
X12436729Y-11424293D02*
X12436729Y-11376674D01*
X12436729Y-11376674D02*
X12446253Y-11338579D01*
X12446253Y-11338579D02*
X12455777Y-11319531D01*
X12455777Y-11319531D02*
X12465301Y-11310008D01*
X12465301Y-11310008D02*
X12484348Y-11300484D01*
X12741491Y-11500484D02*
X12627206Y-11500484D01*
X12684348Y-11500484D02*
X12684348Y-11300484D01*
X12684348Y-11300484D02*
X12665301Y-11329055D01*
X12665301Y-11329055D02*
X12646253Y-11348103D01*
X12646253Y-11348103D02*
X12627206Y-11357627D01*
X12922444Y-11300484D02*
X12827206Y-11300484D01*
X12827206Y-11300484D02*
X12817682Y-11395722D01*
X12817682Y-11395722D02*
X12827206Y-11386198D01*
X12827206Y-11386198D02*
X12846253Y-11376674D01*
X12846253Y-11376674D02*
X12893872Y-11376674D01*
X12893872Y-11376674D02*
X12912920Y-11386198D01*
X12912920Y-11386198D02*
X12922444Y-11395722D01*
X12922444Y-11395722D02*
X12931967Y-11414769D01*
X12931967Y-11414769D02*
X12931967Y-11462388D01*
X12931967Y-11462388D02*
X12922444Y-11481436D01*
X12922444Y-11481436D02*
X12912920Y-11490960D01*
X12912920Y-11490960D02*
X12893872Y-11500484D01*
X12893872Y-11500484D02*
X12846253Y-11500484D01*
X12846253Y-11500484D02*
X12827206Y-11490960D01*
X12827206Y-11490960D02*
X12817682Y-11481436D01*
X12998634Y-11300484D02*
X13131967Y-11300484D01*
X13131967Y-11300484D02*
X13046253Y-11500484D01*
X13198634Y-11300484D02*
X13198634Y-11338579D01*
X13274825Y-11300484D02*
X13274825Y-11338579D01*
X13570063Y-11576674D02*
X13560539Y-11567150D01*
X13560539Y-11567150D02*
X13541491Y-11538579D01*
X13541491Y-11538579D02*
X13531968Y-11519531D01*
X13531968Y-11519531D02*
X13522444Y-11490960D01*
X13522444Y-11490960D02*
X13512920Y-11443341D01*
X13512920Y-11443341D02*
X13512920Y-11405246D01*
X13512920Y-11405246D02*
X13522444Y-11357627D01*
X13522444Y-11357627D02*
X13531968Y-11329055D01*
X13531968Y-11329055D02*
X13541491Y-11310008D01*
X13541491Y-11310008D02*
X13560539Y-11281436D01*
X13560539Y-11281436D02*
X13570063Y-11271912D01*
X13627206Y-11300484D02*
X13751015Y-11300484D01*
X13751015Y-11300484D02*
X13684348Y-11376674D01*
X13684348Y-11376674D02*
X13712920Y-11376674D01*
X13712920Y-11376674D02*
X13731968Y-11386198D01*
X13731968Y-11386198D02*
X13741491Y-11395722D01*
X13741491Y-11395722D02*
X13751015Y-11414769D01*
X13751015Y-11414769D02*
X13751015Y-11462388D01*
X13751015Y-11462388D02*
X13741491Y-11481436D01*
X13741491Y-11481436D02*
X13731968Y-11490960D01*
X13731968Y-11490960D02*
X13712920Y-11500484D01*
X13712920Y-11500484D02*
X13655777Y-11500484D01*
X13655777Y-11500484D02*
X13636729Y-11490960D01*
X13636729Y-11490960D02*
X13627206Y-11481436D01*
X13827206Y-11319531D02*
X13836729Y-11310008D01*
X13836729Y-11310008D02*
X13855777Y-11300484D01*
X13855777Y-11300484D02*
X13903396Y-11300484D01*
X13903396Y-11300484D02*
X13922444Y-11310008D01*
X13922444Y-11310008D02*
X13931968Y-11319531D01*
X13931968Y-11319531D02*
X13941491Y-11338579D01*
X13941491Y-11338579D02*
X13941491Y-11357627D01*
X13941491Y-11357627D02*
X13931968Y-11386198D01*
X13931968Y-11386198D02*
X13817682Y-11500484D01*
X13817682Y-11500484D02*
X13941491Y-11500484D01*
X14179587Y-11500484D02*
X14179587Y-11300484D01*
X14265301Y-11500484D02*
X14265301Y-11395722D01*
X14265301Y-11395722D02*
X14255777Y-11376674D01*
X14255777Y-11376674D02*
X14236730Y-11367150D01*
X14236730Y-11367150D02*
X14208158Y-11367150D01*
X14208158Y-11367150D02*
X14189110Y-11376674D01*
X14189110Y-11376674D02*
X14179587Y-11386198D01*
X14389110Y-11500484D02*
X14370063Y-11490960D01*
X14370063Y-11490960D02*
X14360539Y-11481436D01*
X14360539Y-11481436D02*
X14351015Y-11462388D01*
X14351015Y-11462388D02*
X14351015Y-11405246D01*
X14351015Y-11405246D02*
X14360539Y-11386198D01*
X14360539Y-11386198D02*
X14370063Y-11376674D01*
X14370063Y-11376674D02*
X14389110Y-11367150D01*
X14389110Y-11367150D02*
X14417682Y-11367150D01*
X14417682Y-11367150D02*
X14436730Y-11376674D01*
X14436730Y-11376674D02*
X14446253Y-11386198D01*
X14446253Y-11386198D02*
X14455777Y-11405246D01*
X14455777Y-11405246D02*
X14455777Y-11462388D01*
X14455777Y-11462388D02*
X14446253Y-11481436D01*
X14446253Y-11481436D02*
X14436730Y-11490960D01*
X14436730Y-11490960D02*
X14417682Y-11500484D01*
X14417682Y-11500484D02*
X14389110Y-11500484D01*
X14570063Y-11500484D02*
X14551015Y-11490960D01*
X14551015Y-11490960D02*
X14541491Y-11471912D01*
X14541491Y-11471912D02*
X14541491Y-11300484D01*
X14722444Y-11490960D02*
X14703396Y-11500484D01*
X14703396Y-11500484D02*
X14665301Y-11500484D01*
X14665301Y-11500484D02*
X14646253Y-11490960D01*
X14646253Y-11490960D02*
X14636730Y-11471912D01*
X14636730Y-11471912D02*
X14636730Y-11395722D01*
X14636730Y-11395722D02*
X14646253Y-11376674D01*
X14646253Y-11376674D02*
X14665301Y-11367150D01*
X14665301Y-11367150D02*
X14703396Y-11367150D01*
X14703396Y-11367150D02*
X14722444Y-11376674D01*
X14722444Y-11376674D02*
X14731968Y-11395722D01*
X14731968Y-11395722D02*
X14731968Y-11414769D01*
X14731968Y-11414769D02*
X14636730Y-11433817D01*
X14808158Y-11490960D02*
X14827206Y-11500484D01*
X14827206Y-11500484D02*
X14865301Y-11500484D01*
X14865301Y-11500484D02*
X14884349Y-11490960D01*
X14884349Y-11490960D02*
X14893872Y-11471912D01*
X14893872Y-11471912D02*
X14893872Y-11462388D01*
X14893872Y-11462388D02*
X14884349Y-11443341D01*
X14884349Y-11443341D02*
X14865301Y-11433817D01*
X14865301Y-11433817D02*
X14836730Y-11433817D01*
X14836730Y-11433817D02*
X14817682Y-11424293D01*
X14817682Y-11424293D02*
X14808158Y-11405246D01*
X14808158Y-11405246D02*
X14808158Y-11395722D01*
X14808158Y-11395722D02*
X14817682Y-11376674D01*
X14817682Y-11376674D02*
X14836730Y-11367150D01*
X14836730Y-11367150D02*
X14865301Y-11367150D01*
X14865301Y-11367150D02*
X14884349Y-11376674D01*
X14960539Y-11576674D02*
X14970063Y-11567150D01*
X14970063Y-11567150D02*
X14989111Y-11538579D01*
X14989111Y-11538579D02*
X14998634Y-11519531D01*
X14998634Y-11519531D02*
X15008158Y-11490960D01*
X15008158Y-11490960D02*
X15017682Y-11443341D01*
X15017682Y-11443341D02*
X15017682Y-11405246D01*
X15017682Y-11405246D02*
X15008158Y-11357627D01*
X15008158Y-11357627D02*
X14998634Y-11329055D01*
X14998634Y-11329055D02*
X14989111Y-11310008D01*
X14989111Y-11310008D02*
X14970063Y-11281436D01*
X14970063Y-11281436D02*
X14960539Y-11271912D01*
M02*
