%TF.GenerationSoftware,KiCad,Pcbnew,10.0.3*%
%TF.CreationDate,2026-07-15T18:53:49-04:00*%
%TF.ProjectId,LauPythonCamera_Pt_Stack,4c617550-7974-4686-9f6e-43616d657261,rev?*%
%TF.SameCoordinates,Original*%
%TF.FileFunction,Profile,NP*%
%FSLAX46Y46*%
G04 Gerber Fmt 4.6, Leading zero omitted, Abs format (unit mm)*
G04 Created by KiCad (PCBNEW 10.0.3) date 2026-07-15 18:53:49*
%MOMM*%
%LPD*%
G01*
G04 APERTURE LIST*
%TA.AperFunction,Profile*%
%ADD10C,0.100000*%
%TD*%
G04 APERTURE END LIST*
D10*
X100000000Y-61500000D02*
X100000000Y-103500000D01*
X100000000Y-103500000D02*
X101500000Y-105000000D01*
X101500000Y-60000000D02*
X100000000Y-61500000D01*
X101500000Y-105000000D02*
X153500000Y-105000000D01*
X103600000Y-62500000D02*
G75*
G02*
X101400000Y-62500000I-1100000J0D01*
G01*
X101400000Y-62500000D02*
G75*
G02*
X103600000Y-62500000I1100000J0D01*
G01*
X103600000Y-102500000D02*
G75*
G02*
X101400000Y-102500000I-1100000J0D01*
G01*
X101400000Y-102500000D02*
G75*
G02*
X103600000Y-102500000I1100000J0D01*
G01*
X149500000Y-69500000D02*
X151000000Y-68000000D01*
X149500000Y-95500000D02*
X149500000Y-69500000D01*
X151000000Y-68000000D02*
X153500000Y-68000000D01*
X151000000Y-97000000D02*
X149500000Y-95500000D01*
X153600000Y-62500000D02*
G75*
G02*
X151400000Y-62500000I-1100000J0D01*
G01*
X151400000Y-62500000D02*
G75*
G02*
X153600000Y-62500000I1100000J0D01*
G01*
X153600000Y-102500000D02*
G75*
G02*
X151400000Y-102500000I-1100000J0D01*
G01*
X151400000Y-102500000D02*
G75*
G02*
X153600000Y-102500000I1100000J0D01*
G01*
X153500000Y-60000000D02*
X101500000Y-60000000D01*
X153500000Y-68000000D02*
X155000000Y-66500000D01*
X153500000Y-97000000D02*
X151000000Y-97000000D01*
X153500000Y-105000000D02*
X155000000Y-103500000D01*
X155000000Y-61500000D02*
X153500000Y-60000000D01*
X155000000Y-66500000D02*
X155000000Y-61500000D01*
X155000000Y-98500000D02*
X153500000Y-97000000D01*
X155000000Y-103500000D02*
X155000000Y-98500000D01*
M02*
