%TF.GenerationSoftware,KiCad,Pcbnew,10.0.3*%
%TF.CreationDate,2026-07-15T18:53:49-04:00*%
%TF.ProjectId,LauPythonCamera_Pt_Stack,4c617550-7974-4686-9f6e-43616d657261,rev?*%
%TF.SameCoordinates,Original*%
%TF.FileFunction,Legend,Top*%
%TF.FilePolarity,Positive*%
%FSLAX46Y46*%
G04 Gerber Fmt 4.6, Leading zero omitted, Abs format (unit mm)*
G04 Created by KiCad (PCBNEW 10.0.3) date 2026-07-15 18:53:49*
%MOMM*%
%LPD*%
G01*
G04 APERTURE LIST*
G04 Aperture macros list*
%AMRoundRect*
0 Rectangle with rounded corners*
0 $1 Rounding radius*
0 $2 $3 $4 $5 $6 $7 $8 $9 X,Y pos of 4 corners*
0 Add a 4 corners polygon primitive as box body*
4,1,4,$2,$3,$4,$5,$6,$7,$8,$9,$2,$3,0*
0 Add four circle primitives for the rounded corners*
1,1,$1+$1,$2,$3*
1,1,$1+$1,$4,$5*
1,1,$1+$1,$6,$7*
1,1,$1+$1,$8,$9*
0 Add four rect primitives between the rounded corners*
20,1,$1+$1,$2,$3,$4,$5,0*
20,1,$1+$1,$4,$5,$6,$7,0*
20,1,$1+$1,$6,$7,$8,$9,0*
20,1,$1+$1,$8,$9,$2,$3,0*%
G04 Aperture macros list end*
%ADD10C,0.150000*%
%ADD11C,0.120000*%
%ADD12C,0.360000*%
%ADD13RoundRect,0.250000X0.475000X-0.250000X0.475000X0.250000X-0.475000X0.250000X-0.475000X-0.250000X0*%
%ADD14RoundRect,0.140000X0.170000X-0.140000X0.170000X0.140000X-0.170000X0.140000X-0.170000X-0.140000X0*%
%ADD15RoundRect,0.135000X-0.135000X-0.185000X0.135000X-0.185000X0.135000X0.185000X-0.135000X0.185000X0*%
%ADD16RoundRect,0.135000X0.185000X-0.135000X0.185000X0.135000X-0.185000X0.135000X-0.185000X-0.135000X0*%
%ADD17RoundRect,0.140000X-0.140000X-0.170000X0.140000X-0.170000X0.140000X0.170000X-0.140000X0.170000X0*%
%ADD18RoundRect,0.225000X0.250000X-0.225000X0.250000X0.225000X-0.250000X0.225000X-0.250000X-0.225000X0*%
%ADD19RoundRect,0.225000X-0.225000X-0.250000X0.225000X-0.250000X0.225000X0.250000X-0.225000X0.250000X0*%
%ADD20RoundRect,0.150000X-0.512500X-0.150000X0.512500X-0.150000X0.512500X0.150000X-0.512500X0.150000X0*%
%ADD21C,1.600000*%
%ADD22RoundRect,0.063500X-1.206500X-0.254000X1.206500X-0.254000X1.206500X0.254000X-1.206500X0.254000X0*%
%ADD23RoundRect,0.063500X-0.254000X-1.206500X0.254000X-1.206500X0.254000X1.206500X-0.254000X1.206500X0*%
%ADD24RoundRect,0.150000X-0.587500X-0.150000X0.587500X-0.150000X0.587500X0.150000X-0.587500X0.150000X0*%
%ADD25RoundRect,0.087500X-0.250000X-0.087500X0.250000X-0.087500X0.250000X0.087500X-0.250000X0.087500X0*%
%ADD26R,0.950000X2.100000*%
G04 APERTURE END LIST*
D10*
X113179580Y-82642857D02*
X113227200Y-82690476D01*
X113227200Y-82690476D02*
X113274819Y-82833333D01*
X113274819Y-82833333D02*
X113274819Y-82928571D01*
X113274819Y-82928571D02*
X113227200Y-83071428D01*
X113227200Y-83071428D02*
X113131961Y-83166666D01*
X113131961Y-83166666D02*
X113036723Y-83214285D01*
X113036723Y-83214285D02*
X112846247Y-83261904D01*
X112846247Y-83261904D02*
X112703390Y-83261904D01*
X112703390Y-83261904D02*
X112512914Y-83214285D01*
X112512914Y-83214285D02*
X112417676Y-83166666D01*
X112417676Y-83166666D02*
X112322438Y-83071428D01*
X112322438Y-83071428D02*
X112274819Y-82928571D01*
X112274819Y-82928571D02*
X112274819Y-82833333D01*
X112274819Y-82833333D02*
X112322438Y-82690476D01*
X112322438Y-82690476D02*
X112370057Y-82642857D01*
X112370057Y-82261904D02*
X112322438Y-82214285D01*
X112322438Y-82214285D02*
X112274819Y-82119047D01*
X112274819Y-82119047D02*
X112274819Y-81880952D01*
X112274819Y-81880952D02*
X112322438Y-81785714D01*
X112322438Y-81785714D02*
X112370057Y-81738095D01*
X112370057Y-81738095D02*
X112465295Y-81690476D01*
X112465295Y-81690476D02*
X112560533Y-81690476D01*
X112560533Y-81690476D02*
X112703390Y-81738095D01*
X112703390Y-81738095D02*
X113274819Y-82309523D01*
X113274819Y-82309523D02*
X113274819Y-81690476D01*
X112608152Y-80833333D02*
X113274819Y-80833333D01*
X112227200Y-81071428D02*
X112941485Y-81309523D01*
X112941485Y-81309523D02*
X112941485Y-80690476D01*
X119699580Y-88642857D02*
X119747200Y-88690476D01*
X119747200Y-88690476D02*
X119794819Y-88833333D01*
X119794819Y-88833333D02*
X119794819Y-88928571D01*
X119794819Y-88928571D02*
X119747200Y-89071428D01*
X119747200Y-89071428D02*
X119651961Y-89166666D01*
X119651961Y-89166666D02*
X119556723Y-89214285D01*
X119556723Y-89214285D02*
X119366247Y-89261904D01*
X119366247Y-89261904D02*
X119223390Y-89261904D01*
X119223390Y-89261904D02*
X119032914Y-89214285D01*
X119032914Y-89214285D02*
X118937676Y-89166666D01*
X118937676Y-89166666D02*
X118842438Y-89071428D01*
X118842438Y-89071428D02*
X118794819Y-88928571D01*
X118794819Y-88928571D02*
X118794819Y-88833333D01*
X118794819Y-88833333D02*
X118842438Y-88690476D01*
X118842438Y-88690476D02*
X118890057Y-88642857D01*
X118890057Y-88261904D02*
X118842438Y-88214285D01*
X118842438Y-88214285D02*
X118794819Y-88119047D01*
X118794819Y-88119047D02*
X118794819Y-87880952D01*
X118794819Y-87880952D02*
X118842438Y-87785714D01*
X118842438Y-87785714D02*
X118890057Y-87738095D01*
X118890057Y-87738095D02*
X118985295Y-87690476D01*
X118985295Y-87690476D02*
X119080533Y-87690476D01*
X119080533Y-87690476D02*
X119223390Y-87738095D01*
X119223390Y-87738095D02*
X119794819Y-88309523D01*
X119794819Y-88309523D02*
X119794819Y-87690476D01*
X118794819Y-87357142D02*
X118794819Y-86690476D01*
X118794819Y-86690476D02*
X119794819Y-87119047D01*
X118357142Y-100284819D02*
X118023809Y-99808628D01*
X117785714Y-100284819D02*
X117785714Y-99284819D01*
X117785714Y-99284819D02*
X118166666Y-99284819D01*
X118166666Y-99284819D02*
X118261904Y-99332438D01*
X118261904Y-99332438D02*
X118309523Y-99380057D01*
X118309523Y-99380057D02*
X118357142Y-99475295D01*
X118357142Y-99475295D02*
X118357142Y-99618152D01*
X118357142Y-99618152D02*
X118309523Y-99713390D01*
X118309523Y-99713390D02*
X118261904Y-99761009D01*
X118261904Y-99761009D02*
X118166666Y-99808628D01*
X118166666Y-99808628D02*
X117785714Y-99808628D01*
X119309523Y-100284819D02*
X118738095Y-100284819D01*
X119023809Y-100284819D02*
X119023809Y-99284819D01*
X119023809Y-99284819D02*
X118928571Y-99427676D01*
X118928571Y-99427676D02*
X118833333Y-99522914D01*
X118833333Y-99522914D02*
X118738095Y-99570533D01*
X119928571Y-99284819D02*
X120023809Y-99284819D01*
X120023809Y-99284819D02*
X120119047Y-99332438D01*
X120119047Y-99332438D02*
X120166666Y-99380057D01*
X120166666Y-99380057D02*
X120214285Y-99475295D01*
X120214285Y-99475295D02*
X120261904Y-99665771D01*
X120261904Y-99665771D02*
X120261904Y-99903866D01*
X120261904Y-99903866D02*
X120214285Y-100094342D01*
X120214285Y-100094342D02*
X120166666Y-100189580D01*
X120166666Y-100189580D02*
X120119047Y-100237200D01*
X120119047Y-100237200D02*
X120023809Y-100284819D01*
X120023809Y-100284819D02*
X119928571Y-100284819D01*
X119928571Y-100284819D02*
X119833333Y-100237200D01*
X119833333Y-100237200D02*
X119785714Y-100189580D01*
X119785714Y-100189580D02*
X119738095Y-100094342D01*
X119738095Y-100094342D02*
X119690476Y-99903866D01*
X119690476Y-99903866D02*
X119690476Y-99665771D01*
X119690476Y-99665771D02*
X119738095Y-99475295D01*
X119738095Y-99475295D02*
X119785714Y-99380057D01*
X119785714Y-99380057D02*
X119833333Y-99332438D01*
X119833333Y-99332438D02*
X119928571Y-99284819D01*
X123034819Y-78866666D02*
X122558628Y-79199999D01*
X123034819Y-79438094D02*
X122034819Y-79438094D01*
X122034819Y-79438094D02*
X122034819Y-79057142D01*
X122034819Y-79057142D02*
X122082438Y-78961904D01*
X122082438Y-78961904D02*
X122130057Y-78914285D01*
X122130057Y-78914285D02*
X122225295Y-78866666D01*
X122225295Y-78866666D02*
X122368152Y-78866666D01*
X122368152Y-78866666D02*
X122463390Y-78914285D01*
X122463390Y-78914285D02*
X122511009Y-78961904D01*
X122511009Y-78961904D02*
X122558628Y-79057142D01*
X122558628Y-79057142D02*
X122558628Y-79438094D01*
X122368152Y-78009523D02*
X123034819Y-78009523D01*
X121987200Y-78247618D02*
X122701485Y-78485713D01*
X122701485Y-78485713D02*
X122701485Y-77866666D01*
X123034819Y-83942857D02*
X122558628Y-84276190D01*
X123034819Y-84514285D02*
X122034819Y-84514285D01*
X122034819Y-84514285D02*
X122034819Y-84133333D01*
X122034819Y-84133333D02*
X122082438Y-84038095D01*
X122082438Y-84038095D02*
X122130057Y-83990476D01*
X122130057Y-83990476D02*
X122225295Y-83942857D01*
X122225295Y-83942857D02*
X122368152Y-83942857D01*
X122368152Y-83942857D02*
X122463390Y-83990476D01*
X122463390Y-83990476D02*
X122511009Y-84038095D01*
X122511009Y-84038095D02*
X122558628Y-84133333D01*
X122558628Y-84133333D02*
X122558628Y-84514285D01*
X123034819Y-82990476D02*
X123034819Y-83561904D01*
X123034819Y-83276190D02*
X122034819Y-83276190D01*
X122034819Y-83276190D02*
X122177676Y-83371428D01*
X122177676Y-83371428D02*
X122272914Y-83466666D01*
X122272914Y-83466666D02*
X122320533Y-83561904D01*
X122130057Y-82609523D02*
X122082438Y-82561904D01*
X122082438Y-82561904D02*
X122034819Y-82466666D01*
X122034819Y-82466666D02*
X122034819Y-82228571D01*
X122034819Y-82228571D02*
X122082438Y-82133333D01*
X122082438Y-82133333D02*
X122130057Y-82085714D01*
X122130057Y-82085714D02*
X122225295Y-82038095D01*
X122225295Y-82038095D02*
X122320533Y-82038095D01*
X122320533Y-82038095D02*
X122463390Y-82085714D01*
X122463390Y-82085714D02*
X123034819Y-82657142D01*
X123034819Y-82657142D02*
X123034819Y-82038095D01*
X119699580Y-79142857D02*
X119747200Y-79190476D01*
X119747200Y-79190476D02*
X119794819Y-79333333D01*
X119794819Y-79333333D02*
X119794819Y-79428571D01*
X119794819Y-79428571D02*
X119747200Y-79571428D01*
X119747200Y-79571428D02*
X119651961Y-79666666D01*
X119651961Y-79666666D02*
X119556723Y-79714285D01*
X119556723Y-79714285D02*
X119366247Y-79761904D01*
X119366247Y-79761904D02*
X119223390Y-79761904D01*
X119223390Y-79761904D02*
X119032914Y-79714285D01*
X119032914Y-79714285D02*
X118937676Y-79666666D01*
X118937676Y-79666666D02*
X118842438Y-79571428D01*
X118842438Y-79571428D02*
X118794819Y-79428571D01*
X118794819Y-79428571D02*
X118794819Y-79333333D01*
X118794819Y-79333333D02*
X118842438Y-79190476D01*
X118842438Y-79190476D02*
X118890057Y-79142857D01*
X119794819Y-78190476D02*
X119794819Y-78761904D01*
X119794819Y-78476190D02*
X118794819Y-78476190D01*
X118794819Y-78476190D02*
X118937676Y-78571428D01*
X118937676Y-78571428D02*
X119032914Y-78666666D01*
X119032914Y-78666666D02*
X119080533Y-78761904D01*
X118794819Y-77285714D02*
X118794819Y-77761904D01*
X118794819Y-77761904D02*
X119271009Y-77809523D01*
X119271009Y-77809523D02*
X119223390Y-77761904D01*
X119223390Y-77761904D02*
X119175771Y-77666666D01*
X119175771Y-77666666D02*
X119175771Y-77428571D01*
X119175771Y-77428571D02*
X119223390Y-77333333D01*
X119223390Y-77333333D02*
X119271009Y-77285714D01*
X119271009Y-77285714D02*
X119366247Y-77238095D01*
X119366247Y-77238095D02*
X119604342Y-77238095D01*
X119604342Y-77238095D02*
X119699580Y-77285714D01*
X119699580Y-77285714D02*
X119747200Y-77333333D01*
X119747200Y-77333333D02*
X119794819Y-77428571D01*
X119794819Y-77428571D02*
X119794819Y-77666666D01*
X119794819Y-77666666D02*
X119747200Y-77761904D01*
X119747200Y-77761904D02*
X119699580Y-77809523D01*
X143357142Y-66699580D02*
X143309523Y-66747200D01*
X143309523Y-66747200D02*
X143166666Y-66794819D01*
X143166666Y-66794819D02*
X143071428Y-66794819D01*
X143071428Y-66794819D02*
X142928571Y-66747200D01*
X142928571Y-66747200D02*
X142833333Y-66651961D01*
X142833333Y-66651961D02*
X142785714Y-66556723D01*
X142785714Y-66556723D02*
X142738095Y-66366247D01*
X142738095Y-66366247D02*
X142738095Y-66223390D01*
X142738095Y-66223390D02*
X142785714Y-66032914D01*
X142785714Y-66032914D02*
X142833333Y-65937676D01*
X142833333Y-65937676D02*
X142928571Y-65842438D01*
X142928571Y-65842438D02*
X143071428Y-65794819D01*
X143071428Y-65794819D02*
X143166666Y-65794819D01*
X143166666Y-65794819D02*
X143309523Y-65842438D01*
X143309523Y-65842438D02*
X143357142Y-65890057D01*
X143738095Y-65890057D02*
X143785714Y-65842438D01*
X143785714Y-65842438D02*
X143880952Y-65794819D01*
X143880952Y-65794819D02*
X144119047Y-65794819D01*
X144119047Y-65794819D02*
X144214285Y-65842438D01*
X144214285Y-65842438D02*
X144261904Y-65890057D01*
X144261904Y-65890057D02*
X144309523Y-65985295D01*
X144309523Y-65985295D02*
X144309523Y-66080533D01*
X144309523Y-66080533D02*
X144261904Y-66223390D01*
X144261904Y-66223390D02*
X143690476Y-66794819D01*
X143690476Y-66794819D02*
X144309523Y-66794819D01*
X144880952Y-66223390D02*
X144785714Y-66175771D01*
X144785714Y-66175771D02*
X144738095Y-66128152D01*
X144738095Y-66128152D02*
X144690476Y-66032914D01*
X144690476Y-66032914D02*
X144690476Y-65985295D01*
X144690476Y-65985295D02*
X144738095Y-65890057D01*
X144738095Y-65890057D02*
X144785714Y-65842438D01*
X144785714Y-65842438D02*
X144880952Y-65794819D01*
X144880952Y-65794819D02*
X145071428Y-65794819D01*
X145071428Y-65794819D02*
X145166666Y-65842438D01*
X145166666Y-65842438D02*
X145214285Y-65890057D01*
X145214285Y-65890057D02*
X145261904Y-65985295D01*
X145261904Y-65985295D02*
X145261904Y-66032914D01*
X145261904Y-66032914D02*
X145214285Y-66128152D01*
X145214285Y-66128152D02*
X145166666Y-66175771D01*
X145166666Y-66175771D02*
X145071428Y-66223390D01*
X145071428Y-66223390D02*
X144880952Y-66223390D01*
X144880952Y-66223390D02*
X144785714Y-66271009D01*
X144785714Y-66271009D02*
X144738095Y-66318628D01*
X144738095Y-66318628D02*
X144690476Y-66413866D01*
X144690476Y-66413866D02*
X144690476Y-66604342D01*
X144690476Y-66604342D02*
X144738095Y-66699580D01*
X144738095Y-66699580D02*
X144785714Y-66747200D01*
X144785714Y-66747200D02*
X144880952Y-66794819D01*
X144880952Y-66794819D02*
X145071428Y-66794819D01*
X145071428Y-66794819D02*
X145166666Y-66747200D01*
X145166666Y-66747200D02*
X145214285Y-66699580D01*
X145214285Y-66699580D02*
X145261904Y-66604342D01*
X145261904Y-66604342D02*
X145261904Y-66413866D01*
X145261904Y-66413866D02*
X145214285Y-66318628D01*
X145214285Y-66318628D02*
X145166666Y-66271009D01*
X145166666Y-66271009D02*
X145071428Y-66223390D01*
X113179580Y-87642857D02*
X113227200Y-87690476D01*
X113227200Y-87690476D02*
X113274819Y-87833333D01*
X113274819Y-87833333D02*
X113274819Y-87928571D01*
X113274819Y-87928571D02*
X113227200Y-88071428D01*
X113227200Y-88071428D02*
X113131961Y-88166666D01*
X113131961Y-88166666D02*
X113036723Y-88214285D01*
X113036723Y-88214285D02*
X112846247Y-88261904D01*
X112846247Y-88261904D02*
X112703390Y-88261904D01*
X112703390Y-88261904D02*
X112512914Y-88214285D01*
X112512914Y-88214285D02*
X112417676Y-88166666D01*
X112417676Y-88166666D02*
X112322438Y-88071428D01*
X112322438Y-88071428D02*
X112274819Y-87928571D01*
X112274819Y-87928571D02*
X112274819Y-87833333D01*
X112274819Y-87833333D02*
X112322438Y-87690476D01*
X112322438Y-87690476D02*
X112370057Y-87642857D01*
X112370057Y-87261904D02*
X112322438Y-87214285D01*
X112322438Y-87214285D02*
X112274819Y-87119047D01*
X112274819Y-87119047D02*
X112274819Y-86880952D01*
X112274819Y-86880952D02*
X112322438Y-86785714D01*
X112322438Y-86785714D02*
X112370057Y-86738095D01*
X112370057Y-86738095D02*
X112465295Y-86690476D01*
X112465295Y-86690476D02*
X112560533Y-86690476D01*
X112560533Y-86690476D02*
X112703390Y-86738095D01*
X112703390Y-86738095D02*
X113274819Y-87309523D01*
X113274819Y-87309523D02*
X113274819Y-86690476D01*
X112274819Y-86357142D02*
X112274819Y-85738095D01*
X112274819Y-85738095D02*
X112655771Y-86071428D01*
X112655771Y-86071428D02*
X112655771Y-85928571D01*
X112655771Y-85928571D02*
X112703390Y-85833333D01*
X112703390Y-85833333D02*
X112751009Y-85785714D01*
X112751009Y-85785714D02*
X112846247Y-85738095D01*
X112846247Y-85738095D02*
X113084342Y-85738095D01*
X113084342Y-85738095D02*
X113179580Y-85785714D01*
X113179580Y-85785714D02*
X113227200Y-85833333D01*
X113227200Y-85833333D02*
X113274819Y-85928571D01*
X113274819Y-85928571D02*
X113274819Y-86214285D01*
X113274819Y-86214285D02*
X113227200Y-86309523D01*
X113227200Y-86309523D02*
X113179580Y-86357142D01*
X102429580Y-82642857D02*
X102477200Y-82690476D01*
X102477200Y-82690476D02*
X102524819Y-82833333D01*
X102524819Y-82833333D02*
X102524819Y-82928571D01*
X102524819Y-82928571D02*
X102477200Y-83071428D01*
X102477200Y-83071428D02*
X102381961Y-83166666D01*
X102381961Y-83166666D02*
X102286723Y-83214285D01*
X102286723Y-83214285D02*
X102096247Y-83261904D01*
X102096247Y-83261904D02*
X101953390Y-83261904D01*
X101953390Y-83261904D02*
X101762914Y-83214285D01*
X101762914Y-83214285D02*
X101667676Y-83166666D01*
X101667676Y-83166666D02*
X101572438Y-83071428D01*
X101572438Y-83071428D02*
X101524819Y-82928571D01*
X101524819Y-82928571D02*
X101524819Y-82833333D01*
X101524819Y-82833333D02*
X101572438Y-82690476D01*
X101572438Y-82690476D02*
X101620057Y-82642857D01*
X101620057Y-82261904D02*
X101572438Y-82214285D01*
X101572438Y-82214285D02*
X101524819Y-82119047D01*
X101524819Y-82119047D02*
X101524819Y-81880952D01*
X101524819Y-81880952D02*
X101572438Y-81785714D01*
X101572438Y-81785714D02*
X101620057Y-81738095D01*
X101620057Y-81738095D02*
X101715295Y-81690476D01*
X101715295Y-81690476D02*
X101810533Y-81690476D01*
X101810533Y-81690476D02*
X101953390Y-81738095D01*
X101953390Y-81738095D02*
X102524819Y-82309523D01*
X102524819Y-82309523D02*
X102524819Y-81690476D01*
X102524819Y-81214285D02*
X102524819Y-81023809D01*
X102524819Y-81023809D02*
X102477200Y-80928571D01*
X102477200Y-80928571D02*
X102429580Y-80880952D01*
X102429580Y-80880952D02*
X102286723Y-80785714D01*
X102286723Y-80785714D02*
X102096247Y-80738095D01*
X102096247Y-80738095D02*
X101715295Y-80738095D01*
X101715295Y-80738095D02*
X101620057Y-80785714D01*
X101620057Y-80785714D02*
X101572438Y-80833333D01*
X101572438Y-80833333D02*
X101524819Y-80928571D01*
X101524819Y-80928571D02*
X101524819Y-81119047D01*
X101524819Y-81119047D02*
X101572438Y-81214285D01*
X101572438Y-81214285D02*
X101620057Y-81261904D01*
X101620057Y-81261904D02*
X101715295Y-81309523D01*
X101715295Y-81309523D02*
X101953390Y-81309523D01*
X101953390Y-81309523D02*
X102048628Y-81261904D01*
X102048628Y-81261904D02*
X102096247Y-81214285D01*
X102096247Y-81214285D02*
X102143866Y-81119047D01*
X102143866Y-81119047D02*
X102143866Y-80928571D01*
X102143866Y-80928571D02*
X102096247Y-80833333D01*
X102096247Y-80833333D02*
X102048628Y-80785714D01*
X102048628Y-80785714D02*
X101953390Y-80738095D01*
X137857142Y-68599580D02*
X137809523Y-68647200D01*
X137809523Y-68647200D02*
X137666666Y-68694819D01*
X137666666Y-68694819D02*
X137571428Y-68694819D01*
X137571428Y-68694819D02*
X137428571Y-68647200D01*
X137428571Y-68647200D02*
X137333333Y-68551961D01*
X137333333Y-68551961D02*
X137285714Y-68456723D01*
X137285714Y-68456723D02*
X137238095Y-68266247D01*
X137238095Y-68266247D02*
X137238095Y-68123390D01*
X137238095Y-68123390D02*
X137285714Y-67932914D01*
X137285714Y-67932914D02*
X137333333Y-67837676D01*
X137333333Y-67837676D02*
X137428571Y-67742438D01*
X137428571Y-67742438D02*
X137571428Y-67694819D01*
X137571428Y-67694819D02*
X137666666Y-67694819D01*
X137666666Y-67694819D02*
X137809523Y-67742438D01*
X137809523Y-67742438D02*
X137857142Y-67790057D01*
X138238095Y-67790057D02*
X138285714Y-67742438D01*
X138285714Y-67742438D02*
X138380952Y-67694819D01*
X138380952Y-67694819D02*
X138619047Y-67694819D01*
X138619047Y-67694819D02*
X138714285Y-67742438D01*
X138714285Y-67742438D02*
X138761904Y-67790057D01*
X138761904Y-67790057D02*
X138809523Y-67885295D01*
X138809523Y-67885295D02*
X138809523Y-67980533D01*
X138809523Y-67980533D02*
X138761904Y-68123390D01*
X138761904Y-68123390D02*
X138190476Y-68694819D01*
X138190476Y-68694819D02*
X138809523Y-68694819D01*
X139761904Y-68694819D02*
X139190476Y-68694819D01*
X139476190Y-68694819D02*
X139476190Y-67694819D01*
X139476190Y-67694819D02*
X139380952Y-67837676D01*
X139380952Y-67837676D02*
X139285714Y-67932914D01*
X139285714Y-67932914D02*
X139190476Y-67980533D01*
X121699580Y-83666666D02*
X121747200Y-83714285D01*
X121747200Y-83714285D02*
X121794819Y-83857142D01*
X121794819Y-83857142D02*
X121794819Y-83952380D01*
X121794819Y-83952380D02*
X121747200Y-84095237D01*
X121747200Y-84095237D02*
X121651961Y-84190475D01*
X121651961Y-84190475D02*
X121556723Y-84238094D01*
X121556723Y-84238094D02*
X121366247Y-84285713D01*
X121366247Y-84285713D02*
X121223390Y-84285713D01*
X121223390Y-84285713D02*
X121032914Y-84238094D01*
X121032914Y-84238094D02*
X120937676Y-84190475D01*
X120937676Y-84190475D02*
X120842438Y-84095237D01*
X120842438Y-84095237D02*
X120794819Y-83952380D01*
X120794819Y-83952380D02*
X120794819Y-83857142D01*
X120794819Y-83857142D02*
X120842438Y-83714285D01*
X120842438Y-83714285D02*
X120890057Y-83666666D01*
X120794819Y-82809523D02*
X120794819Y-82999999D01*
X120794819Y-82999999D02*
X120842438Y-83095237D01*
X120842438Y-83095237D02*
X120890057Y-83142856D01*
X120890057Y-83142856D02*
X121032914Y-83238094D01*
X121032914Y-83238094D02*
X121223390Y-83285713D01*
X121223390Y-83285713D02*
X121604342Y-83285713D01*
X121604342Y-83285713D02*
X121699580Y-83238094D01*
X121699580Y-83238094D02*
X121747200Y-83190475D01*
X121747200Y-83190475D02*
X121794819Y-83095237D01*
X121794819Y-83095237D02*
X121794819Y-82904761D01*
X121794819Y-82904761D02*
X121747200Y-82809523D01*
X121747200Y-82809523D02*
X121699580Y-82761904D01*
X121699580Y-82761904D02*
X121604342Y-82714285D01*
X121604342Y-82714285D02*
X121366247Y-82714285D01*
X121366247Y-82714285D02*
X121271009Y-82761904D01*
X121271009Y-82761904D02*
X121223390Y-82809523D01*
X121223390Y-82809523D02*
X121175771Y-82904761D01*
X121175771Y-82904761D02*
X121175771Y-83095237D01*
X121175771Y-83095237D02*
X121223390Y-83190475D01*
X121223390Y-83190475D02*
X121271009Y-83238094D01*
X121271009Y-83238094D02*
X121366247Y-83285713D01*
X123034819Y-76566666D02*
X122558628Y-76899999D01*
X123034819Y-77138094D02*
X122034819Y-77138094D01*
X122034819Y-77138094D02*
X122034819Y-76757142D01*
X122034819Y-76757142D02*
X122082438Y-76661904D01*
X122082438Y-76661904D02*
X122130057Y-76614285D01*
X122130057Y-76614285D02*
X122225295Y-76566666D01*
X122225295Y-76566666D02*
X122368152Y-76566666D01*
X122368152Y-76566666D02*
X122463390Y-76614285D01*
X122463390Y-76614285D02*
X122511009Y-76661904D01*
X122511009Y-76661904D02*
X122558628Y-76757142D01*
X122558628Y-76757142D02*
X122558628Y-77138094D01*
X122034819Y-76233332D02*
X122034819Y-75566666D01*
X122034819Y-75566666D02*
X123034819Y-75995237D01*
X147384819Y-81342857D02*
X146908628Y-81676190D01*
X147384819Y-81914285D02*
X146384819Y-81914285D01*
X146384819Y-81914285D02*
X146384819Y-81533333D01*
X146384819Y-81533333D02*
X146432438Y-81438095D01*
X146432438Y-81438095D02*
X146480057Y-81390476D01*
X146480057Y-81390476D02*
X146575295Y-81342857D01*
X146575295Y-81342857D02*
X146718152Y-81342857D01*
X146718152Y-81342857D02*
X146813390Y-81390476D01*
X146813390Y-81390476D02*
X146861009Y-81438095D01*
X146861009Y-81438095D02*
X146908628Y-81533333D01*
X146908628Y-81533333D02*
X146908628Y-81914285D01*
X147384819Y-80390476D02*
X147384819Y-80961904D01*
X147384819Y-80676190D02*
X146384819Y-80676190D01*
X146384819Y-80676190D02*
X146527676Y-80771428D01*
X146527676Y-80771428D02*
X146622914Y-80866666D01*
X146622914Y-80866666D02*
X146670533Y-80961904D01*
X146718152Y-79533333D02*
X147384819Y-79533333D01*
X146337200Y-79771428D02*
X147051485Y-80009523D01*
X147051485Y-80009523D02*
X147051485Y-79390476D01*
X109929580Y-87642857D02*
X109977200Y-87690476D01*
X109977200Y-87690476D02*
X110024819Y-87833333D01*
X110024819Y-87833333D02*
X110024819Y-87928571D01*
X110024819Y-87928571D02*
X109977200Y-88071428D01*
X109977200Y-88071428D02*
X109881961Y-88166666D01*
X109881961Y-88166666D02*
X109786723Y-88214285D01*
X109786723Y-88214285D02*
X109596247Y-88261904D01*
X109596247Y-88261904D02*
X109453390Y-88261904D01*
X109453390Y-88261904D02*
X109262914Y-88214285D01*
X109262914Y-88214285D02*
X109167676Y-88166666D01*
X109167676Y-88166666D02*
X109072438Y-88071428D01*
X109072438Y-88071428D02*
X109024819Y-87928571D01*
X109024819Y-87928571D02*
X109024819Y-87833333D01*
X109024819Y-87833333D02*
X109072438Y-87690476D01*
X109072438Y-87690476D02*
X109120057Y-87642857D01*
X109024819Y-87309523D02*
X109024819Y-86690476D01*
X109024819Y-86690476D02*
X109405771Y-87023809D01*
X109405771Y-87023809D02*
X109405771Y-86880952D01*
X109405771Y-86880952D02*
X109453390Y-86785714D01*
X109453390Y-86785714D02*
X109501009Y-86738095D01*
X109501009Y-86738095D02*
X109596247Y-86690476D01*
X109596247Y-86690476D02*
X109834342Y-86690476D01*
X109834342Y-86690476D02*
X109929580Y-86738095D01*
X109929580Y-86738095D02*
X109977200Y-86785714D01*
X109977200Y-86785714D02*
X110024819Y-86880952D01*
X110024819Y-86880952D02*
X110024819Y-87166666D01*
X110024819Y-87166666D02*
X109977200Y-87261904D01*
X109977200Y-87261904D02*
X109929580Y-87309523D01*
X109024819Y-85785714D02*
X109024819Y-86261904D01*
X109024819Y-86261904D02*
X109501009Y-86309523D01*
X109501009Y-86309523D02*
X109453390Y-86261904D01*
X109453390Y-86261904D02*
X109405771Y-86166666D01*
X109405771Y-86166666D02*
X109405771Y-85928571D01*
X109405771Y-85928571D02*
X109453390Y-85833333D01*
X109453390Y-85833333D02*
X109501009Y-85785714D01*
X109501009Y-85785714D02*
X109596247Y-85738095D01*
X109596247Y-85738095D02*
X109834342Y-85738095D01*
X109834342Y-85738095D02*
X109929580Y-85785714D01*
X109929580Y-85785714D02*
X109977200Y-85833333D01*
X109977200Y-85833333D02*
X110024819Y-85928571D01*
X110024819Y-85928571D02*
X110024819Y-86166666D01*
X110024819Y-86166666D02*
X109977200Y-86261904D01*
X109977200Y-86261904D02*
X109929580Y-86309523D01*
X104284819Y-77666666D02*
X103808628Y-77999999D01*
X104284819Y-78238094D02*
X103284819Y-78238094D01*
X103284819Y-78238094D02*
X103284819Y-77857142D01*
X103284819Y-77857142D02*
X103332438Y-77761904D01*
X103332438Y-77761904D02*
X103380057Y-77714285D01*
X103380057Y-77714285D02*
X103475295Y-77666666D01*
X103475295Y-77666666D02*
X103618152Y-77666666D01*
X103618152Y-77666666D02*
X103713390Y-77714285D01*
X103713390Y-77714285D02*
X103761009Y-77761904D01*
X103761009Y-77761904D02*
X103808628Y-77857142D01*
X103808628Y-77857142D02*
X103808628Y-78238094D01*
X103713390Y-77095237D02*
X103665771Y-77190475D01*
X103665771Y-77190475D02*
X103618152Y-77238094D01*
X103618152Y-77238094D02*
X103522914Y-77285713D01*
X103522914Y-77285713D02*
X103475295Y-77285713D01*
X103475295Y-77285713D02*
X103380057Y-77238094D01*
X103380057Y-77238094D02*
X103332438Y-77190475D01*
X103332438Y-77190475D02*
X103284819Y-77095237D01*
X103284819Y-77095237D02*
X103284819Y-76904761D01*
X103284819Y-76904761D02*
X103332438Y-76809523D01*
X103332438Y-76809523D02*
X103380057Y-76761904D01*
X103380057Y-76761904D02*
X103475295Y-76714285D01*
X103475295Y-76714285D02*
X103522914Y-76714285D01*
X103522914Y-76714285D02*
X103618152Y-76761904D01*
X103618152Y-76761904D02*
X103665771Y-76809523D01*
X103665771Y-76809523D02*
X103713390Y-76904761D01*
X103713390Y-76904761D02*
X103713390Y-77095237D01*
X103713390Y-77095237D02*
X103761009Y-77190475D01*
X103761009Y-77190475D02*
X103808628Y-77238094D01*
X103808628Y-77238094D02*
X103903866Y-77285713D01*
X103903866Y-77285713D02*
X104094342Y-77285713D01*
X104094342Y-77285713D02*
X104189580Y-77238094D01*
X104189580Y-77238094D02*
X104237200Y-77190475D01*
X104237200Y-77190475D02*
X104284819Y-77095237D01*
X104284819Y-77095237D02*
X104284819Y-76904761D01*
X104284819Y-76904761D02*
X104237200Y-76809523D01*
X104237200Y-76809523D02*
X104189580Y-76761904D01*
X104189580Y-76761904D02*
X104094342Y-76714285D01*
X104094342Y-76714285D02*
X103903866Y-76714285D01*
X103903866Y-76714285D02*
X103808628Y-76761904D01*
X103808628Y-76761904D02*
X103761009Y-76809523D01*
X103761009Y-76809523D02*
X103713390Y-76904761D01*
X116179580Y-77042857D02*
X116227200Y-77090476D01*
X116227200Y-77090476D02*
X116274819Y-77233333D01*
X116274819Y-77233333D02*
X116274819Y-77328571D01*
X116274819Y-77328571D02*
X116227200Y-77471428D01*
X116227200Y-77471428D02*
X116131961Y-77566666D01*
X116131961Y-77566666D02*
X116036723Y-77614285D01*
X116036723Y-77614285D02*
X115846247Y-77661904D01*
X115846247Y-77661904D02*
X115703390Y-77661904D01*
X115703390Y-77661904D02*
X115512914Y-77614285D01*
X115512914Y-77614285D02*
X115417676Y-77566666D01*
X115417676Y-77566666D02*
X115322438Y-77471428D01*
X115322438Y-77471428D02*
X115274819Y-77328571D01*
X115274819Y-77328571D02*
X115274819Y-77233333D01*
X115274819Y-77233333D02*
X115322438Y-77090476D01*
X115322438Y-77090476D02*
X115370057Y-77042857D01*
X115274819Y-76709523D02*
X115274819Y-76090476D01*
X115274819Y-76090476D02*
X115655771Y-76423809D01*
X115655771Y-76423809D02*
X115655771Y-76280952D01*
X115655771Y-76280952D02*
X115703390Y-76185714D01*
X115703390Y-76185714D02*
X115751009Y-76138095D01*
X115751009Y-76138095D02*
X115846247Y-76090476D01*
X115846247Y-76090476D02*
X116084342Y-76090476D01*
X116084342Y-76090476D02*
X116179580Y-76138095D01*
X116179580Y-76138095D02*
X116227200Y-76185714D01*
X116227200Y-76185714D02*
X116274819Y-76280952D01*
X116274819Y-76280952D02*
X116274819Y-76566666D01*
X116274819Y-76566666D02*
X116227200Y-76661904D01*
X116227200Y-76661904D02*
X116179580Y-76709523D01*
X115274819Y-75757142D02*
X115274819Y-75138095D01*
X115274819Y-75138095D02*
X115655771Y-75471428D01*
X115655771Y-75471428D02*
X115655771Y-75328571D01*
X115655771Y-75328571D02*
X115703390Y-75233333D01*
X115703390Y-75233333D02*
X115751009Y-75185714D01*
X115751009Y-75185714D02*
X115846247Y-75138095D01*
X115846247Y-75138095D02*
X116084342Y-75138095D01*
X116084342Y-75138095D02*
X116179580Y-75185714D01*
X116179580Y-75185714D02*
X116227200Y-75233333D01*
X116227200Y-75233333D02*
X116274819Y-75328571D01*
X116274819Y-75328571D02*
X116274819Y-75614285D01*
X116274819Y-75614285D02*
X116227200Y-75709523D01*
X116227200Y-75709523D02*
X116179580Y-75757142D01*
X112784819Y-97142857D02*
X112308628Y-97476190D01*
X112784819Y-97714285D02*
X111784819Y-97714285D01*
X111784819Y-97714285D02*
X111784819Y-97333333D01*
X111784819Y-97333333D02*
X111832438Y-97238095D01*
X111832438Y-97238095D02*
X111880057Y-97190476D01*
X111880057Y-97190476D02*
X111975295Y-97142857D01*
X111975295Y-97142857D02*
X112118152Y-97142857D01*
X112118152Y-97142857D02*
X112213390Y-97190476D01*
X112213390Y-97190476D02*
X112261009Y-97238095D01*
X112261009Y-97238095D02*
X112308628Y-97333333D01*
X112308628Y-97333333D02*
X112308628Y-97714285D01*
X112784819Y-96190476D02*
X112784819Y-96761904D01*
X112784819Y-96476190D02*
X111784819Y-96476190D01*
X111784819Y-96476190D02*
X111927676Y-96571428D01*
X111927676Y-96571428D02*
X112022914Y-96666666D01*
X112022914Y-96666666D02*
X112070533Y-96761904D01*
X111784819Y-95857142D02*
X111784819Y-95190476D01*
X111784819Y-95190476D02*
X112784819Y-95619047D01*
X140357142Y-68599580D02*
X140309523Y-68647200D01*
X140309523Y-68647200D02*
X140166666Y-68694819D01*
X140166666Y-68694819D02*
X140071428Y-68694819D01*
X140071428Y-68694819D02*
X139928571Y-68647200D01*
X139928571Y-68647200D02*
X139833333Y-68551961D01*
X139833333Y-68551961D02*
X139785714Y-68456723D01*
X139785714Y-68456723D02*
X139738095Y-68266247D01*
X139738095Y-68266247D02*
X139738095Y-68123390D01*
X139738095Y-68123390D02*
X139785714Y-67932914D01*
X139785714Y-67932914D02*
X139833333Y-67837676D01*
X139833333Y-67837676D02*
X139928571Y-67742438D01*
X139928571Y-67742438D02*
X140071428Y-67694819D01*
X140071428Y-67694819D02*
X140166666Y-67694819D01*
X140166666Y-67694819D02*
X140309523Y-67742438D01*
X140309523Y-67742438D02*
X140357142Y-67790057D01*
X140738095Y-67790057D02*
X140785714Y-67742438D01*
X140785714Y-67742438D02*
X140880952Y-67694819D01*
X140880952Y-67694819D02*
X141119047Y-67694819D01*
X141119047Y-67694819D02*
X141214285Y-67742438D01*
X141214285Y-67742438D02*
X141261904Y-67790057D01*
X141261904Y-67790057D02*
X141309523Y-67885295D01*
X141309523Y-67885295D02*
X141309523Y-67980533D01*
X141309523Y-67980533D02*
X141261904Y-68123390D01*
X141261904Y-68123390D02*
X140690476Y-68694819D01*
X140690476Y-68694819D02*
X141309523Y-68694819D01*
X141690476Y-67790057D02*
X141738095Y-67742438D01*
X141738095Y-67742438D02*
X141833333Y-67694819D01*
X141833333Y-67694819D02*
X142071428Y-67694819D01*
X142071428Y-67694819D02*
X142166666Y-67742438D01*
X142166666Y-67742438D02*
X142214285Y-67790057D01*
X142214285Y-67790057D02*
X142261904Y-67885295D01*
X142261904Y-67885295D02*
X142261904Y-67980533D01*
X142261904Y-67980533D02*
X142214285Y-68123390D01*
X142214285Y-68123390D02*
X141642857Y-68694819D01*
X141642857Y-68694819D02*
X142261904Y-68694819D01*
X119699580Y-77142857D02*
X119747200Y-77190476D01*
X119747200Y-77190476D02*
X119794819Y-77333333D01*
X119794819Y-77333333D02*
X119794819Y-77428571D01*
X119794819Y-77428571D02*
X119747200Y-77571428D01*
X119747200Y-77571428D02*
X119651961Y-77666666D01*
X119651961Y-77666666D02*
X119556723Y-77714285D01*
X119556723Y-77714285D02*
X119366247Y-77761904D01*
X119366247Y-77761904D02*
X119223390Y-77761904D01*
X119223390Y-77761904D02*
X119032914Y-77714285D01*
X119032914Y-77714285D02*
X118937676Y-77666666D01*
X118937676Y-77666666D02*
X118842438Y-77571428D01*
X118842438Y-77571428D02*
X118794819Y-77428571D01*
X118794819Y-77428571D02*
X118794819Y-77333333D01*
X118794819Y-77333333D02*
X118842438Y-77190476D01*
X118842438Y-77190476D02*
X118890057Y-77142857D01*
X119794819Y-76190476D02*
X119794819Y-76761904D01*
X119794819Y-76476190D02*
X118794819Y-76476190D01*
X118794819Y-76476190D02*
X118937676Y-76571428D01*
X118937676Y-76571428D02*
X119032914Y-76666666D01*
X119032914Y-76666666D02*
X119080533Y-76761904D01*
X119128152Y-75333333D02*
X119794819Y-75333333D01*
X118747200Y-75571428D02*
X119461485Y-75809523D01*
X119461485Y-75809523D02*
X119461485Y-75190476D01*
X110284819Y-97142857D02*
X109808628Y-97476190D01*
X110284819Y-97714285D02*
X109284819Y-97714285D01*
X109284819Y-97714285D02*
X109284819Y-97333333D01*
X109284819Y-97333333D02*
X109332438Y-97238095D01*
X109332438Y-97238095D02*
X109380057Y-97190476D01*
X109380057Y-97190476D02*
X109475295Y-97142857D01*
X109475295Y-97142857D02*
X109618152Y-97142857D01*
X109618152Y-97142857D02*
X109713390Y-97190476D01*
X109713390Y-97190476D02*
X109761009Y-97238095D01*
X109761009Y-97238095D02*
X109808628Y-97333333D01*
X109808628Y-97333333D02*
X109808628Y-97714285D01*
X110284819Y-96190476D02*
X110284819Y-96761904D01*
X110284819Y-96476190D02*
X109284819Y-96476190D01*
X109284819Y-96476190D02*
X109427676Y-96571428D01*
X109427676Y-96571428D02*
X109522914Y-96666666D01*
X109522914Y-96666666D02*
X109570533Y-96761904D01*
X109284819Y-95333333D02*
X109284819Y-95523809D01*
X109284819Y-95523809D02*
X109332438Y-95619047D01*
X109332438Y-95619047D02*
X109380057Y-95666666D01*
X109380057Y-95666666D02*
X109522914Y-95761904D01*
X109522914Y-95761904D02*
X109713390Y-95809523D01*
X109713390Y-95809523D02*
X110094342Y-95809523D01*
X110094342Y-95809523D02*
X110189580Y-95761904D01*
X110189580Y-95761904D02*
X110237200Y-95714285D01*
X110237200Y-95714285D02*
X110284819Y-95619047D01*
X110284819Y-95619047D02*
X110284819Y-95428571D01*
X110284819Y-95428571D02*
X110237200Y-95333333D01*
X110237200Y-95333333D02*
X110189580Y-95285714D01*
X110189580Y-95285714D02*
X110094342Y-95238095D01*
X110094342Y-95238095D02*
X109856247Y-95238095D01*
X109856247Y-95238095D02*
X109761009Y-95285714D01*
X109761009Y-95285714D02*
X109713390Y-95333333D01*
X109713390Y-95333333D02*
X109665771Y-95428571D01*
X109665771Y-95428571D02*
X109665771Y-95619047D01*
X109665771Y-95619047D02*
X109713390Y-95714285D01*
X109713390Y-95714285D02*
X109761009Y-95761904D01*
X109761009Y-95761904D02*
X109856247Y-95809523D01*
X119699580Y-86142857D02*
X119747200Y-86190476D01*
X119747200Y-86190476D02*
X119794819Y-86333333D01*
X119794819Y-86333333D02*
X119794819Y-86428571D01*
X119794819Y-86428571D02*
X119747200Y-86571428D01*
X119747200Y-86571428D02*
X119651961Y-86666666D01*
X119651961Y-86666666D02*
X119556723Y-86714285D01*
X119556723Y-86714285D02*
X119366247Y-86761904D01*
X119366247Y-86761904D02*
X119223390Y-86761904D01*
X119223390Y-86761904D02*
X119032914Y-86714285D01*
X119032914Y-86714285D02*
X118937676Y-86666666D01*
X118937676Y-86666666D02*
X118842438Y-86571428D01*
X118842438Y-86571428D02*
X118794819Y-86428571D01*
X118794819Y-86428571D02*
X118794819Y-86333333D01*
X118794819Y-86333333D02*
X118842438Y-86190476D01*
X118842438Y-86190476D02*
X118890057Y-86142857D01*
X119794819Y-85190476D02*
X119794819Y-85761904D01*
X119794819Y-85476190D02*
X118794819Y-85476190D01*
X118794819Y-85476190D02*
X118937676Y-85571428D01*
X118937676Y-85571428D02*
X119032914Y-85666666D01*
X119032914Y-85666666D02*
X119080533Y-85761904D01*
X119223390Y-84619047D02*
X119175771Y-84714285D01*
X119175771Y-84714285D02*
X119128152Y-84761904D01*
X119128152Y-84761904D02*
X119032914Y-84809523D01*
X119032914Y-84809523D02*
X118985295Y-84809523D01*
X118985295Y-84809523D02*
X118890057Y-84761904D01*
X118890057Y-84761904D02*
X118842438Y-84714285D01*
X118842438Y-84714285D02*
X118794819Y-84619047D01*
X118794819Y-84619047D02*
X118794819Y-84428571D01*
X118794819Y-84428571D02*
X118842438Y-84333333D01*
X118842438Y-84333333D02*
X118890057Y-84285714D01*
X118890057Y-84285714D02*
X118985295Y-84238095D01*
X118985295Y-84238095D02*
X119032914Y-84238095D01*
X119032914Y-84238095D02*
X119128152Y-84285714D01*
X119128152Y-84285714D02*
X119175771Y-84333333D01*
X119175771Y-84333333D02*
X119223390Y-84428571D01*
X119223390Y-84428571D02*
X119223390Y-84619047D01*
X119223390Y-84619047D02*
X119271009Y-84714285D01*
X119271009Y-84714285D02*
X119318628Y-84761904D01*
X119318628Y-84761904D02*
X119413866Y-84809523D01*
X119413866Y-84809523D02*
X119604342Y-84809523D01*
X119604342Y-84809523D02*
X119699580Y-84761904D01*
X119699580Y-84761904D02*
X119747200Y-84714285D01*
X119747200Y-84714285D02*
X119794819Y-84619047D01*
X119794819Y-84619047D02*
X119794819Y-84428571D01*
X119794819Y-84428571D02*
X119747200Y-84333333D01*
X119747200Y-84333333D02*
X119699580Y-84285714D01*
X119699580Y-84285714D02*
X119604342Y-84238095D01*
X119604342Y-84238095D02*
X119413866Y-84238095D01*
X119413866Y-84238095D02*
X119318628Y-84285714D01*
X119318628Y-84285714D02*
X119271009Y-84333333D01*
X119271009Y-84333333D02*
X119223390Y-84428571D01*
X131233333Y-68984819D02*
X130900000Y-68508628D01*
X130661905Y-68984819D02*
X130661905Y-67984819D01*
X130661905Y-67984819D02*
X131042857Y-67984819D01*
X131042857Y-67984819D02*
X131138095Y-68032438D01*
X131138095Y-68032438D02*
X131185714Y-68080057D01*
X131185714Y-68080057D02*
X131233333Y-68175295D01*
X131233333Y-68175295D02*
X131233333Y-68318152D01*
X131233333Y-68318152D02*
X131185714Y-68413390D01*
X131185714Y-68413390D02*
X131138095Y-68461009D01*
X131138095Y-68461009D02*
X131042857Y-68508628D01*
X131042857Y-68508628D02*
X130661905Y-68508628D01*
X132138095Y-67984819D02*
X131661905Y-67984819D01*
X131661905Y-67984819D02*
X131614286Y-68461009D01*
X131614286Y-68461009D02*
X131661905Y-68413390D01*
X131661905Y-68413390D02*
X131757143Y-68365771D01*
X131757143Y-68365771D02*
X131995238Y-68365771D01*
X131995238Y-68365771D02*
X132090476Y-68413390D01*
X132090476Y-68413390D02*
X132138095Y-68461009D01*
X132138095Y-68461009D02*
X132185714Y-68556247D01*
X132185714Y-68556247D02*
X132185714Y-68794342D01*
X132185714Y-68794342D02*
X132138095Y-68889580D01*
X132138095Y-68889580D02*
X132090476Y-68937200D01*
X132090476Y-68937200D02*
X131995238Y-68984819D01*
X131995238Y-68984819D02*
X131757143Y-68984819D01*
X131757143Y-68984819D02*
X131661905Y-68937200D01*
X131661905Y-68937200D02*
X131614286Y-68889580D01*
X123034819Y-86242857D02*
X122558628Y-86576190D01*
X123034819Y-86814285D02*
X122034819Y-86814285D01*
X122034819Y-86814285D02*
X122034819Y-86433333D01*
X122034819Y-86433333D02*
X122082438Y-86338095D01*
X122082438Y-86338095D02*
X122130057Y-86290476D01*
X122130057Y-86290476D02*
X122225295Y-86242857D01*
X122225295Y-86242857D02*
X122368152Y-86242857D01*
X122368152Y-86242857D02*
X122463390Y-86290476D01*
X122463390Y-86290476D02*
X122511009Y-86338095D01*
X122511009Y-86338095D02*
X122558628Y-86433333D01*
X122558628Y-86433333D02*
X122558628Y-86814285D01*
X123034819Y-85290476D02*
X123034819Y-85861904D01*
X123034819Y-85576190D02*
X122034819Y-85576190D01*
X122034819Y-85576190D02*
X122177676Y-85671428D01*
X122177676Y-85671428D02*
X122272914Y-85766666D01*
X122272914Y-85766666D02*
X122320533Y-85861904D01*
X122034819Y-84957142D02*
X122034819Y-84338095D01*
X122034819Y-84338095D02*
X122415771Y-84671428D01*
X122415771Y-84671428D02*
X122415771Y-84528571D01*
X122415771Y-84528571D02*
X122463390Y-84433333D01*
X122463390Y-84433333D02*
X122511009Y-84385714D01*
X122511009Y-84385714D02*
X122606247Y-84338095D01*
X122606247Y-84338095D02*
X122844342Y-84338095D01*
X122844342Y-84338095D02*
X122939580Y-84385714D01*
X122939580Y-84385714D02*
X122987200Y-84433333D01*
X122987200Y-84433333D02*
X123034819Y-84528571D01*
X123034819Y-84528571D02*
X123034819Y-84814285D01*
X123034819Y-84814285D02*
X122987200Y-84909523D01*
X122987200Y-84909523D02*
X122939580Y-84957142D01*
X137857142Y-66699580D02*
X137809523Y-66747200D01*
X137809523Y-66747200D02*
X137666666Y-66794819D01*
X137666666Y-66794819D02*
X137571428Y-66794819D01*
X137571428Y-66794819D02*
X137428571Y-66747200D01*
X137428571Y-66747200D02*
X137333333Y-66651961D01*
X137333333Y-66651961D02*
X137285714Y-66556723D01*
X137285714Y-66556723D02*
X137238095Y-66366247D01*
X137238095Y-66366247D02*
X137238095Y-66223390D01*
X137238095Y-66223390D02*
X137285714Y-66032914D01*
X137285714Y-66032914D02*
X137333333Y-65937676D01*
X137333333Y-65937676D02*
X137428571Y-65842438D01*
X137428571Y-65842438D02*
X137571428Y-65794819D01*
X137571428Y-65794819D02*
X137666666Y-65794819D01*
X137666666Y-65794819D02*
X137809523Y-65842438D01*
X137809523Y-65842438D02*
X137857142Y-65890057D01*
X138809523Y-66794819D02*
X138238095Y-66794819D01*
X138523809Y-66794819D02*
X138523809Y-65794819D01*
X138523809Y-65794819D02*
X138428571Y-65937676D01*
X138428571Y-65937676D02*
X138333333Y-66032914D01*
X138333333Y-66032914D02*
X138238095Y-66080533D01*
X139428571Y-65794819D02*
X139523809Y-65794819D01*
X139523809Y-65794819D02*
X139619047Y-65842438D01*
X139619047Y-65842438D02*
X139666666Y-65890057D01*
X139666666Y-65890057D02*
X139714285Y-65985295D01*
X139714285Y-65985295D02*
X139761904Y-66175771D01*
X139761904Y-66175771D02*
X139761904Y-66413866D01*
X139761904Y-66413866D02*
X139714285Y-66604342D01*
X139714285Y-66604342D02*
X139666666Y-66699580D01*
X139666666Y-66699580D02*
X139619047Y-66747200D01*
X139619047Y-66747200D02*
X139523809Y-66794819D01*
X139523809Y-66794819D02*
X139428571Y-66794819D01*
X139428571Y-66794819D02*
X139333333Y-66747200D01*
X139333333Y-66747200D02*
X139285714Y-66699580D01*
X139285714Y-66699580D02*
X139238095Y-66604342D01*
X139238095Y-66604342D02*
X139190476Y-66413866D01*
X139190476Y-66413866D02*
X139190476Y-66175771D01*
X139190476Y-66175771D02*
X139238095Y-65985295D01*
X139238095Y-65985295D02*
X139285714Y-65890057D01*
X139285714Y-65890057D02*
X139333333Y-65842438D01*
X139333333Y-65842438D02*
X139428571Y-65794819D01*
X121357142Y-100284819D02*
X121023809Y-99808628D01*
X120785714Y-100284819D02*
X120785714Y-99284819D01*
X120785714Y-99284819D02*
X121166666Y-99284819D01*
X121166666Y-99284819D02*
X121261904Y-99332438D01*
X121261904Y-99332438D02*
X121309523Y-99380057D01*
X121309523Y-99380057D02*
X121357142Y-99475295D01*
X121357142Y-99475295D02*
X121357142Y-99618152D01*
X121357142Y-99618152D02*
X121309523Y-99713390D01*
X121309523Y-99713390D02*
X121261904Y-99761009D01*
X121261904Y-99761009D02*
X121166666Y-99808628D01*
X121166666Y-99808628D02*
X120785714Y-99808628D01*
X122309523Y-100284819D02*
X121738095Y-100284819D01*
X122023809Y-100284819D02*
X122023809Y-99284819D01*
X122023809Y-99284819D02*
X121928571Y-99427676D01*
X121928571Y-99427676D02*
X121833333Y-99522914D01*
X121833333Y-99522914D02*
X121738095Y-99570533D01*
X123261904Y-100284819D02*
X122690476Y-100284819D01*
X122976190Y-100284819D02*
X122976190Y-99284819D01*
X122976190Y-99284819D02*
X122880952Y-99427676D01*
X122880952Y-99427676D02*
X122785714Y-99522914D01*
X122785714Y-99522914D02*
X122690476Y-99570533D01*
X121699580Y-76666666D02*
X121747200Y-76714285D01*
X121747200Y-76714285D02*
X121794819Y-76857142D01*
X121794819Y-76857142D02*
X121794819Y-76952380D01*
X121794819Y-76952380D02*
X121747200Y-77095237D01*
X121747200Y-77095237D02*
X121651961Y-77190475D01*
X121651961Y-77190475D02*
X121556723Y-77238094D01*
X121556723Y-77238094D02*
X121366247Y-77285713D01*
X121366247Y-77285713D02*
X121223390Y-77285713D01*
X121223390Y-77285713D02*
X121032914Y-77238094D01*
X121032914Y-77238094D02*
X120937676Y-77190475D01*
X120937676Y-77190475D02*
X120842438Y-77095237D01*
X120842438Y-77095237D02*
X120794819Y-76952380D01*
X120794819Y-76952380D02*
X120794819Y-76857142D01*
X120794819Y-76857142D02*
X120842438Y-76714285D01*
X120842438Y-76714285D02*
X120890057Y-76666666D01*
X120794819Y-76333332D02*
X120794819Y-75714285D01*
X120794819Y-75714285D02*
X121175771Y-76047618D01*
X121175771Y-76047618D02*
X121175771Y-75904761D01*
X121175771Y-75904761D02*
X121223390Y-75809523D01*
X121223390Y-75809523D02*
X121271009Y-75761904D01*
X121271009Y-75761904D02*
X121366247Y-75714285D01*
X121366247Y-75714285D02*
X121604342Y-75714285D01*
X121604342Y-75714285D02*
X121699580Y-75761904D01*
X121699580Y-75761904D02*
X121747200Y-75809523D01*
X121747200Y-75809523D02*
X121794819Y-75904761D01*
X121794819Y-75904761D02*
X121794819Y-76190475D01*
X121794819Y-76190475D02*
X121747200Y-76285713D01*
X121747200Y-76285713D02*
X121699580Y-76333332D01*
X107699580Y-97142857D02*
X107747200Y-97190476D01*
X107747200Y-97190476D02*
X107794819Y-97333333D01*
X107794819Y-97333333D02*
X107794819Y-97428571D01*
X107794819Y-97428571D02*
X107747200Y-97571428D01*
X107747200Y-97571428D02*
X107651961Y-97666666D01*
X107651961Y-97666666D02*
X107556723Y-97714285D01*
X107556723Y-97714285D02*
X107366247Y-97761904D01*
X107366247Y-97761904D02*
X107223390Y-97761904D01*
X107223390Y-97761904D02*
X107032914Y-97714285D01*
X107032914Y-97714285D02*
X106937676Y-97666666D01*
X106937676Y-97666666D02*
X106842438Y-97571428D01*
X106842438Y-97571428D02*
X106794819Y-97428571D01*
X106794819Y-97428571D02*
X106794819Y-97333333D01*
X106794819Y-97333333D02*
X106842438Y-97190476D01*
X106842438Y-97190476D02*
X106890057Y-97142857D01*
X107128152Y-96285714D02*
X107794819Y-96285714D01*
X106747200Y-96523809D02*
X107461485Y-96761904D01*
X107461485Y-96761904D02*
X107461485Y-96142857D01*
X106794819Y-95571428D02*
X106794819Y-95476190D01*
X106794819Y-95476190D02*
X106842438Y-95380952D01*
X106842438Y-95380952D02*
X106890057Y-95333333D01*
X106890057Y-95333333D02*
X106985295Y-95285714D01*
X106985295Y-95285714D02*
X107175771Y-95238095D01*
X107175771Y-95238095D02*
X107413866Y-95238095D01*
X107413866Y-95238095D02*
X107604342Y-95285714D01*
X107604342Y-95285714D02*
X107699580Y-95333333D01*
X107699580Y-95333333D02*
X107747200Y-95380952D01*
X107747200Y-95380952D02*
X107794819Y-95476190D01*
X107794819Y-95476190D02*
X107794819Y-95571428D01*
X107794819Y-95571428D02*
X107747200Y-95666666D01*
X107747200Y-95666666D02*
X107699580Y-95714285D01*
X107699580Y-95714285D02*
X107604342Y-95761904D01*
X107604342Y-95761904D02*
X107413866Y-95809523D01*
X107413866Y-95809523D02*
X107175771Y-95809523D01*
X107175771Y-95809523D02*
X106985295Y-95761904D01*
X106985295Y-95761904D02*
X106890057Y-95714285D01*
X106890057Y-95714285D02*
X106842438Y-95666666D01*
X106842438Y-95666666D02*
X106794819Y-95571428D01*
X122357142Y-66429580D02*
X122309523Y-66477200D01*
X122309523Y-66477200D02*
X122166666Y-66524819D01*
X122166666Y-66524819D02*
X122071428Y-66524819D01*
X122071428Y-66524819D02*
X121928571Y-66477200D01*
X121928571Y-66477200D02*
X121833333Y-66381961D01*
X121833333Y-66381961D02*
X121785714Y-66286723D01*
X121785714Y-66286723D02*
X121738095Y-66096247D01*
X121738095Y-66096247D02*
X121738095Y-65953390D01*
X121738095Y-65953390D02*
X121785714Y-65762914D01*
X121785714Y-65762914D02*
X121833333Y-65667676D01*
X121833333Y-65667676D02*
X121928571Y-65572438D01*
X121928571Y-65572438D02*
X122071428Y-65524819D01*
X122071428Y-65524819D02*
X122166666Y-65524819D01*
X122166666Y-65524819D02*
X122309523Y-65572438D01*
X122309523Y-65572438D02*
X122357142Y-65620057D01*
X122690476Y-65524819D02*
X123309523Y-65524819D01*
X123309523Y-65524819D02*
X122976190Y-65905771D01*
X122976190Y-65905771D02*
X123119047Y-65905771D01*
X123119047Y-65905771D02*
X123214285Y-65953390D01*
X123214285Y-65953390D02*
X123261904Y-66001009D01*
X123261904Y-66001009D02*
X123309523Y-66096247D01*
X123309523Y-66096247D02*
X123309523Y-66334342D01*
X123309523Y-66334342D02*
X123261904Y-66429580D01*
X123261904Y-66429580D02*
X123214285Y-66477200D01*
X123214285Y-66477200D02*
X123119047Y-66524819D01*
X123119047Y-66524819D02*
X122833333Y-66524819D01*
X122833333Y-66524819D02*
X122738095Y-66477200D01*
X122738095Y-66477200D02*
X122690476Y-66429580D01*
X124166666Y-65524819D02*
X123976190Y-65524819D01*
X123976190Y-65524819D02*
X123880952Y-65572438D01*
X123880952Y-65572438D02*
X123833333Y-65620057D01*
X123833333Y-65620057D02*
X123738095Y-65762914D01*
X123738095Y-65762914D02*
X123690476Y-65953390D01*
X123690476Y-65953390D02*
X123690476Y-66334342D01*
X123690476Y-66334342D02*
X123738095Y-66429580D01*
X123738095Y-66429580D02*
X123785714Y-66477200D01*
X123785714Y-66477200D02*
X123880952Y-66524819D01*
X123880952Y-66524819D02*
X124071428Y-66524819D01*
X124071428Y-66524819D02*
X124166666Y-66477200D01*
X124166666Y-66477200D02*
X124214285Y-66429580D01*
X124214285Y-66429580D02*
X124261904Y-66334342D01*
X124261904Y-66334342D02*
X124261904Y-66096247D01*
X124261904Y-66096247D02*
X124214285Y-66001009D01*
X124214285Y-66001009D02*
X124166666Y-65953390D01*
X124166666Y-65953390D02*
X124071428Y-65905771D01*
X124071428Y-65905771D02*
X123880952Y-65905771D01*
X123880952Y-65905771D02*
X123785714Y-65953390D01*
X123785714Y-65953390D02*
X123738095Y-66001009D01*
X123738095Y-66001009D02*
X123690476Y-66096247D01*
X102429580Y-87642857D02*
X102477200Y-87690476D01*
X102477200Y-87690476D02*
X102524819Y-87833333D01*
X102524819Y-87833333D02*
X102524819Y-87928571D01*
X102524819Y-87928571D02*
X102477200Y-88071428D01*
X102477200Y-88071428D02*
X102381961Y-88166666D01*
X102381961Y-88166666D02*
X102286723Y-88214285D01*
X102286723Y-88214285D02*
X102096247Y-88261904D01*
X102096247Y-88261904D02*
X101953390Y-88261904D01*
X101953390Y-88261904D02*
X101762914Y-88214285D01*
X101762914Y-88214285D02*
X101667676Y-88166666D01*
X101667676Y-88166666D02*
X101572438Y-88071428D01*
X101572438Y-88071428D02*
X101524819Y-87928571D01*
X101524819Y-87928571D02*
X101524819Y-87833333D01*
X101524819Y-87833333D02*
X101572438Y-87690476D01*
X101572438Y-87690476D02*
X101620057Y-87642857D01*
X101524819Y-87309523D02*
X101524819Y-86690476D01*
X101524819Y-86690476D02*
X101905771Y-87023809D01*
X101905771Y-87023809D02*
X101905771Y-86880952D01*
X101905771Y-86880952D02*
X101953390Y-86785714D01*
X101953390Y-86785714D02*
X102001009Y-86738095D01*
X102001009Y-86738095D02*
X102096247Y-86690476D01*
X102096247Y-86690476D02*
X102334342Y-86690476D01*
X102334342Y-86690476D02*
X102429580Y-86738095D01*
X102429580Y-86738095D02*
X102477200Y-86785714D01*
X102477200Y-86785714D02*
X102524819Y-86880952D01*
X102524819Y-86880952D02*
X102524819Y-87166666D01*
X102524819Y-87166666D02*
X102477200Y-87261904D01*
X102477200Y-87261904D02*
X102429580Y-87309523D01*
X101858152Y-85833333D02*
X102524819Y-85833333D01*
X101477200Y-86071428D02*
X102191485Y-86309523D01*
X102191485Y-86309523D02*
X102191485Y-85690476D01*
X106238095Y-79054819D02*
X106238095Y-79864342D01*
X106238095Y-79864342D02*
X106285714Y-79959580D01*
X106285714Y-79959580D02*
X106333333Y-80007200D01*
X106333333Y-80007200D02*
X106428571Y-80054819D01*
X106428571Y-80054819D02*
X106619047Y-80054819D01*
X106619047Y-80054819D02*
X106714285Y-80007200D01*
X106714285Y-80007200D02*
X106761904Y-79959580D01*
X106761904Y-79959580D02*
X106809523Y-79864342D01*
X106809523Y-79864342D02*
X106809523Y-79054819D01*
X107238095Y-79150057D02*
X107285714Y-79102438D01*
X107285714Y-79102438D02*
X107380952Y-79054819D01*
X107380952Y-79054819D02*
X107619047Y-79054819D01*
X107619047Y-79054819D02*
X107714285Y-79102438D01*
X107714285Y-79102438D02*
X107761904Y-79150057D01*
X107761904Y-79150057D02*
X107809523Y-79245295D01*
X107809523Y-79245295D02*
X107809523Y-79340533D01*
X107809523Y-79340533D02*
X107761904Y-79483390D01*
X107761904Y-79483390D02*
X107190476Y-80054819D01*
X107190476Y-80054819D02*
X107809523Y-80054819D01*
X121699580Y-85666666D02*
X121747200Y-85714285D01*
X121747200Y-85714285D02*
X121794819Y-85857142D01*
X121794819Y-85857142D02*
X121794819Y-85952380D01*
X121794819Y-85952380D02*
X121747200Y-86095237D01*
X121747200Y-86095237D02*
X121651961Y-86190475D01*
X121651961Y-86190475D02*
X121556723Y-86238094D01*
X121556723Y-86238094D02*
X121366247Y-86285713D01*
X121366247Y-86285713D02*
X121223390Y-86285713D01*
X121223390Y-86285713D02*
X121032914Y-86238094D01*
X121032914Y-86238094D02*
X120937676Y-86190475D01*
X120937676Y-86190475D02*
X120842438Y-86095237D01*
X120842438Y-86095237D02*
X120794819Y-85952380D01*
X120794819Y-85952380D02*
X120794819Y-85857142D01*
X120794819Y-85857142D02*
X120842438Y-85714285D01*
X120842438Y-85714285D02*
X120890057Y-85666666D01*
X120794819Y-85333332D02*
X120794819Y-84666666D01*
X120794819Y-84666666D02*
X121794819Y-85095237D01*
X135238095Y-71572819D02*
X135238095Y-72382342D01*
X135238095Y-72382342D02*
X135285714Y-72477580D01*
X135285714Y-72477580D02*
X135333333Y-72525200D01*
X135333333Y-72525200D02*
X135428571Y-72572819D01*
X135428571Y-72572819D02*
X135619047Y-72572819D01*
X135619047Y-72572819D02*
X135714285Y-72525200D01*
X135714285Y-72525200D02*
X135761904Y-72477580D01*
X135761904Y-72477580D02*
X135809523Y-72382342D01*
X135809523Y-72382342D02*
X135809523Y-71572819D01*
X136809523Y-72572819D02*
X136238095Y-72572819D01*
X136523809Y-72572819D02*
X136523809Y-71572819D01*
X136523809Y-71572819D02*
X136428571Y-71715676D01*
X136428571Y-71715676D02*
X136333333Y-71810914D01*
X136333333Y-71810914D02*
X136238095Y-71858533D01*
X121699580Y-88642857D02*
X121747200Y-88690476D01*
X121747200Y-88690476D02*
X121794819Y-88833333D01*
X121794819Y-88833333D02*
X121794819Y-88928571D01*
X121794819Y-88928571D02*
X121747200Y-89071428D01*
X121747200Y-89071428D02*
X121651961Y-89166666D01*
X121651961Y-89166666D02*
X121556723Y-89214285D01*
X121556723Y-89214285D02*
X121366247Y-89261904D01*
X121366247Y-89261904D02*
X121223390Y-89261904D01*
X121223390Y-89261904D02*
X121032914Y-89214285D01*
X121032914Y-89214285D02*
X120937676Y-89166666D01*
X120937676Y-89166666D02*
X120842438Y-89071428D01*
X120842438Y-89071428D02*
X120794819Y-88928571D01*
X120794819Y-88928571D02*
X120794819Y-88833333D01*
X120794819Y-88833333D02*
X120842438Y-88690476D01*
X120842438Y-88690476D02*
X120890057Y-88642857D01*
X120890057Y-88261904D02*
X120842438Y-88214285D01*
X120842438Y-88214285D02*
X120794819Y-88119047D01*
X120794819Y-88119047D02*
X120794819Y-87880952D01*
X120794819Y-87880952D02*
X120842438Y-87785714D01*
X120842438Y-87785714D02*
X120890057Y-87738095D01*
X120890057Y-87738095D02*
X120985295Y-87690476D01*
X120985295Y-87690476D02*
X121080533Y-87690476D01*
X121080533Y-87690476D02*
X121223390Y-87738095D01*
X121223390Y-87738095D02*
X121794819Y-88309523D01*
X121794819Y-88309523D02*
X121794819Y-87690476D01*
X120794819Y-86833333D02*
X120794819Y-87023809D01*
X120794819Y-87023809D02*
X120842438Y-87119047D01*
X120842438Y-87119047D02*
X120890057Y-87166666D01*
X120890057Y-87166666D02*
X121032914Y-87261904D01*
X121032914Y-87261904D02*
X121223390Y-87309523D01*
X121223390Y-87309523D02*
X121604342Y-87309523D01*
X121604342Y-87309523D02*
X121699580Y-87261904D01*
X121699580Y-87261904D02*
X121747200Y-87214285D01*
X121747200Y-87214285D02*
X121794819Y-87119047D01*
X121794819Y-87119047D02*
X121794819Y-86928571D01*
X121794819Y-86928571D02*
X121747200Y-86833333D01*
X121747200Y-86833333D02*
X121699580Y-86785714D01*
X121699580Y-86785714D02*
X121604342Y-86738095D01*
X121604342Y-86738095D02*
X121366247Y-86738095D01*
X121366247Y-86738095D02*
X121271009Y-86785714D01*
X121271009Y-86785714D02*
X121223390Y-86833333D01*
X121223390Y-86833333D02*
X121175771Y-86928571D01*
X121175771Y-86928571D02*
X121175771Y-87119047D01*
X121175771Y-87119047D02*
X121223390Y-87214285D01*
X121223390Y-87214285D02*
X121271009Y-87261904D01*
X121271009Y-87261904D02*
X121366247Y-87309523D01*
X109929580Y-82642857D02*
X109977200Y-82690476D01*
X109977200Y-82690476D02*
X110024819Y-82833333D01*
X110024819Y-82833333D02*
X110024819Y-82928571D01*
X110024819Y-82928571D02*
X109977200Y-83071428D01*
X109977200Y-83071428D02*
X109881961Y-83166666D01*
X109881961Y-83166666D02*
X109786723Y-83214285D01*
X109786723Y-83214285D02*
X109596247Y-83261904D01*
X109596247Y-83261904D02*
X109453390Y-83261904D01*
X109453390Y-83261904D02*
X109262914Y-83214285D01*
X109262914Y-83214285D02*
X109167676Y-83166666D01*
X109167676Y-83166666D02*
X109072438Y-83071428D01*
X109072438Y-83071428D02*
X109024819Y-82928571D01*
X109024819Y-82928571D02*
X109024819Y-82833333D01*
X109024819Y-82833333D02*
X109072438Y-82690476D01*
X109072438Y-82690476D02*
X109120057Y-82642857D01*
X109024819Y-82309523D02*
X109024819Y-81690476D01*
X109024819Y-81690476D02*
X109405771Y-82023809D01*
X109405771Y-82023809D02*
X109405771Y-81880952D01*
X109405771Y-81880952D02*
X109453390Y-81785714D01*
X109453390Y-81785714D02*
X109501009Y-81738095D01*
X109501009Y-81738095D02*
X109596247Y-81690476D01*
X109596247Y-81690476D02*
X109834342Y-81690476D01*
X109834342Y-81690476D02*
X109929580Y-81738095D01*
X109929580Y-81738095D02*
X109977200Y-81785714D01*
X109977200Y-81785714D02*
X110024819Y-81880952D01*
X110024819Y-81880952D02*
X110024819Y-82166666D01*
X110024819Y-82166666D02*
X109977200Y-82261904D01*
X109977200Y-82261904D02*
X109929580Y-82309523D01*
X109024819Y-81071428D02*
X109024819Y-80976190D01*
X109024819Y-80976190D02*
X109072438Y-80880952D01*
X109072438Y-80880952D02*
X109120057Y-80833333D01*
X109120057Y-80833333D02*
X109215295Y-80785714D01*
X109215295Y-80785714D02*
X109405771Y-80738095D01*
X109405771Y-80738095D02*
X109643866Y-80738095D01*
X109643866Y-80738095D02*
X109834342Y-80785714D01*
X109834342Y-80785714D02*
X109929580Y-80833333D01*
X109929580Y-80833333D02*
X109977200Y-80880952D01*
X109977200Y-80880952D02*
X110024819Y-80976190D01*
X110024819Y-80976190D02*
X110024819Y-81071428D01*
X110024819Y-81071428D02*
X109977200Y-81166666D01*
X109977200Y-81166666D02*
X109929580Y-81214285D01*
X109929580Y-81214285D02*
X109834342Y-81261904D01*
X109834342Y-81261904D02*
X109643866Y-81309523D01*
X109643866Y-81309523D02*
X109405771Y-81309523D01*
X109405771Y-81309523D02*
X109215295Y-81261904D01*
X109215295Y-81261904D02*
X109120057Y-81214285D01*
X109120057Y-81214285D02*
X109072438Y-81166666D01*
X109072438Y-81166666D02*
X109024819Y-81071428D01*
X128733333Y-68984819D02*
X128400000Y-68508628D01*
X128161905Y-68984819D02*
X128161905Y-67984819D01*
X128161905Y-67984819D02*
X128542857Y-67984819D01*
X128542857Y-67984819D02*
X128638095Y-68032438D01*
X128638095Y-68032438D02*
X128685714Y-68080057D01*
X128685714Y-68080057D02*
X128733333Y-68175295D01*
X128733333Y-68175295D02*
X128733333Y-68318152D01*
X128733333Y-68318152D02*
X128685714Y-68413390D01*
X128685714Y-68413390D02*
X128638095Y-68461009D01*
X128638095Y-68461009D02*
X128542857Y-68508628D01*
X128542857Y-68508628D02*
X128161905Y-68508628D01*
X129590476Y-67984819D02*
X129400000Y-67984819D01*
X129400000Y-67984819D02*
X129304762Y-68032438D01*
X129304762Y-68032438D02*
X129257143Y-68080057D01*
X129257143Y-68080057D02*
X129161905Y-68222914D01*
X129161905Y-68222914D02*
X129114286Y-68413390D01*
X129114286Y-68413390D02*
X129114286Y-68794342D01*
X129114286Y-68794342D02*
X129161905Y-68889580D01*
X129161905Y-68889580D02*
X129209524Y-68937200D01*
X129209524Y-68937200D02*
X129304762Y-68984819D01*
X129304762Y-68984819D02*
X129495238Y-68984819D01*
X129495238Y-68984819D02*
X129590476Y-68937200D01*
X129590476Y-68937200D02*
X129638095Y-68889580D01*
X129638095Y-68889580D02*
X129685714Y-68794342D01*
X129685714Y-68794342D02*
X129685714Y-68556247D01*
X129685714Y-68556247D02*
X129638095Y-68461009D01*
X129638095Y-68461009D02*
X129590476Y-68413390D01*
X129590476Y-68413390D02*
X129495238Y-68365771D01*
X129495238Y-68365771D02*
X129304762Y-68365771D01*
X129304762Y-68365771D02*
X129209524Y-68413390D01*
X129209524Y-68413390D02*
X129161905Y-68461009D01*
X129161905Y-68461009D02*
X129114286Y-68556247D01*
X120699580Y-81666666D02*
X120747200Y-81714285D01*
X120747200Y-81714285D02*
X120794819Y-81857142D01*
X120794819Y-81857142D02*
X120794819Y-81952380D01*
X120794819Y-81952380D02*
X120747200Y-82095237D01*
X120747200Y-82095237D02*
X120651961Y-82190475D01*
X120651961Y-82190475D02*
X120556723Y-82238094D01*
X120556723Y-82238094D02*
X120366247Y-82285713D01*
X120366247Y-82285713D02*
X120223390Y-82285713D01*
X120223390Y-82285713D02*
X120032914Y-82238094D01*
X120032914Y-82238094D02*
X119937676Y-82190475D01*
X119937676Y-82190475D02*
X119842438Y-82095237D01*
X119842438Y-82095237D02*
X119794819Y-81952380D01*
X119794819Y-81952380D02*
X119794819Y-81857142D01*
X119794819Y-81857142D02*
X119842438Y-81714285D01*
X119842438Y-81714285D02*
X119890057Y-81666666D01*
X119794819Y-80761904D02*
X119794819Y-81238094D01*
X119794819Y-81238094D02*
X120271009Y-81285713D01*
X120271009Y-81285713D02*
X120223390Y-81238094D01*
X120223390Y-81238094D02*
X120175771Y-81142856D01*
X120175771Y-81142856D02*
X120175771Y-80904761D01*
X120175771Y-80904761D02*
X120223390Y-80809523D01*
X120223390Y-80809523D02*
X120271009Y-80761904D01*
X120271009Y-80761904D02*
X120366247Y-80714285D01*
X120366247Y-80714285D02*
X120604342Y-80714285D01*
X120604342Y-80714285D02*
X120699580Y-80761904D01*
X120699580Y-80761904D02*
X120747200Y-80809523D01*
X120747200Y-80809523D02*
X120794819Y-80904761D01*
X120794819Y-80904761D02*
X120794819Y-81142856D01*
X120794819Y-81142856D02*
X120747200Y-81238094D01*
X120747200Y-81238094D02*
X120699580Y-81285713D01*
X126238095Y-64554819D02*
X126238095Y-65364342D01*
X126238095Y-65364342D02*
X126285714Y-65459580D01*
X126285714Y-65459580D02*
X126333333Y-65507200D01*
X126333333Y-65507200D02*
X126428571Y-65554819D01*
X126428571Y-65554819D02*
X126619047Y-65554819D01*
X126619047Y-65554819D02*
X126714285Y-65507200D01*
X126714285Y-65507200D02*
X126761904Y-65459580D01*
X126761904Y-65459580D02*
X126809523Y-65364342D01*
X126809523Y-65364342D02*
X126809523Y-64554819D01*
X127761904Y-64554819D02*
X127285714Y-64554819D01*
X127285714Y-64554819D02*
X127238095Y-65031009D01*
X127238095Y-65031009D02*
X127285714Y-64983390D01*
X127285714Y-64983390D02*
X127380952Y-64935771D01*
X127380952Y-64935771D02*
X127619047Y-64935771D01*
X127619047Y-64935771D02*
X127714285Y-64983390D01*
X127714285Y-64983390D02*
X127761904Y-65031009D01*
X127761904Y-65031009D02*
X127809523Y-65126247D01*
X127809523Y-65126247D02*
X127809523Y-65364342D01*
X127809523Y-65364342D02*
X127761904Y-65459580D01*
X127761904Y-65459580D02*
X127714285Y-65507200D01*
X127714285Y-65507200D02*
X127619047Y-65554819D01*
X127619047Y-65554819D02*
X127380952Y-65554819D01*
X127380952Y-65554819D02*
X127285714Y-65507200D01*
X127285714Y-65507200D02*
X127238095Y-65459580D01*
X132857142Y-68599580D02*
X132809523Y-68647200D01*
X132809523Y-68647200D02*
X132666666Y-68694819D01*
X132666666Y-68694819D02*
X132571428Y-68694819D01*
X132571428Y-68694819D02*
X132428571Y-68647200D01*
X132428571Y-68647200D02*
X132333333Y-68551961D01*
X132333333Y-68551961D02*
X132285714Y-68456723D01*
X132285714Y-68456723D02*
X132238095Y-68266247D01*
X132238095Y-68266247D02*
X132238095Y-68123390D01*
X132238095Y-68123390D02*
X132285714Y-67932914D01*
X132285714Y-67932914D02*
X132333333Y-67837676D01*
X132333333Y-67837676D02*
X132428571Y-67742438D01*
X132428571Y-67742438D02*
X132571428Y-67694819D01*
X132571428Y-67694819D02*
X132666666Y-67694819D01*
X132666666Y-67694819D02*
X132809523Y-67742438D01*
X132809523Y-67742438D02*
X132857142Y-67790057D01*
X133809523Y-68694819D02*
X133238095Y-68694819D01*
X133523809Y-68694819D02*
X133523809Y-67694819D01*
X133523809Y-67694819D02*
X133428571Y-67837676D01*
X133428571Y-67837676D02*
X133333333Y-67932914D01*
X133333333Y-67932914D02*
X133238095Y-67980533D01*
X134285714Y-68694819D02*
X134476190Y-68694819D01*
X134476190Y-68694819D02*
X134571428Y-68647200D01*
X134571428Y-68647200D02*
X134619047Y-68599580D01*
X134619047Y-68599580D02*
X134714285Y-68456723D01*
X134714285Y-68456723D02*
X134761904Y-68266247D01*
X134761904Y-68266247D02*
X134761904Y-67885295D01*
X134761904Y-67885295D02*
X134714285Y-67790057D01*
X134714285Y-67790057D02*
X134666666Y-67742438D01*
X134666666Y-67742438D02*
X134571428Y-67694819D01*
X134571428Y-67694819D02*
X134380952Y-67694819D01*
X134380952Y-67694819D02*
X134285714Y-67742438D01*
X134285714Y-67742438D02*
X134238095Y-67790057D01*
X134238095Y-67790057D02*
X134190476Y-67885295D01*
X134190476Y-67885295D02*
X134190476Y-68123390D01*
X134190476Y-68123390D02*
X134238095Y-68218628D01*
X134238095Y-68218628D02*
X134285714Y-68266247D01*
X134285714Y-68266247D02*
X134380952Y-68313866D01*
X134380952Y-68313866D02*
X134571428Y-68313866D01*
X134571428Y-68313866D02*
X134666666Y-68266247D01*
X134666666Y-68266247D02*
X134714285Y-68218628D01*
X134714285Y-68218628D02*
X134761904Y-68123390D01*
X112699580Y-92642857D02*
X112747200Y-92690476D01*
X112747200Y-92690476D02*
X112794819Y-92833333D01*
X112794819Y-92833333D02*
X112794819Y-92928571D01*
X112794819Y-92928571D02*
X112747200Y-93071428D01*
X112747200Y-93071428D02*
X112651961Y-93166666D01*
X112651961Y-93166666D02*
X112556723Y-93214285D01*
X112556723Y-93214285D02*
X112366247Y-93261904D01*
X112366247Y-93261904D02*
X112223390Y-93261904D01*
X112223390Y-93261904D02*
X112032914Y-93214285D01*
X112032914Y-93214285D02*
X111937676Y-93166666D01*
X111937676Y-93166666D02*
X111842438Y-93071428D01*
X111842438Y-93071428D02*
X111794819Y-92928571D01*
X111794819Y-92928571D02*
X111794819Y-92833333D01*
X111794819Y-92833333D02*
X111842438Y-92690476D01*
X111842438Y-92690476D02*
X111890057Y-92642857D01*
X111794819Y-92309523D02*
X111794819Y-91690476D01*
X111794819Y-91690476D02*
X112175771Y-92023809D01*
X112175771Y-92023809D02*
X112175771Y-91880952D01*
X112175771Y-91880952D02*
X112223390Y-91785714D01*
X112223390Y-91785714D02*
X112271009Y-91738095D01*
X112271009Y-91738095D02*
X112366247Y-91690476D01*
X112366247Y-91690476D02*
X112604342Y-91690476D01*
X112604342Y-91690476D02*
X112699580Y-91738095D01*
X112699580Y-91738095D02*
X112747200Y-91785714D01*
X112747200Y-91785714D02*
X112794819Y-91880952D01*
X112794819Y-91880952D02*
X112794819Y-92166666D01*
X112794819Y-92166666D02*
X112747200Y-92261904D01*
X112747200Y-92261904D02*
X112699580Y-92309523D01*
X112794819Y-91214285D02*
X112794819Y-91023809D01*
X112794819Y-91023809D02*
X112747200Y-90928571D01*
X112747200Y-90928571D02*
X112699580Y-90880952D01*
X112699580Y-90880952D02*
X112556723Y-90785714D01*
X112556723Y-90785714D02*
X112366247Y-90738095D01*
X112366247Y-90738095D02*
X111985295Y-90738095D01*
X111985295Y-90738095D02*
X111890057Y-90785714D01*
X111890057Y-90785714D02*
X111842438Y-90833333D01*
X111842438Y-90833333D02*
X111794819Y-90928571D01*
X111794819Y-90928571D02*
X111794819Y-91119047D01*
X111794819Y-91119047D02*
X111842438Y-91214285D01*
X111842438Y-91214285D02*
X111890057Y-91261904D01*
X111890057Y-91261904D02*
X111985295Y-91309523D01*
X111985295Y-91309523D02*
X112223390Y-91309523D01*
X112223390Y-91309523D02*
X112318628Y-91261904D01*
X112318628Y-91261904D02*
X112366247Y-91214285D01*
X112366247Y-91214285D02*
X112413866Y-91119047D01*
X112413866Y-91119047D02*
X112413866Y-90928571D01*
X112413866Y-90928571D02*
X112366247Y-90833333D01*
X112366247Y-90833333D02*
X112318628Y-90785714D01*
X112318628Y-90785714D02*
X112223390Y-90738095D01*
X121699580Y-72666666D02*
X121747200Y-72714285D01*
X121747200Y-72714285D02*
X121794819Y-72857142D01*
X121794819Y-72857142D02*
X121794819Y-72952380D01*
X121794819Y-72952380D02*
X121747200Y-73095237D01*
X121747200Y-73095237D02*
X121651961Y-73190475D01*
X121651961Y-73190475D02*
X121556723Y-73238094D01*
X121556723Y-73238094D02*
X121366247Y-73285713D01*
X121366247Y-73285713D02*
X121223390Y-73285713D01*
X121223390Y-73285713D02*
X121032914Y-73238094D01*
X121032914Y-73238094D02*
X120937676Y-73190475D01*
X120937676Y-73190475D02*
X120842438Y-73095237D01*
X120842438Y-73095237D02*
X120794819Y-72952380D01*
X120794819Y-72952380D02*
X120794819Y-72857142D01*
X120794819Y-72857142D02*
X120842438Y-72714285D01*
X120842438Y-72714285D02*
X120890057Y-72666666D01*
X121794819Y-71714285D02*
X121794819Y-72285713D01*
X121794819Y-71999999D02*
X120794819Y-71999999D01*
X120794819Y-71999999D02*
X120937676Y-72095237D01*
X120937676Y-72095237D02*
X121032914Y-72190475D01*
X121032914Y-72190475D02*
X121080533Y-72285713D01*
X121699580Y-74666666D02*
X121747200Y-74714285D01*
X121747200Y-74714285D02*
X121794819Y-74857142D01*
X121794819Y-74857142D02*
X121794819Y-74952380D01*
X121794819Y-74952380D02*
X121747200Y-75095237D01*
X121747200Y-75095237D02*
X121651961Y-75190475D01*
X121651961Y-75190475D02*
X121556723Y-75238094D01*
X121556723Y-75238094D02*
X121366247Y-75285713D01*
X121366247Y-75285713D02*
X121223390Y-75285713D01*
X121223390Y-75285713D02*
X121032914Y-75238094D01*
X121032914Y-75238094D02*
X120937676Y-75190475D01*
X120937676Y-75190475D02*
X120842438Y-75095237D01*
X120842438Y-75095237D02*
X120794819Y-74952380D01*
X120794819Y-74952380D02*
X120794819Y-74857142D01*
X120794819Y-74857142D02*
X120842438Y-74714285D01*
X120842438Y-74714285D02*
X120890057Y-74666666D01*
X120890057Y-74285713D02*
X120842438Y-74238094D01*
X120842438Y-74238094D02*
X120794819Y-74142856D01*
X120794819Y-74142856D02*
X120794819Y-73904761D01*
X120794819Y-73904761D02*
X120842438Y-73809523D01*
X120842438Y-73809523D02*
X120890057Y-73761904D01*
X120890057Y-73761904D02*
X120985295Y-73714285D01*
X120985295Y-73714285D02*
X121080533Y-73714285D01*
X121080533Y-73714285D02*
X121223390Y-73761904D01*
X121223390Y-73761904D02*
X121794819Y-74333332D01*
X121794819Y-74333332D02*
X121794819Y-73714285D01*
X147484819Y-78666666D02*
X147008628Y-78999999D01*
X147484819Y-79238094D02*
X146484819Y-79238094D01*
X146484819Y-79238094D02*
X146484819Y-78857142D01*
X146484819Y-78857142D02*
X146532438Y-78761904D01*
X146532438Y-78761904D02*
X146580057Y-78714285D01*
X146580057Y-78714285D02*
X146675295Y-78666666D01*
X146675295Y-78666666D02*
X146818152Y-78666666D01*
X146818152Y-78666666D02*
X146913390Y-78714285D01*
X146913390Y-78714285D02*
X146961009Y-78761904D01*
X146961009Y-78761904D02*
X147008628Y-78857142D01*
X147008628Y-78857142D02*
X147008628Y-79238094D01*
X147484819Y-77714285D02*
X147484819Y-78285713D01*
X147484819Y-77999999D02*
X146484819Y-77999999D01*
X146484819Y-77999999D02*
X146627676Y-78095237D01*
X146627676Y-78095237D02*
X146722914Y-78190475D01*
X146722914Y-78190475D02*
X146770533Y-78285713D01*
X119699580Y-73142857D02*
X119747200Y-73190476D01*
X119747200Y-73190476D02*
X119794819Y-73333333D01*
X119794819Y-73333333D02*
X119794819Y-73428571D01*
X119794819Y-73428571D02*
X119747200Y-73571428D01*
X119747200Y-73571428D02*
X119651961Y-73666666D01*
X119651961Y-73666666D02*
X119556723Y-73714285D01*
X119556723Y-73714285D02*
X119366247Y-73761904D01*
X119366247Y-73761904D02*
X119223390Y-73761904D01*
X119223390Y-73761904D02*
X119032914Y-73714285D01*
X119032914Y-73714285D02*
X118937676Y-73666666D01*
X118937676Y-73666666D02*
X118842438Y-73571428D01*
X118842438Y-73571428D02*
X118794819Y-73428571D01*
X118794819Y-73428571D02*
X118794819Y-73333333D01*
X118794819Y-73333333D02*
X118842438Y-73190476D01*
X118842438Y-73190476D02*
X118890057Y-73142857D01*
X119794819Y-72190476D02*
X119794819Y-72761904D01*
X119794819Y-72476190D02*
X118794819Y-72476190D01*
X118794819Y-72476190D02*
X118937676Y-72571428D01*
X118937676Y-72571428D02*
X119032914Y-72666666D01*
X119032914Y-72666666D02*
X119080533Y-72761904D01*
X118890057Y-71809523D02*
X118842438Y-71761904D01*
X118842438Y-71761904D02*
X118794819Y-71666666D01*
X118794819Y-71666666D02*
X118794819Y-71428571D01*
X118794819Y-71428571D02*
X118842438Y-71333333D01*
X118842438Y-71333333D02*
X118890057Y-71285714D01*
X118890057Y-71285714D02*
X118985295Y-71238095D01*
X118985295Y-71238095D02*
X119080533Y-71238095D01*
X119080533Y-71238095D02*
X119223390Y-71285714D01*
X119223390Y-71285714D02*
X119794819Y-71857142D01*
X119794819Y-71857142D02*
X119794819Y-71238095D01*
X106784819Y-77666666D02*
X106308628Y-77999999D01*
X106784819Y-78238094D02*
X105784819Y-78238094D01*
X105784819Y-78238094D02*
X105784819Y-77857142D01*
X105784819Y-77857142D02*
X105832438Y-77761904D01*
X105832438Y-77761904D02*
X105880057Y-77714285D01*
X105880057Y-77714285D02*
X105975295Y-77666666D01*
X105975295Y-77666666D02*
X106118152Y-77666666D01*
X106118152Y-77666666D02*
X106213390Y-77714285D01*
X106213390Y-77714285D02*
X106261009Y-77761904D01*
X106261009Y-77761904D02*
X106308628Y-77857142D01*
X106308628Y-77857142D02*
X106308628Y-78238094D01*
X106784819Y-77190475D02*
X106784819Y-76999999D01*
X106784819Y-76999999D02*
X106737200Y-76904761D01*
X106737200Y-76904761D02*
X106689580Y-76857142D01*
X106689580Y-76857142D02*
X106546723Y-76761904D01*
X106546723Y-76761904D02*
X106356247Y-76714285D01*
X106356247Y-76714285D02*
X105975295Y-76714285D01*
X105975295Y-76714285D02*
X105880057Y-76761904D01*
X105880057Y-76761904D02*
X105832438Y-76809523D01*
X105832438Y-76809523D02*
X105784819Y-76904761D01*
X105784819Y-76904761D02*
X105784819Y-77095237D01*
X105784819Y-77095237D02*
X105832438Y-77190475D01*
X105832438Y-77190475D02*
X105880057Y-77238094D01*
X105880057Y-77238094D02*
X105975295Y-77285713D01*
X105975295Y-77285713D02*
X106213390Y-77285713D01*
X106213390Y-77285713D02*
X106308628Y-77238094D01*
X106308628Y-77238094D02*
X106356247Y-77190475D01*
X106356247Y-77190475D02*
X106403866Y-77095237D01*
X106403866Y-77095237D02*
X106403866Y-76904761D01*
X106403866Y-76904761D02*
X106356247Y-76809523D01*
X106356247Y-76809523D02*
X106308628Y-76761904D01*
X106308628Y-76761904D02*
X106213390Y-76714285D01*
X135357142Y-68599580D02*
X135309523Y-68647200D01*
X135309523Y-68647200D02*
X135166666Y-68694819D01*
X135166666Y-68694819D02*
X135071428Y-68694819D01*
X135071428Y-68694819D02*
X134928571Y-68647200D01*
X134928571Y-68647200D02*
X134833333Y-68551961D01*
X134833333Y-68551961D02*
X134785714Y-68456723D01*
X134785714Y-68456723D02*
X134738095Y-68266247D01*
X134738095Y-68266247D02*
X134738095Y-68123390D01*
X134738095Y-68123390D02*
X134785714Y-67932914D01*
X134785714Y-67932914D02*
X134833333Y-67837676D01*
X134833333Y-67837676D02*
X134928571Y-67742438D01*
X134928571Y-67742438D02*
X135071428Y-67694819D01*
X135071428Y-67694819D02*
X135166666Y-67694819D01*
X135166666Y-67694819D02*
X135309523Y-67742438D01*
X135309523Y-67742438D02*
X135357142Y-67790057D01*
X135738095Y-67790057D02*
X135785714Y-67742438D01*
X135785714Y-67742438D02*
X135880952Y-67694819D01*
X135880952Y-67694819D02*
X136119047Y-67694819D01*
X136119047Y-67694819D02*
X136214285Y-67742438D01*
X136214285Y-67742438D02*
X136261904Y-67790057D01*
X136261904Y-67790057D02*
X136309523Y-67885295D01*
X136309523Y-67885295D02*
X136309523Y-67980533D01*
X136309523Y-67980533D02*
X136261904Y-68123390D01*
X136261904Y-68123390D02*
X135690476Y-68694819D01*
X135690476Y-68694819D02*
X136309523Y-68694819D01*
X136928571Y-67694819D02*
X137023809Y-67694819D01*
X137023809Y-67694819D02*
X137119047Y-67742438D01*
X137119047Y-67742438D02*
X137166666Y-67790057D01*
X137166666Y-67790057D02*
X137214285Y-67885295D01*
X137214285Y-67885295D02*
X137261904Y-68075771D01*
X137261904Y-68075771D02*
X137261904Y-68313866D01*
X137261904Y-68313866D02*
X137214285Y-68504342D01*
X137214285Y-68504342D02*
X137166666Y-68599580D01*
X137166666Y-68599580D02*
X137119047Y-68647200D01*
X137119047Y-68647200D02*
X137023809Y-68694819D01*
X137023809Y-68694819D02*
X136928571Y-68694819D01*
X136928571Y-68694819D02*
X136833333Y-68647200D01*
X136833333Y-68647200D02*
X136785714Y-68599580D01*
X136785714Y-68599580D02*
X136738095Y-68504342D01*
X136738095Y-68504342D02*
X136690476Y-68313866D01*
X136690476Y-68313866D02*
X136690476Y-68075771D01*
X136690476Y-68075771D02*
X136738095Y-67885295D01*
X136738095Y-67885295D02*
X136785714Y-67790057D01*
X136785714Y-67790057D02*
X136833333Y-67742438D01*
X136833333Y-67742438D02*
X136928571Y-67694819D01*
X110284819Y-92642857D02*
X109808628Y-92976190D01*
X110284819Y-93214285D02*
X109284819Y-93214285D01*
X109284819Y-93214285D02*
X109284819Y-92833333D01*
X109284819Y-92833333D02*
X109332438Y-92738095D01*
X109332438Y-92738095D02*
X109380057Y-92690476D01*
X109380057Y-92690476D02*
X109475295Y-92642857D01*
X109475295Y-92642857D02*
X109618152Y-92642857D01*
X109618152Y-92642857D02*
X109713390Y-92690476D01*
X109713390Y-92690476D02*
X109761009Y-92738095D01*
X109761009Y-92738095D02*
X109808628Y-92833333D01*
X109808628Y-92833333D02*
X109808628Y-93214285D01*
X110284819Y-91690476D02*
X110284819Y-92261904D01*
X110284819Y-91976190D02*
X109284819Y-91976190D01*
X109284819Y-91976190D02*
X109427676Y-92071428D01*
X109427676Y-92071428D02*
X109522914Y-92166666D01*
X109522914Y-92166666D02*
X109570533Y-92261904D01*
X109284819Y-90785714D02*
X109284819Y-91261904D01*
X109284819Y-91261904D02*
X109761009Y-91309523D01*
X109761009Y-91309523D02*
X109713390Y-91261904D01*
X109713390Y-91261904D02*
X109665771Y-91166666D01*
X109665771Y-91166666D02*
X109665771Y-90928571D01*
X109665771Y-90928571D02*
X109713390Y-90833333D01*
X109713390Y-90833333D02*
X109761009Y-90785714D01*
X109761009Y-90785714D02*
X109856247Y-90738095D01*
X109856247Y-90738095D02*
X110094342Y-90738095D01*
X110094342Y-90738095D02*
X110189580Y-90785714D01*
X110189580Y-90785714D02*
X110237200Y-90833333D01*
X110237200Y-90833333D02*
X110284819Y-90928571D01*
X110284819Y-90928571D02*
X110284819Y-91166666D01*
X110284819Y-91166666D02*
X110237200Y-91261904D01*
X110237200Y-91261904D02*
X110189580Y-91309523D01*
X135833333Y-66699580D02*
X135785714Y-66747200D01*
X135785714Y-66747200D02*
X135642857Y-66794819D01*
X135642857Y-66794819D02*
X135547619Y-66794819D01*
X135547619Y-66794819D02*
X135404762Y-66747200D01*
X135404762Y-66747200D02*
X135309524Y-66651961D01*
X135309524Y-66651961D02*
X135261905Y-66556723D01*
X135261905Y-66556723D02*
X135214286Y-66366247D01*
X135214286Y-66366247D02*
X135214286Y-66223390D01*
X135214286Y-66223390D02*
X135261905Y-66032914D01*
X135261905Y-66032914D02*
X135309524Y-65937676D01*
X135309524Y-65937676D02*
X135404762Y-65842438D01*
X135404762Y-65842438D02*
X135547619Y-65794819D01*
X135547619Y-65794819D02*
X135642857Y-65794819D01*
X135642857Y-65794819D02*
X135785714Y-65842438D01*
X135785714Y-65842438D02*
X135833333Y-65890057D01*
X136309524Y-66794819D02*
X136500000Y-66794819D01*
X136500000Y-66794819D02*
X136595238Y-66747200D01*
X136595238Y-66747200D02*
X136642857Y-66699580D01*
X136642857Y-66699580D02*
X136738095Y-66556723D01*
X136738095Y-66556723D02*
X136785714Y-66366247D01*
X136785714Y-66366247D02*
X136785714Y-65985295D01*
X136785714Y-65985295D02*
X136738095Y-65890057D01*
X136738095Y-65890057D02*
X136690476Y-65842438D01*
X136690476Y-65842438D02*
X136595238Y-65794819D01*
X136595238Y-65794819D02*
X136404762Y-65794819D01*
X136404762Y-65794819D02*
X136309524Y-65842438D01*
X136309524Y-65842438D02*
X136261905Y-65890057D01*
X136261905Y-65890057D02*
X136214286Y-65985295D01*
X136214286Y-65985295D02*
X136214286Y-66223390D01*
X136214286Y-66223390D02*
X136261905Y-66318628D01*
X136261905Y-66318628D02*
X136309524Y-66366247D01*
X136309524Y-66366247D02*
X136404762Y-66413866D01*
X136404762Y-66413866D02*
X136595238Y-66413866D01*
X136595238Y-66413866D02*
X136690476Y-66366247D01*
X136690476Y-66366247D02*
X136738095Y-66318628D01*
X136738095Y-66318628D02*
X136785714Y-66223390D01*
X119699580Y-75142857D02*
X119747200Y-75190476D01*
X119747200Y-75190476D02*
X119794819Y-75333333D01*
X119794819Y-75333333D02*
X119794819Y-75428571D01*
X119794819Y-75428571D02*
X119747200Y-75571428D01*
X119747200Y-75571428D02*
X119651961Y-75666666D01*
X119651961Y-75666666D02*
X119556723Y-75714285D01*
X119556723Y-75714285D02*
X119366247Y-75761904D01*
X119366247Y-75761904D02*
X119223390Y-75761904D01*
X119223390Y-75761904D02*
X119032914Y-75714285D01*
X119032914Y-75714285D02*
X118937676Y-75666666D01*
X118937676Y-75666666D02*
X118842438Y-75571428D01*
X118842438Y-75571428D02*
X118794819Y-75428571D01*
X118794819Y-75428571D02*
X118794819Y-75333333D01*
X118794819Y-75333333D02*
X118842438Y-75190476D01*
X118842438Y-75190476D02*
X118890057Y-75142857D01*
X119794819Y-74190476D02*
X119794819Y-74761904D01*
X119794819Y-74476190D02*
X118794819Y-74476190D01*
X118794819Y-74476190D02*
X118937676Y-74571428D01*
X118937676Y-74571428D02*
X119032914Y-74666666D01*
X119032914Y-74666666D02*
X119080533Y-74761904D01*
X118794819Y-73857142D02*
X118794819Y-73238095D01*
X118794819Y-73238095D02*
X119175771Y-73571428D01*
X119175771Y-73571428D02*
X119175771Y-73428571D01*
X119175771Y-73428571D02*
X119223390Y-73333333D01*
X119223390Y-73333333D02*
X119271009Y-73285714D01*
X119271009Y-73285714D02*
X119366247Y-73238095D01*
X119366247Y-73238095D02*
X119604342Y-73238095D01*
X119604342Y-73238095D02*
X119699580Y-73285714D01*
X119699580Y-73285714D02*
X119747200Y-73333333D01*
X119747200Y-73333333D02*
X119794819Y-73428571D01*
X119794819Y-73428571D02*
X119794819Y-73714285D01*
X119794819Y-73714285D02*
X119747200Y-73809523D01*
X119747200Y-73809523D02*
X119699580Y-73857142D01*
X130357142Y-66429580D02*
X130309523Y-66477200D01*
X130309523Y-66477200D02*
X130166666Y-66524819D01*
X130166666Y-66524819D02*
X130071428Y-66524819D01*
X130071428Y-66524819D02*
X129928571Y-66477200D01*
X129928571Y-66477200D02*
X129833333Y-66381961D01*
X129833333Y-66381961D02*
X129785714Y-66286723D01*
X129785714Y-66286723D02*
X129738095Y-66096247D01*
X129738095Y-66096247D02*
X129738095Y-65953390D01*
X129738095Y-65953390D02*
X129785714Y-65762914D01*
X129785714Y-65762914D02*
X129833333Y-65667676D01*
X129833333Y-65667676D02*
X129928571Y-65572438D01*
X129928571Y-65572438D02*
X130071428Y-65524819D01*
X130071428Y-65524819D02*
X130166666Y-65524819D01*
X130166666Y-65524819D02*
X130309523Y-65572438D01*
X130309523Y-65572438D02*
X130357142Y-65620057D01*
X130690476Y-65524819D02*
X131309523Y-65524819D01*
X131309523Y-65524819D02*
X130976190Y-65905771D01*
X130976190Y-65905771D02*
X131119047Y-65905771D01*
X131119047Y-65905771D02*
X131214285Y-65953390D01*
X131214285Y-65953390D02*
X131261904Y-66001009D01*
X131261904Y-66001009D02*
X131309523Y-66096247D01*
X131309523Y-66096247D02*
X131309523Y-66334342D01*
X131309523Y-66334342D02*
X131261904Y-66429580D01*
X131261904Y-66429580D02*
X131214285Y-66477200D01*
X131214285Y-66477200D02*
X131119047Y-66524819D01*
X131119047Y-66524819D02*
X130833333Y-66524819D01*
X130833333Y-66524819D02*
X130738095Y-66477200D01*
X130738095Y-66477200D02*
X130690476Y-66429580D01*
X131642857Y-65524819D02*
X132309523Y-65524819D01*
X132309523Y-65524819D02*
X131880952Y-66524819D01*
X119699580Y-84142857D02*
X119747200Y-84190476D01*
X119747200Y-84190476D02*
X119794819Y-84333333D01*
X119794819Y-84333333D02*
X119794819Y-84428571D01*
X119794819Y-84428571D02*
X119747200Y-84571428D01*
X119747200Y-84571428D02*
X119651961Y-84666666D01*
X119651961Y-84666666D02*
X119556723Y-84714285D01*
X119556723Y-84714285D02*
X119366247Y-84761904D01*
X119366247Y-84761904D02*
X119223390Y-84761904D01*
X119223390Y-84761904D02*
X119032914Y-84714285D01*
X119032914Y-84714285D02*
X118937676Y-84666666D01*
X118937676Y-84666666D02*
X118842438Y-84571428D01*
X118842438Y-84571428D02*
X118794819Y-84428571D01*
X118794819Y-84428571D02*
X118794819Y-84333333D01*
X118794819Y-84333333D02*
X118842438Y-84190476D01*
X118842438Y-84190476D02*
X118890057Y-84142857D01*
X119794819Y-83190476D02*
X119794819Y-83761904D01*
X119794819Y-83476190D02*
X118794819Y-83476190D01*
X118794819Y-83476190D02*
X118937676Y-83571428D01*
X118937676Y-83571428D02*
X119032914Y-83666666D01*
X119032914Y-83666666D02*
X119080533Y-83761904D01*
X118794819Y-82857142D02*
X118794819Y-82190476D01*
X118794819Y-82190476D02*
X119794819Y-82619047D01*
X121699580Y-78666666D02*
X121747200Y-78714285D01*
X121747200Y-78714285D02*
X121794819Y-78857142D01*
X121794819Y-78857142D02*
X121794819Y-78952380D01*
X121794819Y-78952380D02*
X121747200Y-79095237D01*
X121747200Y-79095237D02*
X121651961Y-79190475D01*
X121651961Y-79190475D02*
X121556723Y-79238094D01*
X121556723Y-79238094D02*
X121366247Y-79285713D01*
X121366247Y-79285713D02*
X121223390Y-79285713D01*
X121223390Y-79285713D02*
X121032914Y-79238094D01*
X121032914Y-79238094D02*
X120937676Y-79190475D01*
X120937676Y-79190475D02*
X120842438Y-79095237D01*
X120842438Y-79095237D02*
X120794819Y-78952380D01*
X120794819Y-78952380D02*
X120794819Y-78857142D01*
X120794819Y-78857142D02*
X120842438Y-78714285D01*
X120842438Y-78714285D02*
X120890057Y-78666666D01*
X121128152Y-77809523D02*
X121794819Y-77809523D01*
X120747200Y-78047618D02*
X121461485Y-78285713D01*
X121461485Y-78285713D02*
X121461485Y-77666666D01*
X140357142Y-66699580D02*
X140309523Y-66747200D01*
X140309523Y-66747200D02*
X140166666Y-66794819D01*
X140166666Y-66794819D02*
X140071428Y-66794819D01*
X140071428Y-66794819D02*
X139928571Y-66747200D01*
X139928571Y-66747200D02*
X139833333Y-66651961D01*
X139833333Y-66651961D02*
X139785714Y-66556723D01*
X139785714Y-66556723D02*
X139738095Y-66366247D01*
X139738095Y-66366247D02*
X139738095Y-66223390D01*
X139738095Y-66223390D02*
X139785714Y-66032914D01*
X139785714Y-66032914D02*
X139833333Y-65937676D01*
X139833333Y-65937676D02*
X139928571Y-65842438D01*
X139928571Y-65842438D02*
X140071428Y-65794819D01*
X140071428Y-65794819D02*
X140166666Y-65794819D01*
X140166666Y-65794819D02*
X140309523Y-65842438D01*
X140309523Y-65842438D02*
X140357142Y-65890057D01*
X141309523Y-66794819D02*
X140738095Y-66794819D01*
X141023809Y-66794819D02*
X141023809Y-65794819D01*
X141023809Y-65794819D02*
X140928571Y-65937676D01*
X140928571Y-65937676D02*
X140833333Y-66032914D01*
X140833333Y-66032914D02*
X140738095Y-66080533D01*
X142261904Y-66794819D02*
X141690476Y-66794819D01*
X141976190Y-66794819D02*
X141976190Y-65794819D01*
X141976190Y-65794819D02*
X141880952Y-65937676D01*
X141880952Y-65937676D02*
X141785714Y-66032914D01*
X141785714Y-66032914D02*
X141690476Y-66080533D01*
X115199580Y-97142857D02*
X115247200Y-97190476D01*
X115247200Y-97190476D02*
X115294819Y-97333333D01*
X115294819Y-97333333D02*
X115294819Y-97428571D01*
X115294819Y-97428571D02*
X115247200Y-97571428D01*
X115247200Y-97571428D02*
X115151961Y-97666666D01*
X115151961Y-97666666D02*
X115056723Y-97714285D01*
X115056723Y-97714285D02*
X114866247Y-97761904D01*
X114866247Y-97761904D02*
X114723390Y-97761904D01*
X114723390Y-97761904D02*
X114532914Y-97714285D01*
X114532914Y-97714285D02*
X114437676Y-97666666D01*
X114437676Y-97666666D02*
X114342438Y-97571428D01*
X114342438Y-97571428D02*
X114294819Y-97428571D01*
X114294819Y-97428571D02*
X114294819Y-97333333D01*
X114294819Y-97333333D02*
X114342438Y-97190476D01*
X114342438Y-97190476D02*
X114390057Y-97142857D01*
X114628152Y-96285714D02*
X115294819Y-96285714D01*
X114247200Y-96523809D02*
X114961485Y-96761904D01*
X114961485Y-96761904D02*
X114961485Y-96142857D01*
X115294819Y-95238095D02*
X115294819Y-95809523D01*
X115294819Y-95523809D02*
X114294819Y-95523809D01*
X114294819Y-95523809D02*
X114437676Y-95619047D01*
X114437676Y-95619047D02*
X114532914Y-95714285D01*
X114532914Y-95714285D02*
X114580533Y-95809523D01*
X116179580Y-72842857D02*
X116227200Y-72890476D01*
X116227200Y-72890476D02*
X116274819Y-73033333D01*
X116274819Y-73033333D02*
X116274819Y-73128571D01*
X116274819Y-73128571D02*
X116227200Y-73271428D01*
X116227200Y-73271428D02*
X116131961Y-73366666D01*
X116131961Y-73366666D02*
X116036723Y-73414285D01*
X116036723Y-73414285D02*
X115846247Y-73461904D01*
X115846247Y-73461904D02*
X115703390Y-73461904D01*
X115703390Y-73461904D02*
X115512914Y-73414285D01*
X115512914Y-73414285D02*
X115417676Y-73366666D01*
X115417676Y-73366666D02*
X115322438Y-73271428D01*
X115322438Y-73271428D02*
X115274819Y-73128571D01*
X115274819Y-73128571D02*
X115274819Y-73033333D01*
X115274819Y-73033333D02*
X115322438Y-72890476D01*
X115322438Y-72890476D02*
X115370057Y-72842857D01*
X115274819Y-72509523D02*
X115274819Y-71890476D01*
X115274819Y-71890476D02*
X115655771Y-72223809D01*
X115655771Y-72223809D02*
X115655771Y-72080952D01*
X115655771Y-72080952D02*
X115703390Y-71985714D01*
X115703390Y-71985714D02*
X115751009Y-71938095D01*
X115751009Y-71938095D02*
X115846247Y-71890476D01*
X115846247Y-71890476D02*
X116084342Y-71890476D01*
X116084342Y-71890476D02*
X116179580Y-71938095D01*
X116179580Y-71938095D02*
X116227200Y-71985714D01*
X116227200Y-71985714D02*
X116274819Y-72080952D01*
X116274819Y-72080952D02*
X116274819Y-72366666D01*
X116274819Y-72366666D02*
X116227200Y-72461904D01*
X116227200Y-72461904D02*
X116179580Y-72509523D01*
X115370057Y-71509523D02*
X115322438Y-71461904D01*
X115322438Y-71461904D02*
X115274819Y-71366666D01*
X115274819Y-71366666D02*
X115274819Y-71128571D01*
X115274819Y-71128571D02*
X115322438Y-71033333D01*
X115322438Y-71033333D02*
X115370057Y-70985714D01*
X115370057Y-70985714D02*
X115465295Y-70938095D01*
X115465295Y-70938095D02*
X115560533Y-70938095D01*
X115560533Y-70938095D02*
X115703390Y-70985714D01*
X115703390Y-70985714D02*
X116274819Y-71557142D01*
X116274819Y-71557142D02*
X116274819Y-70938095D01*
X104238095Y-89054819D02*
X104238095Y-89864342D01*
X104238095Y-89864342D02*
X104285714Y-89959580D01*
X104285714Y-89959580D02*
X104333333Y-90007200D01*
X104333333Y-90007200D02*
X104428571Y-90054819D01*
X104428571Y-90054819D02*
X104619047Y-90054819D01*
X104619047Y-90054819D02*
X104714285Y-90007200D01*
X104714285Y-90007200D02*
X104761904Y-89959580D01*
X104761904Y-89959580D02*
X104809523Y-89864342D01*
X104809523Y-89864342D02*
X104809523Y-89054819D01*
X105714285Y-89054819D02*
X105523809Y-89054819D01*
X105523809Y-89054819D02*
X105428571Y-89102438D01*
X105428571Y-89102438D02*
X105380952Y-89150057D01*
X105380952Y-89150057D02*
X105285714Y-89292914D01*
X105285714Y-89292914D02*
X105238095Y-89483390D01*
X105238095Y-89483390D02*
X105238095Y-89864342D01*
X105238095Y-89864342D02*
X105285714Y-89959580D01*
X105285714Y-89959580D02*
X105333333Y-90007200D01*
X105333333Y-90007200D02*
X105428571Y-90054819D01*
X105428571Y-90054819D02*
X105619047Y-90054819D01*
X105619047Y-90054819D02*
X105714285Y-90007200D01*
X105714285Y-90007200D02*
X105761904Y-89959580D01*
X105761904Y-89959580D02*
X105809523Y-89864342D01*
X105809523Y-89864342D02*
X105809523Y-89626247D01*
X105809523Y-89626247D02*
X105761904Y-89531009D01*
X105761904Y-89531009D02*
X105714285Y-89483390D01*
X105714285Y-89483390D02*
X105619047Y-89435771D01*
X105619047Y-89435771D02*
X105428571Y-89435771D01*
X105428571Y-89435771D02*
X105333333Y-89483390D01*
X105333333Y-89483390D02*
X105285714Y-89531009D01*
X105285714Y-89531009D02*
X105238095Y-89626247D01*
X106238095Y-84054819D02*
X106238095Y-84864342D01*
X106238095Y-84864342D02*
X106285714Y-84959580D01*
X106285714Y-84959580D02*
X106333333Y-85007200D01*
X106333333Y-85007200D02*
X106428571Y-85054819D01*
X106428571Y-85054819D02*
X106619047Y-85054819D01*
X106619047Y-85054819D02*
X106714285Y-85007200D01*
X106714285Y-85007200D02*
X106761904Y-84959580D01*
X106761904Y-84959580D02*
X106809523Y-84864342D01*
X106809523Y-84864342D02*
X106809523Y-84054819D01*
X107714285Y-84388152D02*
X107714285Y-85054819D01*
X107476190Y-84007200D02*
X107238095Y-84721485D01*
X107238095Y-84721485D02*
X107857142Y-84721485D01*
X104238095Y-93554819D02*
X104238095Y-94364342D01*
X104238095Y-94364342D02*
X104285714Y-94459580D01*
X104285714Y-94459580D02*
X104333333Y-94507200D01*
X104333333Y-94507200D02*
X104428571Y-94554819D01*
X104428571Y-94554819D02*
X104619047Y-94554819D01*
X104619047Y-94554819D02*
X104714285Y-94507200D01*
X104714285Y-94507200D02*
X104761904Y-94459580D01*
X104761904Y-94459580D02*
X104809523Y-94364342D01*
X104809523Y-94364342D02*
X104809523Y-93554819D01*
X105190476Y-93554819D02*
X105857142Y-93554819D01*
X105857142Y-93554819D02*
X105428571Y-94554819D01*
X118749580Y-82167857D02*
X118797200Y-82215476D01*
X118797200Y-82215476D02*
X118844819Y-82358333D01*
X118844819Y-82358333D02*
X118844819Y-82453571D01*
X118844819Y-82453571D02*
X118797200Y-82596428D01*
X118797200Y-82596428D02*
X118701961Y-82691666D01*
X118701961Y-82691666D02*
X118606723Y-82739285D01*
X118606723Y-82739285D02*
X118416247Y-82786904D01*
X118416247Y-82786904D02*
X118273390Y-82786904D01*
X118273390Y-82786904D02*
X118082914Y-82739285D01*
X118082914Y-82739285D02*
X117987676Y-82691666D01*
X117987676Y-82691666D02*
X117892438Y-82596428D01*
X117892438Y-82596428D02*
X117844819Y-82453571D01*
X117844819Y-82453571D02*
X117844819Y-82358333D01*
X117844819Y-82358333D02*
X117892438Y-82215476D01*
X117892438Y-82215476D02*
X117940057Y-82167857D01*
X118844819Y-81215476D02*
X118844819Y-81786904D01*
X118844819Y-81501190D02*
X117844819Y-81501190D01*
X117844819Y-81501190D02*
X117987676Y-81596428D01*
X117987676Y-81596428D02*
X118082914Y-81691666D01*
X118082914Y-81691666D02*
X118130533Y-81786904D01*
X117844819Y-80358333D02*
X117844819Y-80548809D01*
X117844819Y-80548809D02*
X117892438Y-80644047D01*
X117892438Y-80644047D02*
X117940057Y-80691666D01*
X117940057Y-80691666D02*
X118082914Y-80786904D01*
X118082914Y-80786904D02*
X118273390Y-80834523D01*
X118273390Y-80834523D02*
X118654342Y-80834523D01*
X118654342Y-80834523D02*
X118749580Y-80786904D01*
X118749580Y-80786904D02*
X118797200Y-80739285D01*
X118797200Y-80739285D02*
X118844819Y-80644047D01*
X118844819Y-80644047D02*
X118844819Y-80453571D01*
X118844819Y-80453571D02*
X118797200Y-80358333D01*
X118797200Y-80358333D02*
X118749580Y-80310714D01*
X118749580Y-80310714D02*
X118654342Y-80263095D01*
X118654342Y-80263095D02*
X118416247Y-80263095D01*
X118416247Y-80263095D02*
X118321009Y-80310714D01*
X118321009Y-80310714D02*
X118273390Y-80358333D01*
X118273390Y-80358333D02*
X118225771Y-80453571D01*
X118225771Y-80453571D02*
X118225771Y-80644047D01*
X118225771Y-80644047D02*
X118273390Y-80739285D01*
X118273390Y-80739285D02*
X118321009Y-80786904D01*
X118321009Y-80786904D02*
X118416247Y-80834523D01*
X133333333Y-66699580D02*
X133285714Y-66747200D01*
X133285714Y-66747200D02*
X133142857Y-66794819D01*
X133142857Y-66794819D02*
X133047619Y-66794819D01*
X133047619Y-66794819D02*
X132904762Y-66747200D01*
X132904762Y-66747200D02*
X132809524Y-66651961D01*
X132809524Y-66651961D02*
X132761905Y-66556723D01*
X132761905Y-66556723D02*
X132714286Y-66366247D01*
X132714286Y-66366247D02*
X132714286Y-66223390D01*
X132714286Y-66223390D02*
X132761905Y-66032914D01*
X132761905Y-66032914D02*
X132809524Y-65937676D01*
X132809524Y-65937676D02*
X132904762Y-65842438D01*
X132904762Y-65842438D02*
X133047619Y-65794819D01*
X133047619Y-65794819D02*
X133142857Y-65794819D01*
X133142857Y-65794819D02*
X133285714Y-65842438D01*
X133285714Y-65842438D02*
X133333333Y-65890057D01*
X133904762Y-66223390D02*
X133809524Y-66175771D01*
X133809524Y-66175771D02*
X133761905Y-66128152D01*
X133761905Y-66128152D02*
X133714286Y-66032914D01*
X133714286Y-66032914D02*
X133714286Y-65985295D01*
X133714286Y-65985295D02*
X133761905Y-65890057D01*
X133761905Y-65890057D02*
X133809524Y-65842438D01*
X133809524Y-65842438D02*
X133904762Y-65794819D01*
X133904762Y-65794819D02*
X134095238Y-65794819D01*
X134095238Y-65794819D02*
X134190476Y-65842438D01*
X134190476Y-65842438D02*
X134238095Y-65890057D01*
X134238095Y-65890057D02*
X134285714Y-65985295D01*
X134285714Y-65985295D02*
X134285714Y-66032914D01*
X134285714Y-66032914D02*
X134238095Y-66128152D01*
X134238095Y-66128152D02*
X134190476Y-66175771D01*
X134190476Y-66175771D02*
X134095238Y-66223390D01*
X134095238Y-66223390D02*
X133904762Y-66223390D01*
X133904762Y-66223390D02*
X133809524Y-66271009D01*
X133809524Y-66271009D02*
X133761905Y-66318628D01*
X133761905Y-66318628D02*
X133714286Y-66413866D01*
X133714286Y-66413866D02*
X133714286Y-66604342D01*
X133714286Y-66604342D02*
X133761905Y-66699580D01*
X133761905Y-66699580D02*
X133809524Y-66747200D01*
X133809524Y-66747200D02*
X133904762Y-66794819D01*
X133904762Y-66794819D02*
X134095238Y-66794819D01*
X134095238Y-66794819D02*
X134190476Y-66747200D01*
X134190476Y-66747200D02*
X134238095Y-66699580D01*
X134238095Y-66699580D02*
X134285714Y-66604342D01*
X134285714Y-66604342D02*
X134285714Y-66413866D01*
X134285714Y-66413866D02*
X134238095Y-66318628D01*
X134238095Y-66318628D02*
X134190476Y-66271009D01*
X134190476Y-66271009D02*
X134095238Y-66223390D01*
X107699580Y-92642857D02*
X107747200Y-92690476D01*
X107747200Y-92690476D02*
X107794819Y-92833333D01*
X107794819Y-92833333D02*
X107794819Y-92928571D01*
X107794819Y-92928571D02*
X107747200Y-93071428D01*
X107747200Y-93071428D02*
X107651961Y-93166666D01*
X107651961Y-93166666D02*
X107556723Y-93214285D01*
X107556723Y-93214285D02*
X107366247Y-93261904D01*
X107366247Y-93261904D02*
X107223390Y-93261904D01*
X107223390Y-93261904D02*
X107032914Y-93214285D01*
X107032914Y-93214285D02*
X106937676Y-93166666D01*
X106937676Y-93166666D02*
X106842438Y-93071428D01*
X106842438Y-93071428D02*
X106794819Y-92928571D01*
X106794819Y-92928571D02*
X106794819Y-92833333D01*
X106794819Y-92833333D02*
X106842438Y-92690476D01*
X106842438Y-92690476D02*
X106890057Y-92642857D01*
X106794819Y-92309523D02*
X106794819Y-91690476D01*
X106794819Y-91690476D02*
X107175771Y-92023809D01*
X107175771Y-92023809D02*
X107175771Y-91880952D01*
X107175771Y-91880952D02*
X107223390Y-91785714D01*
X107223390Y-91785714D02*
X107271009Y-91738095D01*
X107271009Y-91738095D02*
X107366247Y-91690476D01*
X107366247Y-91690476D02*
X107604342Y-91690476D01*
X107604342Y-91690476D02*
X107699580Y-91738095D01*
X107699580Y-91738095D02*
X107747200Y-91785714D01*
X107747200Y-91785714D02*
X107794819Y-91880952D01*
X107794819Y-91880952D02*
X107794819Y-92166666D01*
X107794819Y-92166666D02*
X107747200Y-92261904D01*
X107747200Y-92261904D02*
X107699580Y-92309523D01*
X107223390Y-91119047D02*
X107175771Y-91214285D01*
X107175771Y-91214285D02*
X107128152Y-91261904D01*
X107128152Y-91261904D02*
X107032914Y-91309523D01*
X107032914Y-91309523D02*
X106985295Y-91309523D01*
X106985295Y-91309523D02*
X106890057Y-91261904D01*
X106890057Y-91261904D02*
X106842438Y-91214285D01*
X106842438Y-91214285D02*
X106794819Y-91119047D01*
X106794819Y-91119047D02*
X106794819Y-90928571D01*
X106794819Y-90928571D02*
X106842438Y-90833333D01*
X106842438Y-90833333D02*
X106890057Y-90785714D01*
X106890057Y-90785714D02*
X106985295Y-90738095D01*
X106985295Y-90738095D02*
X107032914Y-90738095D01*
X107032914Y-90738095D02*
X107128152Y-90785714D01*
X107128152Y-90785714D02*
X107175771Y-90833333D01*
X107175771Y-90833333D02*
X107223390Y-90928571D01*
X107223390Y-90928571D02*
X107223390Y-91119047D01*
X107223390Y-91119047D02*
X107271009Y-91214285D01*
X107271009Y-91214285D02*
X107318628Y-91261904D01*
X107318628Y-91261904D02*
X107413866Y-91309523D01*
X107413866Y-91309523D02*
X107604342Y-91309523D01*
X107604342Y-91309523D02*
X107699580Y-91261904D01*
X107699580Y-91261904D02*
X107747200Y-91214285D01*
X107747200Y-91214285D02*
X107794819Y-91119047D01*
X107794819Y-91119047D02*
X107794819Y-90928571D01*
X107794819Y-90928571D02*
X107747200Y-90833333D01*
X107747200Y-90833333D02*
X107699580Y-90785714D01*
X107699580Y-90785714D02*
X107604342Y-90738095D01*
X107604342Y-90738095D02*
X107413866Y-90738095D01*
X107413866Y-90738095D02*
X107318628Y-90785714D01*
X107318628Y-90785714D02*
X107271009Y-90833333D01*
X107271009Y-90833333D02*
X107223390Y-90928571D01*
X106238095Y-70804819D02*
X106238095Y-71614342D01*
X106238095Y-71614342D02*
X106285714Y-71709580D01*
X106285714Y-71709580D02*
X106333333Y-71757200D01*
X106333333Y-71757200D02*
X106428571Y-71804819D01*
X106428571Y-71804819D02*
X106619047Y-71804819D01*
X106619047Y-71804819D02*
X106714285Y-71757200D01*
X106714285Y-71757200D02*
X106761904Y-71709580D01*
X106761904Y-71709580D02*
X106809523Y-71614342D01*
X106809523Y-71614342D02*
X106809523Y-70804819D01*
X107190476Y-70804819D02*
X107809523Y-70804819D01*
X107809523Y-70804819D02*
X107476190Y-71185771D01*
X107476190Y-71185771D02*
X107619047Y-71185771D01*
X107619047Y-71185771D02*
X107714285Y-71233390D01*
X107714285Y-71233390D02*
X107761904Y-71281009D01*
X107761904Y-71281009D02*
X107809523Y-71376247D01*
X107809523Y-71376247D02*
X107809523Y-71614342D01*
X107809523Y-71614342D02*
X107761904Y-71709580D01*
X107761904Y-71709580D02*
X107714285Y-71757200D01*
X107714285Y-71757200D02*
X107619047Y-71804819D01*
X107619047Y-71804819D02*
X107333333Y-71804819D01*
X107333333Y-71804819D02*
X107238095Y-71757200D01*
X107238095Y-71757200D02*
X107190476Y-71709580D01*
D11*
X112366666Y-70863855D02*
X111985714Y-70863855D01*
X111985714Y-70863855D02*
X111985714Y-70063855D01*
X113052380Y-70863855D02*
X112595237Y-70863855D01*
X112823809Y-70863855D02*
X112823809Y-70063855D01*
X112823809Y-70063855D02*
X112747618Y-70178140D01*
X112747618Y-70178140D02*
X112671428Y-70254331D01*
X112671428Y-70254331D02*
X112595237Y-70292426D01*
D10*
X123034819Y-81166666D02*
X122558628Y-81499999D01*
X123034819Y-81738094D02*
X122034819Y-81738094D01*
X122034819Y-81738094D02*
X122034819Y-81357142D01*
X122034819Y-81357142D02*
X122082438Y-81261904D01*
X122082438Y-81261904D02*
X122130057Y-81214285D01*
X122130057Y-81214285D02*
X122225295Y-81166666D01*
X122225295Y-81166666D02*
X122368152Y-81166666D01*
X122368152Y-81166666D02*
X122463390Y-81214285D01*
X122463390Y-81214285D02*
X122511009Y-81261904D01*
X122511009Y-81261904D02*
X122558628Y-81357142D01*
X122558628Y-81357142D02*
X122558628Y-81738094D01*
X122034819Y-80833332D02*
X122034819Y-80214285D01*
X122034819Y-80214285D02*
X122415771Y-80547618D01*
X122415771Y-80547618D02*
X122415771Y-80404761D01*
X122415771Y-80404761D02*
X122463390Y-80309523D01*
X122463390Y-80309523D02*
X122511009Y-80261904D01*
X122511009Y-80261904D02*
X122606247Y-80214285D01*
X122606247Y-80214285D02*
X122844342Y-80214285D01*
X122844342Y-80214285D02*
X122939580Y-80261904D01*
X122939580Y-80261904D02*
X122987200Y-80309523D01*
X122987200Y-80309523D02*
X123034819Y-80404761D01*
X123034819Y-80404761D02*
X123034819Y-80690475D01*
X123034819Y-80690475D02*
X122987200Y-80785713D01*
X122987200Y-80785713D02*
X122939580Y-80833332D01*
X102179580Y-73642857D02*
X102227200Y-73690476D01*
X102227200Y-73690476D02*
X102274819Y-73833333D01*
X102274819Y-73833333D02*
X102274819Y-73928571D01*
X102274819Y-73928571D02*
X102227200Y-74071428D01*
X102227200Y-74071428D02*
X102131961Y-74166666D01*
X102131961Y-74166666D02*
X102036723Y-74214285D01*
X102036723Y-74214285D02*
X101846247Y-74261904D01*
X101846247Y-74261904D02*
X101703390Y-74261904D01*
X101703390Y-74261904D02*
X101512914Y-74214285D01*
X101512914Y-74214285D02*
X101417676Y-74166666D01*
X101417676Y-74166666D02*
X101322438Y-74071428D01*
X101322438Y-74071428D02*
X101274819Y-73928571D01*
X101274819Y-73928571D02*
X101274819Y-73833333D01*
X101274819Y-73833333D02*
X101322438Y-73690476D01*
X101322438Y-73690476D02*
X101370057Y-73642857D01*
X101274819Y-73309523D02*
X101274819Y-72690476D01*
X101274819Y-72690476D02*
X101655771Y-73023809D01*
X101655771Y-73023809D02*
X101655771Y-72880952D01*
X101655771Y-72880952D02*
X101703390Y-72785714D01*
X101703390Y-72785714D02*
X101751009Y-72738095D01*
X101751009Y-72738095D02*
X101846247Y-72690476D01*
X101846247Y-72690476D02*
X102084342Y-72690476D01*
X102084342Y-72690476D02*
X102179580Y-72738095D01*
X102179580Y-72738095D02*
X102227200Y-72785714D01*
X102227200Y-72785714D02*
X102274819Y-72880952D01*
X102274819Y-72880952D02*
X102274819Y-73166666D01*
X102274819Y-73166666D02*
X102227200Y-73261904D01*
X102227200Y-73261904D02*
X102179580Y-73309523D01*
X102274819Y-71738095D02*
X102274819Y-72309523D01*
X102274819Y-72023809D02*
X101274819Y-72023809D01*
X101274819Y-72023809D02*
X101417676Y-72119047D01*
X101417676Y-72119047D02*
X101512914Y-72214285D01*
X101512914Y-72214285D02*
X101560533Y-72309523D01*
%TO.C,C24*%
D11*
X113765000Y-82261252D02*
X113765000Y-81738748D01*
X115235000Y-82261252D02*
X115235000Y-81738748D01*
%TO.C,C27*%
X120140000Y-88107836D02*
X120140000Y-87892164D01*
X120860000Y-88107836D02*
X120860000Y-87892164D01*
%TO.C,R10*%
X118846359Y-100620000D02*
X119153641Y-100620000D01*
X118846359Y-101380000D02*
X119153641Y-101380000D01*
%TO.C,R4*%
X123370000Y-78853641D02*
X123370000Y-78546359D01*
X124130000Y-78853641D02*
X124130000Y-78546359D01*
%TO.C,R12*%
X123370000Y-83453641D02*
X123370000Y-83146359D01*
X124130000Y-83453641D02*
X124130000Y-83146359D01*
%TO.C,C15*%
X120140000Y-78607836D02*
X120140000Y-78392164D01*
X120860000Y-78607836D02*
X120860000Y-78392164D01*
%TO.C,C28*%
X143892164Y-67140000D02*
X144107836Y-67140000D01*
X143892164Y-67860000D02*
X144107836Y-67860000D01*
%TO.C,C23*%
X113765000Y-87261252D02*
X113765000Y-86738748D01*
X115235000Y-87261252D02*
X115235000Y-86738748D01*
%TO.C,C29*%
X102990000Y-82140580D02*
X102990000Y-81859420D01*
X104010000Y-82140580D02*
X104010000Y-81859420D01*
%TO.C,C21*%
X138392164Y-69040000D02*
X138607836Y-69040000D01*
X138392164Y-69760000D02*
X138607836Y-69760000D01*
%TO.C,C6*%
X122140000Y-83607836D02*
X122140000Y-83392164D01*
X122860000Y-83607836D02*
X122860000Y-83392164D01*
%TO.C,R7*%
X123370000Y-76553641D02*
X123370000Y-76246359D01*
X124130000Y-76553641D02*
X124130000Y-76246359D01*
%TO.C,R14*%
X147720000Y-80853641D02*
X147720000Y-80546359D01*
X148480000Y-80853641D02*
X148480000Y-80546359D01*
%TO.C,C35*%
X110490000Y-87140580D02*
X110490000Y-86859420D01*
X111510000Y-87140580D02*
X111510000Y-86859420D01*
%TO.C,R8*%
X104620000Y-77653641D02*
X104620000Y-77346359D01*
X105380000Y-77653641D02*
X105380000Y-77346359D01*
%TO.C,C33*%
X116765000Y-76661252D02*
X116765000Y-76138748D01*
X118235000Y-76661252D02*
X118235000Y-76138748D01*
%TO.C,R17*%
X113120000Y-96653641D02*
X113120000Y-96346359D01*
X113880000Y-96653641D02*
X113880000Y-96346359D01*
%TO.C,C22*%
X140892164Y-69040000D02*
X141107836Y-69040000D01*
X140892164Y-69760000D02*
X141107836Y-69760000D01*
%TO.C,C14*%
X120140000Y-76607836D02*
X120140000Y-76392164D01*
X120860000Y-76607836D02*
X120860000Y-76392164D01*
%TO.C,R16*%
X110620000Y-96653641D02*
X110620000Y-96346359D01*
X111380000Y-96653641D02*
X111380000Y-96346359D01*
%TO.C,C18*%
X120140000Y-85607836D02*
X120140000Y-85392164D01*
X120860000Y-85607836D02*
X120860000Y-85392164D01*
%TO.C,R5*%
X131246359Y-69320000D02*
X131553641Y-69320000D01*
X131246359Y-70080000D02*
X131553641Y-70080000D01*
%TO.C,R13*%
X123370000Y-85753641D02*
X123370000Y-85446359D01*
X124130000Y-85753641D02*
X124130000Y-85446359D01*
%TO.C,C10*%
X138392164Y-67140000D02*
X138607836Y-67140000D01*
X138392164Y-67860000D02*
X138607836Y-67860000D01*
%TO.C,R11*%
X121846359Y-100620000D02*
X122153641Y-100620000D01*
X121846359Y-101380000D02*
X122153641Y-101380000D01*
%TO.C,C3*%
X122140000Y-76607836D02*
X122140000Y-76392164D01*
X122860000Y-76607836D02*
X122860000Y-76392164D01*
%TO.C,C40*%
X108140000Y-96607836D02*
X108140000Y-96392164D01*
X108860000Y-96607836D02*
X108860000Y-96392164D01*
%TO.C,C36*%
X122859420Y-66990000D02*
X123140580Y-66990000D01*
X122859420Y-68010000D02*
X123140580Y-68010000D01*
%TO.C,C34*%
X102990000Y-87140580D02*
X102990000Y-86859420D01*
X104010000Y-87140580D02*
X104010000Y-86859420D01*
%TO.C,U2*%
X106090000Y-80440000D02*
X107910000Y-80440000D01*
X106090000Y-80490000D02*
X106090000Y-80440000D01*
X106090000Y-83560000D02*
X106090000Y-83510000D01*
X107910000Y-80440000D02*
X107910000Y-80490000D01*
X107910000Y-81610000D02*
X107910000Y-82390000D01*
X107910000Y-83510000D02*
X107910000Y-83560000D01*
X107910000Y-83560000D02*
X106090000Y-83560000D01*
X105550000Y-80490000D02*
X105310000Y-80160000D01*
X105790000Y-80160000D01*
X105550000Y-80490000D01*
G36*
X105550000Y-80490000D02*
G01*
X105310000Y-80160000D01*
X105790000Y-80160000D01*
X105550000Y-80490000D01*
G37*
%TO.C,C7*%
X122140000Y-85607836D02*
X122140000Y-85392164D01*
X122860000Y-85607836D02*
X122860000Y-85392164D01*
%TO.C,U1*%
X124524000Y-72524000D02*
X124524000Y-70524000D01*
X124524000Y-91476000D02*
X124524000Y-93476000D01*
X126524000Y-70524000D02*
X124524000Y-70524000D01*
X126524000Y-93476000D02*
X124524000Y-93476000D01*
X145476000Y-70524000D02*
X147476000Y-70524000D01*
X145476000Y-93476000D02*
X147476000Y-93476000D01*
X147476000Y-72524000D02*
X147476000Y-70524000D01*
X147476000Y-91476000D02*
X147476000Y-93476000D01*
D12*
X125085280Y-82508000D02*
G75*
G02*
X124725280Y-82508000I-180000J0D01*
G01*
X124725280Y-82508000D02*
G75*
G02*
X125085280Y-82508000I180000J0D01*
G01*
%TO.C,C26*%
D11*
X122140000Y-88107836D02*
X122140000Y-87892164D01*
X122860000Y-88107836D02*
X122860000Y-87892164D01*
%TO.C,C30*%
X110490000Y-82140580D02*
X110490000Y-81859420D01*
X111510000Y-82140580D02*
X111510000Y-81859420D01*
%TO.C,R6*%
X128746359Y-69320000D02*
X129053641Y-69320000D01*
X128746359Y-70080000D02*
X129053641Y-70080000D01*
%TO.C,C5*%
X121140000Y-81607836D02*
X121140000Y-81392164D01*
X121860000Y-81607836D02*
X121860000Y-81392164D01*
%TO.C,U5*%
X126090000Y-65940000D02*
X127910000Y-65940000D01*
X126090000Y-65990000D02*
X126090000Y-65940000D01*
X126090000Y-69060000D02*
X126090000Y-69010000D01*
X127910000Y-65940000D02*
X127910000Y-65990000D01*
X127910000Y-67110000D02*
X127910000Y-67890000D01*
X127910000Y-69010000D02*
X127910000Y-69060000D01*
X127910000Y-69060000D02*
X126090000Y-69060000D01*
X125550000Y-65990000D02*
X125310000Y-65660000D01*
X125790000Y-65660000D01*
X125550000Y-65990000D01*
G36*
X125550000Y-65990000D02*
G01*
X125310000Y-65660000D01*
X125790000Y-65660000D01*
X125550000Y-65990000D01*
G37*
%TO.C,C19*%
X133392164Y-69040000D02*
X133607836Y-69040000D01*
X133392164Y-69760000D02*
X133607836Y-69760000D01*
%TO.C,C39*%
X113140000Y-92107836D02*
X113140000Y-91892164D01*
X113860000Y-92107836D02*
X113860000Y-91892164D01*
%TO.C,C1*%
X122140000Y-72607836D02*
X122140000Y-72392164D01*
X122860000Y-72607836D02*
X122860000Y-72392164D01*
%TO.C,C2*%
X122140000Y-74607836D02*
X122140000Y-74392164D01*
X122860000Y-74607836D02*
X122860000Y-74392164D01*
%TO.C,R1*%
X147820000Y-78653641D02*
X147820000Y-78346359D01*
X148580000Y-78653641D02*
X148580000Y-78346359D01*
%TO.C,C12*%
X120140000Y-72607836D02*
X120140000Y-72392164D01*
X120860000Y-72607836D02*
X120860000Y-72392164D01*
%TO.C,R9*%
X107120000Y-77653641D02*
X107120000Y-77346359D01*
X107880000Y-77653641D02*
X107880000Y-77346359D01*
%TO.C,C20*%
X135892164Y-69040000D02*
X136107836Y-69040000D01*
X135892164Y-69760000D02*
X136107836Y-69760000D01*
%TO.C,R15*%
X110620000Y-92153641D02*
X110620000Y-91846359D01*
X111380000Y-92153641D02*
X111380000Y-91846359D01*
%TO.C,C9*%
X135892164Y-67140000D02*
X136107836Y-67140000D01*
X135892164Y-67860000D02*
X136107836Y-67860000D01*
%TO.C,C13*%
X120140000Y-74607836D02*
X120140000Y-74392164D01*
X120860000Y-74607836D02*
X120860000Y-74392164D01*
%TO.C,C37*%
X130859420Y-66990000D02*
X131140580Y-66990000D01*
X130859420Y-68010000D02*
X131140580Y-68010000D01*
%TO.C,C17*%
X120140000Y-83607836D02*
X120140000Y-83392164D01*
X120860000Y-83607836D02*
X120860000Y-83392164D01*
%TO.C,C4*%
X122140000Y-78607836D02*
X122140000Y-78392164D01*
X122860000Y-78607836D02*
X122860000Y-78392164D01*
%TO.C,C11*%
X140892164Y-67140000D02*
X141107836Y-67140000D01*
X140892164Y-67860000D02*
X141107836Y-67860000D01*
%TO.C,C41*%
X115640000Y-96607836D02*
X115640000Y-96392164D01*
X116360000Y-96607836D02*
X116360000Y-96392164D01*
%TO.C,C32*%
X116765000Y-72461252D02*
X116765000Y-71938748D01*
X118235000Y-72461252D02*
X118235000Y-71938748D01*
%TO.C,U6*%
X104240000Y-90440000D02*
X105760000Y-90440000D01*
X104240000Y-90490000D02*
X104240000Y-90440000D01*
X104240000Y-92390000D02*
X104240000Y-91610000D01*
X104240000Y-93560000D02*
X104240000Y-93510000D01*
X105760000Y-90440000D02*
X105760000Y-91440000D01*
X105760000Y-92560000D02*
X105760000Y-93560000D01*
X105760000Y-93560000D02*
X104240000Y-93560000D01*
X103700000Y-91620000D02*
X103940000Y-91950000D01*
X103460000Y-91950000D01*
X103700000Y-91620000D01*
G36*
X103940000Y-91950000D02*
G01*
X103460000Y-91950000D01*
X103700000Y-91620000D01*
X103940000Y-91950000D01*
G37*
%TO.C,U4*%
X106090000Y-85440000D02*
X107910000Y-85440000D01*
X106090000Y-85490000D02*
X106090000Y-85440000D01*
X106090000Y-88560000D02*
X106090000Y-88510000D01*
X107910000Y-85440000D02*
X107910000Y-85490000D01*
X107910000Y-86610000D02*
X107910000Y-87390000D01*
X107910000Y-88510000D02*
X107910000Y-88560000D01*
X107910000Y-88560000D02*
X106090000Y-88560000D01*
X105550000Y-85490000D02*
X105310000Y-85160000D01*
X105790000Y-85160000D01*
X105550000Y-85490000D01*
G36*
X105550000Y-85490000D02*
G01*
X105310000Y-85160000D01*
X105790000Y-85160000D01*
X105550000Y-85490000D01*
G37*
%TO.C,U7*%
X104240000Y-94940000D02*
X105760000Y-94940000D01*
X104240000Y-94990000D02*
X104240000Y-94940000D01*
X104240000Y-96890000D02*
X104240000Y-96110000D01*
X104240000Y-98060000D02*
X104240000Y-98010000D01*
X105760000Y-94940000D02*
X105760000Y-95940000D01*
X105760000Y-97060000D02*
X105760000Y-98060000D01*
X105760000Y-98060000D02*
X104240000Y-98060000D01*
X103700000Y-96120000D02*
X103940000Y-96450000D01*
X103460000Y-96450000D01*
X103700000Y-96120000D01*
G36*
X103940000Y-96450000D02*
G01*
X103460000Y-96450000D01*
X103700000Y-96120000D01*
X103940000Y-96450000D01*
G37*
%TO.C,C16*%
X119190000Y-81632836D02*
X119190000Y-81417164D01*
X119910000Y-81632836D02*
X119910000Y-81417164D01*
%TO.C,C8*%
X133392164Y-67140000D02*
X133607836Y-67140000D01*
X133392164Y-67860000D02*
X133607836Y-67860000D01*
%TO.C,C38*%
X108140000Y-92107836D02*
X108140000Y-91892164D01*
X108860000Y-92107836D02*
X108860000Y-91892164D01*
%TO.C,U3*%
X106574432Y-72065000D02*
X107710000Y-72065000D01*
X107710000Y-73935000D02*
X106290000Y-73935000D01*
X106280000Y-72060000D02*
X106140000Y-71870000D01*
X106420000Y-71870000D01*
X106280000Y-72060000D01*
G36*
X106280000Y-72060000D02*
G01*
X106140000Y-71870000D01*
X106420000Y-71870000D01*
X106280000Y-72060000D01*
G37*
%TO.C,L1*%
X110390000Y-71390000D02*
X114610000Y-71390000D01*
X110390000Y-75610000D02*
X114610000Y-75610000D01*
%TO.C,R3*%
X123370000Y-81153641D02*
X123370000Y-80846359D01*
X124130000Y-81153641D02*
X124130000Y-80846359D01*
%TO.C,C31*%
X102765000Y-73261252D02*
X102765000Y-72738748D01*
X104235000Y-73261252D02*
X104235000Y-72738748D01*
%TD*%
%LPC*%
D13*
%TO.C,C24*%
X114500000Y-82950000D03*
X114500000Y-81050000D03*
%TD*%
D14*
%TO.C,C27*%
X120500000Y-88480000D03*
X120500000Y-87520000D03*
%TD*%
D15*
%TO.C,R10*%
X118490000Y-101000000D03*
X119510000Y-101000000D03*
%TD*%
D16*
%TO.C,R4*%
X123750000Y-79210000D03*
X123750000Y-78190000D03*
%TD*%
%TO.C,R12*%
X123750000Y-83810000D03*
X123750000Y-82790000D03*
%TD*%
D14*
%TO.C,C15*%
X120500000Y-78980000D03*
X120500000Y-78020000D03*
%TD*%
D17*
%TO.C,C28*%
X143520000Y-67500000D03*
X144480000Y-67500000D03*
%TD*%
D13*
%TO.C,C23*%
X114500000Y-87950000D03*
X114500000Y-86050000D03*
%TD*%
D18*
%TO.C,C29*%
X103500000Y-82775000D03*
X103500000Y-81225000D03*
%TD*%
D17*
%TO.C,C21*%
X138020000Y-69400000D03*
X138980000Y-69400000D03*
%TD*%
D14*
%TO.C,C6*%
X122500000Y-83980000D03*
X122500000Y-83020000D03*
%TD*%
D16*
%TO.C,R7*%
X123750000Y-76910000D03*
X123750000Y-75890000D03*
%TD*%
%TO.C,R14*%
X148100000Y-81210000D03*
X148100000Y-80190000D03*
%TD*%
D18*
%TO.C,C35*%
X111000000Y-87775000D03*
X111000000Y-86225000D03*
%TD*%
D16*
%TO.C,R8*%
X105000000Y-78010000D03*
X105000000Y-76990000D03*
%TD*%
D13*
%TO.C,C33*%
X117500000Y-77350000D03*
X117500000Y-75450000D03*
%TD*%
D16*
%TO.C,R17*%
X113500000Y-97010000D03*
X113500000Y-95990000D03*
%TD*%
D17*
%TO.C,C22*%
X140520000Y-69400000D03*
X141480000Y-69400000D03*
%TD*%
D14*
%TO.C,C14*%
X120500000Y-76980000D03*
X120500000Y-76020000D03*
%TD*%
D16*
%TO.C,R16*%
X111000000Y-97010000D03*
X111000000Y-95990000D03*
%TD*%
D14*
%TO.C,C18*%
X120500000Y-85980000D03*
X120500000Y-85020000D03*
%TD*%
D15*
%TO.C,R5*%
X130890000Y-69700000D03*
X131910000Y-69700000D03*
%TD*%
D16*
%TO.C,R13*%
X123750000Y-86110000D03*
X123750000Y-85090000D03*
%TD*%
D17*
%TO.C,C10*%
X138020000Y-67500000D03*
X138980000Y-67500000D03*
%TD*%
D15*
%TO.C,R11*%
X121490000Y-101000000D03*
X122510000Y-101000000D03*
%TD*%
D14*
%TO.C,C3*%
X122500000Y-76980000D03*
X122500000Y-76020000D03*
%TD*%
%TO.C,C40*%
X108500000Y-96980000D03*
X108500000Y-96020000D03*
%TD*%
D19*
%TO.C,C36*%
X122225000Y-67500000D03*
X123775000Y-67500000D03*
%TD*%
D18*
%TO.C,C34*%
X103500000Y-87775000D03*
X103500000Y-86225000D03*
%TD*%
D20*
%TO.C,U2*%
X105862500Y-81050000D03*
X105862500Y-82000000D03*
X105862500Y-82950000D03*
X108137500Y-82950000D03*
X108137500Y-81050000D03*
%TD*%
D14*
%TO.C,C7*%
X122500000Y-85980000D03*
X122500000Y-85020000D03*
%TD*%
D21*
%TO.C,U1*%
X127618000Y-90128000D03*
X144128000Y-73618000D03*
D22*
X126094000Y-82508000D03*
X126094000Y-83524000D03*
X126094000Y-84540000D03*
X126094000Y-85556000D03*
X126094000Y-86572000D03*
X126094000Y-87588000D03*
D23*
X130412000Y-91906000D03*
X131428000Y-91906000D03*
X132444000Y-91906000D03*
X133460000Y-91906000D03*
X134476000Y-91906000D03*
X135492000Y-91906000D03*
X136508000Y-91906000D03*
X137524000Y-91906000D03*
X138540000Y-91906000D03*
X139556000Y-91906000D03*
X140572000Y-91906000D03*
X141588000Y-91906000D03*
D22*
X145906000Y-87588000D03*
X145906000Y-86572000D03*
X145906000Y-85556000D03*
X145906000Y-84540000D03*
X145906000Y-83524000D03*
X145906000Y-82508000D03*
X145906000Y-81492000D03*
X145906000Y-80476000D03*
X145906000Y-79460000D03*
X145906000Y-78444000D03*
X145906000Y-77428000D03*
X145906000Y-76412000D03*
D23*
X141588000Y-72094000D03*
X140572000Y-72094000D03*
X139556000Y-72094000D03*
X138540000Y-72094000D03*
X137524000Y-72094000D03*
X136508000Y-72094000D03*
X135492000Y-72094000D03*
X134476000Y-72094000D03*
X133460000Y-72094000D03*
X132444000Y-72094000D03*
X131428000Y-72094000D03*
X130412000Y-72094000D03*
D22*
X126094000Y-76412000D03*
X126094000Y-77428000D03*
X126094000Y-78444000D03*
X126094000Y-79460000D03*
X126094000Y-80476000D03*
X126094000Y-81492000D03*
%TD*%
D14*
%TO.C,C26*%
X122500000Y-88480000D03*
X122500000Y-87520000D03*
%TD*%
D18*
%TO.C,C30*%
X111000000Y-82775000D03*
X111000000Y-81225000D03*
%TD*%
D15*
%TO.C,R6*%
X128390000Y-69700000D03*
X129410000Y-69700000D03*
%TD*%
D14*
%TO.C,C5*%
X121500000Y-81980000D03*
X121500000Y-81020000D03*
%TD*%
D20*
%TO.C,U5*%
X125862500Y-66550000D03*
X125862500Y-67500000D03*
X125862500Y-68450000D03*
X128137500Y-68450000D03*
X128137500Y-66550000D03*
%TD*%
D17*
%TO.C,C19*%
X133020000Y-69400000D03*
X133980000Y-69400000D03*
%TD*%
D14*
%TO.C,C39*%
X113500000Y-92480000D03*
X113500000Y-91520000D03*
%TD*%
%TO.C,C1*%
X122500000Y-72980000D03*
X122500000Y-72020000D03*
%TD*%
%TO.C,C2*%
X122500000Y-74980000D03*
X122500000Y-74020000D03*
%TD*%
D16*
%TO.C,R1*%
X148200000Y-79010000D03*
X148200000Y-77990000D03*
%TD*%
D14*
%TO.C,C12*%
X120500000Y-72980000D03*
X120500000Y-72020000D03*
%TD*%
D16*
%TO.C,R9*%
X107500000Y-78010000D03*
X107500000Y-76990000D03*
%TD*%
D17*
%TO.C,C20*%
X135520000Y-69400000D03*
X136480000Y-69400000D03*
%TD*%
D16*
%TO.C,R15*%
X111000000Y-92510000D03*
X111000000Y-91490000D03*
%TD*%
D17*
%TO.C,C9*%
X135520000Y-67500000D03*
X136480000Y-67500000D03*
%TD*%
D14*
%TO.C,C13*%
X120500000Y-74980000D03*
X120500000Y-74020000D03*
%TD*%
D19*
%TO.C,C37*%
X130225000Y-67500000D03*
X131775000Y-67500000D03*
%TD*%
D14*
%TO.C,C17*%
X120500000Y-83980000D03*
X120500000Y-83020000D03*
%TD*%
%TO.C,C4*%
X122500000Y-78980000D03*
X122500000Y-78020000D03*
%TD*%
D17*
%TO.C,C11*%
X140520000Y-67500000D03*
X141480000Y-67500000D03*
%TD*%
D14*
%TO.C,C41*%
X116000000Y-96980000D03*
X116000000Y-96020000D03*
%TD*%
D13*
%TO.C,C32*%
X117500000Y-73150000D03*
X117500000Y-71250000D03*
%TD*%
D24*
%TO.C,U6*%
X104062500Y-91050000D03*
X104062500Y-92950000D03*
X105937500Y-92000000D03*
%TD*%
D20*
%TO.C,U4*%
X105862500Y-86050000D03*
X105862500Y-87000000D03*
X105862500Y-87950000D03*
X108137500Y-87950000D03*
X108137500Y-86050000D03*
%TD*%
D24*
%TO.C,U7*%
X104062500Y-95550000D03*
X104062500Y-97450000D03*
X105937500Y-96500000D03*
%TD*%
D14*
%TO.C,C16*%
X119550000Y-82005000D03*
X119550000Y-81045000D03*
%TD*%
D17*
%TO.C,C8*%
X133020000Y-67500000D03*
X133980000Y-67500000D03*
%TD*%
D14*
%TO.C,C38*%
X108500000Y-92480000D03*
X108500000Y-91520000D03*
%TD*%
D25*
%TO.C,U3*%
X106287500Y-72500000D03*
X106287500Y-73000000D03*
X106287500Y-73500000D03*
X107712500Y-73500000D03*
X107712500Y-73000000D03*
X107712500Y-72500000D03*
%TD*%
D26*
%TO.C,L1*%
X111325000Y-73500000D03*
X113675000Y-73500000D03*
%TD*%
D16*
%TO.C,R3*%
X123750000Y-81510000D03*
X123750000Y-80490000D03*
%TD*%
D13*
%TO.C,C31*%
X103500000Y-73950000D03*
X103500000Y-72050000D03*
%TD*%
%LPD*%
M02*
