M48
; DRILL file KiCad 10.0.3 date 2026-07-15T18:53:50
; FORMAT={-:-/ absolute / metric / decimal}
; #@! TF.CreationDate,2026-07-15T18:53:50-04:00
; #@! TF.GenerationSoftware,Kicad,Pcbnew,10.0.3
; #@! TF.FileFunction,Plated,1,4,PTH
FMAT,2
METRIC
; #@! TA.AperFunction,Plated,PTH,ViaDrill
T1C0.300
; #@! TA.AperFunction,Plated,PTH,ViaDrill
T2C0.400
%
G90
G05
T1
X104.95Y-74.1
X105.3Y-94.075
X105.85Y-84.45
X106.175Y-78.05
X109.45Y-89.175
X109.675Y-73.2
X111.025Y-90.375
X116.15Y-71.8
X121.775Y-70.175
X122.5Y-99.375
X123.125Y-98.175
X127.175Y-61.275
X128.0Y-93.6
X128.0Y-98.6
X128.35Y-77.428
X128.8Y-95.0
X128.875Y-78.375
X128.875Y-79.5
X128.875Y-80.4
X128.875Y-84.45
X128.9Y-76.375
X129.2Y-97.5
X129.6Y-93.6
X129.625Y-63.775
X129.975Y-61.275
X130.0Y-96.1
X130.218Y-74.325
X130.412Y-93.75
X130.44Y-75.396
X130.5Y-98.5
X130.884Y-73.882
X131.05Y-61.225
X131.428Y-93.75
X131.9Y-94.4
X131.9Y-96.0
X132.1Y-98.5
X132.325Y-78.35
X132.4Y-66.5
X133.6Y-64.05
X133.7Y-98.5
X133.9Y-94.4
X133.9Y-96.0
X134.476Y-93.75
X134.75Y-66.525
X135.4Y-98.5
X135.492Y-93.75
X136.1Y-94.3
X137.0Y-98.5
X138.0Y-94.4
X138.54Y-93.75
X138.86Y-98.8
X139.54Y-98.8
X139.556Y-93.75
X141.26Y-98.8
X141.94Y-98.8
X142.3Y-93.6
X143.66Y-98.8
X143.9Y-93.6
X144.34Y-98.8
X146.1Y-93.6
X146.1Y-96.4
X146.9Y-95.0
X146.9Y-97.8
X147.7Y-85.0
X148.5Y-85.0
T2
X103.4Y-78.625
X104.5Y-84.2
X105.95Y-90.4
X106.35Y-75.45
X109.7Y-94.25
X110.825Y-94.625
X111.6Y-101.0
X111.7Y-69.9
X116.0Y-93.71
X116.525Y-79.75
X116.55Y-83.075
X118.05Y-84.575
X118.925Y-68.55
X118.925Y-73.95
X119.2Y-76.975
X119.325Y-87.0
X119.4Y-83.025
X119.525Y-75.05
X119.55Y-79.0
X124.425Y-89.2
X128.725Y-81.475
X129.85Y-82.508
X133.499Y-75.074
X135.5Y-79.8
X136.508Y-77.417
X138.15Y-87.55
X138.975Y-74.525
X139.3Y-79.475
X139.35Y-86.05
X139.725Y-68.5
X142.129Y-74.921
X142.625Y-73.825
M30
