%TF.GenerationSoftware,KiCad,Pcbnew,10.0.3*%
%TF.CreationDate,2026-06-17T16:09:25-04:00*%
%TF.ProjectId,LauCameraTrigger_Alchitry,4c617543-616d-4657-9261-547269676765,rev?*%
%TF.SameCoordinates,Original*%
%TF.FileFunction,Soldermask,Top*%
%TF.FilePolarity,Negative*%
%FSLAX46Y46*%
G04 Gerber Fmt 4.6, Leading zero omitted, Abs format (unit mm)*
G04 Created by KiCad (PCBNEW 10.0.3) date 2026-06-17 16:09:25*
%MOMM*%
%LPD*%
G01*
G04 APERTURE LIST*
G04 Aperture macros list*
%AMRoundRect*
0 Rectangle with rounded corners*
0 $1 Rounding radius*
0 $2 $3 $4 $5 $6 $7 $8 $9 X,Y pos of 4 corners*
0 Add a 4 corners polygon primitive as box body*
4,1,4,$2,$3,$4,$5,$6,$7,$8,$9,$2,$3,0*
0 Add four circle primitives for the rounded corners*
1,1,$1+$1,$2,$3*
1,1,$1+$1,$4,$5*
1,1,$1+$1,$6,$7*
1,1,$1+$1,$8,$9*
0 Add four rect primitives between the rounded corners*
20,1,$1+$1,$2,$3,$4,$5,0*
20,1,$1+$1,$4,$5,$6,$7,0*
20,1,$1+$1,$6,$7,$8,$9,0*
20,1,$1+$1,$8,$9,$2,$3,0*%
G04 Aperture macros list end*
%ADD10R,1.700000X1.700000*%
%ADD11O,1.700000X1.700000*%
%ADD12C,1.600000*%
%ADD13O,1.600000X1.600000*%
%ADD14RoundRect,0.150000X0.625000X-0.150000X0.625000X0.150000X-0.625000X0.150000X-0.625000X-0.150000X0*%
%ADD15RoundRect,0.250000X0.650000X-0.350000X0.650000X0.350000X-0.650000X0.350000X-0.650000X-0.350000X0*%
G04 APERTURE END LIST*
D10*
%TO.C,J2*%
X132080000Y-116840000D03*
D11*
X129540000Y-116840000D03*
X127000000Y-116840000D03*
X124460000Y-116840000D03*
X121920000Y-116840000D03*
X119380000Y-116840000D03*
X116840000Y-116840000D03*
X114300000Y-116840000D03*
%TD*%
D10*
%TO.C,J5*%
X144780000Y-88920000D03*
D11*
X142240000Y-88920000D03*
X139700000Y-88920000D03*
%TD*%
D12*
%TO.C,R6*%
X133096000Y-98426000D03*
D13*
X122936000Y-98426000D03*
%TD*%
D14*
%TO.C,J3*%
X151000000Y-108000000D03*
X151000000Y-107000000D03*
X151000000Y-106000000D03*
X151000000Y-105000000D03*
X151000000Y-104000000D03*
X151000000Y-103000000D03*
X151000000Y-102000000D03*
D15*
X154875000Y-109300000D03*
X154875000Y-100700000D03*
%TD*%
D10*
%TO.C,J1*%
X132080000Y-111760000D03*
D11*
X129540000Y-111760000D03*
X127000000Y-111760000D03*
X124460000Y-111760000D03*
X121920000Y-111760000D03*
X119380000Y-111760000D03*
X116840000Y-111760000D03*
X114300000Y-111760000D03*
%TD*%
D10*
%TO.C,J4*%
X142240000Y-121920000D03*
D11*
X139700000Y-121920000D03*
X142240000Y-119380000D03*
X139700000Y-119380000D03*
X142240000Y-116840000D03*
X139700000Y-116840000D03*
%TD*%
D10*
%TO.C,J7*%
X144780000Y-93726000D03*
D11*
X142240000Y-93726000D03*
X139700000Y-93726000D03*
%TD*%
D12*
%TO.C,R3*%
X119096000Y-98426000D03*
D13*
X108936000Y-98426000D03*
%TD*%
D12*
%TO.C,R5*%
X133096000Y-102426000D03*
D13*
X122936000Y-102426000D03*
%TD*%
D14*
%TO.C,J10*%
X150925000Y-119500000D03*
X150925000Y-118500000D03*
X150925000Y-117500000D03*
X150925000Y-116500000D03*
X150925000Y-115500000D03*
X150925000Y-114500000D03*
X150925000Y-113500000D03*
D15*
X154800000Y-120800000D03*
X154800000Y-112200000D03*
%TD*%
D10*
%TO.C,J8*%
X144780000Y-102870000D03*
D11*
X142240000Y-102870000D03*
X139700000Y-102870000D03*
%TD*%
D14*
%TO.C,J9*%
X151000000Y-96500000D03*
X151000000Y-95500000D03*
X151000000Y-94500000D03*
X151000000Y-93500000D03*
X151000000Y-92500000D03*
X151000000Y-91500000D03*
X151000000Y-90500000D03*
D15*
X154875000Y-97800000D03*
X154875000Y-89200000D03*
%TD*%
D10*
%TO.C,J6*%
X144765000Y-98298000D03*
D11*
X142225000Y-98298000D03*
X139685000Y-98298000D03*
%TD*%
D12*
%TO.C,R2*%
X119096000Y-102426000D03*
D13*
X108936000Y-102426000D03*
%TD*%
M02*
