%TF.GenerationSoftware,KiCad,Pcbnew,10.0.3*%
%TF.CreationDate,2026-06-17T16:09:25-04:00*%
%TF.ProjectId,LauCameraTrigger_Alchitry,4c617543-616d-4657-9261-547269676765,rev?*%
%TF.SameCoordinates,Original*%
%TF.FileFunction,Legend,Top*%
%TF.FilePolarity,Positive*%
%FSLAX46Y46*%
G04 Gerber Fmt 4.6, Leading zero omitted, Abs format (unit mm)*
G04 Created by KiCad (PCBNEW 10.0.3) date 2026-06-17 16:09:25*
%MOMM*%
%LPD*%
G01*
G04 APERTURE LIST*
%ADD10C,0.100000*%
%ADD11C,0.150000*%
%ADD12C,0.120000*%
G04 APERTURE END LIST*
D10*
X108015693Y-91630038D02*
X107920455Y-91582419D01*
X107920455Y-91582419D02*
X107777598Y-91582419D01*
X107777598Y-91582419D02*
X107634741Y-91630038D01*
X107634741Y-91630038D02*
X107539503Y-91725276D01*
X107539503Y-91725276D02*
X107491884Y-91820514D01*
X107491884Y-91820514D02*
X107444265Y-92010990D01*
X107444265Y-92010990D02*
X107444265Y-92153847D01*
X107444265Y-92153847D02*
X107491884Y-92344323D01*
X107491884Y-92344323D02*
X107539503Y-92439561D01*
X107539503Y-92439561D02*
X107634741Y-92534800D01*
X107634741Y-92534800D02*
X107777598Y-92582419D01*
X107777598Y-92582419D02*
X107872836Y-92582419D01*
X107872836Y-92582419D02*
X108015693Y-92534800D01*
X108015693Y-92534800D02*
X108063312Y-92487180D01*
X108063312Y-92487180D02*
X108063312Y-92153847D01*
X108063312Y-92153847D02*
X107872836Y-92153847D01*
X108491884Y-92582419D02*
X108491884Y-91582419D01*
X108491884Y-91582419D02*
X109063312Y-92582419D01*
X109063312Y-92582419D02*
X109063312Y-91582419D01*
X109539503Y-92582419D02*
X109539503Y-91582419D01*
X109539503Y-91582419D02*
X109777598Y-91582419D01*
X109777598Y-91582419D02*
X109920455Y-91630038D01*
X109920455Y-91630038D02*
X110015693Y-91725276D01*
X110015693Y-91725276D02*
X110063312Y-91820514D01*
X110063312Y-91820514D02*
X110110931Y-92010990D01*
X110110931Y-92010990D02*
X110110931Y-92153847D01*
X110110931Y-92153847D02*
X110063312Y-92344323D01*
X110063312Y-92344323D02*
X110015693Y-92439561D01*
X110015693Y-92439561D02*
X109920455Y-92534800D01*
X109920455Y-92534800D02*
X109777598Y-92582419D01*
X109777598Y-92582419D02*
X109539503Y-92582419D01*
X132542646Y-91582419D02*
X133161693Y-91582419D01*
X133161693Y-91582419D02*
X132828360Y-91963371D01*
X132828360Y-91963371D02*
X132971217Y-91963371D01*
X132971217Y-91963371D02*
X133066455Y-92010990D01*
X133066455Y-92010990D02*
X133114074Y-92058609D01*
X133114074Y-92058609D02*
X133161693Y-92153847D01*
X133161693Y-92153847D02*
X133161693Y-92391942D01*
X133161693Y-92391942D02*
X133114074Y-92487180D01*
X133114074Y-92487180D02*
X133066455Y-92534800D01*
X133066455Y-92534800D02*
X132971217Y-92582419D01*
X132971217Y-92582419D02*
X132685503Y-92582419D01*
X132685503Y-92582419D02*
X132590265Y-92534800D01*
X132590265Y-92534800D02*
X132542646Y-92487180D01*
X133590265Y-92487180D02*
X133637884Y-92534800D01*
X133637884Y-92534800D02*
X133590265Y-92582419D01*
X133590265Y-92582419D02*
X133542646Y-92534800D01*
X133542646Y-92534800D02*
X133590265Y-92487180D01*
X133590265Y-92487180D02*
X133590265Y-92582419D01*
X133971217Y-91582419D02*
X134590264Y-91582419D01*
X134590264Y-91582419D02*
X134256931Y-91963371D01*
X134256931Y-91963371D02*
X134399788Y-91963371D01*
X134399788Y-91963371D02*
X134495026Y-92010990D01*
X134495026Y-92010990D02*
X134542645Y-92058609D01*
X134542645Y-92058609D02*
X134590264Y-92153847D01*
X134590264Y-92153847D02*
X134590264Y-92391942D01*
X134590264Y-92391942D02*
X134542645Y-92487180D01*
X134542645Y-92487180D02*
X134495026Y-92534800D01*
X134495026Y-92534800D02*
X134399788Y-92582419D01*
X134399788Y-92582419D02*
X134114074Y-92582419D01*
X134114074Y-92582419D02*
X134018836Y-92534800D01*
X134018836Y-92534800D02*
X133971217Y-92487180D01*
X134923598Y-91915752D02*
X135161693Y-92582419D01*
X135161693Y-92582419D02*
X135399788Y-91915752D01*
X134157693Y-110680038D02*
X134062455Y-110632419D01*
X134062455Y-110632419D02*
X133919598Y-110632419D01*
X133919598Y-110632419D02*
X133776741Y-110680038D01*
X133776741Y-110680038D02*
X133681503Y-110775276D01*
X133681503Y-110775276D02*
X133633884Y-110870514D01*
X133633884Y-110870514D02*
X133586265Y-111060990D01*
X133586265Y-111060990D02*
X133586265Y-111203847D01*
X133586265Y-111203847D02*
X133633884Y-111394323D01*
X133633884Y-111394323D02*
X133681503Y-111489561D01*
X133681503Y-111489561D02*
X133776741Y-111584800D01*
X133776741Y-111584800D02*
X133919598Y-111632419D01*
X133919598Y-111632419D02*
X134014836Y-111632419D01*
X134014836Y-111632419D02*
X134157693Y-111584800D01*
X134157693Y-111584800D02*
X134205312Y-111537180D01*
X134205312Y-111537180D02*
X134205312Y-111203847D01*
X134205312Y-111203847D02*
X134014836Y-111203847D01*
X134633884Y-111632419D02*
X134633884Y-110632419D01*
X134633884Y-110632419D02*
X135205312Y-111632419D01*
X135205312Y-111632419D02*
X135205312Y-110632419D01*
X135681503Y-111632419D02*
X135681503Y-110632419D01*
X135681503Y-110632419D02*
X135919598Y-110632419D01*
X135919598Y-110632419D02*
X136062455Y-110680038D01*
X136062455Y-110680038D02*
X136157693Y-110775276D01*
X136157693Y-110775276D02*
X136205312Y-110870514D01*
X136205312Y-110870514D02*
X136252931Y-111060990D01*
X136252931Y-111060990D02*
X136252931Y-111203847D01*
X136252931Y-111203847D02*
X136205312Y-111394323D01*
X136205312Y-111394323D02*
X136157693Y-111489561D01*
X136157693Y-111489561D02*
X136062455Y-111584800D01*
X136062455Y-111584800D02*
X135919598Y-111632419D01*
X135919598Y-111632419D02*
X135681503Y-111632419D01*
X134157693Y-115760038D02*
X134062455Y-115712419D01*
X134062455Y-115712419D02*
X133919598Y-115712419D01*
X133919598Y-115712419D02*
X133776741Y-115760038D01*
X133776741Y-115760038D02*
X133681503Y-115855276D01*
X133681503Y-115855276D02*
X133633884Y-115950514D01*
X133633884Y-115950514D02*
X133586265Y-116140990D01*
X133586265Y-116140990D02*
X133586265Y-116283847D01*
X133586265Y-116283847D02*
X133633884Y-116474323D01*
X133633884Y-116474323D02*
X133681503Y-116569561D01*
X133681503Y-116569561D02*
X133776741Y-116664800D01*
X133776741Y-116664800D02*
X133919598Y-116712419D01*
X133919598Y-116712419D02*
X134014836Y-116712419D01*
X134014836Y-116712419D02*
X134157693Y-116664800D01*
X134157693Y-116664800D02*
X134205312Y-116617180D01*
X134205312Y-116617180D02*
X134205312Y-116283847D01*
X134205312Y-116283847D02*
X134014836Y-116283847D01*
X134633884Y-116712419D02*
X134633884Y-115712419D01*
X134633884Y-115712419D02*
X135205312Y-116712419D01*
X135205312Y-116712419D02*
X135205312Y-115712419D01*
X135681503Y-116712419D02*
X135681503Y-115712419D01*
X135681503Y-115712419D02*
X135919598Y-115712419D01*
X135919598Y-115712419D02*
X136062455Y-115760038D01*
X136062455Y-115760038D02*
X136157693Y-115855276D01*
X136157693Y-115855276D02*
X136205312Y-115950514D01*
X136205312Y-115950514D02*
X136252931Y-116140990D01*
X136252931Y-116140990D02*
X136252931Y-116283847D01*
X136252931Y-116283847D02*
X136205312Y-116474323D01*
X136205312Y-116474323D02*
X136157693Y-116569561D01*
X136157693Y-116569561D02*
X136062455Y-116664800D01*
X136062455Y-116664800D02*
X135919598Y-116712419D01*
X135919598Y-116712419D02*
X135681503Y-116712419D01*
X137225693Y-104838038D02*
X137130455Y-104790419D01*
X137130455Y-104790419D02*
X136987598Y-104790419D01*
X136987598Y-104790419D02*
X136844741Y-104838038D01*
X136844741Y-104838038D02*
X136749503Y-104933276D01*
X136749503Y-104933276D02*
X136701884Y-105028514D01*
X136701884Y-105028514D02*
X136654265Y-105218990D01*
X136654265Y-105218990D02*
X136654265Y-105361847D01*
X136654265Y-105361847D02*
X136701884Y-105552323D01*
X136701884Y-105552323D02*
X136749503Y-105647561D01*
X136749503Y-105647561D02*
X136844741Y-105742800D01*
X136844741Y-105742800D02*
X136987598Y-105790419D01*
X136987598Y-105790419D02*
X137082836Y-105790419D01*
X137082836Y-105790419D02*
X137225693Y-105742800D01*
X137225693Y-105742800D02*
X137273312Y-105695180D01*
X137273312Y-105695180D02*
X137273312Y-105361847D01*
X137273312Y-105361847D02*
X137082836Y-105361847D01*
X137701884Y-105790419D02*
X137701884Y-104790419D01*
X137701884Y-104790419D02*
X138273312Y-105790419D01*
X138273312Y-105790419D02*
X138273312Y-104790419D01*
X138749503Y-105790419D02*
X138749503Y-104790419D01*
X138749503Y-104790419D02*
X138987598Y-104790419D01*
X138987598Y-104790419D02*
X139130455Y-104838038D01*
X139130455Y-104838038D02*
X139225693Y-104933276D01*
X139225693Y-104933276D02*
X139273312Y-105028514D01*
X139273312Y-105028514D02*
X139320931Y-105218990D01*
X139320931Y-105218990D02*
X139320931Y-105361847D01*
X139320931Y-105361847D02*
X139273312Y-105552323D01*
X139273312Y-105552323D02*
X139225693Y-105647561D01*
X139225693Y-105647561D02*
X139130455Y-105742800D01*
X139130455Y-105742800D02*
X138987598Y-105790419D01*
X138987598Y-105790419D02*
X138749503Y-105790419D01*
X143718646Y-104790419D02*
X144337693Y-104790419D01*
X144337693Y-104790419D02*
X144004360Y-105171371D01*
X144004360Y-105171371D02*
X144147217Y-105171371D01*
X144147217Y-105171371D02*
X144242455Y-105218990D01*
X144242455Y-105218990D02*
X144290074Y-105266609D01*
X144290074Y-105266609D02*
X144337693Y-105361847D01*
X144337693Y-105361847D02*
X144337693Y-105599942D01*
X144337693Y-105599942D02*
X144290074Y-105695180D01*
X144290074Y-105695180D02*
X144242455Y-105742800D01*
X144242455Y-105742800D02*
X144147217Y-105790419D01*
X144147217Y-105790419D02*
X143861503Y-105790419D01*
X143861503Y-105790419D02*
X143766265Y-105742800D01*
X143766265Y-105742800D02*
X143718646Y-105695180D01*
X144766265Y-105695180D02*
X144813884Y-105742800D01*
X144813884Y-105742800D02*
X144766265Y-105790419D01*
X144766265Y-105790419D02*
X144718646Y-105742800D01*
X144718646Y-105742800D02*
X144766265Y-105695180D01*
X144766265Y-105695180D02*
X144766265Y-105790419D01*
X145147217Y-104790419D02*
X145766264Y-104790419D01*
X145766264Y-104790419D02*
X145432931Y-105171371D01*
X145432931Y-105171371D02*
X145575788Y-105171371D01*
X145575788Y-105171371D02*
X145671026Y-105218990D01*
X145671026Y-105218990D02*
X145718645Y-105266609D01*
X145718645Y-105266609D02*
X145766264Y-105361847D01*
X145766264Y-105361847D02*
X145766264Y-105599942D01*
X145766264Y-105599942D02*
X145718645Y-105695180D01*
X145718645Y-105695180D02*
X145671026Y-105742800D01*
X145671026Y-105742800D02*
X145575788Y-105790419D01*
X145575788Y-105790419D02*
X145290074Y-105790419D01*
X145290074Y-105790419D02*
X145194836Y-105742800D01*
X145194836Y-105742800D02*
X145147217Y-105695180D01*
X146099598Y-105123752D02*
X146337693Y-105790419D01*
X146337693Y-105790419D02*
X146575788Y-105123752D01*
X144845693Y-116268038D02*
X144750455Y-116220419D01*
X144750455Y-116220419D02*
X144607598Y-116220419D01*
X144607598Y-116220419D02*
X144464741Y-116268038D01*
X144464741Y-116268038D02*
X144369503Y-116363276D01*
X144369503Y-116363276D02*
X144321884Y-116458514D01*
X144321884Y-116458514D02*
X144274265Y-116648990D01*
X144274265Y-116648990D02*
X144274265Y-116791847D01*
X144274265Y-116791847D02*
X144321884Y-116982323D01*
X144321884Y-116982323D02*
X144369503Y-117077561D01*
X144369503Y-117077561D02*
X144464741Y-117172800D01*
X144464741Y-117172800D02*
X144607598Y-117220419D01*
X144607598Y-117220419D02*
X144702836Y-117220419D01*
X144702836Y-117220419D02*
X144845693Y-117172800D01*
X144845693Y-117172800D02*
X144893312Y-117125180D01*
X144893312Y-117125180D02*
X144893312Y-116791847D01*
X144893312Y-116791847D02*
X144702836Y-116791847D01*
X145321884Y-117220419D02*
X145321884Y-116220419D01*
X145321884Y-116220419D02*
X145893312Y-117220419D01*
X145893312Y-117220419D02*
X145893312Y-116220419D01*
X146369503Y-117220419D02*
X146369503Y-116220419D01*
X146369503Y-116220419D02*
X146607598Y-116220419D01*
X146607598Y-116220419D02*
X146750455Y-116268038D01*
X146750455Y-116268038D02*
X146845693Y-116363276D01*
X146845693Y-116363276D02*
X146893312Y-116458514D01*
X146893312Y-116458514D02*
X146940931Y-116648990D01*
X146940931Y-116648990D02*
X146940931Y-116791847D01*
X146940931Y-116791847D02*
X146893312Y-116982323D01*
X146893312Y-116982323D02*
X146845693Y-117077561D01*
X146845693Y-117077561D02*
X146750455Y-117172800D01*
X146750455Y-117172800D02*
X146607598Y-117220419D01*
X146607598Y-117220419D02*
X146369503Y-117220419D01*
X144480646Y-121554419D02*
X145099693Y-121554419D01*
X145099693Y-121554419D02*
X144766360Y-121935371D01*
X144766360Y-121935371D02*
X144909217Y-121935371D01*
X144909217Y-121935371D02*
X145004455Y-121982990D01*
X145004455Y-121982990D02*
X145052074Y-122030609D01*
X145052074Y-122030609D02*
X145099693Y-122125847D01*
X145099693Y-122125847D02*
X145099693Y-122363942D01*
X145099693Y-122363942D02*
X145052074Y-122459180D01*
X145052074Y-122459180D02*
X145004455Y-122506800D01*
X145004455Y-122506800D02*
X144909217Y-122554419D01*
X144909217Y-122554419D02*
X144623503Y-122554419D01*
X144623503Y-122554419D02*
X144528265Y-122506800D01*
X144528265Y-122506800D02*
X144480646Y-122459180D01*
X145528265Y-122459180D02*
X145575884Y-122506800D01*
X145575884Y-122506800D02*
X145528265Y-122554419D01*
X145528265Y-122554419D02*
X145480646Y-122506800D01*
X145480646Y-122506800D02*
X145528265Y-122459180D01*
X145528265Y-122459180D02*
X145528265Y-122554419D01*
X145909217Y-121554419D02*
X146528264Y-121554419D01*
X146528264Y-121554419D02*
X146194931Y-121935371D01*
X146194931Y-121935371D02*
X146337788Y-121935371D01*
X146337788Y-121935371D02*
X146433026Y-121982990D01*
X146433026Y-121982990D02*
X146480645Y-122030609D01*
X146480645Y-122030609D02*
X146528264Y-122125847D01*
X146528264Y-122125847D02*
X146528264Y-122363942D01*
X146528264Y-122363942D02*
X146480645Y-122459180D01*
X146480645Y-122459180D02*
X146433026Y-122506800D01*
X146433026Y-122506800D02*
X146337788Y-122554419D01*
X146337788Y-122554419D02*
X146052074Y-122554419D01*
X146052074Y-122554419D02*
X145956836Y-122506800D01*
X145956836Y-122506800D02*
X145909217Y-122459180D01*
X146861598Y-121887752D02*
X147099693Y-122554419D01*
X147099693Y-122554419D02*
X147337788Y-121887752D01*
D11*
X112329580Y-118411428D02*
X112377200Y-118459047D01*
X112377200Y-118459047D02*
X112424819Y-118601904D01*
X112424819Y-118601904D02*
X112424819Y-118697142D01*
X112424819Y-118697142D02*
X112377200Y-118839999D01*
X112377200Y-118839999D02*
X112281961Y-118935237D01*
X112281961Y-118935237D02*
X112186723Y-118982856D01*
X112186723Y-118982856D02*
X111996247Y-119030475D01*
X111996247Y-119030475D02*
X111853390Y-119030475D01*
X111853390Y-119030475D02*
X111662914Y-118982856D01*
X111662914Y-118982856D02*
X111567676Y-118935237D01*
X111567676Y-118935237D02*
X111472438Y-118839999D01*
X111472438Y-118839999D02*
X111424819Y-118697142D01*
X111424819Y-118697142D02*
X111424819Y-118601904D01*
X111424819Y-118601904D02*
X111472438Y-118459047D01*
X111472438Y-118459047D02*
X111520057Y-118411428D01*
X112139104Y-118030475D02*
X112139104Y-117554285D01*
X112424819Y-118125713D02*
X111424819Y-117792380D01*
X111424819Y-117792380D02*
X112424819Y-117459047D01*
X112424819Y-117125713D02*
X111424819Y-117125713D01*
X111424819Y-117125713D02*
X112139104Y-116792380D01*
X112139104Y-116792380D02*
X111424819Y-116459047D01*
X111424819Y-116459047D02*
X112424819Y-116459047D01*
X111901009Y-114887618D02*
X111948628Y-114744761D01*
X111948628Y-114744761D02*
X111996247Y-114697142D01*
X111996247Y-114697142D02*
X112091485Y-114649523D01*
X112091485Y-114649523D02*
X112234342Y-114649523D01*
X112234342Y-114649523D02*
X112329580Y-114697142D01*
X112329580Y-114697142D02*
X112377200Y-114744761D01*
X112377200Y-114744761D02*
X112424819Y-114839999D01*
X112424819Y-114839999D02*
X112424819Y-115220951D01*
X112424819Y-115220951D02*
X111424819Y-115220951D01*
X111424819Y-115220951D02*
X111424819Y-114887618D01*
X111424819Y-114887618D02*
X111472438Y-114792380D01*
X111472438Y-114792380D02*
X111520057Y-114744761D01*
X111520057Y-114744761D02*
X111615295Y-114697142D01*
X111615295Y-114697142D02*
X111710533Y-114697142D01*
X111710533Y-114697142D02*
X111805771Y-114744761D01*
X111805771Y-114744761D02*
X111853390Y-114792380D01*
X111853390Y-114792380D02*
X111901009Y-114887618D01*
X111901009Y-114887618D02*
X111901009Y-115220951D01*
X137824819Y-90419999D02*
X136824819Y-90419999D01*
X137301009Y-90419999D02*
X137301009Y-89848571D01*
X137824819Y-89848571D02*
X136824819Y-89848571D01*
X137158152Y-89467618D02*
X137824819Y-89229523D01*
X137824819Y-89229523D02*
X137158152Y-88991428D01*
X137777200Y-88658094D02*
X137824819Y-88562856D01*
X137824819Y-88562856D02*
X137824819Y-88372380D01*
X137824819Y-88372380D02*
X137777200Y-88277142D01*
X137777200Y-88277142D02*
X137681961Y-88229523D01*
X137681961Y-88229523D02*
X137634342Y-88229523D01*
X137634342Y-88229523D02*
X137539104Y-88277142D01*
X137539104Y-88277142D02*
X137491485Y-88372380D01*
X137491485Y-88372380D02*
X137491485Y-88515237D01*
X137491485Y-88515237D02*
X137443866Y-88610475D01*
X137443866Y-88610475D02*
X137348628Y-88658094D01*
X137348628Y-88658094D02*
X137301009Y-88658094D01*
X137301009Y-88658094D02*
X137205771Y-88610475D01*
X137205771Y-88610475D02*
X137158152Y-88515237D01*
X137158152Y-88515237D02*
X137158152Y-88372380D01*
X137158152Y-88372380D02*
X137205771Y-88277142D01*
X136824819Y-87943808D02*
X137824819Y-87610475D01*
X137824819Y-87610475D02*
X136824819Y-87277142D01*
X126849333Y-96225104D02*
X127325523Y-96225104D01*
X126754095Y-96510819D02*
X127087428Y-95510819D01*
X127087428Y-95510819D02*
X127420761Y-96510819D01*
X127706476Y-95606057D02*
X127754095Y-95558438D01*
X127754095Y-95558438D02*
X127849333Y-95510819D01*
X127849333Y-95510819D02*
X128087428Y-95510819D01*
X128087428Y-95510819D02*
X128182666Y-95558438D01*
X128182666Y-95558438D02*
X128230285Y-95606057D01*
X128230285Y-95606057D02*
X128277904Y-95701295D01*
X128277904Y-95701295D02*
X128277904Y-95796533D01*
X128277904Y-95796533D02*
X128230285Y-95939390D01*
X128230285Y-95939390D02*
X127658857Y-96510819D01*
X127658857Y-96510819D02*
X128277904Y-96510819D01*
X128706476Y-96510819D02*
X128706476Y-95510819D01*
X129135047Y-96510819D02*
X129135047Y-95987009D01*
X129135047Y-95987009D02*
X129087428Y-95891771D01*
X129087428Y-95891771D02*
X128992190Y-95844152D01*
X128992190Y-95844152D02*
X128849333Y-95844152D01*
X128849333Y-95844152D02*
X128754095Y-95891771D01*
X128754095Y-95891771D02*
X128706476Y-95939390D01*
X148474819Y-105333333D02*
X149189104Y-105333333D01*
X149189104Y-105333333D02*
X149331961Y-105380952D01*
X149331961Y-105380952D02*
X149427200Y-105476190D01*
X149427200Y-105476190D02*
X149474819Y-105619047D01*
X149474819Y-105619047D02*
X149474819Y-105714285D01*
X148474819Y-104952380D02*
X148474819Y-104333333D01*
X148474819Y-104333333D02*
X148855771Y-104666666D01*
X148855771Y-104666666D02*
X148855771Y-104523809D01*
X148855771Y-104523809D02*
X148903390Y-104428571D01*
X148903390Y-104428571D02*
X148951009Y-104380952D01*
X148951009Y-104380952D02*
X149046247Y-104333333D01*
X149046247Y-104333333D02*
X149284342Y-104333333D01*
X149284342Y-104333333D02*
X149379580Y-104380952D01*
X149379580Y-104380952D02*
X149427200Y-104428571D01*
X149427200Y-104428571D02*
X149474819Y-104523809D01*
X149474819Y-104523809D02*
X149474819Y-104809523D01*
X149474819Y-104809523D02*
X149427200Y-104904761D01*
X149427200Y-104904761D02*
X149379580Y-104952380D01*
X112329580Y-113260000D02*
X112377200Y-113307619D01*
X112377200Y-113307619D02*
X112424819Y-113450476D01*
X112424819Y-113450476D02*
X112424819Y-113545714D01*
X112424819Y-113545714D02*
X112377200Y-113688571D01*
X112377200Y-113688571D02*
X112281961Y-113783809D01*
X112281961Y-113783809D02*
X112186723Y-113831428D01*
X112186723Y-113831428D02*
X111996247Y-113879047D01*
X111996247Y-113879047D02*
X111853390Y-113879047D01*
X111853390Y-113879047D02*
X111662914Y-113831428D01*
X111662914Y-113831428D02*
X111567676Y-113783809D01*
X111567676Y-113783809D02*
X111472438Y-113688571D01*
X111472438Y-113688571D02*
X111424819Y-113545714D01*
X111424819Y-113545714D02*
X111424819Y-113450476D01*
X111424819Y-113450476D02*
X111472438Y-113307619D01*
X111472438Y-113307619D02*
X111520057Y-113260000D01*
X112139104Y-112879047D02*
X112139104Y-112402857D01*
X112424819Y-112974285D02*
X111424819Y-112640952D01*
X111424819Y-112640952D02*
X112424819Y-112307619D01*
X112424819Y-111974285D02*
X111424819Y-111974285D01*
X111424819Y-111974285D02*
X112139104Y-111640952D01*
X112139104Y-111640952D02*
X111424819Y-111307619D01*
X111424819Y-111307619D02*
X112424819Y-111307619D01*
X112139104Y-110117142D02*
X112139104Y-109640952D01*
X112424819Y-110212380D02*
X111424819Y-109879047D01*
X111424819Y-109879047D02*
X112424819Y-109545714D01*
X139993809Y-114869580D02*
X139946190Y-114917200D01*
X139946190Y-114917200D02*
X139803333Y-114964819D01*
X139803333Y-114964819D02*
X139708095Y-114964819D01*
X139708095Y-114964819D02*
X139565238Y-114917200D01*
X139565238Y-114917200D02*
X139470000Y-114821961D01*
X139470000Y-114821961D02*
X139422381Y-114726723D01*
X139422381Y-114726723D02*
X139374762Y-114536247D01*
X139374762Y-114536247D02*
X139374762Y-114393390D01*
X139374762Y-114393390D02*
X139422381Y-114202914D01*
X139422381Y-114202914D02*
X139470000Y-114107676D01*
X139470000Y-114107676D02*
X139565238Y-114012438D01*
X139565238Y-114012438D02*
X139708095Y-113964819D01*
X139708095Y-113964819D02*
X139803333Y-113964819D01*
X139803333Y-113964819D02*
X139946190Y-114012438D01*
X139946190Y-114012438D02*
X139993809Y-114060057D01*
X140993809Y-114964819D02*
X140660476Y-114488628D01*
X140422381Y-114964819D02*
X140422381Y-113964819D01*
X140422381Y-113964819D02*
X140803333Y-113964819D01*
X140803333Y-113964819D02*
X140898571Y-114012438D01*
X140898571Y-114012438D02*
X140946190Y-114060057D01*
X140946190Y-114060057D02*
X140993809Y-114155295D01*
X140993809Y-114155295D02*
X140993809Y-114298152D01*
X140993809Y-114298152D02*
X140946190Y-114393390D01*
X140946190Y-114393390D02*
X140898571Y-114441009D01*
X140898571Y-114441009D02*
X140803333Y-114488628D01*
X140803333Y-114488628D02*
X140422381Y-114488628D01*
X141279524Y-113964819D02*
X141850952Y-113964819D01*
X141565238Y-114964819D02*
X141565238Y-113964819D01*
X142660476Y-114964819D02*
X142184286Y-114964819D01*
X142184286Y-114964819D02*
X142184286Y-113964819D01*
X136872438Y-94487904D02*
X136824819Y-94583142D01*
X136824819Y-94583142D02*
X136824819Y-94725999D01*
X136824819Y-94725999D02*
X136872438Y-94868856D01*
X136872438Y-94868856D02*
X136967676Y-94964094D01*
X136967676Y-94964094D02*
X137062914Y-95011713D01*
X137062914Y-95011713D02*
X137253390Y-95059332D01*
X137253390Y-95059332D02*
X137396247Y-95059332D01*
X137396247Y-95059332D02*
X137586723Y-95011713D01*
X137586723Y-95011713D02*
X137681961Y-94964094D01*
X137681961Y-94964094D02*
X137777200Y-94868856D01*
X137777200Y-94868856D02*
X137824819Y-94725999D01*
X137824819Y-94725999D02*
X137824819Y-94630761D01*
X137824819Y-94630761D02*
X137777200Y-94487904D01*
X137777200Y-94487904D02*
X137729580Y-94440285D01*
X137729580Y-94440285D02*
X137396247Y-94440285D01*
X137396247Y-94440285D02*
X137396247Y-94630761D01*
X137824819Y-93440285D02*
X137348628Y-93773618D01*
X137824819Y-94011713D02*
X136824819Y-94011713D01*
X136824819Y-94011713D02*
X136824819Y-93630761D01*
X136824819Y-93630761D02*
X136872438Y-93535523D01*
X136872438Y-93535523D02*
X136920057Y-93487904D01*
X136920057Y-93487904D02*
X137015295Y-93440285D01*
X137015295Y-93440285D02*
X137158152Y-93440285D01*
X137158152Y-93440285D02*
X137253390Y-93487904D01*
X137253390Y-93487904D02*
X137301009Y-93535523D01*
X137301009Y-93535523D02*
X137348628Y-93630761D01*
X137348628Y-93630761D02*
X137348628Y-94011713D01*
X137824819Y-93011713D02*
X136824819Y-93011713D01*
X136824819Y-93011713D02*
X137824819Y-92440285D01*
X137824819Y-92440285D02*
X136824819Y-92440285D01*
X112849333Y-96225104D02*
X113325523Y-96225104D01*
X112754095Y-96510819D02*
X113087428Y-95510819D01*
X113087428Y-95510819D02*
X113420761Y-96510819D01*
X113706476Y-95606057D02*
X113754095Y-95558438D01*
X113754095Y-95558438D02*
X113849333Y-95510819D01*
X113849333Y-95510819D02*
X114087428Y-95510819D01*
X114087428Y-95510819D02*
X114182666Y-95558438D01*
X114182666Y-95558438D02*
X114230285Y-95606057D01*
X114230285Y-95606057D02*
X114277904Y-95701295D01*
X114277904Y-95701295D02*
X114277904Y-95796533D01*
X114277904Y-95796533D02*
X114230285Y-95939390D01*
X114230285Y-95939390D02*
X113658857Y-96510819D01*
X113658857Y-96510819D02*
X114277904Y-96510819D01*
X114849333Y-96510819D02*
X114754095Y-96463200D01*
X114754095Y-96463200D02*
X114706476Y-96415580D01*
X114706476Y-96415580D02*
X114658857Y-96320342D01*
X114658857Y-96320342D02*
X114658857Y-96034628D01*
X114658857Y-96034628D02*
X114706476Y-95939390D01*
X114706476Y-95939390D02*
X114754095Y-95891771D01*
X114754095Y-95891771D02*
X114849333Y-95844152D01*
X114849333Y-95844152D02*
X114992190Y-95844152D01*
X114992190Y-95844152D02*
X115087428Y-95891771D01*
X115087428Y-95891771D02*
X115135047Y-95939390D01*
X115135047Y-95939390D02*
X115182666Y-96034628D01*
X115182666Y-96034628D02*
X115182666Y-96320342D01*
X115182666Y-96320342D02*
X115135047Y-96415580D01*
X115135047Y-96415580D02*
X115087428Y-96463200D01*
X115087428Y-96463200D02*
X114992190Y-96510819D01*
X114992190Y-96510819D02*
X114849333Y-96510819D01*
X126833333Y-105169104D02*
X127309523Y-105169104D01*
X126738095Y-105454819D02*
X127071428Y-104454819D01*
X127071428Y-104454819D02*
X127404761Y-105454819D01*
X128261904Y-105454819D02*
X127690476Y-105454819D01*
X127976190Y-105454819D02*
X127976190Y-104454819D01*
X127976190Y-104454819D02*
X127880952Y-104597676D01*
X127880952Y-104597676D02*
X127785714Y-104692914D01*
X127785714Y-104692914D02*
X127690476Y-104740533D01*
X128690476Y-105454819D02*
X128690476Y-104454819D01*
X129119047Y-105454819D02*
X129119047Y-104931009D01*
X129119047Y-104931009D02*
X129071428Y-104835771D01*
X129071428Y-104835771D02*
X128976190Y-104788152D01*
X128976190Y-104788152D02*
X128833333Y-104788152D01*
X128833333Y-104788152D02*
X128738095Y-104835771D01*
X128738095Y-104835771D02*
X128690476Y-104883390D01*
X148399819Y-117309523D02*
X149114104Y-117309523D01*
X149114104Y-117309523D02*
X149256961Y-117357142D01*
X149256961Y-117357142D02*
X149352200Y-117452380D01*
X149352200Y-117452380D02*
X149399819Y-117595237D01*
X149399819Y-117595237D02*
X149399819Y-117690475D01*
X149399819Y-116309523D02*
X149399819Y-116880951D01*
X149399819Y-116595237D02*
X148399819Y-116595237D01*
X148399819Y-116595237D02*
X148542676Y-116690475D01*
X148542676Y-116690475D02*
X148637914Y-116785713D01*
X148637914Y-116785713D02*
X148685533Y-116880951D01*
X148399819Y-115690475D02*
X148399819Y-115595237D01*
X148399819Y-115595237D02*
X148447438Y-115499999D01*
X148447438Y-115499999D02*
X148495057Y-115452380D01*
X148495057Y-115452380D02*
X148590295Y-115404761D01*
X148590295Y-115404761D02*
X148780771Y-115357142D01*
X148780771Y-115357142D02*
X149018866Y-115357142D01*
X149018866Y-115357142D02*
X149209342Y-115404761D01*
X149209342Y-115404761D02*
X149304580Y-115452380D01*
X149304580Y-115452380D02*
X149352200Y-115499999D01*
X149352200Y-115499999D02*
X149399819Y-115595237D01*
X149399819Y-115595237D02*
X149399819Y-115690475D01*
X149399819Y-115690475D02*
X149352200Y-115785713D01*
X149352200Y-115785713D02*
X149304580Y-115833332D01*
X149304580Y-115833332D02*
X149209342Y-115880951D01*
X149209342Y-115880951D02*
X149018866Y-115928570D01*
X149018866Y-115928570D02*
X148780771Y-115928570D01*
X148780771Y-115928570D02*
X148590295Y-115880951D01*
X148590295Y-115880951D02*
X148495057Y-115833332D01*
X148495057Y-115833332D02*
X148447438Y-115785713D01*
X148447438Y-115785713D02*
X148399819Y-115690475D01*
X137824819Y-103512857D02*
X137348628Y-103846190D01*
X137824819Y-104084285D02*
X136824819Y-104084285D01*
X136824819Y-104084285D02*
X136824819Y-103703333D01*
X136824819Y-103703333D02*
X136872438Y-103608095D01*
X136872438Y-103608095D02*
X136920057Y-103560476D01*
X136920057Y-103560476D02*
X137015295Y-103512857D01*
X137015295Y-103512857D02*
X137158152Y-103512857D01*
X137158152Y-103512857D02*
X137253390Y-103560476D01*
X137253390Y-103560476D02*
X137301009Y-103608095D01*
X137301009Y-103608095D02*
X137348628Y-103703333D01*
X137348628Y-103703333D02*
X137348628Y-104084285D01*
X137301009Y-103084285D02*
X137301009Y-102750952D01*
X137824819Y-102608095D02*
X137824819Y-103084285D01*
X137824819Y-103084285D02*
X136824819Y-103084285D01*
X136824819Y-103084285D02*
X136824819Y-102608095D01*
X137824819Y-102179523D02*
X136824819Y-102179523D01*
X136824819Y-102179523D02*
X136824819Y-101941428D01*
X136824819Y-101941428D02*
X136872438Y-101798571D01*
X136872438Y-101798571D02*
X136967676Y-101703333D01*
X136967676Y-101703333D02*
X137062914Y-101655714D01*
X137062914Y-101655714D02*
X137253390Y-101608095D01*
X137253390Y-101608095D02*
X137396247Y-101608095D01*
X137396247Y-101608095D02*
X137586723Y-101655714D01*
X137586723Y-101655714D02*
X137681961Y-101703333D01*
X137681961Y-101703333D02*
X137777200Y-101798571D01*
X137777200Y-101798571D02*
X137824819Y-101941428D01*
X137824819Y-101941428D02*
X137824819Y-102179523D01*
X148474819Y-93833333D02*
X149189104Y-93833333D01*
X149189104Y-93833333D02*
X149331961Y-93880952D01*
X149331961Y-93880952D02*
X149427200Y-93976190D01*
X149427200Y-93976190D02*
X149474819Y-94119047D01*
X149474819Y-94119047D02*
X149474819Y-94214285D01*
X149474819Y-93309523D02*
X149474819Y-93119047D01*
X149474819Y-93119047D02*
X149427200Y-93023809D01*
X149427200Y-93023809D02*
X149379580Y-92976190D01*
X149379580Y-92976190D02*
X149236723Y-92880952D01*
X149236723Y-92880952D02*
X149046247Y-92833333D01*
X149046247Y-92833333D02*
X148665295Y-92833333D01*
X148665295Y-92833333D02*
X148570057Y-92880952D01*
X148570057Y-92880952D02*
X148522438Y-92928571D01*
X148522438Y-92928571D02*
X148474819Y-93023809D01*
X148474819Y-93023809D02*
X148474819Y-93214285D01*
X148474819Y-93214285D02*
X148522438Y-93309523D01*
X148522438Y-93309523D02*
X148570057Y-93357142D01*
X148570057Y-93357142D02*
X148665295Y-93404761D01*
X148665295Y-93404761D02*
X148903390Y-93404761D01*
X148903390Y-93404761D02*
X148998628Y-93357142D01*
X148998628Y-93357142D02*
X149046247Y-93309523D01*
X149046247Y-93309523D02*
X149093866Y-93214285D01*
X149093866Y-93214285D02*
X149093866Y-93023809D01*
X149093866Y-93023809D02*
X149046247Y-92928571D01*
X149046247Y-92928571D02*
X148998628Y-92880952D01*
X148998628Y-92880952D02*
X148903390Y-92833333D01*
X137286009Y-99155142D02*
X137333628Y-99012285D01*
X137333628Y-99012285D02*
X137381247Y-98964666D01*
X137381247Y-98964666D02*
X137476485Y-98917047D01*
X137476485Y-98917047D02*
X137619342Y-98917047D01*
X137619342Y-98917047D02*
X137714580Y-98964666D01*
X137714580Y-98964666D02*
X137762200Y-99012285D01*
X137762200Y-99012285D02*
X137809819Y-99107523D01*
X137809819Y-99107523D02*
X137809819Y-99488475D01*
X137809819Y-99488475D02*
X136809819Y-99488475D01*
X136809819Y-99488475D02*
X136809819Y-99155142D01*
X136809819Y-99155142D02*
X136857438Y-99059904D01*
X136857438Y-99059904D02*
X136905057Y-99012285D01*
X136905057Y-99012285D02*
X137000295Y-98964666D01*
X137000295Y-98964666D02*
X137095533Y-98964666D01*
X137095533Y-98964666D02*
X137190771Y-99012285D01*
X137190771Y-99012285D02*
X137238390Y-99059904D01*
X137238390Y-99059904D02*
X137286009Y-99155142D01*
X137286009Y-99155142D02*
X137286009Y-99488475D01*
X137809819Y-98012285D02*
X137809819Y-98488475D01*
X137809819Y-98488475D02*
X136809819Y-98488475D01*
X136809819Y-97678951D02*
X137619342Y-97678951D01*
X137619342Y-97678951D02*
X137714580Y-97631332D01*
X137714580Y-97631332D02*
X137762200Y-97583713D01*
X137762200Y-97583713D02*
X137809819Y-97488475D01*
X137809819Y-97488475D02*
X137809819Y-97297999D01*
X137809819Y-97297999D02*
X137762200Y-97202761D01*
X137762200Y-97202761D02*
X137714580Y-97155142D01*
X137714580Y-97155142D02*
X137619342Y-97107523D01*
X137619342Y-97107523D02*
X136809819Y-97107523D01*
X112849333Y-105169104D02*
X113325523Y-105169104D01*
X112754095Y-105454819D02*
X113087428Y-104454819D01*
X113087428Y-104454819D02*
X113420761Y-105454819D01*
X114277904Y-105454819D02*
X113706476Y-105454819D01*
X113992190Y-105454819D02*
X113992190Y-104454819D01*
X113992190Y-104454819D02*
X113896952Y-104597676D01*
X113896952Y-104597676D02*
X113801714Y-104692914D01*
X113801714Y-104692914D02*
X113706476Y-104740533D01*
X114849333Y-105454819D02*
X114754095Y-105407200D01*
X114754095Y-105407200D02*
X114706476Y-105359580D01*
X114706476Y-105359580D02*
X114658857Y-105264342D01*
X114658857Y-105264342D02*
X114658857Y-104978628D01*
X114658857Y-104978628D02*
X114706476Y-104883390D01*
X114706476Y-104883390D02*
X114754095Y-104835771D01*
X114754095Y-104835771D02*
X114849333Y-104788152D01*
X114849333Y-104788152D02*
X114992190Y-104788152D01*
X114992190Y-104788152D02*
X115087428Y-104835771D01*
X115087428Y-104835771D02*
X115135047Y-104883390D01*
X115135047Y-104883390D02*
X115182666Y-104978628D01*
X115182666Y-104978628D02*
X115182666Y-105264342D01*
X115182666Y-105264342D02*
X115135047Y-105359580D01*
X115135047Y-105359580D02*
X115087428Y-105407200D01*
X115087428Y-105407200D02*
X114992190Y-105454819D01*
X114992190Y-105454819D02*
X114849333Y-105454819D01*
%TO.C,J2*%
D12*
X112970000Y-115510000D02*
X112970000Y-118170000D01*
X130810000Y-115510000D02*
X112970000Y-115510000D01*
X130810000Y-115510000D02*
X130810000Y-118170000D01*
X130810000Y-118170000D02*
X112970000Y-118170000D01*
X132080000Y-115510000D02*
X133410000Y-115510000D01*
X133410000Y-115510000D02*
X133410000Y-116840000D01*
%TO.C,J5*%
X138370000Y-87590000D02*
X138370000Y-90250000D01*
X143510000Y-87590000D02*
X138370000Y-87590000D01*
X143510000Y-87590000D02*
X143510000Y-90250000D01*
X143510000Y-90250000D02*
X138370000Y-90250000D01*
X144780000Y-87590000D02*
X146110000Y-87590000D01*
X146110000Y-87590000D02*
X146110000Y-88920000D01*
%TO.C,R6*%
X123976000Y-98426000D02*
X124746000Y-98426000D01*
X124746000Y-97056000D02*
X124746000Y-99796000D01*
X124746000Y-99796000D02*
X131286000Y-99796000D01*
X131286000Y-97056000D02*
X124746000Y-97056000D01*
X131286000Y-99796000D02*
X131286000Y-97056000D01*
X132056000Y-98426000D02*
X131286000Y-98426000D01*
%TO.C,J3*%
X151215000Y-100390000D02*
X151215000Y-101440000D01*
X151215000Y-108560000D02*
X150225000Y-108560000D01*
X151215000Y-109610000D02*
X151215000Y-108560000D01*
X153715000Y-100390000D02*
X151215000Y-100390000D01*
X153715000Y-109610000D02*
X151215000Y-109610000D01*
X155685000Y-108440000D02*
X155685000Y-101560000D01*
%TO.C,J1*%
X112970000Y-110430000D02*
X112970000Y-113090000D01*
X130810000Y-110430000D02*
X112970000Y-110430000D01*
X130810000Y-110430000D02*
X130810000Y-113090000D01*
X130810000Y-113090000D02*
X112970000Y-113090000D01*
X132080000Y-110430000D02*
X133410000Y-110430000D01*
X133410000Y-110430000D02*
X133410000Y-111760000D01*
%TO.C,J4*%
X138370000Y-123250000D02*
X138370000Y-115510000D01*
X140970000Y-120650000D02*
X140970000Y-123250000D01*
X140970000Y-123250000D02*
X138370000Y-123250000D01*
X143570000Y-115510000D02*
X138370000Y-115510000D01*
X143570000Y-120650000D02*
X140970000Y-120650000D01*
X143570000Y-120650000D02*
X143570000Y-115510000D01*
X143570000Y-121920000D02*
X143570000Y-123250000D01*
X143570000Y-123250000D02*
X142240000Y-123250000D01*
%TO.C,J7*%
X138370000Y-92396000D02*
X138370000Y-95056000D01*
X143510000Y-92396000D02*
X138370000Y-92396000D01*
X143510000Y-92396000D02*
X143510000Y-95056000D01*
X143510000Y-95056000D02*
X138370000Y-95056000D01*
X144780000Y-92396000D02*
X146110000Y-92396000D01*
X146110000Y-92396000D02*
X146110000Y-93726000D01*
%TO.C,R3*%
X109976000Y-98426000D02*
X110746000Y-98426000D01*
X110746000Y-97056000D02*
X110746000Y-99796000D01*
X110746000Y-99796000D02*
X117286000Y-99796000D01*
X117286000Y-97056000D02*
X110746000Y-97056000D01*
X117286000Y-99796000D02*
X117286000Y-97056000D01*
X118056000Y-98426000D02*
X117286000Y-98426000D01*
%TO.C,R5*%
X123976000Y-102426000D02*
X124746000Y-102426000D01*
X124746000Y-101056000D02*
X124746000Y-103796000D01*
X124746000Y-103796000D02*
X131286000Y-103796000D01*
X131286000Y-101056000D02*
X124746000Y-101056000D01*
X131286000Y-103796000D02*
X131286000Y-101056000D01*
X132056000Y-102426000D02*
X131286000Y-102426000D01*
%TO.C,J10*%
X151140000Y-111890000D02*
X151140000Y-112940000D01*
X151140000Y-120060000D02*
X150150000Y-120060000D01*
X151140000Y-121110000D02*
X151140000Y-120060000D01*
X153640000Y-111890000D02*
X151140000Y-111890000D01*
X153640000Y-121110000D02*
X151140000Y-121110000D01*
X155610000Y-119940000D02*
X155610000Y-113060000D01*
%TO.C,J8*%
X138370000Y-101540000D02*
X138370000Y-104200000D01*
X143510000Y-101540000D02*
X138370000Y-101540000D01*
X143510000Y-101540000D02*
X143510000Y-104200000D01*
X143510000Y-104200000D02*
X138370000Y-104200000D01*
X144780000Y-101540000D02*
X146110000Y-101540000D01*
X146110000Y-101540000D02*
X146110000Y-102870000D01*
%TO.C,J9*%
X151215000Y-88890000D02*
X151215000Y-89940000D01*
X151215000Y-97060000D02*
X150225000Y-97060000D01*
X151215000Y-98110000D02*
X151215000Y-97060000D01*
X153715000Y-88890000D02*
X151215000Y-88890000D01*
X153715000Y-98110000D02*
X151215000Y-98110000D01*
X155685000Y-96940000D02*
X155685000Y-90060000D01*
%TO.C,J6*%
X138355000Y-96968000D02*
X138355000Y-99628000D01*
X143495000Y-96968000D02*
X138355000Y-96968000D01*
X143495000Y-96968000D02*
X143495000Y-99628000D01*
X143495000Y-99628000D02*
X138355000Y-99628000D01*
X144765000Y-96968000D02*
X146095000Y-96968000D01*
X146095000Y-96968000D02*
X146095000Y-98298000D01*
%TO.C,R2*%
X109976000Y-102426000D02*
X110746000Y-102426000D01*
X110746000Y-101056000D02*
X110746000Y-103796000D01*
X110746000Y-103796000D02*
X117286000Y-103796000D01*
X117286000Y-101056000D02*
X110746000Y-101056000D01*
X117286000Y-103796000D02*
X117286000Y-101056000D01*
X118056000Y-102426000D02*
X117286000Y-102426000D01*
%TD*%
M02*
