M48
; DRILL file KiCad 10.0.3 date 2026-06-17T16:09:26
; FORMAT={-:-/ absolute / metric / decimal}
; #@! TF.CreationDate,2026-06-17T16:09:26-04:00
; #@! TF.GenerationSoftware,Kicad,Pcbnew,10.0.3
; #@! TF.FileFunction,MixedPlating,1,2
FMAT,2
METRIC
; #@! TA.AperFunction,Plated,PTH,ComponentDrill
T1C0.800
; #@! TA.AperFunction,Plated,PTH,ComponentDrill
T2C1.000
%
G90
G05
T1
X108.936Y-98.426
X108.936Y-102.426
X119.096Y-98.426
X119.096Y-102.426
X122.936Y-98.426
X122.936Y-102.426
X133.096Y-98.426
X133.096Y-102.426
T2
X114.3Y-111.76
X114.3Y-116.84
X116.84Y-111.76
X116.84Y-116.84
X119.38Y-111.76
X119.38Y-116.84
X121.92Y-111.76
X121.92Y-116.84
X124.46Y-111.76
X124.46Y-116.84
X127.0Y-111.76
X127.0Y-116.84
X129.54Y-111.76
X129.54Y-116.84
X132.08Y-111.76
X132.08Y-116.84
X139.685Y-98.298
X139.7Y-88.92
X139.7Y-93.726
X139.7Y-102.87
X139.7Y-116.84
X139.7Y-119.38
X139.7Y-121.92
X142.225Y-98.298
X142.24Y-88.92
X142.24Y-93.726
X142.24Y-102.87
X142.24Y-116.84
X142.24Y-119.38
X142.24Y-121.92
X144.765Y-98.298
X144.78Y-88.92
X144.78Y-93.726
X144.78Y-102.87
M30
