%TF.GenerationSoftware,KiCad,Pcbnew,10.0.3*%
%TF.CreationDate,2026-06-17T16:09:25-04:00*%
%TF.ProjectId,LauCameraTrigger_Alchitry,4c617543-616d-4657-9261-547269676765,rev?*%
%TF.SameCoordinates,Original*%
%TF.FileFunction,Copper,L2,Bot*%
%TF.FilePolarity,Positive*%
%FSLAX46Y46*%
G04 Gerber Fmt 4.6, Leading zero omitted, Abs format (unit mm)*
G04 Created by KiCad (PCBNEW 10.0.3) date 2026-06-17 16:09:25*
%MOMM*%
%LPD*%
G01*
G04 APERTURE LIST*
%TA.AperFunction,ComponentPad*%
%ADD10R,1.700000X1.700000*%
%TD*%
%TA.AperFunction,ComponentPad*%
%ADD11O,1.700000X1.700000*%
%TD*%
%TA.AperFunction,ComponentPad*%
%ADD12C,1.600000*%
%TD*%
%TA.AperFunction,ComponentPad*%
%ADD13O,1.600000X1.600000*%
%TD*%
%TA.AperFunction,Conductor*%
%ADD14C,0.200000*%
%TD*%
G04 APERTURE END LIST*
D10*
%TO.P,J2,1,Pin_1_1*%
%TO.N,GND*%
X132080000Y-116840000D03*
D11*
%TO.P,J2,2,Pin_2_2*%
%TO.N,Net-(J2-Pin_2)*%
X129540000Y-116840000D03*
%TO.P,J2,3,Pin_3_3*%
%TO.N,Net-(J2-Pin_3)*%
X127000000Y-116840000D03*
%TO.P,J2,4,Pin_4_4*%
%TO.N,unconnected-(J2-Pin_4-Pad4)*%
X124460000Y-116840000D03*
%TO.P,J2,5,Pin_5_5*%
%TO.N,unconnected-(J2-Pin_5-Pad5)*%
X121920000Y-116840000D03*
%TO.P,J2,6,Pin_6_6*%
%TO.N,unconnected-(J2-Pin_6-Pad6)*%
X119380000Y-116840000D03*
%TO.P,J2,7,Pin_7_7*%
%TO.N,unconnected-(J2-Pin_7-Pad7)*%
X116840000Y-116840000D03*
%TO.P,J2,8,Pin_8_8*%
%TO.N,unconnected-(J2-Pin_8-Pad8)*%
X114300000Y-116840000D03*
%TD*%
D10*
%TO.P,J5,1,Pin_1_1*%
%TO.N,Net-(J4-Pin_1)*%
X144780000Y-88920000D03*
D11*
%TO.P,J5,2,Pin_2_2*%
%TO.N,Net-(J1-Pin_2)*%
X142240000Y-88920000D03*
%TO.P,J5,3,Pin_3_3*%
%TO.N,GND*%
X139700000Y-88920000D03*
%TD*%
D12*
%TO.P,R6,1*%
%TO.N,Net-(J4-Pin_1)*%
X133096000Y-98426000D03*
D13*
%TO.P,R6,2*%
%TO.N,A28_1*%
X122936000Y-98426000D03*
%TD*%
D10*
%TO.P,J1,1,Pin_1_1*%
%TO.N,GND*%
X132080000Y-111760000D03*
D11*
%TO.P,J1,2,Pin_2_2*%
%TO.N,Net-(J1-Pin_2)*%
X129540000Y-111760000D03*
%TO.P,J1,3,Pin_3_3*%
%TO.N,Net-(J1-Pin_3)*%
X127000000Y-111760000D03*
%TO.P,J1,4,Pin_4_4*%
%TO.N,A32_1*%
X124460000Y-111760000D03*
%TO.P,J1,5,Pin_5_5*%
%TO.N,A31_1*%
X121920000Y-111760000D03*
%TO.P,J1,6,Pin_6_6*%
%TO.N,A29_1*%
X119380000Y-111760000D03*
%TO.P,J1,7,Pin_7_7*%
%TO.N,A28_1*%
X116840000Y-111760000D03*
%TO.P,J1,8,Pin_8_8*%
%TO.N,unconnected-(J1-Pin_8-Pad8)*%
X114300000Y-111760000D03*
%TD*%
D10*
%TO.P,J4,1,Pin_1_1*%
%TO.N,Net-(J4-Pin_1)*%
X142240000Y-121920000D03*
D11*
%TO.P,J4,2,Pin_2_2*%
%TO.N,unconnected-(J4-Pin_2-Pad2)*%
X139700000Y-121920000D03*
%TO.P,J4,3,Pin_3_3*%
%TO.N,unconnected-(J4-Pin_3-Pad3)*%
X142240000Y-119380000D03*
%TO.P,J4,4,Pin_4_4*%
%TO.N,unconnected-(J4-Pin_4-Pad4)*%
X139700000Y-119380000D03*
%TO.P,J4,5,Pin_5_5*%
%TO.N,GND*%
X142240000Y-116840000D03*
%TO.P,J4,6,Pin_6_6*%
X139700000Y-116840000D03*
%TD*%
D10*
%TO.P,J7,1,Pin_1_1*%
%TO.N,Net-(J4-Pin_1)*%
X144780000Y-93726000D03*
D11*
%TO.P,J7,2,Pin_2_2*%
%TO.N,Net-(J1-Pin_3)*%
X142240000Y-93726000D03*
%TO.P,J7,3,Pin_3_3*%
%TO.N,GND*%
X139700000Y-93726000D03*
%TD*%
D12*
%TO.P,R3,1*%
%TO.N,A28_1*%
X119096000Y-98426000D03*
D13*
%TO.P,R3,2*%
%TO.N,GND*%
X108936000Y-98426000D03*
%TD*%
D12*
%TO.P,R5,1*%
%TO.N,Net-(J4-Pin_1)*%
X133096000Y-102426000D03*
D13*
%TO.P,R5,2*%
%TO.N,A31_1*%
X122936000Y-102426000D03*
%TD*%
D10*
%TO.P,J8,1,Pin_1_1*%
%TO.N,Net-(J4-Pin_1)*%
X144780000Y-102870000D03*
D11*
%TO.P,J8,2,Pin_2_2*%
%TO.N,Net-(J2-Pin_3)*%
X142240000Y-102870000D03*
%TO.P,J8,3,Pin_3_3*%
%TO.N,GND*%
X139700000Y-102870000D03*
%TD*%
D10*
%TO.P,J6,1,Pin_1_1*%
%TO.N,Net-(J4-Pin_1)*%
X144765000Y-98298000D03*
D11*
%TO.P,J6,2,Pin_2_2*%
%TO.N,Net-(J2-Pin_2)*%
X142225000Y-98298000D03*
%TO.P,J6,3,Pin_3_3*%
%TO.N,GND*%
X139685000Y-98298000D03*
%TD*%
D12*
%TO.P,R2,1*%
%TO.N,A31_1*%
X119096000Y-102426000D03*
D13*
%TO.P,R2,2*%
%TO.N,GND*%
X108936000Y-102426000D03*
%TD*%
%TO.N,GND*%
D14*
X139700000Y-90122081D02*
X133810081Y-96012000D01*
X108936000Y-94426000D02*
X108936000Y-98426000D01*
X142240000Y-116840000D02*
X139700000Y-116840000D01*
X131318000Y-94813448D02*
X131318000Y-92964000D01*
X132080000Y-108458000D02*
X131572000Y-107950000D01*
X132516552Y-96012000D02*
X131318000Y-94813448D01*
X131572000Y-101854000D02*
X132470950Y-100955050D01*
X131572000Y-107950000D02*
X131572000Y-101854000D01*
X108936000Y-98426000D02*
X108936000Y-102426000D01*
X139700000Y-88920000D02*
X139700000Y-90122081D01*
X132080000Y-111760000D02*
X132080000Y-108458000D01*
X108936000Y-94426000D02*
X111160000Y-92202000D01*
X111160000Y-92202000D02*
X130556000Y-92202000D01*
X132080000Y-116760000D02*
X132080000Y-116840000D01*
X133810081Y-96012000D02*
X132516552Y-96012000D01*
X132421000Y-112181000D02*
X132080000Y-111840000D01*
X137027950Y-100955050D02*
X139685000Y-98298000D01*
X132470950Y-100955050D02*
X137027950Y-100955050D01*
X139700000Y-109140000D02*
X132080000Y-116760000D01*
X139700000Y-102870000D02*
X139700000Y-109140000D01*
X130556000Y-92202000D02*
X131318000Y-92964000D01*
%TO.N,Net-(J2-Pin_2)*%
X142225000Y-98298000D02*
X142225000Y-98567000D01*
X136144000Y-110156000D02*
X129460000Y-116840000D01*
X136144000Y-104648000D02*
X136144000Y-110156000D01*
X142225000Y-98567000D02*
X136144000Y-104648000D01*
%TO.N,Net-(J2-Pin_3)*%
X128444000Y-118364000D02*
X133454509Y-118364000D01*
X142240000Y-109578509D02*
X142240000Y-102870000D01*
X126920000Y-116840000D02*
X128444000Y-118364000D01*
X133454509Y-118364000D02*
X142240000Y-109578509D01*
%TO.N,Net-(J4-Pin_1)*%
X133096000Y-102426000D02*
X137394380Y-102426000D01*
X144780000Y-102616000D02*
X144765000Y-102601000D01*
X143495000Y-97028000D02*
X144765000Y-98298000D01*
X133096000Y-98298000D02*
X139700000Y-91694000D01*
X140970000Y-97536000D02*
X141478000Y-97028000D01*
X133096000Y-98426000D02*
X133096000Y-98298000D01*
X144780000Y-119380000D02*
X144780000Y-102870000D01*
X144780000Y-102870000D02*
X144780000Y-102616000D01*
X144765000Y-93741000D02*
X144780000Y-93726000D01*
X140970000Y-98850380D02*
X140970000Y-97536000D01*
X142006000Y-91694000D02*
X144780000Y-88920000D01*
X139700000Y-91694000D02*
X142006000Y-91694000D01*
X144780000Y-119380000D02*
X142240000Y-121920000D01*
X137394380Y-102426000D02*
X140970000Y-98850380D01*
X144765000Y-102601000D02*
X144765000Y-98298000D01*
X144780000Y-93726000D02*
X144780000Y-88920000D01*
X144765000Y-98298000D02*
X144765000Y-93741000D01*
X141478000Y-97028000D02*
X143495000Y-97028000D01*
%TO.N,Net-(J1-Pin_2)*%
X141712000Y-88920000D02*
X133858000Y-96774000D01*
X132080000Y-96774000D02*
X129460000Y-99394000D01*
X142240000Y-88920000D02*
X141712000Y-88920000D01*
X129460000Y-99394000D02*
X129460000Y-111760000D01*
X133858000Y-96774000D02*
X132080000Y-96774000D01*
%TO.N,A28_1*%
X117094000Y-100428000D02*
X117094000Y-111426000D01*
X117094000Y-111426000D02*
X116760000Y-111760000D01*
X119096000Y-98426000D02*
X117094000Y-100428000D01*
X122936000Y-98426000D02*
X119096000Y-98426000D01*
%TO.N,A31_1*%
X124206000Y-103696000D02*
X122936000Y-102426000D01*
X121920000Y-111760000D02*
X121920000Y-109236525D01*
X121920000Y-109236525D02*
X124206000Y-106950525D01*
X124206000Y-106950525D02*
X124206000Y-103696000D01*
X122936000Y-102426000D02*
X119096000Y-102426000D01*
%TO.N,Net-(J1-Pin_3)*%
X136144000Y-99822000D02*
X142240000Y-93726000D01*
X128524000Y-113284000D02*
X129794000Y-113284000D01*
X130810000Y-112268000D02*
X130810000Y-101458925D01*
X132446925Y-99822000D02*
X136144000Y-99822000D01*
X127000000Y-111760000D02*
X128524000Y-113284000D01*
X129794000Y-113284000D02*
X130810000Y-112268000D01*
X130810000Y-101458925D02*
X132446925Y-99822000D01*
%TD*%
%TA.AperFunction,Conductor*%
%TO.N,GND*%
G36*
X139950000Y-104197230D02*
G01*
X140016126Y-104186757D01*
X140016129Y-104186757D01*
X140218217Y-104121095D01*
X140407557Y-104024620D01*
X140579459Y-103899727D01*
X140579464Y-103899723D01*
X140729723Y-103749464D01*
X140729727Y-103749459D01*
X140854620Y-103577558D01*
X140859232Y-103568507D01*
X140907205Y-103517709D01*
X140975025Y-103500912D01*
X141041161Y-103523447D01*
X141080204Y-103568504D01*
X141084949Y-103577817D01*
X141209890Y-103749786D01*
X141360213Y-103900109D01*
X141532184Y-104025051D01*
X141532184Y-104025052D01*
X141571793Y-104045233D01*
X141622590Y-104093206D01*
X141639500Y-104155718D01*
X141639500Y-109278411D01*
X141619815Y-109345450D01*
X141603181Y-109366092D01*
X133641681Y-117327592D01*
X133580358Y-117361077D01*
X133510666Y-117356093D01*
X133454733Y-117314221D01*
X133430316Y-117248757D01*
X133430000Y-117239911D01*
X133430000Y-117090000D01*
X132513012Y-117090000D01*
X132545925Y-117032993D01*
X132580000Y-116905826D01*
X132580000Y-116774174D01*
X132545925Y-116647007D01*
X132513012Y-116590000D01*
X133430000Y-116590000D01*
X133430000Y-115942172D01*
X133429999Y-115942155D01*
X133423598Y-115882627D01*
X133423596Y-115882620D01*
X133373354Y-115747913D01*
X133373350Y-115747906D01*
X133287190Y-115632812D01*
X133287187Y-115632809D01*
X133172093Y-115546649D01*
X133172086Y-115546645D01*
X133037379Y-115496403D01*
X133037372Y-115496401D01*
X132977844Y-115490000D01*
X132330000Y-115490000D01*
X132330000Y-116406988D01*
X132272993Y-116374075D01*
X132145826Y-116340000D01*
X132014174Y-116340000D01*
X131887007Y-116374075D01*
X131830000Y-116406988D01*
X131830000Y-115488089D01*
X131798813Y-115430975D01*
X131803797Y-115361283D01*
X131832298Y-115316936D01*
X134137679Y-113011555D01*
X136502506Y-110646728D01*
X136502511Y-110646724D01*
X136512714Y-110636520D01*
X136512716Y-110636520D01*
X136624520Y-110524716D01*
X136703577Y-110387784D01*
X136744500Y-110235057D01*
X136744500Y-104948096D01*
X136764185Y-104881057D01*
X136780814Y-104860420D01*
X138262105Y-103379129D01*
X138323424Y-103345647D01*
X138393116Y-103350631D01*
X138449049Y-103392503D01*
X138460267Y-103410518D01*
X138545379Y-103577557D01*
X138670272Y-103749459D01*
X138670276Y-103749464D01*
X138820535Y-103899723D01*
X138820540Y-103899727D01*
X138992442Y-104024620D01*
X139181782Y-104121095D01*
X139383871Y-104186757D01*
X139450000Y-104197231D01*
X139450000Y-103303012D01*
X139507007Y-103335925D01*
X139634174Y-103370000D01*
X139765826Y-103370000D01*
X139892993Y-103335925D01*
X139950000Y-103303012D01*
X139950000Y-104197230D01*
G37*
%TD.AperFunction*%
%TA.AperFunction,Conductor*%
G36*
X141774075Y-116647007D02*
G01*
X141740000Y-116774174D01*
X141740000Y-116905826D01*
X141774075Y-117032993D01*
X141806988Y-117090000D01*
X140133012Y-117090000D01*
X140165925Y-117032993D01*
X140200000Y-116905826D01*
X140200000Y-116774174D01*
X140165925Y-116647007D01*
X140133012Y-116590000D01*
X141806988Y-116590000D01*
X141774075Y-116647007D01*
G37*
%TD.AperFunction*%
%TA.AperFunction,Conductor*%
G36*
X138315186Y-98602561D02*
G01*
X138371119Y-98644433D01*
X138389783Y-98680425D01*
X138433904Y-98816217D01*
X138530379Y-99005557D01*
X138655272Y-99177459D01*
X138655276Y-99177464D01*
X138805535Y-99327723D01*
X138805540Y-99327727D01*
X138977442Y-99452620D01*
X139166779Y-99549094D01*
X139166783Y-99549095D01*
X139166991Y-99549163D01*
X139167059Y-99549209D01*
X139171280Y-99550958D01*
X139170912Y-99551844D01*
X139224670Y-99588595D01*
X139251874Y-99652951D01*
X139239966Y-99721798D01*
X139216365Y-99754778D01*
X137181964Y-101789181D01*
X137120641Y-101822666D01*
X137094283Y-101825500D01*
X134325602Y-101825500D01*
X134258563Y-101805815D01*
X134215117Y-101757795D01*
X134208284Y-101744385D01*
X134087971Y-101578786D01*
X133943213Y-101434028D01*
X133777613Y-101313715D01*
X133777612Y-101313714D01*
X133777610Y-101313713D01*
X133720653Y-101284691D01*
X133595223Y-101220781D01*
X133400534Y-101157522D01*
X133225995Y-101129878D01*
X133198352Y-101125500D01*
X132993648Y-101125500D01*
X132969329Y-101129351D01*
X132791465Y-101157522D01*
X132596776Y-101220781D01*
X132414386Y-101313715D01*
X132248786Y-101434028D01*
X132104028Y-101578786D01*
X131983715Y-101744386D01*
X131890781Y-101926776D01*
X131827522Y-102121465D01*
X131795500Y-102323648D01*
X131795500Y-102528351D01*
X131827522Y-102730534D01*
X131890781Y-102925223D01*
X131942385Y-103026500D01*
X131979320Y-103098989D01*
X131983715Y-103107613D01*
X132104028Y-103273213D01*
X132248786Y-103417971D01*
X132393964Y-103523447D01*
X132414390Y-103538287D01*
X132530607Y-103597503D01*
X132596776Y-103631218D01*
X132596778Y-103631218D01*
X132596781Y-103631220D01*
X132701137Y-103665127D01*
X132791465Y-103694477D01*
X132892557Y-103710488D01*
X132993648Y-103726500D01*
X132993649Y-103726500D01*
X133198351Y-103726500D01*
X133198352Y-103726500D01*
X133400534Y-103694477D01*
X133595219Y-103631220D01*
X133777610Y-103538287D01*
X133879562Y-103464215D01*
X133943213Y-103417971D01*
X133943215Y-103417968D01*
X133943219Y-103417966D01*
X134087966Y-103273219D01*
X134087968Y-103273215D01*
X134087971Y-103273213D01*
X134208284Y-103107614D01*
X134208285Y-103107613D01*
X134208287Y-103107610D01*
X134215117Y-103094204D01*
X134263091Y-103043409D01*
X134325602Y-103026500D01*
X136616903Y-103026500D01*
X136683942Y-103046185D01*
X136729697Y-103098989D01*
X136739641Y-103168147D01*
X136710616Y-103231703D01*
X136704586Y-103238178D01*
X136222687Y-103720077D01*
X135775286Y-104167478D01*
X135663481Y-104279282D01*
X135663479Y-104279285D01*
X135638420Y-104322689D01*
X135625829Y-104344499D01*
X135613361Y-104366094D01*
X135613359Y-104366096D01*
X135584425Y-104416209D01*
X135584424Y-104416210D01*
X135584423Y-104416215D01*
X135543499Y-104568943D01*
X135543499Y-104568945D01*
X135543499Y-104737046D01*
X135543500Y-104737059D01*
X135543500Y-109855902D01*
X135523815Y-109922941D01*
X135507181Y-109943583D01*
X133477083Y-111973681D01*
X133415760Y-112007166D01*
X133389402Y-112010000D01*
X132513012Y-112010000D01*
X132545925Y-111952993D01*
X132580000Y-111825826D01*
X132580000Y-111694174D01*
X132545925Y-111567007D01*
X132513012Y-111510000D01*
X133430000Y-111510000D01*
X133430000Y-110862172D01*
X133429999Y-110862155D01*
X133423598Y-110802627D01*
X133423596Y-110802620D01*
X133373354Y-110667913D01*
X133373350Y-110667906D01*
X133287190Y-110552812D01*
X133287187Y-110552809D01*
X133172093Y-110466649D01*
X133172086Y-110466645D01*
X133037379Y-110416403D01*
X133037372Y-110416401D01*
X132977844Y-110410000D01*
X132330000Y-110410000D01*
X132330000Y-111326988D01*
X132272993Y-111294075D01*
X132145826Y-111260000D01*
X132014174Y-111260000D01*
X131887007Y-111294075D01*
X131830000Y-111326988D01*
X131830000Y-110410000D01*
X131534500Y-110410000D01*
X131467461Y-110390315D01*
X131421706Y-110337511D01*
X131410500Y-110286000D01*
X131410500Y-101759022D01*
X131430185Y-101691983D01*
X131446819Y-101671341D01*
X132659342Y-100458819D01*
X132720665Y-100425334D01*
X132747023Y-100422500D01*
X136057331Y-100422500D01*
X136057347Y-100422501D01*
X136064943Y-100422501D01*
X136223054Y-100422501D01*
X136223057Y-100422501D01*
X136375785Y-100381577D01*
X136432308Y-100348943D01*
X136512716Y-100302520D01*
X136624520Y-100190716D01*
X136624520Y-100190714D01*
X136634724Y-100180511D01*
X136634728Y-100180506D01*
X138184173Y-98631060D01*
X138245494Y-98597577D01*
X138315186Y-98602561D01*
G37*
%TD.AperFunction*%
%TA.AperFunction,Conductor*%
G36*
X141564360Y-92296294D02*
G01*
X141570622Y-92295119D01*
X141597481Y-92306020D01*
X141625287Y-92314185D01*
X141629457Y-92318998D01*
X141635363Y-92321395D01*
X141652067Y-92345091D01*
X141671042Y-92366989D01*
X141671948Y-92373293D01*
X141675620Y-92378502D01*
X141676861Y-92407460D01*
X141680986Y-92436147D01*
X141678339Y-92441942D01*
X141678612Y-92448307D01*
X141664002Y-92473336D01*
X141651961Y-92499703D01*
X141645795Y-92504527D01*
X141643390Y-92508649D01*
X141614543Y-92528985D01*
X141532180Y-92570951D01*
X141360213Y-92695890D01*
X141209890Y-92846213D01*
X141084951Y-93018179D01*
X140988444Y-93207585D01*
X140922753Y-93409760D01*
X140889500Y-93619713D01*
X140889500Y-93832286D01*
X140922754Y-94042244D01*
X140922754Y-94042247D01*
X140936491Y-94084523D01*
X140938486Y-94154364D01*
X140906241Y-94210522D01*
X135931584Y-99185181D01*
X135870261Y-99218666D01*
X135843903Y-99221500D01*
X134352607Y-99221500D01*
X134285568Y-99201815D01*
X134239813Y-99149011D01*
X134229869Y-99079853D01*
X134242122Y-99041205D01*
X134301218Y-98925223D01*
X134301218Y-98925222D01*
X134301220Y-98925219D01*
X134364477Y-98730534D01*
X134396500Y-98528352D01*
X134396500Y-98323648D01*
X134364477Y-98121466D01*
X134328435Y-98010544D01*
X134326441Y-97940705D01*
X134358684Y-97884549D01*
X139912416Y-92330819D01*
X139973739Y-92297334D01*
X140000097Y-92294500D01*
X141558248Y-92294500D01*
X141564360Y-92296294D01*
G37*
%TD.AperFunction*%
%TA.AperFunction,Conductor*%
G36*
X156414539Y-86372185D02*
G01*
X156460294Y-86424989D01*
X156471500Y-86476500D01*
X156471500Y-124343500D01*
X156451815Y-124410539D01*
X156399011Y-124456294D01*
X156347500Y-124467500D01*
X137784500Y-124467500D01*
X137717461Y-124447815D01*
X137671706Y-124395011D01*
X137660500Y-124343500D01*
X137660500Y-120838110D01*
X137660500Y-120838108D01*
X137626392Y-120710814D01*
X137560500Y-120596686D01*
X137467314Y-120503500D01*
X137410250Y-120470554D01*
X137353187Y-120437608D01*
X137250557Y-120410109D01*
X137225892Y-120403500D01*
X137225891Y-120403500D01*
X106796500Y-120403500D01*
X106729461Y-120383815D01*
X106683706Y-120331011D01*
X106672500Y-120279500D01*
X106672500Y-111653713D01*
X112949500Y-111653713D01*
X112949500Y-111866287D01*
X112982754Y-112076243D01*
X113019371Y-112188939D01*
X113048444Y-112278414D01*
X113144951Y-112467820D01*
X113269890Y-112639786D01*
X113420213Y-112790109D01*
X113592179Y-112915048D01*
X113592181Y-112915049D01*
X113592184Y-112915051D01*
X113781588Y-113011557D01*
X113983757Y-113077246D01*
X114193713Y-113110500D01*
X114193714Y-113110500D01*
X114406286Y-113110500D01*
X114406287Y-113110500D01*
X114616243Y-113077246D01*
X114818412Y-113011557D01*
X115007816Y-112915051D01*
X115029789Y-112899086D01*
X115179786Y-112790109D01*
X115179788Y-112790106D01*
X115179792Y-112790104D01*
X115330104Y-112639792D01*
X115330106Y-112639788D01*
X115330109Y-112639786D01*
X115455048Y-112467820D01*
X115455047Y-112467820D01*
X115455051Y-112467816D01*
X115459514Y-112459054D01*
X115507488Y-112408259D01*
X115575308Y-112391463D01*
X115641444Y-112413999D01*
X115680486Y-112459056D01*
X115684951Y-112467820D01*
X115809890Y-112639786D01*
X115960213Y-112790109D01*
X116132179Y-112915048D01*
X116132181Y-112915049D01*
X116132184Y-112915051D01*
X116321588Y-113011557D01*
X116523757Y-113077246D01*
X116733713Y-113110500D01*
X116733714Y-113110500D01*
X116946286Y-113110500D01*
X116946287Y-113110500D01*
X117156243Y-113077246D01*
X117358412Y-113011557D01*
X117547816Y-112915051D01*
X117569789Y-112899086D01*
X117719786Y-112790109D01*
X117719788Y-112790106D01*
X117719792Y-112790104D01*
X117870104Y-112639792D01*
X117870106Y-112639788D01*
X117870109Y-112639786D01*
X117995048Y-112467820D01*
X117995047Y-112467820D01*
X117995051Y-112467816D01*
X117999514Y-112459054D01*
X118047488Y-112408259D01*
X118115308Y-112391463D01*
X118181444Y-112413999D01*
X118220486Y-112459056D01*
X118224951Y-112467820D01*
X118349890Y-112639786D01*
X118500213Y-112790109D01*
X118672179Y-112915048D01*
X118672181Y-112915049D01*
X118672184Y-112915051D01*
X118861588Y-113011557D01*
X119063757Y-113077246D01*
X119273713Y-113110500D01*
X119273714Y-113110500D01*
X119486286Y-113110500D01*
X119486287Y-113110500D01*
X119696243Y-113077246D01*
X119898412Y-113011557D01*
X120087816Y-112915051D01*
X120109789Y-112899086D01*
X120259786Y-112790109D01*
X120259788Y-112790106D01*
X120259792Y-112790104D01*
X120410104Y-112639792D01*
X120410106Y-112639788D01*
X120410109Y-112639786D01*
X120535048Y-112467820D01*
X120535047Y-112467820D01*
X120535051Y-112467816D01*
X120539514Y-112459054D01*
X120587488Y-112408259D01*
X120655308Y-112391463D01*
X120721444Y-112413999D01*
X120760486Y-112459056D01*
X120764951Y-112467820D01*
X120889890Y-112639786D01*
X121040213Y-112790109D01*
X121212179Y-112915048D01*
X121212181Y-112915049D01*
X121212184Y-112915051D01*
X121401588Y-113011557D01*
X121603757Y-113077246D01*
X121813713Y-113110500D01*
X121813714Y-113110500D01*
X122026286Y-113110500D01*
X122026287Y-113110500D01*
X122236243Y-113077246D01*
X122438412Y-113011557D01*
X122627816Y-112915051D01*
X122649789Y-112899086D01*
X122799786Y-112790109D01*
X122799788Y-112790106D01*
X122799792Y-112790104D01*
X122950104Y-112639792D01*
X122950106Y-112639788D01*
X122950109Y-112639786D01*
X123075048Y-112467820D01*
X123075047Y-112467820D01*
X123075051Y-112467816D01*
X123079514Y-112459054D01*
X123127488Y-112408259D01*
X123195308Y-112391463D01*
X123261444Y-112413999D01*
X123300486Y-112459056D01*
X123304951Y-112467820D01*
X123429890Y-112639786D01*
X123580213Y-112790109D01*
X123752179Y-112915048D01*
X123752181Y-112915049D01*
X123752184Y-112915051D01*
X123941588Y-113011557D01*
X124143757Y-113077246D01*
X124353713Y-113110500D01*
X124353714Y-113110500D01*
X124566286Y-113110500D01*
X124566287Y-113110500D01*
X124776243Y-113077246D01*
X124978412Y-113011557D01*
X125167816Y-112915051D01*
X125189789Y-112899086D01*
X125339786Y-112790109D01*
X125339788Y-112790106D01*
X125339792Y-112790104D01*
X125490104Y-112639792D01*
X125490106Y-112639788D01*
X125490109Y-112639786D01*
X125615048Y-112467820D01*
X125615047Y-112467820D01*
X125615051Y-112467816D01*
X125619514Y-112459054D01*
X125667488Y-112408259D01*
X125735308Y-112391463D01*
X125801444Y-112413999D01*
X125840486Y-112459056D01*
X125844951Y-112467820D01*
X125969890Y-112639786D01*
X126120213Y-112790109D01*
X126292179Y-112915048D01*
X126292181Y-112915049D01*
X126292184Y-112915051D01*
X126481588Y-113011557D01*
X126683757Y-113077246D01*
X126893713Y-113110500D01*
X126893714Y-113110500D01*
X127106286Y-113110500D01*
X127106287Y-113110500D01*
X127316243Y-113077246D01*
X127358523Y-113063507D01*
X127428362Y-113061511D01*
X127484522Y-113093757D01*
X128039139Y-113648374D01*
X128039149Y-113648385D01*
X128043479Y-113652715D01*
X128043480Y-113652716D01*
X128155284Y-113764520D01*
X128155286Y-113764521D01*
X128155290Y-113764524D01*
X128292209Y-113843573D01*
X128292216Y-113843577D01*
X128404019Y-113873534D01*
X128444942Y-113884500D01*
X128444943Y-113884500D01*
X129707331Y-113884500D01*
X129707347Y-113884501D01*
X129714943Y-113884501D01*
X129873054Y-113884501D01*
X129873057Y-113884501D01*
X130025785Y-113843577D01*
X130075904Y-113814639D01*
X130162716Y-113764520D01*
X130274520Y-113652716D01*
X130274520Y-113652714D01*
X130284728Y-113642507D01*
X130284730Y-113642504D01*
X130848520Y-113078713D01*
X130909839Y-113045231D01*
X130979530Y-113050215D01*
X130979676Y-113050282D01*
X131122620Y-113103596D01*
X131122627Y-113103598D01*
X131182155Y-113109999D01*
X131182172Y-113110000D01*
X131830000Y-113110000D01*
X131830000Y-112193012D01*
X131887007Y-112225925D01*
X132014174Y-112260000D01*
X132145826Y-112260000D01*
X132272993Y-112225925D01*
X132330000Y-112193012D01*
X132330000Y-113069402D01*
X132310315Y-113136441D01*
X132293681Y-113157083D01*
X129962873Y-115487890D01*
X129901550Y-115521375D01*
X129855795Y-115522682D01*
X129646287Y-115489500D01*
X129433713Y-115489500D01*
X129385042Y-115497208D01*
X129223760Y-115522753D01*
X129021585Y-115588444D01*
X128832179Y-115684951D01*
X128660213Y-115809890D01*
X128509890Y-115960213D01*
X128384949Y-116132182D01*
X128380484Y-116140946D01*
X128332509Y-116191742D01*
X128264688Y-116208536D01*
X128198553Y-116185998D01*
X128159516Y-116140946D01*
X128155050Y-116132182D01*
X128030109Y-115960213D01*
X127879786Y-115809890D01*
X127707820Y-115684951D01*
X127518414Y-115588444D01*
X127518413Y-115588443D01*
X127518412Y-115588443D01*
X127316243Y-115522754D01*
X127316241Y-115522753D01*
X127316240Y-115522753D01*
X127154957Y-115497208D01*
X127106287Y-115489500D01*
X126893713Y-115489500D01*
X126845042Y-115497208D01*
X126683760Y-115522753D01*
X126481585Y-115588444D01*
X126292179Y-115684951D01*
X126120213Y-115809890D01*
X125969890Y-115960213D01*
X125844949Y-116132182D01*
X125840484Y-116140946D01*
X125792509Y-116191742D01*
X125724688Y-116208536D01*
X125658553Y-116185998D01*
X125619516Y-116140946D01*
X125615050Y-116132182D01*
X125490109Y-115960213D01*
X125339786Y-115809890D01*
X125167820Y-115684951D01*
X124978414Y-115588444D01*
X124978413Y-115588443D01*
X124978412Y-115588443D01*
X124776243Y-115522754D01*
X124776241Y-115522753D01*
X124776240Y-115522753D01*
X124614957Y-115497208D01*
X124566287Y-115489500D01*
X124353713Y-115489500D01*
X124305042Y-115497208D01*
X124143760Y-115522753D01*
X123941585Y-115588444D01*
X123752179Y-115684951D01*
X123580213Y-115809890D01*
X123429890Y-115960213D01*
X123304949Y-116132182D01*
X123300484Y-116140946D01*
X123252509Y-116191742D01*
X123184688Y-116208536D01*
X123118553Y-116185998D01*
X123079516Y-116140946D01*
X123075050Y-116132182D01*
X122950109Y-115960213D01*
X122799786Y-115809890D01*
X122627820Y-115684951D01*
X122438414Y-115588444D01*
X122438413Y-115588443D01*
X122438412Y-115588443D01*
X122236243Y-115522754D01*
X122236241Y-115522753D01*
X122236240Y-115522753D01*
X122074957Y-115497208D01*
X122026287Y-115489500D01*
X121813713Y-115489500D01*
X121765042Y-115497208D01*
X121603760Y-115522753D01*
X121401585Y-115588444D01*
X121212179Y-115684951D01*
X121040213Y-115809890D01*
X120889890Y-115960213D01*
X120764949Y-116132182D01*
X120760484Y-116140946D01*
X120712509Y-116191742D01*
X120644688Y-116208536D01*
X120578553Y-116185998D01*
X120539516Y-116140946D01*
X120535050Y-116132182D01*
X120410109Y-115960213D01*
X120259786Y-115809890D01*
X120087820Y-115684951D01*
X119898414Y-115588444D01*
X119898413Y-115588443D01*
X119898412Y-115588443D01*
X119696243Y-115522754D01*
X119696241Y-115522753D01*
X119696240Y-115522753D01*
X119534957Y-115497208D01*
X119486287Y-115489500D01*
X119273713Y-115489500D01*
X119225042Y-115497208D01*
X119063760Y-115522753D01*
X118861585Y-115588444D01*
X118672179Y-115684951D01*
X118500213Y-115809890D01*
X118349890Y-115960213D01*
X118224949Y-116132182D01*
X118220484Y-116140946D01*
X118172509Y-116191742D01*
X118104688Y-116208536D01*
X118038553Y-116185998D01*
X117999516Y-116140946D01*
X117995050Y-116132182D01*
X117870109Y-115960213D01*
X117719786Y-115809890D01*
X117547820Y-115684951D01*
X117358414Y-115588444D01*
X117358413Y-115588443D01*
X117358412Y-115588443D01*
X117156243Y-115522754D01*
X117156241Y-115522753D01*
X117156240Y-115522753D01*
X116994957Y-115497208D01*
X116946287Y-115489500D01*
X116733713Y-115489500D01*
X116685042Y-115497208D01*
X116523760Y-115522753D01*
X116321585Y-115588444D01*
X116132179Y-115684951D01*
X115960213Y-115809890D01*
X115809890Y-115960213D01*
X115684949Y-116132182D01*
X115680484Y-116140946D01*
X115632509Y-116191742D01*
X115564688Y-116208536D01*
X115498553Y-116185998D01*
X115459516Y-116140946D01*
X115455050Y-116132182D01*
X115330109Y-115960213D01*
X115179786Y-115809890D01*
X115007820Y-115684951D01*
X114818414Y-115588444D01*
X114818413Y-115588443D01*
X114818412Y-115588443D01*
X114616243Y-115522754D01*
X114616241Y-115522753D01*
X114616240Y-115522753D01*
X114454957Y-115497208D01*
X114406287Y-115489500D01*
X114193713Y-115489500D01*
X114145042Y-115497208D01*
X113983760Y-115522753D01*
X113781585Y-115588444D01*
X113592179Y-115684951D01*
X113420213Y-115809890D01*
X113269890Y-115960213D01*
X113144951Y-116132179D01*
X113048444Y-116321585D01*
X112982753Y-116523760D01*
X112981291Y-116532993D01*
X112949500Y-116733713D01*
X112949500Y-116946287D01*
X112982754Y-117156243D01*
X113034084Y-117314221D01*
X113048444Y-117358414D01*
X113144951Y-117547820D01*
X113269890Y-117719786D01*
X113420213Y-117870109D01*
X113592179Y-117995048D01*
X113592181Y-117995049D01*
X113592184Y-117995051D01*
X113781588Y-118091557D01*
X113983757Y-118157246D01*
X114193713Y-118190500D01*
X114193714Y-118190500D01*
X114406286Y-118190500D01*
X114406287Y-118190500D01*
X114616243Y-118157246D01*
X114818412Y-118091557D01*
X115007816Y-117995051D01*
X115029789Y-117979086D01*
X115179786Y-117870109D01*
X115179788Y-117870106D01*
X115179792Y-117870104D01*
X115330104Y-117719792D01*
X115330106Y-117719788D01*
X115330109Y-117719786D01*
X115455048Y-117547820D01*
X115455047Y-117547820D01*
X115455051Y-117547816D01*
X115459514Y-117539054D01*
X115507488Y-117488259D01*
X115575308Y-117471463D01*
X115641444Y-117493999D01*
X115680486Y-117539056D01*
X115684951Y-117547820D01*
X115809890Y-117719786D01*
X115960213Y-117870109D01*
X116132179Y-117995048D01*
X116132181Y-117995049D01*
X116132184Y-117995051D01*
X116321588Y-118091557D01*
X116523757Y-118157246D01*
X116733713Y-118190500D01*
X116733714Y-118190500D01*
X116946286Y-118190500D01*
X116946287Y-118190500D01*
X117156243Y-118157246D01*
X117358412Y-118091557D01*
X117547816Y-117995051D01*
X117569789Y-117979086D01*
X117719786Y-117870109D01*
X117719788Y-117870106D01*
X117719792Y-117870104D01*
X117870104Y-117719792D01*
X117870106Y-117719788D01*
X117870109Y-117719786D01*
X117995048Y-117547820D01*
X117995047Y-117547820D01*
X117995051Y-117547816D01*
X117999514Y-117539054D01*
X118047488Y-117488259D01*
X118115308Y-117471463D01*
X118181444Y-117493999D01*
X118220486Y-117539056D01*
X118224951Y-117547820D01*
X118349890Y-117719786D01*
X118500213Y-117870109D01*
X118672179Y-117995048D01*
X118672181Y-117995049D01*
X118672184Y-117995051D01*
X118861588Y-118091557D01*
X119063757Y-118157246D01*
X119273713Y-118190500D01*
X119273714Y-118190500D01*
X119486286Y-118190500D01*
X119486287Y-118190500D01*
X119696243Y-118157246D01*
X119898412Y-118091557D01*
X120087816Y-117995051D01*
X120109789Y-117979086D01*
X120259786Y-117870109D01*
X120259788Y-117870106D01*
X120259792Y-117870104D01*
X120410104Y-117719792D01*
X120410106Y-117719788D01*
X120410109Y-117719786D01*
X120535048Y-117547820D01*
X120535047Y-117547820D01*
X120535051Y-117547816D01*
X120539514Y-117539054D01*
X120587488Y-117488259D01*
X120655308Y-117471463D01*
X120721444Y-117493999D01*
X120760486Y-117539056D01*
X120764951Y-117547820D01*
X120889890Y-117719786D01*
X121040213Y-117870109D01*
X121212179Y-117995048D01*
X121212181Y-117995049D01*
X121212184Y-117995051D01*
X121401588Y-118091557D01*
X121603757Y-118157246D01*
X121813713Y-118190500D01*
X121813714Y-118190500D01*
X122026286Y-118190500D01*
X122026287Y-118190500D01*
X122236243Y-118157246D01*
X122438412Y-118091557D01*
X122627816Y-117995051D01*
X122649789Y-117979086D01*
X122799786Y-117870109D01*
X122799788Y-117870106D01*
X122799792Y-117870104D01*
X122950104Y-117719792D01*
X122950106Y-117719788D01*
X122950109Y-117719786D01*
X123075048Y-117547820D01*
X123075047Y-117547820D01*
X123075051Y-117547816D01*
X123079514Y-117539054D01*
X123127488Y-117488259D01*
X123195308Y-117471463D01*
X123261444Y-117493999D01*
X123300486Y-117539056D01*
X123304951Y-117547820D01*
X123429890Y-117719786D01*
X123580213Y-117870109D01*
X123752179Y-117995048D01*
X123752181Y-117995049D01*
X123752184Y-117995051D01*
X123941588Y-118091557D01*
X124143757Y-118157246D01*
X124353713Y-118190500D01*
X124353714Y-118190500D01*
X124566286Y-118190500D01*
X124566287Y-118190500D01*
X124776243Y-118157246D01*
X124978412Y-118091557D01*
X125167816Y-117995051D01*
X125189789Y-117979086D01*
X125339786Y-117870109D01*
X125339788Y-117870106D01*
X125339792Y-117870104D01*
X125490104Y-117719792D01*
X125490106Y-117719788D01*
X125490109Y-117719786D01*
X125615048Y-117547820D01*
X125615047Y-117547820D01*
X125615051Y-117547816D01*
X125619514Y-117539054D01*
X125667488Y-117488259D01*
X125735308Y-117471463D01*
X125801444Y-117493999D01*
X125840486Y-117539056D01*
X125844951Y-117547820D01*
X125969890Y-117719786D01*
X126120213Y-117870109D01*
X126292179Y-117995048D01*
X126292181Y-117995049D01*
X126292184Y-117995051D01*
X126481588Y-118091557D01*
X126683757Y-118157246D01*
X126893713Y-118190500D01*
X126893714Y-118190500D01*
X127106286Y-118190500D01*
X127106287Y-118190500D01*
X127315795Y-118157317D01*
X127385089Y-118166272D01*
X127422874Y-118192109D01*
X127959139Y-118728374D01*
X127959149Y-118728385D01*
X127963479Y-118732715D01*
X127963480Y-118732716D01*
X128075284Y-118844520D01*
X128075286Y-118844521D01*
X128075290Y-118844524D01*
X128203161Y-118918349D01*
X128212216Y-118923577D01*
X128324019Y-118953534D01*
X128364942Y-118964500D01*
X128364943Y-118964500D01*
X133367840Y-118964500D01*
X133367856Y-118964501D01*
X133375452Y-118964501D01*
X133533563Y-118964501D01*
X133533566Y-118964501D01*
X133686294Y-118923577D01*
X133736413Y-118894639D01*
X133823225Y-118844520D01*
X133935029Y-118732716D01*
X133935029Y-118732714D01*
X133945237Y-118722507D01*
X133945238Y-118722504D01*
X142720520Y-109947225D01*
X142799577Y-109810293D01*
X142840501Y-109657566D01*
X142840501Y-109499451D01*
X142840501Y-109491856D01*
X142840500Y-109491838D01*
X142840500Y-104155718D01*
X142860185Y-104088679D01*
X142908207Y-104045233D01*
X142947815Y-104025052D01*
X142947815Y-104025051D01*
X142947816Y-104025051D01*
X143084477Y-103925761D01*
X143119784Y-103900110D01*
X143119784Y-103900109D01*
X143119792Y-103900104D01*
X143233329Y-103786566D01*
X143294648Y-103753084D01*
X143364340Y-103758068D01*
X143420274Y-103799939D01*
X143437189Y-103830917D01*
X143486202Y-103962328D01*
X143486206Y-103962335D01*
X143572452Y-104077544D01*
X143572455Y-104077547D01*
X143687664Y-104163793D01*
X143687671Y-104163797D01*
X143697546Y-104167480D01*
X143822517Y-104214091D01*
X143882127Y-104220500D01*
X144055500Y-104220499D01*
X144122539Y-104240183D01*
X144168294Y-104292987D01*
X144179500Y-104344499D01*
X144179500Y-119079902D01*
X144159815Y-119146941D01*
X144143181Y-119167583D01*
X143802181Y-119508583D01*
X143740858Y-119542068D01*
X143671166Y-119537084D01*
X143615233Y-119495212D01*
X143590816Y-119429748D01*
X143590500Y-119420902D01*
X143590500Y-119273713D01*
X143557246Y-119063757D01*
X143491557Y-118861588D01*
X143395051Y-118672184D01*
X143395049Y-118672181D01*
X143395048Y-118672179D01*
X143270109Y-118500213D01*
X143119786Y-118349890D01*
X142947817Y-118224949D01*
X142938504Y-118220204D01*
X142887707Y-118172230D01*
X142870912Y-118104409D01*
X142893449Y-118038274D01*
X142938507Y-117999232D01*
X142947558Y-117994620D01*
X143119459Y-117869727D01*
X143119464Y-117869723D01*
X143269723Y-117719464D01*
X143269727Y-117719459D01*
X143394620Y-117547557D01*
X143491095Y-117358217D01*
X143556757Y-117156129D01*
X143556757Y-117156126D01*
X143567231Y-117090000D01*
X142673012Y-117090000D01*
X142705925Y-117032993D01*
X142740000Y-116905826D01*
X142740000Y-116774174D01*
X142705925Y-116647007D01*
X142673012Y-116590000D01*
X143567231Y-116590000D01*
X143556757Y-116523873D01*
X143556757Y-116523870D01*
X143491095Y-116321782D01*
X143394620Y-116132442D01*
X143269727Y-115960540D01*
X143269723Y-115960535D01*
X143119464Y-115810276D01*
X143119459Y-115810272D01*
X142947557Y-115685379D01*
X142758215Y-115588903D01*
X142556124Y-115523241D01*
X142490000Y-115512768D01*
X142490000Y-116406988D01*
X142432993Y-116374075D01*
X142305826Y-116340000D01*
X142174174Y-116340000D01*
X142047007Y-116374075D01*
X141990000Y-116406988D01*
X141990000Y-115512768D01*
X141989999Y-115512768D01*
X141923875Y-115523241D01*
X141721784Y-115588903D01*
X141532442Y-115685379D01*
X141360540Y-115810272D01*
X141360535Y-115810276D01*
X141210276Y-115960535D01*
X141210272Y-115960540D01*
X141085377Y-116132444D01*
X141080484Y-116142048D01*
X141032509Y-116192844D01*
X140964688Y-116209638D01*
X140898553Y-116187100D01*
X140859516Y-116142048D01*
X140854622Y-116132444D01*
X140729727Y-115960540D01*
X140729723Y-115960535D01*
X140579464Y-115810276D01*
X140579459Y-115810272D01*
X140407557Y-115685379D01*
X140218215Y-115588903D01*
X140016124Y-115523241D01*
X139950000Y-115512768D01*
X139950000Y-116406988D01*
X139892993Y-116374075D01*
X139765826Y-116340000D01*
X139634174Y-116340000D01*
X139507007Y-116374075D01*
X139450000Y-116406988D01*
X139450000Y-115512768D01*
X139449999Y-115512768D01*
X139383875Y-115523241D01*
X139181784Y-115588903D01*
X138992442Y-115685379D01*
X138820540Y-115810272D01*
X138820535Y-115810276D01*
X138670276Y-115960535D01*
X138670272Y-115960540D01*
X138545379Y-116132442D01*
X138448904Y-116321782D01*
X138383242Y-116523870D01*
X138383242Y-116523873D01*
X138372769Y-116590000D01*
X139266988Y-116590000D01*
X139234075Y-116647007D01*
X139200000Y-116774174D01*
X139200000Y-116905826D01*
X139234075Y-117032993D01*
X139266988Y-117090000D01*
X138372769Y-117090000D01*
X138383242Y-117156126D01*
X138383242Y-117156129D01*
X138448904Y-117358217D01*
X138545379Y-117547557D01*
X138670272Y-117719459D01*
X138670276Y-117719464D01*
X138820535Y-117869723D01*
X138820540Y-117869727D01*
X138992444Y-117994622D01*
X139001495Y-117999234D01*
X139052292Y-118047208D01*
X139069087Y-118115029D01*
X139046550Y-118181164D01*
X139001499Y-118220202D01*
X138992182Y-118224949D01*
X138820213Y-118349890D01*
X138669890Y-118500213D01*
X138544951Y-118672179D01*
X138448444Y-118861585D01*
X138382753Y-119063760D01*
X138369579Y-119146941D01*
X138349500Y-119273713D01*
X138349500Y-119486287D01*
X138382754Y-119696243D01*
X138439449Y-119870732D01*
X138448444Y-119898414D01*
X138544951Y-120087820D01*
X138669890Y-120259786D01*
X138820213Y-120410109D01*
X138992182Y-120535050D01*
X139000946Y-120539516D01*
X139051742Y-120587491D01*
X139068536Y-120655312D01*
X139045998Y-120721447D01*
X139000946Y-120760484D01*
X138992182Y-120764949D01*
X138820213Y-120889890D01*
X138669890Y-121040213D01*
X138544951Y-121212179D01*
X138448444Y-121401585D01*
X138382753Y-121603760D01*
X138349500Y-121813713D01*
X138349500Y-122026286D01*
X138382753Y-122236239D01*
X138448444Y-122438414D01*
X138544951Y-122627820D01*
X138669890Y-122799786D01*
X138820213Y-122950109D01*
X138992179Y-123075048D01*
X138992181Y-123075049D01*
X138992184Y-123075051D01*
X139181588Y-123171557D01*
X139383757Y-123237246D01*
X139593713Y-123270500D01*
X139593714Y-123270500D01*
X139806286Y-123270500D01*
X139806287Y-123270500D01*
X140016243Y-123237246D01*
X140218412Y-123171557D01*
X140407816Y-123075051D01*
X140579792Y-122950104D01*
X140693329Y-122836566D01*
X140754648Y-122803084D01*
X140824340Y-122808068D01*
X140880274Y-122849939D01*
X140897189Y-122880917D01*
X140946202Y-123012328D01*
X140946206Y-123012335D01*
X141032452Y-123127544D01*
X141032455Y-123127547D01*
X141147664Y-123213793D01*
X141147671Y-123213797D01*
X141282517Y-123264091D01*
X141282516Y-123264091D01*
X141289444Y-123264835D01*
X141342127Y-123270500D01*
X143137872Y-123270499D01*
X143197483Y-123264091D01*
X143332331Y-123213796D01*
X143447546Y-123127546D01*
X143533796Y-123012331D01*
X143584091Y-122877483D01*
X143590500Y-122817873D01*
X143590499Y-121470095D01*
X143610184Y-121403057D01*
X143626813Y-121382420D01*
X145138506Y-119870728D01*
X145138511Y-119870724D01*
X145148714Y-119860520D01*
X145148716Y-119860520D01*
X145260520Y-119748716D01*
X145339577Y-119611784D01*
X145380500Y-119459057D01*
X145380500Y-104344499D01*
X145400185Y-104277460D01*
X145452989Y-104231705D01*
X145504500Y-104220499D01*
X145677871Y-104220499D01*
X145677872Y-104220499D01*
X145737483Y-104214091D01*
X145872331Y-104163796D01*
X145987546Y-104077546D01*
X146073796Y-103962331D01*
X146124091Y-103827483D01*
X146130500Y-103767873D01*
X146130499Y-101972128D01*
X146124091Y-101912517D01*
X146122810Y-101909083D01*
X146073797Y-101777671D01*
X146073793Y-101777664D01*
X145987547Y-101662455D01*
X145987544Y-101662452D01*
X145872335Y-101576206D01*
X145872328Y-101576202D01*
X145737482Y-101525908D01*
X145737483Y-101525908D01*
X145677883Y-101519501D01*
X145677881Y-101519500D01*
X145677873Y-101519500D01*
X145677865Y-101519500D01*
X145489500Y-101519500D01*
X145422461Y-101499815D01*
X145376706Y-101447011D01*
X145365500Y-101395500D01*
X145365500Y-99772499D01*
X145385185Y-99705460D01*
X145437989Y-99659705D01*
X145489500Y-99648499D01*
X145662871Y-99648499D01*
X145662872Y-99648499D01*
X145722483Y-99642091D01*
X145857331Y-99591796D01*
X145972546Y-99505546D01*
X146058796Y-99390331D01*
X146109091Y-99255483D01*
X146115500Y-99195873D01*
X146115499Y-97400128D01*
X146109091Y-97340517D01*
X146095551Y-97304215D01*
X146058797Y-97205671D01*
X146058793Y-97205664D01*
X145972547Y-97090455D01*
X145972544Y-97090452D01*
X145857335Y-97004206D01*
X145857328Y-97004202D01*
X145722482Y-96953908D01*
X145722483Y-96953908D01*
X145662883Y-96947501D01*
X145662881Y-96947500D01*
X145662873Y-96947500D01*
X145662865Y-96947500D01*
X145489500Y-96947500D01*
X145422461Y-96927815D01*
X145376706Y-96875011D01*
X145365500Y-96823500D01*
X145365500Y-95200499D01*
X145385185Y-95133460D01*
X145437989Y-95087705D01*
X145489500Y-95076499D01*
X145677871Y-95076499D01*
X145677872Y-95076499D01*
X145737483Y-95070091D01*
X145872331Y-95019796D01*
X145987546Y-94933546D01*
X146073796Y-94818331D01*
X146124091Y-94683483D01*
X146130500Y-94623873D01*
X146130499Y-92828128D01*
X146124091Y-92768517D01*
X146122810Y-92765083D01*
X146073797Y-92633671D01*
X146073793Y-92633664D01*
X145987547Y-92518455D01*
X145987544Y-92518452D01*
X145872335Y-92432206D01*
X145872328Y-92432202D01*
X145737482Y-92381908D01*
X145737483Y-92381908D01*
X145677883Y-92375501D01*
X145677881Y-92375500D01*
X145677873Y-92375500D01*
X145677865Y-92375500D01*
X145504500Y-92375500D01*
X145437461Y-92355815D01*
X145391706Y-92303011D01*
X145380500Y-92251500D01*
X145380500Y-90394499D01*
X145400185Y-90327460D01*
X145452989Y-90281705D01*
X145504500Y-90270499D01*
X145677871Y-90270499D01*
X145677872Y-90270499D01*
X145737483Y-90264091D01*
X145872331Y-90213796D01*
X145987546Y-90127546D01*
X146073796Y-90012331D01*
X146124091Y-89877483D01*
X146130500Y-89817873D01*
X146130499Y-88022128D01*
X146124091Y-87962517D01*
X146122810Y-87959083D01*
X146073797Y-87827671D01*
X146073793Y-87827664D01*
X145987547Y-87712455D01*
X145987544Y-87712452D01*
X145872335Y-87626206D01*
X145872328Y-87626202D01*
X145737482Y-87575908D01*
X145737483Y-87575908D01*
X145677883Y-87569501D01*
X145677881Y-87569500D01*
X145677873Y-87569500D01*
X145677864Y-87569500D01*
X143882129Y-87569500D01*
X143882123Y-87569501D01*
X143822516Y-87575908D01*
X143687671Y-87626202D01*
X143687664Y-87626206D01*
X143572455Y-87712452D01*
X143572452Y-87712455D01*
X143486206Y-87827664D01*
X143486203Y-87827669D01*
X143437189Y-87959083D01*
X143395317Y-88015016D01*
X143329853Y-88039433D01*
X143261580Y-88024581D01*
X143233326Y-88003430D01*
X143119786Y-87889890D01*
X142947820Y-87764951D01*
X142758414Y-87668444D01*
X142758413Y-87668443D01*
X142758412Y-87668443D01*
X142556243Y-87602754D01*
X142556241Y-87602753D01*
X142556240Y-87602753D01*
X142394957Y-87577208D01*
X142346287Y-87569500D01*
X142133713Y-87569500D01*
X142085042Y-87577208D01*
X141923760Y-87602753D01*
X141721585Y-87668444D01*
X141532179Y-87764951D01*
X141360213Y-87889890D01*
X141209890Y-88040213D01*
X141084949Y-88212182D01*
X141080202Y-88221499D01*
X141032227Y-88272293D01*
X140964405Y-88289087D01*
X140898271Y-88266548D01*
X140859234Y-88221495D01*
X140854622Y-88212444D01*
X140729727Y-88040540D01*
X140729723Y-88040535D01*
X140579464Y-87890276D01*
X140579459Y-87890272D01*
X140407557Y-87765379D01*
X140218215Y-87668903D01*
X140016124Y-87603241D01*
X139950000Y-87592768D01*
X139950000Y-88486988D01*
X139892993Y-88454075D01*
X139765826Y-88420000D01*
X139634174Y-88420000D01*
X139507007Y-88454075D01*
X139450000Y-88486988D01*
X139450000Y-87592768D01*
X139449999Y-87592768D01*
X139383875Y-87603241D01*
X139181784Y-87668903D01*
X138992442Y-87765379D01*
X138820540Y-87890272D01*
X138820535Y-87890276D01*
X138670276Y-88040535D01*
X138670272Y-88040540D01*
X138545379Y-88212442D01*
X138448904Y-88401782D01*
X138383242Y-88603870D01*
X138383242Y-88603873D01*
X138372769Y-88670000D01*
X139266988Y-88670000D01*
X139234075Y-88727007D01*
X139200000Y-88854174D01*
X139200000Y-88985826D01*
X139234075Y-89112993D01*
X139266988Y-89170000D01*
X138372769Y-89170000D01*
X138383242Y-89236126D01*
X138383242Y-89236129D01*
X138448904Y-89438217D01*
X138545379Y-89627557D01*
X138670272Y-89799459D01*
X138670276Y-89799464D01*
X138820535Y-89949723D01*
X138820540Y-89949727D01*
X138992442Y-90074620D01*
X139181784Y-90171096D01*
X139313798Y-90213989D01*
X139371474Y-90253426D01*
X139398673Y-90317784D01*
X139386759Y-90386630D01*
X139363162Y-90419601D01*
X133645584Y-96137181D01*
X133584261Y-96170666D01*
X133557903Y-96173500D01*
X132166670Y-96173500D01*
X132166654Y-96173499D01*
X132159058Y-96173499D01*
X132000943Y-96173499D01*
X131924579Y-96193961D01*
X131848214Y-96214423D01*
X131848209Y-96214426D01*
X131711290Y-96293475D01*
X131711282Y-96293481D01*
X128979481Y-99025282D01*
X128979479Y-99025285D01*
X128967413Y-99046185D01*
X128931950Y-99107610D01*
X128929361Y-99112094D01*
X128929359Y-99112096D01*
X128900425Y-99162209D01*
X128900424Y-99162210D01*
X128889812Y-99201815D01*
X128859499Y-99314943D01*
X128859499Y-99314945D01*
X128859499Y-99483046D01*
X128859500Y-99483059D01*
X128859500Y-110521921D01*
X128839815Y-110588960D01*
X128808385Y-110622239D01*
X128660214Y-110729890D01*
X128660209Y-110729894D01*
X128509890Y-110880213D01*
X128384949Y-111052182D01*
X128380484Y-111060946D01*
X128332509Y-111111742D01*
X128264688Y-111128536D01*
X128198553Y-111105998D01*
X128159516Y-111060946D01*
X128155050Y-111052182D01*
X128030109Y-110880213D01*
X127879786Y-110729890D01*
X127707820Y-110604951D01*
X127518414Y-110508444D01*
X127518413Y-110508443D01*
X127518412Y-110508443D01*
X127316243Y-110442754D01*
X127316241Y-110442753D01*
X127316240Y-110442753D01*
X127154957Y-110417208D01*
X127106287Y-110409500D01*
X126893713Y-110409500D01*
X126845042Y-110417208D01*
X126683760Y-110442753D01*
X126481585Y-110508444D01*
X126292179Y-110604951D01*
X126120213Y-110729890D01*
X125969890Y-110880213D01*
X125844949Y-111052182D01*
X125840484Y-111060946D01*
X125792509Y-111111742D01*
X125724688Y-111128536D01*
X125658553Y-111105998D01*
X125619516Y-111060946D01*
X125615050Y-111052182D01*
X125490109Y-110880213D01*
X125339786Y-110729890D01*
X125167820Y-110604951D01*
X124978414Y-110508444D01*
X124978413Y-110508443D01*
X124978412Y-110508443D01*
X124776243Y-110442754D01*
X124776241Y-110442753D01*
X124776240Y-110442753D01*
X124614957Y-110417208D01*
X124566287Y-110409500D01*
X124353713Y-110409500D01*
X124305042Y-110417208D01*
X124143760Y-110442753D01*
X123941585Y-110508444D01*
X123752179Y-110604951D01*
X123580213Y-110729890D01*
X123429890Y-110880213D01*
X123304949Y-111052182D01*
X123300484Y-111060946D01*
X123252509Y-111111742D01*
X123184688Y-111128536D01*
X123118553Y-111105998D01*
X123079516Y-111060946D01*
X123075050Y-111052182D01*
X122950109Y-110880213D01*
X122799786Y-110729890D01*
X122627815Y-110604948D01*
X122627814Y-110604947D01*
X122588205Y-110584765D01*
X122537409Y-110536791D01*
X122520500Y-110474281D01*
X122520500Y-109536621D01*
X122540185Y-109469582D01*
X122556814Y-109448945D01*
X124574713Y-107431046D01*
X124574716Y-107431045D01*
X124686520Y-107319241D01*
X124736639Y-107232429D01*
X124765577Y-107182310D01*
X124806500Y-107029583D01*
X124806500Y-106871468D01*
X124806500Y-103616943D01*
X124785310Y-103537859D01*
X124777251Y-103507780D01*
X124777251Y-103507779D01*
X124765578Y-103464218D01*
X124765577Y-103464215D01*
X124734575Y-103410518D01*
X124721812Y-103388412D01*
X124686520Y-103327284D01*
X124574716Y-103215480D01*
X124574715Y-103215479D01*
X124570385Y-103211149D01*
X124570374Y-103211139D01*
X124230077Y-102870842D01*
X124196592Y-102809519D01*
X124199828Y-102744841D01*
X124204477Y-102730534D01*
X124236500Y-102528352D01*
X124236500Y-102323648D01*
X124219537Y-102216548D01*
X124204477Y-102121465D01*
X124173458Y-102026000D01*
X124141220Y-101926781D01*
X124141218Y-101926778D01*
X124141218Y-101926776D01*
X124096947Y-101839890D01*
X124048287Y-101744390D01*
X124040556Y-101733749D01*
X123927971Y-101578786D01*
X123783213Y-101434028D01*
X123617613Y-101313715D01*
X123617612Y-101313714D01*
X123617610Y-101313713D01*
X123560653Y-101284691D01*
X123435223Y-101220781D01*
X123240534Y-101157522D01*
X123065995Y-101129878D01*
X123038352Y-101125500D01*
X122833648Y-101125500D01*
X122809329Y-101129351D01*
X122631465Y-101157522D01*
X122436776Y-101220781D01*
X122254386Y-101313715D01*
X122088786Y-101434028D01*
X121944028Y-101578786D01*
X121823715Y-101744385D01*
X121816883Y-101757795D01*
X121768909Y-101808591D01*
X121706398Y-101825500D01*
X120325602Y-101825500D01*
X120258563Y-101805815D01*
X120215117Y-101757795D01*
X120208284Y-101744385D01*
X120087971Y-101578786D01*
X119943213Y-101434028D01*
X119777613Y-101313715D01*
X119777612Y-101313714D01*
X119777610Y-101313713D01*
X119720653Y-101284691D01*
X119595223Y-101220781D01*
X119400534Y-101157522D01*
X119225995Y-101129878D01*
X119198352Y-101125500D01*
X118993648Y-101125500D01*
X118969329Y-101129351D01*
X118791465Y-101157522D01*
X118596776Y-101220781D01*
X118414386Y-101313715D01*
X118248786Y-101434028D01*
X118104028Y-101578786D01*
X117983715Y-101744386D01*
X117928985Y-101851799D01*
X117881010Y-101902595D01*
X117813189Y-101919390D01*
X117747054Y-101896852D01*
X117703603Y-101842137D01*
X117694500Y-101795504D01*
X117694500Y-100728097D01*
X117714185Y-100661058D01*
X117730819Y-100640416D01*
X118190734Y-100180501D01*
X118651159Y-99720075D01*
X118712480Y-99686592D01*
X118777154Y-99689826D01*
X118791466Y-99694477D01*
X118993648Y-99726500D01*
X118993649Y-99726500D01*
X119198351Y-99726500D01*
X119198352Y-99726500D01*
X119400534Y-99694477D01*
X119595219Y-99631220D01*
X119777610Y-99538287D01*
X119870590Y-99470732D01*
X119943213Y-99417971D01*
X119943215Y-99417968D01*
X119943219Y-99417966D01*
X120087966Y-99273219D01*
X120087968Y-99273215D01*
X120087971Y-99273213D01*
X120208284Y-99107614D01*
X120208285Y-99107613D01*
X120208287Y-99107610D01*
X120215117Y-99094204D01*
X120263091Y-99043409D01*
X120325602Y-99026500D01*
X121706398Y-99026500D01*
X121773437Y-99046185D01*
X121816883Y-99094205D01*
X121823715Y-99107614D01*
X121944028Y-99273213D01*
X122088786Y-99417971D01*
X122243749Y-99530556D01*
X122254390Y-99538287D01*
X122353125Y-99588595D01*
X122436776Y-99631218D01*
X122436778Y-99631218D01*
X122436781Y-99631220D01*
X122524449Y-99659705D01*
X122631465Y-99694477D01*
X122732557Y-99710488D01*
X122833648Y-99726500D01*
X122833649Y-99726500D01*
X123038351Y-99726500D01*
X123038352Y-99726500D01*
X123240534Y-99694477D01*
X123435219Y-99631220D01*
X123617610Y-99538287D01*
X123710590Y-99470732D01*
X123783213Y-99417971D01*
X123783215Y-99417968D01*
X123783219Y-99417966D01*
X123927966Y-99273219D01*
X123927968Y-99273215D01*
X123927971Y-99273213D01*
X123997297Y-99177792D01*
X124048287Y-99107610D01*
X124141220Y-98925219D01*
X124204477Y-98730534D01*
X124236500Y-98528352D01*
X124236500Y-98323648D01*
X124217929Y-98206396D01*
X124204477Y-98121465D01*
X124141218Y-97926776D01*
X124092965Y-97832075D01*
X124048287Y-97744390D01*
X124040556Y-97733749D01*
X123927971Y-97578786D01*
X123783213Y-97434028D01*
X123617613Y-97313715D01*
X123617612Y-97313714D01*
X123617610Y-97313713D01*
X123560653Y-97284691D01*
X123435223Y-97220781D01*
X123240534Y-97157522D01*
X123065995Y-97129878D01*
X123038352Y-97125500D01*
X122833648Y-97125500D01*
X122809329Y-97129351D01*
X122631465Y-97157522D01*
X122436776Y-97220781D01*
X122254386Y-97313715D01*
X122088786Y-97434028D01*
X121944028Y-97578786D01*
X121823715Y-97744385D01*
X121816883Y-97757795D01*
X121768909Y-97808591D01*
X121706398Y-97825500D01*
X120325602Y-97825500D01*
X120258563Y-97805815D01*
X120215117Y-97757795D01*
X120208284Y-97744385D01*
X120087971Y-97578786D01*
X119943213Y-97434028D01*
X119777613Y-97313715D01*
X119777612Y-97313714D01*
X119777610Y-97313713D01*
X119720653Y-97284691D01*
X119595223Y-97220781D01*
X119400534Y-97157522D01*
X119225995Y-97129878D01*
X119198352Y-97125500D01*
X118993648Y-97125500D01*
X118969329Y-97129351D01*
X118791465Y-97157522D01*
X118596776Y-97220781D01*
X118414386Y-97313715D01*
X118248786Y-97434028D01*
X118104028Y-97578786D01*
X117983715Y-97744386D01*
X117890781Y-97926776D01*
X117827522Y-98121465D01*
X117795500Y-98323648D01*
X117795500Y-98528351D01*
X117827523Y-98730535D01*
X117832172Y-98744845D01*
X117834165Y-98814687D01*
X117801921Y-98870841D01*
X116725286Y-99947478D01*
X116613481Y-100059282D01*
X116613479Y-100059285D01*
X116563361Y-100146094D01*
X116563359Y-100146096D01*
X116534425Y-100196209D01*
X116534424Y-100196210D01*
X116534423Y-100196215D01*
X116493499Y-100348943D01*
X116493499Y-100348945D01*
X116493499Y-100517046D01*
X116493500Y-100517059D01*
X116493500Y-110362494D01*
X116473815Y-110429533D01*
X116421011Y-110475288D01*
X116407824Y-110480422D01*
X116376648Y-110490552D01*
X116321583Y-110508444D01*
X116132179Y-110604951D01*
X115960213Y-110729890D01*
X115809890Y-110880213D01*
X115684949Y-111052182D01*
X115680484Y-111060946D01*
X115632509Y-111111742D01*
X115564688Y-111128536D01*
X115498553Y-111105998D01*
X115459516Y-111060946D01*
X115455050Y-111052182D01*
X115330109Y-110880213D01*
X115179786Y-110729890D01*
X115007820Y-110604951D01*
X114818414Y-110508444D01*
X114818413Y-110508443D01*
X114818412Y-110508443D01*
X114616243Y-110442754D01*
X114616241Y-110442753D01*
X114616240Y-110442753D01*
X114454957Y-110417208D01*
X114406287Y-110409500D01*
X114193713Y-110409500D01*
X114145042Y-110417208D01*
X113983760Y-110442753D01*
X113781585Y-110508444D01*
X113592179Y-110604951D01*
X113420213Y-110729890D01*
X113269890Y-110880213D01*
X113144951Y-111052179D01*
X113048444Y-111241585D01*
X112982753Y-111443760D01*
X112981291Y-111452993D01*
X112949500Y-111653713D01*
X106672500Y-111653713D01*
X106672500Y-102176000D01*
X107659391Y-102176000D01*
X108620314Y-102176000D01*
X108615920Y-102180394D01*
X108563259Y-102271606D01*
X108536000Y-102373339D01*
X108536000Y-102478661D01*
X108563259Y-102580394D01*
X108615920Y-102671606D01*
X108620314Y-102676000D01*
X107659391Y-102676000D01*
X107668009Y-102730413D01*
X107731244Y-102925029D01*
X107824140Y-103107349D01*
X107944417Y-103272894D01*
X107944417Y-103272895D01*
X108089104Y-103417582D01*
X108254650Y-103537859D01*
X108436968Y-103630754D01*
X108631578Y-103693988D01*
X108686000Y-103702607D01*
X108686000Y-102741686D01*
X108690394Y-102746080D01*
X108781606Y-102798741D01*
X108883339Y-102826000D01*
X108988661Y-102826000D01*
X109090394Y-102798741D01*
X109181606Y-102746080D01*
X109186000Y-102741686D01*
X109186000Y-103702606D01*
X109240421Y-103693988D01*
X109435031Y-103630754D01*
X109617349Y-103537859D01*
X109782894Y-103417582D01*
X109782895Y-103417582D01*
X109927582Y-103272895D01*
X109927582Y-103272894D01*
X110047859Y-103107349D01*
X110140755Y-102925029D01*
X110203990Y-102730413D01*
X110212609Y-102676000D01*
X109251686Y-102676000D01*
X109256080Y-102671606D01*
X109308741Y-102580394D01*
X109336000Y-102478661D01*
X109336000Y-102373339D01*
X109308741Y-102271606D01*
X109256080Y-102180394D01*
X109251686Y-102176000D01*
X110212609Y-102176000D01*
X110203990Y-102121586D01*
X110140755Y-101926970D01*
X110047859Y-101744650D01*
X109927582Y-101579105D01*
X109927582Y-101579104D01*
X109782895Y-101434417D01*
X109617349Y-101314140D01*
X109435029Y-101221244D01*
X109240413Y-101158009D01*
X109186000Y-101149390D01*
X109186000Y-102110314D01*
X109181606Y-102105920D01*
X109090394Y-102053259D01*
X108988661Y-102026000D01*
X108883339Y-102026000D01*
X108781606Y-102053259D01*
X108690394Y-102105920D01*
X108686000Y-102110314D01*
X108686000Y-101149390D01*
X108631586Y-101158009D01*
X108436970Y-101221244D01*
X108254650Y-101314140D01*
X108089105Y-101434417D01*
X108089104Y-101434417D01*
X107944417Y-101579104D01*
X107944417Y-101579105D01*
X107824140Y-101744650D01*
X107731244Y-101926970D01*
X107668009Y-102121586D01*
X107659391Y-102176000D01*
X106672500Y-102176000D01*
X106672500Y-98176000D01*
X107659391Y-98176000D01*
X108620314Y-98176000D01*
X108615920Y-98180394D01*
X108563259Y-98271606D01*
X108536000Y-98373339D01*
X108536000Y-98478661D01*
X108563259Y-98580394D01*
X108615920Y-98671606D01*
X108620314Y-98676000D01*
X107659391Y-98676000D01*
X107668009Y-98730413D01*
X107731244Y-98925029D01*
X107824140Y-99107349D01*
X107944417Y-99272894D01*
X107944417Y-99272895D01*
X108089104Y-99417582D01*
X108254650Y-99537859D01*
X108436968Y-99630754D01*
X108631578Y-99693988D01*
X108686000Y-99702607D01*
X108686000Y-98741686D01*
X108690394Y-98746080D01*
X108781606Y-98798741D01*
X108883339Y-98826000D01*
X108988661Y-98826000D01*
X109090394Y-98798741D01*
X109181606Y-98746080D01*
X109186000Y-98741686D01*
X109186000Y-99702606D01*
X109240421Y-99693988D01*
X109435031Y-99630754D01*
X109617349Y-99537859D01*
X109782894Y-99417582D01*
X109782895Y-99417582D01*
X109927582Y-99272895D01*
X109927582Y-99272894D01*
X110047859Y-99107349D01*
X110140755Y-98925029D01*
X110203990Y-98730413D01*
X110212609Y-98676000D01*
X109251686Y-98676000D01*
X109256080Y-98671606D01*
X109308741Y-98580394D01*
X109336000Y-98478661D01*
X109336000Y-98373339D01*
X109308741Y-98271606D01*
X109256080Y-98180394D01*
X109251686Y-98176000D01*
X110212609Y-98176000D01*
X110203990Y-98121586D01*
X110140755Y-97926970D01*
X110047859Y-97744650D01*
X109927582Y-97579105D01*
X109927582Y-97579104D01*
X109782895Y-97434417D01*
X109617349Y-97314140D01*
X109435029Y-97221244D01*
X109240413Y-97158009D01*
X109186000Y-97149390D01*
X109186000Y-98110314D01*
X109181606Y-98105920D01*
X109090394Y-98053259D01*
X108988661Y-98026000D01*
X108883339Y-98026000D01*
X108781606Y-98053259D01*
X108690394Y-98105920D01*
X108686000Y-98110314D01*
X108686000Y-97149390D01*
X108631586Y-97158009D01*
X108436970Y-97221244D01*
X108254650Y-97314140D01*
X108089105Y-97434417D01*
X108089104Y-97434417D01*
X107944417Y-97579104D01*
X107944417Y-97579105D01*
X107824140Y-97744650D01*
X107731244Y-97926970D01*
X107668009Y-98121586D01*
X107659391Y-98176000D01*
X106672500Y-98176000D01*
X106672500Y-90286500D01*
X106692185Y-90219461D01*
X106744989Y-90173706D01*
X106796500Y-90162500D01*
X120207890Y-90162500D01*
X120207892Y-90162500D01*
X120335186Y-90128392D01*
X120449314Y-90062500D01*
X120542500Y-89969314D01*
X120608392Y-89855186D01*
X120642500Y-89727892D01*
X120642500Y-86476500D01*
X120662185Y-86409461D01*
X120714989Y-86363706D01*
X120766500Y-86352500D01*
X156347500Y-86352500D01*
X156414539Y-86372185D01*
G37*
%TD.AperFunction*%
%TD*%
M02*
